<svg viewBox="0 0 330 200" xmlns="http://www.w3.org/2000/svg"><g><g><g><g><g><line x1="51.53200149536133" y1="177.89999961853027" x2="46.53200149536133" y2="177.89999961853027" style="visibility: inherit;" fill="rgb(0, 0, 0)" stroke="rgb(204, 204, 204)" stroke-width="1px"></line><line x1="51.53200149536133" y1="155.662499666214" x2="46.53200149536133" y2="155.662499666214" style="visibility: inherit;" fill="rgb(0, 0, 0)" stroke="rgb(204, 204, 204)" stroke-width="1px"></line><line x1="51.53200149536133" y1="133.4249997138977" x2="46.53200149536133" y2="133.4249997138977" style="visibility: inherit;" fill="rgb(0, 0, 0)" stroke="rgb(204, 204, 204)" stroke-width="1px"></line><line x1="51.53200149536133" y1="111.1874997615814" x2="46.53200149536133" y2="111.1874997615814" style="visibility: inherit;" fill="rgb(0, 0, 0)" stroke="rgb(204, 204, 204)" stroke-width="1px"></line><line x1="51.53200149536133" y1="88.94999980926512" x2="46.53200149536133" y2="88.94999980926512" style="visibility: inherit;" fill="rgb(0, 0, 0)" stroke="rgb(204, 204, 204)" stroke-width="1px"></line><line x1="51.53200149536133" y1="66.71249985694885" x2="46.53200149536133" y2="66.71249985694885" style="visibility: inherit;" fill="rgb(0, 0, 0)" stroke="rgb(204, 204, 204)" stroke-width="1px"></line><line x1="51.53200149536133" y1="44.47499990463257" x2="46.53200149536133" y2="44.47499990463257" style="visibility: inherit;" fill="rgb(0, 0, 0)" stroke="rgb(204, 204, 204)" stroke-width="1px"></line><line x1="51.53200149536133" y1="22.237499952316284" x2="46.53200149536133" y2="22.237499952316284" style="visibility: inherit;" fill="rgb(0, 0, 0)" stroke="rgb(204, 204, 204)" stroke-width="1px"></line><line x1="51.53200149536133" y1="0" x2="46.53200149536133" y2="0" style="visibility: inherit;" fill="rgb(0, 0, 0)" stroke="rgb(204, 204, 204)" stroke-width="1px"></line></g><g transform="translate(41.53200149536133, 0)"><text style="text-anchor: end; visibility: hidden; font-family: Roboto, sans-serif; font-size: 12px; font-weight: 200;" x="0" y="177.89999961853027" dx="0em" dy="0.3em" fill="rgb(50, 49, 63)" stroke="none" stroke-width="1px">-0.1</text><text style="text-anchor: end; visibility: inherit; font-family: Roboto, sans-serif; font-size: 12px; font-weight: 200;" x="0" y="155.662499666214" dx="0em" dy="0.3em" fill="rgb(50, 49, 63)" stroke="none" stroke-width="1px">0</text><text style="text-anchor: end; visibility: hidden; font-family: Roboto, sans-serif; font-size: 12px; font-weight: 200;" x="0" y="133.4249997138977" dx="0em" dy="0.3em" fill="rgb(50, 49, 63)" stroke="none" stroke-width="1px">0.1</text><text style="text-anchor: end; visibility: inherit; font-family: Roboto, sans-serif; font-size: 12px; font-weight: 200;" x="0" y="111.1874997615814" dx="0em" dy="0.3em" fill="rgb(50, 49, 63)" stroke="none" stroke-width="1px">0.2</text><text style="text-anchor: end; visibility: hidden; font-family: Roboto, sans-serif; font-size: 12px; font-weight: 200;" x="0" y="88.94999980926512" dx="0em" dy="0.3em" fill="rgb(50, 49, 63)" stroke="none" stroke-width="1px">0.3</text><text style="text-anchor: end; visibility: inherit; font-family: Roboto, sans-serif; font-size: 12px; font-weight: 200;" x="0" y="66.71249985694885" dx="0em" dy="0.3em" fill="rgb(50, 49, 63)" stroke="none" stroke-width="1px">0.4</text><text style="text-anchor: end; visibility: hidden; font-family: Roboto, sans-serif; font-size: 12px; font-weight: 200;" x="0" y="44.47499990463257" dx="0em" dy="0.3em" fill="rgb(50, 49, 63)" stroke="none" stroke-width="1px">0.5</text><text style="text-anchor: end; visibility: inherit; font-family: Roboto, sans-serif; font-size: 12px; font-weight: 200;" x="0" y="22.237499952316284" dx="0em" dy="0.3em" fill="rgb(50, 49, 63)" stroke="none" stroke-width="1px">0.6</text><text style="text-anchor: end; visibility: hidden; font-family: Roboto, sans-serif; font-size: 12px; font-weight: 200;" x="0" y="0" dx="0em" dy="0.3em" fill="rgb(50, 49, 63)" stroke="none" stroke-width="1px">0.7</text></g><line x1="51.53200149536133" y1="0" x2="51.53200149536133" y2="177.89999961853027" fill="rgb(0, 0, 0)" stroke="rgb(204, 204, 204)" stroke-width="1px"></line></g></g><g transform="translate(51, 0)" clip-path="url(#clip_0)"><clipPath id="clip_0"><rect width="278" height="177"></rect></clipPath><g><g><g><line x1="0" y1="0" x2="0" y2="177.89999961853027" fill="rgb(0, 0, 0)" stroke="rgb(60, 60, 60)" stroke-width="1px" opacity="0.25"></line><line x1="19.890571321759904" y1="0" x2="19.890571321759904" y2="177.89999961853027" fill="rgb(0, 0, 0)" stroke="rgb(60, 60, 60)" stroke-width="1px" opacity="0.25"></line><line x1="39.78114264351981" y1="0" x2="39.78114264351981" y2="177.89999961853027" fill="rgb(0, 0, 0)" stroke="rgb(60, 60, 60)" stroke-width="1px" opacity="0.25"></line><line x1="59.671713965279714" y1="0" x2="59.671713965279714" y2="177.89999961853027" fill="rgb(0, 0, 0)" stroke="rgb(60, 60, 60)" stroke-width="1px" opacity="0.25"></line><line x1="79.56228528703961" y1="0" x2="79.56228528703961" y2="177.89999961853027" fill="rgb(0, 0, 0)" stroke="rgb(60, 60, 60)" stroke-width="1px" opacity="0.25"></line><line x1="99.45285660879952" y1="0" x2="99.45285660879952" y2="177.89999961853027" fill="rgb(0, 0, 0)" stroke="rgb(60, 60, 60)" stroke-width="1px" opacity="0.25"></line><line x1="119.34342793055943" y1="0" x2="119.34342793055943" y2="177.89999961853027" fill="rgb(0, 0, 0)" stroke="rgb(60, 60, 60)" stroke-width="1px" opacity="0.25"></line><line x1="139.23399925231934" y1="0" x2="139.23399925231934" y2="177.89999961853027" fill="rgb(0, 0, 0)" stroke="rgb(60, 60, 60)" stroke-width="1px" opacity="0.25"></line><line x1="159.12457057407923" y1="0" x2="159.12457057407923" y2="177.89999961853027" fill="rgb(0, 0, 0)" stroke="rgb(60, 60, 60)" stroke-width="1px" opacity="0.25"></line><line x1="179.01514189583915" y1="0" x2="179.01514189583915" y2="177.89999961853027" fill="rgb(0, 0, 0)" stroke="rgb(60, 60, 60)" stroke-width="1px" opacity="0.25"></line><line x1="198.90571321759904" y1="0" x2="198.90571321759904" y2="177.89999961853027" fill="rgb(0, 0, 0)" stroke="rgb(60, 60, 60)" stroke-width="1px" opacity="0.25"></line><line x1="218.79628453935896" y1="0" x2="218.79628453935896" y2="177.89999961853027" fill="rgb(0, 0, 0)" stroke="rgb(60, 60, 60)" stroke-width="1px" opacity="0.25"></line><line x1="238.68685586111886" y1="0" x2="238.68685586111886" y2="177.89999961853027" fill="rgb(0, 0, 0)" stroke="rgb(60, 60, 60)" stroke-width="1px" opacity="0.25"></line><line x1="258.57742718287875" y1="0" x2="258.57742718287875" y2="177.89999961853027" fill="rgb(0, 0, 0)" stroke="rgb(60, 60, 60)" stroke-width="1px" opacity="0.25"></line><line x1="278.4679985046387" y1="0" x2="278.4679985046387" y2="177.89999961853027" fill="rgb(0, 0, 0)" stroke="rgb(60, 60, 60)" stroke-width="1px" opacity="0.25"></line></g><g><line x1="0" y1="177.89999961853027" x2="278.4679985046387" y2="177.89999961853027" fill="rgb(0, 0, 0)" stroke="rgb(60, 60, 60)" stroke-width="1px" opacity="0.25"></line><line x1="0" y1="155.662499666214" x2="278.4679985046387" y2="155.662499666214" fill="rgb(0, 0, 0)" stroke="rgb(60, 60, 60)" stroke-width="1px" opacity="0.25"></line><line x1="0" y1="133.4249997138977" x2="278.4679985046387" y2="133.4249997138977" fill="rgb(0, 0, 0)" stroke="rgb(60, 60, 60)" stroke-width="1px" opacity="0.25"></line><line x1="0" y1="111.1874997615814" x2="278.4679985046387" y2="111.1874997615814" fill="rgb(0, 0, 0)" stroke="rgb(60, 60, 60)" stroke-width="1px" opacity="0.25"></line><line x1="0" y1="88.94999980926512" x2="278.4679985046387" y2="88.94999980926512" fill="rgb(0, 0, 0)" stroke="rgb(60, 60, 60)" stroke-width="1px" opacity="0.25"></line><line x1="0" y1="66.71249985694885" x2="278.4679985046387" y2="66.71249985694885" fill="rgb(0, 0, 0)" stroke="rgb(60, 60, 60)" stroke-width="1px" opacity="0.25"></line><line x1="0" y1="44.47499990463257" x2="278.4679985046387" y2="44.47499990463257" fill="rgb(0, 0, 0)" stroke="rgb(60, 60, 60)" stroke-width="1px" opacity="0.25"></line><line x1="0" y1="22.237499952316284" x2="278.4679985046387" y2="22.237499952316284" fill="rgb(0, 0, 0)" stroke="rgb(60, 60, 60)" stroke-width="1px" opacity="0.25"></line><line x1="0" y1="0" x2="278.4679985046387" y2="0" fill="rgb(0, 0, 0)" stroke="rgb(60, 60, 60)" stroke-width="1px" opacity="0.25"></line></g></g></g><g><g><line x1="0" y1="155.662499666214" x2="278.4679985046387" y2="155.662499666214" fill="rgb(0, 0, 0)" stroke="rgb(153, 153, 153)" stroke-width="1.5px"></line></g></g><g><g><line x1="19.890571321759904" y1="0" x2="19.890571321759904" y2="177.89999961853027" fill="rgb(0, 0, 0)" stroke="rgb(153, 153, 153)" stroke-width="1.5px"></line></g></g><g><g><g><g><g><path style="fill: none;" stroke="rgb(255, 112, 67)" stroke-width="2px" d="M20.4872884614127,-12.21067079574427L20.8850998878479,1.4403229872620682L20.9845527444567,-15.63555632667001L21.282911314283098,-15.266432175198807L21.3823641708919,0.6837878178333349L21.6807227407183,23.83542297049352L21.780175597327094,43.630107100261405L21.879628453935894,41.55474486374082L22.277439880371094,44.998867872676485L23.17251558985029,53.721210703098556L23.470874159676686,66.34350703566L23.868685586111887,77.41949655231528L24.067591299329482,41.94879497697014L24.266497012547084,41.310960536017994L24.365949869155884,47.13519266489356L24.564855582373482,63.319665846550684L24.76376129559108,59.9104917246492L25.161572722026282,44.36538091654219L25.26102557863508,24.96323491201603L25.360478435243877,27.911982395716304L25.45993129185268,32.90502216394457L25.55938414846148,35.071866409873316L26.156101288114275,23.11677025508277L26.355007001331874,27.671341634575974L26.454459857940673,29.260007555384263L26.553912714549476,24.186011667565683L26.65336557115827,22.36942203322236L26.95172414098467,25.106869023415264L27.05117699759347,21.113285227053517L27.150629854202272,29.996744604122693L27.250082710811068,39.02525397693538L27.747346993855068,51.382830182588606L28.244611276899064,51.15628855667204L28.542969846725462,54.86336559288666L28.64242270333426,34.33119201716302L29.239139842987058,49.222433388950805L30.034762695857456,58.57779643596157L30.333121265683857,65.62973824280783L30.432574122292657,56.13885781693427L31.12874411855425,61.908923432529924L31.42710268838065,76.89711094104884L31.62600840159825,73.8432538434193L32.322178397859844,74.66912496980446L32.42163125446864,80.5008764300058L32.71998982429504,73.45335381245945L32.81944268090384,77.23035909987236L33.51561267716544,74.83174173174552L33.714518390383034,78.8908400211858L33.91342410360064,71.53774449184013L34.01287696020944,68.63316917629648L34.11232981681824,73.67566497578403L34.808499813079834,73.57267266088243L35.30576409612383,77.44282011535594L35.50466980934143,64.56119691124896L35.60412266595023,63.86660772055833L35.703575522559035,75.7532722885857L36.001934092385426,74.61934733546633L36.30029266221183,74.14753731929531L36.49919837542942,77.29770902955595L36.59865123203822,84.39159574591417L36.89700980186463,79.33206615930452L37.49372694151742,84.70554353825193L37.59317979812622,82.40597077649831L37.792085511343814,76.19664151053138L38.09044408117022,68.73591575741612L38.28934979438782,73.85734907767905L38.38880265099662,79.8315577289721L38.587708364214215,83.74260161559434L38.786614077431814,90.35912686636857L38.88606693404062,91.19006387084188L39.582236930302216,89.05351426741922L40.3778597831726,93.98609641106152L40.4773126397814,89.65249969718187L40.57676549639021,77.1354403892713L40.9745769228254,68.54637454232953L41.9691054889134,4.623066340768728L42.0685583455222,25.813781215845108L42.2674640587398,32.9565534563398L42.466369771957396,48.187938801308505L42.665275485174995,40.015720156381626L42.96363405500139,47.077738312519344L43.06308691161019,42.539734071622455L43.16253976821899,42.79671550571354L43.460898338045396,45.528014117707876L44.45542690413339,27.011879899696744L44.65433261735099,39.41179200507212L45.251049757003784,40.506661768744756L45.54940832683018,58.37265802021471L45.64886118343898,64.0975127579941L45.74831404004778,76.04646183102946L45.84776689665658,75.56741473781344L46.046672609874186,57.70182762539527L46.444484036309376,48.976478896926366L46.64338974952698,47.88694795360116L46.84229546274457,52.822400677939754L47.04120117596217,52.015961703437384L47.53846545900617,51.853946099584775L48.135182598658965,67.02750865054118L48.83135259492057,72.82598237753297L48.930805451529366,70.49244691473332L49.42806973457336,82.18657045269698L49.52752259118216,84.7462176001496L49.82588116100857,73.06054093583316L49.92533401761737,63.553559426668656L50.02478687422616,73.89132587585374L50.42259830066136,65.86281583087897L50.52205115727016,79.59565358599484L50.720956870487754,70.84791305114975L51.01931544031416,77.65121821586821L51.417126866749356,74.1607573956617L51.516579723358156,72.88915574842294L51.616032579966955,76.36256886246923L51.715485436575754,82.38651762585243L51.914391149793346,88.51712363820907L52.21274971961975,90.18051760748337L52.31220257622855,94.31507871175299L52.41165543283735,89.15360728388609L52.71001400266375,91.6767576882158L53.008372572490146,84.54058521845351L53.60508971214295,80.95650224317497L53.80399542536055,70.90305249718675L54.10235399518694,64.8214820844691L54.201806851795745,67.8464661879032L54.40071256501334,75.71045592865121L54.500165421622135,75.58572063142554L54.99742970466614,82.5457996700032L55.09688256127494,85.01596902532076L55.494693987710136,84.22349939151943L55.693599700927734,83.63430654493838L55.99195827075413,83.84032775031737L56.38976969718934,87.50199687829735L56.78758112362453,80.32115300740492L56.98648683684213,91.90604202401458L57.38429826327733,78.31297111819138L57.48375111988613,74.86147693206259L57.58320397649493,68.98193965942814L57.78210968971252,74.85254627586967L58.279373972756524,85.7779089030312L58.378826829365316,83.03556016361652L58.77663825580052,86.45002430229587L58.87609111240932,56.34080764556421L58.97554396901812,69.91536660679284L59.97007253510611,74.63396992730901L60.46733681815011,84.05225135665923L61.163506814411704,49.7624566997434L61.26295967102051,33.96400993988582L61.76022395406451,47.290193940067766L61.85967681067331,39.493705090201786L62.058582523890905,59.157238178101146L62.2574882371085,62.816248883817L62.6552996635437,72.94037180972L63.550375373022895,33.98848152308912L63.749281086240494,21.556540144268848L63.84873394284929,-1.5604277646970894L64.14709251267568,-4.3999643970623294L64.7438096523285,22.060817673938757L65.53943250519889,18.250127760231848L65.63888536180768,32.62341490607856L65.73833821841649,41.48474761241058L65.93724393163409,44.00693243096065L66.03669678824289,50.3323249288891L66.33505535806928,64.65767172836352L66.43450821467809,44.71198536833702L66.93177249772208,24.689588591751974L67.03122535433089,37.46321985740391L68.12520677702767,58.51627160193943L68.42356534685408,70.50317175984112L68.52301820346288,65.38041795430883L68.72192391668047,68.56726037552068L68.92082962989807,64.51526215273692L69.21918819972447,70.77506668694471L70.31316962242127,73.16524755765899L70.71098104885647,67.32319450249098L70.81043390546526,70.89332526950587L71.00933961868286,63.67275343581761L71.30769818850926,61.20566150766428L71.50660390172686,66.01509559949663L72.00386818477085,67.95917434693214L72.10332104137966,78.85790774315947L72.70003818103245,72.75767565570588L72.89894389425005,82.21229136038473L72.99839675085884,52.47197264026028L73.09784960746765,74.311264191317L73.19730246407644,58.06527065322287L73.29675532068525,67.52222902314463L73.39620817729404,66.48675394232627L73.59511389051166,49.732536733361556L73.79401960372925,58.99344994981912L74.29128388677324,73.03679859321402L74.39073674338204,65.6592148898549L74.49018959999086,70.67628985930524L74.68909531320845,74.62455636768489L75.08690673964364,80.82092287207385L75.28581245286124,69.53046462027011L75.48471816607884,72.11803408444752L75.88252959251405,74.20031107219377L75.98198244912284,70.12952894085223L76.08143530573163,67.02845534555601L76.47924673216683,64.27671088497026L76.87705815860204,68.69713265615961L76.97651101521083,67.8076153800051L77.27486958503724,65.44279234585028L77.47377529825482,64.11490979306271L77.57322815486363,67.83993083444881L77.67268101147242,62.431439070648715L77.77213386808124,50.826031783019296L77.87158672469003,54.69770374937485L77.97103958129884,66.01591102630385L78.16994529451642,59.7963356822028L78.26939815112523,70.26802119923217L78.76666243416922,65.80922431322934L78.86611529077801,64.01889105675853L79.16447386060443,57.7145732074609L79.26392671721322,72.77609981729206L79.56228528703961,75.00937478248852L79.76119100025721,81.48603935707003L80.15900242669242,81.50272316239153L80.35790813991002,74.96707964554288L80.55681385312762,78.99819936321263L80.7557195663452,72.81993815136434L81.05407813617163,81.51617205366564L81.45188956260681,84.2410408193739L81.55134241921562,89.60464059231741L81.75024813243321,94.03763599293873L82.0486067022596,56.5773431655274L82.44641812869482,72.6326215562081L82.9436824117388,84.29917812254767L83.63985240800041,93.50225038597088L83.7393052646092,93.60148484366134L83.9382109778268,94.37935233418823L84.03766383443559,94.15994934709263L84.1371166910444,95.804570108533L84.23656954765319,92.22166076982374L84.4354752608708,96.57823864293853L84.7338338306972,94.35731250479239L85.13164525713239,89.07506344113712L85.23109811374118,88.95632782142569L85.6289095401764,88.81819056993719L85.92726811000279,76.11470796892092L86.32507953643798,78.22751040706616L86.62343810626439,85.31225715603712L86.7228909628732,70.69513493870679L86.82234381948199,86.43077870479786L86.92179667609079,87.7364874289295L87.02124953269958,90.4036751858813L87.22015524591718,92.0645056144449L87.31960810252598,83.38712801953588L87.41906095913478,89.73573928795462L87.6179666723524,93.54639851503516L87.71741952896119,86.56489811928947L87.81687238556998,-200.63651528443955L91.59608093670435,-28.796430161689035L91.69553379331316,3.260604212592854L91.79498664992195,22.161864414048768L91.89443950653077,38.54266241038504L91.99389236313957,37.63483366385059L92.49115664618355,34.98189958008327L93.08787378583636,27.247233782534785L93.28677949905396,18.37786715091686L93.38623235566276,26.68891435043159L93.48568521227155,38.20644942129918L93.78404378209795,0.09956386873945333L94.08240235192434,13.8763112462716L94.18185520853315,18.499199727843113L94.48021377835956,4.882373980305351L94.57966663496835,21.481008822549523L94.67911949157715,-5.974271502084232L94.87802520479474,15.140203261763117L95.07693091801234,27.172729114184385L95.67364805766515,43.009817704506766L95.97200662749154,43.906721156138076L96.07145948410033,54.22851883618993L96.36981805392675,38.667192574999625L96.46927091053554,34.043275825175066L96.56872376714435,49.112327391083525L96.76762948036193,62.75236692782158L96.86708233697074,59.82744906501787L97.46379947662354,61.41185530053133L97.86161090305873,44.19028568735617L97.96106375966754,25.3723537819485L98.15996947288512,15.631887762081945L98.35887518610272,9.096466483681947L98.55778089932033,6.293577097656175L98.65723375592913,4.910373784733687L98.75668661253793,12.155154275002163L98.85613946914673,24.694584797918644L98.95559232575553,33.12774342699381L99.25395089558192,43.35962720129173L99.45285660879952,57.33319412050697L99.65176232201713,64.86745307038592L99.95012089184353,64.44870669637034L100.14902660506112,65.47680181264764L100.24847946166992,65.88083534736843L100.34793231827872,74.91450334620001L100.74574374471392,74.74042453893344L100.94464945793152,43.41676371956982L101.04410231454032,36.4070842971751L101.24300802775791,54.22314839127715L101.54136659758431,43.74805186050375L101.93917802401951,59.620836502323L102.23753659384592,73.35750560748362L102.53589516367231,61.63356692403124L102.6353480202811,67.98467557314399L102.83425373349871,60.46155373607134L103.03315944671631,58.345039685457905L103.23206515993391,49.291785715520454L103.7293294429779,42.65086162415717L104.0276880128043,32.032372545660145L104.12714086941311,47.50718300413764L104.2265937260219,53.42803494367182L104.5249522958483,61.527316031045274L105.3205751487187,62.97341870662313L105.4200280053275,50.0890238038897L105.5194808619363,63.08830525897504L105.71838657515389,69.24354504513578L106.1161980015891,46.14304539986897L106.3151037148067,52.508849362422815L106.41455657141549,60.01919227767607L106.81236799785069,69.39855410049881L107.01127371106828,71.03619713613303L107.11072656767708,73.46229716142375L107.4090851375035,72.76957751112141L107.6079908507211,78.22979243106252L107.80689656393868,89.72876105539486L108.10525513376508,77.37198897162556L108.30416084698268,86.1158083086011L108.40361370359149,79.11326685145498L108.60251941680909,75.35647564656753L108.70197227341788,85.89639630118953L109.00033084324427,71.93653051412976L109.29868941307069,69.86277020216689L109.39814226967948,78.25186265450346L110.09431226594107,80.41986022622083L110.19376512254988,82.15315845867772L110.29321797915867,91.59413456957003L110.39267083576746,84.96950974102734L110.59157654898507,79.99498142301032L110.69102940559388,87.17326620254052L110.88993511881147,94.34255628472347L110.98938797542027,90.9467566697683L111.08884083202906,84.80914665555683L111.38719940185547,84.14874747979152L111.48665225846426,77.67554152582387L111.58610511507307,90.28909620797008L111.68555797168187,86.20554937739216L111.88446368489947,79.49407554255987L112.48118082455225,82.89247748002528L112.58063368116107,79.80036741542338L112.87899225098747,79.01798563298955L113.57516224724905,85.31923341667479L113.87352081707546,85.7279764452055L114.56969081333705,81.5883279081443L114.66914366994585,84.07882202491747L114.76859652655466,80.78323301262944L114.96750223977226,71.78655473052903L115.06695509638105,77.95526817596001L115.16640795298986,66.76121605852418L115.46476652281625,71.09606363566331L115.56421937942504,81.64396410325872L115.76312509264264,82.45697143524033L115.96203080586025,80.69931165138375L116.06148366246904,92.08826263889412L116.45929508890424,71.23491580364221L116.55874794551305,70.43886676736302L116.95655937194823,71.85529072619578L117.05601222855705,63.24178383616077L117.15546508516584,79.46800924810458L117.25491794177465,79.56532332689848L117.55327651160104,64.63578205533443L117.65272936820983,76.9080923075167L117.75218222481864,65.56704323535975L118.05054079464504,79.89257419992687L118.14999365125384,85.18158877873323L118.94561650412423,73.0525392069795L119.34342793055943,59.63819783900552L119.54233364377703,73.09846469283109L119.74123935699463,74.56940756065775L119.84069221360343,82.5527157567173L120.13905078342982,77.07792756594684L120.23850364003863,82.64173993882103L120.43740935325623,86.92705935467882L120.53686220986503,88.08977131368171L120.63631506647383,88.6056145361642L120.73576792308262,94.07238852678937L121.03412649290902,84.73643345487548L121.82974934577942,91.73803221085623L122.02865505899702,90.4810789826509L122.22756077221462,92.02040583703437L122.42646648543223,71.65271485626111L122.52591934204102,67.16039687385936L122.62537219864981,71.80252047512715L122.82427791186741,73.90431676921368L123.02318362508501,79.81276940409319L123.1226364816938,82.03325750213865L123.22208933830261,80.20041164479673L123.52044790812901,87.12325512671818L123.71935362134661,90.64866747944919L124.4155236176082,85.34779552222449L124.514976474217,79.69495597930634L124.81333504404341,83.39985929906874L125.01224075726101,90.74775069869014L125.6089578969138,95.60845753555955L125.7084107535226,97.66430796404306L125.9073164667402,95.14424627555742L126.1062221799578,99.99303585736519L126.504033606393,87.5532004576011L126.9018450328282,88.46421534647999L127.10075074604579,92.18033435740159L127.29965645926339,86.93497242522399L127.5980150290898,85.5096766808324L127.69746788569859,78.69256135752481L127.79692074230738,78.15910645394713L127.8963735989162,88.79871391367544L128.49309073856898,96.86421190921554L128.5925435951778,103.69647243530929L129.18926073483058,98.0799478003973L129.38816644804817,92.85289100118028L129.58707216126578,89.93177615044591L129.68652501787457,86.97872450029354L129.7859778744834,92.33140675445513L130.68105358396258,94.15634285615087L130.87995929718016,97.21044055049587L131.17831786700657,99.11854704782269L131.57612929344177,96.29605583379886L131.77503500665938,92.46982714950808L131.87448786326817,94.8812800788625L132.27229928970337,100.50214854649784L132.37175214631216,103.49809102271149L132.57065785952977,100.17006822978216L132.67011071613857,102.2836080590178L132.7695635727474,102.59108750783538L133.06792214257376,98.50812835615292L133.16737499918256,102.66862010567927L134.16190356527056,95.88778077915218L134.36080927848815,80.80140253534266L134.46026213509697,89.81090640522092L134.75862070492335,97.02619462759759L134.85807356153214,94.60944364135698L134.95752641814096,99.1501132529516L135.25588498796736,92.0771793558722L135.35533784457616,84.64536047678507L135.45479070118495,91.68857626773088L136.94658355031694,80.97325733880965L137.24494212014335,86.17819655362452L137.44384783336093,92.84634877829947L137.54330068996975,54.15140419035624L137.74220640318734,60.56306391734131L137.84165925979613,74.60516942537708L138.14001782962254,61.841351725178576L138.43837639944894,65.08162595085518L138.53782925605773,61.7815405546076L138.63728211266653,51.393105366416606L138.73673496927535,46.40366344248191L138.93564068249293,63.57414481574459L139.13454639571054,76.91568032792878L139.33345210892813,79.05694118859232L139.53235782214574,76.00504738148098L139.63181067875453,79.4196190329816L139.83071639197212,79.61482260123177L140.02962210518973,70.34888504160682L140.22852781840731,76.51042434885103L140.3279806750161,88.77644767711358L140.42743353162496,97.69941586339303L140.52688638823375,93.03338558884498L140.62633924484254,91.1959467535344L141.62086781093052,93.77317302764006L142.01867923736572,97.27250927902816L142.41649066380091,97.58157991772144L142.51594352040973,98.7182891322924L142.61539637701853,100.4059902295453L142.81430209023614,99.47752892187427L143.11266066006252,94.32893474190524L143.41101922988892,95.51093501263756L143.6099249431065,102.57631073685278L143.80883065632412,96.98192006315912L143.9082835129329,94.40612373850928L144.1071892261505,97.50444471569307L144.5050006525857,95.39367913371211L144.60445350919449,97.41490109554822L144.70390636580333,102.66109926796824L144.90281207902092,104.81566288187335L145.0022649356297,102.76393975716388L145.30062350545612,103.81427805579216L145.4000763620649,103.58500616624954L145.4995292186737,65.91024303986197L145.59898207528252,69.8349231648868L145.7978877885001,68.8708605699644L146.2951520715441,74.6156304508553L146.5935106413705,70.95126022715604L147.09077492441452,77.42614816236446L147.2896806376321,88.36546284440635L147.6874920640673,96.03255134543382L147.88639777728488,93.4355328201395L148.28420920372008,94.84703485154006L148.38366206032887,96.88100060524093L148.4831149169377,103.08182800295653L148.5825677735465,94.82613417517616L148.78147348676407,88.99628774740216L149.0798320565905,92.63471887381266L149.1792849131993,93.9414269460503L149.3781906264169,92.80558378322715L149.4776434830257,86.41814697484295L149.5770963396345,94.19330497081472L150.17381347928728,90.54978969038511L150.3727191925049,98.11146127724909L150.47217204911368,93.17201803983986L150.67107776233127,95.13028503596603L150.77053061894009,100.19091897922688L151.06888918876646,94.30206354003482L151.16834204537525,92.927672637198L151.66560632841927,88.27424241585169L151.7650591850281,94.3009367459223L151.86451204163689,91.47333464818766L152.16287061146326,99.64139991981372L152.36177632468087,101.6503701013109L152.46122918128967,97.00867987400335L152.56068203789846,92.15808214939479L152.66013489450728,98.07897770005546L152.75958775111607,91.56088312255928L152.85904060772486,90.16270294943378L153.45575774737767,91.11888685965792L153.95302203042166,90.24976693835745L154.05247488703048,91.40125397143129L154.15192774363928,93.68388904615306L154.64919202668327,89.94205493777386L155.04700345311846,95.27347815238619L155.24590916633605,84.57144781496113L155.34536202294484,83.8858110250397L155.74317344938007,60.66232162473853L156.14098487581526,70.22510152303366L156.83715487207684,54.16494788119435L157.03606058529445,51.45926352720393L157.33441915512083,50.2297950227153L157.53332486833844,18.003455922939242L157.63277772494723,39.801511347658405L157.93113629477367,39.36959837892411L158.03058915138246,51.377453039190605L158.22949486460004,67.23664762563398L158.32894772120886,64.2848560289942L158.62730629103524,66.48775684756558L160.31800485338485,70.34519182066406L160.41745770999364,78.11096317859757L160.51691056660243,84.70574619221405L160.61636342321123,88.66530402978664L161.01417484964642,91.00037632305218L161.31253341947283,96.4888242192522L161.41198627608162,92.57261532991275L161.71034484590803,76.0680452717269L161.80979770251682,83.50358330373777L161.9092505591256,88.48860794606912L162.30706198556084,94.90224497414934L162.40651484216963,100.77133753317209L162.50596769877842,102.38762837117936L162.70487341199603,96.46437429197574L162.90377912521362,92.48432676946193L163.10268483843123,90.59279902414656L163.30159055164881,91.44974662626674L163.8983076913016,99.95258481917534L164.0972134045192,105.7156211700213L164.59447768756323,103.68632535087572L164.69393054417202,100.77285314336454L165.5890062536512,100.16788480789278L165.68845911026,85.5724667540031L166.78244053295683,90.07864223285492L167.180251959392,93.26728499027755L167.27970481600082,98.63564879381728L167.5780633858272,72.79016215317415L167.67751624243598,85.63509092341297L167.9758748122624,88.14571887275127L168.17478052548,93.86788272665574L168.2742333820888,97.9054694004143L168.3736862386976,99.53059786557853L169.0698562349592,100.13381762272196L169.169309091568,69.59342385794939L169.2687619481768,70.2400054759922L169.3682148047856,76.50028604156768L169.666573374612,85.42883001158509L169.86547908782958,90.81866075132825L169.96493194443838,86.3439403428163L170.0643848010472,96.83595414823736L170.163837657656,95.76813164332984L170.66110194069998,75.39561899261123L170.8600076539176,73.49216407383506L171.35727193696158,82.78835611686166L171.4567247935704,86.53578576018556L171.75508336339678,86.08306029546513L172.45125335965838,94.83517418338187L172.65015907287597,90.93043381983749L173.64468763896397,93.97392335972083L173.84359335218159,96.88528509673817L173.94304620879038,96.74496897605616L174.14195192200796,98.52008181892187L174.24140477861675,90.54005252674843L174.44031049183437,95.06126530006705L174.53976334844316,99.49871772324666L175.13648048809594,87.65552480452222L175.2359333447048,96.68234504593502L175.83265048435757,98.0582004290845L175.93210334096636,95.88620167577838L176.82717905044555,97.97929973947079L177.22499047688075,94.18804008043801L177.42389619009836,99.43658286175167L177.82170761653356,94.9087442729527L178.41842475618634,89.5971755289431L178.71678332601275,87.84393214238621L178.91568903923033,91.81157086273868L179.21404760905673,98.28661668056034L179.41295332227432,102.02899835058393L179.51240617888317,101.10809307305551L179.91021760531834,99.95117008850085L180.00967046192716,92.40477869449174L180.20857617514474,99.109726986908L180.30802903175353,103.60672888715567L180.50693474497115,99.62144712200224L180.80529331479752,100.70062608207218L180.90474617140634,107.29097015543658L181.00419902801514,110.56403551573811L181.40201045445033,104.30426894466245L181.60091616766792,102.02115486295237L181.7003690242767,99.19808841178336L181.79982188088553,102.14986319090666L181.99872759410314,103.98821362277813L182.19763330732073,100.0721825675114L182.39653902053834,99.76253436666934L182.69489759036472,95.44566574996279L182.99325616019112,95.19780167973043L183.09270901679992,83.67858366746309L183.1921618734087,84.47833853453072L183.4905204432351,88.09142373909552L183.68942615645273,83.76322236174721L183.78887901306155,91.17530493479515L184.08723758288792,98.38384991349596L184.18669043949674,102.14154025600813L184.48504900932312,105.15433648261025L184.88286043575832,95.73874655478036L184.9823132923671,85.17916345617034L185.0817661489759,95.17730246449489L185.7779361452375,99.3162630397371L185.9768418584551,84.41721492976649L186.07629471506394,95.6413652952615L186.17574757167273,99.21278053693958L186.4741061414991,100.0451782353026L186.57355899810793,101.82192786745561L186.7724647113255,92.84950003139917L187.1702761377607,92.42007091525848L187.2697289943695,95.86830335479257L187.3691818509783,101.56863401934515L187.6675404208047,99.61471938545763L188.0653518472399,101.6254069845214L188.1648047038487,105.13163281853777L188.3637104170663,108.51387754637273L188.46316327367512,107.93706853866885L188.5626161302839,103.20041316748902L188.6620689868927,103.23783226929386L188.86097470011032,108.42309087768695L189.1593332699367,106.42302705733674L189.2587861265455,111.1297000968818L189.3582389831543,104.90887864166447L189.4576918397631,104.1759760703213L189.8555032661983,94.20021296443606L189.9549561228071,94.10105967689886L190.4522204058511,100.18246365690403L190.6511261190687,103.08127824318382L190.7505789756775,105.20184302348248L190.8500318322863,102.3653341072806L191.2478432587215,96.91842589979852L191.54620182854788,92.07650073111482L191.7451075417655,78.00955802322113L192.04346611159187,93.3850466073373L192.14291896820066,97.65495490302965L192.24237182480948,104.75335641317963L192.34182468141827,100.2333502847872L192.44127753802707,103.9937595593197L192.6401832512447,100.61407033994L192.8390889644623,108.25072058107509L193.1374475342887,114.49068408023605L193.2369003908975,103.85203612335467L193.43580610411507,104.9858340936043L193.53525896072387,102.47026329111331L193.6347118173327,107.49850919599393L193.93307038715906,106.36103704777433L194.13197610037668,103.34084563188628L194.23142895698547,87.39104809165L194.33088181359426,93.97442365441289L194.43033467020305,100.44234522017061L195.12650466646468,95.19177479843715L195.22595752307348,98.21594079458278L195.52431609289988,100.42916342821103L196.02158037594387,99.01443221517486L196.41939180237907,102.9890170406993L197.01610894203188,106.88143034456029L197.11556179864067,108.80830581041754L197.31446751185825,105.60448848797401L197.71227893829345,79.30671139513025L197.81173179490227,90.61813402919731L197.91118465151106,93.44209664072267L198.11009036472865,81.77307122890483L198.20954322133744,80.5901766210952L198.30899607794626,87.5394706633958L198.70680750438143,79.20589039548476L199.10461893081663,91.93935879168228L199.30352464403427,93.96940847657221L199.40297750064306,100.83293095130102L200.19860035351346,104.13287217304854L200.29805321012225,105.97806695855917L200.59641177994862,103.19718390498954L200.89477034977503,107.71668729837722L201.29258177621026,104.447949385532L201.49148748942784,106.61313530090285L201.88929891586304,106.03650600119549L202.38656319890703,105.2315672827359L202.48601605551582,106.15880551248458L202.88382748195102,102.44942605059005L202.98328033855984,107.47948957329092L203.2816389083862,105.17342154448211L203.381091764995,99.85995596612659L203.48054462160385,101.52017107172576L203.77890319143023,103.18869054320244L204.07726176125664,95.09192547927296L204.17671461786543,100.23129328770796L204.375620331083,107.79378994667137L204.57452604430063,102.28322461238146L204.67397890090942,104.20278437350038L204.7734317575182,87.05969270608558L205.4696017537798,90.95534269817043L205.66850746699743,97.96764262226884L205.76796032360622,103.12171790245665L206.36467746325903,104.32196665702686L206.46413031986782,106.43421426133212L206.5635831764766,105.8573188402202L206.6630360330854,110.18313176804935L206.76248888969423,101.47539226443361L206.9613946029118,103.66201807926134L207.25975317273821,108.38323265853221L207.95592316899982,107.29672175489132L208.0553760256086,105.22766569955049L208.15482888221743,106.70373170855349L209.0499045916966,105.55077008004608L209.348263161523,103.62485226616029L209.44771601813179,106.62309300174957L209.84552744456698,103.06643045906416L209.94498030117578,102.72763893696488L210.04443315778462,102.86211995489495L210.14388601439342,103.79608956780511L210.4422445842198,102.93924627127265L210.5416974408286,96.42150747539833L210.6411502974374,105.16199240322507L210.7406031540462,98.42118999020872L211.1384145804814,101.97957968183495L211.2378674370902,104.82849340017594L211.33732029369898,102.45415634688854L211.63567886352538,98.11107523290092L211.83458457674297,97.4269687686896L212.03349028996058,96.31435131624805L212.2323960031782,96.63977973025236L212.331848859787,88.25613261980216L212.4313017163958,96.77788979698137L212.6302074296134,108.08880692746246L212.72966028622218,111.55793923809456L213.22692456926617,106.41810716164166L213.52528313909258,102.52116119986957L213.72418885231016,105.65386113388111L214.02254742213657,111.00349642342044L214.320905991963,103.49859225381671L214.4203588485718,106.37834106296125L214.61926456178938,105.02550188147158L214.818170275007,105.59799831821854L215.41488741465977,109.88036454321788L215.51434027126857,110.59404989664668L215.71324598448618,75.87673130071141L215.91215169770376,76.73947437767303L216.80722740718298,87.9658065429778L216.90668026379177,99.72707562923426L217.00613312040056,99.55696797156547L217.10558597700938,97.37254478868074L218.29902025631495,102.1718334041396L218.49792596953256,81.233678022346L218.69683168275017,79.99028072857745L218.89573739596776,92.42795825313755L219.29354882240295,94.44821449180813L219.39300167901175,96.65506635800153L219.49245453562057,95.90557751778374L219.59190739222936,101.31841934621578L219.69136024883815,103.29492246737699L219.79081310544694,104.29752671379255L219.89026596205574,107.91204415932029L220.08917167527335,101.81150270694945L220.18862453188214,93.66873240246207L220.28807738849093,100.57102685324358L220.48698310170855,105.50370212006682L220.98424738475256,109.17707054319686L221.28260595457894,105.34070779724212L221.48151166779655,95.86711636479377L221.58096452440535,100.09881302194557L221.77987023762293,98.61283835027825L222.07822880744934,95.26072315376787L222.37658737727574,99.54309977756783L222.57549309049332,96.08237051360304L222.87385166031973,102.34900892503082L223.17221023014613,98.83617850191972L223.27166308675496,95.82322670107402L223.57002165658133,88.19428406471484L223.76892736979894,99.80684932601793L223.86838022640774,104.41235952176561L224.66400307927813,96.97028101474146L224.76345593588692,101.52890899581311L224.9623616491045,104.58484138767777L225.45962593214853,103.80193954022309L225.95689021519252,110.12551278695138L226.05634307180134,76.48158246565451L226.15579592841013,86.76822865147686L226.3547016416277,92.11394157338215L226.4541544982365,100.02864031940963L226.65306021145412,98.16498808936174L226.8519659246717,100.48274382615702L227.1503244944981,105.02863348555353L227.2497773511069,107.4103088235035L227.64758877754213,109.0712546461687L228.14485306058612,108.78981128465792L228.3437587738037,111.04212943206078L228.9404759134565,114.14710163202133L229.0399287700653,114.27433370533336L229.1393816266741,110.43446859759064L229.2388344832829,97.17887092273874L229.3382873398917,101.99656931429575L229.6366459097181,105.0233911171743L229.83555162293572,106.9776486451081L230.1339101927621,97.48186909477978L230.2333630493709,16.524418662893673L230.5317216191973,57.6124894035242L230.7306273324149,82.21426194016793L230.9295330456325,85.46846937092084L231.0289859022413,90.56673578899395L231.12843875885008,99.0280621412674L231.52625018528528,90.36068261951601L231.9240616117205,89.1483971811743L232.0235144683293,93.87512240555948L232.1229673249381,98.06451009515638L232.52077875137329,99.84295076177912L232.6202316079821,106.16319338041642L232.8191373211997,111.13572847853433L232.91859017780848,112.17403081607371L233.1174958910261,107.10865025747935L233.2169487476349,106.62585850098584L233.31640160424368,105.02010808094116L233.51530731746126,100.15612569595037L233.61476017407008,105.90433539488406L233.71421303067888,103.19315672024545L233.81366588728767,101.02670964708469L234.1120244571141,104.5648396958401L234.3109301703317,99.68974200696789L234.41038302694048,98.46704899701746L235.0071001665933,104.41920251189144L235.10655302320208,101.62305796544764L235.20600587981087,107.88276551544904L235.60381730624607,82.56121503928476L235.80272301946366,78.68657187093758L236.0016287326813,83.08374427833847L236.3994401591165,93.34486170757646L237.09561015537807,88.53154102324257L237.39396872520447,97.78180398906005L237.59287443842206,104.71063057676649L237.79178015163967,103.24092665959272L237.89123300824846,94.1694249523037L238.09013872146605,95.8593186355502L238.2890444346837,102.5126371465975L238.48795014790127,103.81046197867373L238.58740300451007,104.6170564493678L238.68685586111886,98.1987991238588L238.98521443094526,100.76115151880273L239.08466728755405,101.93839617589076L239.38302585738046,103.01309578039223L239.48247871398925,105.46681220523446L239.78083728381566,109.99751849717023L240.07919585364203,106.26931346078872L240.47700728007726,98.76710150794287L241.07372441973007,92.40230458011125L241.17317727633886,92.25059306882432L241.47153584616524,86.09044377567638L241.57098870277406,95.29163061239487L241.76989441599164,105.01854143349121L241.96880012920923,97.06575716857043L242.06825298581805,102.39301307552793L242.26715869903563,91.3135764774986L242.36661155564443,92.3788039976343L242.56551726886207,91.24674650850115L242.66497012547086,83.31444522258865L242.76442298207965,95.26215465518813L242.86387583868844,100.91131735108708L243.06278155190606,107.51467355499022L243.26168726512364,106.75385275326121L243.36114012173243,102.69825988613943L243.75895154816763,105.86637836000473L243.85840440477642,97.00964708717522L244.05731011799404,105.3842920200185L244.3556686878204,110.89538432278643L244.55457440103802,111.18815035867763L244.85293297086446,111.24751161933912L245.44965011051724,110.86363275754712L246.04636725017002,111.09259661822017L246.44417867660522,111.9300011479908L246.74253724643162,101.53965801818158L247.23980152947564,104.39105911976411L247.43870724269323,97.99156235668997L247.73706581251963,98.64490014361027L248.3337829521724,102.50649930007671L248.4332358087812,107.1501748953524L248.63214152199882,105.16254607000145L248.9305000918252,105.4733870659075L249.22885866165163,89.94114400981695L249.32831151826042,85.87391602819801L249.4277643748692,95.27318102933097L250.3228400843484,97.41357124589207L250.4222929409572,104.13591948721421L250.521745797566,97.40237629211397L250.6211986541748,98.08198200127875L250.8201043673924,98.52443797193835L251.01901008061,103.39432698427524L251.31736865043638,103.99062851515893L251.4168215070452,92.03820500482941L251.8146329334804,96.12183088672955L252.013538646698,100.63595438856959L252.1129915033068,80.63047002389719L252.2124443599156,93.02558858005823L252.3118972165244,90.10987750065966L253.10752006939478,98.03048155058191L254.002595778874,97.00433495051405L254.20150149209158,101.54939172469149L254.49986006191799,102.49348425120033L254.99712434496197,91.66573305008598L255.29548291478838,97.89655693200488L255.39493577139717,104.36660208664671L255.6932943412236,104.49779297975701L255.7927471978324,110.1902952172325L256.09110576765875,112.05121690424492L256.38946433748515,111.04168711025181L256.58837005070274,106.67184531487051L256.7872757639204,105.29519239122918L257.0856343337468,109.21493908028614L257.3839929035732,94.77340425336389L257.48344576018195,102.19855019673597L257.58289861679077,101.4269832898437L257.78180433000836,106.9790059810864L258.57742718287875,92.30610881384663L258.77633289609633,99.95789933875652L258.975238609314,79.42813934580708L259.17414432253156,86.55046456220242L259.67140860557555,92.42373820987261L260.16867288861954,82.54076076598447L260.56648431505477,92.23907253569237L260.96429574148993,100.16124908821311L261.06374859809875,105.85579873552672L261.1632014547076,106.79628879880694L261.56101288114274,110.64651321740484L261.66046573775157,113.40150082920951L261.75991859436033,110.74299894558052L261.85937145096915,108.9684811309815L262.15773002079555,103.22491992589227L262.65499430383954,109.39059844704923L262.95335287366595,109.25029208020275L263.15225858688353,107.22619799919633L263.55007001331876,105.45418752285973L263.6495228699275,108.79865226641289L263.74897572653634,115.36158469022938L263.84842858314516,106.57651262230533L264.04733429636275,107.12799555577031L264.24624000958033,103.70252858241606L264.54459857940674,107.4183322111102L264.84295714923314,102.22393181028608L264.9424100058419,106.47750899277491L265.14131571905955,101.84110784279166L265.34022143227713,105.38775654191312L266.03639142853876,110.9060944202774L266.3347499983651,114.01523250135365L266.43420285497393,115.19730508169778L266.6331085681915,108.09890611450615L266.8320142814091,105.84188001759149L267.03091999462674,109.11459004744393L267.1303728512355,110.50241312794996L267.3292785644531,103.27655520743859L267.62763713427955,102.80427684286255L267.82654284749714,102.29246708863673L268.12490141732354,95.91600966356783L268.3238071305411,98.3171395585618L268.42325998714995,95.78304246765684" fill="none"></path></g><g><path style="fill: none;" stroke="rgb(0, 119, 187)" stroke-width="2px" d="M268.5227128437587,95.8383972400241Z" fill="none"></path></g></g></g></g><g opacity="0.2"><g><g><g><path style="fill: none;" stroke="rgb(255, 112, 67)" stroke-width="2px" d="M20.4872884614127,-5.835950415733464L20.8850998878479,14.545277018948184L20.9845527444567,-35.71679039985412L21.282911314283098,-14.784503683037968L21.3823641708919,22.7486841473943L21.6807227407183,56.942631664960004L21.780175597327094,72.49094659043067L21.879628453935894,38.493988683233766L22.277439880371094,50.11298914907407L23.17251558985029,66.72561394122411L23.470874159676686,85.20826155526102L23.868685586111887,93.99731579979786L24.067591299329482,-11.187766589076347L24.266497012547084,40.354958625031685L24.365949869155884,55.86743315846647L24.564855582373482,87.58952689239045L24.76376129559108,54.797596130737176L25.161572722026282,21.050082845551827L25.26102557863508,-4.138210661776469L25.360478435243877,32.334941904946675L25.45993129185268,40.39441751818657L25.55938414846148,38.32208999820665L26.156101288114275,5.184267642408287L26.355007001331874,34.50316633187171L26.454459857940673,31.64299966166226L26.553912714549476,16.575030818802645L26.65336557115827,19.644540370600367L26.95172414098467,29.213036987129044L27.05117699759347,15.122911739703966L27.150629854202272,43.32193072387469L27.250082710811068,52.56801623978326L27.747346993855068,69.91919301582207L28.244611276899064,50.81647613402389L28.542969846725462,60.42398098789043L28.64242270333426,3.5329321830214155L29.239139842987058,71.5592952162406L30.034762695857456,72.61084091963205L30.333121265683857,76.20765091379937L30.432574122292657,41.90253720984131L31.12874411855425,70.5640218443537L31.42710268838065,99.3793921857953L31.62600840159825,69.26246819917942L32.322178397859844,75.90793165902447L32.42163125446864,89.24850361879237L32.71998982429504,62.882069887238785L32.81944268090384,82.8958670306384L33.51561267716544,71.23381567968991L33.714518390383034,84.97948745520951L33.91342410360064,60.508101197970205L34.01287696020944,64.2763062030162L34.11232981681824,81.23940867497865L34.808499813079834,73.41818418853052L35.30576409612383,83.24804129705605L35.50466980934143,45.238762105108705L35.60412266595023,62.82472393452309L35.703575522559035,93.58326914062005L36.001934092385426,72.91845990578764L36.30029266221183,73.43982229503887L36.49919837542942,82.0229665949465L36.59865123203822,95.03242582045097L36.89700980186463,71.74277177939025L37.49372694151742,92.76575960667294L37.59317979812622,78.95661163386791L37.792085511343814,66.88264761158102L38.09044408117022,57.54482712774333L38.28934979438782,81.53949905807345L38.38880265099662,88.79287070591168L38.587708364214215,89.60916744552769L38.786614077431814,100.28391474252996L38.88606693404062,92.43646937755187L39.582236930302216,85.84868986228528L40.3778597831726,101.38496962652496L40.4773126397814,83.15210462636237L40.57676549639021,58.3598514274054L40.9745769228254,55.66277577191691L41.9691054889134,-91.2618959615725L42.0685583455222,57.59985352845966L42.2674640587398,43.67071181708184L42.466369771957396,71.0350168187616L42.665275485174995,27.757392188991332L42.96363405500139,57.67076554672592L43.06308691161019,35.732727710277175L43.16253976821899,43.182187656850175L43.460898338045396,49.62496203569941L44.45542690413339,-0.7623214273199608L44.65433261735099,58.01166016313523L45.251049757003784,42.14896641425369L45.54940832683018,85.17165239741963L45.64886118343898,72.68479486466319L45.74831404004778,93.96988544058253L45.84776689665658,74.84884409798937L46.046672609874186,30.90344695676805L46.444484036309376,35.888455804223014L46.64338974952698,46.25265153861335L46.84229546274457,60.22557976444773L47.04120117596217,50.80630324168382L47.53846545900617,51.61092269380589L48.135182598658965,89.7878524769758L48.83135259492057,81.52369296802064L48.930805451529366,66.99214372053383L49.42806973457336,99.72775575964256L49.52752259118216,88.58568832132853L49.82588116100857,55.532025939358505L49.92533401761737,49.29308716292191L50.02478687422616,89.39797554963135L50.42259830066136,53.820050763416845L50.52205115727016,100.19491021866867L50.720956870487754,57.72630224888211L51.01931544031416,87.85617596294585L51.417126866749356,68.925066165352L51.516579723358156,70.98175327756479L51.616032579966955,81.57268853353862L51.715485436575754,91.42244077092727L51.914391149793346,97.71303265674398L52.21274971961975,92.67560856139482L52.31220257622855,100.51692036815744L52.41165543283735,81.41140014208574L52.71001400266375,95.46148329471038L53.008372572490146,73.83632651381006L53.60508971214295,75.58037778025721L53.80399542536055,55.82287787820441L54.10235399518694,55.69912646539265L54.201806851795745,72.38394234305431L54.40071256501334,87.50644053977325L54.500165421622135,75.39861768558708L54.99742970466614,92.98591822786967L55.09688256127494,88.72122305829706L55.494693987710136,83.03479494081742L55.693599700927734,82.75051727506685L55.99195827075413,84.14935955838587L56.38976969718934,92.99450057026732L56.78758112362453,69.54988720106627L56.98648683684213,109.28337554892906L57.38429826327733,57.923364759456604L57.48375111988613,69.6842356528694L57.58320397649493,60.16263375047643L57.78210968971252,83.658456200532L58.279373972756524,102.16595284377351L58.378826829365316,78.92203705449454L58.77663825580052,91.57172051031488L58.87609111240932,11.176982660466734L58.97554396901812,90.2772050486358L59.97007253510611,81.71187490808329L60.46733681815011,98.1796735006845L61.163506814411704,-1.6722352856302791L61.26295967102051,10.266339800099473L61.76022395406451,67.2794699403407L61.85967681067331,27.79897181540278L62.058582523890905,88.65253780995019L62.2574882371085,68.30476494239079L62.6552996635437,88.12655619857452L63.550375373022895,-24.439353906857235L63.749281086240494,2.9086280760384398L63.84873394284929,-36.235879628145966L64.14709251267568,-8.65926934561017L64.7438096523285,61.75199078044031L65.53943250519889,12.534092889671484L65.63888536180768,54.183345624848585L65.73833821841649,54.77674667190861L65.93724393163409,47.79020965878573L66.03669678824289,59.820413675781765L66.33505535806928,86.14569192757521L66.43450821467809,14.793455828297226L66.93177249772208,-5.344006573125597L67.03122535433089,56.623666755881814L68.12520677702767,90.09584921874271L68.42356534685408,88.48352199669371L68.52301820346288,57.69628724601034L68.72192391668047,73.34752400733848L68.92082962989807,58.4372648185613L69.21918819972447,80.16477348825639L70.31316962242127,76.7505188637304L70.71098104885647,58.56011491973902L70.81043390546526,76.24852142002815L71.00933961868286,52.84189568528525L71.30769818850926,57.505023615434254L71.50660390172686,73.22924673724522L72.00386818477085,70.87529246808543L72.10332104137966,95.20600783750048L72.70003818103245,63.60732752452549L72.89894389425005,96.394214917403L72.99839675085884,7.861494560073652L73.09784960746765,107.07020151790206L73.19730246407644,33.69628034608169L73.29675532068525,81.7076665780273L73.39620817729404,64.93354132109872L73.59511389051166,24.601210919914536L73.79401960372925,72.88481977450544L74.29128388677324,94.10182155830633L74.39073674338204,54.59283933481622L74.49018959999086,78.20190231348072L74.68909531320845,80.54695613025437L75.08690673964364,90.11547262865733L75.28581245286124,52.59477724256449L75.48471816607884,75.99938828071366L75.88252959251405,77.32372655381312L75.98198244912284,64.0233557438399L76.08143530573163,62.376844952611705L76.47924673216683,60.149094194091575L76.87705815860204,75.32776531294367L76.97651101521083,66.47333946577334L77.27486958503724,61.89555779461806L77.47377529825482,62.12308596388134L77.57322815486363,73.42746239652797L77.67268101147242,54.318701424948586L77.77213386808124,33.41792085157522L77.87158672469003,60.50521169890814L77.97103958129884,82.9932219416974L78.16994529451642,50.46697266605122L78.26939815112523,85.97554947477619L78.76666243416922,59.121028984225106L78.86611529077801,61.333391172052316L79.16447386060443,48.25809643351448L79.26392671721322,95.36838973203878L79.56228528703961,78.35928723028324L79.76119100025721,91.2010362189423L80.15900242669242,81.52774887037381L80.35790813991002,65.16361437026987L80.55681385312762,85.04487893971728L80.7557195663452,63.55254633359195L81.05407813617163,94.5605229071176L81.45188956260681,88.32834396793629L81.55134241921562,97.65004025173269L81.75024813243321,100.68712909387074L82.0486067022596,0.38690392441040444L82.44641812869482,96.71553914222912L82.9436824117388,101.79901297205706L83.63985240800041,107.3068587811057L83.7393052646092,93.75033653019706L83.9382109778268,95.54615356997857L84.03766383443559,93.83084486644925L84.1371166910444,98.27150125069359L84.23656954765319,86.84729676175984L84.4354752608708,103.11310545261077L84.7338338306972,91.02592329757321L85.13164525713239,81.15168984565415L85.23109811374118,88.77822439185856L85.6289095401764,88.61098469270445L85.92726811000279,57.05948406739651L86.32507953643798,81.39671406428405L86.62343810626439,95.93937727949353L86.7228909628732,48.76945161271131L86.82234381948199,110.03424435393444L86.92179667609079,89.69505051512698L87.02124953269958,94.404456821309L87.22015524591718,94.55575125729034L87.31960810252598,70.37106162717237L87.41906095913478,99.25865619058271L87.6179666723524,99.26238735565597L87.71741952896119,76.09264752567093L87.81687238556998,-631.438635390033L87.91632524217879,19.339578928306906L88.11523095539638,-97.20928030627196L90.89991094044277,-58.54218942188798L91.29772236687796,14.146141765480564L91.59608093670435,-8.826131289152954L91.69553379331316,51.346155774015685L91.79498664992195,50.51375471623267L91.89443950653077,63.11385940488947L91.99389236313957,36.2730905440489L92.49115664618355,31.0024984544323L93.08787378583636,15.645235086212068L93.28677949905396,5.073817203490023L93.38623235566276,39.15548514970368L93.48568521227155,55.4827520276006L93.78404378209795,-57.0607644601002L94.08240235192434,34.54143231256978L94.18185520853315,25.43353245020043L94.48021377835956,-15.542864641001302L94.57966663496835,46.37896108591583L94.67911949157715,-47.1571919890349L94.87802520479474,46.81191540753417L95.07693091801234,45.221517892816294L95.67364805766515,66.76545058999032L95.97200662749154,45.25207633358505L96.07145948410033,69.71121535626772L96.36981805392675,15.325203183214171L96.46927091053554,27.107400700438262L96.56872376714435,71.7159047399462L96.76762948036193,83.21242623292868L96.86708233697074,55.44007227081231L97.46379947662354,63.7884646538015L97.86161090305873,18.357931267593415L97.96106375966754,-2.8545440761629948L98.15996947288512,1.02118873228207L98.35887518610272,-0.70666543391809L98.55778089932033,2.089243018617566L98.65723375592913,2.835568815349916L98.75668661253793,23.022325010404927L98.85613946914673,43.50373058229337L98.95559232575553,45.777481370606594L99.25395089558192,58.70745286273859L99.45285660879952,78.29354449932985L99.65176232201713,76.1688414952043L99.95012089184353,63.82058713534697L100.14902660506112,67.01894448706362L100.24847946166992,66.48688564944962L100.34793231827872,88.46500534444736L100.74574374471392,74.47930632803363L100.94464945793152,-3.5687275094755933L101.04410231454032,25.892565163583043L101.24300802775791,80.94724453243025L101.54136659758431,28.035407064343616L101.93917802401951,83.43001346505183L102.23753659384592,93.96250926522455L102.53589516367231,44.04765889885269L102.6353480202811,77.51133854681306L102.83425373349871,49.17687098046237L103.03315944671631,55.17026860953777L103.23206515993391,35.71190476061432L103.7293294429779,32.68947548711225L104.0276880128043,16.10463892791458L104.12714086941311,70.71939869185393L104.2265937260219,62.30931285297309L104.5249522958483,73.67623766210542L105.3205751487187,65.14257271998993L105.4200280053275,30.762431449789602L105.5194808619363,82.58722744160309L105.71838657515389,78.47640472437682L106.1161980015891,11.492295931968783L106.3151037148067,62.057555306253604L106.41455657141549,71.28470665055595L106.81236799785069,83.46759683473294L107.01127371106828,73.49266168958437L107.11072656767708,77.10144719935982L107.4090851375035,71.7304980356679L107.6079908507211,86.4201148109742L107.80689656393868,106.97721399189331L108.10525513376508,58.83683084597166L108.30416084698268,99.23153731406444L108.40361370359149,68.60945466573575L108.60251941680909,69.72128883923638L108.70197227341788,101.70627728312252L109.00033084324427,50.99673183354014L109.29868941307069,66.75212973422255L109.39814226967948,90.83550133300832L110.09431226594107,83.6718565837969L110.19376512254988,84.75310580736306L110.29321797915867,105.7555987359085L110.39267083576746,75.03257249821324L110.59157654898507,72.53318894598479L110.69102940559388,97.94069337183579L110.88993511881147,105.09649140799795L110.98938797542027,85.85305724733551L111.08884083202906,75.60273163423965L111.38719940185547,83.15814871614357L111.48665225846426,67.96573259487239L111.58610511507307,109.20942823118935L111.68555797168187,80.0802291315253L111.88446368489947,69.42686479031146L112.48118082455225,87.9900803862234L112.58063368116107,75.16220231852053L112.87899225098747,77.84441295933881L113.57516224724905,94.77110509220267L113.87352081707546,86.3410909880016L114.56969081333705,75.3788551025525L114.66914366994585,87.81456320007727L114.76859652655466,75.83984949419744L114.96750223977226,58.291537307378434L115.06695509638105,87.20833834410648L115.16640795298986,49.97013788237041L115.46476652281625,77.59833500137205L115.56421937942504,97.46581480465181L115.76312509264264,83.67648243321277L115.96203080586025,78.06282197559888L116.06148366246904,109.1716891201597L116.45929508890424,39.95489555076432L116.55874794551305,69.24479321294427L116.95655937194823,73.97992666444495L117.05601222855705,50.321523501108274L117.15546508516584,103.80734736602025L117.25491794177465,79.7112944450894L117.55327651160104,42.24147014798831L117.65272936820983,95.31655768579014L117.75218222481864,48.55546962712431L118.05054079464504,101.38087064677751L118.14999365125384,93.1151106469428L118.94561650412423,54.85896484934891L119.34342793055943,39.516685787044565L119.54233364377703,93.2888649735694L119.74123935699463,76.77582186239775L119.84069221360343,94.52767805080661L120.13905078342982,68.86574527979114L120.23850364003863,90.98745849813234L120.43740935325623,93.35503847846553L120.53686220986503,89.83383925218604L120.63631506647383,89.37937936988789L120.73576792308262,102.27254951272712L121.03412649290902,70.73250084700462L121.82974934577942,102.24043034482736L122.02865505899702,88.59564914034294L122.22756077221462,94.3293961186096L122.42646648543223,41.10117838510121L122.52591934204102,60.42191990025671L122.62537219864981,78.76570587702886L122.82427791186741,77.05701121034345L123.02318362508501,88.67544835641247L123.1226364816938,85.36398964920686L123.22208933830261,77.45114285878387L123.52044790812901,97.50752034960037L123.71935362134661,95.93678600854567L124.4155236176082,77.39648758638744L124.514976474217,71.21569666492917L124.81333504404341,88.9572142787123L125.01224075726101,101.76958779812227L125.6089578969138,102.89951779086365L125.7084107535226,100.74808360676829L125.9073164667402,91.36415374282898L126.1062221799578,107.26622023007685L126.504033606393,68.89344735795497L126.9018450328282,89.83073767979832L127.10075074604579,97.75451287378402L127.29965645926339,79.06692952695764L127.5980150290898,83.37173306424496L127.69746788569859,68.46688837256345L127.79692074230738,77.3589240985806L127.8963735989162,104.75812510326793L128.49309073856898,108.9624589025257L128.5925435951778,113.94486322444993L129.18926073483058,89.65516084802935L129.38816644804817,85.01230580235479L129.58707216126578,85.55010387434436L129.68652501787457,82.54914702506497L129.7859778744834,100.36043013569753L130.68105358396258,96.8937470086945L130.87995929718016,101.79158709201339L131.17831786700657,101.98070679381291L131.57612929344177,92.06231901276311L131.77503500665938,86.73048412307189L131.87448786326817,98.49845947289417L132.27229928970337,108.93345124795079L132.37175214631216,107.99200473703198L132.57065785952977,95.17803404038816L132.67011071613857,105.4539178028713L132.7695635727474,103.05230668106174L133.06792214257376,92.38368962862921L133.16737499918256,108.90935772996883L134.16190356527056,85.71652178936155L134.36080927848815,58.17183516962842L134.46026213509697,103.32516221003829L134.75862070492335,107.84912696116263L134.85807356153214,90.98431716199606L134.95752641814096,105.96111767034355L135.25588498796736,81.46777851025313L135.35533784457616,73.49763215815443L135.45479070118495,102.25339995414953L136.94658355031694,64.90027894542784L137.24494212014335,93.98560537584679L137.44384783336093,102.84857711531191L137.54330068996975,-3.8910126915585863L137.74220640318734,70.18055350781893L137.84165925979613,95.66832768743076L138.14001782962254,42.69562517488083L138.43837639944894,69.94203728937009L138.53782925605773,56.83141246023624L138.63728211266653,35.81045258413013L138.73673496927535,38.91950055657986L138.93564068249293,89.32986687563861L139.13454639571054,96.92798359620511L139.33345210892813,82.2688324795876L139.53235782214574,71.42720667081399L139.63181067875453,84.54147651023256L139.83071639197212,79.90762795360695L140.02962210518973,56.449978702169474L140.22852781840731,85.75273330971733L140.3279806750161,107.17548266950746L140.42743353162496,111.08386814281215L140.52688638823375,86.03434017702291L140.62633924484254,88.43978850056857L141.62086781093052,97.63901243879857L142.01867923736572,102.52151365611024L142.41649066380091,98.0451858757614L142.51594352040973,100.42335295414884L142.61539637701853,102.93754187542464L142.81430209023614,98.08483696036767L143.11266066006252,86.60604347195175L143.41101922988892,97.28393541873601L143.6099249431065,113.17437432317564L143.80883065632412,88.59033405261869L143.9082835129329,90.54242925153446L144.1071892261505,102.1519261814688L144.5050006525857,92.22753076074063L144.60445350919449,100.44673403830242L144.70390636580333,110.53039652659831L144.90281207902092,108.04750830273105L145.0022649356297,99.68635507009964L145.30062350545612,105.3897855037346L145.4000763620649,103.24109833193563L145.4995292186737,9.398098350280577L145.59898207528252,75.72194335242408L145.7978877885001,67.42476667758083L146.2951520715441,83.23278527219166L146.5935106413705,65.45470489160714L147.09077492441452,87.13848006517708L147.2896806376321,104.77443486746918L147.6874920640673,107.53318409697502L147.88639777728488,89.5400050321981L148.28420920372008,96.96428789864086L148.38366206032887,99.93194923579225L148.4831149169377,112.38306909952993L148.5825677735465,82.44259343350564L148.78147348676407,80.25151810574116L149.0798320565905,98.09236556342846L149.1792849131993,95.90148905440678L149.3781906264169,91.10181903899239L149.4776434830257,76.83699176226668L149.5770963396345,105.85604196477237L150.17381347928728,85.08451676974069L150.3727191925049,109.4539686575451L150.47217204911368,85.76285318372598L150.67107776233127,98.06768553015523L150.77053061894009,107.78186989411822L151.06888918876646,85.46878038124667L151.16834204537525,90.86608628294279L151.66560632841927,81.29409708383221L151.7650591850281,103.34097824102824L151.86451204163689,87.23193150158572L152.16287061146326,111.89349782725284L152.36177632468087,104.66382537355668L152.46122918128967,90.04614453304207L152.56068203789846,84.88218556248192L152.66013489450728,106.9603210260465L152.75958775111607,81.783741256315L152.85904060772486,88.06543268974558L153.45575774737767,92.55316272499414L153.95302203042166,88.94608705640678L154.05247488703048,93.12848452104198L154.15192774363928,97.10784165823576L154.64919202668327,84.32930377520506L155.04700345311846,103.27061297430468L155.24590916633605,68.5184023088236L155.34536202294484,82.85735584015754L155.74317344938007,25.827087524286725L156.14098487581526,84.56927137047636L156.83715487207684,30.074717418435455L157.03606058529445,47.40073699621831L157.33441915512083,48.38559226598235L157.53332486833844,-30.336052726724887L157.63277772494723,72.49859448473714L157.93113629477367,38.7217289258227L158.03058915138246,69.38923502959035L158.22949486460004,91.02543950529906L158.32894772120886,59.85716863403454L158.62730629103524,69.79210807542266L160.31800485338485,76.13134428031174L160.41745770999364,89.75962021549783L160.51691056660243,94.59792071263877L160.61636342321123,94.6046407861455L161.01417484964642,94.50298476295053L161.31253341947283,104.72149606355228L161.41198627608162,86.69830199590358L161.71034484590803,51.31119018444814L161.80979770251682,94.65689035175402L161.9092505591256,95.96614490956618L162.30706198556084,104.52270051626968L162.40651484216963,109.57497637170619L162.50596769877842,104.81206462819029L162.70487341199603,87.57949317317035L162.90377912521362,86.51425548569122L163.10268483843123,87.75550740617348L163.30159055164881,92.73516802944705L163.8983076913016,112.70684210853823L164.0972134045192,114.36017569629027L164.59447768756323,100.6423816221573L164.69393054417202,96.40264483209783L165.5890062536512,99.26043230468508L165.68845911026,63.679339673168585L166.78244053295683,96.83790545113268L167.180251959392,98.05024912641144L167.27970481600082,106.6881944991269L167.5780633858272,34.021932192209476L167.67751624243598,104.90248407877118L167.9758748122624,91.91166079675874L168.17478052548,102.45112850751241L168.2742333820888,103.96184941105216L168.3736862386976,101.9682905633249L169.0698562349592,101.03864725843714L169.169309091568,23.78283321079053L169.2687619481768,71.20987790305648L169.3682148047856,85.8907068899309L169.666573374612,98.8216459666112L169.86547908782958,98.90340686094305L169.96493194443838,79.63185973004833L170.0643848010472,112.57397485636898L170.163837657656,94.1663978859686L170.66110194069998,44.836850016533276L170.8600076539176,70.63698169567083L171.35727193696158,96.73264418140157L171.4567247935704,92.15693022517144L171.75508336339678,85.40397209838446L172.45125335965838,107.96334501525699L172.65015907287597,85.0733232745209L173.64468763896397,98.53915766954586L173.84359335218159,101.25232770226421L173.94304620879038,96.53449479503308L174.14195192200796,101.18275108322045L174.24140477861675,78.57000858848828L174.44031049183437,101.84308446004496L174.53976334844316,106.15489635801609L175.13648048809594,69.8907354264356L175.2359333447048,110.2225754080542L175.83265048435757,100.12198350380868L175.93210334096636,92.62820354581926L176.82717905044555,101.11894683500938L177.22499047688075,88.50115059188887L177.42389619009836,107.30939703372215L177.82170761653356,88.11698638975429L178.41842475618634,81.62982241292866L178.71678332601275,85.21406706255085L178.91568903923033,97.7630289432674L179.21404760905673,107.99918540729287L179.41295332227432,107.6425708556193L179.51240617888317,99.72673515676284L179.91021760531834,98.21578561166888L180.00967046192716,81.08519160347811L180.20857617514474,109.16714942553239L180.30802903175353,110.35223173752719L180.50693474497115,93.64352447427208L180.80529331479752,102.31939452217713L180.90474617140634,117.17648626548318L181.00419902801514,115.47363355619044L181.40201045445033,94.91461908804901L181.60091616766792,98.59648374038727L181.7003690242767,94.96348873502988L181.79982188088553,106.57752535959155L181.99872759410314,106.74573927058539L182.19763330732073,94.19813598461133L182.39653902053834,99.29806206540619L182.69489759036472,88.97036282490298L182.99325616019112,94.8260055743819L183.09270901679992,66.3997566490621L183.1921618734087,85.67797083513213L183.4905204432351,93.51105154594272L183.68942615645273,77.27092029572475L183.78887901306155,102.29342879436712L184.08723758288792,109.19666738154714L184.18669043949674,107.7780757697764L184.48504900932312,109.67353082251343L184.88286043575832,81.61536166303549L184.9823132923671,69.33978880825535L185.0817661489759,110.17451097698168L185.7779361452375,105.52470390260044L185.9768418584551,62.06864276481056L186.07629471506394,112.47759084350399L186.17574757167273,104.56990339945673L186.4741061414991,101.29377478284712L186.57355899810793,104.48705231568518L186.7724647113255,79.39085827731446L187.1702761377607,91.77592724104741L187.2697289943695,101.04065201409372L187.3691818509783,110.11913001617401L187.6675404208047,96.68384743462639L188.0653518472399,104.6414383831171L188.1648047038487,110.39097156956228L188.3637104170663,113.58724463812521L188.46316327367512,107.07185502711305L188.5626161302839,96.09543011071928L188.6620689868927,103.29396092200113L188.86097470011032,116.20097879027657L189.1593332699367,103.42293132681147L189.2587861265455,118.18970965619943L189.3582389831543,95.5776464588385L189.4576918397631,103.07662221330648L189.8555032661983,79.23656830560823L189.9549561228071,93.95232974559306L190.4522204058511,109.30456962691181L190.6511261190687,107.42950012260349L190.7505789756775,108.3826901939305L190.8500318322863,98.11057073297775L191.2478432587215,88.7480635885754L191.54620182854788,84.81361297808931L191.7451075417655,56.90914396138062L192.04346611159187,116.44827948351157L192.14291896820066,104.05981734656812L192.24237182480948,115.40095867840466L192.34182468141827,93.45334109219856L192.44127753802707,109.63437347111847L192.6401832512447,95.54453651087044L192.8390889644623,119.70569594277774L193.1374475342887,123.8506293289775L193.2369003908975,87.8940641880326L193.43580610411507,106.68653104897878L193.53525896072387,98.69690708737686L193.6347118173327,115.04087805331491L193.93307038715906,104.65482882544485L194.13197610037668,98.81055850805424L194.23142895698547,63.4663517812956L194.33088181359426,103.84948699855727L194.43033467020305,110.14422756880712L195.12650466646468,87.31591916583696L195.22595752307348,102.75218978880122L195.52431609289988,103.74899737865341L196.02158037594387,96.8923353956206L196.41939180237907,108.950894278986L197.01610894203188,112.72005030035174L197.11556179864067,111.69861900920345L197.31446751185825,100.79876250430868L197.71227893829345,39.86004575586463L197.81173179490227,107.58526798029789L197.91118465151106,97.67804055801072L198.11009036472865,64.26953311117806L198.20954322133744,78.81583470938082L198.30899607794626,97.9634117268467L198.70680750438143,66.7055199936182L199.10461893081663,111.03956138597859L199.30352464403427,97.01448300390709L199.40297750064306,111.12821466339426L200.19860035351346,109.08278400566982L200.29805321012225,108.74585913682512L200.59641177994862,99.02585932463516L200.89477034977503,114.49594238845873L201.29258177621026,99.54484251626418L201.49148748942784,109.86091417395915L201.88929891586304,105.17156205163448L202.38656319890703,104.02415920504649L202.48601605551582,107.54966285710765L202.88382748195102,96.88535685774823L202.98328033855984,115.02458485734223L203.2816389083862,101.71431950126888L203.381091764995,91.88975759859332L203.48054462160385,104.01049373012452L203.77890319143023,105.69146975041754L204.07726176125664,82.94677788337872L204.17671461786543,107.94034500036045L204.375620331083,119.13753493511649L204.57452604430063,94.01737661094664L204.67397890090942,107.0821240151788L204.7734317575182,61.3450552049634L205.4696017537798,96.7988176862977L205.66850746699743,108.4860925084164L205.76796032360622,110.8528308227384L206.36467746325903,106.12233978888216L206.46413031986782,109.60258566779004L206.5635831764766,104.99197570855233L206.6630360330854,116.67185115979308L206.76248888969423,88.41378300900999L206.9613946029118,106.94195680150298L207.25975317273821,115.46505452743851L207.95592316899982,105.66695539942998L208.0553760256086,102.12408161653929L208.15482888221743,108.91783072205794L209.0499045916966,103.821327637285L209.348263161523,100.73597554533163L209.44771601813179,111.12045410513353L209.84552744456698,97.73143664503607L209.94498030117578,102.21945165381598L210.04443315778462,103.06384148178999L210.14388601439342,105.19704398717036L210.4422445842198,101.653981326474L210.5416974408286,86.6448992815868L210.6411502974374,118.27271979496523L210.7406031540462,88.30998637068419L211.1384145804814,107.3171642192743L211.2378674370902,109.10186397768743L211.33732029369898,98.89265076695743L211.63567886352538,91.59645356191952L211.83458457674297,96.40080907237262L212.03349028996058,94.64542513758573L212.2323960031782,97.12792235125882L212.331848859787,75.68066195412683L212.4313017163958,109.56052556275014L212.6302074296134,125.05518262318411L212.72966028622218,116.76163770404273L213.22692456926617,98.70835904696229L213.52528313909258,96.67574225721147L213.72418885231016,110.35291103489843L214.02254742213657,119.02794935772943L214.320905991963,92.24123599941116L214.4203588485718,110.69796427667804L214.61926456178938,102.99624310923711L214.818170275007,106.45674297333898L215.41488741465977,116.30391388071689L215.51434027126857,111.66457792678995L215.71324598448618,23.800753406808468L215.91215169770376,78.03358899311547L216.80722740718298,104.805304790935L216.90668026379177,117.36897925861894L217.00613312040056,99.3018064850623L217.10558597700938,94.09591001435366L218.29902025631495,109.37076632732794L218.49792596953256,49.82644494965555L218.69683168275017,78.12518478792462L218.89573739596776,111.08447453997769L219.29354882240295,97.47859884981402L219.39300167901175,99.96534415729165L219.49245453562057,94.78134425745701L219.59190739222936,109.43768208886385L219.69136024883815,106.25967714911877L219.79081310544694,105.80143308341593L219.89026596205574,113.3338203276119L220.08917167527335,92.6606905283932L220.18862453188214,81.45457694573103L220.28807738849093,110.92446852941589L220.48698310170855,112.90271502030163L220.98424738475256,114.68712317789198L221.28260595457894,99.58616367830999L221.48151166779655,81.65672921612128L221.58096452440535,106.44635800767325L221.77987023762293,96.38387634277727L222.07822880744934,90.23255035900235L222.37658737727574,105.96666471326773L222.57549309049332,90.89127661765588L222.87385166031973,111.7489665421725L223.17221023014613,93.5669328672531L223.27166308675496,91.30379899980554L223.57002165658133,76.75087011017602L223.76892736979894,117.22569721797254L223.86838022640774,111.32062481538718L224.66400307927813,85.80716325420525L224.76345593588692,108.36685096742056L224.9623616491045,109.16873997547481L225.45962593214853,102.62758676904113L225.95689021519252,119.61087265704376L226.05634307180134,26.01568698370926L226.15579592841013,102.19819793021038L226.3547016416277,100.13251095624007L226.4541544982365,111.90068843845086L226.65306021145412,95.3695097442899L226.8519659246717,103.95937743134996L227.1503244944981,111.84746797464832L227.2497773511069,110.98282183042843L227.64758877754213,111.56267338016647L228.14485306058612,108.36764624239177L228.3437587738037,114.42060665316511L228.9404759134565,118.80455993196215L229.0399287700653,114.46518181530145L229.1393816266741,104.67467093597655L229.2388344832829,77.29547441046087L229.3382873398917,109.2231169016313L229.6366459097181,109.56362382149216L229.83555162293572,109.90903493700881L230.1339101927621,83.23819976928732L230.2333630493709,-104.91175698493554L230.5317216191973,119.24459551446998L230.7306273324149,119.11692074513357L230.9295330456325,90.34978051705018L231.0289859022413,98.21413541610362L231.12843875885008,111.72005166967757L231.52625018528528,77.35961333688898L231.9240616117205,87.32996902366168L232.0235144683293,100.96521024213729L232.1229673249381,104.34859162955175L232.52077875137329,102.51061176171322L232.6202316079821,115.64355730837238L232.8191373211997,118.5945311257112L232.91859017780848,113.73148432238278L233.1174958910261,99.51057941958787L233.2169487476349,105.90167086624558L233.31640160424368,102.61148245087412L233.51530731746126,92.86015211846419L233.61476017407008,114.52664994328458L233.71421303067888,99.12638870828758L233.81366588728767,97.77703903734356L234.1120244571141,109.87203476897324L234.3109301703317,92.3770954736596L234.41038302694048,96.63300948209177L235.0071001665933,113.34743278420245L235.10655302320208,97.42884114578196L235.20600587981087,117.27232684045117L235.60381730624607,44.57888932503835L235.80272301946366,72.87460711841682L236.0016287326813,89.67950288943982L236.3994401591165,108.7365378514334L237.09561015537807,81.3115599967417L237.39396872520447,111.65719843778625L237.59287443842206,115.10387045832618L237.79178015163967,101.03637078383204L237.89123300824846,80.5621723913702L238.09013872146605,98.39415916041993L238.2890444346837,112.49261491316844L238.48795014790127,105.75719922678807L238.58740300451007,105.82694815540893L238.68685586111886,88.57141313559531L238.98521443094526,104.60468011121861L239.08466728755405,103.70426316152283L239.38302585738046,104.62514518714443L239.48247871398925,109.14738684249781L239.78083728381566,116.79357793507396L240.07919585364203,100.67700590621638L240.47700728007726,87.5137835786741L241.07372441973007,82.85510918836387L241.17317727633886,92.0230258018939L241.47153584616524,76.85021983595448L241.57098870277406,109.09341086747261L241.76989441599164,119.60890766513572L241.96880012920923,85.13658077118926L242.06825298581805,110.38389693596422L242.26715869903563,74.6944215804546L242.36661155564443,93.97664527783782L242.56551726886207,89.54866027480143L242.66497012547086,71.41599329371992L242.76442298207965,113.18371880408736L242.86387583868844,109.38506139493543L243.06278155190606,117.41970786084501L243.26168726512364,105.61262155066774L243.36114012173243,96.61487058545674L243.75895154816763,110.61855607080268L243.85840440477642,83.72455017793101L244.05731011799404,117.94625941928338L244.3556686878204,119.16202277693834L244.55457440103802,111.62729941251445L244.85293297086446,111.33655351033138L245.44965011051724,110.28781446485915L246.04636725017002,111.4360424092298L246.44417867660522,113.18610794264671L246.74253724643162,85.95414332346778L247.23980152947564,108.66816077213787L247.43870724269323,88.39231721207874L247.73706581251963,99.62490682399078L248.3337829521724,108.29889803477634L248.4332358087812,114.11568828826591L248.63214152199882,102.18110283197507L248.9305000918252,105.93964855976658L249.22885866165163,66.64277942568113L249.32831151826042,79.77307405576958L249.4277643748692,109.37207853103044L250.3228400843484,100.62415657073373L250.4222929409572,114.21944184919745L250.521745797566,87.30206149946362L250.6211986541748,99.10139056502587L250.8201043673924,99.18812192792778L251.01901008061,110.69916050278056L251.31736865043638,104.88508081148453L251.4168215070452,74.10956973933509L251.8146329334804,102.24726970957977L252.013538646698,107.40713964132962L252.1129915033068,50.62224347688861L252.2124443599156,111.6182664142998L252.3118972165244,85.73631088156183L253.10752006939478,109.9113876254653L254.002595778874,95.46511505041224L254.20150149209158,108.36697688595765L254.49986006191799,103.90962304096362L254.99712434496197,75.42410624841438L255.29548291478838,107.24279275488328L255.39493577139717,114.07166981860942L255.6932943412236,104.69457931942252L255.7927471978324,118.72904857344572L256.09110576765875,114.8425994347636L256.38946433748515,109.5273924192621L256.58837005070274,100.11708262179859L256.7872757639204,103.2302130057672L257.0856343337468,115.09455911387161L257.3839929035732,73.1111020129805L257.48344576018195,113.33626911179408L257.58289861679077,100.26963292950529L257.78180433000836,115.30704001795044L258.57742718287875,70.29676306298704L258.77633289609633,111.43558512612134L258.975238609314,48.6334993563829L259.17414432253156,97.23395238679544L259.67140860557555,101.23364868137791L260.16867288861954,67.71629460015227L260.56648431505477,106.78654019025419L260.96429574148993,112.04451391699425L261.06374859809875,114.39762320649713L261.1632014547076,108.20702389372727L261.56101288114274,116.42184984530168L261.66046573775157,117.53398224691651L261.75991859436033,106.75524612013706L261.85937145096915,106.30670440908301L262.15773002079555,94.60957811825843L262.65499430383954,118.63911622878469L262.95335287366595,109.03983252993302L263.15225858688353,104.19005687768667L263.55007001331876,102.79617180835487L263.6495228699275,113.81534938174262L263.74897572653634,125.20598332595415L263.84842858314516,93.39890452041921L264.04733429636275,107.95521995596779L264.24624000958033,98.56432812238467L264.54459857940674,112.9920376541514L264.84295714923314,94.43233120904992L264.9424100058419,112.85787476650822L265.14131571905955,94.88650611781672L265.34022143227713,110.70772959059536L266.03639142853876,119.18360123782385L266.3347499983651,118.67893962296804L266.43420285497393,116.97041395221402L266.6331085681915,97.45130766371865L266.8320142814091,102.45634087221956L267.03091999462674,114.02365509222261L267.1303728512355,112.58414774870903L267.3292785644531,92.43776832667152L267.62763713427955,102.09585929599847L267.82654284749714,101.52475245729804L268.12490141732354,86.3513235259645L268.3238071305411,101.91883440105275L268.42325998714995,91.98189683129947" fill="none"></path></g><g><path style="fill: none;" stroke="rgb(0, 119, 187)" stroke-width="2px" d="M268.5227128437587,95.8383972400241Z" fill="none"></path></g></g></g></g></g></g><g transform="translate(51, 177)" clip-path="url(#clip_1)"><clipPath id="clip_1"><rect width="278" height="22"></rect></clipPath><g><g><line x1="0" y1="0" x2="0" y2="5" style="visibility: inherit;" fill="rgb(0, 0, 0)" stroke="rgb(204, 204, 204)" stroke-width="1px"></line><line x1="19.890571321759904" y1="0" x2="19.890571321759904" y2="5" style="visibility: inherit;" fill="rgb(0, 0, 0)" stroke="rgb(204, 204, 204)" stroke-width="1px"></line><line x1="39.78114264351981" y1="0" x2="39.78114264351981" y2="5" style="visibility: inherit;" fill="rgb(0, 0, 0)" stroke="rgb(204, 204, 204)" stroke-width="1px"></line><line x1="59.671713965279714" y1="0" x2="59.671713965279714" y2="5" style="visibility: inherit;" fill="rgb(0, 0, 0)" stroke="rgb(204, 204, 204)" stroke-width="1px"></line><line x1="79.56228528703961" y1="0" x2="79.56228528703961" y2="5" style="visibility: inherit;" fill="rgb(0, 0, 0)" stroke="rgb(204, 204, 204)" stroke-width="1px"></line><line x1="99.45285660879952" y1="0" x2="99.45285660879952" y2="5" style="visibility: inherit;" fill="rgb(0, 0, 0)" stroke="rgb(204, 204, 204)" stroke-width="1px"></line><line x1="119.34342793055943" y1="0" x2="119.34342793055943" y2="5" style="visibility: inherit;" fill="rgb(0, 0, 0)" stroke="rgb(204, 204, 204)" stroke-width="1px"></line><line x1="139.23399925231934" y1="0" x2="139.23399925231934" y2="5" style="visibility: inherit;" fill="rgb(0, 0, 0)" stroke="rgb(204, 204, 204)" stroke-width="1px"></line><line x1="159.12457057407923" y1="0" x2="159.12457057407923" y2="5" style="visibility: inherit;" fill="rgb(0, 0, 0)" stroke="rgb(204, 204, 204)" stroke-width="1px"></line><line x1="179.01514189583915" y1="0" x2="179.01514189583915" y2="5" style="visibility: inherit;" fill="rgb(0, 0, 0)" stroke="rgb(204, 204, 204)" stroke-width="1px"></line><line x1="198.90571321759904" y1="0" x2="198.90571321759904" y2="5" style="visibility: inherit;" fill="rgb(0, 0, 0)" stroke="rgb(204, 204, 204)" stroke-width="1px"></line><line x1="218.79628453935896" y1="0" x2="218.79628453935896" y2="5" style="visibility: inherit;" fill="rgb(0, 0, 0)" stroke="rgb(204, 204, 204)" stroke-width="1px"></line><line x1="238.68685586111886" y1="0" x2="238.68685586111886" y2="5" style="visibility: inherit;" fill="rgb(0, 0, 0)" stroke="rgb(204, 204, 204)" stroke-width="1px"></line><line x1="258.57742718287875" y1="0" x2="258.57742718287875" y2="5" style="visibility: inherit;" fill="rgb(0, 0, 0)" stroke="rgb(204, 204, 204)" stroke-width="1px"></line><line x1="278.4679985046387" y1="0" x2="278.4679985046387" y2="5" style="visibility: inherit;" fill="rgb(0, 0, 0)" stroke="rgb(204, 204, 204)" stroke-width="1px"></line></g><g transform="translate(0, 8)"><text style="text-anchor: middle; visibility: hidden; font-family: Roboto, sans-serif; font-size: 12px; font-weight: 200;" x="0" y="0" dx="0em" dy="0.95em" fill="rgb(50, 49, 63)" stroke="none" stroke-width="1px">-200</text><text style="text-anchor: middle; visibility: hidden; font-family: Roboto, sans-serif; font-size: 12px; font-weight: 200;" x="19.890571321759904" y="0" dx="0em" dy="0.95em" fill="rgb(50, 49, 63)" stroke="none" stroke-width="1px">0</text><text style="text-anchor: middle; visibility: hidden; font-family: Roboto, sans-serif; font-size: 12px; font-weight: 200;" x="39.78114264351981" y="0" dx="0em" dy="0.95em" fill="rgb(50, 49, 63)" stroke="none" stroke-width="1px">200</text><text style="text-anchor: middle; visibility: hidden; font-family: Roboto, sans-serif; font-size: 12px; font-weight: 200;" x="59.671713965279714" y="0" dx="0em" dy="0.95em" fill="rgb(50, 49, 63)" stroke="none" stroke-width="1px">400</text><text style="text-anchor: middle; visibility: hidden; font-family: Roboto, sans-serif; font-size: 12px; font-weight: 200;" x="79.56228528703961" y="0" dx="0em" dy="0.95em" fill="rgb(50, 49, 63)" stroke="none" stroke-width="1px">600</text><text style="text-anchor: middle; visibility: hidden; font-family: Roboto, sans-serif; font-size: 12px; font-weight: 200;" x="99.45285660879952" y="0" dx="0em" dy="0.95em" fill="rgb(50, 49, 63)" stroke="none" stroke-width="1px">800</text><text style="text-anchor: middle; visibility: hidden; font-family: Roboto, sans-serif; font-size: 12px; font-weight: 200;" x="119.34342793055943" y="0" dx="0em" dy="0.95em" fill="rgb(50, 49, 63)" stroke="none" stroke-width="1px">1k</text><text style="text-anchor: middle; visibility: hidden; font-family: Roboto, sans-serif; font-size: 12px; font-weight: 200;" x="139.23399925231934" y="0" dx="0em" dy="0.95em" fill="rgb(50, 49, 63)" stroke="none" stroke-width="1px">1.2k</text><text style="text-anchor: middle; visibility: hidden; font-family: Roboto, sans-serif; font-size: 12px; font-weight: 200;" x="159.12457057407923" y="0" dx="0em" dy="0.95em" fill="rgb(50, 49, 63)" stroke="none" stroke-width="1px">1.4k</text><text style="text-anchor: middle; visibility: hidden; font-family: Roboto, sans-serif; font-size: 12px; font-weight: 200;" x="179.01514189583915" y="0" dx="0em" dy="0.95em" fill="rgb(50, 49, 63)" stroke="none" stroke-width="1px">1.6k</text><text style="text-anchor: middle; visibility: hidden; font-family: Roboto, sans-serif; font-size: 12px; font-weight: 200;" x="198.90571321759904" y="0" dx="0em" dy="0.95em" fill="rgb(50, 49, 63)" stroke="none" stroke-width="1px">1.8k</text><text style="text-anchor: middle; visibility: hidden; font-family: Roboto, sans-serif; font-size: 12px; font-weight: 200;" x="218.79628453935896" y="0" dx="0em" dy="0.95em" fill="rgb(50, 49, 63)" stroke="none" stroke-width="1px">2k</text><text style="text-anchor: middle; visibility: hidden; font-family: Roboto, sans-serif; font-size: 12px; font-weight: 200;" x="238.68685586111886" y="0" dx="0em" dy="0.95em" fill="rgb(50, 49, 63)" stroke="none" stroke-width="1px">2.2k</text><text style="text-anchor: middle; visibility: hidden; font-family: Roboto, sans-serif; font-size: 12px; font-weight: 200;" x="258.57742718287875" y="0" dx="0em" dy="0.95em" fill="rgb(50, 49, 63)" stroke="none" stroke-width="1px">2.4k</text><text style="text-anchor: middle; visibility: hidden; font-family: Roboto, sans-serif; font-size: 12px; font-weight: 200;" x="278.4679985046387" y="0" dx="0em" dy="0.95em" fill="rgb(50, 49, 63)" stroke="none" stroke-width="1px">2.6k</text></g><line x1="0" y1="0" x2="278.4679985046387" y2="0" fill="rgb(0, 0, 0)" stroke="rgb(204, 204, 204)" stroke-width="1px"></line></g></g></g></g></svg>