<svg viewBox="0 0 330 200" xmlns="http://www.w3.org/2000/svg"><g><g><g><g><g><line x1="30.766000747680664" y1="177.89999961853027" x2="25.766000747680664" y2="177.89999961853027" style="visibility: inherit;" fill="rgb(0, 0, 0)" stroke="rgb(204, 204, 204)" stroke-width="1px"></line><line x1="30.766000747680664" y1="155.662499666214" x2="25.766000747680664" y2="155.662499666214" style="visibility: inherit;" fill="rgb(0, 0, 0)" stroke="rgb(204, 204, 204)" stroke-width="1px"></line><line x1="30.766000747680664" y1="133.4249997138977" x2="25.766000747680664" y2="133.4249997138977" style="visibility: inherit;" fill="rgb(0, 0, 0)" stroke="rgb(204, 204, 204)" stroke-width="1px"></line><line x1="30.766000747680664" y1="111.18749976158142" x2="25.766000747680664" y2="111.18749976158142" style="visibility: inherit;" fill="rgb(0, 0, 0)" stroke="rgb(204, 204, 204)" stroke-width="1px"></line><line x1="30.766000747680664" y1="88.94999980926514" x2="25.766000747680664" y2="88.94999980926514" style="visibility: inherit;" fill="rgb(0, 0, 0)" stroke="rgb(204, 204, 204)" stroke-width="1px"></line><line x1="30.766000747680664" y1="66.71249985694885" x2="25.766000747680664" y2="66.71249985694885" style="visibility: inherit;" fill="rgb(0, 0, 0)" stroke="rgb(204, 204, 204)" stroke-width="1px"></line><line x1="30.766000747680664" y1="44.47499990463257" x2="25.766000747680664" y2="44.47499990463257" style="visibility: inherit;" fill="rgb(0, 0, 0)" stroke="rgb(204, 204, 204)" stroke-width="1px"></line><line x1="30.766000747680664" y1="22.237499952316284" x2="25.766000747680664" y2="22.237499952316284" style="visibility: inherit;" fill="rgb(0, 0, 0)" stroke="rgb(204, 204, 204)" stroke-width="1px"></line><line x1="30.766000747680664" y1="0" x2="25.766000747680664" y2="0" style="visibility: inherit;" fill="rgb(0, 0, 0)" stroke="rgb(204, 204, 204)" stroke-width="1px"></line></g><g transform="translate(20.766000747680664, 0)"><text style="text-anchor: end; visibility: hidden; font-family: Roboto, sans-serif; font-size: 12px; font-weight: 200;" x="0" y="177.89999961853027" dx="0em" dy="0.3em" fill="rgb(50, 49, 63)" stroke="none" stroke-width="1px">-5</text><text style="text-anchor: end; visibility: inherit; font-family: Roboto, sans-serif; font-size: 12px; font-weight: 200;" x="0" y="155.662499666214" dx="0em" dy="0.3em" fill="rgb(50, 49, 63)" stroke="none" stroke-width="1px">0</text><text style="text-anchor: end; visibility: hidden; font-family: Roboto, sans-serif; font-size: 12px; font-weight: 200;" x="0" y="133.4249997138977" dx="0em" dy="0.3em" fill="rgb(50, 49, 63)" stroke="none" stroke-width="1px">5</text><text style="text-anchor: end; visibility: inherit; font-family: Roboto, sans-serif; font-size: 12px; font-weight: 200;" x="0" y="111.18749976158142" dx="0em" dy="0.3em" fill="rgb(50, 49, 63)" stroke="none" stroke-width="1px">10</text><text style="text-anchor: end; visibility: hidden; font-family: Roboto, sans-serif; font-size: 12px; font-weight: 200;" x="0" y="88.94999980926514" dx="0em" dy="0.3em" fill="rgb(50, 49, 63)" stroke="none" stroke-width="1px">15</text><text style="text-anchor: end; visibility: inherit; font-family: Roboto, sans-serif; font-size: 12px; font-weight: 200;" x="0" y="66.71249985694885" dx="0em" dy="0.3em" fill="rgb(50, 49, 63)" stroke="none" stroke-width="1px">20</text><text style="text-anchor: end; visibility: hidden; font-family: Roboto, sans-serif; font-size: 12px; font-weight: 200;" x="0" y="44.47499990463257" dx="0em" dy="0.3em" fill="rgb(50, 49, 63)" stroke="none" stroke-width="1px">25</text><text style="text-anchor: end; visibility: inherit; font-family: Roboto, sans-serif; font-size: 12px; font-weight: 200;" x="0" y="22.237499952316284" dx="0em" dy="0.3em" fill="rgb(50, 49, 63)" stroke="none" stroke-width="1px">30</text><text style="text-anchor: end; visibility: hidden; font-family: Roboto, sans-serif; font-size: 12px; font-weight: 200;" x="0" y="0" dx="0em" dy="0.3em" fill="rgb(50, 49, 63)" stroke="none" stroke-width="1px">35</text></g><line x1="30.766000747680664" y1="0" x2="30.766000747680664" y2="177.89999961853027" fill="rgb(0, 0, 0)" stroke="rgb(204, 204, 204)" stroke-width="1px"></line></g></g><g transform="translate(30, 0)" clip-path="url(#clip_0)"><clipPath id="clip_0"><rect width="299" height="177"></rect></clipPath><g><g><g><line x1="0" y1="0" x2="0" y2="177.89999961853027" fill="rgb(0, 0, 0)" stroke="rgb(60, 60, 60)" stroke-width="1px" opacity="0.25"></line><line x1="21.37385708945138" y1="0" x2="21.37385708945138" y2="177.89999961853027" fill="rgb(0, 0, 0)" stroke="rgb(60, 60, 60)" stroke-width="1px" opacity="0.25"></line><line x1="42.74771417890276" y1="0" x2="42.74771417890276" y2="177.89999961853027" fill="rgb(0, 0, 0)" stroke="rgb(60, 60, 60)" stroke-width="1px" opacity="0.25"></line><line x1="64.12157126835415" y1="0" x2="64.12157126835415" y2="177.89999961853027" fill="rgb(0, 0, 0)" stroke="rgb(60, 60, 60)" stroke-width="1px" opacity="0.25"></line><line x1="85.49542835780552" y1="0" x2="85.49542835780552" y2="177.89999961853027" fill="rgb(0, 0, 0)" stroke="rgb(60, 60, 60)" stroke-width="1px" opacity="0.25"></line><line x1="106.86928544725691" y1="0" x2="106.86928544725691" y2="177.89999961853027" fill="rgb(0, 0, 0)" stroke="rgb(60, 60, 60)" stroke-width="1px" opacity="0.25"></line><line x1="128.2431425367083" y1="0" x2="128.2431425367083" y2="177.89999961853027" fill="rgb(0, 0, 0)" stroke="rgb(60, 60, 60)" stroke-width="1px" opacity="0.25"></line><line x1="149.61699962615967" y1="0" x2="149.61699962615967" y2="177.89999961853027" fill="rgb(0, 0, 0)" stroke="rgb(60, 60, 60)" stroke-width="1px" opacity="0.25"></line><line x1="170.99085671561105" y1="0" x2="170.99085671561105" y2="177.89999961853027" fill="rgb(0, 0, 0)" stroke="rgb(60, 60, 60)" stroke-width="1px" opacity="0.25"></line><line x1="192.36471380506245" y1="0" x2="192.36471380506245" y2="177.89999961853027" fill="rgb(0, 0, 0)" stroke="rgb(60, 60, 60)" stroke-width="1px" opacity="0.25"></line><line x1="213.73857089451383" y1="0" x2="213.73857089451383" y2="177.89999961853027" fill="rgb(0, 0, 0)" stroke="rgb(60, 60, 60)" stroke-width="1px" opacity="0.25"></line><line x1="235.11242798396518" y1="0" x2="235.11242798396518" y2="177.89999961853027" fill="rgb(0, 0, 0)" stroke="rgb(60, 60, 60)" stroke-width="1px" opacity="0.25"></line><line x1="256.4862850734166" y1="0" x2="256.4862850734166" y2="177.89999961853027" fill="rgb(0, 0, 0)" stroke="rgb(60, 60, 60)" stroke-width="1px" opacity="0.25"></line><line x1="277.860142162868" y1="0" x2="277.860142162868" y2="177.89999961853027" fill="rgb(0, 0, 0)" stroke="rgb(60, 60, 60)" stroke-width="1px" opacity="0.25"></line><line x1="299.23399925231934" y1="0" x2="299.23399925231934" y2="177.89999961853027" fill="rgb(0, 0, 0)" stroke="rgb(60, 60, 60)" stroke-width="1px" opacity="0.25"></line></g><g><line x1="0" y1="177.89999961853027" x2="299.23399925231934" y2="177.89999961853027" fill="rgb(0, 0, 0)" stroke="rgb(60, 60, 60)" stroke-width="1px" opacity="0.25"></line><line x1="0" y1="155.662499666214" x2="299.23399925231934" y2="155.662499666214" fill="rgb(0, 0, 0)" stroke="rgb(60, 60, 60)" stroke-width="1px" opacity="0.25"></line><line x1="0" y1="133.4249997138977" x2="299.23399925231934" y2="133.4249997138977" fill="rgb(0, 0, 0)" stroke="rgb(60, 60, 60)" stroke-width="1px" opacity="0.25"></line><line x1="0" y1="111.18749976158142" x2="299.23399925231934" y2="111.18749976158142" fill="rgb(0, 0, 0)" stroke="rgb(60, 60, 60)" stroke-width="1px" opacity="0.25"></line><line x1="0" y1="88.94999980926514" x2="299.23399925231934" y2="88.94999980926514" fill="rgb(0, 0, 0)" stroke="rgb(60, 60, 60)" stroke-width="1px" opacity="0.25"></line><line x1="0" y1="66.71249985694885" x2="299.23399925231934" y2="66.71249985694885" fill="rgb(0, 0, 0)" stroke="rgb(60, 60, 60)" stroke-width="1px" opacity="0.25"></line><line x1="0" y1="44.47499990463257" x2="299.23399925231934" y2="44.47499990463257" fill="rgb(0, 0, 0)" stroke="rgb(60, 60, 60)" stroke-width="1px" opacity="0.25"></line><line x1="0" y1="22.237499952316284" x2="299.23399925231934" y2="22.237499952316284" fill="rgb(0, 0, 0)" stroke="rgb(60, 60, 60)" stroke-width="1px" opacity="0.25"></line><line x1="0" y1="0" x2="299.23399925231934" y2="0" fill="rgb(0, 0, 0)" stroke="rgb(60, 60, 60)" stroke-width="1px" opacity="0.25"></line></g></g></g><g><g><line x1="0" y1="155.662499666214" x2="299.23399925231934" y2="155.662499666214" fill="rgb(0, 0, 0)" stroke="rgb(153, 153, 153)" stroke-width="1.5px"></line></g></g><g><g><line x1="21.37385708945138" y1="0" x2="21.37385708945138" y2="177.89999961853027" fill="rgb(0, 0, 0)" stroke="rgb(153, 153, 153)" stroke-width="1.5px"></line></g></g><g><g><g><g><g><path style="fill: none;" stroke="rgb(255, 112, 67)" stroke-width="2px" d="M21.908203516687667,144.0818624697099L22.01507280213492,144.14208996873796L22.44254994392395,145.37580287184431L22.549419229371207,142.99126081248232L22.870027085712977,141.35449494049843L22.976896371160237,139.11501082260042L23.297504227502007,136.15130167830984L23.40437351294926,123.62377473852588L23.51124279839652,120.0562815998039L23.938719940185546,121.84104961975368L24.90054350921086,130.29944824298354L25.22115136555263,135.4168021746176L25.64862850734166,139.03846909197492L25.86236707823617,134.00367403913643L26.076105649130685,135.30669752775202L26.182974934577942,138.88333370909845L26.396713505472455,140.0436007720517L26.61045207636697,139.83365893459916L27.037929218156,135.22333715923864L27.144798503603255,133.041257763532L27.251667789050508,136.6270766848941L27.358537074497768,138.39763407703816L27.465406359945025,129.20381528271253L28.106622072628568,133.90711095869665L28.320360643523077,131.6235579915088L28.427229928970338,135.46658842528342L28.534099214417594,137.95380850186586L28.64096849986485,139.73085898509888L28.96157635620662,141.34984390677093L29.068445641653877,141.29646709990584L29.175314927101137,142.07105481397156L29.28218421254839,142.41289730196186L29.816530639784677,143.12156539925417L30.35087706702096,143.80252243257422L30.67148492336273,140.1177132252556L30.77835420880999,141.44937483536762L31.41956992149353,141.82930683976795L32.274524205071586,142.22540540874752L32.59513206141336,142.4104135286627L32.70200134686061,141.80916589371338L33.45008634499141,142.7002199887325L33.77069420133318,142.4207233067403L33.9844327722277,142.80203436104833L34.7325177703585,143.3676142179488L34.83938705580575,143.4648367436597L35.15999491214752,142.72124933394002L35.26686419759478,143.18126839454092L36.01494919572558,143.53366524962027L36.22868776662009,143.97808711823174L36.442426337514604,143.3870766889427L36.54929562296186,143.71130060508136L36.65616490840912,144.14485643791147L37.40424990653992,144.14648527803305L37.938596333776196,144.06926011912356L38.15233490467072,144.14443498059256L38.25920419011798,143.77584294720998L38.36607347556523,144.19163553980258L38.686681331906996,144.01229331697493L39.00728918824878,144.22429605773496L39.22102775914328,144.50018612812835L39.32789704459054,143.8621628874938L39.648504900932316,143.5217419767651L40.289720613615856,142.94653161738353L40.396589899063116,142.89115991415858L40.61032846995762,141.54063664356437L40.930936326299395,142.54599397271895L41.14467489719391,142.29166485326883L41.25154418264116,142.58743323084755L41.465282753535675,142.25851659820609L41.679021324430195,142.55536745159736L41.785890609877455,142.29126987546712L42.533975608008255,142.95460564622599L43.3889298915863,143.19714548486914L43.49579917703356,142.61356044615607L43.602668462480814,143.28073704220677L44.03014560426984,143.66904855668471L45.098838458742414,144.29872371077101L45.205707744189674,143.84333215235858L45.41944631508418,144.2567668935731L45.6331848859787,143.86703163237723L45.84692345687321,144.02654747325985L46.16753131321498,144.1071183355108L46.27440059866224,144.19670487323492L46.3812698841095,141.39864995012067L46.70187774045127,141.64168273314556L47.77057059492384,142.3538997823364L47.98430916581835,142.47966683252776L48.62552487850189,142.601689457877L48.94613273484366,143.20891596734145L49.05300202029092,143.44764211467395L49.15987130573818,141.9772928801667L49.26674059118543,142.90956532376313L49.48047916207995,143.16942781161654L49.90795630386898,143.00264774566384L50.12169487476349,141.32778214615462L50.335433445658,141.98253845351402L50.54917201655252,142.82527738048344L51.0835184437888,143.34919891245673L51.72473415647234,143.84337092519777L52.47281915460314,143.88382273749835L52.5796884400504,143.95662892618833L53.114034867286676,144.2689459210109L53.22090415273394,144.60687806470804L53.54151200907571,144.16987108380638L53.64838129452297,143.64911812443847L53.75525057997022,144.3195452012233L54.18272772175925,144.431656719971L54.28959700720651,144.75201830025736L54.503335578101016,144.8307671121235L54.823943434442796,144.99175641355237L55.251420576231816,145.16913084488536L55.358289861679076,138.37432768974233L55.465159147126336,141.29447434229127L55.572028432573596,141.56165544613557L55.7857670034681,142.93235819363812L56.106374859809875,142.8575357744874L56.213244145257136,143.41348592436583L56.32011343070439,143.6996211493968L56.640721287046155,143.9538471608138L56.961329143387935,144.06859723908522L57.602544856071475,144.40973628764434L57.81628342696599,144.4515690341551L58.136891283307754,144.636551610567L58.243760568755015,144.79716376973778L58.45749913964953,144.23348761916105L58.56436842509678,144.12125962999443L59.098714852333075,143.8059009614064L59.20558413778033,143.9132512195843L59.633061279569354,144.40669674010627L59.84679985046387,144.2744963922431L60.16740770680563,144.74286996801823L60.59488484859467,145.12215023013965L61.02236199038369,144.76578975449794L61.236100561278214,144.7897509301318L61.66357770306723,144.63876218739182L61.77044698851449,143.8119165219475L61.87731627396175,144.5177206989973L62.09105484485626,140.9497283042421L62.62540127209255,142.73076840213506L62.7322705575398,143.88625642261962L63.15974769932883,144.44812612256135L63.26661698477609,144.05559609291373L63.373486270223346,144.40640186417974L64.44217912469591,143.5553938617396L64.9765255519322,144.1602646388143L65.72461055006299,144.27228103274217L65.83147983551025,144.43701236375517L66.36582626274654,144.8037752707706L66.4726955481938,145.11792401152027L66.68643411908832,145.20947241807946L66.90017268998282,145.4485739968011L67.32764983177185,145.4896887812191L68.28947340079716,145.27403870411632L68.50321197169167,145.12862482151473L68.61008125713893,145.17460307586418L68.9306891134807,144.93650414194528L69.57190482616424,145.10607247739043L70.4268591097423,145.23718605840753L70.53372839518956,145.14915481767912L70.64059768063682,143.5021210796074L70.85433625153134,143.65793929909583L70.96120553697858,144.53992564192467L71.28181339332035,143.4107651181091L71.38868267876761,143.96073055026457L71.9230291060039,144.14713023003557L72.02989839145116,144.05139563577256L73.20546053137097,143.9992745265155L73.52606838771275,143.99135240655593L73.63293767316001,143.22466930065607L73.84667624405452,142.3491607118776L74.06041481494904,142.12427990417484L74.38102267129081,142.68342457561386L75.55658481121063,142.8298140769227L75.98406195299967,142.33246451899885L76.09093123844691,140.70786823909364L76.30466980934143,141.0635333930547L76.6252776656832,141.34814628404L76.83901623657772,141.10238461702994L77.37336266381399,141.40035158489914L77.48023194926127,141.54786834009911L78.1214476619448,141.5055261822627L78.33518623283932,141.9509096736779L78.44205551828657,142.05183568386738L78.54892480373383,142.2080847125702L78.65579408918109,101.255480092546L78.76266337462835,-239.03598103125066L78.86953266007559,-87.72673744556627L79.08327123097011,1.8105451110325357L79.29700980186463,52.524802123594846L79.8313562291009,79.16796622923333L79.93822551454817,87.70569849936659L80.04509479999543,-39.21168730898846L80.25883337088995,16.00834677608551L80.68631051267896,37.983696843757826L80.90004908357348,50.65552995713256L81.113787654468,66.42632857721289L81.54126479625702,72.76471826411586L81.64813408170427,-23.936301113993924L81.75500336715153,18.348605884845536L82.18248050894056,41.60841950777402L82.60995765072958,-185.21670204081136L83.25117336341312,-4.114155579870673L83.35804264886039,24.355976193328242L83.46491193430764,42.09487858194996L83.57178121975491,51.99008300615291L83.67865050520216,56.64860031101464L83.78551979064942,60.11428315648301L83.99925836154392,62.43653209091975L84.10612764699118,63.29287785928844L84.64047407422747,60.50761498245889L84.74734335967472,61.5655627173518L85.06795121601651,62.14645116087809L85.17482050146376,62.487074740240175L85.49542835780552,-68.11529015431698L85.70916692870004,-16.24729132525732L86.13664407048907,14.104536879695905L86.35038264138359,27.407171231558507L86.5641212122781,39.99619923193574L86.7778597831726,43.44484010865192L87.09846763951438,46.30144440990968L87.5259447813034,48.05318318801679L87.63281406675067,50.2493715158258L87.84655263764519,51.71119936510745L88.16716049398696,47.16714539050021L88.59463763577598,5.940015488881599L89.12898406301227,13.767997096842308L89.87706906114306,27.912343940835505L89.9839383465903,36.637651603070275L90.19767691748483,42.25983778458801L90.30454620293207,45.26381276905561L90.41141548837935,47.35298197314103L90.5182847738266,48.50650704011818L90.73202334472111,49.38337357526962L91.05263120106288,-148.54840569432912L92.0144547700882,-0.4906915945609761L92.33506262642996,19.441909158657776L92.762539768219,32.44423245625346L93.08314762456077,39.27356035298717L93.19001691000803,43.82201819502585L93.29688619545527,46.96053014569372L93.40375548090255,47.92095208400313L93.51062476634979,49.23363241520945L93.72436333724431,48.928628660633414L93.83123262269156,48.69916708028969L93.93810190813882,47.72137777006959L94.15184047903334,49.0865015258674L94.25870976448059,12.093132550643114L94.36557904992785,27.91956806372885L94.4724483353751,36.541632979105835L94.68618690626963,42.38482683335904L94.89992547716412,45.61783022459065L95.00679476261139,47.97418159582351L95.75487976074218,48.35042452108409L96.07548761708395,49.60542829252705L96.18235690253123,50.04825719904805L96.28922618797847,50.7217325267054L96.50296475887299,50.00065505939169L96.82357261521476,50.9496985307984L97.03731118610928,51.19425203094978L97.25104975700378,51.18161017851675L97.67852689879281,51.62232432528143L98.10600404058184,51.44507363604941L98.4266118969236,51.24887199589621L98.53348118237086,51.495455660376145L98.64035046781812,51.51032221257522L98.74721975326538,51.752482084037815L98.85408903871263,51.68076761423801L99.38843546594892,51.92519838723182L100.02965117863246,52.09737351357108L100.24338974952698,52.15491486228465L100.35025903497423,51.82421886617409L100.45712832042149,51.314620139719466L100.77773617676327,51.831939536343846L101.09834403310504,52.2648145476978L101.20521331855228,52.40355935686309L101.52582117489406,52.50533975443801L101.63269046034131,52.69304121719871L101.73955974578858,53.14578359795579L101.95329831668307,52.608421883216806L102.1670368875776,52.383477148018166L102.80825260026114,52.277515151502314L103.12886045660291,52.49988066004142L103.23572974205017,53.034919339532586L103.55633759839195,53.285374723968566L103.6632068838392,53.51357896375564L103.77007616928647,53.51185645024698L103.98381474018096,53.25616529269392L104.09068402562824,53.496915170986334L104.73189973831177,53.466799908974515L105.1593768801008,53.22291168143561L105.26624616554805,53.35602352466278L105.47998473644256,53.54006783450779L105.69372330733708,53.633162091655564L105.90746187823159,53.511990013206166L106.01433116367885,53.61896546715199L106.1212004491261,53.97919492261576L106.22806973457335,53.94433618034031L106.33493902002063,54.21787711300881L106.6555468763624,53.352736869976845L106.86928544725691,53.89677121591187L107.08302401815142,54.09075627306716L107.40363187449319,54.20355054375721L107.6173704453877,54.079740162383224L107.72423973083495,-143.07764005377993L108.25858615807124,-16.792493026149497L108.47232472896576,10.602138659548423L108.57919401441302,28.296468380856094L108.79293258530753,38.93001511382708L109.1135404416493,45.544428191101694L109.54101758343832,48.94249699625528L109.8616254397801,51.28162732213002L110.18223329612186,52.69505769468124L110.28910258156913,53.71223167102318L110.50284115246363,54.45621350862912L110.71657972335815,54.730880901355796L110.93031829425267,53.24406784947502L111.46466472148896,54.000797531137906L111.78527257783072,54.17772167038074L111.89214186327798,54.55024364412368L111.99901114872523,54.18640193880555L112.319619005067,54.7176590573332L113.17457328864506,55.24540225965752L113.28144257409231,55.33645306015221L113.38831185953958,54.566155628552124L113.60205043043408,55.26385878179003L114.02952757222312,55.736992001359425L114.24326614311764,55.91721049152034L114.35013542856488,55.7330740043039L114.77761257035391,55.92876491710364L114.99135114124843,56.02096818782949L115.09822042669568,56.176877376917005L115.41882828303747,55.69065513610426L115.63256685393198,56.0267674171014L115.84630542482648,56.230748929829225L116.16691328116826,56.39865386291154L116.38065185206277,53.949532343441575L116.48752113751003,54.91089478802793L116.70125970840455,55.39015513180471L116.8081289938518,55.65015198525515L117.12873685019356,56.20822415690329L117.44934470653534,55.918228185871904L117.55621399198259,55.926328636767614L118.3042989901134,56.50619264638276L118.41116827556066,-108.29541927723663L118.94551470279694,-11.882624523456833L119.15925327369145,15.390179565411014L119.26612255913871,31.61624848600676L119.37299184458595,40.38186644681324L119.69359970092773,46.290741473384514L119.800468986375,49.58439483230468L119.90733827182224,46.73695360680988L120.0142075572695,42.59717507782203L120.22794612816402,39.88575837176015L120.86916184084755,45.39999066923622L120.97603112629483,48.66022483389723L121.2966389826366,50.65387686253588L122.04472398076739,51.764003634408L122.36533183710915,52.58161881311209L123.11341683523996,52.50051967052279L123.22028612068722,52.88203650507646L123.32715540613447,52.31348982422394L123.54089397702899,52.781324847653934L123.64776326247623,47.946983512374295L123.7546325479235,49.695324608830575L124.07524040426527,50.65997837386458L124.18210968971252,51.86580528997245L124.39584826060704,-305.8416998345521L125.14393325873783,-24.09225496589766L125.2508025441851,6.869804132631949L125.67827968597412,24.46473291317677L125.78514897142138,36.43298556956019L125.89201825686864,43.705753037293086L125.9988875423159,45.79227533540723L126.31949539865766,49.31461859336418L126.42636468410491,51.64107171450584L126.53323396955219,52.85267392282156L126.85384182589395,53.6501352076055L126.9607111113412,53.87047971966047L127.81566539491926,52.497800535345L128.2431425367083,53.476012110781596L128.45688110760278,53.67907955025959L128.6706196784973,45.47520288206468L128.7774889639446,49.04136792511025L129.09809682028634,51.505956499496286L129.2049661057336,52.449599442486026L129.41870467662812,52.90031552392666L129.52557396207538,53.429980212899814L129.63244324752262,53.5221465804785L129.73931253296988,51.87497942660315L130.05992038931166,53.17341660381605L130.9148746728897,53.93116299603544L131.12861324378423,54.115541191977734L131.34235181467875,54.010328361623365L131.55609038557327,53.81761198532865L131.6629596710205,54.57033929536985L131.76982895646776,54.38658703186286L131.98356752736228,54.10259163268837L132.1973060982568,54.74730246180936L132.30417538370403,54.78047208824465L132.4110446691513,-180.36409608108028L132.9453910963876,-29.506443994983687L133.6934760945184,4.267473048694658L133.80034537996565,24.897546269875495L134.12095323630743,37.20023121875205L134.33469180720195,44.075882737487504L134.97590751988548,48.91904175746495L135.0827768053327,50.67023353957269L135.29651537622723,52.87687717424504L135.51025394712175,53.9286867523148L135.9377310889108,54.739166173622465L136.3652082306998,55.42223751357664L136.57894680159433,54.12977621544073L136.79268537248885,54.955463224782314L137.11329322883063,55.33079442364096L137.22016251427786,55.803918736754376L137.32703179972512,56.10030395424952L137.43390108517238,56.31018360571976L138.0751167978559,56.493130279231096L138.18198608330317,56.38170410809198L138.8232017959867,56.63678928644731L139.03694036688123,56.96575267221232L139.25067893777575,56.68417412548998L139.357548223223,56.76343761780447L139.46441750867027,56.749776082129365L140.42624107769558,57.07458857277573L140.63997964859007,56.6467405605338L140.96058750493185,57.14191821855636L141.3880646467209,57.054992255752204L141.60180321761538,55.67479958107915L141.70867250306267,56.33739319015033L142.13614964485168,56.531338603923935L142.24301893029894,56.60152137162003L142.45675750119347,56.585278632536756L142.5636267866407,56.74020707816544L142.67049607208799,56.8871257791092L142.99110392842974,57.00639918436211L143.097973213877,56.074082753668584L144.16666606834957,56.884323509457275L144.38040463924406,57.13738750192822L144.48727392469135,57.11328986644649L144.8078817810331,57.25304422122814L144.91475106648036,57.65662197302948L145.02162035192762,58.07205119362397L145.3422282082694,58.137011916225674L145.44909749371666,57.1237483713454L145.5559667791639,57.49610513031564L147.15900606087274,57.85268087517054L147.47961391721455,58.162378276910516L147.69335248810904,58.00969375847526L147.8002217735563,58.33921316774217L148.01396034445082,57.96568071014185L148.12082962989808,58.06380410903618L148.44143748623983,58.12857887658585L148.76204534258162,57.78678399366919L148.86891462802888,58.20853473744082L148.9757839134761,58.11739187275056L149.0826531989234,57.797244640986335L149.2963917698179,58.08379392182737L149.5101303407124,58.11849338617985L149.72386891160693,58.29368208682969L149.93760748250145,58.094543038127156L150.0444767679487,58.21980240623238L150.2582153388432,58.47470119840199L150.47195390973772,58.37805901137884L150.68569248063224,58.41931383605235L150.79256176607947,58.75738555876737L150.89943105152676,58.76972566883943L151.00630033697402,58.69405806834325L151.11316962242125,58.81043043402924L152.18186247689383,58.77431898580909L152.60933961868287,58.91439111112858L153.0368167604719,58.50436800783257L153.14368604591914,58.51538023020375L153.2505553313664,58.57447656001961L153.46429390226092,58.23702122890227L153.78490175860267,58.5463132001855L154.10550961494445,58.776898825592696L154.31924818583897,58.9006052652605L154.5329867567335,59.41823203834296L154.63985604218075,59.11900058549465L154.85359461307524,59.1381014667014L155.28107175486429,59.35008156629981L155.38794104031152,59.68221389479968L155.4948103257588,59.76583358984658L155.7085488966533,58.896526723467325L155.81541818210056,59.52729476448363L156.13602603844234,59.11581807934318L156.2428953238896,59.36022622423361L156.34976460933683,59.226920748609L156.45663389478412,58.79212352013214L156.67037246567864,59.38278235925961L157.2047188929149,59.30760872063354L157.5253267492567,59.39697259861671L158.05967317649296,59.228558636377706L158.27341174738748,58.71424890738142L158.7008888891765,59.43669232268612L158.91462746007102,59.57364932404284L159.34210460186003,59.99269776119505L159.4489738873073,56.12451594669992L159.55584317275458,57.436701166694974L159.6627124582018,58.34684856208521L159.87645102909633,59.07175383433939L160.1970588854381,59.88744835681501L160.30392817088534,60.12977080393873L160.5176667417799,60.43222408060727L160.62453602722712,60.10992179956546L160.73140531267438,60.11133232543542L161.37262102535792,60.218456219083365L161.58635959625246,60.32187759460165L161.6932288816997,51.48629055022834L161.9069674525942,55.11181038049707L162.01383673804148,57.081601170471686L162.33444459438323,58.59000409567583L162.4413138798305,59.282592489742676L162.97566030706676,59.46537384394264L163.08252959251405,59.753968073025355L163.1893988779613,59.893138587598635L163.51000673430306,60.09951109146793L163.72374530519758,58.63142059573819L163.83061459064484,59.597870871212976L163.93748387609207,59.88056014037606L164.04435316153936,59.45480413718681L164.15122244698662,60.20878563366416L164.25809173243385,60.69258513596014L164.8993074451174,60.829052295705885L165.4336538723537,61.06890516354124L165.54052315780098,60.71862835151918L165.6473924432482,60.79490037404331L166.1817388704845,60.90429237160103L166.60921601227352,61.1509533609157L166.82295458316804,61.45440818514345L166.92982386861527,60.678425410042536L167.3573010104043,61.246538818174386L167.78477815219335,59.55169974080121L168.53286315032412,60.05444248939143L168.74660172121867,60.45136844229634L169.06720957756042,60.480250056281854L169.28094814845494,60.466256642767064L169.3878174339022,61.024781795148485L169.70842529024398,61.114244718830136L169.8152945756912,61.68571391861464L170.02903314658573,61.834051245634676L170.13590243203302,61.851756286347744L170.45651028837474,62.10434649241614L172.27328814097814,61.971393221876596L172.3801574264254,61.33154748260137L172.48702671187263,61.46137664262519L172.5938959973199,61.385936641257096L173.02137313910893,61.5970845604339L173.3419809954507,61.672051172692385L173.44885028089794,61.15204065511394L173.76945813723972,61.38084168402917L173.87632742268698,61.60821105011701L173.98319670813424,61.52846717722178L174.41067384992326,61.73823056362561L174.51754313537052,61.573951926931116L174.62441242081778,61.98087593760186L174.8381509917123,62.13667211360294L175.0518895626068,62.30346611276282L175.26562813350134,62.30181178623479L175.47936670439583,62.13346110122984L176.12058241707936,61.574803239807444L176.3343209879739,62.119974098764L176.86866741521018,61.84696000012933L176.97553670065744,61.524269598540215L177.93736026968276,61.542233279954104L178.04422955513,61.78329936825247L179.21979169504985,61.446966898163105L179.64726883683883,61.61013034028417L179.75413812228612,61.08919844129234L180.07474597862787,61.18991422624297L180.18161526407513,61.63308006266464L180.50222312041691,61.556995209324455L180.71596169131143,61.50344499008631L180.8228309767587,61.36528498206179L180.92970026220596,61.631648295803586L181.67778526033672,61.214385922966144L181.784654545784,61.36485387110012L181.89152383123127,61.79177814054037L181.9983931166785,61.75001209432286L182.31900097302028,61.15754604233295L182.5327395439148,61.324163793518615L182.63960882936203,61.705085792886L182.74647811480932,61.90691775347378L182.85334740025658,62.02602174397865L183.38769382749285,62.22494190358749L183.60143239838735,62.27239944536878L184.13577882562365,62.453241020281745L184.24264811107093,62.56065336345573L184.56325596741266,62.6156915000474L185.31134096554348,62.54170387846297L185.525079536438,62.47524550012443L186.59377239091054,62.218468661986705L186.8075109618051,62.327587252829865L186.91438024725232,62.58517987451412L187.12811881814685,62.43429556780855L187.23498810359408,62.08789257832798L187.44872667448863,62.23813913988989L187.55559595993586,62.38621872304985L188.1968116726194,62.81884242359416L188.30368095806668,62.84034143195264L188.9448966707502,63.08463149771117L189.05176595619747,63.08355499808468L190.01358952522278,63.166544031601134L190.44106666701182,43.14453030099474L190.65480523790632,51.1435620576369L191.08228237969536,55.739251598890704L191.7234980923789,58.65940191081846L192.04410594872067,60.324090742419116L192.25784451961516,61.719009509280134L192.57845237595694,62.42780061723624L192.79219094685143,62.534266299844425L192.89906023229872,62.772666787144836L193.32653737408774,58.30742496965563L193.43340665953502,60.59726987400029L193.64714523042952,61.91176574686449L193.75401451587675,61.81311793747902L193.9677530867713,62.192225435447696L194.28836094311305,63.00456102100272L194.39523022856034,63.1244884999853L194.50209951400757,63.348550762881786L194.9295766557966,62.82660251526142L195.1433152266911,63.2558395061068L195.25018451213836,63.54124643901864L195.35705379758562,63.740175498990176L195.57079236848014,63.504722385044204L195.78453093937463,63.30064288055034L195.99826951026918,63.73350493961798L196.31887736661093,63.07030620718893L196.63948522295271,63.39586239380771L196.74635450839995,63.96311164186199L196.8532237938472,64.17735390832641L197.173831650189,64.0032587563876L197.3875702210835,64.07644106914027L197.49443950653077,63.92579947759477L197.81504736287252,63.961287676084105L197.9219166483198,64.2200009247162L198.24252450466156,63.39545350253755L198.67000164645057,63.43809849740363L198.77687093189783,63.65025233695606L198.8837402173451,64.0532026391351L199.6318252154759,64.14445504999809L199.8455637863704,64.21727853703499L199.9524330718177,62.9421649633991L200.05930235726493,62.78990729420663L200.37991021360668,63.17899208756549L200.48677949905397,63.52477735588754L200.70051806994846,64.15298842228961L201.1279952117375,64.45309022747199L201.23486449718476,64.79250829723921L201.341733782632,63.26102608617956L201.66234163897377,63.984680295068934L202.0898187807628,63.9513274837281L202.19668806621007,64.54041753359357L202.41042663710456,64.39691420144982L202.51729592255185,64.771506722126L202.62416520799908,64.7007202410706L202.73103449344634,64.87303282348864L202.9447730643409,64.24903261815153L203.26538092068262,64.1274714035563L203.37225020612988,64.58383237073144L203.47911949157717,63.75019865128719L203.58598877702443,63.48232184395772L204.01346591881344,63.849756742466816L204.1203352042607,64.5132880598794L204.65468163149697,64.93987218038983L204.8684202023915,64.92724620673879L204.97528948783875,65.02036303756967L205.082158773286,65.26210777136605L205.50963591507505,65.14488946785809L205.8302437714168,65.23504879226344L206.04398234231132,65.23580709721084L206.36459019865308,65.01859001872585L206.47145948410034,65.25189935825745L206.5783287695476,64.8177804137995L206.68519805499486,64.91217049465178L206.79206734044212,65.30297102727936L207.00580591133664,65.08027215433951L207.21954448223113,64.75188468829307L207.54015233857294,64.64963710912724L207.64702162402017,64.25092570834724L207.86076019491466,64.73637208409875L207.96762948036192,64.53074701777763L208.0744987658092,64.46282660776411L208.39510662215096,64.86657326598477L208.60884519304548,64.89704653450356L208.71571447849274,65.29241722767064L208.82258376394,65.17002775354915L208.92945304938723,65.23596865869746L209.67753804751806,65.05422705182458L209.78440733296532,65.18250401521625L210.1050151893071,65.11860600059069L210.63936161654337,65.45029951676649L211.0668387583324,65.34053347114349L211.70805447101594,65.60044561736314L211.81492375646317,65.27477947228977L212.0286623273577,63.96841076487712L212.4561394691467,64.64339613977945L212.563008754594,65.32560282967209L212.66987804004125,65.31759707727537L212.88361661093575,64.53188535000022L212.990485896383,44.09344931752509L213.0973551818303,52.67595031546566L213.52483232361928,57.81214967524485L213.95230946540832,42.96128819095423L214.16604803630284,52.35837269010858L214.2729173217501,57.667136091342265L215.12787160532815,59.40035012694108L215.2347408907754,61.63117715681545L215.55534874711716,62.807143771130455L215.87595660345895,63.6976957909433L216.303433745248,64.40780694782762L216.51717231614248,64.93855982184849L216.94464945793152,64.92659791171559L217.4789958851678,63.93945198340492L217.58586517061505,64.49269630910929L218.01334231240406,64.95832035633266L218.12021159785135,64.0021691620871L218.4408194541931,64.77285706471208L218.54768873964036,65.18448078967235L218.65455802508765,65.24794543107839L218.9751658814294,65.59315389589699L219.29577373777119,65.3975432464342L219.40264302321842,64.48303903345361L219.61638159411294,64.61807448027336L219.83012016500746,65.22879383873634L219.93698945045472,65.41309348856745L220.04385873590195,65.49044393321572L220.79194373403277,65.42852714525954L221.00568230492726,65.27339983313007L221.11255159037452,65.27666581281802L221.75376730305808,65.61390145238684L221.86063658850534,65.50288668331191L221.96750587395258,65.39461304801524L222.07437515939984,65.41922185324795L222.18124444484712,65.5818107273029L222.39498301574162,65.32405809851825L222.7155908720834,64.88821765046676L223.4636758702142,65.26149804633609L223.57054515566145,65.5594510325394L223.6774144411087,65.88194067559199L224.639238010134,65.91804551522782L224.95984586647577,65.31192047746914L225.06671515192303,65.30332406542644L225.49419229371208,65.88265726957505L225.6010615791593,66.08901975035049L225.7079308646066,66.16816950667275L225.81480015005386,65.86236216578911L226.1354080063956,65.95657844997926L226.2422772918429,65.96297069313503L226.34914657729013,65.98176993288679L226.4560158627374,65.83535514495317L226.88349300452643,65.44578191714236L226.99036228997366,65.77713704693215L227.09723157542092,65.6179974964842L227.4178394317627,65.39201911088612L227.6315780026572,63.98276719006173L227.84531657355174,63.92139193920591L228.05905514444623,64.663951529758L228.1659244298935,65.06849096536001L228.27279371534075,65.52524581331978L228.48653228623527,65.96030818410695L228.5934015716825,66.02253958817619L229.1277479989188,65.88439029851725L229.4483558552606,65.45846448583343L229.66209442615508,65.97528683660904L229.98270228249686,66.1949928990932L230.30331013883864,66.01267656075579L230.4101794242859,66.0765761136135L230.6239179951804,65.75474068855343L230.83765656607494,66.22542894282097L231.47887227875847,66.28091325740985L231.5857415642057,66.27589492061662L231.79948013510025,66.19632035821904L232.01321870599475,66.19467527201833L232.97504227502006,66.37150406922079L233.08191156046732,66.59584325440848L233.18878084591455,66.67233867429132L233.29565013136184,66.60522968561861L234.5780815567289,66.12376355254685L234.79182012762342,66.17310519880655L235.00555869851794,66.2778418277892L235.21929726941244,65.9869013867327L235.64677441120148,66.18960708550796L235.7536436966487,66.48427894533526L235.860512982096,66.35913036357589L235.96738226754326,66.31050457238896L236.0742515529905,66.4055497757399L236.18112083843775,65.22649140159118L236.287990123885,65.78931112749095L236.50172869477953,65.51805391915529L236.6085979802268,65.62602731192665L236.71546726567402,64.74020029997574L236.92920583656857,65.43505118185037L237.46355226380484,65.71679126296175L237.7841601201466,65.95220238645271L237.99789869104114,65.60386167069746L238.10476797648838,65.00290841052652L238.3185065473829,65.71923122941276L238.63911440372468,66.08740828841508L238.95972226006646,66.14959884689544L239.17346083096095,66.40166032812964L239.49406868730273,66.54163188181128L239.81467654364448,66.0314362531301L239.92154582909177,64.9929126179551L240.24215368543352,65.56919355108428L240.45589225632804,65.773320881636L240.5627615417753,65.28010600092226L241.41771582535335,65.92216890893789L241.52458511080061,66.29313836039712L241.7383236816951,66.52906538150954L242.2726701089314,66.67144613526715L242.80701653616768,66.83233875972317L242.91388582161497,66.8075616057751L243.0207551070622,66.84037279018695L243.23449367795672,66.91804204465504L243.34136296340395,66.60626682236278L243.5551015342985,66.41225247025233L243.768840105193,65.48823130998234L244.08944796153477,65.68039136994044L244.19631724698203,65.65506073537941L244.62379438877105,66.22733600526908L245.15814081600735,66.40482250163451L245.37187938690184,66.65973518885411L246.0130950995854,66.74129043683702L246.11996438503266,66.33765232233024L246.22683367047992,66.55387358167155L246.33370295592715,66.86017689163099L246.44057224137444,66.47414330036779L246.7611800977162,66.79716445225138L246.9749186686107,64.95457102744788L247.29552652495246,65.35550922821604L247.40239581039972,65.96869007161452L247.7230036667415,65.60585497456049L247.93674223763603,65.72582894154394L248.15048080853055,66.01104371945489L248.25735009397778,66.54316210454667L248.36421937942504,66.54415348845706L248.79169652121408,65.66657133971408L249.2191736630031,66.39555382229693L249.32604294845035,66.25566614671791L249.4329122338976,66.31287258106113L249.86038937568662,66.39194221679392L249.9672586611339,66.70559200928994L250.18099723202843,66.88904840815891L250.28786651747566,66.85455610284706L250.5016050883702,67.06259791895279L250.60847437381744,66.69761845568091L250.7153436592647,66.82760506972461L250.9290822301592,66.50912510754347L251.03595151560648,66.57556201104549L251.14282080105374,66.38295446332232L251.24969008650098,66.22289186120595L251.57029794284276,66.07433476498402L251.78403651373728,66.63202415050198L251.8909057991845,66.04850958134313L252.53212151186807,66.56177679739284L252.63899079731533,66.64042987463044L252.7458600827626,66.548749320987L253.1733372245516,66.89906231514128L253.38707579544612,66.78985750367612L253.60081436634064,66.86327488024729L254.02829150812968,67.12074572161063L254.77637650626045,67.13911786943595L255.09698436260226,66.63587182634814L255.31072293349675,66.30465129520852L255.52446150439127,66.21987191245286L255.63133078983853,66.45078017254559L255.84506936073302,65.96801136154666L256.05880793162754,66.46857600442046L256.27254650252206,66.39585575468979L256.3794157879693,67.00894174118427L256.4862850734166,67.00242113959358L256.80689292975836,65.80848900198558L256.91376221520557,65.48899525812058L257.2343700715474,65.5788848838479L257.3412393569946,66.4053118655594L257.6618472133364,65.84074713553443L257.98245506967817,66.08820950819181L258.4099322114672,65.87323736286342L259.05114792415077,66.07642537393481L259.15801720959803,66.39206122551138L259.47862506593975,66.26942010071281L259.585494351387,66.73437273241815L259.79923292228153,66.5087523096547L260.01297149317605,66.92287052570458L260.1198407786233,66.98033294896919L260.33357934951783,67.0297912626523L260.4404486349651,66.84475642962154L260.6541872058596,66.9898793891171L260.7610564913069,67.00462089148625L260.8679257767541,67.23164343716954L260.97479506220134,67.12915740874065L261.18853363309586,66.98887630973556L261.4022722039904,66.6431482865745L261.50914148943764,66.76811011355142L261.9366186312267,66.56031712024075L262.04348791667394,66.55980092519968L262.25722648756846,66.16292087554457L262.5778343439102,65.33519506869546L262.79157291480476,66.07034932346077L263.11218077114654,66.62344373765205L263.75339648383004,66.49618029857406L264.3946121965136,66.73918091135286L264.8220893383026,61.31087652603429L265.14269719464437,63.545788847285074L265.67704362188067,64.51877035756955L265.8907821927752,65.3573187083844L266.21139004911697,65.92586809837168L266.8526057618005,66.67117555933245L266.95947504724774,66.7361190737464L267.17321361814226,66.50333611948564L267.49382147448404,66.83607410081426L267.8144293308258,67.08149418939428L267.9212986162731,66.92876258534864L268.02816790172034,67.04115512806844L268.9899914707456,66.91567518399071L269.0968607561929,66.81380509861305L269.20373004164014,66.84198118676711L269.3105993270874,66.86440413929982L269.5243378979819,66.68668313896677L269.73807646887644,66.98065874751794L270.05868432521817,66.64429831563714L270.1655536106654,66.86947897331767L270.59303075245447,66.83316425733166L270.806769323349,66.75430225433946L270.91363860879625,66.6157426249139L271.0205078942435,66.56651143397785L271.12737717969077,65.11463255255951L271.98233146326885,64.7056384491122L272.94415503229413,65.83107717773838L273.15789360318865,65.55462658600698L273.47850145953043,66.18190028940228L274.0128478867667,66.20964650261973L274.33345574310846,66.32918542181213L274.4403250285557,66.36068949126354L274.7609328848975,66.41700166758012L274.86780217034476,66.50467595712595L275.18841002668654,66.79916627633702L275.5090178830283,67.06109358573813L275.7227564539228,66.63640898828196L275.93649502481736,66.9206173669886L276.25710288115914,66.5812366831783L276.57771073750087,66.36102244223922L276.6845800229481,66.67685723175242L276.7914493083954,66.62247038778263L277.0051878792899,66.75364032496432L277.860142162868,66.605450974207L278.07388073376245,66.59946651701716L278.28761930465697,66.6361053042869L278.5013578755515,65.93871889015722L279.0357043027878,66.08089015365178L279.57005073002404,66.29691490968294L279.9975278718131,66.59847881574359L280.4250050136021,66.89246072488768L280.5318742990494,66.70167799043942L280.63874358449664,66.42305680936623L281.0662207262857,66.51515985890964L281.17309001173294,65.65859800399116L281.27995929718014,66.06395294992092L281.38682858262746,66.11180057671116L281.7074364389692,66.75678745079549L282.2417828662055,66.47529391421917L282.56239072254726,66.76211113396285L282.7761292934418,66.84928730621633L283.20360643523077,65.51728013488177L283.310475720678,66.30668148625212L283.41734500612534,66.46391568154186L283.52421429157255,66.26085135316202L283.73795286246707,65.61888680738979L283.9516914333616,65.94523274995531L284.27229928970337,66.28715374711186L284.59290714604515,66.73578348912503L284.6997764314924,67.10914871776127L284.91351500238693,66.84411319328723L285.1272535732814,66.84357342657226L285.8753385714122,66.48577537564417L286.195946427754,66.59588429844973L286.30281571320126,66.6507148556331L286.5165542840958,66.44575853423366L286.7302928549903,66.85712129954389L286.9440314258848,66.70313733910605L287.0509007113321,67.02305822599733L287.26463928222654,65.91787528956954L287.5852471385683,66.05803481500713L287.79898570946284,66.37457307470841L288.1195935658046,66.69204880468499L288.33333213669914,66.83741182531774L288.4402014221464,67.10826817184952" fill="none"></path></g><g><path style="fill: none;" stroke="rgb(0, 119, 187)" stroke-width="2px" d="M288.54707070759366,65.26084945989986Z" fill="none"></path></g></g></g></g><g opacity="0.2"><g><g><g><path style="fill: none;" stroke="rgb(255, 112, 67)" stroke-width="2px" d="M21.908203516687667,144.0818624697099L22.01507280213492,144.17822646815478L22.44254994392395,146.56016725882643L22.549419229371207,140.1870393506726L22.870027085712977,139.21753341803623L22.976896371160237,136.01699807326509L23.297504227502007,131.913150182628L23.40437351294926,105.35852019606227L23.51124279839652,114.79492217005621L23.938719940185546,124.49122212537496L24.90054350921086,142.91032912485377L25.22115136555263,143.0649846579551L25.64862850734166,144.45914409715198L25.86236707823617,126.46134514752146L26.076105649130685,137.25970110547814L26.182974934577942,144.24576546017647L26.396713505472455,141.7835103803456L26.61045207636697,139.51879948263013L27.037929218156,128.30855683231744L27.144798503603255,129.76833812067207L27.251667789050508,142.00560841210546L27.358537074497768,141.05341190430914L27.465406359945025,115.4132686071382L28.106622072628568,140.9619987576517L28.320360643523077,128.19824477124416L28.427229928970338,141.23111768717604L28.534099214417594,141.68463225262508L28.64096849986485,142.3964319817573L28.96157635620662,143.77831979796508L29.068445641653877,141.21640191910876L29.175314927101137,143.23293612820845L29.28218421254839,142.92566096593208L29.816530639784677,144.1845674605919L30.35087706702096,144.82395793377873L30.67148492336273,134.59049957263892L30.77835420880999,143.4468672161973L31.41956992149353,142.39920484049026L32.274524205071586,142.81955325853994L32.59513206141336,142.68792570750497L32.70200134686061,140.90729444329872L33.45008634499141,144.0368011294745L33.77069420133318,142.0014782840883L33.9844327722277,143.3740009422351L34.7325177703585,144.2159840030546L34.83938705580575,143.6106705322008L35.15999491214752,141.6058682194764L35.26686419759478,143.87129698539923L36.01494919572558,144.0622605322195L36.22868776662009,144.64471992113397L36.442426337514604,142.50056104502107L36.54929562296186,144.19763647928545L36.65616490840912,144.79519018715348L37.40424990653992,144.1489285382154L37.938596333776196,143.95342238075955L38.15233490467072,144.25719727279596L38.25920419011798,143.22295489713645L38.36607347556523,144.81532442869127L38.686681331906996,143.74327998273355L39.00728918824878,144.542300168875L39.22102775914328,144.91402123371836L39.32789704459054,142.90512802654206L39.648504900932316,143.01111061067206L40.289720613615856,142.08371607831123L40.396589899063116,142.80810235932114L40.61032846995762,139.51485173767304L40.930936326299395,144.0540299664508L41.14467489719391,141.9101711740937L41.25154418264116,143.0310857972156L41.465282753535675,141.7651416492439L41.679021324430195,143.0006437316843L41.785890609877455,141.89512351127178L42.533975608008255,143.94960930236425L43.3889298915863,143.56095524283387L43.49579917703356,141.7381828880865L43.602668462480814,144.28150193628278L44.03014560426984,144.25151582840164L45.098838458742414,145.24323644190048L45.205707744189674,143.16024481473994L45.41944631508418,144.87691900539483L45.6331848859787,143.28242874058344L45.84692345687321,144.26582123458377L46.16753131321498,144.22797462888718L46.27440059866224,144.33108467982117L46.3812698841095,137.2015675654493L46.70187774045127,142.0062319076829L47.77057059492384,143.42222535612268L47.98430916581835,142.6683174078148L48.62552487850189,142.7847233959008L48.94613273484366,144.11975573153813L49.05300202029092,143.80573133567276L49.15987130573818,139.77176902840574L49.26674059118543,144.3079739891578L49.48047916207995,143.55922154339663L49.90795630386898,142.7524776467348L50.12169487476349,138.81548374689078L50.335433445658,142.96467291455315L50.54917201655252,144.08938577093755L51.0835184437888,144.13508121041667L51.72473415647234,144.58462894430932L52.47281915460314,143.9445004559492L52.5796884400504,144.06583820922333L53.114034867286676,144.73742141324476L53.22090415273394,145.11377628025372L53.54151200907571,143.51436061245397L53.64838129452297,142.86798868538654L53.75525057997022,145.3251858164005L54.18272772175925,144.59982399809257L54.28959700720651,145.23256067068695L54.503335578101016,144.94889032992273L54.823943434442796,145.23324036569568L55.251420576231816,145.43519249188483L55.358289861679076,128.1821229570278L55.465159147126336,145.67469432111466L55.572028432573596,141.962427101902L55.7857670034681,144.988412314892L56.106374859809875,142.74530214576123L56.213244145257136,144.24741114918356L56.32011343070439,144.1288239869432L56.640721287046155,144.33518617793936L56.961329143387935,144.24072235649237L57.602544856071475,144.92144486048295L57.81628342696599,144.5143181539213L58.136891283307754,144.91402547518487L58.243760568755015,145.03808200849392L58.45749913964953,143.38797339329597L58.56436842509678,143.9529176462445L59.098714852333075,143.33286295852434L59.20558413778033,144.07427660685119L59.633061279569354,145.1468650208892L59.84679985046387,144.07619587044837L60.16740770680563,145.44543033168088L60.59488484859467,145.69107062332182L61.02236199038369,144.2312490410353L61.236100561278214,144.8256926935826L61.66357770306723,144.41227907328187L61.77044698851449,142.571648023781L61.87731627396175,145.57642696457202L62.09105484485626,135.59773971210927L62.62540127209255,145.40232854897454L62.7322705575398,145.6194884533465L63.15974769932883,145.2909306724739L63.26661698477609,143.46680104844233L63.373486270223346,144.93261052107874L64.44217912469591,142.2788818580794L64.9765255519322,145.0675708044264L65.72461055006299,144.44030562363395L65.83147983551025,144.6841093602747L66.36582626274654,145.35391963129365L66.4726955481938,145.58914712264487L66.68643411908832,145.34679502791823L66.90017268998282,145.80722636488355L67.32764983177185,145.5513609578461L68.28947340079716,144.95056358846216L68.50321197169167,144.91050399761235L68.61008125713893,145.2435704573884L68.9306891134807,144.57935574106688L69.57190482616424,145.36042498055815L70.4268591097423,145.4338564299332L70.53372839518956,145.01710795658653L70.64059768063682,141.03157047249982L70.85433625153134,143.8916666283285L70.96120553697858,145.86290515616793L71.28181339332035,141.7170243323858L71.38868267876761,144.7856786984978L71.9230291060039,144.42672974969207L72.02989839145116,143.907793744378L73.20546053137097,143.9210928626299L73.52606838771275,143.97946922661663L73.63293767316001,142.0746446418063L73.84667624405452,141.03589782870984L74.06041481494904,141.78695869262077L74.38102267129081,143.5221415827723L75.55658481121063,143.049398328886L75.98406195299967,141.58644018211305L76.09093123844691,138.27097381923585L76.30466980934143,141.59703112399632L76.6252776656832,141.77506562051798L76.83901623657772,140.7337421165148L77.37336266381399,141.84730203670296L77.48023194926127,141.76914347289903L78.1214476619448,141.4420129455081L78.33518623283932,142.6189849108007L78.44205551828657,142.20322469915158L78.54892480373383,142.44245825562444L78.65579408918109,39.82657316250971L78.76266337462835,-749.4731727169454L78.86953266007559,139.23712793296022L79.08327123097011,136.11646894593082L79.29700980186463,128.59618764243828L79.8313562291009,119.13271238769106L79.93822551454817,100.51229690456648L80.04509479999543,-229.587766021521L80.25883337088995,98.83839790369642L80.68631051267896,70.9467219452663L80.90004908357348,69.66327962719468L81.113787654468,90.08252650733333L81.54126479625702,82.2723027944703L81.64813408170427,-168.98783018115864L81.75500336715153,81.77596638310479L82.18248050894056,76.49813994216674L82.60995765072958,-525.4543843636893L82.71682693617684,72.22158801804835L83.03743479251862,-10.496543804549235L83.25117336341312,70.02978474859354L83.35804264886039,67.06117385312655L83.46491193430764,68.70323216488259L83.57178121975491,66.8328896424573L83.67865050520216,63.63637626830723L83.78551979064942,65.3128074246856L83.99925836154392,65.91990549257481L84.10612764699118,64.57739651184148L84.64047407422747,56.32972066721458L84.74734335967472,63.152484319691204L85.06795121601651,63.017783826167495L85.17482050146376,62.99801010928331L85.49542835780552,-264.0188374961526L85.70916692870004,61.55470691833216L86.13664407048907,59.632279187125725L86.35038264138359,47.36112275935238L86.5641212122781,58.8797412325016L86.7778597831726,48.61780142372617L87.09846763951438,50.586350861796284L87.5259447813034,50.680791355177455L87.63281406675067,53.54365400753931L87.84655263764519,53.90394113902993L88.16716049398696,40.351064428589325L88.59463763577598,-55.900679363546274L89.12898406301227,25.50996950878335L89.87706906114306,49.128864206825256L89.9839383465903,49.725613096422414L90.19767691748483,50.693117056864594L90.30454620293207,49.76977524575705L90.41141548837935,50.48673577926912L90.5182847738266,50.23679464058386L90.73202334472111,50.69867337799678L91.05263120106288,-445.4460745987271L91.4801083428519,0.1195075604737252L91.58697762829917,50.47982218885273L92.0144547700882,48.658494053453076L92.33506262642996,49.340810288485955L92.762539768219,51.94771740264695L93.08314762456077,49.51755219808774L93.19001691000803,50.64470495808383L93.29688619545527,51.668298071695524L93.40375548090255,49.36158499146722L93.51062476634979,51.202652912018955L93.72436333724431,48.471123028769405L93.83123262269156,48.354974709774076L93.93810190813882,46.25469380473941L94.15184047903334,51.134187159564135L94.25870976448059,-43.39692091219332L94.36557904992785,51.65922133335744L94.4724483353751,49.47473035217126L94.68618690626963,51.149617614738865L94.89992547716412,50.467335311438084L95.00679476261139,51.508708652672794L95.75487976074218,48.91478890897496L96.07548761708395,51.48793394969153L96.18235690253123,50.71250055882956L96.28922618797847,51.73194551819143L96.50296475887299,48.91903885842112L96.82357261521476,52.37326373790847L97.03731118610928,51.561082281176816L97.25104975700378,51.16264739986718L97.67852689879281,52.283395545428455L98.10600404058184,51.17919760220139L98.4266118969236,50.95456953566646L98.53348118237086,51.86533115709608L98.64035046781812,51.53262204087377L98.74721975326538,52.11572189123171L98.85408903871263,51.57319590953829L99.38843546594892,52.29184454672258L100.02965117863246,52.35563620307993L100.24338974952698,52.24122688535498L100.35025903497423,51.32817487200828L100.45712832042149,50.55022205003752L100.77773617676327,52.60791863128042L101.09834403310504,52.91412706472875L101.20521331855228,52.611676570611046L101.52582117489406,52.65801035080039L101.63269046034131,52.974593411339804L101.73955974578858,53.82489716909141L101.95329831668307,51.80237931110832L102.1670368875776,52.0460600452202L102.80825260026114,52.11857215672854L103.12886045660291,52.833428922850096L103.23572974205017,53.83747735876931L103.55633759839195,53.66105780062252L103.6632068838392,53.85588532343626L103.77007616928647,53.509272679983944L103.98381474018096,52.872628556364354L104.09068402562824,53.85803998842494L104.73189973831177,53.421627015956794L105.1593768801008,52.857079340127264L105.26624616554805,53.555691289503564L105.47998473644256,53.8161342992753L105.69372330733708,53.77280347737724L105.90746187823159,53.33023189553206L106.01433116367885,53.77942864807074L106.1212004491261,54.519539105811425L106.22806973457335,53.89204806692714L106.33493902002063,54.628188512011555L106.6555468763624,52.055026505428934L106.86928544725691,54.71282273481439L107.08302401815142,54.3817338588001L107.40363187449319,54.37274194979228L107.6173704453877,53.89402459032226L107.72423973083495,-438.81371037802455L107.83110901628223,53.655968040806776L108.25858615807124,54.59506265854407L108.47232472896576,51.694086188095305L108.57919401441302,54.83796296281753L108.79293258530753,54.880335213283615L109.1135404416493,55.466047807013645L109.54101758343832,54.039600203985636L109.8616254397801,54.790322810942136L110.18223329612186,54.81520325350811L110.28910258156913,55.237992635536095L110.50284115246363,55.572186265038006L110.71657972335815,55.14288199044586L110.93031829425267,51.013848271653835L111.46466472148896,55.13589205363224L111.78527257783072,54.44310787924497L111.89214186327798,55.10902660473811L111.99901114872523,53.64063938082836L112.319619005067,55.51454473512468L113.17457328864506,56.03701706314404L113.28144257409231,55.47302926089423L113.38831185953958,53.410709481152026L113.60205043043408,56.310413511646864L114.02952757222312,56.44669183071347L114.24326614311764,56.187538226761724L114.35013542856488,55.456869273479235L114.77761257035391,56.22230128630327L114.99135114124843,56.15927309391828L115.09822042669568,56.41074116054824L115.41882828303747,54.96132177488516L115.63256685393198,56.53093583859708L115.84630542482648,56.53672119892099L116.16691328116826,56.65051126253502L116.38065185206277,50.2758500642367L116.48752113751003,56.352938454907424L116.70125970840455,56.109045647469884L116.8081289938518,56.04014726543074L117.12873685019356,57.04533241437549L117.44934470653534,55.4832342293248L117.55621399198259,55.93847931311121L118.3042989901134,57.375988660805426L118.41116827556066,-355.49783716266575L118.51803756100792,57.36073634722424L118.62490684645516,56.97788461388381L118.83864541734968,-138.31300145054774L118.94551470279694,55.466997895512584L119.15925327369145,56.29938569871275L119.26612255913871,55.95535186690039L119.37299184458595,53.530293388022976L119.69359970092773,55.154054013241414L119.800468986375,54.52487487068492L119.90733827182224,42.46579176856766L120.0142075572695,36.38750728434025L120.22794612816402,35.818633312667316L120.86916184084755,53.67133911545033L120.97603112629483,53.55057608088874L121.2966389826366,53.64435490549386L122.04472398076739,53.4291937922162L122.36533183710915,53.80804158116825L123.11341683523996,52.37887095663883L123.22028612068722,53.45431175690692L123.32715540613447,51.46066980294517L123.54089397702899,53.48307738279892L123.64776326247623,40.69547150945482L123.7546325479235,52.317836253515004L124.07524040426527,52.1069590214156L124.18210968971252,53.67454566413425L124.39584826060704,-842.402957521339L124.60958683150155,51.64574195277873L124.7164561169488,53.98188232767506L125.14393325873783,53.942283996308554L125.2508025441851,53.3128927804264L125.67827968597412,50.85712608399398L125.78514897142138,54.38536455413533L125.89201825686864,54.61490423889245L125.9988875423159,48.92205878257847L126.31949539865766,54.59813348029957L126.42636468410491,55.13075139621833L126.53323396955219,54.67007723529513L126.85384182589395,54.84632713478141L126.9607111113412,54.200996487742934L127.81566539491926,50.43878175887176L128.2431425367083,54.94332947393651L128.45688110760278,53.98368070947662L128.6706196784973,33.16938787977232L128.7774889639446,54.39061548967857L129.09809682028634,55.202839361075355L129.2049661057336,53.86506385697067L129.41870467662812,53.5763896460876L129.52557396207538,54.224477246359584L129.63244324752262,53.660396131846475L129.73931253296988,49.40422869579016L130.05992038931166,55.12107236963538L130.9148746728897,55.067782584364515L131.12861324378423,54.39210848589119L131.34235181467875,53.85250911609183L131.55609038557327,53.52853742088655L131.6629596710205,55.69943026043166L131.76982895646776,54.1109586366024L131.98356752736228,53.6765985339266L132.1973060982568,55.71436870549086L132.30417538370403,54.8302265278976L132.4110446691513,-533.0809483350677L132.73165252549308,55.54142714988483L132.9453910963876,55.23672019558216L133.6934760945184,54.928348614212155L133.80034537996565,55.842656101646746L134.12095323630743,55.654258642066914L134.33469180720195,54.389360015590675L134.97590751988548,56.18378028743109L135.0827768053327,53.297021212734315L135.29651537622723,56.18684262625357L135.51025394712175,55.506401119419486L135.9377310889108,55.95488530558395L136.3652082306998,56.44684452350794L136.57894680159433,52.19108426823687L136.79268537248885,56.19399373879468L137.11329322883063,55.89379122192895L137.22016251427786,56.51360520642448L137.32703179972512,56.54488178049224L137.43390108517238,56.62500308292511L138.0751167978559,56.7675502894981L138.18198608330317,56.21456485138332L138.8232017959867,57.01941705398031L139.03694036688123,57.459197750859865L139.25067893777575,56.26180630540649L139.357548223223,56.882332856276214L139.46441750867027,56.729283778616725L140.42624107769558,57.561807308745294L140.63997964859007,56.00496854217091L140.96058750493185,57.88468470559018L141.3880646467209,56.92460331154599L141.60180321761538,53.604510569069596L141.70867250306267,57.33128360375712L142.13614964485168,56.822256724584356L142.24301893029894,56.706795523164146L142.45675750119347,56.56091452391184L142.5636267866407,56.97259974660846L142.67049607208799,57.10750383052481L142.99110392842974,57.18530929224152L143.097973213877,54.67560810762826L144.16666606834957,58.09968464314033L144.38040463924406,57.51698349063464L144.48727392469135,57.0771434132239L144.8078817810331,57.462675753400625L144.91475106648036,58.26198860073145L145.02162035192762,58.69519502451567L145.3422282082694,58.234453000128276L145.44909749371666,55.603853054024974L145.5559667791639,58.054640268770974L147.15900606087274,58.387544492452896L147.47961391721455,58.62692437952045L147.69335248810904,57.78066698082238L147.8002217735563,58.83349228164253L148.01396034445082,57.40538202374136L148.12082962989808,58.21098920737768L148.44143748623983,58.22574102791031L148.76204534258162,57.274091669294194L148.86891462802888,58.84116085309824L148.9757839134761,57.98067757571516L149.0826531989234,57.31702379334002L149.2963917698179,58.51361784308892L149.5101303407124,58.17054258270854L149.72386891160693,58.55646513780449L149.93760748250145,57.79583446507331L150.0444767679487,58.407691458390225L150.2582153388432,58.8570493866564L150.47195390973772,58.23309573084408L150.68569248063224,58.48119607306263L150.79256176607947,59.26449314283992L150.89943105152676,58.78823583394752L151.00630033697402,58.58055666759902L151.11316962242125,58.9849889825582L152.18186247689383,58.72015181347887L152.60933961868287,59.12449929910782L153.0368167604719,57.88933335288856L153.14368604591914,58.53189856376048L153.2505553313664,58.663121054743435L153.46429390226092,57.73083823222624L153.78490175860267,59.01025115711036L154.10550961494445,59.12277726370348L154.31924818583897,59.08616492476221L154.5329867567335,60.194672197966604L154.63985604218075,58.670153406222205L154.85359461307524,59.16675278851152L155.28107175486429,59.668051715697395L155.38794104031152,60.1804123875495L155.4948103257588,59.891263132416945L155.7085488966533,57.59256642389847L155.81541818210056,60.47344682600805L156.13602603844234,58.49860305163247L156.2428953238896,59.726838441569264L156.34976460933683,59.02696253517206L156.45663389478412,58.13992767741684L156.67037246567864,60.26877061795084L157.2047188929149,59.19484826269446L157.5253267492567,59.53101841559146L158.05967317649296,58.975937693019205L158.27341174738748,57.94278431388694L158.7008888891765,60.52035744564318L158.91462746007102,59.77908482607791L159.34210460186003,60.62127041692339L159.4489738873073,50.32224322495722L159.55584317275458,59.404978996687525L159.6627124582018,59.71206965517059L159.87645102909633,60.15911174272059L160.1970588854381,61.110990140528436L160.30392817088534,60.49325447462433L160.5176667417799,60.88590399561007L160.62453602722712,59.62646837800275L160.73140531267438,60.11344811424032L161.37262102535792,60.379142059555306L161.58635959625246,60.47700965787907L161.6932288816997,38.23290998366837L161.9069674525942,60.55009012590016L162.01383673804148,60.03628735543362L162.33444459438323,60.852608483482065L162.4413138798305,60.321475080842895L162.97566030706676,59.73954587524258L163.08252959251405,60.18685941664945L163.1893988779613,60.101894359458576L163.51000673430306,60.4090698472719L163.72374530519758,56.42928485214362L163.83061459064484,61.047546284425145L163.93748387609207,60.30459404412067L164.04435316153936,58.81617013240294L164.15122244698662,61.339757878380176L164.25809173243385,61.418284389404114L164.8993074451174,61.03375303532449L165.4336538723537,61.428684465294275L165.54052315780098,60.19321313348609L165.6473924432482,60.90930840782949L166.1817388704845,61.06838036793761L166.60921601227352,61.52094484488771L166.82295458316804,61.90959042148506L166.92982386861527,59.5144512473912L167.3573010104043,62.09870893037213L167.78477815219335,57.009441124741436L168.53286315032412,60.808556612276796L168.74660172121867,61.04675737165372L169.06720957756042,60.52357247726014L169.28094814845494,60.445266522494876L169.3878174339022,61.86256952372059L169.70842529024398,61.24843910435266L169.8152945756912,62.542917718291385L170.02903314658573,62.056557236164736L170.13590243203302,61.87831384741731L170.45651028837474,62.48323180151875L172.27328814097814,61.77196331606729L172.3801574264254,60.37177887368852L172.48702671187263,61.6561203826609L172.5938959973199,61.27277663920495L173.02137313910893,61.9138064391991L173.3419809954507,61.78450109108007L173.44885028089794,60.372024878746295L173.76945813723972,61.72404322740203L173.87632742268698,61.9492650992488L173.98319670813424,61.40885136787893L174.41067384992326,62.05287564323135L174.51754313537052,61.32753397188935L174.62441242081778,62.59126195360796L174.8381509917123,62.370366377604576L175.0518895626068,62.553657111502616L175.26562813350134,62.2993302964428L175.47936670439583,61.880935073722405L176.12058241707936,60.73681644767384L176.3343209879739,62.93773038719883L176.86866741521018,61.43743885217737L176.97553670065744,61.04023399615652L177.93736026968276,61.56917880207494L178.04422955513,62.14489850070003L179.21979169504985,60.942468193029065L179.64726883683883,61.85487550346579L179.75413812228612,60.3078005928046L180.07474597862787,61.34098790366898L180.18161526407513,62.29782881729715L180.50222312041691,61.44286792931417L180.71596169131143,61.42311966122907L180.8228309767587,61.158044970025L180.92970026220596,62.03119326641627L181.67778526033672,60.58849236370997L181.784654545784,61.59055579330107L181.89152383123127,62.43216454470076L181.9983931166785,61.687363024996564L182.31900097302028,60.26884696434809L182.5327395439148,61.574090420297125L182.63960882936203,62.27646879193707L182.74647811480932,62.2096656943554L182.85334740025658,62.204677729735984L183.38769382749285,62.52332214300076L183.60143239838735,62.343585758040724L184.13577882562365,62.724503382651164L184.24264811107093,62.72177187821672L184.56325596741266,62.69824870493494L185.31134096554348,62.4307224460863L185.525079536438,62.37555793261663L186.59377239091054,61.83330340478005L186.8075109618051,62.491265139094594L186.91438024725232,62.97156880704051L187.12811881814685,62.20796910775015L187.23498810359408,61.56828809410718L187.44872667448863,62.46350898223273L187.55559595993586,62.60833809778979L188.1968116726194,63.46777797441064L188.30368095806668,62.872589944490294L188.9448966707502,63.45106659634894L189.05176595619747,63.081940248644976L190.01358952522278,63.29102758187582L190.44106666701182,13.111509705085147L190.65480523790632,63.14210969260011L191.08228237969536,62.632785910771425L191.7234980923789,63.03962737871007L192.04410594872067,62.82112398982008L192.25784451961516,63.81138765957167L192.57845237595694,63.49098727917045L192.79219094685143,62.69396482375669L192.89906023229872,63.130267518095486L193.32653737408774,51.6095622434218L193.43340665953502,64.03203723051729L193.64714523042952,63.883509556160796L193.75401451587675,61.66514622340082L193.9677530867713,62.76088668240072L194.28836094311305,64.22306439933529L194.39523022856034,63.30437971845914L194.50209951400757,63.68464415722656L194.9295766557966,62.04368014383089L195.1433152266911,63.89969499237487L195.25018451213836,63.96935683838638L195.35705379758562,64.0385690889475L195.57079236848014,63.151542714125306L195.78453093937463,62.994523623809535L195.99826951026918,64.38279802821945L196.31887736661093,62.07550810854536L196.63948522295271,63.88419667373591L196.74635450839995,64.81398551394342L196.8532237938472,64.49871730802307L197.173831650189,63.74211602847936L197.3875702210835,64.18621453826927L197.49443950653077,63.69983709027657L197.81504736287252,64.0145199738181L197.9219166483198,64.60807079766437L198.24252450466156,62.15863236926953L198.67000164645057,63.50206598970271L198.77687093189783,63.96848309628467L198.8837402173451,64.65762809240367L199.6318252154759,64.28133366629254L199.8455637863704,64.32651376759033L199.9524330718177,61.02949460294531L200.05930235726493,62.56152079041794L200.37991021360668,63.76261927760378L200.48677949905397,64.04345525837061L200.70051806994846,65.09530502189271L201.1279952117375,64.90324293524554L201.23486449718476,65.30163540189005L201.341733782632,60.96380276959007L201.66234163897377,65.07016160840294L202.0898187807628,63.90129826671682L202.19668806621007,65.42405260839178L202.41042663710456,64.18165920323418L202.51729592255185,65.33339550314032L202.62416520799908,64.59454051948751L202.73103449344634,65.13150169711572L202.9447730643409,63.31303231014591L203.26538092068262,63.945129581663416L203.37225020612988,65.26837382149417L203.47911949157717,62.49974807212084L203.58598877702443,63.08050663296353L204.01346591881344,64.40090909023048L204.1203352042607,65.5085850359983L204.65468163149697,65.57974836115545L204.8684202023915,64.90830724626221L204.97528948783875,65.160038283816L205.082158773286,65.62472487206058L205.50963591507505,64.96906201259617L205.8302437714168,65.37028777887144L206.04398234231132,65.23694455463193L206.36459019865308,64.6927644009984L206.47145948410034,65.60186336755486L206.5783287695476,64.1666019971126L206.68519805499486,65.0537556159302L206.79206734044212,65.88917182622072L207.00580591133664,64.74622384492977L207.21954448223113,64.25930348922338L207.54015233857294,64.49626574037848L207.64702162402017,63.65285860717723L207.86076019491466,65.46454164772605L207.96762948036192,64.22230941829594L208.0744987658092,64.36094599274384L208.39510662215096,65.47219325331571L208.60884519304548,64.9427564372818L208.71571447849274,65.88547326742128L208.82258376394,64.98644354236696L208.92945304938723,65.33488001641992L209.67753804751806,64.78161464151526L209.78440733296532,65.37491946030379L210.1050151893071,65.02275897865229L210.63936161654337,65.9478397910302L211.0668387583324,65.17588440270902L211.70805447101594,65.99031383669264L211.81492375646317,64.7862802546797L212.0286623273577,62.00885770375816L212.4561394691467,65.65587420213298L212.563008754594,66.34891286451101L212.66987804004125,65.30558844868028L212.88361661093575,63.353317759087524L212.990485896383,13.435795268812395L213.0973551818303,65.5497018123765L213.52483232361928,65.51644871491362L213.95230946540832,20.684995964518293L214.16604803630284,66.45399943884013L214.2729173217501,65.63028119319277L215.12787160532815,62.0001711803393L215.2347408907754,64.97741770162702L215.55534874711716,64.57109369260297L215.87595660345895,65.03352382066261L216.303433745248,65.47297368315412L216.51717231614248,65.7346891328798L216.94464945793152,64.9086550465163L217.4789958851678,62.45873309093895L217.58586517061505,65.32256279766578L218.01334231240406,65.65675642716769L218.12021159785135,62.567942370718804L218.4408194541931,65.92888891864959L218.54768873964036,65.80191637711278L218.65455802508765,65.34314239318746L218.9751658814294,66.11096659312487L219.29577373777119,65.10412727224L219.40264302321842,63.111282713982746L219.61638159411294,64.82062765050294L219.83012016500746,66.1448728764308L219.93698945045472,65.68954296331412L220.04385873590195,65.60646960018812L220.79194373403277,65.33565196332529L221.00568230492726,65.04070886493582L221.11255159037452,65.28156478234997L221.75376730305808,66.11975491174007L221.86063658850534,65.33636452969951L221.96750587395258,65.23220259507025L222.07437515939984,65.45613506109703L222.18124444484712,65.82569403838534L222.39498301574162,64.9374291553413L222.7155908720834,64.2344569783895L223.4636758702142,65.82141864014012L223.57054515566145,66.00638051184433L223.6774144411087,66.36567514017088L224.639238010134,65.9722027746816L224.95984586647577,64.40273292083113L225.06671515192303,65.2904294473624L225.49419229371208,66.75165707579801L225.6010615791593,66.39856347151363L225.7079308646066,66.28689414115615L225.81480015005386,65.40365115446366L226.1354080063956,66.09790287626446L226.2422772918429,65.9725590578687L226.34914657729013,66.00996879251443L226.4560158627374,65.61573296305276L226.88349300452643,64.86142207542616L226.99036228997366,66.27416974161679L227.09723157542092,65.3792881708123L227.4178394317627,65.05305153248901L227.6315780026572,61.86888930882514L227.84531657355174,63.82932906292218L228.05905514444623,65.77779091558614L228.1659244298935,65.67530011876308L228.27279371534075,66.21037808525944L228.48653228623527,66.61290174028771L228.5934015716825,66.11588669428009L229.1277479989188,65.67716636402885L229.4483558552606,64.8195757668077L229.66209442615508,66.75052036277248L229.98270228249686,66.52455199281938L230.30331013883864,65.73920205324974L230.4101794242859,66.1724254429L230.6239179951804,65.27198755096333L230.83765656607494,66.93146132422225L231.47887227875847,66.36413972929311L231.5857415642057,66.26836741542682L231.79948013510025,66.07695851462267L232.01321870599475,66.19220764271724L232.97504227502006,66.6367472650245L233.08191156046732,66.93235203219001L233.18878084591455,66.78708180411559L233.29565013136184,66.50456620260957L234.5780815567289,65.4015643529392L234.79182012762342,66.24711766819608L235.00555869851794,66.4349467712632L235.21929726941244,65.55049072514794L235.64677441120148,66.49366563367084L235.7536436966487,66.92628673507625L235.860512982096,66.17140749093686L235.96738226754326,66.23756588560855L236.0742515529905,66.5481175807663L236.18112083843775,63.4579038403681L236.287990123885,66.63354071634058L236.50172869477953,65.11116810665179L236.6085979802268,65.78798740108368L236.71546726567402,63.41145978204941L236.92920583656857,66.4773275046623L237.46355226380484,66.13940138462887L237.7841601201466,66.30531907168915L237.99789869104114,65.08135059706454L238.10476797648838,64.10147852027012L238.3185065473829,66.7937154577421L238.63911440372468,66.63967387691855L238.95972226006646,66.242884684616L239.17346083096095,66.77975254998091L239.49406868730273,66.75158921233378L239.81467654364448,65.26614281010825L239.92154582909177,63.43512716519263L240.24215368543352,66.43361495077805L240.45589225632804,66.07951187746359L240.5627615417753,64.54028367985167L241.41771582535335,66.88526327096135L241.52458511080061,66.84959253758599L241.7383236816951,66.88295591317818L242.2726701089314,66.88501726590357L242.80701653616768,67.07367769640723L242.91388582161497,66.77039587485297L243.0207551070622,66.88958956680473L243.23449367795672,67.03454592635715L243.34136296340395,66.13860398892439L243.5551015342985,66.12123094208663L243.768840105193,64.10219956957735L244.08944796153477,65.96863145987754L244.19631724698203,65.61706478353791L244.62379438877105,67.08574891010358L245.15814081600735,66.67105224618261L245.37187938690184,67.04210421968355L246.0130950995854,66.86362330881138L246.11996438503266,65.73219515057008L246.22683367047992,66.87820547068348L246.33370295592715,67.31963185657015L246.44057224137444,65.89509291347305L246.7611800977162,67.28169618007676L246.9749186686107,62.19068089024268L247.29552652495246,65.95691652936829L247.40239581039972,66.88846133671223L247.7230036667415,65.06160232897948L247.93674223763603,65.90578989201913L248.15048080853055,66.43886588632131L248.25735009397778,67.3413396821843L248.36421937942504,66.54564056432264L248.79169652121408,64.35019811659959L249.2191736630031,67.4890275461712L249.32604294845035,66.0458346333494L249.4329122338976,66.39868223257601L249.86038937568662,66.51054667039307L249.9672586611339,67.17606669803399L250.18099723202843,67.16423300646238L250.28786651747566,66.80281764487927L250.5016050883702,67.37466064311138L250.60847437381744,66.1501492607731L250.7153436592647,67.02258499079015L250.9290822301592,66.03140516427175L251.03595151560648,66.67521736629851L251.14282080105374,66.09404314173752L251.24969008650098,65.98279795803137L251.57029794284276,65.85149912065117L251.78403651373728,67.46855822877887L251.8909057991845,65.17323772760484L252.53212151186807,67.33167762146742L252.63899079731533,66.75840949048688L252.7458600827626,66.41122849052181L253.1733372245516,67.42453180637267L253.38707579544612,66.62605028647839L253.60081436634064,66.97340094510402L254.02829150812968,67.50695198365565L254.77637650626045,67.16667609117394L255.09698436260226,65.88100276171645L255.31072293349675,65.80782049849904L255.52446150439127,66.0927028383194L255.63133078983853,66.79714256268471L255.84506936073302,65.24385814504832L256.05880793162754,67.21942296873112L256.27254650252206,66.28677538009377L256.3794157879693,67.92857072092602L256.4862850734166,66.99264023720751L256.80689292975836,64.01759079557358L256.91376221520557,65.00975464232305L257.2343700715474,65.71371932243892L257.3412393569946,67.6449523381266L257.6618472133364,64.99390004049701L257.98245506967817,66.45940306717783L258.4099322114672,65.55077914487083L259.05114792415077,66.38120739054195L259.15801720959803,66.86551500287624L259.47862506593975,66.08545841351497L259.585494351387,67.43180167997615L259.79923292228153,66.17032167550953L260.01297149317605,67.54404784977943L260.1198407786233,67.06652658386609L260.33357934951783,67.10397873317696L260.4404486349651,66.56720418007535L260.6541872058596,67.20756382836043L260.7610564913069,67.02673314504L260.8679257767541,67.57217725569444L260.97479506220134,66.97542836609728L261.18853363309586,66.7784546612279L261.4022722039904,66.12455625183294L261.50914148943764,66.95555285401679L261.9366186312267,66.24862763027477L262.04348791667394,66.55902663263805L262.25722648756846,65.56760080106187L262.5778343439102,64.09360635842177L262.79157291480476,67.17308070560875L263.11218077114654,67.453085358939L263.75339648383004,66.30528513995706L264.3946121965136,67.10368183052104L264.8220893383026,53.16841994805646L265.14269719464437,66.89815732916124L265.67704362188067,65.97824262299628L265.8907821927752,66.61514123460665L266.21139004911697,66.77869218335263L266.8526057618005,67.78913675077365L266.95947504724774,66.8335343453673L267.17321361814226,66.15416168809453L267.49382147448404,67.33518107280723L267.8144293308258,67.4496243222643L267.9212986162731,66.69966517928015L268.02816790172034,67.20974394214818L268.9899914707456,66.72745526787412L269.0968607561929,66.66099997054651L269.20373004164014,66.8842453189982L269.3105993270874,66.89803856809885L269.5243378979819,66.42010163846727L269.73807646887644,67.42162216034465L270.05868432521817,66.13975766781596L270.1655536106654,67.20724995983846L270.59303075245447,66.77869218335263L270.806769323349,66.63600924985121L270.91363860879625,66.40790318077552L271.0205078942435,66.49266464757375L271.12737717969077,62.936814230432L271.98233146326885,64.09214729394125L272.94415503229413,67.51923527067767L273.15789360318865,65.13995069840985L273.47850145953043,67.12281084449522L274.0128478867667,66.25126582244593L274.33345574310846,66.50849380060073L274.4403250285557,66.40794559544065L274.7609328848975,66.50146993205499L274.86780217034476,66.63618739144475L275.18841002668654,67.24090175515357L275.5090178830283,67.45398454983977L275.7227564539228,65.99938209209768L275.93649502481736,67.34692993504858L276.25710288115914,66.07216565746285L276.57771073750087,66.03070108083057L276.6845800229481,67.15060941602225L276.7914493083954,66.54089012182794L277.0051878792899,66.95039523073682L277.860142162868,66.383166948071L278.07388073376245,66.59048983123239L278.28761930465697,66.69106348519153L278.5013578755515,64.89263926896274L279.0357043027878,66.29414704889359L279.57005073002404,66.62095204372963L279.9975278718131,67.05082467483453L280.4250050136021,67.33343358860384L280.5318742990494,66.41550388876702L280.63874358449664,66.00512503775644L281.0662207262857,66.65331443322475L281.17309001173294,64.37375522161346L281.27995929718014,66.6719853688155L281.38682858262746,66.1835720168965L281.7074364389692,67.72426776192198L282.2417828662055,66.05305360935472L282.56239072254726,67.19233696357833L282.7761292934418,66.98005156459658L283.20360643523077,63.51926937787994L283.310475720678,67.49078351330763L283.41734500612534,66.69976697447645L283.52421429157255,65.95625486059227L283.73795286246707,64.65593998873146L283.9516914333616,66.43475166380358L284.27229928970337,66.80003524284665L284.59290714604515,67.40872810214476L284.6997764314924,67.66919656071558L284.91351500238693,66.44655990657611L285.1272535732814,66.84276377649987L285.8753385714122,65.94907829925205L286.195946427754,66.76104768265805L286.30281571320126,66.73296069140815L286.5165542840958,66.13832405213451L286.7302928549903,67.47416544750922L286.9440314258848,66.47216139844932L287.0509007113321,67.50293955633424L287.26463928222654,64.26010088492785L287.5852471385683,66.26827410316355L287.79898570946284,66.84938046426034L288.1195935658046,67.16826239964985L288.33333213669914,67.05545635626684L288.4402014221464,67.51455269164715" fill="none"></path></g><g><path style="fill: none;" stroke="rgb(0, 119, 187)" stroke-width="2px" d="M288.54707070759366,65.26084945989986Z" fill="none"></path></g></g></g></g></g></g><g transform="translate(30, 177)" clip-path="url(#clip_1)"><clipPath id="clip_1"><rect width="299" height="22"></rect></clipPath><g><g><line x1="0" y1="0" x2="0" y2="5" style="visibility: inherit;" fill="rgb(0, 0, 0)" stroke="rgb(204, 204, 204)" stroke-width="1px"></line><line x1="21.37385708945138" y1="0" x2="21.37385708945138" y2="5" style="visibility: inherit;" fill="rgb(0, 0, 0)" stroke="rgb(204, 204, 204)" stroke-width="1px"></line><line x1="42.74771417890276" y1="0" x2="42.74771417890276" y2="5" style="visibility: inherit;" fill="rgb(0, 0, 0)" stroke="rgb(204, 204, 204)" stroke-width="1px"></line><line x1="64.12157126835415" y1="0" x2="64.12157126835415" y2="5" style="visibility: inherit;" fill="rgb(0, 0, 0)" stroke="rgb(204, 204, 204)" stroke-width="1px"></line><line x1="85.49542835780552" y1="0" x2="85.49542835780552" y2="5" style="visibility: inherit;" fill="rgb(0, 0, 0)" stroke="rgb(204, 204, 204)" stroke-width="1px"></line><line x1="106.86928544725691" y1="0" x2="106.86928544725691" y2="5" style="visibility: inherit;" fill="rgb(0, 0, 0)" stroke="rgb(204, 204, 204)" stroke-width="1px"></line><line x1="128.2431425367083" y1="0" x2="128.2431425367083" y2="5" style="visibility: inherit;" fill="rgb(0, 0, 0)" stroke="rgb(204, 204, 204)" stroke-width="1px"></line><line x1="149.61699962615967" y1="0" x2="149.61699962615967" y2="5" style="visibility: inherit;" fill="rgb(0, 0, 0)" stroke="rgb(204, 204, 204)" stroke-width="1px"></line><line x1="170.99085671561105" y1="0" x2="170.99085671561105" y2="5" style="visibility: inherit;" fill="rgb(0, 0, 0)" stroke="rgb(204, 204, 204)" stroke-width="1px"></line><line x1="192.36471380506245" y1="0" x2="192.36471380506245" y2="5" style="visibility: inherit;" fill="rgb(0, 0, 0)" stroke="rgb(204, 204, 204)" stroke-width="1px"></line><line x1="213.73857089451383" y1="0" x2="213.73857089451383" y2="5" style="visibility: inherit;" fill="rgb(0, 0, 0)" stroke="rgb(204, 204, 204)" stroke-width="1px"></line><line x1="235.11242798396518" y1="0" x2="235.11242798396518" y2="5" style="visibility: inherit;" fill="rgb(0, 0, 0)" stroke="rgb(204, 204, 204)" stroke-width="1px"></line><line x1="256.4862850734166" y1="0" x2="256.4862850734166" y2="5" style="visibility: inherit;" fill="rgb(0, 0, 0)" stroke="rgb(204, 204, 204)" stroke-width="1px"></line><line x1="277.860142162868" y1="0" x2="277.860142162868" y2="5" style="visibility: inherit;" fill="rgb(0, 0, 0)" stroke="rgb(204, 204, 204)" stroke-width="1px"></line><line x1="299.23399925231934" y1="0" x2="299.23399925231934" y2="5" style="visibility: inherit;" fill="rgb(0, 0, 0)" stroke="rgb(204, 204, 204)" stroke-width="1px"></line></g><g transform="translate(0, 8)"><text style="text-anchor: middle; visibility: hidden; font-family: Roboto, sans-serif; font-size: 12px; font-weight: 200;" x="0" y="0" dx="0em" dy="0.95em" fill="rgb(50, 49, 63)" stroke="none" stroke-width="1px">-200</text><text style="text-anchor: middle; visibility: inherit; font-family: Roboto, sans-serif; font-size: 12px; font-weight: 200;" x="21.37385708945138" y="0" dx="0em" dy="0.95em" fill="rgb(50, 49, 63)" stroke="none" stroke-width="1px">0</text><text style="text-anchor: middle; visibility: hidden; font-family: Roboto, sans-serif; font-size: 12px; font-weight: 200;" x="42.74771417890276" y="0" dx="0em" dy="0.95em" fill="rgb(50, 49, 63)" stroke="none" stroke-width="1px">200</text><text style="text-anchor: middle; visibility: inherit; font-family: Roboto, sans-serif; font-size: 12px; font-weight: 200;" x="64.12157126835415" y="0" dx="0em" dy="0.95em" fill="rgb(50, 49, 63)" stroke="none" stroke-width="1px">400</text><text style="text-anchor: middle; visibility: hidden; font-family: Roboto, sans-serif; font-size: 12px; font-weight: 200;" x="85.49542835780552" y="0" dx="0em" dy="0.95em" fill="rgb(50, 49, 63)" stroke="none" stroke-width="1px">600</text><text style="text-anchor: middle; visibility: inherit; font-family: Roboto, sans-serif; font-size: 12px; font-weight: 200;" x="106.86928544725691" y="0" dx="0em" dy="0.95em" fill="rgb(50, 49, 63)" stroke="none" stroke-width="1px">800</text><text style="text-anchor: middle; visibility: hidden; font-family: Roboto, sans-serif; font-size: 12px; font-weight: 200;" x="128.2431425367083" y="0" dx="0em" dy="0.95em" fill="rgb(50, 49, 63)" stroke="none" stroke-width="1px">1k</text><text style="text-anchor: middle; visibility: inherit; font-family: Roboto, sans-serif; font-size: 12px; font-weight: 200;" x="149.61699962615967" y="0" dx="0em" dy="0.95em" fill="rgb(50, 49, 63)" stroke="none" stroke-width="1px">1.2k</text><text style="text-anchor: middle; visibility: hidden; font-family: Roboto, sans-serif; font-size: 12px; font-weight: 200;" x="170.99085671561105" y="0" dx="0em" dy="0.95em" fill="rgb(50, 49, 63)" stroke="none" stroke-width="1px">1.4k</text><text style="text-anchor: middle; visibility: inherit; font-family: Roboto, sans-serif; font-size: 12px; font-weight: 200;" x="192.36471380506245" y="0" dx="0em" dy="0.95em" fill="rgb(50, 49, 63)" stroke="none" stroke-width="1px">1.6k</text><text style="text-anchor: middle; visibility: hidden; font-family: Roboto, sans-serif; font-size: 12px; font-weight: 200;" x="213.73857089451383" y="0" dx="0em" dy="0.95em" fill="rgb(50, 49, 63)" stroke="none" stroke-width="1px">1.8k</text><text style="text-anchor: middle; visibility: inherit; font-family: Roboto, sans-serif; font-size: 12px; font-weight: 200;" x="235.11242798396518" y="0" dx="0em" dy="0.95em" fill="rgb(50, 49, 63)" stroke="none" stroke-width="1px">2k</text><text style="text-anchor: middle; visibility: hidden; font-family: Roboto, sans-serif; font-size: 12px; font-weight: 200;" x="256.4862850734166" y="0" dx="0em" dy="0.95em" fill="rgb(50, 49, 63)" stroke="none" stroke-width="1px">2.2k</text><text style="text-anchor: middle; visibility: inherit; font-family: Roboto, sans-serif; font-size: 12px; font-weight: 200;" x="277.860142162868" y="0" dx="0em" dy="0.95em" fill="rgb(50, 49, 63)" stroke="none" stroke-width="1px">2.4k</text><text style="text-anchor: middle; visibility: hidden; font-family: Roboto, sans-serif; font-size: 12px; font-weight: 200;" x="299.23399925231934" y="0" dx="0em" dy="0.95em" fill="rgb(50, 49, 63)" stroke="none" stroke-width="1px">2.6k</text></g><line x1="0" y1="0" x2="299.23399925231934" y2="0" fill="rgb(0, 0, 0)" stroke="rgb(204, 204, 204)" stroke-width="1px"></line></g></g></g></g></svg>