<svg viewBox="0 0 330 200" xmlns="http://www.w3.org/2000/svg"><g><g><g><g><g><line x1="41.149001121520996" y1="177.89999961853027" x2="36.149001121520996" y2="177.89999961853027" style="visibility: inherit;" fill="rgb(0, 0, 0)" stroke="rgb(204, 204, 204)" stroke-width="1px"></line><line x1="41.149001121520996" y1="152.48571395874023" x2="36.149001121520996" y2="152.48571395874023" style="visibility: inherit;" fill="rgb(0, 0, 0)" stroke="rgb(204, 204, 204)" stroke-width="1px"></line><line x1="41.149001121520996" y1="127.0714282989502" x2="36.149001121520996" y2="127.0714282989502" style="visibility: inherit;" fill="rgb(0, 0, 0)" stroke="rgb(204, 204, 204)" stroke-width="1px"></line><line x1="41.149001121520996" y1="101.65714263916016" x2="36.149001121520996" y2="101.65714263916016" style="visibility: inherit;" fill="rgb(0, 0, 0)" stroke="rgb(204, 204, 204)" stroke-width="1px"></line><line x1="41.149001121520996" y1="76.24285697937012" x2="36.149001121520996" y2="76.24285697937012" style="visibility: inherit;" fill="rgb(0, 0, 0)" stroke="rgb(204, 204, 204)" stroke-width="1px"></line><line x1="41.149001121520996" y1="50.82857131958008" x2="36.149001121520996" y2="50.82857131958008" style="visibility: inherit;" fill="rgb(0, 0, 0)" stroke="rgb(204, 204, 204)" stroke-width="1px"></line><line x1="41.149001121520996" y1="25.414285659790046" x2="36.149001121520996" y2="25.414285659790046" style="visibility: inherit;" fill="rgb(0, 0, 0)" stroke="rgb(204, 204, 204)" stroke-width="1px"></line><line x1="41.149001121520996" y1="0" x2="36.149001121520996" y2="0" style="visibility: inherit;" fill="rgb(0, 0, 0)" stroke="rgb(204, 204, 204)" stroke-width="1px"></line></g><g transform="translate(31.149001121520996, 0)"><text style="text-anchor: end; visibility: hidden; font-family: Roboto, sans-serif; font-size: 12px; font-weight: 200;" x="0" y="177.89999961853027" dx="0em" dy="0.3em" fill="rgb(50, 49, 63)" stroke="none" stroke-width="1px">2</text><text style="text-anchor: end; visibility: inherit; font-family: Roboto, sans-serif; font-size: 12px; font-weight: 200;" x="0" y="152.48571395874023" dx="0em" dy="0.3em" fill="rgb(50, 49, 63)" stroke="none" stroke-width="1px">2.5</text><text style="text-anchor: end; visibility: inherit; font-family: Roboto, sans-serif; font-size: 12px; font-weight: 200;" x="0" y="127.0714282989502" dx="0em" dy="0.3em" fill="rgb(50, 49, 63)" stroke="none" stroke-width="1px">3</text><text style="text-anchor: end; visibility: inherit; font-family: Roboto, sans-serif; font-size: 12px; font-weight: 200;" x="0" y="101.65714263916016" dx="0em" dy="0.3em" fill="rgb(50, 49, 63)" stroke="none" stroke-width="1px">3.5</text><text style="text-anchor: end; visibility: inherit; font-family: Roboto, sans-serif; font-size: 12px; font-weight: 200;" x="0" y="76.24285697937012" dx="0em" dy="0.3em" fill="rgb(50, 49, 63)" stroke="none" stroke-width="1px">4</text><text style="text-anchor: end; visibility: inherit; font-family: Roboto, sans-serif; font-size: 12px; font-weight: 200;" x="0" y="50.82857131958008" dx="0em" dy="0.3em" fill="rgb(50, 49, 63)" stroke="none" stroke-width="1px">4.5</text><text style="text-anchor: end; visibility: inherit; font-family: Roboto, sans-serif; font-size: 12px; font-weight: 200;" x="0" y="25.414285659790046" dx="0em" dy="0.3em" fill="rgb(50, 49, 63)" stroke="none" stroke-width="1px">5</text><text style="text-anchor: end; visibility: hidden; font-family: Roboto, sans-serif; font-size: 12px; font-weight: 200;" x="0" y="0" dx="0em" dy="0.3em" fill="rgb(50, 49, 63)" stroke="none" stroke-width="1px">5.5</text></g><line x1="41.149001121520996" y1="0" x2="41.149001121520996" y2="177.89999961853027" fill="rgb(0, 0, 0)" stroke="rgb(204, 204, 204)" stroke-width="1px"></line></g></g><g transform="translate(41, 0)" clip-path="url(#clip_0)"><clipPath id="clip_0"><rect width="288" height="177"></rect></clipPath><g><g><g><line x1="0" y1="0" x2="0" y2="177.89999961853027" fill="rgb(0, 0, 0)" stroke="rgb(60, 60, 60)" stroke-width="1px" opacity="0.25"></line><line x1="20.632214205605642" y1="0" x2="20.632214205605642" y2="177.89999961853027" fill="rgb(0, 0, 0)" stroke="rgb(60, 60, 60)" stroke-width="1px" opacity="0.25"></line><line x1="41.264428411211284" y1="0" x2="41.264428411211284" y2="177.89999961853027" fill="rgb(0, 0, 0)" stroke="rgb(60, 60, 60)" stroke-width="1px" opacity="0.25"></line><line x1="61.896642616816926" y1="0" x2="61.896642616816926" y2="177.89999961853027" fill="rgb(0, 0, 0)" stroke="rgb(60, 60, 60)" stroke-width="1px" opacity="0.25"></line><line x1="82.52885682242257" y1="0" x2="82.52885682242257" y2="177.89999961853027" fill="rgb(0, 0, 0)" stroke="rgb(60, 60, 60)" stroke-width="1px" opacity="0.25"></line><line x1="103.16107102802822" y1="0" x2="103.16107102802822" y2="177.89999961853027" fill="rgb(0, 0, 0)" stroke="rgb(60, 60, 60)" stroke-width="1px" opacity="0.25"></line><line x1="123.79328523363385" y1="0" x2="123.79328523363385" y2="177.89999961853027" fill="rgb(0, 0, 0)" stroke="rgb(60, 60, 60)" stroke-width="1px" opacity="0.25"></line><line x1="144.4254994392395" y1="0" x2="144.4254994392395" y2="177.89999961853027" fill="rgb(0, 0, 0)" stroke="rgb(60, 60, 60)" stroke-width="1px" opacity="0.25"></line><line x1="165.05771364484514" y1="0" x2="165.05771364484514" y2="177.89999961853027" fill="rgb(0, 0, 0)" stroke="rgb(60, 60, 60)" stroke-width="1px" opacity="0.25"></line><line x1="185.6899278504508" y1="0" x2="185.6899278504508" y2="177.89999961853027" fill="rgb(0, 0, 0)" stroke="rgb(60, 60, 60)" stroke-width="1px" opacity="0.25"></line><line x1="206.32214205605644" y1="0" x2="206.32214205605644" y2="177.89999961853027" fill="rgb(0, 0, 0)" stroke="rgb(60, 60, 60)" stroke-width="1px" opacity="0.25"></line><line x1="226.95435626166207" y1="0" x2="226.95435626166207" y2="177.89999961853027" fill="rgb(0, 0, 0)" stroke="rgb(60, 60, 60)" stroke-width="1px" opacity="0.25"></line><line x1="247.5865704672677" y1="0" x2="247.5865704672677" y2="177.89999961853027" fill="rgb(0, 0, 0)" stroke="rgb(60, 60, 60)" stroke-width="1px" opacity="0.25"></line><line x1="268.21878467287337" y1="0" x2="268.21878467287337" y2="177.89999961853027" fill="rgb(0, 0, 0)" stroke="rgb(60, 60, 60)" stroke-width="1px" opacity="0.25"></line><line x1="288.850998878479" y1="0" x2="288.850998878479" y2="177.89999961853027" fill="rgb(0, 0, 0)" stroke="rgb(60, 60, 60)" stroke-width="1px" opacity="0.25"></line></g><g><line x1="0" y1="177.89999961853027" x2="288.850998878479" y2="177.89999961853027" fill="rgb(0, 0, 0)" stroke="rgb(60, 60, 60)" stroke-width="1px" opacity="0.25"></line><line x1="0" y1="152.48571395874023" x2="288.850998878479" y2="152.48571395874023" fill="rgb(0, 0, 0)" stroke="rgb(60, 60, 60)" stroke-width="1px" opacity="0.25"></line><line x1="0" y1="127.0714282989502" x2="288.850998878479" y2="127.0714282989502" fill="rgb(0, 0, 0)" stroke="rgb(60, 60, 60)" stroke-width="1px" opacity="0.25"></line><line x1="0" y1="101.65714263916016" x2="288.850998878479" y2="101.65714263916016" fill="rgb(0, 0, 0)" stroke="rgb(60, 60, 60)" stroke-width="1px" opacity="0.25"></line><line x1="0" y1="76.24285697937012" x2="288.850998878479" y2="76.24285697937012" fill="rgb(0, 0, 0)" stroke="rgb(60, 60, 60)" stroke-width="1px" opacity="0.25"></line><line x1="0" y1="50.82857131958008" x2="288.850998878479" y2="50.82857131958008" fill="rgb(0, 0, 0)" stroke="rgb(60, 60, 60)" stroke-width="1px" opacity="0.25"></line><line x1="0" y1="25.414285659790046" x2="288.850998878479" y2="25.414285659790046" fill="rgb(0, 0, 0)" stroke="rgb(60, 60, 60)" stroke-width="1px" opacity="0.25"></line><line x1="0" y1="0" x2="288.850998878479" y2="0" fill="rgb(0, 0, 0)" stroke="rgb(60, 60, 60)" stroke-width="1px" opacity="0.25"></line></g></g></g><g><g><line x1="0" y1="279.55714225769043" x2="288.850998878479" y2="279.55714225769043" fill="rgb(0, 0, 0)" stroke="rgb(153, 153, 153)" stroke-width="1.5px"></line></g></g><g><g><line x1="20.632214205605642" y1="0" x2="20.632214205605642" y2="177.89999961853027" fill="rgb(0, 0, 0)" stroke="rgb(153, 153, 153)" stroke-width="1.5px"></line></g></g><g><g><g><g><g><path style="fill: none;" stroke="rgb(255, 112, 67)" stroke-width="2px" d="M21.148019560745784,133.61026697119087L21.25118063177381,78.12509863313606L21.663824915885925,21.45435755386013L21.766985986913955,-126.68050979529788L25.274462401866913,-7.3893246886741855L25.48078454392297,28.84915615164961L25.687106685979025,-27.570661168623673L27.13136168037142,-43.54481306184625L27.337683822427476,1.293084561132677L27.440844893455505,29.19960870985226L27.544005964483535,55.44314651313693L27.64716703551156,66.57838243480582L27.956650248595643,55.44095226055938L28.059811319623673,66.58686293243345L28.162972390651703,83.25727493710662L28.26613346167973,84.894635528736L28.781938816819874,89.08094426734147L29.297744171960012,94.53121746704784L29.607227385044098,99.7610067131452L29.710388456072124,107.21712942329056L30.329354882240295,98.15548345362133L31.154643450464523,93.46928880461431L31.464126663548605,100.70417623817652L31.567287734576635,106.21459007351059L32.28941523177283,-96.96564715018522L36.106374859809875,-36.32703614343442L36.62218021495001,6.649631562619522L36.82850235700607,31.174467262125116L36.931663428034106,49.24947299568592L37.03482449906213,58.50326240092577L37.34430771214621,54.889179154106806L37.653790925230304,17.351619844729537L37.86011306728635,47.26423584083294L37.96327413831438,53.037187212254075L38.27275735139847,53.157829282073685L38.89172377756664,60.22151830165515L38.994884848594666,63.058903779962776L39.20120699065072,69.40103893022406L39.51069020373481,72.39400889595865L39.71701234579086,-91.8497014083776L41.05810626915523,-4.135213835248242L41.883394837379456,17.18222320065851L41.98655590840748,24.081273893305465L42.089716979435515,30.22616662410364L42.50236126354762,29.101543870974695L43.53397197382791,39.23754609989014L43.637133044855936,48.27852768972629L43.84345518691199,56.69913347200761L44.04977732896805,49.01901195498929L44.25609947102411,59.551694785583884L44.565582684108186,67.65425219478686L44.66874375513621,67.21538832643539L44.771904826164246,70.57305117049413L45.08138803924833,64.77610849167591L46.112998749528614,59.896523569327115L46.319320891584674,58.627530187259836L46.93828731775284,64.21468367661545L47.24777053083692,68.91622747087047L47.35093160186495,60.171842787202635L47.454092672892976,50.95552894326031L47.55725374392101,64.0987557580963L47.76357588597707,70.59436336094807L48.176220170089174,68.1087861698796L48.38254231214523,54.59660993367932L48.588864454201286,65.80138955562566L48.795186596257345,74.36215020869821L49.31099195139748,75.43656139201038L49.929958377565654,78.03782811253778L50.65208587476185,84.00629106094861L50.75524694578988,77.26384292744918L51.27105230093002,86.06543679827455L51.37421337195805,90.67815613086532L51.683696585042135,93.2102966622209L51.78685765607017,92.47061954265828L51.89001872709819,83.78144599592456L52.302663011210306,76.05714880860582L52.40582408223834,83.72646377438376L52.612146224294385,90.07054414524697L52.92162943737848,7.9310415126077265L53.33427372149058,40.342779044758394L53.437434792518616,65.41162124442045L53.54059586354664,57.09429794620148L53.643756934574675,70.7761435060234L53.85007907663073,83.74096244986987L54.15956228971481,91.5711392055593L54.26272336074284,97.35041688642406L54.36588443177087,98.89416092717748L54.67536764485495,103.52646021647664L54.984850857939044,102.34758205525333L55.60381728410721,106.97885575535253L55.81013942616327,100.6617247508629L56.119622639247346,98.58431513743795L56.22278371027538,103.43871239622236L56.42910585233144,96.82873491138196L56.53226692335946,95.93484503962702L57.0480722784996,99.61331698304203L57.15123334952764,103.62784657051701L57.56387763363975,103.19149038119616L57.7701997756958,106.58623767748057L58.079682988779886,105.02431563253936L58.492327272892005,89.57911228376929L58.90497155700411,94.91870902588357L59.11129369906017,91.47648168370456L59.52393798317228,95.86276000956683L59.62709905420031,99.64989278847798L59.73026012522834,100.24992944466611L59.93658226728439,99.85635675266927L60.45238762242454,101.5483692721655L60.55554869345256,105.33746679910311L60.96819297756468,106.075053935437L61.07135404859271,105.33551677111569L61.174515119620736,105.01576647946362L62.20612582990101,109.32068032256176L62.72193118504115,113.09537407602127L63.444058682237355,106.8172805416626L63.54721975326538,101.60764232455354L64.06302510840553,109.22761722897748L64.16618617943355,111.24178457904611L64.3725083214896,107.51883609317198L64.57883046354566,102.42965357633028L64.99147474765778,89.13103924396421L65.91992438691003,100.90840837749289L66.12624652896609,86.09838292445198L66.22940759999412,85.0704042056453L66.5388908130782,96.97385412904153L67.15785723924637,100.78644558113312L67.98314580747059,106.99696433841142L68.08630687849862,106.100164346501L68.18946794952664,102.80123381602375L68.39579009158271,106.74639470238841L68.49895116261074,100.01922958018937L68.80843437569482,79.92503397899898L68.91159544672284,85.30239335691546L69.42740080186299,94.06413606846259L69.53056187289101,94.27243080158867L70.66533365419933,103.43362179663114L70.97481686728341,104.66212198085543L71.07797793831145,109.48953728015509L71.28430008036749,109.76169175656527L71.49062222242355,115.67415899771474L71.80010543550765,112.26747626919885L72.93487721681595,116.4491105696108L73.34752150092807,110.08121556126581L73.4506825719561,110.93491881843043L73.65700471401215,110.2003289713125L73.96648792709622,114.4306657785156L74.17281006915229,101.93139061977881L74.68861542429242,106.35452487684829L74.79177649532046,113.69720851072265L75.41074292148862,118.17358574204734L75.61706506354469,114.77395467081723L75.7202261345727,112.74914476932776L75.82338720560074,112.34489760320253L75.92654827662876,115.53695800631536L76.0297093476568,114.44170795975579L76.13287041868482,112.190246414526L76.33919256074088,115.65598855446987L76.54551470279694,106.85578623625094L77.06132005793708,95.47654264203696L77.16448112896511,105.40806317298707L77.26764219999313,110.81872110637583L77.4739643420492,114.70596994850486L77.8866086261613,113.36245108833766L78.09293076821736,111.98801234382081L78.29925291027341,102.52603638456996L78.71189719438553,103.55970882086142L78.81505826541355,113.1320387582567L78.91821933644158,113.45141541198156L79.3308636205537,115.66701105559461L79.74350790466582,117.55132192033928L79.84666897569383,110.51345470609131L80.15615218877792,106.3498822339918L80.36247433083398,106.5686573877677L80.46563540186202,92.82674476069258L80.56879647289003,101.08614679679687L80.67195754391807,102.39510599001541L80.7751186149461,109.37647395699854L80.87827968597414,114.0352104477199L81.08460182803017,115.68477649197007L81.18776289905821,119.79821805481083L81.70356825419834,109.99181822086169L81.80672932522637,113.69616480920095L82.11621253831046,114.7870961752103L82.21937360933849,115.22750213872081L82.52885682242257,112.18417741904018L82.73517896447862,109.15037773556494L83.14782324859074,105.04127656285142L83.3541453906468,109.21939209369145L83.56046753270286,114.14138637649914L83.76678967475891,120.10021699692003L84.076272887843,110.91936057594704L84.48891717195511,110.50401425449088L84.59207824298313,115.80618810309039L84.7984003850392,112.59996502824609L85.10788359812328,111.60419619294636L85.5205278822354,110.95765506497183L86.03633323737554,111.75310924012871L86.75846073457174,118.0836249228922L86.86162180559975,117.33693878096884L87.06794394765582,114.77874660793856L87.17110501868383,113.68963609529612L87.27426608971187,85.760297204226L87.3774271607399,89.92590150010733L87.58374930279595,101.42955332028248L87.89323251588003,110.01961056248531L88.30587679999215,100.73045286822519L88.40903787102017,107.76849600266318L88.8216821551323,111.24716021914148L89.13116536821637,114.28170362505755L89.54380965232849,107.86122145448904L89.85329286541257,107.05782916131801L89.95645393644061,115.14218917785675L90.05961500746864,112.56066034658255L90.16277607849666,113.36180149211528L90.26593714952469,117.0058543105563L90.47225929158074,123.58628534533524L90.57542036260877,124.48983994964262L90.67858143363681,120.36662130686925L90.88490357569286,118.72641216858567L90.98806464672089,119.30431458350682L91.09122571774891,119.70940891689943L91.19438678877695,93.78603938852554L91.400708930833,101.50078052073245L91.60703107288904,93.80618724419496L91.71019214391708,101.91980764987876L92.43231964111328,58.051202910174645L92.74180285419736,83.41299301077433L92.8449639252254,95.10452132630486L92.94812499625343,102.47386010484993L93.15444713830948,105.58088505415635L93.46393035139356,108.06845502685037L93.67025249344962,114.33622421177078L93.87657463550568,116.1545703609604L94.28921891961778,113.89806725660937L94.7018632037299,120.04477962319373L95.01134641681398,119.09755793155396L95.11450748784202,123.76599638535629L95.21766855887005,125.19803525195947L95.32082962989807,125.02358652202692L95.4239907009261,125.47837883562394L95.93979605606624,125.99896071553874L96.55876248223441,124.85451878902472L96.76508462429047,118.74155405096268L96.86824569531849,125.16096174916997L96.97140676634652,127.79275090413987L97.28088997943061,126.93066894690331L97.59037319251469,130.9774316362925L97.69353426354272,50.51662749354712L98.00301747662681,75.76044098792434L98.10617854765484,96.39249645091347L98.20933961868286,109.50121834245121L98.41566176073891,113.02443554724435L98.62198390279497,115.02141773172528L99.24095032896315,115.5868771864621L99.55043354204723,119.33224921234334L99.65359461307524,117.17043163205467L99.96307782615935,120.70551057904792L100.06623889718736,121.768086648571L100.1693999682154,120.9370717721718L100.37572211027145,121.25369694710585L100.47888318129948,122.13620900954817L101.09784960746765,124.03704781047496L101.51049389157976,124.09216708140858L101.6136549626078,128.0180129831993L101.81997710466385,126.96144249160346L102.0262992467199,127.7763366836254L102.23262138877597,126.08542601756044L102.33578245980398,126.05931582152968L102.43894353083202,120.05756864244121L102.54210460186005,123.97242808058184L102.64526567288807,124.42806458198554L102.95474888597217,125.98678049496421L103.16107102802822,124.7038345463656L103.36739317008427,121.60500742769189L103.67687638316836,117.98915263843851L103.88319852522442,119.03025056187859L103.98635959625244,122.64149312279713L104.08952066728048,124.08215291359507L104.50216495139257,124.26588793682866L104.70848709344864,122.06167943562055L104.81164816447668,122.4197833312745L105.01797030653272,116.52178596127207L105.32745351961681,113.49501737673468L105.74009780372891,119.72605554292873L106.04958101681301,124.68461631223477L106.35906422989709,120.14690857889467L106.46222530092511,125.03246660624868L106.66854744298116,126.0657960556372L106.87486958503723,114.60307717174197L107.08119172709328,117.8377757959391L107.59699708223343,113.7457996086594L107.90648029531751,119.09085501475411L108.00964136634555,122.40832150424171L108.11280243737357,126.46708104405123L108.42228565045765,125.44057783207468L109.24757421868189,124.81923713297135L109.3507352897099,127.94200704410936L109.45389636073794,123.626782813921L109.66021850279398,127.8137133819751L110.0728627869061,124.58129734089957L110.27918492896217,121.03472939378571L110.38234599999018,126.13143607750264L110.7949902841023,124.91776040130539L111.00131242615836,128.88001588270254L111.10447349718638,123.9469907746972L111.41395671027048,120.61586561285958L111.62027885232654,126.73745634187243L111.82660099438257,127.52742055054217L112.13608420746668,129.64479041983276L112.34240634952272,130.67190243265324L112.44556742055076,133.26796987130356L112.65188956260681,130.01916109226292L112.75505063363484,132.7931583916801L113.06453384671892,124.95367124734133L113.37401705980301,128.13925694424404L113.47717813083104,128.76050936558357L114.19930562802723,131.3291867932929L114.30246669905527,130.05209144474347L114.40562777008329,113.82841787602396L114.50878884111131,123.20939325705358L114.71511098316738,124.66240739629734L114.8182720541954,126.98836995398294L115.02459419625146,132.1032676606945L115.1277552672795,131.98111108107997L115.23091633830751,131.41314580051403L115.5403995513916,131.77243158679335L115.64356062241963,133.73263699647038L115.74672169344765,136.11769938327384L115.8498827644757,135.8407782324617L116.05620490653175,127.84063204484805L116.6751713326999,123.63882378536447L116.77833240372794,116.94663218676732L117.08781561681202,119.01188362082048L117.80994311400822,118.04503562930195L118.1194263270923,118.25635055400727L118.8415538242885,114.19937632984828L118.94471489531654,121.10820697743229L119.04787596634456,126.05525402693962L119.25419810840062,117.92958969794792L119.35735917942864,123.68597224710166L119.46052025045668,125.28791932828129L119.77000346354076,129.07427267639108L119.87316453456879,126.0924976195176L120.07948667662484,127.89276998658019L120.2858088186809,125.62978041683328L120.38896988970892,126.32405664793653L120.80161417382104,127.60625965171874L120.90477524484908,128.7747737400322L121.31741952896118,126.2977489110429L121.42058059998921,118.85979671245985L121.52374167101723,120.24555206021678L121.62690274204527,126.1875022203236L121.93638595512935,128.7302849911133L122.03954702615738,129.13793316507002L122.14270809718542,122.8330045963709L122.4521913102695,124.69778552102217L122.55535238129751,129.85560146956138L123.38064094952175,128.2658554577132L123.79328523363385,127.94675422092116L123.9996073756899,126.02150800042956L124.20592951774597,105.15427795163404L124.30909058877401,104.83344465040015L124.61857380185809,117.52154651407547L124.7217348728861,121.14227148666615L124.92805701494217,127.22907108585048L125.03121808597021,127.34400044815186L125.13437915699822,127.6952312975237L125.23754022802625,128.92181315551522L125.54702344111034,131.1804972224239L126.37231200933456,131.42788993063496L126.57863415139062,128.76973989274342L126.78495629344668,129.52809304973331L126.99127843550274,133.2892965828688L127.09443950653076,133.6680185154972L127.19760057755879,131.50094625211213L127.40392271961484,134.54720750762905L127.6102448616709,137.68056521192293L127.71340593269892,135.53984408611052L127.81656700372696,136.26430083077574L128.12605021681105,130.3156792653034L128.3323723588671,118.28372390125632L129.0544998560633,120.04095773646478L129.1576609270913,126.80424410078761L129.4671441401754,133.90260091118338L129.6734662822315,124.65640267580712L130.29243270839964,121.55517616152096L130.39559377942766,110.12860992830737L130.6019159214837,102.62487949076315L130.80823806353976,106.38700542582124L131.2208823476519,107.36963062294245L131.633526631764,109.0907514486713L131.83984877382005,114.16881351956668L132.0461709158761,111.09390094089758L132.3556541289602,113.64110588170591L132.45881519998824,119.1222768934181L132.56197627101625,121.47507931291632L132.6651373420443,122.24613935725392L133.28410376821245,129.11248335668424L133.3872648392405,131.71753360866367L134.00623126540864,134.37345152965926L134.2125534074647,134.49871806539073L134.41887554952078,138.12430053868215L134.5220366205488,132.85381615125036L134.62519769157683,128.98227960694277L135.55364733082908,132.57261154995038L135.75996947288513,134.42783337678773L136.06945268596922,137.55541100232736L136.48209697008133,134.19855989251425L136.68841911213738,127.34108225986532L136.79158018316542,120.88581998840458L137.20422446727753,128.678707203588L137.30738553830557,124.74971582514901L137.51370768036162,125.24982849601274L137.61686875138963,129.5381155527825L137.72002982241767,125.90297201265025L138.02951303550176,130.1645523372455L138.13267410652978,128.43405167448827L139.16428481681007,135.40839534349297L139.37060695886612,136.388682660514L139.47376802989416,139.59269590521183L139.78325124297822,134.48797301262837L139.88641231400626,133.9939895299884L139.9895733850343,133.41114291058392L140.29905659811837,134.15861749655562L140.4022176691464,128.49775205132153L140.50537874017442,128.4634651023891L142.05279480559486,130.2069552112643L142.36227801867895,129.9522326998325L142.56860016073497,137.49421926717608L142.671761231763,132.52881238040737L142.8780833738191,138.01759070202488L142.9812444448471,137.63651161010517L143.2907276579312,139.5078166492951L143.6002108710153,139.11850958979568L143.7033719420433,141.27503293705777L143.80653301307132,143.15143360089994L143.90969408409936,141.37221844981838L144.1160162261554,140.34162647326087L144.3223383682115,131.79588796866653L144.5286605102675,134.44172964691018L144.7349826523236,139.26488706914193L144.8381437233516,139.81052630737562L145.04446586540766,136.505755450603L145.25078800746374,134.02369898859166L145.4571101495198,135.59243158780757L145.5602712205478,137.9944612987981L145.66343229157584,137.04940582815854L145.76659336260388,141.791408909164L145.8697544336319,137.91041075562353L146.9013651439122,130.10774124993208L147.3140094280243,132.21672258663497L147.72665371213643,135.29726031327056L147.82981478316444,131.68522560284546L147.93297585419245,132.9939132447404L148.13929799624853,133.0257347345603L148.4487812093326,131.14904236618608L148.7582644224167,117.25308132653055L148.96458656447274,126.97279946055203L149.17090870652882,132.34241228623097L149.27406977755683,138.5903233407369L149.48039191961288,142.8229607102089L149.893036203725,139.15272592370246L149.996197274753,114.00776072638709L150.09935834578107,119.95849913959496L150.30568048783712,125.53723053127503L150.40884155886513,126.73910167221393L150.71832477194923,133.26545413351812L150.82148584297724,135.1117741166085L150.92464691400528,136.94022762246937L151.02780798503332,135.2129968516186L151.23413012708937,131.46115034265003L151.74993548222952,136.97624518103981L152.0594186953136,131.01394587280967L152.57522405045373,135.28390949788613L152.78154619250978,115.7877799408644L153.1941904766219,125.36729536127446L153.40051261867794,129.29529429463372L153.81315690279007,135.3124210867898L153.91631797381808,134.78655474541546L154.01947904484615,130.43323637834365L154.12264011587416,122.69946852941814L154.32896225793021,131.76793782345192L154.6384454710143,130.99601260886467L154.74160654204232,134.78103762880068L154.9479286840984,132.29400459068398L155.0510897551264,137.0865426300526L155.15425082615442,135.4203031114229L155.7732172523226,127.56112402829599L155.97953939437866,131.84478697690864L156.0827004654067,138.9302027790404L156.28902260746273,144.6896256519699L156.3921836784908,126.30216794566739L156.70166689157486,133.61088518744245L156.80482796260287,137.00815437314876L157.32063331774302,135.84844043889808L157.42379438877106,128.1010649340008L157.5269554597991,137.7683986270289L157.83643867288316,142.6688905282994L158.04276081493924,139.91504353584227L158.14592188596725,133.20198230818121L158.24908295699527,139.97035019713346L158.35224402802334,144.441896415072L158.45540509905135,147.71923053406945L158.55856617007936,145.46929821105527L159.17753259624752,146.11624064118573L159.69333795138766,104.69150084736603L159.79649902241573,119.1969378473022L159.89966009344374,127.47194765636702L160.4154654485839,138.71772684921734L160.828109732696,141.30613348691776L161.03443187475204,128.12316912406112L161.13759294578006,134.82383690086473L161.5502372298922,140.0447325540403L161.9628815140043,141.4130283142699L162.6850090112005,145.2084468645588L162.89133115325654,138.7873857226473L163.2008143663406,139.63852085838158L163.4071365083967,137.33054142776496L163.51029757942473,141.10401205748053L163.81978079250882,142.71378884512967L163.92294186353683,139.7600745101257L164.1292640055929,141.61649079825838L164.23242507662093,134.8422211139139L164.541908289705,141.43338655794145L166.29564649718148,114.04718688730705L166.39880756820952,108.20184272652841L166.50196863923753,105.92337211304658L166.60512971026554,91.72678424170162L167.01777399437768,95.05942109309287L167.32725720746177,100.55888686450496L167.43041827848978,106.04923773117179L167.73990149157387,111.00256937678643L167.84306256260192,110.08763513023705L167.94622363362993,116.2460230835717L168.35886791774206,120.90348581021736L168.46202898877007,129.17109851344395L168.56519005979808,132.62912056386855L168.77151220185416,126.91499678984209L168.97783434391022,132.87436152561628L169.18415648596627,139.26480659341019L169.39047862802232,138.2977917099162L170.00944505419048,135.4488732395491L170.21576719624656,140.1447958372237L170.7315725513867,139.28205071564898L170.83473362241472,106.4057127063839L171.76318326166697,123.67035013293838L171.866344332695,129.2623543888612L173.00111611400334,133.7887688447017L173.41376039811541,137.90427238319444L173.51692146914348,139.33950497039095L173.82640468222755,134.006910955537L173.92956575325556,135.17003974899632L174.23904896633965,131.3135369258683L174.44537110839573,133.37226727926029L174.54853217942374,128.3142792382015L174.65169325045176,132.74492797873927L175.37382074764795,137.83959619863788L175.476981818676,134.04094631345515L175.58014288970404,138.0868542266667L175.68330396073205,140.7653677600226L175.99278717381614,139.1997328960732L176.1991093158722,145.14845481589097L176.3022703869002,147.02102865167845L176.40543145792827,144.64965302024152L176.50859252895629,144.30100933201683L177.02439788409643,145.9093715018947L177.23072002615245,147.5214814772342L177.7465253812926,144.11676981285973L177.84968645232067,143.45565748772052L178.15916966540473,124.97707543948484L178.88129716260093,129.89616894737009L179.08761930465698,135.7327481325715L180.11923001493727,140.70233515764824L180.32555215699333,145.4263848684787L180.42871322802137,146.24704880018186L180.6350353700774,148.4539933455166L180.73819644110543,144.00840834558753L180.94451858316148,142.0085672269895L181.04767965418952,125.26268437544678L181.66664608035768,133.4075510374071L181.76980715138572,137.36250208058806L182.3887735775539,140.9972096226492L182.49193464858192,139.12467061538314L183.42038428783417,142.3443701413379L183.8330285719463,146.48517954867665L184.03935071400232,149.8457534316886L184.45199499811446,144.11880378428597L185.07096142428261,142.7731922477834L185.3804446373667,138.67328878541747L185.58676677942276,142.19590856410963L185.89624999250685,148.25614805591871L186.10257213456288,149.50181091898932L186.20573320559095,146.65274072451268L186.61837748970302,144.37155861663845L186.7215385607311,136.50371565362641L186.92786070278711,115.31506775502076L187.03102177381516,126.27998943381277L187.2373439158712,136.8506617111366L187.54682712895527,136.0876246478208L187.64998819998334,143.79129529045426L187.75314927101135,149.43605465996924L188.16579355512349,150.31962098258526L188.3721156971795,150.58303797224852L188.47527676820755,147.5554171921515L188.57843783923556,145.7241280471404L188.78475998129164,150.00660734422289L188.99108212334767,141.59899538568158L189.19740426540375,144.04118375088206L189.5068874784878,146.61646189583968L189.8163706915719,138.92522225561837L189.91953176259995,133.26282170057357L190.02269283362796,138.97375862212022L190.33217604671205,142.78931415189962L190.53849818876813,147.3112681892492L190.64165925979614,147.8319659786475L190.9511424728802,147.5518493567082L191.05430354390828,146.0984356766276L191.36378675699234,147.11036448807283L191.77643104110444,149.0129674432437L191.87959211213249,147.6300471268585L191.9827531831605,141.35501297445614L192.7048806803567,141.12546083578954L192.91120282241275,146.671377085808L193.01436389344082,144.04095579070287L193.11752496446883,145.36520398833812L193.4270081775529,147.58228745412703L193.53016924858093,148.57803851850954L193.73649139063698,147.28640298826846L194.14913567474912,147.64020436510853L194.25229674577713,148.22663101157295L194.35545781680514,147.00384134460754L194.66494102988923,147.03128053249432L195.07758531400137,147.84727260142566L195.18074638502938,145.11699368292767L195.38706852708543,147.65505666628377L195.49022959811347,147.14338657840554L195.5933906691415,144.46034406936957L195.69655174016953,143.0848220215231L195.9028738822256,132.57905707712277L196.21235709530967,139.73357746100618L196.31551816633768,141.39251834012867L196.41867923736572,129.77953954681624L196.52184030839376,131.85531022230117L196.93448459250587,140.9423910696615L197.0376456635339,138.1544687054839L197.55345101867402,140.39616715563267L197.75977316073008,128.01142824320831L197.86293423175815,129.57655601664408L197.96609530278616,127.64915751072205L198.37873958689826,131.62737959927057L198.68822279998233,138.03224196180423L198.8945449420384,143.88771827393467L199.20402815512247,147.0738343002568L199.30718922615048,132.30152330432958L199.41035029717855,133.98925727871818L199.51351136820657,139.03789299640667L199.6166724392346,137.14668242838036L199.82299458129066,142.50322247139408L200.0293167233467,143.2268094249928L200.3387999364308,144.5903371973364L200.44196100745884,146.89815384795696L200.64828314951487,142.18193294802572L200.7514442205429,144.28174427959414L200.85460529157095,149.1465092130259L201.164088504655,135.3487743194213L201.3704106467111,138.3446203149979L201.4735717177391,143.66252572867378L201.57673278876712,145.30934608176116L201.67989385979516,148.63754989301378L202.40202135699136,149.10998247236276L202.5051824280194,148.41680921174617L202.8146656411035,146.3974661021459L203.33047099624363,145.75679556078407L203.74311528035574,144.42997330848337L204.3620817065239,147.1978073383333L204.46524277755194,150.66186298025542L204.67156491960796,147.6975416934085L205.0842092037201,137.10941812615593L205.18737027474813,144.36401685320192L205.29053134577615,140.77616424263903L205.4968534878322,144.10424177282525L205.6000145588602,117.51196072718375L205.70317562988828,126.37242380045346L206.11581991400035,140.60036210580535L206.5284641981125,144.47577762804707L206.73478634016854,149.23817844722223L206.83794741119658,147.60842851648184L207.66323597942082,136.83788067254187L207.76639705044883,123.25088678653513L208.0758802635329,119.6379854755189L208.385363476617,118.455273177136L208.79800776072912,115.0375494114179L209.00432990278514,114.92988491144031L209.41697418689728,118.57173656230555L209.93277954203742,119.99685431191807L210.03594061306543,127.6376703062833L210.44858489717754,127.51753978871855L210.5517459682056,126.69927845223978L210.86122918128967,124.70950856937283L210.96439025231768,128.7641100138441L211.06755132334575,128.66428395445635L211.37703453642982,131.82466965946577L211.6865177495139,132.78172890648932L211.78967882054192,125.73833907103958L211.99600096259798,125.95531162942426L212.20232310465406,133.49513841987664L212.30548417568207,132.253553317873L212.40864524671008,128.33396394310034L213.1307727439063,134.3851614045187L213.33709488596233,136.5665344184087L213.44025595699037,136.35515845975627L214.05922238315856,136.64134508035625L214.16238345418657,134.9323859534077L214.2655445252146,136.74791081599548L214.36870559624262,132.44917206086708L214.47186666727066,135.5436246487211L214.6781888093267,141.54843106170546L214.9876720224108,139.2649785982438L215.709799519607,138.08246719307218L215.81296059063502,137.17979184648587L215.91612166166308,141.82067218334262L216.8445713009153,140.66901281869298L217.1540545139994,129.71793878900323L217.2572155850274,135.57572680096445L217.66985986913954,141.7622375153802L217.77302094016756,142.01194389565006L217.8761820111956,144.20172891579213L217.97934308222364,142.90511543967446L218.2888262953077,136.69934508085697L218.39198736633574,142.13239470582604L218.49514843736378,142.4029552197264L218.5983095083918,142.38036843548483L219.0109537925039,138.96375447822896L219.11411486353194,142.18420815612913L219.21727593455995,143.48292160317604L219.52675914764404,146.47001961601072L219.7330812897001,144.61707484930915L219.93940343175618,144.01161305880717L220.1457255738122,145.45220018449973L220.24888664484024,146.33056141788433L220.35204771586828,147.27476395675546L220.55836985792433,143.46318072915986L220.66153092895235,143.28884951780003L221.1773362840925,142.42685575127868L221.48681949717658,126.09077323705202L221.69314163923264,116.78292253105914L222.00262485231673,96.10590118532309L222.31210806540082,114.134648846852L222.41526913642883,124.93498005161987L222.62159127848489,135.61326114441104L222.82791342054097,140.19728142447812L223.44687984670912,137.26185019149375L223.55004091773714,141.98484366176748L223.75636305979322,136.2085839070519L223.96268520184927,143.72402363581742L224.89113484110152,135.8863590638178L224.99429591212953,136.92330311139392L225.09745698315754,136.22527309676045L225.2006180541856,137.88905392504563L226.43855090652193,140.50465419584884L226.644873048578,139.48417975280887L226.85119519063406,141.4047292299607L227.05751733269008,144.5091223799092L227.47016161680222,145.61049501271287L227.57332268783023,144.3736622374729L227.6764837588583,142.2753354770446L227.7796448298863,145.01625078044438L227.88280590091432,142.9382417336632L227.98596697194236,144.2074112251045L228.08912804297037,135.9187867546394L228.29545018502645,136.95276958685784L228.39861125605447,139.7683920842815L228.50177232708248,140.98054970241128L228.70809446913856,137.69281875067472L229.2238998242787,138.93122724175197L229.53338303736277,136.47263405885283L229.73970517941885,129.1664505611921L229.84286625044686,137.24090678447533L230.0491883925029,140.55038777325868L230.358671605587,142.35319402526346L230.6681548186711,143.87420645420033L230.87447696072715,143.8209810889265L231.18396017381124,143.82130040482306L231.4934433868953,145.57574800201735L231.59660445792335,142.71676163588208L231.9060876710074,146.5211513203038L232.1124098130635,146.55782924075766L232.2155708840915,147.96565155870988L233.04085945231574,148.253903322082L233.14402052334378,151.9504611688143L233.3503426653998,149.69836036888236L233.86614802053995,147.83967022485453L234.3819533756801,145.92772937383245L234.48511444670814,147.52962654533886L234.58827551773618,144.5028701691413L234.7945976597922,142.83275672320624L234.89775873082024,144.49732531309158L235.1040808728763,145.10275891280372L235.31040301493235,143.58940523900418L235.61988622801644,145.77515748851792L235.72304729904448,142.2720596068028L236.13569158315659,148.6986412041605L236.65149693829673,147.48195132937101L236.85781908035278,146.95933784590355L237.47678550652097,142.66477291311958L237.57994657754898,141.5508987879589L237.683107648577,141.3064931368305L237.78626871960503,141.0972214634683L237.88942979063307,143.28269056443722L238.19891300371714,144.44388227913768L238.40523514577322,142.0082864064932L238.71471835885728,145.7169323976907L238.8178794298853,144.48716194513884L239.1273626429694,147.41350017059855L239.33368478502547,145.89955899460392L239.54000692708152,145.71664017924058L239.64316799810953,141.8800794999078L239.74632906913757,142.19502613570796L240.15897335324968,140.91043109228474L240.5716176373618,145.8795270899859L240.67477870838982,146.18181267984266L240.77793977941784,143.27019031502104L241.19058406352997,147.7333588794678L241.293745134558,140.53833297577313L241.50006727661406,140.35014998565083L241.60322834764207,140.83824387801107L241.80955048969815,141.17462008354698L241.91271156072617,138.77670313557198L242.0158726317542,144.48738346347608L242.22219477381023,144.4124343929898L242.3253558448383,145.04263855612282L242.4285169158663,147.04195135051413L242.53167798689432,149.10591597079105L242.84116119997842,145.15530400036508L243.04748334203447,141.24053887874192L243.15064441306248,143.1035190693719L243.7696108392307,145.11315913561646L243.8727719102587,149.002254855444L243.97593298128672,148.5008324073371L244.38857726539885,144.44407551177332L244.5948994074549,141.01890456399047L244.80122154951096,145.62677748577238L245.2138658336231,145.4345301393341L245.93599333081926,147.6740148552146L246.24547654390335,148.55971940174143L246.4517986859594,146.30582681547887L246.65812082801548,145.44259294506304L246.7612818990435,143.27879880445204L246.96760404109955,146.2158326475254L247.17392618315563,147.48600405872486L247.38024832521165,147.2861907741715L247.4834093962397,150.89224935808076L247.5865704672677,146.01922369969296L247.8960536803518,148.31553383515381L247.9992147513798,147.28882527905608L248.30869796446393,145.81591726716024L248.41185903549194,145.55869280899927L248.72134224857604,145.83624606772514L249.0308254616601,143.96214304372862L249.4434697457722,142.37946227159486L250.06243617194042,142.5279137435734L250.16559724296843,133.27677123627493L250.4750804560525,136.00200610795738L250.57824152708054,135.94372092419422L250.7845636691366,134.58422465121865L250.99088581119264,132.09011314842186L251.09404688222068,138.1946693186277L251.30036902427673,142.16566311214433L251.40353009530475,146.25143844431202L251.60985223736083,143.04716253635542L251.71301330838884,144.50156537630363L251.81617437941688,146.64804793000607L251.9193354504449,149.1451286675204L252.12565759250097,149.03982646682175L252.33197973455702,150.9027362928288L252.43514080558504,147.29338472542477L252.84778508969714,148.1933361220063L252.95094616072518,150.17869695243084L253.15726830278123,151.25812293557055L253.4667515158653,150.3595967464561L253.67307365792138,149.1150015434026L253.98255687100547,151.45770439277695L254.60152329717366,142.8787878983649L255.2204897233418,145.60292121542975L255.63313400745392,140.9425026029209L255.942617220538,143.35416638974166L256.4584225756782,141.45026554214917L256.6647447177342,141.78331552464036L256.9742279308183,145.4142059272229L257.59319435698643,150.0418986603774L257.6963554280145,154.2938369278526L257.9026775700706,145.92914228060613L258.2121607831546,142.33989360279233L258.5216439962387,143.46356318321827L258.6248050672667,144.13539455761676L258.72796613829473,145.26207302722352L259.656415777547,143.47991516620388L259.759576848575,143.73160216999997L259.8627379196031,143.40598017878935L259.9658989906311,145.76878328353092L260.1722211326871,147.27193917954833L260.3785432747432,147.25484992177914L260.6880264878273,147.58197473204706L260.7911875588553,150.14657302915813L261.2038318429674,152.51205927060133L261.4101539850235,145.70053560615378L261.5133150560515,149.02367669108236L261.6164761270795,146.65621886678107L261.7196371981076,148.05909211067834L262.5449257663318,147.99323917101464L263.4733754055841,139.52700956629005L263.6796975476401,143.1414298620525L263.9891807607242,147.69342751300218L264.50498611586437,150.05803736469042L264.81446932894846,146.95250123331567L264.9176303999765,144.41645872855818L265.22711361306057,144.3407079572094L265.3302746840886,142.51674514567907L265.6397578971726,143.55992115966527L265.94924111025676,149.27723469650542L266.1555632523128,146.66873913459384L266.36188539436887,148.53362124249767L266.67136860745296,152.53674773616282L266.980851820537,156.22525674509896L267.084012891565,152.32028665110224L267.1871739625931,148.47428882633378L267.39349610464916,144.49808751042994L268.21878467287337,148.4150696220195L268.4251068149294,150.90696264963393L268.6314289569855,149.4379920081725L268.83775109904155,151.83724582057184L269.35355645418167,153.4621720078912L269.8693618093218,147.64965670473808L270.28200609343395,148.7058294316562L270.69465037754605,148.46428827511073L270.79781144857407,151.39495516873956L270.9009725196021,147.7092415634081L271.3136168037142,127.97484647524175L271.41677787474225,136.06870939540028L271.51993894577026,140.37726234873443L271.6231000167983,133.66765409866034L271.93258322988237,138.49964178247177L272.4483885850225,143.6763177094736L272.7578717981066,144.79036093245216L272.96419394016266,144.96530799145606L273.37683822427476,146.68393367884255L273.4799992953028,147.28535400938435L273.58316036633084,150.56410249400284L273.68632143735886,152.18034720570915L273.8926435794149,142.45106504054246L274.09896572147096,140.18099080193406L274.40844893455505,142.38458961616578L274.71793214763915,148.7648891935195L274.82109321866716,148.90239199711843L275.02741536072324,150.08077713629157L275.23373750277926,150.03147960595618L275.9558649999755,150.77735750372082L276.26534821305955,151.26046408718682L276.36850928408757,148.15346111535982L276.57483142614365,150.99987566824947L276.78115356819967,96.57757200329647L276.98747571025575,117.64436516520709L277.09063678128376,130.48903971216586L277.29695892333984,134.80024753469328L277.60644213642394,138.67485112025406L277.81276427847996,142.3724329838742L278.12224749156405,140.43280344907126L278.32856963362013,141.09274968624527L278.43173070464815,142.62745181582173" fill="none"></path></g><g><path style="fill: none;" stroke="rgb(0, 119, 187)" stroke-width="2px" d="M278.5348917756762,134.23378678557128L278.5348917756762,134.23378678557128" fill="none"></path></g></g></g></g><g opacity="0.2"><g><g><g><path style="fill: none;" stroke="rgb(255, 112, 67)" stroke-width="2px" d="M21.148019560745784,133.61026697119087L21.25118063177381,44.8339976303032L21.663824915885925,-32.949553882244786L22.076469199998037,-648.5099533888932L22.179630271026067,38.259142848128256L22.489113484110153,-1.3764649497898231L24.036529549530574,-19.40046783101934L24.34601276261466,41.74674322168357L24.75865704672677,-19.985014627382053L25.171301330838887,-18.270977417050734L25.274462401866913,16.136235202520766L25.48078454392297,83.19154250153589L25.687106685979025,-112.18606216352782L26.20291204111917,-39.29255798633677L26.306073112147192,5.1169779122847014L26.409234183175222,-67.52140811337993L26.512395254203252,61.123264944617404L27.13136168037142,-105.63668041738312L27.337683822427476,68.5496123070152L27.440844893455505,71.05927592435364L27.544005964483535,94.80838606804356L27.64716703551156,83.28121922209903L27.956650248595643,38.73481725833698L28.059811319623673,83.30572278006913L28.162972390651703,108.26288741602639L28.26613346167973,87.35067609040016L28.781938816819874,95.36040687548848L29.297744171960012,102.70662687621552L29.607227385044098,107.60569035753178L29.710388456072124,118.40131329624454L30.329354882240295,84.56301463931595L31.154643450464523,86.43999687460565L31.464126663548605,111.55650734822302L31.567287734576635,114.48021080809667L32.28941523177283,-401.7360025783273L34.04315343924931,-50.78004894266998L34.76528093644551,9.785087482723608L34.971603078501566,-84.75897039222218L35.177925220557626,-23.787889266095583L35.281086291585645,13.555799686791934L35.38424736261368,-72.23949427781919L36.106374859809875,-27.05112817958253L36.62218021495001,71.11463312158776L36.82850235700607,67.961720811345L36.931663428034106,76.36198159601008L37.03482449906213,72.38394650878037L37.34430771214621,49.46805428387961L37.653790925230304,-38.95471911932874L37.86011306728635,92.13315983498433L37.96327413831438,61.69661426938546L38.27275735139847,53.33879238680311L38.89172377756664,70.81705183102713L38.994884848594666,67.31498199742418L39.20120699065072,78.91424165561602L39.51069020373481,76.88346384456055L39.71701234579086,-338.21526686488147L39.82017341681889,58.75718102798601L40.02649555887495,-1.7757929627623357L40.335978771959034,-13.867365698370104L41.05810626915523,18.86361935521564L41.883394837379456,49.158378754518715L41.98655590840748,34.42984993227583L42.089716979435515,39.443505720300884L42.50236126354762,27.414609741281314L43.53397197382791,54.44154944326329L43.637133044855936,61.84000007448049L43.84345518691199,69.33004214542962L44.04977732896805,37.49882967946178L44.25609947102411,75.35071903147582L44.565582684108186,79.80808830859132L44.66874375513621,66.55709252390807L44.771904826164246,75.60954543658227L45.08138803924833,56.0806944734486L46.112998749528614,52.57714618580395L46.319320891584674,56.724040114158925L46.93828731775284,72.59541391064886L47.24777053083692,75.9685431622529L47.35093160186495,47.05526576170087L47.454092672892976,37.13105817734685L47.55725374392101,83.81359598035034L47.76357588597707,80.33777476522572L48.176220170089174,64.38042038327694L48.38254231214523,34.328345579378954L48.588864454201286,82.60855898854516L48.795186596257345,87.20329118830706L49.31099195139748,77.04817816697867L49.929958377565654,81.93972819332885L50.65208587476185,92.9589854835649L50.75524694578988,67.15017072720002L51.27105230093002,99.2678276045126L51.37421337195805,97.59723512975144L51.683696585042135,97.00850745925436L51.78685765607017,91.36110386331438L51.89001872709819,70.74768567582396L52.302663011210306,64.47070302762766L52.40582408223834,95.23043622305066L52.612146224294385,99.58666470154185L52.92162943737848,-115.27821243635118L53.33427372149058,88.96038534298441L53.437434792518616,103.01488454391345L53.54059586354664,44.61831299887309L53.643756934574675,91.29891184575628L53.85007907663073,103.18819086563961L54.15956228971481,103.31640433909342L54.26272336074284,106.0193334077212L54.36588443177087,101.20977698830758L54.67536764485495,110.47490915042545L54.984850857939044,100.57926481341836L55.60381728410721,113.92576630550138L55.81013942616327,91.18602824412845L56.119622639247346,95.46820071730053L56.22278371027538,110.72030828439893L56.42910585233144,86.91376868412137L56.53226692335946,94.59401023199462L57.0480722784996,105.13102489816447L57.15123334952764,109.64964095172944L57.56387763363975,102.53695609721488L57.7701997756958,111.67835862190714L58.079682988779886,102.68143256512758L58.492327272892005,66.4113072606142L58.90497155700411,102.92810413905498L59.11129369906017,86.31314067043604L59.52393798317228,102.44217749836027L59.62709905420031,105.33059195684473L59.73026012522834,101.1499844289483L59.93658226728439,99.2659977146741L60.45238762242454,104.08638805140981L60.55554869345256,111.02111308950953L60.96819297756468,107.18143463993783L61.07135404859271,104.22621102463381L61.174515119620736,104.5361410419855L62.20612582990101,115.77805108720894L62.72193118504115,118.75741470621051L63.444058682237355,97.40014024012453L63.54721975326538,93.79318499888996L64.06302510840553,120.65757958561336L64.16618617943355,114.26303560414908L64.3725083214896,101.9344133643608L64.57883046354566,94.79587980106771L64.99147474765778,69.18311774541507L65.91992438691003,118.57446207778594L66.12624652896609,63.88334474489056L66.22940759999412,83.52843612743527L66.5388908130782,114.82902901413581L67.15785723924637,106.50533275927047L67.98314580747059,116.31274247432884L68.08630687849862,104.75496435863535L68.18946794952664,97.8528380203079L68.39579009158271,112.6641360319354L68.49895116261074,89.92848189689084L68.80843437569482,49.7837405772134L68.91159544672284,93.36843242379017L69.42740080186299,107.2067501357833L69.53056187289101,94.58487290127778L70.66533365419933,117.17540828919482L70.97481686728341,106.50487225719189L71.07797793831145,116.73066022910463L71.28430008036749,110.16992347118048L71.49062222242355,124.54285985943898L71.80010543550765,107.15745217642507L72.93487721681595,122.72156202022872L73.34752150092807,100.52937304874831L73.4506825719561,112.21547370417737L73.65700471401215,109.09844420063564L73.96648792709622,120.77617098932025L74.17281006915229,83.18247788167355L74.68861542429242,112.98922626245258L74.79177649532046,124.71123396153418L75.41074292148862,124.88815158903435L75.61706506354469,109.6745080639721L75.7202261345727,109.71192991709358L75.82338720560074,111.73852685401471L75.92654827662876,120.32504861098461L76.0297093476568,112.79883288991641L76.13287041868482,108.81305409668128L76.33919256074088,120.85460176438573L76.54551470279694,93.65548275892252L77.06132005793708,78.40767725071602L77.16448112896511,120.3053439694122L77.26764219999313,118.934708006459L77.4739643420492,120.5368432116984L77.8866086261613,111.34717279808683L78.09293076821736,109.92635422704551L78.29925291027341,88.33307244569369L78.71189719438553,105.11021747529867L78.81505826541355,127.49053366434964L78.91821933644158,113.93048039256882L79.3308636205537,118.99040452101417L79.74350790466582,120.37778821745633L79.84666897569383,99.95665388471934L80.15615218877792,100.10452352584252L80.36247433083398,106.89682011843162L80.46563540186202,72.21387582007992L80.56879647289003,113.47524985095335L80.67195754391807,104.35854477984321L80.7751186149461,119.84852590747323L80.87827968597414,121.02331518380197L81.08460182803017,118.15912555834528L81.18776289905821,125.96838039907198L81.70356825419834,95.28221846993802L81.80672932522637,119.25268469170987L82.11621253831046,116.42349322422434L82.21937360933849,115.88811108398659L82.52885682242257,107.61919033951926L82.73517896447862,104.59967821035207L83.14782324859074,98.87762480378115L83.3541453906468,115.48656538995147L83.56046753270286,121.52437780071068L83.76678967475891,129.03846292755134L84.076272887843,97.14807594448757L84.48891717195511,109.88099477230662L84.59207824298313,123.75944887598963L84.7984003850392,107.79063041597965L85.10788359812328,110.11054293999678L85.5205278822354,109.98784337301004L86.03633323737554,112.94629050286403L86.75846073457174,127.57939844703743L86.86162180559975,116.21690956808379L87.06794394765582,110.9414583483931L87.17110501868383,112.05597032633251L87.27426608971187,43.866288867620824L87.3774271607399,96.17430794392932L87.58374930279595,118.68503105054515L87.89323251588003,122.90469642578955L88.30587679999215,86.79671632683494L88.40903787102017,118.32556070432018L88.8216821551323,116.46515654385894L89.13116536821637,118.83351873393165L89.54380965232849,98.23049819863627L89.85329286541257,105.85274072156155L89.95645393644061,127.26872920266487L90.05961500746864,108.68836709967127L90.16277607849666,114.56351321041438L90.26593714952469,122.47193353821784L90.47225929158074,133.45693189750364L90.57542036260877,125.84517185610365L90.67858143363681,114.18179334270918L90.88490357569286,116.26609846116025L90.98806464672089,120.17116820588855L91.09122571774891,120.31705041698842L91.19438678877695,54.90098509596465L91.400708930833,113.07289221904284L91.60703107288904,82.26429732938868L91.71019214391708,114.0902382584045L92.43231964111328,-7.751704199381493L92.74180285419736,121.45567816167384L92.8449639252254,112.64181379960064L92.94812499625343,113.52786827266753L93.15444713830948,110.24142247811596L93.46393035139356,111.79980998589143L93.67025249344962,123.73787798915146L93.87657463550568,118.88208958474479L94.28921891961778,110.51331260008283L94.7018632037299,129.26484817307028L95.01134641681398,117.67672539409432L95.11450748784202,130.76865406605975L95.21766855887005,127.34609355186421L95.32082962989807,124.76191342712809L95.4239907009261,126.16056730601939L95.93979605606624,126.77983353541094L96.55876248223441,123.13785589925374L96.76508462429047,109.57210694386957L96.86824569531849,134.79007329648084L96.97140676634652,131.74043463659473L97.28088997943061,125.63754601104847L97.59037319251469,137.04757567037632L97.69353426354272,-70.17457872057095L98.00301747662681,113.62616122949022L98.10617854765484,127.34057964539716L98.20933961868286,129.16430117975779L98.41566176073891,118.30926135443406L98.62198390279497,118.01689100844669L99.24095032896315,116.43506636856728L99.55043354204723,124.9503072511652L99.65359461307524,113.92770526162167L99.96307782615935,126.00812899953779L100.06623889718736,123.36195075285559L100.1693999682154,119.69054945757306L100.37572211027145,121.72863470950689L100.47888318129948,123.45997710321171L101.09784960746765,126.8883060118651L101.51049389157976,124.17484598780902L101.6136549626078,133.90678183588534L101.81997710466385,125.37658675420971L102.0262992467199,128.99867797165825L102.23262138877597,123.54906001846302L102.33578245980398,126.02015052748358L102.43894353083202,111.05494787380849L102.54210460186005,129.8447172377928L102.64526567288807,125.1115193340911L102.95474888597217,128.3248543644322L103.16107102802822,122.7794156234677L103.36739317008427,116.95676674968126L103.67687638316836,112.56537045455845L103.88319852522442,120.59189744703872L103.98635959625244,128.0583569641749L104.08952066728048,126.24314259979201L104.50216495139257,124.54149047167904L104.70848709344864,118.75536668380848L104.81164816447668,122.95693917475546L105.01797030653272,107.67478990626843L105.32745351961681,108.9548644999286L105.74009780372891,129.07261279221984L106.04958101681301,132.12245746619374L106.35906422989709,113.34034697888455L106.46222530092511,132.36080364727968L106.66854744298116,127.61579022972002L106.87486958503723,97.40899884589909L107.08119172709328,122.6898237322348L107.59699708223343,107.60783532773985L107.90648029531751,127.10843812389612L108.00964136634555,127.3845212384731L108.11280243737357,132.55522035376543L108.42228565045765,123.90082301410985L109.24757421868189,123.88722608431634L109.3507352897099,132.62616191081634L109.45389636073794,117.15394646863842L109.66021850279398,134.0941092340563L110.0728627869061,119.73267327928625L110.27918492896217,115.71487747311494L110.38234599999018,133.776496103078L110.7949902841023,123.09724688700953L111.00131242615836,134.82339910479823L111.10447349718638,116.54745311268924L111.41395671027048,115.61917787010316L111.62027885232654,135.91984243539173L111.82660099438257,128.71236686354678L112.13608420746668,132.82084522376863L112.34240634952272,132.21257045188395L112.44556742055076,137.1620710292791L112.65188956260681,125.1459479237019L112.75505063363484,136.95415434080587L113.06453384671892,113.19444053083316L113.37401705980301,132.91763548959807L113.47717813083104,129.69238799759296L114.19930562802723,135.18220293485683L114.30246669905527,128.13644842191934L114.40562777008329,89.49290752294473L114.50878884111131,137.28085632859802L114.71511098316738,126.84192860516305L114.8182720541954,130.4773137905113L115.02459419625146,139.77561422076178L115.1277552672795,131.79787621165815L115.23091633830751,130.5611978796651L115.5403995513916,132.31136026621243L115.64356062241963,136.6729451109859L115.74672169344765,139.695292963479L115.8498827644757,135.4253965062435L116.05620490653175,115.8404127634276L116.6751713326999,117.33611139613912L116.77833240372794,106.90834478887155L117.08781561681202,122.10976077190026L117.80994311400822,116.5947636420242L118.1194263270923,118.57332294106529L118.8415538242885,108.1139149936098L118.94471489531654,131.4714529488083L119.04787596634456,133.47582460120066L119.25419810840062,105.74109320446041L119.35735917942864,132.32054607083228L119.46052025045668,127.69083995005076L119.77000346354076,134.75380269855577L119.87316453456879,121.61983503420743L120.07948667662484,130.59317853717403L120.2858088186809,122.23529606221291L120.38896988970892,127.3654709945913L120.80161417382104,129.5295641573921L120.90477524484908,130.5275448725024L121.31741952896118,122.58221166755901L121.42058059998921,107.7028684145853L121.52374167101723,122.32418508185219L121.62690274204527,135.10042746048384L121.93638595512935,132.54445914729786L122.03954702615738,129.74940542600507L122.14270809718542,113.37561174332222L122.4521913102695,127.49495690799904L122.55535238129751,137.59232539237018L123.38064094952175,125.88123643994095L123.79328523363385,127.46810236573312L123.9996073756899,123.13363866969212L124.20592951774597,73.8534328784408L124.30909058877401,104.3521946985493L124.61857380185809,136.5536993095884L124.7217348728861,126.57335894555217L124.92805701494217,136.3592704846269L125.03121808597021,127.51639449160392L125.13437915699822,128.2220775715814L125.23754022802625,130.76168594250248L125.54702344111034,134.56852332278686L126.37231200933456,131.79897899295156L126.57863415139062,124.7825148359061L126.78495629344668,130.66562278521815L126.99127843550274,138.93110188257197L127.09443950653076,134.23610141443987L127.19760057755879,128.25033785703454L127.40392271961484,139.1165993909044L127.6102448616709,142.3806017683637L127.71340593269892,132.32876239739198L127.81656700372696,137.35098594777355L128.12605021681105,121.39274691709488L128.3323723588671,100.23579085518575L129.0544998560633,122.67680848927739L129.1576609270913,136.9491736472719L129.4671441401754,144.55013612677703L129.6734662822315,110.78710532274272L130.29243270839964,116.90333639009168L130.39559377942766,92.98876057848702L130.6019159214837,91.36928383444683L130.80823806353976,112.03019432840847L131.2208823476519,108.84356841862429L131.633526631764,111.67243268726452L131.83984877382005,121.78590662590977L132.0461709158761,106.48153207289397L132.3556541289602,117.46191329291831L132.45881519998824,127.34403341098641L132.56197627101625,125.00428294216363L132.6651373420443,123.40272942376032L133.28410376821245,139.41199935582972L133.3872648392405,135.62510898663277L134.00623126540864,138.3573284111526L134.2125534074647,134.68661786898792L134.41887554952078,143.56267424861926L134.5220366205488,124.94808957010264L134.62519769157683,123.17497479048144L135.55364733082908,137.9581094644618L135.75996947288513,137.21066611704373L136.06945268596922,142.24677744063683L136.48209697008133,129.16328322779464L136.68841911213738,117.0548658108919L136.79158018316542,111.20292658121345L137.20422446727753,140.36803802636314L137.30738553830557,118.85622875749051L137.51370768036162,125.99999750230836L137.61686875138963,135.97054613793716L137.72002982241767,120.45025670245197L138.02951303550176,136.55692282413838L138.13267410652978,125.83830068035239L139.16428481681007,145.86991084700003L139.37060695886612,137.85911363604555L139.47376802989416,144.39871577225858L139.78325124297822,126.83088867375317L139.88641231400626,133.2530143060285L139.9895733850343,132.53687298147725L140.29905659811837,135.27982937551315L140.4022176691464,120.00645388347037L140.50537874017442,128.4120346789905L142.05279480559486,132.82219037457708L142.36227801867895,129.5701489326848L142.56860016073497,148.80719911819142L142.671761231763,125.08070205025433L142.8780833738191,146.25075818445112L142.9812444448471,137.0648929722256L143.2907276579312,142.31477420808005L143.6002108710153,138.53454900054658L143.7033719420433,144.50981795795087L143.80653301307132,145.96603459666312L143.90969408409936,138.70339572319608L144.1160162261554,138.79573850842462L144.3223383682115,118.97728021177501L144.5286605102675,138.41049216427564L144.7349826523236,146.4996232024896L144.8381437233516,140.62898516472615L145.04446586540766,131.5485991654441L145.25078800746374,130.30061429557463L145.4571101495198,137.94553048663147L145.5602712205478,141.5975058652839L145.66343229157584,135.63182262219925L145.76659336260388,148.90441353067217L145.8697544336319,132.08891352531282L146.9013651439122,118.40373699139491L147.3140094280243,135.38019459168936L147.72665371213643,139.91806690322392L147.82981478316444,126.2671735372078L147.93297585419245,134.9569447075828L148.13929799624853,133.07346696929017L148.4487812093326,128.3340038136248L148.7582644224167,96.40913976704722L148.96458656447274,141.55237666158428L149.17090870652882,140.39683152474936L149.27406977755683,147.96218992249578L149.48039191961288,149.1719167644169L149.893036203725,133.6473737439428L149.996197274753,76.29031293041406L150.09935834578107,128.88460675940678L150.30568048783712,133.90532761879513L150.40884155886513,128.54190838362229L150.71832477194923,143.05498282547433L150.82148584297724,137.88125409124405L150.92464691400528,139.6829078812607L151.02780798503332,132.6221506953425L151.23413012708937,125.83338057919717L151.74993548222952,145.24888743862448L152.0594186953136,122.07049691046451L152.57522405045373,141.68885493550079L152.78154619250978,86.54358560533183L153.1941904766219,139.73656849188956L153.40051261867794,135.18729269467258L153.81315690279007,144.33811127502395L153.91631797381808,133.99775523335393L154.01947904484615,123.90325882773594L154.12264011587416,111.09881675602992L154.32896225793021,145.37064176450258L154.6384454710143,129.83812478698383L154.74160654204232,140.45857515870466L154.9479286840984,128.56345503350894L155.0510897551264,144.2753496891055L155.15425082615442,132.9209438334783L155.7732172523226,115.77235540360562L155.97953939437866,138.27028139982758L156.0827004654067,149.55832648223804L156.28902260746273,153.32875996136409L156.3921836784908,98.72098138621368L156.70166689157486,144.57396105010503L156.80482796260287,142.10405815170816L157.32063331774302,134.10886953752197L157.42379438877106,116.48000167665487L157.5269554597991,152.26939916657102L157.83643867288316,150.01962838020518L158.04276081493924,135.7842730471566L158.14592188596725,123.1323904666897L158.24908295699527,150.12290203056182L158.35224402802334,151.1492157419798L158.45540509905135,152.63523171256566L158.55856617007936,142.094399726534L159.17753259624752,147.08665428638142L159.69333795138766,42.55439115663649L159.79649902241573,140.95509334720646L159.89966009344374,139.88446236996424L160.4154654485839,155.58639563849283L160.828109732696,145.1887434434684L161.03443187475204,108.34872257977622L161.13759294578006,144.87483856607014L161.5502372298922,147.87607603380366L161.9628815140043,143.46547195461426L162.6850090112005,150.90157468999223L162.89133115325654,129.15579400978004L163.2008143663406,140.9152235619831L163.4071365083967,133.86857228184L163.51029757942473,146.7642180020539L163.81978079250882,145.12845402660332L163.92294186353683,135.32950300761968L164.1292640055929,144.40111523045744L164.23242507662093,124.6808165873972L164.541908289705,151.32013472398285L166.29564649718148,72.96788738135545L166.39880756820952,99.43382648536044L166.50196863923753,102.50566619282381L166.60512971026554,70.43190243468416L167.01777399437768,100.05837637017976L167.32725720746177,108.80808552162307L167.43041827848978,114.28476403117202L167.73990149157387,118.43256684520838L167.84306256260192,108.71523376041296L167.94622363362993,125.48360501357367L168.35886791774206,127.88967990018591L168.46202898877007,141.57251756828373L168.56519005979808,137.8161536395055L168.77151220185416,118.34381112880237L168.97783434391022,141.81340862927755L169.18415648596627,148.85047419510101L169.39047862802232,136.8472693846752L170.00944505419048,131.1754955339984L170.21576719624656,147.18867973373563L170.7315725513867,137.98793303328694L170.83473362241472,57.09120569248625L171.76318326166697,149.5673062727701L171.866344332695,137.65036077274544L173.00111611400334,140.57839052846248L173.41376039811541,144.0775276909335L173.51692146914348,141.49235385118573L173.82640468222755,126.00801993325605L173.92956575325556,136.91473293918534L174.23904896633965,125.52878269117627L174.44537110839573,136.46036280934823L174.54853217942374,120.72729717661332L174.65169325045176,139.39090108954588L175.37382074764795,145.48159852848585L175.476981818676,128.34297148568112L175.58014288970404,144.15571609648396L175.68330396073205,144.78313806005644L175.99278717381614,136.85128060014904L176.1991093158722,154.07153769561774L176.3022703869002,149.8298894053596L176.40543145792827,141.09258957308612L176.50859252895629,143.77804379967984L177.02439788409643,148.32191475671152L177.23072002615245,149.93964644024345L177.7465253812926,139.009702316298L177.84968645232067,142.46398900001168L178.15916966540473,97.25920236713137L178.88129716260093,137.27480920919788L179.08761930465698,144.48761691037362L180.11923001493727,148.1567156952633L180.32555215699333,152.5124594347244L180.42871322802137,147.47804469773655L180.6350353700774,151.76441016351873L180.73819644110543,137.34003084569395L180.94451858316148,139.00880554909236L181.04767965418952,100.14386009813279L181.66664608035768,145.6248510303476L181.76980715138572,143.2949286453595L182.3887735775539,146.44927093574097L182.49193464858192,136.31586210448404L183.42038428783417,147.17391943026996L183.8330285719463,152.69639365968487L184.03935071400232,154.88661425620649L184.45199499811446,135.52837931318209L185.07096142428261,140.7547749430296L185.3804446373667,132.52343359186852L185.58676677942276,147.4798382321478L185.89624999250685,157.34650729363238L186.10257213456288,151.3703052135952L186.20573320559095,142.37913543279774L186.61837748970302,140.94978545482718L186.7215385607311,124.7019512091083L186.92786070278711,83.5320959071123L187.03102177381516,142.7273719520008L187.2373439158712,152.70667012712238L187.54682712895527,134.94306905284702L187.64998819998334,155.34680125440445L187.75314927101135,157.90319371424175L188.16579355512349,151.64497046650922L188.3721156971795,150.97816345674346L188.47527676820755,143.01398602200607L188.57843783923556,142.97719432962367L188.78475998129164,156.43032628984656L188.99108212334767,128.98757744786963L189.19740426540375,147.70446629868275L189.5068874784878,150.47937911327608L189.8163706915719,127.38836279528643L189.91953176259995,124.76922086800641L190.02269283362796,147.54016400444016L190.33217604671205,148.51264744656874L190.53849818876813,154.09419924527356L190.64165925979614,148.61301266274495L190.9511424728802,147.13167442379927L191.05430354390828,143.91831515650665L191.36378675699234,148.62825770524069L191.77643104110444,151.866871876L191.87959211213249,145.5556666522807L191.9827531831605,131.9424617458526L192.7048806803567,140.7811326277897L192.91120282241275,154.99025146083568L193.01436389344082,140.09532384804515L193.11752496446883,147.351576284791L193.4270081775529,150.9079126528104L193.53016924858093,150.0716651150833L193.73649139063698,145.3489496929069L194.14913567474912,148.17090643036863L194.25229674577713,149.10627098126952L194.35545781680514,145.16965684415936L194.66494102988923,147.07243931432458L195.07758531400137,149.07126070482263L195.18074638502938,141.0215753051807L195.38706852708543,151.46215114131792L195.49022959811347,146.3758814465882L195.5933906691415,140.43578030581557L195.69655174016953,141.02153894975345L195.9028738822256,116.82040966052229L196.21235709530967,150.46535803683128L196.31551816633768,143.88092965881242L196.41867923736572,112.36007135684758L196.52184030839376,134.96896623552857L196.93448459250587,154.573012340702L197.0376456635339,133.9725851592175L197.55345101867402,143.75871483085575L197.75977316073008,109.4343198745719L197.86293423175815,131.92424767679768L197.96609530278616,124.75805975183904L198.37873958689826,137.59471273209329L198.68822279998233,147.63953550560473L198.8945449420384,152.6709327421304L199.20402815512247,151.85300833973997L199.30718922615048,110.1430568104388L199.41035029717855,136.5208582403011L199.51351136820657,146.6108465729394L199.6166724392346,134.30986657634094L199.82299458129066,150.53803253591468L200.0293167233467,144.3121898553909L200.3387999364308,146.6356288558518L200.44196100745884,150.3598788238878L200.64828314951487,135.1076015981289L200.7514442205429,147.43146127694672L200.85460529157095,156.44365661317352L201.164088504655,114.6521719790144L201.3704106467111,142.83838930836282L201.4735717177391,151.63938384918765L201.57673278876712,147.77957661139226L201.67989385979516,153.62985560989273L202.40202135699136,149.8186313413862L202.5051824280194,147.37704932082124L202.8146656411035,143.36845143774553L203.33047099624363,144.7957897487413L203.74311528035574,142.43973993003237L204.3620817065239,151.34955838310816L204.46524277755194,155.85794644313864L204.67156491960796,143.25105976313807L205.0842092037201,121.2272327752771L205.18737027474813,155.2459149437709L205.29053134577615,135.3943853267947L205.4968534878322,149.09635806810456L205.6000145588602,77.62353915872154L205.70317562988828,139.66311841035804L206.11581991400035,161.94226956383318L206.5284641981125,150.28890091140966L206.73478634016854,156.38177967598494L206.83794741119658,145.16380362037125L207.66323597942082,120.68205890663194L207.76639705044883,102.87039595752505L208.0758802635329,114.21863350899456L208.385363476617,116.68120472956163L208.79800776072912,109.91096376284077L209.00432990278514,114.76838816147394L209.41697418689728,124.03451403860345L209.93277954203742,122.13453093633689L210.03594061306543,139.09889429783107L210.44858489717754,127.33734401237143L210.5517459682056,125.47188644752168L210.86122918128967,121.72485374507232L210.96439025231768,134.84601218055104L211.06755132334575,128.51454486537477L211.37703453642982,136.56524821697985L211.6865177495139,134.21731777702462L211.78967882054192,115.17325431786503L211.99600096259798,126.28077046700126L212.20232310465406,144.80487860555513L212.30548417568207,130.39117566486766L212.40864524671008,122.45457988094131L213.1307727439063,143.46195759664624L213.33709488596233,139.83859393924376L213.44025595699037,136.03809452177757L214.05922238315856,137.0706250112562L214.16238345418657,132.36894726298488L214.2655445252146,139.47119810987715L214.36870559624262,126.00106392817453L214.47186666727066,140.1853035305021L214.6781888093267,150.555640681182L214.9876720224108,135.83979990305124L215.709799519607,136.30870008531474L215.81296059063502,135.82577882660644L215.91612166166308,148.78199268862772L216.8445713009153,138.9415237717185L217.1540545139994,113.29132774446862L217.2572155850274,144.36240881890626L217.66985986913954,151.04200358700382L217.77302094016756,142.38650346605482L217.8761820111956,147.48640644600528L217.97934308222364,140.96019522549796L218.2888262953077,127.39068954263075L218.39198736633574,150.28196914327964L218.49514843736378,142.80879599057698L218.5983095083918,142.34648825912245L219.0109537925039,133.83883354234513L219.11411486353194,147.0148886729794L219.21727593455995,145.43099177374643L219.52675914764404,150.95066663526268L219.7330812897001,141.83765769925685L219.93940343175618,143.10342037305418L220.1457255738122,147.6130808730386L220.24888664484024,147.64810326796123L220.35204771586828,148.69106776506214L220.55836985792433,137.74580588776644L220.66153092895235,143.02735270076028L221.1773362840925,141.13386510149667L221.48681949717658,101.58664946571207L221.69314163923264,102.82114647206981L222.00262485231673,65.09036916671903L222.31210806540082,141.17777033914535L222.41526913642883,141.13547685877165L222.62159127848489,151.63068278359788L222.82791342054097,147.0733118445787L223.44687984670912,132.85870334201718L223.55004091773714,149.0693338671781L223.75636305979322,127.54419427497852L223.96268520184927,154.9971832289657L224.89113484110152,124.12986220581843L224.99429591212953,138.47871918275814L225.09745698315754,135.17822807481025L225.2006180541856,140.38472516747333L226.43855090652193,144.42805460205363L226.644873048578,137.95346808824888L226.85119519063406,144.2855534456885L227.05751733269008,149.16571210483198L227.47016161680222,147.26255396191846L227.57332268783023,142.5184130746129L227.6764837588583,139.12784533640206L227.7796448298863,149.12762373554415L227.88280590091432,139.82122816349147L227.98596697194236,146.1111654622664L228.08912804297037,123.48585004894176L228.29545018502645,138.50374383518556L228.39861125605447,143.99182583041693L228.50177232708248,142.79878612960601L228.70809446913856,132.7612223230699L229.2238998242787,140.78883997836783L229.53338303736277,132.7847442845041L229.73970517941885,118.20717531470109L229.84286625044686,149.35259111940013L230.0491883925029,145.5146092564337L230.358671605587,145.05740340327065L230.6681548186711,146.15572509760568L230.87447696072715,143.74114304101568L231.18396017381124,143.821779378668L231.4934433868953,148.20741939780874L231.59660445792335,138.42828208667925L231.9060876710074,152.2277358469364L232.1124098130635,146.61284612143845L232.2155708840915,150.07738503563814L233.04085945231574,148.6862809671402L233.14402052334378,157.4952979389127L233.3503426653998,146.32020916898455L233.86614802053995,145.0516350088128L234.3819533756801,143.05981809729929L234.48511444670814,149.9324723025984L234.58827551773618,139.96273560484497L234.7945976597922,140.3275865543037L234.89775873082024,146.9941781979196L235.1040808728763,146.01090931237195L235.31040301493235,141.31937472830487L235.61988622801644,149.05378586278857L235.72304729904448,137.01741278423015L236.13569158315659,158.33851360019707L236.65149693829673,145.6569165171868L236.85781908035278,146.17541762070232L237.47678550652097,136.22292551394366L237.57994657754898,139.88008760021785L237.683107648577,140.93988466013798L237.78626871960503,140.78331395342502L237.88942979063307,146.56089421589058L238.19891300371714,146.18566985118832L238.40523514577322,138.3548925975265L238.71471835885728,151.27990138448695L238.8178794298853,142.6425062663111L239.1273626429694,151.80300750878814L239.33368478502547,143.62864723061193L239.54000692708152,145.44226195619558L239.64316799810953,136.1252384809086L239.74632906913757,142.66744608940826L240.15897335324968,138.9835385271499L240.5716176373618,153.33317108653773L240.67477870838982,146.63524106462773L240.77793977941784,138.90275676778856L241.19058406352997,154.428111726138L241.293745134558,129.74579412023104L241.50006727661406,140.06787550046738L241.60322834764207,141.57038471655142L241.80955048969815,141.67918439185087L241.91271156072617,135.17982771360948L242.0158726317542,153.05340395533221L242.22219477381023,144.30001078726036L242.3253558448383,145.98794480082233L242.4285169158663,150.04092054210105L242.53167798689432,152.20186290120637L242.84116119997842,139.2293860447262L243.04748334203447,135.36839119630713L243.15064441306248,145.8979893553169L243.7696108392307,148.12761923498329L243.8727719102587,154.8358984351853L243.97593298128672,147.74869873517673L244.38857726539885,138.35894016842758L244.5948994074549,135.8811481423163L244.80122154951096,152.53858686844524L245.2138658336231,145.14615911967667L245.93599333081926,151.03324192903528L246.24547654390335,149.88827622153167L246.4517986859594,142.92498793608502L246.65812082801548,144.1477421394393L246.7612818990435,140.03310759353553L246.96760404109955,150.6213834121354L247.17392618315563,149.39126117552405L247.38024832521165,146.98647084734148L247.4834093962397,156.30133723394465L247.5865704672677,138.70968521211125L247.8960536803518,151.7599990383451L247.9992147513798,145.74876244490952L248.30869796446393,143.60655524931644L248.41185903549194,145.17285612175783L248.72134224857604,146.25257595581388L249.0308254616601,141.15098850773393L249.4434697457722,140.00544111339423L250.06243617194042,142.7505909515412L250.16559724296843,119.40005747532723L250.4750804560525,140.0898584154811L250.57824152708054,135.8562931485494L250.7845636691366,132.54498024175518L250.99088581119264,128.34894589422674L251.09404688222068,147.3515035739365L251.30036902427673,148.12215380241923L251.40353009530475,152.3801014425635L251.60985223736083,138.2407486744205L251.71301330838884,146.683169636226L251.81617437941688,149.86777176055966L251.9193354504449,152.89074977379187L252.12565759250097,148.88187316577387L252.33197973455702,153.69710103183934L252.43514080558504,141.87935737431872L252.84778508969714,149.5432632168786L252.95094616072518,153.15673819806761L253.15726830278123,152.87726191028014L253.4667515158653,149.01180746278442L253.67307365792138,147.24810873882234L253.98255687100547,154.97175866683847L254.60152329717366,130.01041315674684L255.2204897233418,149.68912119102697L255.63313400745392,133.9518746841577L255.942617220538,146.9716620699728L256.4584225756782,138.59441427076035L256.6647447177342,142.28289049837713L256.9742279308183,150.86054153109671L257.59319435698643,156.98343776010915L257.6963554280145,160.6717443290654L257.9026775700706,133.38210030973642L258.2121607831546,136.95602058607165L258.5216439962387,145.1490675538571L258.6248050672667,145.14314161921448L258.72796613829473,146.9520907316337L259.656415777547,140.80667837467445L259.759576848575,144.10913267569413L259.8627379196031,142.91754719197343L259.9658989906311,149.31298794064332L260.1722211326871,149.5266730235744L260.3785432747432,147.22921603512532L260.6880264878273,148.07266194744898L260.7911875588553,153.9934704748248L261.2038318429674,156.06028863276606L261.4101539850235,135.48325010948247L261.5133150560515,154.00838831847523L261.6164761270795,143.10503213032916L261.7196371981076,150.16340197652426L262.5449257663318,147.8944597615191L263.4733754055841,126.82766515920319L263.6796975476401,148.56306030569613L263.9891807607242,154.5214239894267L264.50498611586437,153.60495214222283L264.81446932894846,142.29419703625354L264.9176303999765,140.61239497142196L265.22711361306057,144.22708180018617L265.3302746840886,139.78080092838354L265.6397578971726,145.12468518064452L265.94924111025676,157.85320500176567L266.1555632523128,142.7559957917265L266.36188539436887,151.33094440435343L266.67136860745296,158.54143747666058L266.980851820537,161.75802025850317L267.084012891565,146.4628315101072L267.1871739625931,142.70529208918106L267.39349610464916,138.53378553657421L268.21878467287337,154.29054278940384L268.4251068149294,154.64480219105553L268.6314289569855,147.23453604598035L268.83775109904155,155.4361265391708L269.35355645418167,155.89956128887025L269.8693618093218,138.93088375000843L270.28200609343395,150.29008852203333L270.69465037754605,148.10197654029253L270.79781144857407,155.79095550918282L270.9009725196021,142.1806711554109L271.3136168037142,98.37325384299221L271.41677787474225,148.20950377563804L271.51993894577026,146.84009177873577L271.6231000167983,123.60324172354922L271.93258322988237,145.74762330818885L272.4483885850225,151.44133159997637L272.7578717981066,146.46142576692L272.96419394016266,145.22772857996188L273.37683822427476,149.26187220992233L273.4799992953028,148.18748450519706L273.58316036633084,155.48222522093056L273.68632143735886,154.60471427326866L273.8926435794149,127.85714179279239L274.09896572147096,136.77587944402148L274.40844893455505,145.6899878375134L274.71793214763915,158.3353385595501L274.82109321866716,149.10864620251687L275.02741536072324,151.8483548450513L275.23373750277926,149.95753331045307L275.9558649999755,151.8961743503678L276.26534821305955,151.98512396238584L276.36850928408757,143.4929566576193L276.57483142614365,155.26949749758387L276.78115356819967,14.944116505866978L276.98747571025575,149.24455490807304L277.09063678128376,149.75605153260403L277.29695892333984,141.26705926848445L277.60644213642394,144.48675649859524L277.81276427847996,147.91880577930442L278.12224749156405,137.52335914686682L278.32856963362013,142.08266904200627L278.43173070464815,144.9295050101864" fill="none"></path></g><g><path style="fill: none;" stroke="rgb(0, 119, 187)" stroke-width="2px" d="M278.5348917756762,134.23378678557128L278.5348917756762,134.23378678557128" fill="none"></path></g></g></g></g></g></g><g transform="translate(41, 177)" clip-path="url(#clip_1)"><clipPath id="clip_1"><rect width="288" height="22"></rect></clipPath><g><g><line x1="0" y1="0" x2="0" y2="5" style="visibility: inherit;" fill="rgb(0, 0, 0)" stroke="rgb(204, 204, 204)" stroke-width="1px"></line><line x1="20.632214205605642" y1="0" x2="20.632214205605642" y2="5" style="visibility: inherit;" fill="rgb(0, 0, 0)" stroke="rgb(204, 204, 204)" stroke-width="1px"></line><line x1="41.264428411211284" y1="0" x2="41.264428411211284" y2="5" style="visibility: inherit;" fill="rgb(0, 0, 0)" stroke="rgb(204, 204, 204)" stroke-width="1px"></line><line x1="61.896642616816926" y1="0" x2="61.896642616816926" y2="5" style="visibility: inherit;" fill="rgb(0, 0, 0)" stroke="rgb(204, 204, 204)" stroke-width="1px"></line><line x1="82.52885682242257" y1="0" x2="82.52885682242257" y2="5" style="visibility: inherit;" fill="rgb(0, 0, 0)" stroke="rgb(204, 204, 204)" stroke-width="1px"></line><line x1="103.16107102802822" y1="0" x2="103.16107102802822" y2="5" style="visibility: inherit;" fill="rgb(0, 0, 0)" stroke="rgb(204, 204, 204)" stroke-width="1px"></line><line x1="123.79328523363385" y1="0" x2="123.79328523363385" y2="5" style="visibility: inherit;" fill="rgb(0, 0, 0)" stroke="rgb(204, 204, 204)" stroke-width="1px"></line><line x1="144.4254994392395" y1="0" x2="144.4254994392395" y2="5" style="visibility: inherit;" fill="rgb(0, 0, 0)" stroke="rgb(204, 204, 204)" stroke-width="1px"></line><line x1="165.05771364484514" y1="0" x2="165.05771364484514" y2="5" style="visibility: inherit;" fill="rgb(0, 0, 0)" stroke="rgb(204, 204, 204)" stroke-width="1px"></line><line x1="185.6899278504508" y1="0" x2="185.6899278504508" y2="5" style="visibility: inherit;" fill="rgb(0, 0, 0)" stroke="rgb(204, 204, 204)" stroke-width="1px"></line><line x1="206.32214205605644" y1="0" x2="206.32214205605644" y2="5" style="visibility: inherit;" fill="rgb(0, 0, 0)" stroke="rgb(204, 204, 204)" stroke-width="1px"></line><line x1="226.95435626166207" y1="0" x2="226.95435626166207" y2="5" style="visibility: inherit;" fill="rgb(0, 0, 0)" stroke="rgb(204, 204, 204)" stroke-width="1px"></line><line x1="247.5865704672677" y1="0" x2="247.5865704672677" y2="5" style="visibility: inherit;" fill="rgb(0, 0, 0)" stroke="rgb(204, 204, 204)" stroke-width="1px"></line><line x1="268.21878467287337" y1="0" x2="268.21878467287337" y2="5" style="visibility: inherit;" fill="rgb(0, 0, 0)" stroke="rgb(204, 204, 204)" stroke-width="1px"></line><line x1="288.850998878479" y1="0" x2="288.850998878479" y2="5" style="visibility: inherit;" fill="rgb(0, 0, 0)" stroke="rgb(204, 204, 204)" stroke-width="1px"></line></g><g transform="translate(0, 8)"><text style="text-anchor: middle; visibility: hidden; font-family: Roboto, sans-serif; font-size: 12px; font-weight: 200;" x="0" y="0" dx="0em" dy="0.95em" fill="rgb(50, 49, 63)" stroke="none" stroke-width="1px">-200</text><text style="text-anchor: middle; visibility: inherit; font-family: Roboto, sans-serif; font-size: 12px; font-weight: 200;" x="20.632214205605642" y="0" dx="0em" dy="0.95em" fill="rgb(50, 49, 63)" stroke="none" stroke-width="1px">0</text><text style="text-anchor: middle; visibility: hidden; font-family: Roboto, sans-serif; font-size: 12px; font-weight: 200;" x="41.264428411211284" y="0" dx="0em" dy="0.95em" fill="rgb(50, 49, 63)" stroke="none" stroke-width="1px">200</text><text style="text-anchor: middle; visibility: inherit; font-family: Roboto, sans-serif; font-size: 12px; font-weight: 200;" x="61.896642616816926" y="0" dx="0em" dy="0.95em" fill="rgb(50, 49, 63)" stroke="none" stroke-width="1px">400</text><text style="text-anchor: middle; visibility: hidden; font-family: Roboto, sans-serif; font-size: 12px; font-weight: 200;" x="82.52885682242257" y="0" dx="0em" dy="0.95em" fill="rgb(50, 49, 63)" stroke="none" stroke-width="1px">600</text><text style="text-anchor: middle; visibility: inherit; font-family: Roboto, sans-serif; font-size: 12px; font-weight: 200;" x="103.16107102802822" y="0" dx="0em" dy="0.95em" fill="rgb(50, 49, 63)" stroke="none" stroke-width="1px">800</text><text style="text-anchor: middle; visibility: hidden; font-family: Roboto, sans-serif; font-size: 12px; font-weight: 200;" x="123.79328523363385" y="0" dx="0em" dy="0.95em" fill="rgb(50, 49, 63)" stroke="none" stroke-width="1px">1k</text><text style="text-anchor: middle; visibility: inherit; font-family: Roboto, sans-serif; font-size: 12px; font-weight: 200;" x="144.4254994392395" y="0" dx="0em" dy="0.95em" fill="rgb(50, 49, 63)" stroke="none" stroke-width="1px">1.2k</text><text style="text-anchor: middle; visibility: hidden; font-family: Roboto, sans-serif; font-size: 12px; font-weight: 200;" x="165.05771364484514" y="0" dx="0em" dy="0.95em" fill="rgb(50, 49, 63)" stroke="none" stroke-width="1px">1.4k</text><text style="text-anchor: middle; visibility: inherit; font-family: Roboto, sans-serif; font-size: 12px; font-weight: 200;" x="185.6899278504508" y="0" dx="0em" dy="0.95em" fill="rgb(50, 49, 63)" stroke="none" stroke-width="1px">1.6k</text><text style="text-anchor: middle; visibility: hidden; font-family: Roboto, sans-serif; font-size: 12px; font-weight: 200;" x="206.32214205605644" y="0" dx="0em" dy="0.95em" fill="rgb(50, 49, 63)" stroke="none" stroke-width="1px">1.8k</text><text style="text-anchor: middle; visibility: inherit; font-family: Roboto, sans-serif; font-size: 12px; font-weight: 200;" x="226.95435626166207" y="0" dx="0em" dy="0.95em" fill="rgb(50, 49, 63)" stroke="none" stroke-width="1px">2k</text><text style="text-anchor: middle; visibility: hidden; font-family: Roboto, sans-serif; font-size: 12px; font-weight: 200;" x="247.5865704672677" y="0" dx="0em" dy="0.95em" fill="rgb(50, 49, 63)" stroke="none" stroke-width="1px">2.2k</text><text style="text-anchor: middle; visibility: inherit; font-family: Roboto, sans-serif; font-size: 12px; font-weight: 200;" x="268.21878467287337" y="0" dx="0em" dy="0.95em" fill="rgb(50, 49, 63)" stroke="none" stroke-width="1px">2.4k</text><text style="text-anchor: middle; visibility: hidden; font-family: Roboto, sans-serif; font-size: 12px; font-weight: 200;" x="288.850998878479" y="0" dx="0em" dy="0.95em" fill="rgb(50, 49, 63)" stroke="none" stroke-width="1px">2.6k</text></g><line x1="0" y1="0" x2="288.850998878479" y2="0" fill="rgb(0, 0, 0)" stroke="rgb(204, 204, 204)" stroke-width="1px"></line></g></g></g></g></svg>