<svg viewBox="0 0 330 200" xmlns="http://www.w3.org/2000/svg"><g><g><g><g><g><line x1="51.53200149536133" y1="177.89999961853027" x2="46.53200149536133" y2="177.89999961853027" style="visibility: inherit;" fill="rgb(0, 0, 0)" stroke="rgb(204, 204, 204)" stroke-width="1px"></line><line x1="51.53200149536133" y1="155.662499666214" x2="46.53200149536133" y2="155.662499666214" style="visibility: inherit;" fill="rgb(0, 0, 0)" stroke="rgb(204, 204, 204)" stroke-width="1px"></line><line x1="51.53200149536133" y1="133.4249997138977" x2="46.53200149536133" y2="133.4249997138977" style="visibility: inherit;" fill="rgb(0, 0, 0)" stroke="rgb(204, 204, 204)" stroke-width="1px"></line><line x1="51.53200149536133" y1="111.1874997615814" x2="46.53200149536133" y2="111.1874997615814" style="visibility: inherit;" fill="rgb(0, 0, 0)" stroke="rgb(204, 204, 204)" stroke-width="1px"></line><line x1="51.53200149536133" y1="88.94999980926512" x2="46.53200149536133" y2="88.94999980926512" style="visibility: inherit;" fill="rgb(0, 0, 0)" stroke="rgb(204, 204, 204)" stroke-width="1px"></line><line x1="51.53200149536133" y1="66.71249985694885" x2="46.53200149536133" y2="66.71249985694885" style="visibility: inherit;" fill="rgb(0, 0, 0)" stroke="rgb(204, 204, 204)" stroke-width="1px"></line><line x1="51.53200149536133" y1="44.47499990463257" x2="46.53200149536133" y2="44.47499990463257" style="visibility: inherit;" fill="rgb(0, 0, 0)" stroke="rgb(204, 204, 204)" stroke-width="1px"></line><line x1="51.53200149536133" y1="22.237499952316284" x2="46.53200149536133" y2="22.237499952316284" style="visibility: inherit;" fill="rgb(0, 0, 0)" stroke="rgb(204, 204, 204)" stroke-width="1px"></line><line x1="51.53200149536133" y1="0" x2="46.53200149536133" y2="0" style="visibility: inherit;" fill="rgb(0, 0, 0)" stroke="rgb(204, 204, 204)" stroke-width="1px"></line></g><g transform="translate(41.53200149536133, 0)"><text style="text-anchor: end; visibility: hidden; font-family: Roboto, sans-serif; font-size: 12px; font-weight: 200;" x="0" y="177.89999961853027" dx="0em" dy="0.3em" fill="rgb(50, 49, 63)" stroke="none" stroke-width="1px">-0.1</text><text style="text-anchor: end; visibility: inherit; font-family: Roboto, sans-serif; font-size: 12px; font-weight: 200;" x="0" y="155.662499666214" dx="0em" dy="0.3em" fill="rgb(50, 49, 63)" stroke="none" stroke-width="1px">0</text><text style="text-anchor: end; visibility: hidden; font-family: Roboto, sans-serif; font-size: 12px; font-weight: 200;" x="0" y="133.4249997138977" dx="0em" dy="0.3em" fill="rgb(50, 49, 63)" stroke="none" stroke-width="1px">0.1</text><text style="text-anchor: end; visibility: inherit; font-family: Roboto, sans-serif; font-size: 12px; font-weight: 200;" x="0" y="111.1874997615814" dx="0em" dy="0.3em" fill="rgb(50, 49, 63)" stroke="none" stroke-width="1px">0.2</text><text style="text-anchor: end; visibility: hidden; font-family: Roboto, sans-serif; font-size: 12px; font-weight: 200;" x="0" y="88.94999980926512" dx="0em" dy="0.3em" fill="rgb(50, 49, 63)" stroke="none" stroke-width="1px">0.3</text><text style="text-anchor: end; visibility: inherit; font-family: Roboto, sans-serif; font-size: 12px; font-weight: 200;" x="0" y="66.71249985694885" dx="0em" dy="0.3em" fill="rgb(50, 49, 63)" stroke="none" stroke-width="1px">0.4</text><text style="text-anchor: end; visibility: hidden; font-family: Roboto, sans-serif; font-size: 12px; font-weight: 200;" x="0" y="44.47499990463257" dx="0em" dy="0.3em" fill="rgb(50, 49, 63)" stroke="none" stroke-width="1px">0.5</text><text style="text-anchor: end; visibility: inherit; font-family: Roboto, sans-serif; font-size: 12px; font-weight: 200;" x="0" y="22.237499952316284" dx="0em" dy="0.3em" fill="rgb(50, 49, 63)" stroke="none" stroke-width="1px">0.6</text><text style="text-anchor: end; visibility: hidden; font-family: Roboto, sans-serif; font-size: 12px; font-weight: 200;" x="0" y="0" dx="0em" dy="0.3em" fill="rgb(50, 49, 63)" stroke="none" stroke-width="1px">0.7</text></g><line x1="51.53200149536133" y1="0" x2="51.53200149536133" y2="177.89999961853027" fill="rgb(0, 0, 0)" stroke="rgb(204, 204, 204)" stroke-width="1px"></line></g></g><g transform="translate(51, 0)" clip-path="url(#clip_0)"><clipPath id="clip_0"><rect width="278" height="177"></rect></clipPath><g><g><g><line x1="0" y1="0" x2="0" y2="177.89999961853027" fill="rgb(0, 0, 0)" stroke="rgb(60, 60, 60)" stroke-width="1px" opacity="0.25"></line><line x1="19.890571321759904" y1="0" x2="19.890571321759904" y2="177.89999961853027" fill="rgb(0, 0, 0)" stroke="rgb(60, 60, 60)" stroke-width="1px" opacity="0.25"></line><line x1="39.78114264351981" y1="0" x2="39.78114264351981" y2="177.89999961853027" fill="rgb(0, 0, 0)" stroke="rgb(60, 60, 60)" stroke-width="1px" opacity="0.25"></line><line x1="59.671713965279714" y1="0" x2="59.671713965279714" y2="177.89999961853027" fill="rgb(0, 0, 0)" stroke="rgb(60, 60, 60)" stroke-width="1px" opacity="0.25"></line><line x1="79.56228528703961" y1="0" x2="79.56228528703961" y2="177.89999961853027" fill="rgb(0, 0, 0)" stroke="rgb(60, 60, 60)" stroke-width="1px" opacity="0.25"></line><line x1="99.45285660879952" y1="0" x2="99.45285660879952" y2="177.89999961853027" fill="rgb(0, 0, 0)" stroke="rgb(60, 60, 60)" stroke-width="1px" opacity="0.25"></line><line x1="119.34342793055943" y1="0" x2="119.34342793055943" y2="177.89999961853027" fill="rgb(0, 0, 0)" stroke="rgb(60, 60, 60)" stroke-width="1px" opacity="0.25"></line><line x1="139.23399925231934" y1="0" x2="139.23399925231934" y2="177.89999961853027" fill="rgb(0, 0, 0)" stroke="rgb(60, 60, 60)" stroke-width="1px" opacity="0.25"></line><line x1="159.12457057407923" y1="0" x2="159.12457057407923" y2="177.89999961853027" fill="rgb(0, 0, 0)" stroke="rgb(60, 60, 60)" stroke-width="1px" opacity="0.25"></line><line x1="179.01514189583915" y1="0" x2="179.01514189583915" y2="177.89999961853027" fill="rgb(0, 0, 0)" stroke="rgb(60, 60, 60)" stroke-width="1px" opacity="0.25"></line><line x1="198.90571321759904" y1="0" x2="198.90571321759904" y2="177.89999961853027" fill="rgb(0, 0, 0)" stroke="rgb(60, 60, 60)" stroke-width="1px" opacity="0.25"></line><line x1="218.79628453935896" y1="0" x2="218.79628453935896" y2="177.89999961853027" fill="rgb(0, 0, 0)" stroke="rgb(60, 60, 60)" stroke-width="1px" opacity="0.25"></line><line x1="238.68685586111886" y1="0" x2="238.68685586111886" y2="177.89999961853027" fill="rgb(0, 0, 0)" stroke="rgb(60, 60, 60)" stroke-width="1px" opacity="0.25"></line><line x1="258.57742718287875" y1="0" x2="258.57742718287875" y2="177.89999961853027" fill="rgb(0, 0, 0)" stroke="rgb(60, 60, 60)" stroke-width="1px" opacity="0.25"></line><line x1="278.4679985046387" y1="0" x2="278.4679985046387" y2="177.89999961853027" fill="rgb(0, 0, 0)" stroke="rgb(60, 60, 60)" stroke-width="1px" opacity="0.25"></line></g><g><line x1="0" y1="177.89999961853027" x2="278.4679985046387" y2="177.89999961853027" fill="rgb(0, 0, 0)" stroke="rgb(60, 60, 60)" stroke-width="1px" opacity="0.25"></line><line x1="0" y1="155.662499666214" x2="278.4679985046387" y2="155.662499666214" fill="rgb(0, 0, 0)" stroke="rgb(60, 60, 60)" stroke-width="1px" opacity="0.25"></line><line x1="0" y1="133.4249997138977" x2="278.4679985046387" y2="133.4249997138977" fill="rgb(0, 0, 0)" stroke="rgb(60, 60, 60)" stroke-width="1px" opacity="0.25"></line><line x1="0" y1="111.1874997615814" x2="278.4679985046387" y2="111.1874997615814" fill="rgb(0, 0, 0)" stroke="rgb(60, 60, 60)" stroke-width="1px" opacity="0.25"></line><line x1="0" y1="88.94999980926512" x2="278.4679985046387" y2="88.94999980926512" fill="rgb(0, 0, 0)" stroke="rgb(60, 60, 60)" stroke-width="1px" opacity="0.25"></line><line x1="0" y1="66.71249985694885" x2="278.4679985046387" y2="66.71249985694885" fill="rgb(0, 0, 0)" stroke="rgb(60, 60, 60)" stroke-width="1px" opacity="0.25"></line><line x1="0" y1="44.47499990463257" x2="278.4679985046387" y2="44.47499990463257" fill="rgb(0, 0, 0)" stroke="rgb(60, 60, 60)" stroke-width="1px" opacity="0.25"></line><line x1="0" y1="22.237499952316284" x2="278.4679985046387" y2="22.237499952316284" fill="rgb(0, 0, 0)" stroke="rgb(60, 60, 60)" stroke-width="1px" opacity="0.25"></line><line x1="0" y1="0" x2="278.4679985046387" y2="0" fill="rgb(0, 0, 0)" stroke="rgb(60, 60, 60)" stroke-width="1px" opacity="0.25"></line></g></g></g><g><g><line x1="0" y1="155.662499666214" x2="278.4679985046387" y2="155.662499666214" fill="rgb(0, 0, 0)" stroke="rgb(153, 153, 153)" stroke-width="1.5px"></line></g></g><g><g><line x1="19.890571321759904" y1="0" x2="19.890571321759904" y2="177.89999961853027" fill="rgb(0, 0, 0)" stroke="rgb(153, 153, 153)" stroke-width="1.5px"></line></g></g><g><g><g><g><g><path style="fill: none;" stroke="rgb(255, 112, 67)" stroke-width="2px" d="M21.6807227407183,-13.904123946383391L21.780175597327094,1.235582270140434L21.879628453935894,7.952749875786532L22.277439880371094,20.818705770759355L23.17251558985029,17.969669382482483L23.470874159676686,25.446635145398403L23.868685586111887,46.2879135741049L24.067591299329482,-6.107488017477796L24.266497012547084,4.412845631566821L24.365949869155884,15.211958801262236L24.564855582373482,17.66864919971421L24.76376129559108,16.931287089406762L25.161572722026282,24.228077545739126L25.26102557863508,27.375303890799167L25.360478435243877,31.33610869687355L25.45993129185268,32.43939002187047L25.55938414846148,26.74879133621384L26.156101288114275,19.00060530122612L26.355007001331874,17.698164242572147L26.454459857940673,21.91999212730099L26.553912714549476,18.56185619321896L26.65336557115827,17.236252676958348L26.95172414098467,16.824404631615867L27.05117699759347,-3.6795019875735075L27.150629854202272,13.335373537243482L27.250082710811068,28.99160268036887L27.747346993855068,25.28598826230884L28.244611276899064,39.49704374856279L28.542969846725462,42.387154720715095L28.64242270333426,27.341748943487037L29.239139842987058,40.98461404608803L30.034762695857456,41.00250384613331L30.333121265683857,35.76356400746495L30.432574122292657,28.776689189067962L31.12874411855425,38.05306818282126L31.42710268838065,58.11414450271298L31.62600840159825,52.58478057755252L32.322178397859844,66.99081663901995L32.42163125446864,59.27406277219585L32.71998982429504,41.69652833026754L32.81944268090384,47.94267873569772L33.51561267716544,48.59303010477975L33.714518390383034,59.05546205873205L33.91342410360064,47.32951559269014L34.01287696020944,34.78673215946505L34.11232981681824,45.56653437919796L34.808499813079834,38.56058880250848L35.30576409612383,26.286173411165976L35.50466980934143,-1.745848494800586L35.60412266595023,3.774726580752555L35.703575522559035,25.736322719301352L36.001934092385426,32.692496428124485L36.30029266221183,42.7197743625137L36.49919837542942,45.265622119865725L36.59865123203822,49.679088211802735L36.89700980186463,23.376399310757645L37.49372694151742,45.13323056812325L37.59317979812622,39.81408901175313L37.792085511343814,39.83254593506169L38.09044408117022,41.338466641432085L38.28934979438782,46.81145697650333L38.38880265099662,50.72497640891613L38.587708364214215,61.20644207551259L38.786614077431814,66.83436844689753L38.88606693404062,74.58392249159603L39.582236930302216,66.58040863072375L40.3778597831726,78.38108092766511L40.4773126397814,62.99969560429979L40.57676549639021,61.54203694095731L40.9745769228254,49.97800770541874L41.9691054889134,-89.60393525025886L42.2674640587398,-3.2295667965402095L42.466369771957396,25.233779401976314L42.665275485174995,28.92490762520303L42.96363405500139,15.823643678422927L43.06308691161019,-18.43123061748826L43.16253976821899,-5.490020492052107L43.460898338045396,9.836932869783631L44.45542690413339,16.350265978839545L44.65433261735099,30.298296896731827L45.251049757003784,27.419353314562706L45.54940832683018,37.36427237963093L45.64886118343898,40.826298525352364L45.74831404004778,59.04522355802449L45.84776689665658,57.93109997935135L46.046672609874186,56.29215443569603L46.444484036309376,39.35400449533002L46.64338974952698,42.007180114574226L46.84229546274457,43.43131692911081L47.04120117596217,35.066139163759175L47.53846545900617,34.01094805271765L48.135182598658965,37.284558060165864L48.83135259492057,37.047959636804386L48.930805451529366,43.65465627198025L49.42806973457336,59.936468256087466L49.52752259118216,56.02082691753433L49.82588116100857,47.875557651718545L49.92533401761737,40.94392440357408L50.02478687422616,50.15167963554986L50.42259830066136,39.45307593394815L50.52205115727016,55.774507263007635L50.720956870487754,37.956540397729505L51.01931544031416,42.066325865102456L51.417126866749356,38.54779010000038L51.516579723358156,46.77617108747339L51.616032579966955,50.155311680604086L51.715485436575754,61.21437866169796L51.914391149793346,59.82865693431073L52.21274971961975,45.38107192962839L52.31220257622855,55.738711149054154L52.41165543283735,59.129103599281166L52.71001400266375,55.95926642930938L53.008372572490146,25.994284144901147L53.60508971214295,32.47358417817795L53.80399542536055,41.71088879831263L54.10235399518694,25.362209301035797L54.201806851795745,31.083189560629915L54.40071256501334,45.8649347572036L54.500165421622135,44.273374955997646L54.99742970466614,61.53732976873418L55.09688256127494,65.34311670950217L55.494693987710136,56.56299121705826L55.693599700927734,46.735938527130884L55.99195827075413,58.66215833531938L56.38976969718934,51.56885842989331L56.78758112362453,56.59139399041393L56.98648683684213,73.23808883027675L57.38429826327733,60.243870535088206L57.48375111988613,54.45611135317244L57.58320397649493,48.947194043987466L57.78210968971252,47.458824290700186L58.279373972756524,55.2884313412943L58.378826829365316,55.0213920102977L58.77663825580052,55.803155709598975L58.87609111240932,54.057420850857184L58.97554396901812,57.58186994468902L59.97007253510611,55.08410627387893L60.46733681815011,57.966087704476514L61.163506814411704,52.76185198866449L61.26295967102051,59.435825764534805L61.76022395406451,53.58191786493581L61.85967681067331,57.47220463052799L62.058582523890905,67.3713450241915L62.2574882371085,71.51202861400773L62.6552996635437,73.20340647210594L63.550375373022895,55.26852986054414L63.749281086240494,24.762055648913236L63.84873394284929,17.934895569967196L64.14709251267568,28.4303152980333L64.7438096523285,34.726178054589894L65.53943250519889,52.674509554527944L65.63888536180768,43.491331866777095L65.73833821841649,39.438999919527795L65.93724393163409,29.741491449217744L66.03669678824289,36.84418465077299L66.33505535806928,55.25951070399604L66.43450821467809,31.25903499659215L66.93177249772208,28.841910423682172L67.03122535433089,43.59222718404387L68.12520677702767,49.02986582963158L68.42356534685408,56.70054684390717L68.52301820346288,63.31356168193681L68.72192391668047,57.31604766309139L68.92082962989807,58.758715719539104L69.21918819972447,50.63742838157433L70.31316962242127,54.08450196669308L70.71098104885647,46.36585639047498L70.81043390546526,51.38568604320215L71.00933961868286,37.213489028417825L71.30769818850926,35.42470391064187L71.50660390172686,38.34780621063742L72.00386818477085,43.465561427608826L72.10332104137966,57.70069549571096L72.70003818103245,48.93051136042191L72.89894389425005,53.48955900504728L72.99839675085884,14.564031059985727L73.09784960746765,34.01522730798207L73.19730246407644,25.86882206467715L73.29675532068525,35.51859743966964L73.39620817729404,46.63634636320771L73.59511389051166,50.024872052896306L73.79401960372925,46.21269787189744L74.29128388677324,53.67901143670857L74.39073674338204,38.79762893181997L74.49018959999086,50.59931958367374L74.68909531320845,65.60118785871082L75.08690673964364,69.31145842968317L75.28581245286124,68.34356320722762L75.48471816607884,66.34081080323246L75.88252959251405,59.068830807419914L75.98198244912284,70.80771565060655L76.08143530573163,65.97960063110865L76.47924673216683,36.35216401132995L76.87705815860204,50.60864887775855L76.97651101521083,52.623216386344986L77.27486958503724,45.76109028975265L77.47377529825482,45.45223271576248L77.57322815486363,47.096615250381745L77.67268101147242,43.07910160789102L77.77213386808124,32.50157542571648L77.87158672469003,31.345321081186405L77.97103958129884,30.695589595041422L78.16994529451642,44.40912788271643L78.26939815112523,62.57556623896236L78.76666243416922,23.048814140531075L78.86611529077801,31.008199158293642L79.16447386060443,27.504291367511094L79.26392671721322,43.6376945649748L79.56228528703961,45.79674155321963L79.76119100025721,55.499413802483595L80.15900242669242,62.718993911100654L80.35790813991002,32.82689211978765L80.55681385312762,48.83341277469419L80.7557195663452,36.2077647104511L81.05407813617163,47.12558871393465L81.45188956260681,54.115142354304375L81.55134241921562,46.49007581621045L81.75024813243321,66.62907777526738L82.0486067022596,35.05232043248764L82.44641812869482,53.032245511233555L82.9436824117388,70.33181128792172L83.63985240800041,69.3288675712478L83.7393052646092,64.66108309043686L83.9382109778268,67.70738532878474L84.03766383443559,57.74524968551549L84.1371166910444,63.385596916068906L84.23656954765319,53.799265460529234L84.4354752608708,73.72310592234972L84.7338338306972,64.88536624742393L85.13164525713239,57.12404503964143L85.23109811374118,56.491863248944135L85.6289095401764,51.76455262626057L85.92726811000279,52.61913282703418L86.32507953643798,54.6172902368919L86.62343810626439,68.35839998085065L86.7228909628732,54.08423470292738L86.82234381948199,72.90381107363747L86.92179667609079,74.68103691728918L87.02124953269958,69.55218304866818L87.22015524591718,68.30360552379376L87.31960810252598,57.24056441640784L87.41906095913478,50.79173419796786L87.6179666723524,64.39703686755794L87.71741952896119,48.708885574334566L87.81687238556998,33.19433241111939L87.91632524217879,56.328206743739436L88.11523095539638,59.31312373915145L88.31413666861397,60.73281041975542L88.41358952522278,57.73365978410932L89.10975952148438,4.034257038960826L89.40811809131077,-17.229517549740315L89.50757094791958,-3.672191825775153L89.60702380452837,9.076054976078442L89.80592951774598,5.636346285943072L90.10428808757237,31.340273042811486L90.30319380078997,36.545270282309886L90.50209951400757,40.875851255126726L90.89991094044277,27.65007825149728L91.29772236687796,33.445810894904874L91.59608093670435,20.59888503123917L91.69553379331316,1.0753557749333222L91.79498664992195,11.98117530345487L91.89443950653077,32.78370602096139L91.99389236313957,40.336555533887434L92.49115664618355,34.287653980253836L93.08787378583636,40.834550844851584L93.28677949905396,38.33005434064392L93.38623235566276,34.021064345376246L93.48568521227155,36.46212097442039L93.78404378209795,-16.63571415727716L94.08240235192434,4.808895010911016L94.18185520853315,24.523852816413303L94.48021377835956,22.55055998086891L94.57966663496835,38.469195212412714L94.67911949157715,30.025026848619813L94.87802520479474,46.307942222309734L95.07693091801234,56.82543813453795L95.67364805766515,18.03314306405228L95.97200662749154,29.95930306960097L96.07145948410033,45.066481646912855L96.36981805392675,34.560635792590084L96.46927091053554,32.86855140789216L96.56872376714435,40.393856776814445L96.76762948036193,43.60279025428852L96.86708233697074,52.08789906422098L97.46379947662354,54.56569344569983L97.86161090305873,65.74330722568337L97.96106375966754,60.157429554920824L98.15996947288512,68.61229008339504L98.35887518610272,67.73959551896591L98.55778089932033,58.18188308618398L98.65723375592913,54.01359739881186L98.75668661253793,56.51728607838215L98.85613946914673,57.43472564704364L98.95559232575553,56.4033848195866L99.25395089558192,53.49480872050414L99.45285660879952,56.59254301657145L99.65176232201713,57.416697864411155L99.95012089184353,50.84843593220956L100.14902660506112,60.28028455269796L100.24847946166992,67.23636526087283L100.34793231827872,68.24526995617758L100.74574374471392,69.90096423883678L100.94464945793152,53.64066498011531L101.04410231454032,44.72770487319047L101.24300802775791,50.67357300594571L101.54136659758431,45.31403955168276L101.93917802401951,54.985424324850456L102.23753659384592,66.14047430141272L102.53589516367231,52.65038514983005L102.6353480202811,53.624176171866495L102.83425373349871,52.89360146785374L103.03315944671631,74.33482719146973L103.23206515993391,68.57994877968572L103.7293294429779,46.25246393822422L104.0276880128043,52.6216841494779L104.12714086941311,58.6411813361618L104.2265937260219,51.090469076094585L104.5249522958483,59.84670331498208L105.3205751487187,76.60931729705824L105.4200280053275,68.24040834348362L105.5194808619363,79.4262075412093L105.71838657515389,75.93572476866473L106.1161980015891,55.58925420138295L106.3151037148067,56.19103283004289L106.41455657141549,61.95768472138529L106.81236799785069,66.96151134680251L107.01127371106828,69.68016720173755L107.11072656767708,70.00968380190375L107.4090851375035,70.18290724563988L107.6079908507211,85.56721484496862L107.80689656393868,87.38280932616169L108.10525513376508,77.90917539593373L108.30416084698268,80.74155759165657L108.40361370359149,76.41158850752647L108.60251941680909,74.81389066125396L108.70197227341788,78.72583543075508L109.00033084324427,75.14209339424323L109.29868941307069,66.98241117254966L109.39814226967948,73.55552464009845L110.09431226594107,72.40227396048122L110.19376512254988,71.68306417761437L110.29321797915867,77.9362167765697L110.39267083576746,70.04916900111603L110.59157654898507,65.87091827712268L110.69102940559388,79.4422752163445L110.88993511881147,83.88878916135356L110.98938797542027,75.71748140274818L111.08884083202906,73.83048017324424L111.38719940185547,60.29473093239457L111.48665225846426,47.20475328874986L111.58610511507307,71.01203913214715L111.68555797168187,71.23067912504402L111.88446368489947,24.85008713829932L112.48118082455225,39.7421697002351L112.58063368116107,37.19253526815947L112.87899225098747,71.37758333050589L113.57516224724905,86.32545564734657L113.87352081707546,77.47810174420032L114.56969081333705,76.48940567076836L114.66914366994585,66.95907346440725L114.76859652655466,58.91973954403438L114.96750223977226,42.04972481998476L115.06695509638105,46.554734016960765L115.16640795298986,48.830141390459126L115.46476652281625,52.193548641639545L115.56421937942504,54.65170346324876L115.76312509264264,62.87665172935635L115.96203080586025,66.28191458373095L116.06148366246904,73.08661152781713L116.45929508890424,66.97686490233197L116.55874794551305,63.96418421364564L116.95655937194823,66.62320056340478L117.05601222855705,54.77272677634637L117.15546508516584,73.43858603920064L117.25491794177465,66.39063004644603L117.55327651160104,56.70028437867366L117.65272936820983,65.32618153293242L117.75218222481864,51.66001218924069L118.05054079464504,61.93883469633686L118.14999365125384,65.42700587758115L118.94561650412423,54.83094384876273L119.34342793055943,34.76999782821017L119.54233364377703,46.138141988857484L119.74123935699463,65.95435699997023L119.84069221360343,67.52140892757785L120.13905078342982,59.43922167751192L120.23850364003863,65.00097856866581L120.43740935325623,72.33292156073969L120.53686220986503,77.84741278660825L120.63631506647383,76.69801871051611L120.73576792308262,83.29163239336745L121.03412649290902,75.99056409435009L121.82974934577942,78.22220505206927L122.02865505899702,68.10833403147087L122.22756077221462,71.84284640957392L122.42646648543223,63.02649333979442L122.52591934204102,51.079180225934095L122.62537219864981,56.627281561936464L122.82427791186741,61.54861952230549L123.02318362508501,64.67215723117948L123.1226364816938,67.52157592111399L123.22208933830261,60.876699205682584L123.52044790812901,62.335097780881554L123.71935362134661,77.26564120301266L124.4155236176082,72.2722967304374L124.514976474217,30.731857072234625L124.81333504404341,48.63675837444284L125.01224075726101,62.01462539771446L125.6089578969138,74.83023169848221L125.7084107535226,71.0504049358043L125.9073164667402,69.71248487311496L126.1062221799578,76.15195472824323L126.504033606393,61.79271390375598L126.9018450328282,53.99691234022156L127.10075074604579,69.87647292558461L127.29965645926339,71.0077040835133L127.5980150290898,65.9057056528716L127.69746788569859,55.28800263678869L127.79692074230738,60.109243082317L127.8963735989162,79.49129150291503L128.49309073856898,88.85584120346556L128.5925435951778,98.61416678948054L129.18926073483058,82.46822070533464L129.38816644804817,58.46161851062538L129.58707216126578,59.22751401505432L129.68652501787457,64.3339039455749L129.7859778744834,78.30032419012068L130.68105358396258,77.63846455941606L130.87995929718016,78.13794973628556L131.17831786700657,81.64025291521988L131.57612929344177,83.29917829051448L131.77503500665938,79.83280234470979L131.87448786326817,78.72262108770835L132.27229928970337,90.89438435668191L132.37175214631216,84.28106079360127L132.57065785952977,85.36827177400005L132.67011071613857,94.45552196392931L132.7695635727474,87.92206428615864L133.06792214257376,79.31989576674218L133.16737499918256,81.80809011517381L134.16190356527056,66.17258381671344L134.36080927848815,75.42106014863947L134.46026213509697,82.91341624544701L134.75862070492335,98.63678703873623L134.85807356153214,93.71766032513975L134.95752641814096,98.0278175263127L135.25588498796736,68.55227281321763L135.35533784457616,68.97600655438002L135.45479070118495,76.52669319027304L136.94658355031694,59.013893545875774L137.24494212014335,72.94265695970006L137.44384783336093,75.55479824855622L137.54330068996975,28.06545098976314L137.74220640318734,26.255141749195044L137.84165925979613,55.06948454634544L138.14001782962254,29.345455191647577L138.43837639944894,48.18553849822844L138.53782925605773,51.60827036798762L138.63728211266653,45.68345649067013L138.73673496927535,53.32834075450469L138.93564068249293,54.7822908655554L139.13454639571054,56.168981161567L139.33345210892813,55.995160715669364L139.53235782214574,63.241626818026894L139.63181067875453,71.50989132660338L139.83071639197212,71.66606904918653L140.02962210518973,62.35756576085469L140.22852781840731,68.59597849075064L140.3279806750161,66.18680546057068L140.42743353162496,90.92754926106002L140.52688638823375,62.665626086612924L140.62633924484254,71.53717676533951L141.62086781093052,74.60077074311545L142.01867923736572,78.09193531752396L142.41649066380091,64.68117120306383L142.51594352040973,73.65332142296576L142.61539637701853,72.56032428877094L142.81430209023614,77.32527396518485L143.11266066006252,73.40779852342982L143.41101922988892,79.51950286245476L143.6099249431065,91.27662579279263L143.80883065632412,83.15969473866463L143.9082835129329,75.63490029953799L144.1071892261505,75.00545614823928L144.5050006525857,49.51937621915668L144.60445350919449,34.73168870912999L144.70390636580333,63.48723046877502L144.90281207902092,73.47446477901758L145.0022649356297,74.14195961701057L145.30062350545612,74.08580432950423L145.4000763620649,75.66829811357637L145.4995292186737,44.25195074460831L145.59898207528252,56.570601409568525L145.7978877885001,61.11139111498167L146.2951520715441,68.10543381791743L146.5935106413705,55.55387752197052L147.09077492441452,59.007981488734345L147.2896806376321,72.02887510619982L147.6874920640673,82.25763690154294L147.88639777728488,63.87004271065333L148.28420920372008,61.891230483866075L148.38366206032887,66.79981328236784L148.4831149169377,67.36174920066L148.5825677735465,71.8105804367059L148.78147348676407,62.74046480364393L149.0798320565905,71.58439159480777L149.1792849131993,70.39019126216526L149.3781906264169,71.9404168038549L149.4776434830257,79.11456078324674L149.5770963396345,82.81817716638389L150.17381347928728,75.71942212919184L150.3727191925049,80.34459405141928L150.47217204911368,63.16728468546729L150.67107776233127,70.36637774276572L150.77053061894009,79.68380010479731L151.06888918876646,87.66225748906845L151.16834204537525,73.99267256619508L151.66560632841927,70.71517675395869L151.7650591850281,74.73394520911162L151.86451204163689,77.10072655306361L152.16287061146326,88.17503189606794L152.36177632468087,83.64434890988333L152.46122918128967,69.81315105338193L152.56068203789846,69.5714558548931L152.66013489450728,78.46196592487243L152.75958775111607,78.65185025142594L152.85904060772486,68.23711959800484L153.45575774737767,72.09017139658823L153.95302203042166,58.87468280950753L154.05247488703048,64.98910000644779L154.15192774363928,69.90097717793938L154.64919202668327,68.61176914219335L155.04700345311846,75.08854620719511L155.24590916633605,40.75790168350802L155.34536202294484,47.69941005732734L155.74317344938007,22.30288933693524L156.14098487581526,49.859550191498776L156.83715487207684,62.30525280148674L157.03606058529445,74.22889428291043L157.33441915512083,49.03067833028333L157.53332486833844,-13.763034690757202L157.63277772494723,7.733511046845406L157.93113629477367,28.184249720321898L158.03058915138246,38.425591250029726L158.22949486460004,58.33915345032996L158.32894772120886,54.180191792017936L158.62730629103524,52.309254100758764L160.31800485338485,59.800781260499L160.41745770999364,62.30451459259238L160.51691056660243,66.89805467785729L160.61636342321123,65.81438704743672L161.01417484964642,69.81430237534613L161.31253341947283,80.72443071884912L161.41198627608162,82.01334517868149L161.71034484590803,67.61979015438615L161.80979770251682,71.79156055115158L161.9092505591256,75.38364317470403L162.30706198556084,83.67208248689197L162.40651484216963,84.98176228673911L162.50596769877842,84.2389323807354L162.70487341199603,84.85295424177042L162.90377912521362,77.18989072597127L163.10268483843123,86.99672502052996L163.30159055164881,87.21879651590228L163.8983076913016,104.86871423613165L164.0972134045192,106.81259045988976L164.59447768756323,91.89072885446781L164.69393054417202,86.78221763728655L165.5890062536512,87.50163362897474L165.68845911026,78.83222802820386L166.78244053295683,90.31449525739407L167.180251959392,83.05453140408454L167.27970481600082,88.31834229335398L167.5780633858272,80.55955528162332L167.67751624243598,72.75718914751246L167.9758748122624,80.0648869281127L168.17478052548,80.68105538164406L168.2742333820888,87.23147447501545L168.3736862386976,103.68368491283651L169.0698562349592,94.52241965250488L169.169309091568,70.7206945417951L169.2687619481768,69.59129398385181L169.3682148047856,68.46818037396238L169.666573374612,76.85421192405238L169.86547908782958,78.51970759629636L169.96493194443838,79.29893385869282L170.0643848010472,86.14830472485265L170.163837657656,78.07304754748525L170.66110194069998,70.4729759114619L170.8600076539176,57.94019000496819L171.35727193696158,71.53602327667214L171.4567247935704,79.01853360787975L171.75508336339678,72.73658641037368L172.45125335965838,83.9922074801678L172.65015907287597,87.79789476671144L173.64468763896397,84.18713994409498L173.84359335218159,77.72746404227685L173.94304620879038,73.41863127936196L174.14195192200796,72.08576510819049L174.24140477861675,66.61742079982926L174.44031049183437,73.80531585191244L174.53976334844316,78.93828093205268L175.13648048809594,75.57283880529282L175.2359333447048,94.59495209022884L175.83265048435757,89.58332522782777L175.93210334096636,87.47845601939675L176.82717905044555,87.44199960218899L177.22499047688075,77.3980016408407L177.42389619009836,77.05091327051903L177.82170761653356,78.44821172762033L178.41842475618634,74.44379037386142L178.71678332601275,79.30841061594104L178.91568903923033,79.80837249266855L179.21404760905673,75.39032253183512L179.41295332227432,82.07471116455862L179.51240617888317,75.69094671731237L179.91021760531834,77.16529139818331L180.00967046192716,66.19212570896768L180.20857617514474,84.75378570218861L180.30802903175353,84.1353359054703L180.50693474497115,75.3640415982015L180.80529331479752,77.26028258817746L180.90474617140634,90.0836359032171L181.00419902801514,94.79176680549905L181.40201045445033,85.38639786361392L181.60091616766792,95.31731400226872L181.7003690242767,95.96528517029256L181.79982188088553,94.16858597730653L181.99872759410314,93.30929623868006L182.19763330732073,89.11813378814702L182.39653902053834,91.42506122428017L182.69489759036472,85.89511564267329L182.99325616019112,94.96983731712459L183.09270901679992,96.64277789179953L183.1921618734087,94.3052580670619L183.4905204432351,82.16619474355859L183.68942615645273,76.10746960145426L183.78887901306155,87.87440573657787L184.08723758288792,96.77027279907288L184.18669043949674,98.2754464541792L184.48504900932312,100.12915209853873L184.88286043575832,77.32872423898007L184.9823132923671,74.43756807108664L185.0817661489759,89.1734696799339L185.7779361452375,89.84679973610532L185.9768418584551,59.94289247523102L186.07629471506394,78.66494841050623L186.17574757167273,78.6907720908061L186.4741061414991,73.08862151376638L186.57355899810793,86.22882423521564L186.7724647113255,58.959754911203305L187.1702761377607,63.205825640869165L187.2697289943695,71.19283872450869L187.3691818509783,82.6846284963283L187.6675404208047,78.68147948186198L188.0653518472399,85.26105712062854L188.1648047038487,84.97162372286145L188.3637104170663,88.3670331619144L188.46316327367512,89.53732307006406L188.5626161302839,83.34051049795323L188.6620689868927,76.2435593918379L188.86097470011032,94.49025747488935L189.1593332699367,91.35323553527772L189.2587861265455,92.33286442099289L189.3582389831543,88.78544783370297L189.4576918397631,80.60227792468189L189.8555032661983,68.44757209378753L189.9549561228071,68.27298711998104L190.4522204058511,84.16686623540768L190.6511261190687,87.54741683196654L190.7505789756775,97.41712526957878L190.8500318322863,96.71067939172033L191.2478432587215,77.86392518867996L191.54620182854788,69.07518713532099L191.7451075417655,56.476170822088385L192.04346611159187,74.55459962445322L192.14291896820066,101.59751387298449L192.24237182480948,103.0245882645366L192.34182468141827,97.082799912771L192.44127753802707,90.94815635689899L192.6401832512447,85.59892044660847L192.8390889644623,90.4474495278916L193.1374475342887,107.42030698872921L193.2369003908975,92.26610293663255L193.43580610411507,98.27763760096941L193.53525896072387,90.44301028897398L193.6347118173327,98.73060508596122L193.93307038715906,95.08221824486431L194.13197610037668,84.00490676296971L194.23142895698547,74.35322877596046L194.33088181359426,79.97213273053943L194.43033467020305,87.42670840630352L195.12650466646468,77.1626321650812L195.22595752307348,83.11409554587512L195.52431609289988,87.75042731153111L196.02158037594387,80.20585656508172L196.41939180237907,84.71141514081818L197.01610894203188,87.33991226055257L197.11556179864067,92.39020696141046L197.31446751185825,96.01749743764246L197.71227893829345,86.28826873795832L197.81173179490227,86.90068457907051L197.91118465151106,77.91127869346423L198.11009036472865,65.55633620018894L198.20954322133744,57.1054785466297L198.30899607794626,63.312005460922L198.70680750438143,72.88848001754631L199.10461893081663,79.57318950595126L199.30352464403427,67.6624830313677L199.40297750064306,95.414371102518L200.19860035351346,98.38042416974508L200.29805321012225,100.15071815646107L200.59641177994862,82.22949277062311L200.89477034977503,95.15598365211989L201.29258177621026,98.21019532026466L201.49148748942784,92.2420450890429L201.88929891586304,82.83162770542721L202.38656319890703,90.2868140275576L202.48601605551582,90.35243240289095L202.88382748195102,89.32063431478491L202.98328033855984,95.54207336303851L203.2816389083862,87.1987102124107L203.381091764995,80.17385764753428L203.48054462160385,84.65648143491666L203.77890319143023,85.12218589068546L204.07726176125664,81.17822395295363L204.17671461786543,87.4675161912217L204.375620331083,96.39053673651811L204.57452604430063,79.868423527957L204.67397890090942,86.4786419998223L204.7734317575182,55.84445330967011L205.4696017537798,70.66354206205737L205.66850746699743,73.64268789685377L205.76796032360622,86.83945390091404L206.36467746325903,85.85474289068L206.46413031986782,89.93730988910862L206.5635831764766,90.59248707612329L206.6630360330854,94.74154320607175L206.76248888969423,83.48168395648564L206.9613946029118,78.19504156696169L207.25975317273821,97.69250173342678L207.95592316899982,94.40759178546759L208.0553760256086,82.21856065092906L208.15482888221743,80.38287668065713L209.0499045916966,84.21971297764176L209.348263161523,78.18175287816679L209.44771601813179,80.53193190442227L209.84552744456698,81.49318082459126L209.94498030117578,83.25726245412686L210.04443315778462,77.28819522491716L210.14388601439342,83.27104980115544L210.4422445842198,88.5499636985812L210.5416974408286,79.68999221726953L210.6411502974374,88.05039674851025L210.7406031540462,78.31286123272947L211.1384145804814,89.42935865824626L211.2378674370902,88.31039501660332L211.33732029369898,83.25202825334706L211.63567886352538,77.84321844299326L211.83458457674297,72.64805882595145L212.03349028996058,76.38566866233L212.2323960031782,93.10126615380402L212.331848859787,75.99500494135503L212.4313017163958,88.77124158323429L212.6302074296134,95.15078933379819L212.72966028622218,98.9447466324841L213.22692456926617,93.45235816418169L213.52528313909258,85.99658987172471L213.72418885231016,84.64931239341323L214.02254742213657,91.29908760476843L214.320905991963,89.50746009495998L214.4203588485718,84.34699435605656L214.61926456178938,84.94795355570453L214.818170275007,87.53325778912286L215.41488741465977,96.40345662405237L215.51434027126857,96.6817458897678L215.71324598448618,61.322519347110074L215.91215169770376,66.29064838464377L216.80722740718298,69.70567966853055L216.90668026379177,87.1598864023063L217.00613312040056,75.59898732607601L217.10558597700938,94.79466518012028L218.29902025631495,101.32205811460636L218.49792596953256,59.27496057609334L218.69683168275017,72.95531529520954L218.89573739596776,65.40345003279126L219.29354882240295,56.452203189019464L219.39300167901175,64.99938474249844L219.49245453562057,64.37202361627948L219.59190739222936,77.54454757006452L219.69136024883815,83.38538110775642L219.79081310544694,84.6058276548063L219.89026596205574,89.59557098132854L220.08917167527335,87.10330537042728L220.18862453188214,66.8457207991789L220.28807738849093,78.20241686455208L220.48698310170855,84.60811382439088L220.98424738475256,82.2066273361152L221.28260595457894,86.63738310142432L221.48151166779655,53.730906567424846L221.58096452440535,60.28788528266076L221.77987023762293,70.99839316632686L222.07822880744934,72.47974704937144L222.37658737727574,80.54442617925882L222.57549309049332,61.75807696402603L222.87385166031973,75.446757077628L223.17221023014613,74.57052361550167L223.27166308675496,74.68609857684301L223.57002165658133,64.95612898039161L223.76892736979894,83.82101284017199L223.86838022640774,83.62048593288804L224.66400307927813,91.12391954686457L224.76345593588692,89.4212921063656L224.9623616491045,83.40237738164095L225.45962593214853,91.8328647857144L225.95689021519252,103.41852235477883L226.05634307180134,69.79304739413583L226.15579592841013,72.27725912803962L226.3547016416277,73.84680734043795L226.4541544982365,83.16943286439779L226.65306021145412,71.60006503567065L226.8519659246717,77.02665612369422L227.1503244944981,79.79429868960237L227.2497773511069,81.00845662405833L227.64758877754213,82.25888769742069L228.14485306058612,87.21426083562591L228.3437587738037,87.2927553980908L228.9404759134565,93.85426090745075L229.0399287700653,98.75763007457981L229.1393816266741,91.32139140260105L229.2388344832829,73.99384877016702L229.3382873398917,89.13415523237586L229.6366459097181,92.92210602955443L229.83555162293572,92.72724961069187L230.1339101927621,89.91878063764429L230.2333630493709,43.372686132740554L230.5317216191973,68.2358803910564L230.7306273324149,74.12153303527184L230.9295330456325,78.2634890281981L231.0289859022413,90.14199992807349L231.12843875885008,86.8118953729756L231.52625018528528,79.70544483342833L231.9240616117205,79.24223070994623L232.0235144683293,83.57187888380864L232.1229673249381,86.11132376532149L232.52077875137329,91.82069120091151L232.6202316079821,100.7585652828421L232.8191373211997,107.19003325664436L232.91859017780848,99.68642288975786L233.1174958910261,92.01721989719213L233.2169487476349,94.41999227942445L233.31640160424368,100.11276493091158L233.51530731746126,68.365283373199L233.61476017407008,84.1671221536256L233.71421303067888,83.63605020074776L233.81366588728767,92.71129572378736L234.1120244571141,97.57457347763365L234.3109301703317,94.02782809101136L234.41038302694048,88.55343078792878L235.0071001665933,91.8806236873918L235.10655302320208,72.10157906235682L235.20600587981087,82.33720305301927L235.60381730624607,-5.635238182913728L235.80272301946366,25.02124485042702L236.0016287326813,44.13337400609724L236.3994401591165,61.23914044171446L237.09561015537807,76.56754223789608L237.39396872520447,90.87824644606933L237.59287443842206,96.44119125996745L237.79178015163967,78.25353282517067L237.89123300824846,76.78840413386934L238.09013872146605,78.68561593808444L238.2890444346837,77.27627965034115L238.48795014790127,80.68820364340235L238.58740300451007,85.97220404864571L238.68685586111886,75.81259490909979L238.98521443094526,80.99882019303757L239.08466728755405,77.5670647112804L239.38302585738046,81.20880485660233L239.48247871398925,84.13138695209595L239.78083728381566,98.99776262473796L240.07919585364203,95.30987786002503L240.47700728007726,89.01440941957931L241.07372441973007,65.7472053446142L241.17317727633886,64.41227600691815L241.47153584616524,77.30804763263353L241.57098870277406,82.51035426217099L241.76989441599164,95.49634356282775L241.96880012920923,82.1834667678472L242.06825298581805,85.0926275064653L242.26715869903563,80.50243334566039L242.36661155564443,82.63534782017932L242.56551726886207,87.29904717663867L242.66497012547086,100.29732439813822L242.76442298207965,101.19899814972602L242.86387583868844,100.64833507498969L243.06278155190606,98.71313330932655L243.26168726512364,91.44486246534616L243.36114012173243,91.73910827585198L243.75895154816763,89.6830591281441L243.85840440477642,76.08181696140446L244.05731011799404,77.88863195660957L244.3556686878204,91.6252806540322L244.55457440103802,97.21012762421832L244.85293297086446,90.28943526229595L245.44965011051724,92.17998298679866L246.04636725017002,93.55156600366143L246.44417867660522,95.88634943954939L246.74253724643162,84.71354312517698L247.23980152947564,65.88509977639714L247.43870724269323,71.47673694007669L247.73706581251963,71.31074268899688L248.3337829521724,81.31531876815237L248.4332358087812,89.15258218644284L248.63214152199882,87.2498011949873L248.9305000918252,91.37039816078202L249.22885866165163,93.85216179225169L249.32831151826042,92.83656772222076L249.4277643748692,92.519586170618L250.3228400843484,82.5563240895335L250.4222929409572,85.46988828908522L250.521745797566,67.93449355864713L250.6211986541748,70.80287726400157L250.8201043673924,77.84689229193418L251.01901008061,82.17489768626587L251.31736865043638,84.62805040481516L251.4168215070452,81.43070771947511L251.8146329334804,82.86441792292153L252.013538646698,81.14849127433173L252.1129915033068,48.430620855655995L252.2124443599156,67.90927636224006L252.3118972165244,66.80553212090035L253.10752006939478,84.67957448694156L254.002595778874,83.27919395536992L254.20150149209158,92.34083621905386L254.49986006191799,89.41029885484255L254.99712434496197,81.16087319746609L255.29548291478838,90.11366213363449L255.39493577139717,98.46235589343979L255.6932943412236,89.21302621941152L255.7927471978324,90.45835320201233L256.09110576765875,101.48919039867094L256.38946433748515,94.04001410530346L256.58837005070274,90.579359695845L256.7872757639204,87.758756684861L257.0856343337468,97.42265107366413L257.3839929035732,84.03342824030254L257.48344576018195,93.76383625734027L257.58289861679077,92.94351015073403L257.78180433000836,98.50203553577053L258.57742718287875,78.925407415676L258.77633289609633,90.973575215417L258.975238609314,58.77582848954091L259.17414432253156,62.85021228858361L259.67140860557555,71.15984702935755L260.16867288861954,79.29745633788964L260.56648431505477,82.10789587268836L260.96429574148993,79.9016623887294L261.06374859809875,93.68423664940883L261.1632014547076,96.76008557862448L261.56101288114274,95.85490184210641L261.66046573775157,90.71117360824196L261.75991859436033,89.3944711953646L261.85937145096915,85.92010246806392L262.15773002079555,92.68908794563349L262.65499430383954,105.33238290312777L262.95335287366595,96.45727605669673L263.15225858688353,96.19424582817135L263.55007001331876,97.61117021796574L263.6495228699275,99.68943617888362L263.74897572653634,108.7129496467496L263.84842858314516,100.34012576098493L264.04733429636275,93.1763305764997L264.24624000958033,90.57446511056358L264.54459857940674,88.81811642923607L264.84295714923314,85.4591894618035L264.9424100058419,91.28644006085138L265.14131571905955,81.47113068209056L265.34022143227713,63.31024518916372L266.03639142853876,76.35804359260186L266.3347499983651,91.23631965117146L266.43420285497393,105.16259582866711L266.6331085681915,101.00325053359752L266.8320142814091,94.70082112436606L267.03091999462674,95.72366199457403L267.1303728512355,93.27805504094859L267.3292785644531,80.66636484954107L267.62763713427955,79.27501875988193L267.82654284749714,83.09144834995756L268.12490141732354,79.5107824343544L268.3238071305411,79.80508851548107L268.42325998714995,91.10469144145233" fill="none"></path></g><g><path style="fill: none;" stroke="rgb(0, 119, 187)" stroke-width="2px" d="M268.5227128437587,67.69324488057002Z" fill="none"></path></g></g></g></g><g opacity="0.2"><g><g><g><path style="fill: none;" stroke="rgb(255, 112, 67)" stroke-width="2px" d="M20.9845527444567,-55.56794055705841L21.282911314283098,8.505813087165421L21.3823641708919,-65.0818945651449L21.6807227407183,31.35407626462154L21.780175597327094,23.309419275011862L21.879628453935894,17.85926735147882L22.277439880371094,39.923150824830174L23.17251558985029,13.721955350419819L23.470874159676686,36.62139447227332L23.868685586111887,77.48178082704975L24.067591299329482,-84.59794235864682L24.266497012547084,20.180979847847453L24.365949869155884,31.403012184516683L24.564855582373482,21.352645208348804L24.76376129559108,15.82543114010548L25.161572722026282,35.172151637653855L25.26102557863508,32.09585573943514L25.360478435243877,37.277098686036254L25.45993129185268,34.09427570542391L25.55938414846148,18.213005658673183L26.156101288114275,7.37841803339478L26.355007001331874,15.744511911784826L26.454459857940673,28.252715950226843L26.553912714549476,13.524660884645385L26.65336557115827,15.247849437681111L26.95172414098467,16.206632942972306L27.05117699759347,-34.435350584160034L27.150629854202272,38.85768118215111L27.250082710811068,52.475943279991384L27.747346993855068,19.727567077594728L28.244611276899064,60.81362596003494L28.542969846725462,46.7223210547359L28.64242270333426,4.773640665606678L29.239139842987058,61.448911488912046L30.034762695857456,41.029338546035206L30.333121265683857,27.905154278642215L30.432574122292657,18.296376984821734L31.12874411855425,51.967636654850864L31.42710268838065,88.20575895841564L31.62600840159825,44.29073469380313L32.322178397859844,88.59987072498178L32.42163125446864,47.69893197396506L32.71998982429504,15.33022667011565L32.81944268090384,57.311904343258675L33.51561267716544,49.56855715836632L33.714518390383034,74.74910998930817L33.91342410360064,29.74059589386428L34.01287696020944,15.972557009779393L34.11232981681824,61.73623770871892L34.808499813079834,28.051670437504868L35.30576409612383,7.874550324184355L35.50466980934143,-43.793881353706325L35.60412266595023,12.055589194077072L35.703575522559035,58.67871692711219L36.001934092385426,43.126756991356814L36.30029266221183,57.76069126409553L36.49919837542942,49.08439375589346L36.59865123203822,56.29928734970797L36.89700980186463,-16.077634040808846L37.49372694151742,77.76847745417108L37.59317979812622,31.83537667719804L37.792085511343814,39.86023132002458L38.09044408117022,43.59734770098768L38.28934979438782,55.020942479110175L38.38880265099662,56.595255557535324L38.587708364214215,76.92864057540724L38.786614077431814,75.27625800397495L38.88606693404062,86.20825355864376L39.582236930302216,54.57513783941536L40.3778597831726,96.08208937307722L40.4773126397814,39.927617619251805L40.57676549639021,59.35554894594361L40.9745769228254,32.631963852110886L41.9691054889134,-298.97684968377524L42.0685583455222,55.74967944439592L42.2674640587398,39.119817067244895L42.466369771957396,67.9287986997511L42.665275485174995,34.46159996004312L42.96363405500139,-3.8282522417472364L43.06308691161019,-69.81354206135511L43.16253976821899,13.921794696102125L43.460898338045396,32.82736291253727L44.45542690413339,26.12026564242342L44.65433261735099,51.22034327357021L45.251049757003784,23.10093794130907L45.54940832683018,52.28165097723327L45.64886118343898,46.019337743934514L45.74831404004778,86.37361110703267L45.84776689665658,56.25991461134163L46.046672609874186,53.83373612021309L46.444484036309376,13.946779584780984L46.64338974952698,45.986943543440546L46.84229546274457,45.567522150915636L47.04120117596217,22.518372515731784L47.53846545900617,32.42816138615538L48.135182598658965,42.19497307133821L48.83135259492057,36.69306200176223L48.930805451529366,53.564701224744056L49.42806973457336,84.35918623224829L49.52752259118216,50.147364909704635L49.82588116100857,35.65765375299492L49.92533401761737,30.546474531357433L50.02478687422616,63.96331248351352L50.42259830066136,23.405170381545588L50.52205115727016,80.25665425659689L50.720956870487754,11.229590099812299L51.01931544031416,48.231004066161915L51.417126866749356,33.26998645234724L51.516579723358156,59.118742568682876L51.616032579966955,55.224022570300164L51.715485436575754,77.80297913333875L51.914391149793346,57.75007434322987L52.21274971961975,23.709694422604883L52.31220257622855,71.27516997819285L52.41165543283735,64.21469227462168L52.71001400266375,51.204510674351695L53.008372572490146,-18.953189281711218L53.60508971214295,42.192534228093166L53.80399542536055,55.566845728514664L54.10235399518694,0.8391900551205822L54.201806851795745,39.664659950021104L54.40071256501334,68.03755255206411L54.500165421622135,41.8860352541887L54.99742970466614,87.43326198783905L55.09688256127494,71.05179712065414L55.494693987710136,43.39280297839238L55.693599700927734,31.995359492239857L55.99195827075413,76.55148804760216L56.38976969718934,40.92890857175419L56.78758112362453,64.12519733119481L56.98648683684213,98.20813109007098L57.38429826327733,40.752543092305444L57.48375111988613,45.77447258029885L57.58320397649493,40.68381808021002L57.78210968971252,45.226269660769276L58.279373972756524,67.03284191718552L58.378826829365316,54.62083301380282L58.77663825580052,56.9758012585509L58.87609111240932,51.438818562744544L58.97554396901812,62.86854358543678L59.97007253510611,51.337460767663785L60.46733681815011,62.28905985037294L61.163506814411704,44.95549841494643L61.26295967102051,69.44678642834027L61.76022395406451,44.801056015537384L61.85967681067331,63.307634778916295L62.058582523890905,82.2200556146867L62.2574882371085,77.72305399873211L62.6552996635437,75.74047325925328L63.550375373022895,28.366214943201413L63.749281086240494,-20.99765566853307L63.84873394284929,7.694155451548141L64.14709251267568,44.17344489013246L64.7438096523285,44.16997218942484L65.53943250519889,79.59700680443504L65.63888536180768,29.716565335150875L65.73833821841649,33.36050199865383L65.93724393163409,15.195228743752693L66.03669678824289,47.49822445310585L66.33505535806928,82.88249978383064L66.43450821467809,-4.741678564513734L66.93177249772208,25.216223564317204L67.03122535433089,65.7177023245864L68.12520677702767,57.186323798013134L68.42356534685408,68.20656836532059L68.52301820346288,73.23308393898131L68.72192391668047,48.31977663482327L68.92082962989807,60.92271780421072L69.21918819972447,38.455497374627186L70.31316962242127,59.25511234437117L70.71098104885647,34.78788802614787L70.81043390546526,58.91543052229295L71.00933961868286,15.9551935062413L71.30769818850926,32.741526233977964L71.50660390172686,42.732459660630724L72.00386818477085,51.14219425306594L72.10332104137966,79.05339659786421L72.70003818103245,35.77523515748837L72.89894389425005,60.328130471985304L72.99839675085884,-43.82426085760656L73.09784960746765,63.19202167997659L73.19730246407644,13.64921419971978L73.29675532068525,49.99326050215835L73.39620817729404,63.31296974851483L73.59511389051166,55.10766058742924L73.79401960372925,40.494436600399126L74.29128388677324,64.87848178392525L74.39073674338204,16.475555174487084L74.49018959999086,68.30185556145445L74.68909531320845,88.10399027126643L75.08690673964364,74.87686428614168L75.28581245286124,66.89172037354425L75.48471816607884,63.33668219723975L75.88252959251405,48.16086081370116L75.98198244912284,88.41604291538651L76.08143530573163,58.737428101861795L76.47924673216683,-8.088990918338084L76.87705815860204,71.99337617740149L76.97651101521083,55.64506764922463L77.27486958503724,35.46790114486413L77.47377529825482,44.988946354777255L77.57322815486363,49.56318905231065L77.67268101147242,37.052831144154936L77.77213386808124,16.635286152454682L77.87158672469003,29.610939564391288L77.97103958129884,29.720992365823946L78.16994529451642,64.97943531422898L78.26939815112523,89.82522377333126L78.76666243416922,-36.2413140071159L78.86611529077801,42.94727668493749L79.16447386060443,22.248429681337285L79.26392671721322,67.83779936117035L79.56228528703961,49.03531203558693L79.76119100025721,70.05342217637953L80.15900242669242,73.54836407402622L80.35790813991002,-12.011260567181807L80.55681385312762,72.84319375705401L80.7557195663452,17.269292614086424L81.05407813617163,63.502324719160015L81.45188956260681,64.59947281485896L81.55134241921562,35.05247600906955L81.75024813243321,96.83758071385277L82.0486067022596,-12.312815581681917L82.44641812869482,80.00213312935244L82.9436824117388,96.28115995295403L83.63985240800041,67.82445199623687L83.7393052646092,57.65940636922046L83.9382109778268,72.27683868630656L84.03766383443559,42.80204622061163L84.1371166910444,71.84611776189904L84.23656954765319,39.41976827721973L84.4354752608708,103.60886661508044L84.7338338306972,51.62875673503528L85.13164525713239,45.48206322796766L85.23109811374118,55.54359056289819L85.6289095401764,44.67358669223522L85.92726811000279,53.90100312819463L86.32507953643798,57.61452635167849L86.62343810626439,88.97006459678877L86.7228909628732,32.672986786042486L86.82234381948199,101.13317562970263L86.92179667609079,77.34687568276676L87.02124953269958,61.85890224573669L87.22015524591718,66.43073923648217L87.31960810252598,40.646002755328965L87.41906095913478,41.118488870307885L87.6179666723524,84.8049908719431L87.71741952896119,25.17665863449949L87.81687238556998,9.92250266629668L87.91632524217879,91.02901824266951L88.11523095539638,63.79049923226951L88.31413666861397,62.86234044066134L88.41358952522278,53.23493383064026L89.10975952148438,-76.51484707876197L89.40811809131077,-49.125179432792024L89.50757094791958,16.663796760172573L89.60702380452837,28.198425178858884L89.80592951774598,0.47678325074002714L90.10428808757237,69.89616317811411L90.30319380078997,44.35276614155754L90.50209951400757,47.37172271435199L90.89991094044277,7.811418746053107L91.29772236687796,42.139409860016315L91.59608093670435,1.3284962357406016L91.69553379331316,-28.20993810952544L91.79498664992195,28.339904596237204L91.89443950653077,63.98750209722117L91.99389236313957,51.66582980327654L92.49115664618355,25.214301649803446L93.08787378583636,50.654896141748225L93.28677949905396,34.57330958433246L93.38623235566276,27.557579352474733L93.48568521227155,40.12370591798657L93.78404378209795,-96.28246685482343L94.08240235192434,36.975808763193214L94.18185520853315,54.09628952466676L94.48021377835956,19.590620727552306L94.57966663496835,62.347148059728426L94.67911949157715,17.358774302930442L94.87802520479474,70.73231528284467L95.07693091801234,72.60168200288028L95.67364805766515,-40.155299541676186L95.97200662749154,47.848543077924006L96.07145948410033,67.72724951288069L96.36981805392675,18.801867011105884L96.46927091053554,30.33042483084529L96.56872376714435,51.681814830197865L96.76762948036193,48.41619047049967L96.86708233697074,64.81556227911966L97.46379947662354,58.28238501791809L97.86161090305873,82.50972789565864L97.96106375966754,51.77861304877702L98.15996947288512,81.29458087610637L98.35887518610272,66.43055367232222L98.55778089932033,43.84531443701107L98.65723375592913,47.761168867753696L98.75668661253793,60.272819097737624L98.85613946914673,58.810885000035924L98.95559232575553,54.85637357840105L99.25395089558192,49.13194457188041L99.45285660879952,61.23914446067246L99.65176232201713,58.652930136170696L99.95012089184353,40.9960430339072L100.14902660506112,74.42805748343055L100.24847946166992,77.67048632313511L100.34793231827872,69.7586269991347L100.74574374471392,72.38450566282559L100.94464945793152,29.250216092033128L101.04410231454032,31.358264712803248L101.24300802775791,59.592375205078625L101.54136659758431,37.27473937028833L101.93917802401951,69.49250148460202L102.23753659384592,82.87304926625609L102.53589516367231,32.415251422456066L102.6353480202811,55.08486270492121L102.83425373349871,51.79773941183463L103.03315944671631,106.49666577689374L103.23206515993391,59.94763116200971L103.7293294429779,12.761236676032013L104.0276880128043,62.17551446635838L104.12714086941311,67.67042711618771L104.2265937260219,39.764400685993735L104.5249522958483,72.98105467331332L105.3205751487187,101.75323827017249L105.4200280053275,55.68704491312168L105.5194808619363,96.20490633779781L105.71838657515389,70.70000060984782L106.1161980015891,25.06954835046031L106.3151037148067,57.093700773032836L106.41455657141549,70.60766255839887L106.81236799785069,74.46725128492837L107.01127371106828,73.75815098414009L107.11072656767708,70.50395870215304L107.4090851375035,70.44274241124413L107.6079908507211,108.64367624396174L107.80689656393868,90.1062010479513L108.10525513376508,63.69872450059184L108.30416084698268,84.99013088524087L108.40361370359149,69.91663488133135L108.60251941680909,72.41734389184515L108.70197227341788,84.59375258500678L109.00033084324427,69.76648033947541L109.29868941307069,54.74288784000933L109.39814226967948,83.41519484142161L110.09431226594107,70.6723979410554L110.19376512254988,70.6042495033141L110.29321797915867,87.31594567500267L110.39267083576746,58.21859733793559L110.59157654898507,59.6035421911327L110.69102940559388,99.79931062517721L110.88993511881147,90.55856007886717L110.98938797542027,63.46051976484006L111.08884083202906,70.99997832898836L111.38719940185547,39.9911070711201L111.48665225846426,27.56978682328281L111.58610511507307,106.72296789724307L111.68555797168187,71.55863911438935L111.88446368489947,-44.720800841817734L112.48118082455225,62.080293543138794L112.58063368116107,33.368083620046036L112.87899225098747,122.65515542402554L113.57516224724905,108.74726412260759L113.87352081707546,64.20707088948092L114.56969081333705,75.00636156062043L114.66914366994585,52.66357515486561L114.76859652655466,46.86073866347506L114.96750223977226,16.744702733910373L115.06695509638105,53.31224781242476L115.16640795298986,52.24325245070666L115.46476652281625,57.2386595184102L115.56421937942504,58.33893569566257L115.76312509264264,75.21407412851772L115.96203080586025,71.38980886529282L116.06148366246904,83.29365694394639L116.45929508890424,57.81224496410424L116.55874794551305,59.44516318061616L116.95655937194823,70.61172508804347L117.05601222855705,36.99701609575882L117.15546508516584,101.437374933482L117.25491794177465,55.81869605731413L117.55327651160104,42.16476587701507L117.65272936820983,78.26502726432054L117.75218222481864,31.160758173703158L118.05054079464504,77.35706845698111L118.14999365125384,70.65926264944757L118.94561650412423,38.9368508055351L119.34342793055943,4.678578797381334L119.54233364377703,63.190358229828476L119.74123935699463,95.67867951663935L119.84069221360343,69.87198681898931L120.13905078342982,47.31594080241301L120.23850364003863,73.3436139053967L120.43740935325623,83.33083604885047L120.53686220986503,86.11914962541107L120.63631506647383,74.9739275963779L120.73576792308262,93.18205291764443L121.03412649290902,65.03896164582407L121.82974934577942,81.56966648864802L122.02865505899702,52.937527500573296L122.22756077221462,77.44461497672852L122.42646648543223,49.80196373512513L122.52591934204102,33.158210555143626L122.62537219864981,64.94943356594007L122.82427791186741,68.93062646285905L123.02318362508501,69.3574637944905L123.1226364816938,71.79570395601573L123.22208933830261,50.909384132535536L123.52044790812901,64.52269564368002L123.71935362134661,99.66145633620933L124.4155236176082,64.78228002157451L124.514976474217,-31.57880241506959L124.81333504404341,75.49411032775517L125.01224075726101,82.08142593262188L125.6089578969138,94.05364114963383L125.7084107535226,65.38066479178745L125.9073164667402,67.70560477908091L126.1062221799578,85.81115951093558L126.504033606393,40.25385266702514L126.9018450328282,42.30320999491994L127.10075074604579,93.69581380362916L127.29965645926339,72.70455082040634L127.5980150290898,58.25270800690909L127.69746788569859,39.361448112664306L127.79692074230738,67.3411037506095L127.8963735989162,108.56436413381206L128.49309073856898,102.90266575429136L128.5925435951778,113.25165516850302L129.18926073483058,58.24930157911574L129.38816644804817,22.451715218561503L129.58707216126578,60.376357271697785L129.68652501787457,71.99348884135574L129.7859778744834,99.24995455693939L130.68105358396258,76.64567511335918L130.87995929718016,78.88717750158982L131.17831786700657,86.89370768362139L131.57612929344177,85.78756635345634L131.77503500665938,74.63323842600282L131.87448786326817,77.05734920220621L132.27229928970337,109.15202926014224L132.37175214631216,74.36107544898036L132.57065785952977,86.99908824459818L132.67011071613857,108.08639724882323L132.7695635727474,78.12187776950267L133.06792214257376,66.41664298761746L133.16737499918256,85.54038163782131L134.16190356527056,42.7193243690229L134.36080927848815,89.29377464652852L134.46026213509697,94.15195039065829L134.75862070492335,122.22184322867015L134.85807356153214,86.33897025474504L134.95752641814096,104.49305332807211L135.25588498796736,24.33895574357507L135.35533784457616,69.61160716612362L135.45479070118495,87.85272314411252L136.94658355031694,32.74469407927995L137.24494212014335,93.83580208043647L137.44384783336093,79.4730101818405L137.54330068996975,-43.16856989842648L137.74220640318734,23.539677888342965L137.84165925979613,98.2909987420711L138.14001782962254,-9.240588840399226L138.43837639944894,76.44566345809977L138.53782925605773,56.742368172626385L138.63728211266653,36.79623567469392L138.73673496927535,64.79566715025655L138.93564068249293,56.9632160321315L139.13454639571054,58.24901660558439L139.33345210892813,55.734430046822965L139.53235782214574,74.11132597156318L139.63181067875453,83.91228808946806L139.83071639197212,71.9003356330613L140.02962210518973,48.39481082835697L140.22852781840731,77.95359758559457L140.3279806750161,62.573045915300725L140.42743353162496,128.038664961794L140.52688638823375,20.272741324942274L140.62633924484254,84.8445027834294L141.62086781093052,79.19616170977932L142.01867923736572,83.32868217913678L142.41649066380091,44.56502503137358L142.51594352040973,87.11154675281875L142.61539637701853,70.92082858747865L142.81430209023614,84.47269847980571L143.11266066006252,67.53158536079724L143.41101922988892,88.68705937099215L143.6099249431065,108.91231018829944L143.80883065632412,70.98429815747267L143.9082835129329,64.34770864084804L144.1071892261505,74.06128992129119L144.5050006525857,11.290256325532795L144.60445350919449,12.550157444089933L144.70390636580333,106.6205431082426L144.90281207902092,88.45531624438145L145.0022649356297,75.14320187400003L145.30062350545612,74.00157139824472L145.4000763620649,78.04203878968458L145.4995292186737,-2.8725703088437626L145.59898207528252,75.04857740700885L145.7978877885001,67.92257567310138L146.2951520715441,78.59649787232101L146.5935106413705,36.726543078050184L147.09077492441452,64.18913743888012L147.2896806376321,91.56021553239803L147.6874920640673,97.60077959455764L147.88639777728488,36.288651424318914L148.28420920372008,58.923012143685156L148.38366206032887,74.16268748012051L148.4831149169377,68.20465307809826L148.5825677735465,78.48382729077478L148.78147348676407,49.13529135405092L149.0798320565905,84.85028178155353L149.1792849131993,68.59889076320151L149.3781906264169,74.26575511638937L149.4776434830257,89.87577675233453L149.5770963396345,88.37360174108959L150.17381347928728,65.07128957340377L150.3727191925049,87.28235193476046L150.47217204911368,37.40132063653931L150.67107776233127,81.16501732871335L150.77053061894009,93.65993364784472L151.06888918876646,99.62994356547512L151.16834204537525,53.48829518188502L151.66560632841927,65.79893303560411L151.7650591850281,80.76209789184105L151.86451204163689,80.65089856899156L152.16287061146326,104.78648991057443L152.36177632468087,76.84832443060643L152.46122918128967,49.06635426862984L152.56068203789846,69.20891305715983L152.66013489450728,91.79773102984143L152.75958775111607,78.93667674125624L152.85904060772486,52.61502361787322L153.45575774737767,77.86974909446329L153.95302203042166,39.05144992888651L154.05247488703048,74.16072580185819L154.15192774363928,77.26879293517676L154.64919202668327,66.67795708857433L155.04700345311846,84.80371180469774L155.24590916633605,-10.738065102022603L155.34536202294484,58.11167261805636L155.74317344938007,-15.791891743652968L156.14098487581526,91.19454147334409L156.83715487207684,80.97380671646867L157.03606058529445,92.11435650504598L157.33441915512083,11.233354401342694L157.53332486833844,-107.95360422231799L157.63277772494723,39.97832965324932L157.93113629477367,58.860357730536634L158.03058915138246,53.78760354459146L158.22949486460004,88.20949675078033L158.32894772120886,47.94174930454986L158.62730629103524,49.50284756387006L160.31800485338485,71.03807200010934L160.41745770999364,66.06011459073244L160.51691056660243,73.78836480575465L160.61636342321123,64.18888560180591L161.01417484964642,75.8141753672102L161.31253341947283,97.08962323410361L161.41198627608162,83.94671686843004L161.71034484590803,46.029457617943166L161.80979770251682,78.04921614629976L161.9092505591256,80.77176711003268L162.30706198556084,96.10474145517387L162.40651484216963,86.94628198650982L162.50596769877842,83.1246875217299L162.70487341199603,85.77398703332292L162.90377912521362,65.69529545227255L163.10268483843123,101.70697646236803L163.30159055164881,87.55190375896078L163.8983076913016,131.3435908164757L164.0972134045192,109.72840479552694L164.59447768756323,69.50793644633492L164.69393054417202,79.11945081151465L165.5890062536512,88.58075761650703L165.68845911026,65.82811962704753L166.78244053295683,107.53789610117946L167.180251959392,72.16458562412022L167.27970481600082,96.21405862725815L167.5780633858272,68.9213747640273L167.67751624243598,61.05363994634622L167.9758748122624,91.02643359901307L168.17478052548,81.6053080619411L168.2742333820888,97.05710311507254L168.3736862386976,128.36200056956815L169.0698562349592,80.78052176200742L169.169309091568,35.01810687573041L169.2687619481768,67.89719314693691L169.3682148047856,66.78350995912822L169.666573374612,89.43325924918739L169.86547908782958,81.01795110466227L169.96493194443838,80.46777325228753L170.0643848010472,96.42236102409242L170.163837657656,65.96016178143415L170.66110194069998,59.07286845742689L170.8600076539176,39.14101114522765L171.35727193696158,91.92977318422805L171.4567247935704,90.2422991046911L171.75508336339678,63.31366561411464L172.45125335965838,100.87563908485902L172.65015907287597,93.50642569652685L173.64468763896397,78.77100771017027L173.84359335218159,68.03795018954972L173.94304620879038,66.95538213498963L174.14195192200796,70.08646585143332L174.24140477861675,58.41490433728744L174.44031049183437,84.58715843003716L174.53976334844316,86.63772855226306L175.13648048809594,70.52467561515307L175.2359333447048,123.1281220176329L175.83265048435757,82.06588493422615L175.93210334096636,84.32115220675016L176.82717905044555,87.38731497637737L177.22499047688075,62.332004698818295L177.42389619009836,76.53028071503655L177.82170761653356,80.54415941327228L178.41842475618634,68.43715834322303L178.71678332601275,86.60534097906051L178.91568903923033,80.55831530775983L179.21404760905673,68.76324759058498L179.41295332227432,92.10129411364385L179.51240617888317,66.11530004644301L179.91021760531834,79.37680841948975L180.00967046192716,49.73237717514422L180.20857617514474,112.59627569201999L180.30802903175353,83.20766121039284L180.50693474497115,62.20710013729828L180.80529331479752,80.10464407314146L180.90474617140634,109.31866587577652L181.00419902801514,101.85396315892199L181.40201045445033,71.27834445078626L181.60091616766792,110.21368821025092L181.7003690242767,96.93724192232828L181.79982188088553,91.47353718782753L181.99872759410314,92.02036163074034L182.19763330732073,82.83139011234752L182.39653902053834,94.88545237847987L182.69489759036472,77.60019727026297L182.99325616019112,108.58191982880155L183.09270901679992,99.15218875381193L183.1921618734087,90.79897832995549L183.4905204432351,63.95759975830366L183.68942615645273,67.01938188829779L183.78887901306155,105.52480993926326L184.08723758288792,110.1140733928154L184.18669043949674,100.5332069368387L184.48504900932312,102.909710565078L184.88286043575832,43.128082449642164L184.9823132923671,70.10083381924652L185.0817661489759,111.27732209320477L185.7779361452375,90.85679482036248L185.9768418584551,15.087031583919526L186.07629471506394,106.74803231341905L186.17574757167273,78.72950761125594L186.4741061414991,64.6853956482068L186.57355899810793,105.93912831738959L186.7724647113255,18.056150925184795L187.1702761377607,69.57493173536797L187.2697289943695,83.17335834996797L187.3691818509783,99.92231315405775L187.6675404208047,72.67675596016254L188.0653518472399,95.13042357877836L188.1648047038487,84.5374736262108L188.3637104170663,93.46014732049383L188.46316327367512,91.29275793228857L188.5626161302839,74.04529163978701L188.6620689868927,65.59813273266492L188.86097470011032,121.8603045994665L189.1593332699367,86.64770262586032L189.2587861265455,93.80230774956566L189.3582389831543,83.46432295276813L189.4576918397631,68.32752306115026L189.8555032661983,50.215513347445935L189.9549561228071,68.01110965927137L190.4522204058511,108.00768490854767L190.6511261190687,92.61824272680485L190.7505789756775,112.22168792599706L190.8500318322863,95.65101057493266L191.2478432587215,49.59379388411939L191.54620182854788,55.89208005528256L191.7451075417655,37.5776463522395L192.04346611159187,101.67224282800042L192.14291896820066,142.16188524578143L192.24237182480948,105.1651998518648L192.34182468141827,88.17011738512257L192.44127753802707,81.74619102309101L192.6401832512447,77.57506658117272L192.8390889644623,97.72024314981628L193.1374475342887,132.87959317998565L193.2369003908975,69.53479685848755L193.43580610411507,107.2949395974747L193.53525896072387,78.69106932098077L193.6347118173327,111.16199728144213L193.93307038715906,89.60963798321899L194.13197610037668,67.38893954012781L194.23142895698547,59.87571179544659L194.33088181359426,88.40048866240792L194.43033467020305,98.60857191994967L195.12650466646468,61.76651780324775L195.22595752307348,92.04129061706602L195.52431609289988,94.70492496001512L196.02158037594387,68.88900044540762L196.41939180237907,91.46975300442286L197.01610894203188,91.2826579401542L197.11556179864067,99.96564901269728L197.31446751185825,101.45843315199052L197.71227893829345,71.69442568843209L197.81173179490227,87.81930834073883L197.91118465151106,64.42716986505481L198.11009036472865,47.023922460276L198.20954322133744,44.42919206629085L198.30899607794626,72.62179583236048L198.70680750438143,87.25319185248274L199.10461893081663,89.6002537385587L199.30352464403427,49.79642331949236L199.40297750064306,137.04220320924344L200.19860035351346,102.82950377058572L200.29805321012225,102.80615913653499L200.59641177994862,55.34765469186624L200.89477034977503,114.54571997436506L201.29258177621026,102.79151282248186L201.49148748942784,83.2898197422103L201.88929891586304,68.71600163000366L202.38656319890703,101.46959351075317L202.48601605551582,90.45085996589101L202.88382748195102,87.77293718262584L202.98328033855984,104.87423193541893L203.2816389083862,74.68366548646898L203.381091764995,69.63657880021962L203.48054462160385,91.38041711599023L203.77890319143023,85.82074257433867L204.07726176125664,75.26228104635592L204.17671461786543,96.90145454862382L204.375620331083,109.77506755446271L204.57452604430063,55.085253715115385L204.67397890090942,96.39396970762022L204.7734317575182,9.893170274441871L205.4696017537798,92.89217519063826L205.66850746699743,78.1114066490484L205.76796032360622,106.63460290700445L206.36467746325903,84.37767637532893L206.46413031986782,96.06116038675154L206.5635831764766,91.57525285664533L206.6630360330854,100.96512740099445L206.76248888969423,66.59189508210652L206.9613946029118,70.26507798267573L207.25975317273821,126.93869198312441L207.95592316899982,89.48022686352878L208.0553760256086,63.935013949121284L208.15482888221743,77.62935072524925L209.0499045916966,89.97496742311874L209.348263161523,69.12481272895434L209.44771601813179,84.05720044380544L209.84552744456698,82.93505420484479L209.94498030117578,85.90338489843028L210.04443315778462,68.3345943811026L210.14388601439342,92.2453316655129L210.4422445842198,96.46833454471981L210.5416974408286,66.40003499530202L210.6411502974374,100.5910035453714L210.7406031540462,63.70655795905826L211.1384145804814,106.10410479652145L211.2378674370902,86.63194955413893L211.33732029369898,75.6644781084627L211.63567886352538,69.73000372746256L211.83458457674297,64.85531940038875L212.03349028996058,81.99208341689783L212.2323960031782,118.17466239101499L212.331848859787,50.33561312268155L212.4313017163958,107.93559654605318L212.6302074296134,104.72011095964407L212.72966028622218,104.63568258051296L213.22692456926617,85.21377546172808L213.52528313909258,74.81293743303922L213.72418885231016,82.62839617594608L214.02254742213657,101.2737504218012L214.320905991963,86.82001883024732L214.4203588485718,76.60629574770141L214.61926456178938,85.84939235517652L214.818170275007,91.41121413925035L215.41488741465977,109.70875487644662L215.51434027126857,97.09917978834099L215.71324598448618,8.283679533123518L215.91215169770376,73.74284194094429L216.80722740718298,74.82822659436074L216.90668026379177,113.34119650296986L217.00613312040056,58.25763871173059L217.10558597700938,123.58818196118665L218.29902025631495,111.11314751633554L218.49792596953256,-3.7956857316761727L218.69683168275017,93.47584737388381L218.89573739596776,54.07565213916385L219.29354882240295,43.02533292336179L219.39300167901175,77.8201570727169L219.49245453562057,63.43098192695102L219.59190739222936,97.30333350074211L219.69136024883815,92.14663141429426L219.79081310544694,86.43649747538113L219.89026596205574,97.08018597111192L220.08917167527335,83.36490695407541L220.18862453188214,36.45934394230636L220.28807738849093,95.23746096261185L220.48698310170855,94.2166592641491L220.98424738475256,78.6043976037017L221.28260595457894,93.28351674938801L221.48151166779655,4.371191766425682L221.58096452440535,70.12335335551462L221.77987023762293,87.06415499182604L222.07822880744934,74.7017778739383L222.37658737727574,92.64144487408991L222.57549309049332,33.578553141176855L222.87385166031973,95.97977724803101L223.17221023014613,73.25617342231212L223.27166308675496,74.85946101885503L223.57002165658133,50.36117458571454L223.76892736979894,112.11833862984257L223.86838022640774,83.3196955719621L224.66400307927813,102.37906996782932L224.76345593588692,86.86735094561719L224.9623616491045,74.37400529455395L225.45962593214853,104.47859589182464L225.95689021519252,120.79700870837542L226.05634307180134,19.35483495317129L226.15579592841013,76.00357672889537L226.3547016416277,76.20112965903544L226.4541544982365,97.15337115033755L226.65306021145412,54.24601329257996L226.8519659246717,85.16654275572961L227.1503244944981,83.94576253846459L227.2497773511069,82.82969352574227L227.64758877754213,84.13453430746422L228.14485306058612,94.64732054293378L228.3437587738037,87.41049724178815L228.9404759134565,103.69651917149068L229.0399287700653,106.1126838252734L229.1393816266741,80.16703339463291L229.2388344832829,48.002534821516036L229.3382873398917,111.84461492568911L229.6366459097181,98.60403222532234L229.83555162293572,92.434964982398L230.1339101927621,85.70607717807299L230.2333630493709,-26.446455624615055L230.5317216191973,105.53067177853023L230.7306273324149,82.95001200159497L230.9295330456325,84.47642301758755L231.0289859022413,107.95976627788654L231.12843875885008,81.8167385403288L231.52625018528528,69.04576902410746L231.9240616117205,78.54740952472305L232.0235144683293,90.06635114460224L232.1229673249381,89.92049108759083L232.52077875137329,100.38474235429658L232.6202316079821,114.165376405738L232.8191373211997,116.8372352173477L232.91859017780848,88.43100733942812L233.1174958910261,80.51341540834358L233.2169487476349,98.02415085277289L233.31640160424368,108.65192390814232L233.51530731746126,20.744061036630086L233.61476017407008,107.8698803242655L233.71421303067888,82.83944227143103L233.81366588728767,106.32416400834678L234.1120244571141,104.86949010840308L234.3109301703317,88.7077100110779L234.41038302694048,80.34183483330494L235.0071001665933,96.87141303658635L235.10655302320208,42.43301212480432L235.20600587981087,97.69063903901298L235.60381730624607,-137.5939000368132L235.80272301946366,71.00596940043815L236.0016287326813,72.80156773960258L236.3994401591165,86.89779009514027L237.09561015537807,99.56014493216855L237.39396872520447,112.34430275832914L237.59287443842206,104.78560848081469L237.79178015163967,50.972045172975484L237.89123300824846,74.59071109691735L238.09013872146605,81.53143364440709L238.2890444346837,75.16227521872622L238.48795014790127,85.80608963299412L238.58740300451007,93.89820465651077L238.68685586111886,60.57318119978092L238.98521443094526,88.77815811894429L239.08466728755405,72.41943148864458L239.38302585738046,86.67141507458524L239.48247871398925,88.51526009533643L239.78083728381566,121.29732613370098L240.07919585364203,89.77805071295563L240.47700728007726,79.57120675891069L241.07372441973007,30.84639923216656L241.17317727633886,62.40988200037407L241.47153584616524,96.65170507120664L241.57098870277406,90.31381420647719L241.76989441599164,114.97532751381289L241.96880012920923,62.21415157537635L242.06825298581805,89.45636861439247L242.26715869903563,73.61714210445307L242.36661155564443,85.83471953195769L242.56551726886207,94.29459621132771L242.66497012547086,119.79474023038759L242.76442298207965,102.55150877710773L242.86387583868844,99.82234046288518L243.06278155190606,95.8103306608318L243.26168726512364,80.54245619937561L243.36114012173243,92.18047699161069L243.75895154816763,86.59898540658226L243.85840440477642,55.679953711295056L244.05731011799404,80.59885444941727L244.3556686878204,112.23025370016614L244.55457440103802,105.58739807949752L244.85293297086446,79.90839671941245L245.44965011051724,95.01580457355267L246.04636725017002,95.60894052895563L246.44417867660522,99.38852459338136L246.74253724643162,67.95433365361838L247.23980152947564,37.642434753227434L247.43870724269323,79.86419268559601L247.73706581251963,71.06175131237713L248.3337829521724,96.32218288688563L248.4332358087812,100.90847731387856L248.63214152199882,84.395629707804L248.9305000918252,97.55129360947407L249.22885866165163,97.57480723945619L249.32831151826042,91.31317661717439L249.4277643748692,92.04411384321382L250.3228400843484,67.61143096790676L250.4222929409572,89.84023458841286L250.521745797566,41.63140146299L250.6211986541748,75.10545282203324L250.8201043673924,88.41291483383309L251.01901008061,88.66690577776339L251.31736865043638,88.30777948263908L251.4168215070452,76.63469369146505L251.8146329334804,85.0149832280912L252.013538646698,78.57460130144702L252.1129915033068,-0.6461847723575431L252.2124443599156,97.12725962211614L252.3118972165244,65.14991575889077L253.10752006939478,111.49063803600339L254.002595778874,81.17862315801247L254.20150149209158,105.93329961457975L254.49986006191799,85.01449280852562L254.99712434496197,68.7867347114014L255.29548291478838,103.54284553788713L255.39493577139717,110.98539653314774L255.6932943412236,75.33903170836915L255.7927471978324,92.32634367591352L256.09110576765875,118.03544619365891L256.38946433748515,82.86624966525224L256.58837005070274,85.38837808165731L256.7872757639204,83.52785216838498L257.0856343337468,111.91849265686884L257.3839929035732,63.94959399026014L257.48344576018195,108.35944828289686L257.58289861679077,91.71302099082467L257.78180433000836,106.83982361332528L258.57742718287875,49.56046523553425L258.77633289609633,109.04582691502853L258.975238609314,10.479208400726776L259.17414432253156,68.96178798714764L259.67140860557555,83.62429914051852L260.16867288861954,91.50387030068778L260.56648431505477,86.32355517488641L260.96429574148993,76.59231216279096L261.06374859809875,114.35809804042798L261.1632014547076,101.373858972448L261.56101288114274,94.49712623732928L261.66046573775157,82.99558125744532L261.75991859436033,87.41941757604856L261.85937145096915,80.70854937711289L262.15773002079555,102.84256616198786L262.65499430383954,124.29732533936921L262.95335287366595,83.14461578705014L263.15225858688353,95.79970048538328L263.55007001331876,99.73655680265729L263.6495228699275,102.80683512026052L263.74897572653634,122.24821984854863L263.84842858314516,87.78088993233794L264.04733429636275,82.43063779977177L264.24624000958033,86.67166691165946L264.54459857940674,86.18359340724481L264.84295714923314,80.4207990106547L264.9424100058419,100.02731595942322L265.14131571905955,66.74816661394935L265.34022143227713,36.068916949773495L266.03639142853876,95.92974119775903L266.3347499983651,113.55373373902583L266.43420285497393,126.05201009491057L266.6331085681915,94.76423259099313L266.8320142814091,85.24717701051891L267.03091999462674,97.257923299886L267.1303728512355,89.60964461051041L267.3292785644531,61.74882956242975L267.62763713427955,77.18799962539322L267.82654284749714,88.81609273507102L268.12490141732354,74.13978356094965L268.3238071305411,80.24654763717109L268.42325998714995,108.05409583040924" fill="none"></path></g><g><path style="fill: none;" stroke="rgb(0, 119, 187)" stroke-width="2px" d="M268.5227128437587,67.69324488057002Z" fill="none"></path></g></g></g></g></g></g><g transform="translate(51, 177)" clip-path="url(#clip_1)"><clipPath id="clip_1"><rect width="278" height="22"></rect></clipPath><g><g><line x1="0" y1="0" x2="0" y2="5" style="visibility: inherit;" fill="rgb(0, 0, 0)" stroke="rgb(204, 204, 204)" stroke-width="1px"></line><line x1="19.890571321759904" y1="0" x2="19.890571321759904" y2="5" style="visibility: inherit;" fill="rgb(0, 0, 0)" stroke="rgb(204, 204, 204)" stroke-width="1px"></line><line x1="39.78114264351981" y1="0" x2="39.78114264351981" y2="5" style="visibility: inherit;" fill="rgb(0, 0, 0)" stroke="rgb(204, 204, 204)" stroke-width="1px"></line><line x1="59.671713965279714" y1="0" x2="59.671713965279714" y2="5" style="visibility: inherit;" fill="rgb(0, 0, 0)" stroke="rgb(204, 204, 204)" stroke-width="1px"></line><line x1="79.56228528703961" y1="0" x2="79.56228528703961" y2="5" style="visibility: inherit;" fill="rgb(0, 0, 0)" stroke="rgb(204, 204, 204)" stroke-width="1px"></line><line x1="99.45285660879952" y1="0" x2="99.45285660879952" y2="5" style="visibility: inherit;" fill="rgb(0, 0, 0)" stroke="rgb(204, 204, 204)" stroke-width="1px"></line><line x1="119.34342793055943" y1="0" x2="119.34342793055943" y2="5" style="visibility: inherit;" fill="rgb(0, 0, 0)" stroke="rgb(204, 204, 204)" stroke-width="1px"></line><line x1="139.23399925231934" y1="0" x2="139.23399925231934" y2="5" style="visibility: inherit;" fill="rgb(0, 0, 0)" stroke="rgb(204, 204, 204)" stroke-width="1px"></line><line x1="159.12457057407923" y1="0" x2="159.12457057407923" y2="5" style="visibility: inherit;" fill="rgb(0, 0, 0)" stroke="rgb(204, 204, 204)" stroke-width="1px"></line><line x1="179.01514189583915" y1="0" x2="179.01514189583915" y2="5" style="visibility: inherit;" fill="rgb(0, 0, 0)" stroke="rgb(204, 204, 204)" stroke-width="1px"></line><line x1="198.90571321759904" y1="0" x2="198.90571321759904" y2="5" style="visibility: inherit;" fill="rgb(0, 0, 0)" stroke="rgb(204, 204, 204)" stroke-width="1px"></line><line x1="218.79628453935896" y1="0" x2="218.79628453935896" y2="5" style="visibility: inherit;" fill="rgb(0, 0, 0)" stroke="rgb(204, 204, 204)" stroke-width="1px"></line><line x1="238.68685586111886" y1="0" x2="238.68685586111886" y2="5" style="visibility: inherit;" fill="rgb(0, 0, 0)" stroke="rgb(204, 204, 204)" stroke-width="1px"></line><line x1="258.57742718287875" y1="0" x2="258.57742718287875" y2="5" style="visibility: inherit;" fill="rgb(0, 0, 0)" stroke="rgb(204, 204, 204)" stroke-width="1px"></line><line x1="278.4679985046387" y1="0" x2="278.4679985046387" y2="5" style="visibility: inherit;" fill="rgb(0, 0, 0)" stroke="rgb(204, 204, 204)" stroke-width="1px"></line></g><g transform="translate(0, 8)"><text style="text-anchor: middle; visibility: hidden; font-family: Roboto, sans-serif; font-size: 12px; font-weight: 200;" x="0" y="0" dx="0em" dy="0.95em" fill="rgb(50, 49, 63)" stroke="none" stroke-width="1px">-200</text><text style="text-anchor: middle; visibility: hidden; font-family: Roboto, sans-serif; font-size: 12px; font-weight: 200;" x="19.890571321759904" y="0" dx="0em" dy="0.95em" fill="rgb(50, 49, 63)" stroke="none" stroke-width="1px">0</text><text style="text-anchor: middle; visibility: hidden; font-family: Roboto, sans-serif; font-size: 12px; font-weight: 200;" x="39.78114264351981" y="0" dx="0em" dy="0.95em" fill="rgb(50, 49, 63)" stroke="none" stroke-width="1px">200</text><text style="text-anchor: middle; visibility: hidden; font-family: Roboto, sans-serif; font-size: 12px; font-weight: 200;" x="59.671713965279714" y="0" dx="0em" dy="0.95em" fill="rgb(50, 49, 63)" stroke="none" stroke-width="1px">400</text><text style="text-anchor: middle; visibility: hidden; font-family: Roboto, sans-serif; font-size: 12px; font-weight: 200;" x="79.56228528703961" y="0" dx="0em" dy="0.95em" fill="rgb(50, 49, 63)" stroke="none" stroke-width="1px">600</text><text style="text-anchor: middle; visibility: hidden; font-family: Roboto, sans-serif; font-size: 12px; font-weight: 200;" x="99.45285660879952" y="0" dx="0em" dy="0.95em" fill="rgb(50, 49, 63)" stroke="none" stroke-width="1px">800</text><text style="text-anchor: middle; visibility: hidden; font-family: Roboto, sans-serif; font-size: 12px; font-weight: 200;" x="119.34342793055943" y="0" dx="0em" dy="0.95em" fill="rgb(50, 49, 63)" stroke="none" stroke-width="1px">1k</text><text style="text-anchor: middle; visibility: hidden; font-family: Roboto, sans-serif; font-size: 12px; font-weight: 200;" x="139.23399925231934" y="0" dx="0em" dy="0.95em" fill="rgb(50, 49, 63)" stroke="none" stroke-width="1px">1.2k</text><text style="text-anchor: middle; visibility: hidden; font-family: Roboto, sans-serif; font-size: 12px; font-weight: 200;" x="159.12457057407923" y="0" dx="0em" dy="0.95em" fill="rgb(50, 49, 63)" stroke="none" stroke-width="1px">1.4k</text><text style="text-anchor: middle; visibility: hidden; font-family: Roboto, sans-serif; font-size: 12px; font-weight: 200;" x="179.01514189583915" y="0" dx="0em" dy="0.95em" fill="rgb(50, 49, 63)" stroke="none" stroke-width="1px">1.6k</text><text style="text-anchor: middle; visibility: hidden; font-family: Roboto, sans-serif; font-size: 12px; font-weight: 200;" x="198.90571321759904" y="0" dx="0em" dy="0.95em" fill="rgb(50, 49, 63)" stroke="none" stroke-width="1px">1.8k</text><text style="text-anchor: middle; visibility: hidden; font-family: Roboto, sans-serif; font-size: 12px; font-weight: 200;" x="218.79628453935896" y="0" dx="0em" dy="0.95em" fill="rgb(50, 49, 63)" stroke="none" stroke-width="1px">2k</text><text style="text-anchor: middle; visibility: hidden; font-family: Roboto, sans-serif; font-size: 12px; font-weight: 200;" x="238.68685586111886" y="0" dx="0em" dy="0.95em" fill="rgb(50, 49, 63)" stroke="none" stroke-width="1px">2.2k</text><text style="text-anchor: middle; visibility: hidden; font-family: Roboto, sans-serif; font-size: 12px; font-weight: 200;" x="258.57742718287875" y="0" dx="0em" dy="0.95em" fill="rgb(50, 49, 63)" stroke="none" stroke-width="1px">2.4k</text><text style="text-anchor: middle; visibility: hidden; font-family: Roboto, sans-serif; font-size: 12px; font-weight: 200;" x="278.4679985046387" y="0" dx="0em" dy="0.95em" fill="rgb(50, 49, 63)" stroke="none" stroke-width="1px">2.6k</text></g><line x1="0" y1="0" x2="278.4679985046387" y2="0" fill="rgb(0, 0, 0)" stroke="rgb(204, 204, 204)" stroke-width="1px"></line></g></g></g></g></svg>