<svg viewBox="0 0 330 200" xmlns="http://www.w3.org/2000/svg"><g><g><g><g><g><line x1="41.149001121520996" y1="177.89999961853027" x2="36.149001121520996" y2="177.89999961853027" style="visibility: inherit;" fill="rgb(0, 0, 0)" stroke="rgb(204, 204, 204)" stroke-width="1px"></line><line x1="41.149001121520996" y1="161.72727238048205" x2="36.149001121520996" y2="161.72727238048205" style="visibility: inherit;" fill="rgb(0, 0, 0)" stroke="rgb(204, 204, 204)" stroke-width="1px"></line><line x1="41.149001121520996" y1="145.55454514243385" x2="36.149001121520996" y2="145.55454514243385" style="visibility: inherit;" fill="rgb(0, 0, 0)" stroke="rgb(204, 204, 204)" stroke-width="1px"></line><line x1="41.149001121520996" y1="129.38181790438566" x2="36.149001121520996" y2="129.38181790438566" style="visibility: inherit;" fill="rgb(0, 0, 0)" stroke="rgb(204, 204, 204)" stroke-width="1px"></line><line x1="41.149001121520996" y1="113.20909066633745" x2="36.149001121520996" y2="113.20909066633745" style="visibility: inherit;" fill="rgb(0, 0, 0)" stroke="rgb(204, 204, 204)" stroke-width="1px"></line><line x1="41.149001121520996" y1="97.03636342828923" x2="36.149001121520996" y2="97.03636342828923" style="visibility: inherit;" fill="rgb(0, 0, 0)" stroke="rgb(204, 204, 204)" stroke-width="1px"></line><line x1="41.149001121520996" y1="80.86363619024104" x2="36.149001121520996" y2="80.86363619024104" style="visibility: inherit;" fill="rgb(0, 0, 0)" stroke="rgb(204, 204, 204)" stroke-width="1px"></line><line x1="41.149001121520996" y1="64.69090895219283" x2="36.149001121520996" y2="64.69090895219283" style="visibility: inherit;" fill="rgb(0, 0, 0)" stroke="rgb(204, 204, 204)" stroke-width="1px"></line><line x1="41.149001121520996" y1="48.51818171414462" x2="36.149001121520996" y2="48.51818171414462" style="visibility: inherit;" fill="rgb(0, 0, 0)" stroke="rgb(204, 204, 204)" stroke-width="1px"></line><line x1="41.149001121520996" y1="32.34545447609641" x2="36.149001121520996" y2="32.34545447609641" style="visibility: inherit;" fill="rgb(0, 0, 0)" stroke="rgb(204, 204, 204)" stroke-width="1px"></line><line x1="41.149001121520996" y1="16.17272723804821" x2="36.149001121520996" y2="16.17272723804821" style="visibility: inherit;" fill="rgb(0, 0, 0)" stroke="rgb(204, 204, 204)" stroke-width="1px"></line><line x1="41.149001121520996" y1="0" x2="36.149001121520996" y2="0" style="visibility: inherit;" fill="rgb(0, 0, 0)" stroke="rgb(204, 204, 204)" stroke-width="1px"></line></g><g transform="translate(31.149001121520996, 0)"><text style="text-anchor: end; visibility: hidden; font-family: Roboto, sans-serif; font-size: 12px; font-weight: 200;" x="0" y="177.89999961853027" dx="0em" dy="0.3em" fill="rgb(50, 49, 63)" stroke="none" stroke-width="1px">-50</text><text style="text-anchor: end; visibility: inherit; font-family: Roboto, sans-serif; font-size: 12px; font-weight: 200;" x="0" y="161.72727238048205" dx="0em" dy="0.3em" fill="rgb(50, 49, 63)" stroke="none" stroke-width="1px">0</text><text style="text-anchor: end; visibility: hidden; font-family: Roboto, sans-serif; font-size: 12px; font-weight: 200;" x="0" y="145.55454514243385" dx="0em" dy="0.3em" fill="rgb(50, 49, 63)" stroke="none" stroke-width="1px">50</text><text style="text-anchor: end; visibility: inherit; font-family: Roboto, sans-serif; font-size: 12px; font-weight: 200;" x="0" y="129.38181790438566" dx="0em" dy="0.3em" fill="rgb(50, 49, 63)" stroke="none" stroke-width="1px">100</text><text style="text-anchor: end; visibility: hidden; font-family: Roboto, sans-serif; font-size: 12px; font-weight: 200;" x="0" y="113.20909066633745" dx="0em" dy="0.3em" fill="rgb(50, 49, 63)" stroke="none" stroke-width="1px">150</text><text style="text-anchor: end; visibility: inherit; font-family: Roboto, sans-serif; font-size: 12px; font-weight: 200;" x="0" y="97.03636342828923" dx="0em" dy="0.3em" fill="rgb(50, 49, 63)" stroke="none" stroke-width="1px">200</text><text style="text-anchor: end; visibility: hidden; font-family: Roboto, sans-serif; font-size: 12px; font-weight: 200;" x="0" y="80.86363619024104" dx="0em" dy="0.3em" fill="rgb(50, 49, 63)" stroke="none" stroke-width="1px">250</text><text style="text-anchor: end; visibility: inherit; font-family: Roboto, sans-serif; font-size: 12px; font-weight: 200;" x="0" y="64.69090895219283" dx="0em" dy="0.3em" fill="rgb(50, 49, 63)" stroke="none" stroke-width="1px">300</text><text style="text-anchor: end; visibility: hidden; font-family: Roboto, sans-serif; font-size: 12px; font-weight: 200;" x="0" y="48.51818171414462" dx="0em" dy="0.3em" fill="rgb(50, 49, 63)" stroke="none" stroke-width="1px">350</text><text style="text-anchor: end; visibility: inherit; font-family: Roboto, sans-serif; font-size: 12px; font-weight: 200;" x="0" y="32.34545447609641" dx="0em" dy="0.3em" fill="rgb(50, 49, 63)" stroke="none" stroke-width="1px">400</text><text style="text-anchor: end; visibility: hidden; font-family: Roboto, sans-serif; font-size: 12px; font-weight: 200;" x="0" y="16.17272723804821" dx="0em" dy="0.3em" fill="rgb(50, 49, 63)" stroke="none" stroke-width="1px">450</text><text style="text-anchor: end; visibility: hidden; font-family: Roboto, sans-serif; font-size: 12px; font-weight: 200;" x="0" y="0" dx="0em" dy="0.3em" fill="rgb(50, 49, 63)" stroke="none" stroke-width="1px">500</text></g><line x1="41.149001121520996" y1="0" x2="41.149001121520996" y2="177.89999961853027" fill="rgb(0, 0, 0)" stroke="rgb(204, 204, 204)" stroke-width="1px"></line></g></g><g transform="translate(41, 0)" clip-path="url(#clip_0)"><clipPath id="clip_0"><rect width="288" height="177"></rect></clipPath><g><g><g><line x1="0" y1="0" x2="0" y2="177.89999961853027" fill="rgb(0, 0, 0)" stroke="rgb(60, 60, 60)" stroke-width="1px" opacity="0.25"></line><line x1="20.632214205605642" y1="0" x2="20.632214205605642" y2="177.89999961853027" fill="rgb(0, 0, 0)" stroke="rgb(60, 60, 60)" stroke-width="1px" opacity="0.25"></line><line x1="41.264428411211284" y1="0" x2="41.264428411211284" y2="177.89999961853027" fill="rgb(0, 0, 0)" stroke="rgb(60, 60, 60)" stroke-width="1px" opacity="0.25"></line><line x1="61.896642616816926" y1="0" x2="61.896642616816926" y2="177.89999961853027" fill="rgb(0, 0, 0)" stroke="rgb(60, 60, 60)" stroke-width="1px" opacity="0.25"></line><line x1="82.52885682242257" y1="0" x2="82.52885682242257" y2="177.89999961853027" fill="rgb(0, 0, 0)" stroke="rgb(60, 60, 60)" stroke-width="1px" opacity="0.25"></line><line x1="103.16107102802822" y1="0" x2="103.16107102802822" y2="177.89999961853027" fill="rgb(0, 0, 0)" stroke="rgb(60, 60, 60)" stroke-width="1px" opacity="0.25"></line><line x1="123.79328523363385" y1="0" x2="123.79328523363385" y2="177.89999961853027" fill="rgb(0, 0, 0)" stroke="rgb(60, 60, 60)" stroke-width="1px" opacity="0.25"></line><line x1="144.4254994392395" y1="0" x2="144.4254994392395" y2="177.89999961853027" fill="rgb(0, 0, 0)" stroke="rgb(60, 60, 60)" stroke-width="1px" opacity="0.25"></line><line x1="165.05771364484514" y1="0" x2="165.05771364484514" y2="177.89999961853027" fill="rgb(0, 0, 0)" stroke="rgb(60, 60, 60)" stroke-width="1px" opacity="0.25"></line><line x1="185.6899278504508" y1="0" x2="185.6899278504508" y2="177.89999961853027" fill="rgb(0, 0, 0)" stroke="rgb(60, 60, 60)" stroke-width="1px" opacity="0.25"></line><line x1="206.32214205605644" y1="0" x2="206.32214205605644" y2="177.89999961853027" fill="rgb(0, 0, 0)" stroke="rgb(60, 60, 60)" stroke-width="1px" opacity="0.25"></line><line x1="226.95435626166207" y1="0" x2="226.95435626166207" y2="177.89999961853027" fill="rgb(0, 0, 0)" stroke="rgb(60, 60, 60)" stroke-width="1px" opacity="0.25"></line><line x1="247.5865704672677" y1="0" x2="247.5865704672677" y2="177.89999961853027" fill="rgb(0, 0, 0)" stroke="rgb(60, 60, 60)" stroke-width="1px" opacity="0.25"></line><line x1="268.21878467287337" y1="0" x2="268.21878467287337" y2="177.89999961853027" fill="rgb(0, 0, 0)" stroke="rgb(60, 60, 60)" stroke-width="1px" opacity="0.25"></line><line x1="288.850998878479" y1="0" x2="288.850998878479" y2="177.89999961853027" fill="rgb(0, 0, 0)" stroke="rgb(60, 60, 60)" stroke-width="1px" opacity="0.25"></line></g><g><line x1="0" y1="177.89999961853027" x2="288.850998878479" y2="177.89999961853027" fill="rgb(0, 0, 0)" stroke="rgb(60, 60, 60)" stroke-width="1px" opacity="0.25"></line><line x1="0" y1="161.72727238048205" x2="288.850998878479" y2="161.72727238048205" fill="rgb(0, 0, 0)" stroke="rgb(60, 60, 60)" stroke-width="1px" opacity="0.25"></line><line x1="0" y1="145.55454514243385" x2="288.850998878479" y2="145.55454514243385" fill="rgb(0, 0, 0)" stroke="rgb(60, 60, 60)" stroke-width="1px" opacity="0.25"></line><line x1="0" y1="129.38181790438566" x2="288.850998878479" y2="129.38181790438566" fill="rgb(0, 0, 0)" stroke="rgb(60, 60, 60)" stroke-width="1px" opacity="0.25"></line><line x1="0" y1="113.20909066633745" x2="288.850998878479" y2="113.20909066633745" fill="rgb(0, 0, 0)" stroke="rgb(60, 60, 60)" stroke-width="1px" opacity="0.25"></line><line x1="0" y1="97.03636342828923" x2="288.850998878479" y2="97.03636342828923" fill="rgb(0, 0, 0)" stroke="rgb(60, 60, 60)" stroke-width="1px" opacity="0.25"></line><line x1="0" y1="80.86363619024104" x2="288.850998878479" y2="80.86363619024104" fill="rgb(0, 0, 0)" stroke="rgb(60, 60, 60)" stroke-width="1px" opacity="0.25"></line><line x1="0" y1="64.69090895219283" x2="288.850998878479" y2="64.69090895219283" fill="rgb(0, 0, 0)" stroke="rgb(60, 60, 60)" stroke-width="1px" opacity="0.25"></line><line x1="0" y1="48.51818171414462" x2="288.850998878479" y2="48.51818171414462" fill="rgb(0, 0, 0)" stroke="rgb(60, 60, 60)" stroke-width="1px" opacity="0.25"></line><line x1="0" y1="32.34545447609641" x2="288.850998878479" y2="32.34545447609641" fill="rgb(0, 0, 0)" stroke="rgb(60, 60, 60)" stroke-width="1px" opacity="0.25"></line><line x1="0" y1="16.17272723804821" x2="288.850998878479" y2="16.17272723804821" fill="rgb(0, 0, 0)" stroke="rgb(60, 60, 60)" stroke-width="1px" opacity="0.25"></line><line x1="0" y1="0" x2="288.850998878479" y2="0" fill="rgb(0, 0, 0)" stroke="rgb(60, 60, 60)" stroke-width="1px" opacity="0.25"></line></g></g></g><g><g><line x1="0" y1="161.72727238048205" x2="288.850998878479" y2="161.72727238048205" fill="rgb(0, 0, 0)" stroke="rgb(153, 153, 153)" stroke-width="1.5px"></line></g></g><g><g><line x1="20.632214205605642" y1="0" x2="20.632214205605642" y2="177.89999961853027" fill="rgb(0, 0, 0)" stroke="rgb(153, 153, 153)" stroke-width="1.5px"></line></g></g><g><g><g><g><g><path style="fill: none;" stroke="rgb(255, 112, 67)" stroke-width="2px" d="M21.148019560745784,160.73362571703962L21.25118063177381,160.77170695295194L21.663824915885925,160.76604898220253L21.766985986913955,160.61026753722268L22.076469199998037,160.62313987036504L22.179630271026067,160.4519263271286L22.489113484110153,160.44755674125375L22.59227455513818,160.59792319669782L22.69543562616621,160.28197065221792L23.10807991027832,160.4977934318364L24.036529549530574,160.58659516882895L24.34601276261466,160.4802240055144L24.75865704672677,160.49712952763835L24.964979188782827,160.29065935769293L25.171301330838887,160.50678510244427L25.274462401866913,160.63346620563084L25.48078454392297,160.55827679221204L25.687106685979025,160.70600818927372L26.09975097009114,160.7767195762095L26.20291204111917,160.81270351169724L26.306073112147192,160.50285821475148L26.409234183175222,160.66648024084236L26.512395254203252,160.73300579931202L27.13136168037142,160.3664868369945L27.337683822427476,160.57419226115647L27.440844893455505,160.70032562677974L27.544005964483535,160.76165813948052L27.64716703551156,160.79622853753418L27.956650248595643,160.80536345327832L28.059811319623673,160.67817456849545L28.162972390651703,160.74144716590777L28.26613346167973,160.81320817666054L28.781938816819874,160.8384135411204L29.297744171960012,160.85183619310524L29.607227385044098,160.8230260411872L29.710388456072124,160.82238189192398L30.329354882240295,160.80293576324684L31.154643450464523,160.80206611957135L31.464126663548605,160.82346262831126L31.567287734576635,160.6195401248821L32.28941523177283,160.72277535874488L32.598898444856914,160.67226152561162L32.805220586912974,150.0646692317645L33.52734808410917,147.1722100564055L33.6305091551372,148.85594882440282L33.93999236822128,147.42842219311964L34.04315343924931,145.64860626268324L34.76528093644551,138.34452729564364L34.971603078501566,130.4337009679651L35.177925220557626,121.56295045944451L35.281086291585645,110.4180656497894L35.38424736261368,104.19200418665017L36.106374859809875,71.1398028640886L36.62218021495001,63.877644552527606L36.82850235700607,57.89668829865745L36.931663428034106,27.612939525888844L37.03482449906213,26.435678009891802L37.34430771214621,32.25205127762545L37.653790925230304,33.49723020579121L37.86011306728635,4.359202650297904L37.96327413831438,16.508778733683343L38.27275735139847,22.83363720760507L38.89172377756664,24.865827681923903L38.994884848594666,25.878679098527538L39.20120699065072,26.024566982505544L39.51069020373481,25.61677835386922L39.71701234579086,24.98343063472969L39.82017341681889,25.08466724591076L40.02649555887495,25.01661965767543L40.23281770093101,24.824365259444544L40.335978771959034,24.301164552310976L41.05810626915523,23.722577604716946L41.883394837379456,20.886416654654656L41.98655590840748,21.86485212343707L42.089716979435515,21.687424323870662L42.50236126354762,22.551990664509596L43.53397197382791,23.006094837817063L43.637133044855936,23.534079325007177L43.84345518691199,23.90961855457099L44.04977732896805,19.569261950732255L44.25609947102411,20.34828302645134L44.565582684108186,21.955197762390345L44.66874375513621,21.5496476944263L44.771904826164246,22.463062493141916L45.08138803924833,23.36236279207264L46.112998749528614,16.359944032969118L46.319320891584674,5.621299538683734L46.93828731775284,12.216000127720802L47.24777053083692,16.10615536232291L47.35093160186495,18.84940744663152L47.454092672892976,20.509008384243568L47.55725374392101,21.392989184088815L47.76357588597707,21.924562189916713L48.176220170089174,22.142410654496707L48.38254231214523,22.33030074785931L48.588864454201286,22.417354281914903L48.795186596257345,22.53648052951305L49.31099195139748,22.480809265738053L49.929958377565654,22.704914545805796L50.65208587476185,22.90962010094725L50.75524694578988,23.069167685995282L51.27105230093002,23.2241896561974L51.37421337195805,20.594652926276623L51.683696585042135,21.77552592413479L51.78685765607017,22.515032972516902L51.89001872709819,19.842336369272687L52.302663011210306,7.125547548254765L52.40582408223834,13.786463615980072L52.612146224294385,17.873601850614886L52.92162943737848,20.219198490133074L53.33427372149058,21.672038320781265L53.437434792518616,18.309855684836233L53.54059586354664,20.68273478126659L53.643756934574675,21.983619004302998L53.85007907663073,22.88026466571676L54.15956228971481,23.368276913968327L54.26272336074284,23.758744476665846L54.36588443177087,23.868507649494518L54.67536764485495,24.025033115586083L54.984850857939044,24.171059638914798L55.60381728410721,24.40606611323164L55.81013942616327,24.348282857800548L56.119622639247346,24.21628830647289L56.22278371027538,24.410977659073392L56.42910585233144,24.610246119977464L56.53226692335946,24.610296427955152L57.0480722784996,24.89523668404133L57.15123334952764,25.024604235775875L57.56387763363975,25.197784421263677L57.7701997756958,25.239726033221885L58.079682988779886,25.43054695041445L58.492327272892005,25.133756307364763L58.90497155700411,25.46216941157107L59.11129369906017,25.77202757436787L59.52393798317228,26.02277947252835L59.62709905420031,26.05163112881961L59.73026012522834,26.201344481596678L59.93658226728439,26.156385288740164L60.45238762242454,26.30782701563016L60.55554869345256,17.76055651675348L60.96819297756468,21.431010693588657L61.07135404859271,23.633464826997585L61.174515119620736,24.944363438990344L62.20612582990101,25.911475685965705L62.72193118504115,26.56240790216345L63.444058682237355,27.108116436982677L63.54721975326538,27.38701153090083L64.06302510840553,27.28408320475242L64.16618617943355,27.647748693502724L64.3725083214896,27.935831067657745L64.57883046354566,28.021195356063497L64.99147474765778,28.211173243883973L65.91992438691003,28.49847191246172L66.12624652896609,28.693475558694793L66.22940759999412,28.763120400122865L66.5388908130782,23.743530704504618L67.15785723924637,25.977540740853275L67.98314580747059,27.53048230020388L68.08630687849862,27.259416441163342L68.18946794952664,28.25839806360686L68.39579009158271,28.851824923271817L68.49895116261074,29.222683664660508L68.80843437569482,29.491371729884747L68.91159544672284,28.051962331240574L69.42740080186299,28.164291030781605L69.53056187289101,28.970220419998586L70.66533365419933,29.44306599078541L70.97481686728341,29.359001725381344L71.07797793831145,29.810387572466972L71.28430008036749,29.60131630076372L71.49062222242355,30.027716525283612L71.80010543550765,30.316435151135966L72.93487721681595,29.66388987467166L73.34752150092807,30.328596575491265L73.4506825719561,30.65523953479191L73.65700471401215,30.859639392829404L73.96648792709622,31.06600554815063L74.17281006915229,31.231457379038194L74.68861542429242,31.443365047375355L74.79177649532046,31.328163541830573L75.41074292148862,31.625819244606415L75.61706506354469,31.799295514294265L75.7202261345727,31.96790635143026L75.82338720560074,32.05081930927301L75.92654827662876,32.11906937886087L76.0297093476568,32.196289604307104L76.13287041868482,32.1771293014163L76.33919256074088,32.26568212736856L76.54551470279694,32.333091308704724L77.06132005793708,32.41199047731389L77.16448112896511,32.18030305258625L77.26764219999313,32.281315033492085L77.4739643420492,32.29685101075083L77.8866086261613,32.160918131863575L78.09293076821736,32.03221427288513L78.29925291027341,31.880279959256285L78.71189719438553,31.764564148741716L78.81505826541355,31.646340091337336L78.91821933644158,31.602258859518223L79.3308636205537,31.13582191558188L79.74350790466582,31.24023180317235L79.84666897569383,31.332313204857428L80.15615218877792,31.416650054062483L80.36247433083398,31.484747611435047L80.46563540186202,30.97150861064761L80.56879647289003,31.237369308287782L80.67195754391807,30.941948804907064L80.7751186149461,31.199875532485244L80.87827968597414,31.420945278495793L81.08460182803017,31.523977926502972L81.18776289905821,31.630130372101416L81.70356825419834,31.78728488302783L81.80672932522637,31.84468355557188L82.11621253831046,31.942652832648132L82.21937360933849,32.03607783365627L82.52885682242257,31.98552155297343L82.73517896447862,31.874758474544404L83.14782324859074,32.131688049112455L83.3541453906468,32.122732626145535L83.56046753270286,32.340180543318674L83.76678967475891,32.46244052899174L84.076272887843,32.61722478060805L84.48891717195511,32.81176319135627L84.59207824298313,32.940753977924494L84.7984003850392,33.03083472247672L85.10788359812328,33.15869887616981L85.5205278822354,33.2606319768188L86.03633323737554,33.338312025383L86.75846073457174,33.574207296658244L86.86162180559975,33.28869127763315L87.06794394765582,33.55928485463488L87.17110501868383,33.734808980654975L87.27426608971187,33.8492048216595L87.3774271607399,33.97654743089484L87.58374930279595,34.08688176722625L87.89323251588003,34.00981395890968L88.30587679999215,34.192621102796515L88.40903787102017,34.324215170242866L88.8216821551323,34.35079977133433L89.13116536821637,34.4668271786141L89.54380965232849,34.619372282694044L89.85329286541257,34.75436749801401L89.95645393644061,34.87174141823238L90.05961500746864,34.98023248503674L90.16277607849666,35.030733765775665L90.26593714952469,35.06075814483751L90.47225929158074,35.11089316682578L90.57542036260877,35.02654897607376L90.67858143363681,35.15461240308956L90.88490357569286,35.25315097416728L90.98806464672089,35.289843144294544L91.09122571774891,35.31106876242373L91.19438678877695,34.635582728083094L91.400708930833,34.989153690190975L91.60703107288904,35.23182939727306L91.71019214391708,35.38922875127327L92.43231964111328,35.38831797547234L92.74180285419736,35.65085866541131L92.8449639252254,35.770028130060616L92.94812499625343,35.89259866971373L93.15444713830948,36.010916073310135L93.46393035139356,36.04950183469583L93.67025249344962,36.16586363623152L93.87657463550568,34.595341325251255L94.28921891961778,35.37935996399189L94.7018632037299,35.91044256489736L95.01134641681398,35.76762846565246L95.11450748784202,35.18161994769682L95.21766855887005,35.829896857151546L95.32082962989807,36.23115443346211L95.4239907009261,36.50086274117143L95.93979605606624,36.37131409138984L96.55876248223441,36.78126606835513L96.76508462429047,37.01997611064006L96.86824569531849,37.18914720209532L96.97140676634652,37.247126426220184L97.28088997943061,37.3792385587641L97.59037319251469,37.49321639618833L97.69353426354272,37.57825358466896L98.00301747662681,37.67153188577041L98.10617854765484,37.71900186715972L98.20933961868286,35.615664917471506L98.41566176073891,36.51707694090669L98.62198390279497,36.70870617143038L99.24095032896315,37.231871342036925L99.55043354204723,37.304443030145634L99.65359461307524,37.62868315045228L99.96307782615935,37.30646594444748L100.06623889718736,37.56427021460379L100.1693999682154,37.8373264003784L100.37572211027145,38.04402415649555L100.47888318129948,38.169811702207525L101.09784960746765,38.35257858753676L101.51049389157976,38.4535403500562L101.6136549626078,38.57195780827834L101.81997710466385,38.67459169267874L102.0262992467199,38.72142072718582L102.23262138877597,38.82059759997487L102.33578245980398,38.886571235175616L102.43894353083202,38.962966533493415L102.54210460186005,39.02774428195697L102.64526567288807,39.08692160215633L102.95474888597217,39.09041815547737L103.16107102802822,39.11276358387548L103.36739317008427,39.207626740064946L103.67687638316836,39.31487908857127L103.88319852522442,39.34007401915463L103.98635959625244,39.42752602706543L104.08952066728048,39.53032378976507L104.50216495139257,39.61615493090907L104.70848709344864,39.68626646623029L104.81164816447668,39.5897991325709L105.01797030653272,39.654900161887845L105.32745351961681,39.81107090884336L105.74009780372891,39.92353229918173L106.04958101681301,40.01980101009855L106.35906422989709,40.16577783038704L106.46222530092511,40.23101586685525L106.66854744298116,40.32031941306041L106.87486958503723,40.35273801099936L107.08119172709328,40.30423686610872L107.59699708223343,40.45966557552934L107.90648029531751,40.624416837338806L108.00964136634555,40.77021430508374L108.11280243737357,39.450096943578544L108.42228565045765,40.07931154005178L109.24757421868189,40.54589295665813L109.3507352897099,40.87351897493237L109.45389636073794,41.044769421711116L109.66021850279398,40.917828268484676L110.0728627869061,41.176833082666064L110.27918492896217,41.34404569460482L110.38234599999018,41.429657501412564L110.7949902841023,41.407465525818296L111.00131242615836,41.56145278150923L111.10447349718638,41.68959017879246L111.41395671027048,41.791233157325934L111.62027885232654,41.89675711906641L111.82660099438257,41.973725131557266L112.13608420746668,42.04319371865384L112.34240634952272,42.08575536851288L112.44556742055076,42.03938768661868L112.65188956260681,42.145177652923685L112.75505063363484,42.22886754175426L113.06453384671892,42.27688220525972L113.37401705980301,42.31210323701401L113.47717813083104,42.41897579063058L114.19930562802723,42.586022780055L114.30246669905527,42.68435573223644L114.40562777008329,42.42805839395861L114.50878884111131,42.62097493431808L114.71511098316738,42.752925224709955L114.8182720541954,42.82311669246576L115.02459419625146,42.86979989475363L115.1277552672795,42.93922084231596L115.23091633830751,43.00525490272226L115.5403995513916,43.03911459457141L115.64356062241963,43.13239720639943L115.74672169344765,43.16431694888519L115.8498827644757,43.18068515846285L116.05620490653175,43.22921639129975L116.6751713326999,43.33130587614017L116.77833240372794,43.407839951422176L117.08781561681202,43.50284715074748L117.80994311400822,43.66245115717875L118.1194263270923,43.72498760896034L118.8415538242885,43.873708825050095L118.94471489531654,43.97632669760847L119.04787596634456,43.92740879167514L119.25419810840062,44.05632650480703L119.35735917942864,43.777016377946694L119.46052025045668,43.96162934226845L119.77000346354076,44.08490571458468L119.87316453456879,44.22099992251805L120.07948667662484,44.30294863033855L120.2858088186809,44.36499760020918L120.38896988970892,44.440530601989046L120.80161417382104,44.44396556649905L120.90477524484908,44.551567804744366L121.31741952896118,44.64721505627192L121.42058059998921,44.67717373528349L121.52374167101723,44.73928437849777L121.62690274204527,44.79911203479701L121.93638595512935,44.86139196925152L122.03954702615738,44.91201082655773L122.14270809718542,44.94520920947234L122.4521913102695,45.01620894534379L122.55535238129751,45.06655953480816L123.38064094952175,45.15705041259401L123.79328523363385,45.23271378687596L123.9996073756899,45.33605881948848L124.20592951774597,45.43911361062992L124.30909058877401,45.47800616664947L124.61857380185809,45.57818584516037L124.7217348728861,45.634068843149535L124.92805701494217,45.693622676422045L125.03121808597021,45.68610398659901L125.13437915699822,45.73946870919333L125.23754022802625,45.77298794224953L125.54702344111034,45.81251781034415L126.37231200933456,45.95319976903607L126.57863415139062,46.042114091169815L126.78495629344668,46.124605970520406L126.99127843550274,46.22237842624101L127.09443950653076,46.24111942772416L127.19760057755879,46.295867717263675L127.40392271961484,46.34009208824638L127.6102448616709,46.39614509678122L127.71340593269892,46.445187584131155L127.81656700372696,46.47651621485379L128.12605021681105,46.522865466204145L128.3323723588671,46.576525321024974L129.0544998560633,46.67875040635254L129.1576609270913,46.68642643333889L129.4671441401754,46.717901045833116L129.6734662822315,46.771630617498595L130.29243270839964,46.93203406512361L130.39559377942766,46.94349961355014L130.6019159214837,47.01523568518715L130.80823806353976,47.077727243788175L131.2208823476519,47.17161745803595L131.633526631764,47.251002461002535L131.83984877382005,47.35332302454375L132.0461709158761,47.331778806116915L132.3556541289602,47.45012538601869L132.45881519998824,47.50170316043961L132.56197627101625,47.50402378200723L132.6651373420443,47.613646288327246L133.28410376821245,47.66620837968307L133.3872648392405,47.74467260305718L134.00623126540864,47.75757361584813L134.2125534074647,47.8719136595512L134.41887554952078,47.93927393355625L134.5220366205488,47.98008099151313L134.62519769157683,48.026897488313246L135.55364733082908,48.136210328779505L135.75996947288513,48.12324817083423L136.06945268596922,48.25378007099424L136.48209697008133,48.37118066963567L136.68841911213738,48.47077616015007L136.79158018316542,48.53263796217793L137.20422446727753,48.61388653078225L137.30738553830557,48.635881179814724L137.51370768036162,48.707467200287965L137.61686875138963,48.752732586537135L137.72002982241767,48.79189501428362L138.02951303550176,48.84220618935767L138.13267410652978,48.87386170654381L139.16428481681007,48.977461754955335L139.37060695886612,49.092585886339L139.47376802989416,49.15698543620193L139.78325124297822,49.23005538621631L139.88641231400626,49.3053149320631L139.9895733850343,49.32361745694766L140.29905659811837,49.38359491238058L140.4022176691464,49.39106194988826L140.50537874017442,49.41947749283163L142.05279480559486,49.60722095219823L142.36227801867895,49.76017644490152L142.56860016073497,49.81246159474522L142.671761231763,49.87050425996712L142.8780833738191,49.92909934591009L142.9812444448471,49.96807057094071L143.2907276579312,50.01886323576536L143.6002108710153,50.09147637008117L143.7033719420433,50.11230135299215L143.80653301307132,50.18021636215114L143.90969408409936,50.25990863150125L144.1160162261554,50.30317146515586L144.3223383682115,50.32832368772252L144.5286605102675,50.337962253607316L144.7349826523236,50.38453256900953L144.8381437233516,50.41057951677766L145.04446586540766,50.377093292344284L145.25078800746374,50.45364702755868L145.4571101495198,50.45252200227546L145.5602712205478,50.525623209869906L145.66343229157584,50.56812962645717L145.76659336260388,50.59716336365338L145.8697544336319,50.61712638828098L146.9013651439122,50.677760579462465L147.3140094280243,50.78240532298448L147.72665371213643,50.89434999480905L147.82981478316444,50.97639049504873L147.93297585419245,51.020924072546336L148.13929799624853,49.88509125411945L148.4487812093326,50.39886508233977L148.7582644224167,50.762446739771285L148.96458656447274,50.967238230263774L149.17090870652882,51.12813640661554L149.27406977755683,51.23762218074043L149.48039191961288,51.29253051091676L149.893036203725,51.33443447340322L149.996197274753,51.37299752957724L150.09935834578107,51.43799256090142L150.30568048783712,51.48532864217803L150.40884155886513,51.523664514999446L150.71832477194923,51.545402544376785L150.82148584297724,51.583541517844274L150.92464691400528,51.641842226955355L151.02780798503332,51.65879811632784L151.23413012708937,51.67242256880047L151.74993548222952,51.7425953269764L152.0594186953136,51.82289994282632L152.57522405045373,51.72018990371094L152.78154619250978,51.87173116494089L153.1941904766219,51.97407869997466L153.40051261867794,52.053835527507445L153.81315690279007,52.12038539147636L153.91631797381808,52.09018347850953L154.01947904484615,52.16922899200899L154.12264011587416,52.216296993912714L154.32896225793021,52.244814184436464L154.6384454710143,52.31841453991154L154.74160654204232,52.317764137614404L154.9479286840984,52.36254776643397L155.0510897551264,52.4165396388913L155.15425082615442,52.44195790469245L155.7732172523226,52.517674964007966L155.97953939437866,52.5817851733676L156.0827004654067,52.60530258186344L156.28902260746273,52.64928282226267L156.3921836784908,52.655012834444214L156.70166689157486,52.70120433065296L156.80482796260287,52.74084345598045L157.32063331774302,52.76417681132708L157.42379438877106,52.83560264117326L157.5269554597991,52.85875552459907L157.83643867288316,52.9345426824338L158.04276081493924,52.928397285927836L158.14592188596725,52.95318210273946L158.24908295699527,52.99259636990451L158.35224402802334,53.0416806501419L158.45540509905135,53.00485304459833L158.55856617007936,53.01659443840843L159.17753259624752,53.09520833082652L159.69333795138766,53.1489507851376L159.79649902241573,53.19719525449389L159.89966009344374,53.223942666314805L160.4154654485839,53.21019238966088L160.828109732696,53.34359967853169L161.03443187475204,53.39084847752818L161.13759294578006,53.44391486447249L161.5502372298922,53.51793171625745L161.9628815140043,53.58671147393813L162.6850090112005,53.659317935989975L162.89133115325654,53.7184780711777L163.2008143663406,53.76989023224555L163.4071365083967,53.1213053060001L163.51029757942473,53.45419002208882L163.81978079250882,53.606954398984115L163.92294186353683,53.74337231124691L164.1292640055929,53.84546265817053L164.23242507662093,53.905173034208005L164.541908289705,53.9580840720275L166.29564649718148,54.10559836137439L166.39880756820952,54.1958797754439L166.50196863923753,54.27746645053136L166.60512971026554,54.32384803433582L167.01777399437768,54.31978164999227L167.32725720746177,54.369149034740246L167.43041827848978,54.41353655540111L167.73990149157387,54.44117196641056L167.84306256260192,54.46121597712456L167.94622363362993,54.51750416879187L168.35886791774206,54.562316865373674L168.46202898877007,54.53724327959895L168.56519005979808,54.57742962339921L168.77151220185416,54.584598760592826L168.97783434391022,54.61992297677361L169.18415648596627,54.6633471095949L169.39047862802232,54.728293523685814L170.00944505419048,54.77044379844744L170.21576719624656,54.81011805640214L170.7315725513867,54.88412676811631L170.83473362241472,54.902594825900024L171.76318326166697,54.98398517080655L171.866344332695,55.05734301272982L173.00111611400334,55.14012330285039L173.41376039811541,55.18791202912847L173.51692146914348,55.26674598921959L173.82640468222755,55.315562558452804L173.92956575325556,55.29105133267204L174.23904896633965,55.34694629050034L174.44537110839573,55.42486745144801L174.54853217942374,55.476176624391805L174.65169325045176,55.481877817576205L175.37382074764795,55.55217686697271L175.476981818676,55.50305698705851L175.58014288970404,55.53276397411092L175.68330396073205,55.591624092657085L175.99278717381614,55.647894427322946L176.1991093158722,55.69229761931058L176.3022703869002,55.74334471689047L176.40543145792827,55.75448752404197L176.50859252895629,55.77246963719715L177.02439788409643,55.791092569846185L177.23072002615245,55.82047249283762L177.7465253812926,55.84092751516335L177.84968645232067,55.903854805350015L178.15916966540473,55.94338007150367L178.88129716260093,55.99853649755245L179.08761930465698,56.08194901429543L180.11923001493727,56.162344078430976L180.32555215699333,56.163050040132106L180.42871322802137,56.218261889407465L180.6350353700774,56.257580121118494L180.73819644110543,56.29090391479399L180.94451858316148,56.29085206400037L181.04767965418952,56.30783469416598L181.66664608035768,56.34348763114185L181.76980715138572,56.37682731144806L182.3887735775539,56.439071313965925L182.49193464858192,56.46279171896823L183.42038428783417,56.48806769197079L183.8330285719463,56.53342289307263L184.03935071400232,56.60083487506446L184.45199499811446,56.641511072604224L185.07096142428261,56.73920340984524L185.3804446373667,56.79454952064854L185.58676677942276,56.839405025351304L185.89624999250685,56.85071022495713L186.10257213456288,56.91395179852356L186.20573320559095,56.916826878569616L186.61837748970302,56.93420346243014L186.7215385607311,56.8685552096958L186.92786070278711,56.943705966172516L187.03102177381516,56.9840227805979L187.2373439158712,57.01949350443848L187.54682712895527,57.05345431451462L187.64998819998334,57.066928962862036L187.75314927101135,57.09340943941982L188.16579355512349,57.125825810368774L188.3721156971795,57.16649049217887L188.47527676820755,57.13466380422642L188.57843783923556,57.16434262045192L188.78475998129164,57.20934662532775L188.99108212334767,57.21999862212709L189.19740426540375,57.23162937319617L189.5068874784878,57.254697634261234L189.8163706915719,54.74712118020249L189.91953176259995,55.740262715852545L190.02269283362796,56.387161220229785L190.33217604671205,56.73468292903342L190.53849818876813,56.95176797356212L190.64165925979614,57.048757512424544L190.9511424728802,57.09351081496116L191.05430354390828,57.13667371841194L191.36378675699234,56.97104546435544L191.77643104110444,57.02000669297774L191.87959211213249,56.95107962398764L191.9827531831605,56.987294036724116L192.7048806803567,57.040783772721184L192.91120282241275,57.06067304891593L193.01436389344082,57.09489939246138L193.11752496446883,56.93927645207364L193.4270081775529,57.01408562648958L193.53016924858093,57.05420538851799L193.73649139063698,57.08380503336521L194.14913567474912,57.13853782268007L194.25229674577713,57.15173805650285L194.35545781680514,57.17253794197486L194.66494102988923,57.20892555475865L195.07758531400137,57.26827600675899L195.18074638502938,57.212579071567625L195.38706852708543,57.237905499282824L195.49022959811347,57.268966106410566L195.5933906691415,57.32877264327294L195.69655174016953,57.313275779367736L195.9028738822256,57.34837764095426L196.21235709530967,57.344239943151976L196.31551816633768,57.37123622621848L196.41867923736572,57.389388463827615L196.52184030839376,57.406277455971846L196.93448459250587,57.4231508037475L197.0376456635339,57.45669683828595L197.55345101867402,57.42434601229984L197.75977316073008,57.4716243260467L197.86293423175815,57.500666494069634L197.96609530278616,57.50142946359811L198.37873958689826,57.5411937637856L198.68822279998233,57.583803389223654L198.8945449420384,57.59871632803915L199.20402815512247,57.56955789245773L199.30718922615048,57.62526258459186L199.41035029717855,57.61379186747569L199.51351136820657,57.63726883655496L199.6166724392346,57.65533502509626L199.82299458129066,57.66753299461017L200.0293167233467,57.255782299234156L200.3387999364308,57.44911492882703L200.44196100745884,57.5887418502821L200.64828314951487,57.68704029094361L200.7514442205429,57.6807875128845L200.85460529157095,57.71611730459449L201.164088504655,57.7214701712205L201.3704106467111,57.787449919736964L201.4735717177391,57.81937783455929L201.57673278876712,57.830787783930944L201.67989385979516,57.8001198176436L202.40202135699136,57.830383311115554L202.5051824280194,57.86414951041456L202.8146656411035,57.91522664603227L203.33047099624363,57.93852886669422L203.74311528035574,57.955218815030186L204.3620817065239,57.98063556942132L204.46524277755194,58.02168854502979L204.67156491960796,58.040295041877975L205.0842092037201,58.033446249151915L205.18737027474813,58.04935546157705L205.29053134577615,58.036379202858825L205.4968534878322,58.077534110253794L205.6000145588602,58.09117937626985L205.70317562988828,58.092480491860144L206.11581991400035,58.14669907391936L206.5284641981125,58.17874456752736L206.73478634016854,58.1741076148087L206.83794741119658,58.18454475245313L207.66323597942082,58.231428377282214L207.76639705044883,58.070930696138824L208.0758802635329,58.146293583888685L208.385363476617,58.20894358967239L208.79800776072912,58.257632601020084L209.00432990278514,58.290040279395L209.41697418689728,58.33687112570782L209.93277954203742,58.366963585462116L210.03594061306543,58.40522707352278L210.44858489717754,58.44444870725114L210.5517459682056,58.18036694866952L210.86122918128967,58.32615942784689L210.96439025231768,58.37328206565288L211.06755132334575,58.43734017640251L211.37703453642982,58.46809536646606L211.6865177495139,58.5105469756587L211.78967882054192,58.48466479408978L211.99600096259798,58.514921360405374L212.20232310465406,58.55915066413029L212.30548417568207,58.586738526015L212.40864524671008,58.604100669191645L213.1307727439063,58.57871763335267L213.33709488596233,58.54202815058493L213.44025595699037,58.599855456402956L214.05922238315856,58.550817702555555L214.16238345418657,58.57575294475059L214.2655445252146,58.6458340295801L214.36870559624262,58.688806610695984L214.47186666727066,58.717334311081935L214.6781888093267,58.741735765726176L214.9876720224108,58.72328098428678L215.709799519607,58.73733191020239L215.81296059063502,58.783114516452905L215.91612166166308,58.78583933371862L216.8445713009153,58.80262431060452L217.1540545139994,58.802385972805766L217.2572155850274,58.824350172227525L217.66985986913954,58.84958321733414L217.77302094016756,58.8991611613342L217.8761820111956,58.91605187307432L217.97934308222364,58.91396594103592L218.2888262953077,58.93298556873675L218.39198736633574,58.93714014988276L218.49514843736378,58.954573718850824L218.5983095083918,58.96388881850826L219.0109537925039,58.969683196129L219.11411486353194,58.89081947752997L219.21727593455995,58.881935164079344L219.52675914764404,58.9099450322585L219.7330812897001,58.92502549374141L219.93940343175618,58.968085458235805L220.1457255738122,58.93297757830957L220.24888664484024,58.97671826347834L220.35204771586828,59.00062915851573L220.55836985792433,59.02886228774915L220.66153092895235,59.03615222745479L221.1773362840925,59.07276109000166L221.48681949717658,59.02757563308216L221.69314163923264,59.057586147249005L222.00262485231673,59.08694811090942L222.31210806540082,59.11653689774479L222.41526913642883,59.078376597966596L222.62159127848489,59.11781017204987L222.82791342054097,59.151293984802614L223.44687984670912,59.13013513147381L223.55004091773714,59.15577897511166L223.75636305979322,59.18760650107444L223.96268520184927,59.13503130160693L224.89113484110152,59.175457976871556L224.99429591212953,59.160490380374355L225.09745698315754,59.20026096095461L225.2006180541856,59.23589749695506L226.43855090652193,59.261875379127865L226.644873048578,59.213560883426524L226.85119519063406,59.26797860450584L227.05751733269008,59.29737573929109L227.47016161680222,59.2936214820334L227.57332268783023,59.28363792183599L227.6764837588583,59.29984580147251L227.7796448298863,59.30278319572848L227.88280590091432,59.33886134820635L227.98596697194236,59.348647186806566L228.08912804297037,59.35234311069227L228.29545018502645,59.36682445672322L228.39861125605447,59.3732429229937L228.50177232708248,59.38091607306028L228.70809446913856,59.36411557971218L229.2238998242787,59.38046995383484L229.53338303736277,59.38294641443922L229.73970517941885,59.36119978907612L229.84286625044686,59.32750552705948L230.0491883925029,59.32215082173524L230.358671605587,59.36616504700122L230.6681548186711,59.41785136530971L230.87447696072715,59.40846292555759L231.18396017381124,59.41694546226198L231.4934433868953,59.403272093699854L231.59660445792335,59.44805981383743L231.9060876710074,59.45776471690851L232.1124098130635,59.4757408946981L232.2155708840915,59.48790065143992L233.04085945231574,59.420109407368344L233.14402052334378,59.472968776047985L233.3503426653998,59.42024349278483L233.86614802053995,59.47604607787737L234.3819533756801,59.47007501893227L234.48511444670814,59.52657548668569L234.58827551773618,59.5300452964335L234.7945976597922,59.5613770756854L234.89775873082024,59.51631835084861L235.1040808728763,59.49516626135294L235.31040301493235,59.518066063154514L235.61988622801644,59.54322082569178L235.72304729904448,59.54364135547574L236.13569158315659,59.56599297860768L236.65149693829673,59.58379064681337L236.85781908035278,59.59949953448028L237.47678550652097,59.50634492234298L237.57994657754898,59.5761461489317L237.683107648577,59.576106512549394L237.78626871960503,59.62864014582394L237.88942979063307,59.62994306955016L238.19891300371714,59.62830444248784L238.40523514577322,59.64624604204439L238.71471835885728,59.6523597633295L238.8178794298853,59.6641064628801L239.1273626429694,59.64835235863591L239.33368478502547,59.65359986276598L239.54000692708152,59.64616660035193L239.64316799810953,59.608176662506665L239.74632906913757,59.64483010734247L240.15897335324968,59.58276031806768L240.5716176373618,59.641259726257736L240.67477870838982,59.683154601537176L240.77793977941784,59.70636864629348L241.19058406352997,59.70777268574514L241.293745134558,59.723674382288664L241.50006727661406,59.7204541076285L241.60322834764207,59.71654378454476L241.80955048969815,59.72932003828282L241.91271156072617,59.67500349751225L242.0158726317542,59.683181006822586L242.22219477381023,59.69039338953451L242.3253558448383,59.71778353883879L242.4285169158663,59.71937946705402L242.53167798689432,58.320582743426414L242.84116119997842,58.90513250493609L243.04748334203447,59.25237985563486L243.15064441306248,59.458627706754655L243.7696108392307,59.147497467719845L243.8727719102587,59.40960855673506L243.97593298128672,59.52513251669676L244.38857726539885,59.610994719786724L244.5948994074549,59.64473230757017L244.80122154951096,59.67276509237907L245.2138658336231,59.68571136350356L245.93599333081926,59.677424851532265L246.24547654390335,59.721776603689754L246.4517986859594,59.76633717110342L246.65812082801548,59.766551976185895L246.7612818990435,59.79928296099433L246.96760404109955,59.800103383418296L247.17392618315563,59.803714888464015L247.38024832521165,59.8208226117719L247.4834093962397,59.818973494007054L247.5865704672677,59.79931039900937L247.8960536803518,59.817682417212396L247.9992147513798,59.83704469061633L248.30869796446393,59.56086568853222L248.41185903549194,59.64970106239289L248.72134224857604,59.73175073080602L249.0308254616601,59.79211507550901L249.4434697457722,59.82555399483677L250.06243617194042,59.819340613091335L250.16559724296843,59.82121144322951L250.4750804560525,59.81994119895248L250.57824152708054,59.83645733715035L250.7845636691366,59.80745139515252L250.99088581119264,59.824892634122705L251.09404688222068,59.844624318624874L251.30036902427673,59.84625666430899L251.40353009530475,59.85771912611813L251.60985223736083,59.847357802636886L251.71301330838884,59.840979123339L251.81617437941688,59.85989876185848L251.9193354504449,59.85209281241182L252.12565759250097,59.85076145109957L252.33197973455702,59.86977580454672L252.43514080558504,59.88786514280808L252.84778508969714,59.888448906031925L252.95094616072518,59.89891896374925L253.15726830278123,59.88883874699426L253.4667515158653,59.90186938110493L253.67307365792138,59.90016812158816L253.98255687100547,59.87805885606892L254.60152329717366,59.90128854037585L255.2204897233418,59.916560916830726L255.63313400745392,59.89714173223584L255.942617220538,59.90144183721174L256.4584225756782,59.90805323674758L256.6647447177342,59.836542084798545L256.9742279308183,59.861208648988494L257.59319435698643,59.878511885615005L257.6963554280145,59.901761727510035L257.9026775700706,59.83786064071526L258.2121607831546,59.88489666858673L258.5216439962387,59.87294706291703L258.6248050672667,59.89141438886011L258.72796613829473,59.90865037079416L259.656415777547,59.89181498691272L259.759576848575,59.92878286825494L259.8627379196031,59.9162096065453L259.9658989906311,59.912432441947516L260.1722211326871,59.91833937204208L260.3785432747432,59.933511626220884L260.6880264878273,59.95551446600519L260.7911875588553,59.95034022442513L261.2038318429674,59.92924667916055L261.4101539850235,59.9159272174862L261.5133150560515,59.92246177668975L261.6164761270795,59.948849020508895L261.7196371981076,59.93446016214218L262.5449257663318,59.92551097354328L263.4733754055841,59.926893258132246L263.6796975476401,59.95897042267514L263.9891807607242,59.977427037453715L264.50498611586437,59.96364965250343L264.81446932894846,59.910560760691844L264.9176303999765,59.92663334435867L265.22711361306057,59.89513830933092L265.3302746840886,59.91927906343507L265.6397578971726,59.934371572536854L265.94924111025676,59.959394487409746L266.1555632523128,59.949758251922525L266.36188539436887,59.95084281255087L266.67136860745296,59.962967656680256L266.980851820537,59.9487710566343L267.084012891565,59.96097045496075L267.1871739625931,59.93742529688148L267.39349610464916,59.94729274876869L268.21878467287337,59.94497286791226L268.4251068149294,59.93921793559029L268.6314289569855,59.94614142326296L268.83775109904155,59.94588907944132L269.35355645418167,59.97498756655156L269.8693618093218,59.98113443627446L270.28200609343395,59.97848929285191L270.69465037754605,59.926011024823L270.79781144857407,59.90823297732852L270.9009725196021,59.901246076025636L271.3136168037142,59.917340915846715L271.41677787474225,59.932636163122154L271.51993894577026,59.94220420504127L271.6231000167983,59.95483107421205L271.93258322988237,59.95956433350472L272.4483885850225,59.9798128716957L272.7578717981066,59.90267637912348L272.96419394016266,59.910712893886235L273.37683822427476,59.92016235067433L273.4799992953028,59.95466733407811L273.58316036633084,59.92035304352101L273.68632143735886,59.94851955608506L273.8926435794149,59.91980731883489L274.09896572147096,59.94035845651745L274.40844893455505,59.93971858029472L274.71793214763915,59.88442003287483L274.82109321866716,59.92775733048399L275.02741536072324,59.863739687491794L275.23373750277926,59.90079919652755L275.9558649999755,59.923090179825294L276.26534821305955,59.942174184741994L276.36850928408757,59.85199621211093L276.57483142614365,59.911521000110376L276.78115356819967,59.91995624095502L276.98747571025575,59.93338803530181L277.09063678128376,59.962910721594014L277.29695892333984,59.95681141394237L277.60644213642394,59.975484091377375L277.81276427847996,59.950156918442275L278.12224749156405,59.92918012818792L278.32856963362013,59.91637294253012L278.43173070464815,59.94579587981296" fill="none"></path></g><g><path style="fill: none;" stroke="rgb(0, 119, 187)" stroke-width="2px" d="M278.5348917756762,59.85734235100734Z" fill="none"></path></g></g></g></g><g opacity="0.2"><g><g><g><path style="fill: none;" stroke="rgb(255, 112, 67)" stroke-width="2px" d="M21.148019560745784,160.73362571703962L21.25118063177381,160.79455569449934L21.663824915885925,160.7606173302831L21.766985986913955,160.42706855792636L22.076469199998037,160.63994598851576L22.179630271026067,160.215076359957L22.489113484110153,160.44130816353936L22.59227455513818,160.81715893225322L22.69543562616621,159.81600201973234L23.10807991027832,160.81826510671985L24.036529549530574,160.71899234909904L24.34601276261466,160.321246127716L24.75865704672677,160.52243261136135L24.964979188782827,159.98135859933174L25.171301330838887,160.8307196718714L25.274462401866913,160.8233985150819L25.48078454392297,160.44552448972368L25.687106685979025,160.92756777588056L26.09975097009114,160.8827758844451L26.20291204111917,160.86667612585458L26.306073112147192,160.03810726198526L26.409234183175222,160.91190789592625L26.512395254203252,160.83279282358544L27.13136168037142,159.8167127352848L27.337683822427476,160.88574892111808L27.440844893455505,160.8895251373135L27.544005964483535,160.85365675159863L27.64716703551156,160.84808408154097L27.956650248595643,160.81906581847994L28.059811319623673,160.48739131161653L28.162972390651703,160.83635604104433L28.26613346167973,160.92084967851164L28.781938816819874,160.87622158480116L29.297744171960012,160.87197017012113L29.607227385044098,160.77981081454828L29.710388456072124,160.82141566804577L30.329354882240295,160.77376657053193L31.154643450464523,160.8007616540662L31.464126663548605,160.85555739130194L31.567287734576635,160.31365637041984L32.28941523177283,160.87762820933204L32.598898444856914,160.5964907759725L32.805220586912974,134.15328079865088L33.52734808410917,142.83352129461974L33.6305091551372,151.38155697596122L33.93999236822128,145.28713224641746L34.04315343924931,142.97888236719513L34.76528093644551,127.38840884549425L34.971603078501566,118.56746147671365L35.177925220557626,108.25682469684291L35.281086291585645,93.7007384354418L35.38424736261368,94.85291199198666L36.106374859809875,21.56150088039047L36.62218021495001,52.98440708520514L36.82850235700607,48.925253917861575L36.931663428034106,-17.812683633235483L37.03482449906213,24.66978573589692L37.34430771214621,40.97661117922398L37.653790925230304,35.364998598039584L37.86011306728635,-39.347838682938495L37.96327413831438,34.733142858760594L38.27275735139847,32.32092491848743L38.89172377756664,27.91411339340214L38.994884848594666,27.39795622343294L39.20120699065072,26.24339880847256L39.51069020373481,25.005095410914777L39.71701234579086,24.033409056020364L39.82017341681889,25.236522162682384L40.02649555887495,24.914548275322367L40.23281770093101,24.53598366209825L40.335978771959034,23.5163634916106L41.05810626915523,22.854697183325925L41.883394837379456,16.63217522956125L41.98655590840748,23.332505326610665L42.089716979435515,21.42128262452103L42.50236126354762,23.848840175467995L43.53397197382791,23.68725109777826L43.637133044855936,24.32605605579235L43.84345518691199,24.47292739891669L44.04977732896805,13.058727044974118L44.25609947102411,21.516814640029978L44.565582684108186,24.36556986629889L44.66874375513621,20.941322592480258L44.771904826164246,23.833184691215344L45.08138803924833,24.711313240468733L46.112998749528614,5.856315894313793L46.319320891584674,-10.486667202744343L46.93828731775284,22.108051011276395L47.24777053083692,21.9413882142261L47.35093160186495,22.96428557309449L47.454092672892976,22.998409790661587L47.55725374392101,22.7189603838567L47.76357588597707,22.721921698658576L48.176220170089174,22.469183351366716L48.38254231214523,22.61213588790323L48.588864454201286,22.54793458299828L48.795186596257345,22.715169900910265L49.31099195139748,22.39730237007553L49.929958377565654,23.041072465907458L50.65208587476185,23.21667843365946L50.75524694578988,23.308489063567364L51.27105230093002,23.456722611500563L51.37421337195805,16.650347831395496L51.683696585042135,23.54683542092204L51.78685765607017,23.62429354509011L51.89001872709819,15.83329146440638L52.302663011210306,-11.949635683272096L52.40582408223834,23.777837717568044L52.612146224294385,24.004309202567136L52.92162943737848,23.737593449410376L53.33427372149058,23.85129806675355L53.437434792518616,13.266581730918682L53.54059586354664,24.24205342591212L53.643756934574675,23.934945338857563L53.85007907663073,24.225233157837387L54.15956228971481,24.10029528634569L54.26272336074284,24.344445820712075L54.36588443177087,24.03315240873754L54.67536764485495,24.259821314723435L54.984850857939044,24.390099423907863L55.60381728410721,24.758575824706885L55.81013942616327,24.261607974653923L56.119622639247346,24.018296479481403L56.22278371027538,24.703011687974108L56.42910585233144,24.909148811333573L56.53226692335946,24.610371889921687L57.0480722784996,25.322647068170646L57.15123334952764,25.21865556337766L57.56387763363975,25.457554699495354L57.7701997756958,25.302638451159215L58.079682988779886,25.71677832620335L58.492327272892005,24.68857034279023L58.90497155700411,25.954789067880487L59.11129369906017,26.23681481856303L59.52393798317228,26.39890731976907L59.62709905420031,26.094908613256514L59.73026012522834,26.425914510762286L59.93658226728439,26.088946499455375L60.45238762242454,26.534989605965205L60.55554869345256,4.9396507684384865L60.96819297756468,26.936691958841408L61.07135404859271,26.937146027111016L61.174515119620736,26.91071135697949L62.20612582990101,27.362144056428747L62.72193118504115,27.538806226460093L63.444058682237355,27.92667923921148L63.54721975326538,27.80535417177809L64.06302510840553,27.12969071552984L64.16618617943355,28.193246926628156L64.3725083214896,28.367954628890253L64.57883046354566,28.149241788672096L64.99147474765778,28.496140075614672L65.91992438691003,28.929419915328353L66.12624652896609,28.98598102804443L66.22940759999412,28.867587662264917L66.5388908130782,16.214146161077288L67.15785723924637,29.32855579537625L67.98314580747059,29.8598946392298L68.08630687849862,26.85281765260257L68.18946794952664,29.75687049727209L68.39579009158271,29.74196521276926L68.49895116261074,29.778971776743532L68.80843437569482,29.894403827721153L68.91159544672284,25.89284823327431L69.42740080186299,28.332784080093163L69.53056187289101,30.179114503824074L70.66533365419933,30.152334346965656L70.97481686728341,29.232905327275258L71.07797793831145,30.487466343095406L71.28430008036749,29.287709393208868L71.49062222242355,30.66731686206343L71.80010543550765,30.74951308991454L72.93487721681595,28.68507195997517L73.34752150092807,31.325656626720647L73.4506825719561,31.14520397374291L73.65700471401215,31.166239179885643L73.96648792709622,31.37555478113248L74.17281006915229,31.479635125369533L74.68861542429242,31.761226549881123L74.79177649532046,31.155361283513376L75.41074292148862,32.0723027987702L75.61706506354469,32.05950991882603L75.7202261345727,32.220822607134245L75.82338720560074,32.17518874603715L75.92654827662876,32.22144448324266L76.0297093476568,32.31211994247648L76.13287041868482,32.148388847080064L76.33919256074088,32.398511366296916L76.54551470279694,32.43420508070902L77.06132005793708,32.53033923022766L77.16448112896511,31.832771915494767L77.26764219999313,32.432833004850806L77.4739643420492,32.32015497663894L77.8866086261613,31.957018813532667L78.09293076821736,31.839158484417496L78.29925291027341,31.65237848881303L78.71189719438553,31.590990432969893L78.81505826541355,31.469004005230744L78.91821933644158,31.536137011789567L79.3308636205537,30.436166499677345L79.74350790466582,31.39684663455806L79.84666897569383,31.470435307384996L80.15615218877792,31.54315532787005L80.36247433083398,31.586893947493937L80.46563540186202,30.20165010946645L80.56879647289003,31.636160354748032L80.67195754391807,30.498818049835975L80.7751186149461,31.586765623852525L80.87827968597414,31.752549897511607L81.08460182803017,31.678526898513713L81.18776289905821,31.789359040499075L81.70356825419834,32.02301664941743L81.80672932522637,31.930781564387942L82.11621253831046,32.08960674826256L82.21937360933849,32.17621533516847L82.52885682242257,31.90968713194915L82.73517896447862,31.708613856900914L83.14782324859074,32.51708241096454L83.3541453906468,32.109299491695126L83.56046753270286,32.66635241907841L83.76678967475891,32.64583050750132L84.076272887843,32.8494011580325L84.48891717195511,33.10357080747861L84.59207824298313,33.13424015777683L84.7984003850392,33.16595583930505L85.10788359812328,33.35049510670942L85.5205278822354,33.4135316277923L86.03633323737554,33.454832098229296L86.75846073457174,33.928050203571125L86.86162180559975,32.860417249095526L87.06794394765582,33.96517522013746L87.17110501868383,33.99809516968513L87.27426608971187,34.02079858316626L87.3774271607399,34.16756134474788L87.58374930279595,34.2523832717233L87.89323251588003,33.894212246434876L88.30587679999215,34.466831818626744L88.40903787102017,34.52160627141235L88.8216821551323,34.390676672971516L89.13116536821637,34.640868289533756L89.54380965232849,34.848189938813974L89.85329286541257,34.95686032099396L89.95645393644061,35.04780229855996L90.05961500746864,35.142969085243315L90.16277607849666,35.10648568688404L90.26593714952469,35.105794713430285L90.47225929158074,35.18609569980816L90.57542036260877,34.90003268994571L90.67858143363681,35.346707543613256L90.88490357569286,35.400958830783864L90.98806464672089,35.34488139948544L91.09122571774891,35.34290718961751L91.19438678877695,33.622353676572146L91.400708930833,35.51951013335282L91.60703107288904,35.59584295789615L91.71019214391708,35.62532778227362L92.43231964111328,35.38695181177092L92.74180285419736,36.04466970031975L92.8449639252254,35.948782327034586L92.94812499625343,36.07645447919336L93.15444713830948,36.18839217870476L93.46393035139356,36.10738047677442L93.67025249344962,36.34040633853505L93.87657463550568,32.239557858780884L94.28921891961778,36.55538792210281L94.7018632037299,36.707066466255554L95.01134641681398,35.55340731678508L95.11450748784202,34.30260717076335L95.21766855887005,36.802312221333636L95.32082962989807,36.8330407979279L95.4239907009261,36.90542520273541L95.93979605606624,36.176991116717474L96.55876248223441,37.39619403380308L96.76508462429047,37.378041174067505L96.86824569531849,37.44290383927821L96.97140676634652,37.334095262407466L97.28088997943061,37.577406757579986L97.59037319251469,37.66418315232466L97.69353426354272,37.70580936738988L98.00301747662681,37.8114493374226L98.10617854765484,37.790206839243716L98.20933961868286,32.46065949293922L98.41566176073891,37.86919497605943L98.62198390279497,36.99615001721593L99.24095032896315,38.01661909794679L99.55043354204723,37.413300562308656L99.65359461307524,38.11504333091222L99.96307782615935,36.823140135440255L100.06623889718736,37.950976619838244L100.1693999682154,38.24691067904034L100.37572211027145,38.35407079067135L100.47888318129948,38.3584930207755L101.09784960746765,38.62672891553058L101.51049389157976,38.60498299383537L101.6136549626078,38.749583995611594L101.81997710466385,38.82854251927929L102.0262992467199,38.79166427894644L102.23262138877597,38.96936290915844L102.33578245980398,38.98553168797674L102.43894353083202,39.07755948097012L102.54210460186005,39.12491090465232L102.64526567288807,39.17568758245536L102.95474888597217,39.095662985459L103.16107102802822,39.14628172647261L103.36739317008427,39.34992147434915L103.67687638316836,39.475757611330735L103.88319852522442,39.37786641502965L103.98635959625244,39.558704038931644L104.08952066728048,39.684520433814555L104.50216495139257,39.744901642625074L104.70848709344864,39.79143376921208L104.81164816447668,39.44509813208187L105.01797030653272,39.75255170586329L105.32745351961681,40.045327029276685L105.74009780372891,40.09222438468925L106.04958101681301,40.16420407647383L106.35906422989709,40.38474306081982L106.46222530092511,40.328872921557526L106.66854744298116,40.45427473236818L106.87486958503723,40.40136590790775L107.08119172709328,40.23148514877274L107.59699708223343,40.69280863966031L107.90648029531751,40.87154373005297L108.00964136634555,40.98891050670117L108.11280243737357,37.469920901320776L108.42228565045765,41.023133434761654L109.24757421868189,41.245765081567654L109.3507352897099,41.36495800234367L109.45389636073794,41.30164509187928L109.66021850279398,40.72741653864505L110.0728627869061,41.56534030393814L110.27918492896217,41.59486461251296L110.38234599999018,41.558075211624164L110.7949902841023,41.37417756242688L111.00131242615836,41.79243366504564L111.10447349718638,41.8817962747173L111.41395671027048,41.94369762512611L111.62027885232654,42.055043061677125L111.82660099438257,42.089177150293565L112.13608420746668,42.1473965992987L112.34240634952272,42.14959784330145L112.44556742055076,41.969836163777465L112.65188956260681,42.30386260238116L112.75505063363484,42.35440237500007L113.06453384671892,42.348904200517886L113.37401705980301,42.36493478464545L113.47717813083104,42.5792846210555L114.19930562802723,42.83659326419159L114.30246669905527,42.831855160508574L114.40562777008329,42.04361238654184L114.50878884111131,42.910349744857314L114.71511098316738,42.95085066029781L114.8182720541954,42.928403894099496L115.02459419625146,42.93982469818543L115.1277552672795,43.043352263659465L115.23091633830751,43.10430599333167L115.5403995513916,43.08990413234517L115.64356062241963,43.2723211241415L115.74672169344765,43.21219656261383L115.8498827644757,43.205237472829396L116.05620490653175,43.30201324055512L116.6751713326999,43.4844401034008L116.77833240372794,43.52264106434516L117.08781561681202,43.645357949735434L117.80994311400822,43.901857166825685L118.1194263270923,43.81879228663271L118.8415538242885,44.09679064918469L118.94471489531654,44.130253506446024L119.04787596634456,43.854031932775186L119.25419810840062,44.249703074504886L119.35735917942864,43.35805118765618L119.46052025045668,44.238548788751096L119.77000346354076,44.26982027305903L119.87316453456879,44.425141234418106L120.07948667662484,44.42587169206923L120.2858088186809,44.4580710550151L120.38896988970892,44.55383010465885L120.80161417382104,44.44911801326406L120.90477524484908,44.71297116211234L121.31741952896118,44.79068593356325L121.42058059998921,44.722111753800846L121.52374167101723,44.832450343319216L121.62690274204527,44.888853519245856L121.93638595512935,44.954811870933256L122.03954702615738,44.98793911251705L122.14270809718542,44.995006783844225L122.4521913102695,45.122708549151L122.55535238129751,45.142085419004694L123.38064094952175,45.29278672927281L123.79328523363385,45.346208848298886L123.9996073756899,45.49107636840728L124.20592951774597,45.59369579734206L124.30909058877401,45.536345000678814L124.61857380185809,45.72845536292668L124.7217348728861,45.71789334013328L124.92805701494217,45.78295342633077L125.03121808597021,45.67482595186448L125.13437915699822,45.81951579308476L125.23754022802625,45.823266791833824L125.54702344111034,45.871812612486124L126.37231200933456,46.16422270707394L126.57863415139062,46.17548557437046L126.78495629344668,46.248343789546276L126.99127843550274,46.36903710982191L127.09443950653076,46.26923092994892L127.19760057755879,46.377990151572945L127.40392271961484,46.40642864472042L127.6102448616709,46.48022460958349L127.71340593269892,46.51875131515606L127.81656700372696,46.52350916093777L128.12605021681105,46.59238934322969L128.3323723588671,46.65701510325624L129.0544998560633,46.832088034343904L129.1576609270913,46.69794047381834L129.4671441401754,46.76511296457451L129.6734662822315,46.85222497499675L130.29243270839964,47.1726392365611L130.39559377942766,46.96069793618993L130.6019159214837,47.12283979264268L130.80823806353976,47.1714645816897L131.2208823476519,47.31245277940761L131.633526631764,47.370079965452376L131.83984877382005,47.506803869855574L132.0461709158761,47.29946247847666L132.3556541289602,47.627645255871315L132.45881519998824,47.579069822071L132.56197627101625,47.50750471435868L132.6651373420443,47.778080047807244L133.28410376821245,47.74505151671686L133.3872648392405,47.862368938118344L134.00623126540864,47.77692513503451L134.2125534074647,48.04342372510582L134.41887554952078,48.04031434456383L134.5220366205488,48.04129157844846L134.62519769157683,48.09712223351341L135.55364733082908,48.300179589478915L135.75996947288513,48.10380493391633L136.06945268596922,48.449577921234194L136.48209697008133,48.54728156759785L136.68841911213738,48.62016939592166L136.79158018316542,48.625430665219696L137.20422446727753,48.735759383688716L137.30738553830557,48.66887315336339L137.51370768036162,48.81484623099784L137.61686875138963,48.820630665910855L137.72002982241767,48.85063865590332L138.02951303550176,48.91767295196875L138.13267410652978,48.9213449823231L139.16428481681007,49.13286182757266L139.37060695886612,49.26527208341445L139.47376802989416,49.25358476099632L139.78325124297822,49.339660311237886L139.88641231400626,49.41820425083332L139.9895733850343,49.35107124427449L140.29905659811837,49.473561095529945L140.4022176691464,49.40226250614982L140.50537874017442,49.46210080724664L142.05279480559486,49.88883614124814L142.36227801867895,49.98960968395643L142.56860016073497,49.890889319510784L142.671761231763,49.95756825779998L142.8780833738191,50.01699197482456L142.9812444448471,50.026527408486636L143.2907276579312,50.09505223300235L143.6002108710153,50.20039607155487L143.7033719420433,50.1435388273586L143.80653301307132,50.282088875889634L143.90969408409936,50.3794470355264L144.1160162261554,50.36806571563779L144.3223383682115,50.366052021572514L144.5286605102675,50.352420102434486L144.7349826523236,50.45438804211285L144.8381437233516,50.449649938429836L145.04446586540766,50.32686395569419L145.25078800746374,50.568477630380286L145.4571101495198,50.45083446435059L145.5602712205478,50.63527502126156L145.66343229157584,50.631889251338066L145.76659336260388,50.64071396944769L145.8697544336319,50.647070925222415L146.9013651439122,50.76871186623465L147.3140094280243,50.93937243826751L147.72665371213643,51.062267002545894L147.82981478316444,51.099451245408275L147.93297585419245,51.0877244387928L148.13929799624853,48.181342026479115L148.4487812093326,51.1695258246703L148.7582644224167,51.30781922591851L148.96458656447274,51.27442546600254L149.17090870652882,51.369483671143165L149.27406977755683,51.40185084192781L149.48039191961288,51.37489300618129L149.893036203725,51.3972904171329L149.996197274753,51.4308421138383L150.09935834578107,51.5354851078877L150.30568048783712,51.556332764093L150.40884155886513,51.58116832423151L150.71832477194923,51.57800958844284L150.82148584297724,51.64074997804551L150.92464691400528,51.729293290621975L151.02780798503332,51.684231950386575L151.23413012708937,51.69285924750942L151.74993548222952,51.84785446424027L152.0594186953136,51.94335686660118L152.57522405045373,51.566124845037926L152.78154619250978,52.09904305678582L153.1941904766219,52.127600002525355L153.40051261867794,52.17347076880662L153.81315690279007,52.22021018742975L153.91631797381808,52.04488060905927L154.01947904484615,52.2877972622582L154.12264011587416,52.286898996768294L154.32896225793021,52.28758997022205L154.6384454710143,52.428815073124134L154.74160654204232,52.31678853416867L154.9479286840984,52.42972320966337L155.0510897551264,52.4975274475773L155.15425082615442,52.48008530339416L155.7732172523226,52.63125055298126L155.97953939437866,52.67795048740704L156.0827004654067,52.6405786946072L156.28902260746273,52.71525318286148L156.3921836784908,52.66360785271655L156.70166689157486,52.770491574966044L156.80482796260287,52.80030214397173L157.32063331774302,52.799176844347016L157.42379438877106,52.94274138594257L157.5269554597991,52.893484849737824L157.83643867288316,53.04822341918585L158.04276081493924,52.91917919116887L158.14592188596725,52.99035932795696L158.24908295699527,53.051717770652076L158.35224402802334,53.115307070497984L158.45540509905135,52.94961163628297L158.55856617007936,53.03420652912359L159.17753259624752,53.2131291694537L159.69333795138766,53.229564466604174L159.79649902241573,53.269561958528364L159.89966009344374,53.26406378404618L160.4154654485839,53.189566974680005L160.828109732696,53.54371061183787L161.03443187475204,53.46172167602291L161.13759294578006,53.523514444889L161.5502372298922,53.628956993934914L161.9628815140043,53.6898811104591L162.6850090112005,53.76822762906773L162.89133115325654,53.80721827395927L163.2008143663406,53.84700847384732L163.4071365083967,52.148427916631974L163.51029757942473,53.953517096221915L163.81978079250882,53.836100964327024L163.92294186353683,53.94799917964106L164.1292640055929,53.998598178555994L164.23242507662093,53.99473859826421L164.541908289705,54.03745062875678L166.29564649718148,54.32686979539469L166.39880756820952,54.33130189654819L166.50196863923753,54.399846463162575L166.60512971026554,54.39342041004248L167.01777399437768,54.31368207347696L167.32725720746177,54.443200111862225L167.43041827848978,54.48011783639243L167.73990149157387,54.4826250829247L167.84306256260192,54.491281993195564L167.94622363362993,54.6019364562928L168.35886791774206,54.62953591024641L168.46202898877007,54.49963290093689L168.56519005979808,54.63770913909962L168.77151220185416,54.59535246638327L168.97783434391022,54.67290930104473L169.18415648596627,54.72848330882686L169.39047862802232,54.82571314482219L170.00944505419048,54.833669210589925L170.21576719624656,54.869629443334205L170.7315725513867,54.995139835687596L170.83473362241472,54.930296912575564L171.76318326166697,55.10607068816633L171.866344332695,55.16737977561477L173.00111611400334,55.264293738031256L173.41376039811541,55.25959511854558L173.51692146914348,55.38499692935624L173.82640468222755,55.388787412302655L173.92956575325556,55.25428449400088L174.23904896633965,55.43078872724277L174.44537110839573,55.541749192869545L174.54853217942374,55.55314038380748L174.65169325045176,55.49042960735281L175.37382074764795,55.657625441067445L175.476981818676,55.42937716718721L175.58014288970404,55.57732445468956L175.68330396073205,55.67991427047634L175.99278717381614,55.73229992932175L176.1991093158722,55.758902407292034L176.3022703869002,55.819915363260286L176.40543145792827,55.77120173476923L176.50859252895629,55.799442806929896L177.02439788409643,55.81902696881972L177.23072002615245,55.86454237732475L177.7465253812926,55.87161004865193L177.84968645232067,55.99824574063003L178.15916966540473,56.00266797073418L178.88129716260093,56.08127113662566L179.08761930465698,56.20706778940988L180.11923001493727,56.28293667463428L180.32555215699333,56.16410898268381L180.42871322802137,56.30107966332051L180.6350353700774,56.31655746868505L180.73819644110543,56.34088960530724L180.94451858316148,56.29077428780993L181.04767965418952,56.33330863941439L181.66664608035768,56.396967036605666L181.76980715138572,56.42683683190737L182.3887735775539,56.53243731774274L182.49193464858192,56.49837232647167L183.42038428783417,56.52598165147462L183.8330285719463,56.60145569472542L184.03935071400232,56.701952848052194L184.45199499811446,56.70252536891388L185.07096142428261,56.88574191570674L185.3804446373667,56.87756868685352L185.58676677942276,56.906688282405426L185.89624999250685,56.867668024365884L186.10257213456288,57.00881415887323L186.20573320559095,56.92113949863865L186.61837748970302,56.960268338220935L186.7215385607311,56.77008283059429L186.92786070278711,57.0564321008876L187.03102177381516,57.04449800223599L187.2373439158712,57.072699590199306L187.54682712895527,57.10439552962885L187.64998819998334,57.08714093538319L187.75314927101135,57.13313015425652L188.16579355512349,57.1744503667922L188.3721156971795,57.22748751489404L188.47527676820755,57.08692377229771L188.57843783923556,57.208860844790145L188.78475998129164,57.27685263264152L188.99108212334767,57.23597661732612L189.19740426540375,57.24907549979981L189.5068874784878,57.289300025858786L189.8163706915719,50.98575649911442L189.91953176259995,57.22997501932761L190.02269283362796,57.35750897679562L190.33217604671205,57.25596549223886L190.53849818876813,57.277395540355194L190.64165925979614,57.194241820718155L190.9511424728802,57.160640768766065L191.05430354390828,57.20141807358807L191.36378675699234,56.722603083270684L191.77643104110444,57.093448535911214L191.87959211213249,56.84768902050247L191.9827531831605,57.04161565582881L192.7048806803567,57.121018376716805L192.91120282241275,57.09050696320799L193.01436389344082,57.146238907779555L193.11752496446883,56.705842041492L193.4270081775529,57.126299388113495L193.53016924858093,57.11438503156056L193.73649139063698,57.128204500636045L194.14913567474912,57.22063700665234L194.25229674577713,57.17153840723702L194.35545781680514,57.20373777018289L194.66494102988923,57.26350697393434L195.07758531400137,57.35730168475949L195.18074638502938,57.129033668780565L195.38706852708543,57.275895140855575L195.49022959811347,57.3155570171022L195.5933906691415,57.41848244856652L195.69655174016953,57.29003048350993L195.9028738822256,57.40103043333405L196.21235709530967,57.33803339644854L196.31551816633768,57.411730650818214L196.41867923736572,57.416616820241316L196.52184030839376,57.43161094418823L196.93448459250587,57.44846082541096L197.0376456635339,57.50701589009364L197.55345101867402,57.37581977332063L197.75977316073008,57.54254179666697L197.86293423175815,57.544229746104044L197.96609530278616,57.502573917890814L198.37873958689826,57.600840214066814L198.68822279998233,57.64771782738073L198.8945449420384,57.6210857362624L199.20402815512247,57.52582023908565L199.30718922615048,57.70881962279302L199.41035029717855,57.596585791801445L199.51351136820657,57.67248429017385L199.6166724392346,57.68243430790819L199.82299458129066,57.685829948881015L200.0293167233467,56.638156256170156L200.3387999364308,57.739113873216354L200.44196100745884,57.798182232464676L200.64828314951487,57.83448795193584L200.7514442205429,57.67140834579583L200.85460529157095,57.769111992159466L201.164088504655,57.729499471159535L201.3704106467111,57.886419542511625L201.4735717177391,57.86726970679275L201.57673278876712,57.8479027079884L201.67989385979516,57.754117868212575L202.40202135699136,57.875778551323506L202.5051824280194,57.91479880936307L202.8146656411035,57.991842349458864L203.33047099624363,57.97348219768716L203.74311528035574,57.98025373753414L204.3620817065239,58.01876070100804L204.46524277755194,58.08326800844251L204.67156491960796,58.06820478715024L205.0842092037201,58.023173060062845L205.18737027474813,58.07321928021476L205.29053134577615,58.01691481478153L205.4968534878322,58.13926647134622L205.6000145588602,58.11164727529394L205.70317562988828,58.09443216524564L206.11581991400035,58.22802694700816L206.5284641981125,58.22681280793939L206.73478634016854,58.16715218573067L206.83794741119658,58.20020045891975L207.66323597942082,58.30175381452586L207.76639705044883,57.83018417442376L208.0758802635329,58.25933791551347L208.385363476617,58.302918598347944L208.79800776072912,58.330666118041634L209.00432990278514,58.33865179695739L209.41697418689728,58.40711739517706L209.93277954203742,58.412102275093574L210.03594061306543,58.46262230561379L210.44858489717754,58.50328115784372L210.5517459682056,57.78424431079712L210.86122918128967,58.54484814661291L210.96439025231768,58.4439660223619L211.06755132334575,58.53342734252695L211.37703453642982,58.514228151561376L211.6865177495139,58.574224389447636L211.78967882054192,58.44584152173643L211.99600096259798,58.56030620987875L212.20232310465406,58.62549461971767L212.30548417568207,58.62812031884201L212.40864524671008,58.63014388395665L213.1307727439063,58.54064307959423L213.33709488596233,58.486993926433335L213.44025595699037,58.68659641512998L214.05922238315856,58.477261071784476L214.16238345418657,58.61315580804313L214.2655445252146,58.75095565682437L214.36870559624262,58.753265482369834L214.47186666727066,58.76012586166088L214.6781888093267,58.7783379476925L214.9876720224108,58.69559881212772L215.709799519607,58.75840829907578L215.81296059063502,58.85178842582868L215.91612166166308,58.789926559617214L216.8445713009153,58.827801775933374L217.1540545139994,58.80202846610761L217.2572155850274,58.85729647136019L217.66985986913954,58.88743278499407L217.77302094016756,58.97352807733431L217.8761820111956,58.941387940684486L217.97934308222364,58.91083704297833L218.2888262953077,58.96151501028798L218.39198736633574,58.94337202160174L218.49514843736378,58.9807240723029L218.5983095083918,58.977861467994416L219.0109537925039,58.978374762560065L219.11411486353194,58.772523899631445L219.21727593455995,58.86860869390339L219.52675914764404,58.95195983452723L219.7330812897001,58.9476461859658L219.93940343175618,59.03267540497737L220.1457255738122,58.880315758420195L220.24888664484024,59.04232929123153L220.35204771586828,59.036495501071805L220.55836985792433,59.07121198159929L220.66153092895235,59.04708713701323L221.1773362840925,59.127674383821955L221.48681949717658,58.95979744770288L221.69314163923264,59.10260191849931L222.00262485231673,59.130991056400084L222.31210806540082,59.16092007799784L222.41526913642883,59.02113614829935L222.62159127848489,59.17696053317472L222.82791342054097,59.201519703931716L223.44687984670912,59.098396851480615L223.55004091773714,59.19424474056841L223.75636305979322,59.235347790018636L223.96268520184927,59.0561685024057L224.89113484110152,59.23609798976844L224.99429591212953,59.13803898562857L225.09745698315754,59.25991683182498L225.2006180541856,59.28935230095575L226.43855090652193,59.30084220238708L226.644873048578,59.14108913987451L226.85119519063406,59.34960518612483L227.05751733269008,59.34147144146898L227.47016161680222,59.28799009614687L227.57332268783023,59.268662581539886L227.6764837588583,59.324157620927274L227.7796448298863,59.30718928711246L227.88280590091432,59.39297857692318L227.98596697194236,59.36332594470693L228.08912804297037,59.35788699652078L228.29545018502645,59.38854647576968L228.39861125605447,59.38287062239939L228.50177232708248,59.392425798160154L228.70809446913856,59.33891483969002L229.2238998242787,59.405001515018846L229.53338303736277,59.3866611053458L229.73970517941885,59.32857985103143L229.84286625044686,59.276964134034515L230.0491883925029,59.31411876374887L230.358671605587,59.43218638490018L230.6681548186711,59.49538084277248L230.87447696072715,59.39438026592941L231.18396017381124,59.42966926731858L231.4934433868953,59.38276204085665L231.59660445792335,59.51524139404383L231.9060876710074,59.47232207151511L232.1124098130635,59.50270516138248L232.2155708840915,59.50614028655268L233.04085945231574,59.31842254126096L233.14402052334378,59.55225782906742L233.3503426653998,59.34115556789012L233.86614802053995,59.55974995551621L234.3819533756801,59.461118430514624L234.48511444670814,59.61132618831577L234.58827551773618,59.53525001105523L234.7945976597922,59.60837474456322L234.89775873082024,59.44873026359339L235.1040808728763,59.46343812710944L235.31040301493235,59.55241576585686L235.61988622801644,59.58095296949772L235.72304729904448,59.54427215015166L236.13569158315659,59.59952041330558L236.65149693829673,59.6104871491219L236.85781908035278,59.62306286598057L237.47678550652097,59.36661300413702L237.57994657754898,59.680847988814776L237.683107648577,59.57604705797592L237.78626871960503,59.70744059573573L237.88942979063307,59.631897455139544L238.19891300371714,59.625846501894365L238.40523514577322,59.67315844137921L238.71471835885728,59.66153034525712L238.8178794298853,59.68172651220599L239.1273626429694,59.62472120226963L239.33368478502547,59.66147111896108L239.54000692708152,59.63501670673088L239.64316799810953,59.551191755738735L239.74632906913757,59.699810274596196L240.15897335324968,59.48965563415549L240.5716176373618,59.72900883854281L240.67477870838982,59.74599691445633L240.77793977941784,59.74118971342792L241.19058406352997,59.70987874492261L241.293745134558,59.74752692710397L241.50006727661406,59.71562369563828L241.60322834764207,59.71067829991913L241.80955048969815,59.7484844188899L241.91271156072617,59.593528686356414L242.0158726317542,59.69544727078809L242.22219477381023,59.701211963602425L242.3253558448383,59.75886876279519L242.4285169158663,59.721773359376876L242.53167798689432,56.22238765798498L242.84116119997842,59.781957147200586L243.04748334203447,59.77325088168305L243.15064441306248,59.76799948343436L243.7696108392307,58.68080210916761L243.8727719102587,59.80277519025786L243.97593298128672,59.69841845663931L244.38857726539885,59.739788024421685L244.5948994074549,59.69533868924535L244.80122154951096,59.71481426959244L245.2138658336231,59.70513077019025L245.93599333081926,59.66499508357532L246.24547654390335,59.788304231925984L246.4517986859594,59.83317802222393L246.65812082801548,59.76687418380965L246.7612818990435,59.848379438206955L246.96760404109955,59.80133401705428L247.17392618315563,59.80913214603259L247.38024832521165,59.84648419673375L247.4834093962397,59.81619981735977L247.5865704672677,59.76981575651285L247.8960536803518,59.84524044451695L247.9992147513798,59.86608810072225L248.30869796446393,59.14659718540602L248.41185903549194,59.782954123183906L248.72134224857604,59.85482523342572L249.0308254616601,59.88266159256348L249.4434697457722,59.87571237382839L250.06243617194042,59.81002054047317L250.16559724296843,59.82401768843674L250.4750804560525,59.81803583253693L250.57824152708054,59.86123154444714L250.7845636691366,59.76394248215577L250.99088581119264,59.851054492578L251.09404688222068,59.874221845378095L251.30036902427673,59.84870518283517L251.40353009530475,59.87491281883187L251.60985223736083,59.83181581741507L251.71301330838884,59.83141110439214L251.81617437941688,59.88827821963773L251.9193354504449,59.840383888241846L252.12565759250097,59.84876440913119L252.33197973455702,59.89829733471746L252.43514080558504,59.91499915020011L252.84778508969714,59.88932455086773L252.95094616072518,59.914624050325195L253.15726830278123,59.87371842186179L253.4667515158653,59.921415332270875L253.67307365792138,59.89761623231303L253.98255687100547,59.84489495779006L254.60152329717366,59.93613306683625L255.2204897233418,59.93946948151306L255.63313400745392,59.868012955343474L255.942617220538,59.90789199467558L256.4584225756782,59.91797033605133L256.6647447177342,59.729275356874986L256.9742279308183,59.898208495273394L257.59319435698643,59.90446674055473L257.6963554280145,59.936636490352576L257.9026775700706,59.74200901052311L258.2121607831546,59.955450710393905L258.5216439962387,59.85502265441253L258.6248050672667,59.91911537777474L258.72796613829473,59.93450434369522L259.656415777547,59.86656191109055L259.759576848575,59.984234690268266L259.8627379196031,59.89734971398086L259.9658989906311,59.90676669505087L260.1722211326871,59.927199767183886L260.3785432747432,59.956270007489096L260.6880264878273,59.98851872568168L260.7911875588553,59.94257886205504L261.2038318429674,59.89760636126368L261.4101539850235,59.89594802497463L261.5133150560515,59.93226361549512L261.6164761270795,59.98842988623761L261.7196371981076,59.912876874592094L262.5449257663318,59.912087190644925L263.4733754055841,59.92896668501568L263.6796975476401,60.00708616948951L263.9891807607242,60.00511195962159L264.50498611586437,59.94298357507795L264.81446932894846,59.83092742297449L264.9176303999765,59.95074221985891L265.22711361306057,59.847895756789306L265.3302746840886,59.95549019459127L265.6397578971726,59.95701033618957L265.94924111025676,59.99692885971904L266.1555632523128,59.935303898691735L266.36188539436887,59.95246965349333L266.67136860745296,59.9811549228743L266.980851820537,59.927476156565405L267.084012891565,59.97926955245045L267.1871739625931,59.90210755976255L267.39349610464916,59.96209392659948L268.21878467287337,59.94149304662768L268.4251068149294,59.93058553710739L268.6314289569855,59.95652665477194L268.83775109904155,59.945510563708915L269.35355645418167,60.01863529721688L269.8693618093218,59.99035474085884L270.28200609343395,59.97452157771808L270.69465037754605,59.84729362277959L270.79781144857407,59.88156590608679L270.9009725196021,59.89076572407133L271.3136168037142,59.94148317557833L271.41677787474225,59.95557903403532L271.51993894577026,59.95655626791994L271.6231000167983,59.97377137796826L271.93258322988237,59.96666422244373L272.4483885850225,60.01018567898215L272.7578717981066,59.78697164026512L272.96419394016266,59.92276766603039L273.37683822427476,59.93433653585645L273.4799992953028,60.006424809183756L273.58316036633084,59.86888160768536L273.68632143735886,59.9907693249311L273.8926435794149,59.87673896295971L274.09896572147096,59.97118516304128L274.40844893455505,59.93875876596061L274.71793214763915,59.80147221174504L274.82109321866716,59.99276327689772L275.02741536072324,59.76771322300351L275.23373750277926,59.95638846008118L275.9558649999755,59.95652665477194L276.26534821305955,59.97080019211704L276.36850928408757,59.71672925316432L276.57483142614365,60.0008081821095L276.78115356819967,59.93260910222201L276.98747571025575,59.953535726822025L277.09063678128376,60.007194751032245L277.29695892333984,59.94766245246495L277.60644213642394,60.00349310752988L277.81276427847996,59.91216615903964L278.12224749156405,59.897714942806424L278.32856963362013,59.8971621640434L278.43173070464815,59.98993028573724" fill="none"></path></g><g><path style="fill: none;" stroke="rgb(0, 119, 187)" stroke-width="2px" d="M278.5348917756762,59.85734235100734Z" fill="none"></path></g></g></g></g></g></g><g transform="translate(41, 177)" clip-path="url(#clip_1)"><clipPath id="clip_1"><rect width="288" height="22"></rect></clipPath><g><g><line x1="0" y1="0" x2="0" y2="5" style="visibility: inherit;" fill="rgb(0, 0, 0)" stroke="rgb(204, 204, 204)" stroke-width="1px"></line><line x1="20.632214205605642" y1="0" x2="20.632214205605642" y2="5" style="visibility: inherit;" fill="rgb(0, 0, 0)" stroke="rgb(204, 204, 204)" stroke-width="1px"></line><line x1="41.264428411211284" y1="0" x2="41.264428411211284" y2="5" style="visibility: inherit;" fill="rgb(0, 0, 0)" stroke="rgb(204, 204, 204)" stroke-width="1px"></line><line x1="61.896642616816926" y1="0" x2="61.896642616816926" y2="5" style="visibility: inherit;" fill="rgb(0, 0, 0)" stroke="rgb(204, 204, 204)" stroke-width="1px"></line><line x1="82.52885682242257" y1="0" x2="82.52885682242257" y2="5" style="visibility: inherit;" fill="rgb(0, 0, 0)" stroke="rgb(204, 204, 204)" stroke-width="1px"></line><line x1="103.16107102802822" y1="0" x2="103.16107102802822" y2="5" style="visibility: inherit;" fill="rgb(0, 0, 0)" stroke="rgb(204, 204, 204)" stroke-width="1px"></line><line x1="123.79328523363385" y1="0" x2="123.79328523363385" y2="5" style="visibility: inherit;" fill="rgb(0, 0, 0)" stroke="rgb(204, 204, 204)" stroke-width="1px"></line><line x1="144.4254994392395" y1="0" x2="144.4254994392395" y2="5" style="visibility: inherit;" fill="rgb(0, 0, 0)" stroke="rgb(204, 204, 204)" stroke-width="1px"></line><line x1="165.05771364484514" y1="0" x2="165.05771364484514" y2="5" style="visibility: inherit;" fill="rgb(0, 0, 0)" stroke="rgb(204, 204, 204)" stroke-width="1px"></line><line x1="185.6899278504508" y1="0" x2="185.6899278504508" y2="5" style="visibility: inherit;" fill="rgb(0, 0, 0)" stroke="rgb(204, 204, 204)" stroke-width="1px"></line><line x1="206.32214205605644" y1="0" x2="206.32214205605644" y2="5" style="visibility: inherit;" fill="rgb(0, 0, 0)" stroke="rgb(204, 204, 204)" stroke-width="1px"></line><line x1="226.95435626166207" y1="0" x2="226.95435626166207" y2="5" style="visibility: inherit;" fill="rgb(0, 0, 0)" stroke="rgb(204, 204, 204)" stroke-width="1px"></line><line x1="247.5865704672677" y1="0" x2="247.5865704672677" y2="5" style="visibility: inherit;" fill="rgb(0, 0, 0)" stroke="rgb(204, 204, 204)" stroke-width="1px"></line><line x1="268.21878467287337" y1="0" x2="268.21878467287337" y2="5" style="visibility: inherit;" fill="rgb(0, 0, 0)" stroke="rgb(204, 204, 204)" stroke-width="1px"></line><line x1="288.850998878479" y1="0" x2="288.850998878479" y2="5" style="visibility: inherit;" fill="rgb(0, 0, 0)" stroke="rgb(204, 204, 204)" stroke-width="1px"></line></g><g transform="translate(0, 8)"><text style="text-anchor: middle; visibility: hidden; font-family: Roboto, sans-serif; font-size: 12px; font-weight: 200;" x="0" y="0" dx="0em" dy="0.95em" fill="rgb(50, 49, 63)" stroke="none" stroke-width="1px">-200</text><text style="text-anchor: middle; visibility: inherit; font-family: Roboto, sans-serif; font-size: 12px; font-weight: 200;" x="20.632214205605642" y="0" dx="0em" dy="0.95em" fill="rgb(50, 49, 63)" stroke="none" stroke-width="1px">0</text><text style="text-anchor: middle; visibility: hidden; font-family: Roboto, sans-serif; font-size: 12px; font-weight: 200;" x="41.264428411211284" y="0" dx="0em" dy="0.95em" fill="rgb(50, 49, 63)" stroke="none" stroke-width="1px">200</text><text style="text-anchor: middle; visibility: inherit; font-family: Roboto, sans-serif; font-size: 12px; font-weight: 200;" x="61.896642616816926" y="0" dx="0em" dy="0.95em" fill="rgb(50, 49, 63)" stroke="none" stroke-width="1px">400</text><text style="text-anchor: middle; visibility: hidden; font-family: Roboto, sans-serif; font-size: 12px; font-weight: 200;" x="82.52885682242257" y="0" dx="0em" dy="0.95em" fill="rgb(50, 49, 63)" stroke="none" stroke-width="1px">600</text><text style="text-anchor: middle; visibility: inherit; font-family: Roboto, sans-serif; font-size: 12px; font-weight: 200;" x="103.16107102802822" y="0" dx="0em" dy="0.95em" fill="rgb(50, 49, 63)" stroke="none" stroke-width="1px">800</text><text style="text-anchor: middle; visibility: hidden; font-family: Roboto, sans-serif; font-size: 12px; font-weight: 200;" x="123.79328523363385" y="0" dx="0em" dy="0.95em" fill="rgb(50, 49, 63)" stroke="none" stroke-width="1px">1k</text><text style="text-anchor: middle; visibility: inherit; font-family: Roboto, sans-serif; font-size: 12px; font-weight: 200;" x="144.4254994392395" y="0" dx="0em" dy="0.95em" fill="rgb(50, 49, 63)" stroke="none" stroke-width="1px">1.2k</text><text style="text-anchor: middle; visibility: hidden; font-family: Roboto, sans-serif; font-size: 12px; font-weight: 200;" x="165.05771364484514" y="0" dx="0em" dy="0.95em" fill="rgb(50, 49, 63)" stroke="none" stroke-width="1px">1.4k</text><text style="text-anchor: middle; visibility: inherit; font-family: Roboto, sans-serif; font-size: 12px; font-weight: 200;" x="185.6899278504508" y="0" dx="0em" dy="0.95em" fill="rgb(50, 49, 63)" stroke="none" stroke-width="1px">1.6k</text><text style="text-anchor: middle; visibility: hidden; font-family: Roboto, sans-serif; font-size: 12px; font-weight: 200;" x="206.32214205605644" y="0" dx="0em" dy="0.95em" fill="rgb(50, 49, 63)" stroke="none" stroke-width="1px">1.8k</text><text style="text-anchor: middle; visibility: inherit; font-family: Roboto, sans-serif; font-size: 12px; font-weight: 200;" x="226.95435626166207" y="0" dx="0em" dy="0.95em" fill="rgb(50, 49, 63)" stroke="none" stroke-width="1px">2k</text><text style="text-anchor: middle; visibility: hidden; font-family: Roboto, sans-serif; font-size: 12px; font-weight: 200;" x="247.5865704672677" y="0" dx="0em" dy="0.95em" fill="rgb(50, 49, 63)" stroke="none" stroke-width="1px">2.2k</text><text style="text-anchor: middle; visibility: inherit; font-family: Roboto, sans-serif; font-size: 12px; font-weight: 200;" x="268.21878467287337" y="0" dx="0em" dy="0.95em" fill="rgb(50, 49, 63)" stroke="none" stroke-width="1px">2.4k</text><text style="text-anchor: middle; visibility: hidden; font-family: Roboto, sans-serif; font-size: 12px; font-weight: 200;" x="288.850998878479" y="0" dx="0em" dy="0.95em" fill="rgb(50, 49, 63)" stroke="none" stroke-width="1px">2.6k</text></g><line x1="0" y1="0" x2="288.850998878479" y2="0" fill="rgb(0, 0, 0)" stroke="rgb(204, 204, 204)" stroke-width="1px"></line></g></g></g></g></svg>