<svg viewBox="0 0 330 200" xmlns="http://www.w3.org/2000/svg"><g><g><g><g><g><line x1="41.149001121520996" y1="177.89999961853027" x2="36.149001121520996" y2="177.89999961853027" style="visibility: inherit;" fill="rgb(0, 0, 0)" stroke="rgb(204, 204, 204)" stroke-width="1px"></line><line x1="41.149001121520996" y1="160.10999965667725" x2="36.149001121520996" y2="160.10999965667725" style="visibility: inherit;" fill="rgb(0, 0, 0)" stroke="rgb(204, 204, 204)" stroke-width="1px"></line><line x1="41.149001121520996" y1="142.31999969482422" x2="36.149001121520996" y2="142.31999969482422" style="visibility: inherit;" fill="rgb(0, 0, 0)" stroke="rgb(204, 204, 204)" stroke-width="1px"></line><line x1="41.149001121520996" y1="124.52999973297118" x2="36.149001121520996" y2="124.52999973297118" style="visibility: inherit;" fill="rgb(0, 0, 0)" stroke="rgb(204, 204, 204)" stroke-width="1px"></line><line x1="41.149001121520996" y1="106.73999977111816" x2="36.149001121520996" y2="106.73999977111816" style="visibility: inherit;" fill="rgb(0, 0, 0)" stroke="rgb(204, 204, 204)" stroke-width="1px"></line><line x1="41.149001121520996" y1="88.94999980926512" x2="36.149001121520996" y2="88.94999980926512" style="visibility: inherit;" fill="rgb(0, 0, 0)" stroke="rgb(204, 204, 204)" stroke-width="1px"></line><line x1="41.149001121520996" y1="71.15999984741211" x2="36.149001121520996" y2="71.15999984741211" style="visibility: inherit;" fill="rgb(0, 0, 0)" stroke="rgb(204, 204, 204)" stroke-width="1px"></line><line x1="41.149001121520996" y1="53.36999988555907" x2="36.149001121520996" y2="53.36999988555907" style="visibility: inherit;" fill="rgb(0, 0, 0)" stroke="rgb(204, 204, 204)" stroke-width="1px"></line><line x1="41.149001121520996" y1="35.57999992370607" x2="36.149001121520996" y2="35.57999992370607" style="visibility: inherit;" fill="rgb(0, 0, 0)" stroke="rgb(204, 204, 204)" stroke-width="1px"></line><line x1="41.149001121520996" y1="17.789999961853024" x2="36.149001121520996" y2="17.789999961853024" style="visibility: inherit;" fill="rgb(0, 0, 0)" stroke="rgb(204, 204, 204)" stroke-width="1px"></line><line x1="41.149001121520996" y1="0" x2="36.149001121520996" y2="0" style="visibility: inherit;" fill="rgb(0, 0, 0)" stroke="rgb(204, 204, 204)" stroke-width="1px"></line></g><g transform="translate(31.149001121520996, 0)"><text style="text-anchor: end; visibility: hidden; font-family: Roboto, sans-serif; font-size: 12px; font-weight: 200;" x="0" y="177.89999961853027" dx="0em" dy="0.3em" fill="rgb(50, 49, 63)" stroke="none" stroke-width="1px">0.6</text><text style="text-anchor: end; visibility: inherit; font-family: Roboto, sans-serif; font-size: 12px; font-weight: 200;" x="0" y="160.10999965667725" dx="0em" dy="0.3em" fill="rgb(50, 49, 63)" stroke="none" stroke-width="1px">0.7</text><text style="text-anchor: end; visibility: hidden; font-family: Roboto, sans-serif; font-size: 12px; font-weight: 200;" x="0" y="142.31999969482422" dx="0em" dy="0.3em" fill="rgb(50, 49, 63)" stroke="none" stroke-width="1px">0.8</text><text style="text-anchor: end; visibility: inherit; font-family: Roboto, sans-serif; font-size: 12px; font-weight: 200;" x="0" y="124.52999973297118" dx="0em" dy="0.3em" fill="rgb(50, 49, 63)" stroke="none" stroke-width="1px">0.9</text><text style="text-anchor: end; visibility: hidden; font-family: Roboto, sans-serif; font-size: 12px; font-weight: 200;" x="0" y="106.73999977111816" dx="0em" dy="0.3em" fill="rgb(50, 49, 63)" stroke="none" stroke-width="1px">1</text><text style="text-anchor: end; visibility: inherit; font-family: Roboto, sans-serif; font-size: 12px; font-weight: 200;" x="0" y="88.94999980926512" dx="0em" dy="0.3em" fill="rgb(50, 49, 63)" stroke="none" stroke-width="1px">1.1</text><text style="text-anchor: end; visibility: hidden; font-family: Roboto, sans-serif; font-size: 12px; font-weight: 200;" x="0" y="71.15999984741211" dx="0em" dy="0.3em" fill="rgb(50, 49, 63)" stroke="none" stroke-width="1px">1.2</text><text style="text-anchor: end; visibility: inherit; font-family: Roboto, sans-serif; font-size: 12px; font-weight: 200;" x="0" y="53.36999988555907" dx="0em" dy="0.3em" fill="rgb(50, 49, 63)" stroke="none" stroke-width="1px">1.3</text><text style="text-anchor: end; visibility: hidden; font-family: Roboto, sans-serif; font-size: 12px; font-weight: 200;" x="0" y="35.57999992370607" dx="0em" dy="0.3em" fill="rgb(50, 49, 63)" stroke="none" stroke-width="1px">1.4</text><text style="text-anchor: end; visibility: inherit; font-family: Roboto, sans-serif; font-size: 12px; font-weight: 200;" x="0" y="17.789999961853024" dx="0em" dy="0.3em" fill="rgb(50, 49, 63)" stroke="none" stroke-width="1px">1.5</text><text style="text-anchor: end; visibility: hidden; font-family: Roboto, sans-serif; font-size: 12px; font-weight: 200;" x="0" y="0" dx="0em" dy="0.3em" fill="rgb(50, 49, 63)" stroke="none" stroke-width="1px">1.6</text></g><line x1="41.149001121520996" y1="0" x2="41.149001121520996" y2="177.89999961853027" fill="rgb(0, 0, 0)" stroke="rgb(204, 204, 204)" stroke-width="1px"></line></g></g><g transform="translate(41, 0)" clip-path="url(#clip_0)"><clipPath id="clip_0"><rect width="288" height="177"></rect></clipPath><g><g><g><line x1="0" y1="0" x2="0" y2="177.89999961853027" fill="rgb(0, 0, 0)" stroke="rgb(60, 60, 60)" stroke-width="1px" opacity="0.25"></line><line x1="20.632214205605642" y1="0" x2="20.632214205605642" y2="177.89999961853027" fill="rgb(0, 0, 0)" stroke="rgb(60, 60, 60)" stroke-width="1px" opacity="0.25"></line><line x1="41.264428411211284" y1="0" x2="41.264428411211284" y2="177.89999961853027" fill="rgb(0, 0, 0)" stroke="rgb(60, 60, 60)" stroke-width="1px" opacity="0.25"></line><line x1="61.896642616816926" y1="0" x2="61.896642616816926" y2="177.89999961853027" fill="rgb(0, 0, 0)" stroke="rgb(60, 60, 60)" stroke-width="1px" opacity="0.25"></line><line x1="82.52885682242257" y1="0" x2="82.52885682242257" y2="177.89999961853027" fill="rgb(0, 0, 0)" stroke="rgb(60, 60, 60)" stroke-width="1px" opacity="0.25"></line><line x1="103.16107102802822" y1="0" x2="103.16107102802822" y2="177.89999961853027" fill="rgb(0, 0, 0)" stroke="rgb(60, 60, 60)" stroke-width="1px" opacity="0.25"></line><line x1="123.79328523363385" y1="0" x2="123.79328523363385" y2="177.89999961853027" fill="rgb(0, 0, 0)" stroke="rgb(60, 60, 60)" stroke-width="1px" opacity="0.25"></line><line x1="144.4254994392395" y1="0" x2="144.4254994392395" y2="177.89999961853027" fill="rgb(0, 0, 0)" stroke="rgb(60, 60, 60)" stroke-width="1px" opacity="0.25"></line><line x1="165.05771364484514" y1="0" x2="165.05771364484514" y2="177.89999961853027" fill="rgb(0, 0, 0)" stroke="rgb(60, 60, 60)" stroke-width="1px" opacity="0.25"></line><line x1="185.6899278504508" y1="0" x2="185.6899278504508" y2="177.89999961853027" fill="rgb(0, 0, 0)" stroke="rgb(60, 60, 60)" stroke-width="1px" opacity="0.25"></line><line x1="206.32214205605644" y1="0" x2="206.32214205605644" y2="177.89999961853027" fill="rgb(0, 0, 0)" stroke="rgb(60, 60, 60)" stroke-width="1px" opacity="0.25"></line><line x1="226.95435626166207" y1="0" x2="226.95435626166207" y2="177.89999961853027" fill="rgb(0, 0, 0)" stroke="rgb(60, 60, 60)" stroke-width="1px" opacity="0.25"></line><line x1="247.5865704672677" y1="0" x2="247.5865704672677" y2="177.89999961853027" fill="rgb(0, 0, 0)" stroke="rgb(60, 60, 60)" stroke-width="1px" opacity="0.25"></line><line x1="268.21878467287337" y1="0" x2="268.21878467287337" y2="177.89999961853027" fill="rgb(0, 0, 0)" stroke="rgb(60, 60, 60)" stroke-width="1px" opacity="0.25"></line><line x1="288.850998878479" y1="0" x2="288.850998878479" y2="177.89999961853027" fill="rgb(0, 0, 0)" stroke="rgb(60, 60, 60)" stroke-width="1px" opacity="0.25"></line></g><g><line x1="0" y1="177.89999961853027" x2="288.850998878479" y2="177.89999961853027" fill="rgb(0, 0, 0)" stroke="rgb(60, 60, 60)" stroke-width="1px" opacity="0.25"></line><line x1="0" y1="160.10999965667725" x2="288.850998878479" y2="160.10999965667725" fill="rgb(0, 0, 0)" stroke="rgb(60, 60, 60)" stroke-width="1px" opacity="0.25"></line><line x1="0" y1="142.31999969482422" x2="288.850998878479" y2="142.31999969482422" fill="rgb(0, 0, 0)" stroke="rgb(60, 60, 60)" stroke-width="1px" opacity="0.25"></line><line x1="0" y1="124.52999973297118" x2="288.850998878479" y2="124.52999973297118" fill="rgb(0, 0, 0)" stroke="rgb(60, 60, 60)" stroke-width="1px" opacity="0.25"></line><line x1="0" y1="106.73999977111816" x2="288.850998878479" y2="106.73999977111816" fill="rgb(0, 0, 0)" stroke="rgb(60, 60, 60)" stroke-width="1px" opacity="0.25"></line><line x1="0" y1="88.94999980926512" x2="288.850998878479" y2="88.94999980926512" fill="rgb(0, 0, 0)" stroke="rgb(60, 60, 60)" stroke-width="1px" opacity="0.25"></line><line x1="0" y1="71.15999984741211" x2="288.850998878479" y2="71.15999984741211" fill="rgb(0, 0, 0)" stroke="rgb(60, 60, 60)" stroke-width="1px" opacity="0.25"></line><line x1="0" y1="53.36999988555907" x2="288.850998878479" y2="53.36999988555907" fill="rgb(0, 0, 0)" stroke="rgb(60, 60, 60)" stroke-width="1px" opacity="0.25"></line><line x1="0" y1="35.57999992370607" x2="288.850998878479" y2="35.57999992370607" fill="rgb(0, 0, 0)" stroke="rgb(60, 60, 60)" stroke-width="1px" opacity="0.25"></line><line x1="0" y1="17.789999961853024" x2="288.850998878479" y2="17.789999961853024" fill="rgb(0, 0, 0)" stroke="rgb(60, 60, 60)" stroke-width="1px" opacity="0.25"></line><line x1="0" y1="0" x2="288.850998878479" y2="0" fill="rgb(0, 0, 0)" stroke="rgb(60, 60, 60)" stroke-width="1px" opacity="0.25"></line></g></g></g><g><g><line x1="0" y1="284.63999938964844" x2="288.850998878479" y2="284.63999938964844" fill="rgb(0, 0, 0)" stroke="rgb(153, 153, 153)" stroke-width="1.5px"></line></g></g><g><g><line x1="20.632214205605642" y1="0" x2="20.632214205605642" y2="177.89999961853027" fill="rgb(0, 0, 0)" stroke="rgb(153, 153, 153)" stroke-width="1.5px"></line></g></g><g><g><g><g><g><path style="fill: none;" stroke="rgb(255, 112, 67)" stroke-width="2px" d="M22.179630271026067,-43.78769816227455L22.489113484110153,0.050380806031964695L22.59227455513818,27.996162266230353L22.69543562616621,31.708154117094928L23.10807991027832,44.75392352964786L24.036529549530574,49.448568466503L24.34601276261466,65.52483706916398L24.75865704672677,91.05581133787115L24.964979188782827,20.760804770731802L25.171301330838887,28.665102193182353L25.274462401866913,41.96243109283293L25.48078454392297,56.873813535493106L25.687106685979025,53.55492181639178L26.09975097009114,46.954073957469404L26.20291204111917,33.948411931572764L26.306073112147192,39.47450479608677L26.409234183175222,44.35005546499235L26.512395254203252,41.529511977492014L27.13136168037142,25.759400692234713L27.337683822427476,28.352987187366875L27.440844893455505,32.99468775593198L27.544005964483535,26.243112097437855L27.64716703551156,23.72398617968042L27.956650248595643,25.57590249099966L28.059811319623673,5.971054659523697L28.162972390651703,26.683967834823303L28.26613346167973,46.426759785669596L28.781938816819874,53.33874290104685L29.297744171960012,64.51458568037015L29.607227385044098,69.78120753545552L29.710388456072124,41.31106299682133L30.329354882240295,64.1251777852717L31.154643450464523,71.60654023976909L31.464126663548605,73.0440721271497L31.567287734576635,59.85337417254816L32.28941523177283,71.8814232979321L32.598898444856914,99.91395377359214L32.805220586912974,93.04231972195454L33.52734808410917,105.22183150196823L33.6305091551372,103.70991792965393L33.93999236822128,84.00653279070066L34.04315343924931,92.02269736696407L34.76528093644551,90.62009825221459L34.971603078501566,102.23408024358463L35.177925220557626,86.96835417608796L35.281086291585645,74.60874053443604L35.38424736261368,87.26528847623952L36.106374859809875,81.5753343370964L36.62218021495001,74.84867471166892L36.82850235700607,42.11445843023305L36.931663428034106,45.972603232587524L37.03482449906213,73.04888743935389L37.34430771214621,77.70253911705309L37.653790925230304,85.34161508394448L37.86011306728635,89.89369926068089L37.96327413831438,99.09596860126615L38.27275735139847,74.00167841579685L38.89172377756664,95.69879435880003L38.994884848594666,89.59871299723609L39.20120699065072,84.64102991527326L39.51069020373481,79.87109212042134L39.71701234579086,88.34137787807286L39.82017341681889,96.2476152908301L40.02649555887495,107.75765474727189L40.23281770093101,117.54930926574123L40.335978771959034,124.41066349738233L41.05810626915523,116.29278773767348L41.883394837379456,129.66972496340009L41.98655590840748,113.89092794779648L42.089716979435515,102.70613573740985L42.50236126354762,86.57711795052288L43.53397197382791,-76.24210580494102L43.637133044855936,-12.786500043887486L43.84345518691199,15.504260217550142L44.04977732896805,50.4492670827963L44.25609947102411,46.85244562824275L44.565582684108186,42.00643363094899L44.66874375513621,10.961005447986599L44.771904826164246,21.510414949988178L45.08138803924833,35.943865951690924L46.112998749528614,26.312603731941536L46.319320891584674,47.37020731685873L46.93828731775284,45.92272739519136L47.24777053083692,68.15638779200619L47.35093160186495,75.49588445132567L47.454092672892976,99.62324578477006L47.55725374392101,98.34374696014807L47.76357588597707,82.73601311219714L48.176220170089174,62.19799273857941L48.38254231214523,63.43956856496602L48.588864454201286,68.51591662986408L48.795186596257345,61.16590801100729L49.31099195139748,60.17211569629001L49.929958377565654,74.90606114555882L50.65208587476185,79.3316810290712L50.75524694578988,82.73479805664293L51.27105230093002,105.10149586727599L51.37421337195805,104.00751304840878L51.683696585042135,88.13492162179499L51.78685765607017,74.97858462906999L51.89001872709819,90.61105198576334L52.302663011210306,75.62472393170965L52.40582408223834,99.66484056642649L52.612146224294385,78.40909195063072L52.92162943737848,87.13554046782879L53.33427372149058,81.52340089245504L53.437434792518616,87.08525245065492L53.54059586354664,92.56454997975914L53.643756934574675,106.22876604344494L53.85007907663073,110.02232063445373L54.15956228971481,99.79212460899912L54.26272336074284,111.38373995789439L54.36588443177087,109.96513811356219L54.67536764485495,109.44540095883173L54.984850857939044,79.76186114100803L55.60381728410721,82.07223643660076L55.81013942616327,81.41379481784179L56.119622639247346,63.46288428505675L56.22278371027538,70.45446300931454L56.42910585233144,88.56564914902246L56.53226692335946,87.18821830529595L57.0480722784996,106.5595427466825L57.15123334952764,111.57476456258108L57.56387763363975,103.91068828436644L57.7701997756958,95.57286384427313L58.079682988779886,105.27383634353147L58.492327272892005,102.52294620338134L58.90497155700411,100.79035670812844L59.11129369906017,123.37058841698635L59.52393798317228,102.0941836021802L59.62709905420031,94.69775738211892L59.73026012522834,85.58291287245991L59.93658226728439,89.08409707073932L60.45238762242454,104.08022305888159L60.55554869345256,101.66712370618038L60.96819297756468,105.01808475630477L61.07135404859271,79.52987671252626L61.174515119620736,93.20588823409152L62.20612582990101,94.97206675507702L62.72193118504115,104.80182024511824L63.444058682237355,73.19089945032685L63.54721975326538,65.87967639525222L64.06302510840553,71.83927907166094L64.16618617943355,68.70146085601033L64.3725083214896,92.34051374644372L64.57883046354566,98.57024568010138L64.99147474765778,108.01021062534065L65.91992438691003,62.46212910773911L66.12624652896609,28.06060933774849L66.22940759999412,4.0596331528580425L66.5388908130782,10.1108390946176L67.15785723924637,36.19213692374281L67.98314580747059,47.35965355731024L68.08630687849862,51.42049533594236L68.18946794952664,55.207525755564745L68.39579009158271,49.421220603330426L68.49895116261074,60.13154426258513L68.80843437569482,86.2932100387632L68.91159544672284,51.114484589816044L69.42740080186299,33.13690021648493L69.53056187289101,55.138344803398695L70.66533365419933,76.30277700725888L70.97481686728341,92.00972190280572L71.07797793831145,93.18988610550736L71.28430008036749,90.93300442699653L71.49062222242355,88.83951146025565L71.80010543550765,87.34513009150396L72.93487721681595,92.00699403329726L73.34752150092807,81.15195992272652L73.4506825719561,88.01980773385151L73.65700471401215,70.90257743255859L73.96648792709622,67.49552587532581L74.17281006915229,73.67955335191594L74.68861542429242,79.32604660831569L74.79177649532046,99.43119505497633L75.41074292148862,87.53240323534719L75.61706506354469,98.74122451068583L75.7202261345727,43.806974029751984L75.82338720560074,76.83812029596757L75.92654827662876,57.32305088734687L76.0297093476568,72.60732138579282L76.13287041868482,80.67190432569784L76.33919256074088,69.97718217623284L76.54551470279694,74.33254559979085L77.06132005793708,91.53052978647762L77.16448112896511,73.71617341000096L77.26764219999313,87.16549102230064L77.4739643420492,102.31934861855709L77.8866086261613,110.23558510008604L78.09293076821736,100.42112772757355L78.29925291027341,100.88255641125342L78.71189719438553,96.72508762598785L78.81505826541355,102.85570485565901L78.91821933644158,96.50957268009086L79.3308636205537,70.60244467450276L79.74350790466582,85.53992504608351L79.84666897569383,86.43694234287577L80.15615218877792,79.05144008859648L80.36247433083398,77.73816801382019L80.46563540186202,82.03057397784055L80.56879647289003,74.48712544709892L80.67195754391807,56.73845413265706L80.7751186149461,58.908634284452354L80.87827968597414,67.4412806185777L81.08460182803017,73.4334992565296L81.18776289905821,96.34151263789794L81.70356825419834,61.147732889138894L81.80672932522637,66.07898953160684L82.11621253831046,58.22778926895076L82.21937360933849,83.18024869805728L82.52885682242257,86.69022995337068L82.73517896447862,99.63053593834692L83.14782324859074,105.4164825817466L83.3541453906468,76.27198744344989L83.56046753270286,92.3004171415948L83.76678967475891,77.25612958871083L84.076272887843,92.94645291567373L84.48891717195511,100.71704046481813L84.59207824298313,98.90715261740557L84.7984003850392,118.56412885724649L85.10788359812328,63.333880330961165L85.5205278822354,90.56147872349682L86.03633323737554,113.7330677326508L86.75846073457174,120.29137896295903L86.86162180559975,116.63526887274834L87.06794394765582,119.69336968930335L87.17110501868383,111.54718573175893L87.27426608971187,117.37440378960912L87.3774271607399,106.8384195051014L87.58374930279595,126.26216590292624L87.89323251588003,117.41462368167065L88.30587679999215,106.9790136278556L88.40903787102017,106.37774044746622L88.8216821551323,102.48477653936804L89.13116536821637,93.00557119070743L89.54380965232849,96.2948997832078L89.85329286541257,112.95597018287528L89.95645393644061,89.84307587687009L90.05961500746864,117.48723796743307L90.16277607849666,119.95345632853737L90.26593714952469,117.98393346446598L90.47225929158074,118.31334398651913L90.57542036260877,102.52065306234863L90.67858143363681,102.44018373706714L90.88490357569286,116.3726664771156L90.98806464672089,98.23676669736774L91.09122571774891,-143.93613269993037L95.11450748784202,-6.931720120150607L95.21766855887005,16.907312450036127L95.32082962989807,46.64913567513102L95.4239907009261,51.961451044952234L95.93979605606624,44.99457432697166L96.55876248223441,44.0381918853476L96.76508462429047,34.934603603824634L96.86824569531849,38.133143522719486L96.97140676634652,49.29773135002913L97.28088997943061,-23.668758941099913L97.59037319251469,4.50596003406906L97.69353426354272,23.97441860903156L98.00301747662681,11.499748156468316L98.10617854765484,37.51148655979279L98.20933961868286,8.790174160379575L98.41566176073891,38.70631739336555L98.62198390279497,56.74456515395113L99.24095032896315,38.37694387129344L99.55043354204723,48.63239845895463L99.65359461307524,68.97352090780535L99.96307782615935,48.11795639659212L100.06623889718736,43.06398305129528L100.1693999682154,61.138773619485576L100.37572211027145,74.61759018211538L100.47888318129948,79.06553219277421L101.09784960746765,82.31529348213692L101.51049389157976,77.48083973868592L101.6136549626078,57.958123198614544L101.81997710466385,56.92931577763845L102.0262992467199,51.001884909284755L102.23262138877597,41.11201769328087L102.33578245980398,36.669583614218745L102.43894353083202,44.46719331760912L102.54210460186005,55.231576468398075L102.64526567288807,61.1519388095572L102.95474888597217,67.00868069776021L103.16107102802822,80.66422495635082L103.36739317008427,87.3500155516793L103.67687638316836,81.759929470328L103.88319852522442,90.1276116430468L103.98635959625244,96.01551601928125L104.08952066728048,104.04942166980919L104.50216495139257,105.23476039491632L104.70848709344864,67.16774526258621L104.81164816447668,54.4298696070748L105.01797030653272,73.43974783532025L105.32745351961681,60.77215424455013L105.74009780372891,81.20731000983731L106.04958101681301,101.12040775653367L106.35906422989709,80.94882811130338L106.46222530092511,86.80844859257111L106.66854744298116,80.20548994790536L106.87486958503723,95.66532630269317L107.08119172709328,83.81858491182413L107.59699708223343,60.642321031786345L107.90648029531751,57.24106349949152L108.00964136634555,74.43535961712219L108.11280243737357,73.13070925666597L108.42228565045765,86.61415952074177L109.24757421868189,101.1791676287888L109.3507352897099,84.17544826845958L109.45389636073794,103.52314908306187L109.66021850279398,105.65507790742116L110.0728627869061,70.89772623752336L110.27918492896217,76.47182521538272L110.38234599999018,87.09331780106332L110.7949902841023,98.59926157545083L111.00131242615836,102.08362050812832L111.10447349718638,104.28767813109481L111.41395671027048,103.87193427899827L111.62027885232654,120.5476189758357L111.82660099438257,131.1995480516003L112.13608420746668,113.73582408516009L112.34240634952272,122.99729851096781L112.44556742055076,113.93162556726854L112.65188956260681,109.64829287973153L112.75505063363484,121.20999442976265L113.06453384671892,107.17553378110074L113.37401705980301,98.9896989098021L113.47717813083104,110.96019328067985L114.19930562802723,111.77330867964312L114.30246669905527,112.58546772421484L114.40562777008329,125.14143620886131L114.50878884111131,113.5326427059533L114.71511098316738,106.21111734883837L114.8182720541954,122.81151029992654L115.02459419625146,132.10510205431254L115.1277552672795,122.85223764230103L115.23091633830751,116.43328330302214L115.5403995513916,105.0774839977883L115.64356062241963,89.42782509132547L115.74672169344765,118.5652338851291L115.8498827644757,115.47394958793171L116.05620490653175,73.00107184935783L116.6751713326999,87.6353495328398L116.77833240372794,83.12327885186745L117.08781561681202,109.84677942359862L117.80994311400822,126.84733184338425L118.1194263270923,120.09714711007919L118.8415538242885,115.9942003217422L118.94471489531654,110.36188089111677L119.04787596634456,101.29340171575811L119.25419810840062,80.59927109711653L119.35735917942864,89.13762230708166L119.46052025045668,82.00219252189369L119.77000346354076,88.16021865740301L119.87316453456879,98.56465263048118L120.07948667662484,105.7946755209847L120.2858088186809,107.11247667822114L120.38896988970892,121.66725063242407L120.80161417382104,100.09691508728164L120.90477524484908,97.05013996463973L121.31741952896118,100.31063013031104L121.42058059998921,83.93947956305013L121.52374167101723,111.85311254847218L121.62690274204527,106.29251454265611L121.93638595512935,86.59665822232796L122.03954702615738,103.31529850083058L122.14270809718542,83.30957898382776L122.4521913102695,102.99310867533025L122.55535238129751,110.01490769957307L123.38064094952175,91.83554639007818L123.79328523363385,65.05630253174807L123.9996073756899,84.92008529467098L124.20592951774597,101.95071330175286L124.30909058877401,109.59161452797551L124.61857380185809,98.74639144801348L124.7217348728861,107.64702941186138L124.92805701494217,116.94096795638123L125.03121808597021,122.28286705571429L125.13437915699822,121.7762016159514L125.23754022802625,131.42473566166984L125.54702344111034,118.11567757647178L126.37231200933456,125.50371803895297L126.57863415139062,116.40818128244689L126.78495629344668,120.62831646887747L126.99127843550274,97.28212456875205L127.09443950653076,84.13127049365767L127.19760057755879,92.28418148088168L127.40392271961484,97.90342440954676L127.6102448616709,105.12964886560303L127.71340593269892,109.18601934735001L127.81656700372696,102.40420799441227L128.12605021681105,109.10982036112935L128.3323723588671,123.87527008215345L129.0544998560633,115.64163345727948L129.1576609270913,77.8882449944887L129.4671441401754,95.1773301239773L129.6734662822315,111.75897332226178L130.29243270839964,125.90142931929182L130.39559377942766,124.5232452972496L130.6019159214837,121.43786000244971L130.80823806353976,130.46966778319418L131.2208823476519,109.03218518840556L131.633526631764,103.52614604948909L131.83984877382005,119.20401833499234L132.0461709158761,115.91378445526865L132.3556541289602,110.69337835108546L132.45881519998824,96.74664207126969L132.56197627101625,100.17778330343943L132.6651373420443,124.19583806992608L133.28410376821245,138.14093245787822L133.3872648392405,151.41413157957615L134.00623126540864,134.00578923709313L134.2125534074647,110.62043426618865L134.41887554952078,108.8977365484669L134.5220366205488,110.62151650534695L134.62519769157683,126.0776655735235L135.55364733082908,127.01022269665243L135.75996947288513,129.85483008860814L136.06945268596922,134.18497549387953L136.48209697008133,133.2560712580559L136.68841911213738,127.42347260433063L136.79158018316542,128.46555275181746L137.20422446727753,142.7011197317374L137.30738553830557,139.80834842534756L137.51370768036162,138.01685945926795L137.61686875138963,146.97839559682598L137.72002982241767,141.99836437922488L138.02951303550176,131.85127187489567L138.13267410652978,137.17101315731864L139.16428481681007,119.24010444490135L139.37060695886612,114.57138049059408L139.47376802989416,127.77397546039033L139.78325124297822,146.12597299121032L139.88641231400626,140.25806889620733L139.9895733850343,147.33937248180214L140.29905659811837,118.10161533633453L140.4022176691464,112.4960171595887L140.50537874017442,124.17188055710815L142.05279480559486,101.59159184105204L142.36227801867895,116.89996457958603L142.56860016073497,124.32524193961078L142.671761231763,55.37854320950434L142.8780833738191,59.06039528139557L142.9812444448471,93.34588544973714L143.2907276579312,62.55481845863805L143.6002108710153,80.21733722884836L143.7033719420433,80.3139444588498L143.80653301307132,67.26199388317447L143.90969408409936,69.38513826328098L144.1160162261554,84.28334486373252L144.3223383682115,96.06471729803766L144.5286605102675,97.63775807797292L144.7349826523236,100.99282232691172L144.8381437233516,110.33869480868664L145.04446586540766,110.6194410917856L145.25078800746374,95.75950350501908L145.4571101495198,105.67904968589717L145.5602712205478,113.56421597269855L145.66343229157584,140.49495636699953L145.76659336260388,114.15247676788427L145.8697544336319,119.77975551919678L146.9013651439122,124.29344232521234L147.3140094280243,129.88693321170535L147.72665371213643,119.40687196768218L147.82981478316444,127.49481940617834L147.93297585419245,127.97119182343874L148.13929799624853,131.04092726848157L148.4487812093326,123.78860625299063L148.7582644224167,129.6241643245195L148.96458656447274,144.68278709078618L149.17090870652882,133.71443696922466L149.27406977755683,125.6345604940147L149.48039191961288,127.61036531573033L149.893036203725,105.53393229832817L149.996197274753,95.32150147460743L150.09935834578107,122.52348684048647L150.30568048783712,132.23760994559555L150.40884155886513,131.1307770837252L150.71832477194923,131.92684038694384L150.82148584297724,133.00996892095569L150.92464691400528,77.73750974980054L151.02780798503332,90.73253159132928L151.23413012708937,93.59426757384124L151.74993548222952,103.78575501509935L152.0594186953136,90.8135264704248L152.57522405045373,98.75740296441441L152.78154619250978,117.92622221142527L153.1941904766219,132.24376269501445L153.40051261867794,115.4567445438573L153.81315690279007,115.00320840909185L153.91631797381808,120.55738992838195L154.01947904484615,125.96763635047343L154.12264011587416,122.92213274655829L154.32896225793021,111.0021761869055L154.6384454710143,120.98825487816792L154.74160654204232,121.07848676229511L154.9479286840984,121.41038256884974L155.0510897551264,122.04011373319464L155.15425082615442,131.22349988396635L155.7732172523226,122.63078266229462L155.97953939437866,132.38114168674835L156.0827004654067,114.68835920516446L156.28902260746273,122.0147886672277L156.3921836784908,133.51766459971867L156.70166689157486,135.18997581705597L156.80482796260287,123.15530655944748L157.32063331774302,116.81153000166661L157.42379438877106,124.84858800905937L157.5269554597991,124.48045117059102L157.83643867288316,139.87501156275061L158.04276081493924,137.85821674050075L158.14592188596725,123.08030348431843L158.24908295699527,119.00673504189173L158.35224402802334,130.85603498153392L158.45540509905135,125.79358583142405L158.55856617007936,116.34333284203987L159.17753259624752,120.19116763078321L159.69333795138766,108.9245544357342L159.79649902241573,114.73803226486834L159.89966009344374,120.49415835091044L160.4154654485839,116.4697128761836L160.828109732696,125.91628124649367L161.03443187475204,89.8900380881792L161.13759294578006,94.89465218631008L161.5502372298922,55.998602671295956L161.9628815140043,85.69442096296339L162.6850090112005,82.80066977866237L162.89133115325654,90.17289205861364L163.2008143663406,69.02830051936581L163.4071365083967,-6.989750469134311L163.51029757942473,27.644427982959083L163.81978079250882,43.65747579586802L163.92294186353683,61.45522852019759L164.1292640055929,90.07163584409946L164.23242507662093,84.38153659239065L164.541908289705,84.64501513276855L166.29564649718148,93.72096798389407L166.39880756820952,101.93470312409276L166.50196863923753,110.88429557516885L166.60512971026554,113.18441690093796L167.01777399437768,118.25227941236487L167.32725720746177,131.37126002064568L167.43041827848978,129.26958637811447L167.73990149157387,104.55158427135967L167.84306256260192,113.83784218878138L167.94622363362993,120.6998892257247L168.35886791774206,132.46214452300066L168.46202898877007,138.205622861063L168.56519005979808,138.9047749742752L168.77151220185416,134.65786416499702L168.97783434391022,125.34393388809077L169.18415648596627,131.67678147212226L169.39047862802232,132.54066142175404L170.00944505419048,153.46421822484587L170.21576719624656,159.63085643073393L170.7315725513867,146.07140443854016L170.83473362241472,139.65485900152336L171.76318326166697,139.74849461041953L171.866344332695,121.13807516377123L173.00111611400334,133.93159637455076L173.41376039811541,130.67601628102204L173.51692146914348,139.1823197537229L173.82640468222755,112.29797086440853L173.92956575325556,116.33107701940902L174.23904896633965,124.18405572532576L174.44537110839573,129.25309743180955L174.54853217942374,137.72225080614461L174.65169325045176,152.1831182874707L175.37382074764795,145.33486186921024L175.476981818676,101.85992418733721L175.58014288970404,101.47276867299685L175.68330396073205,105.58181568949894L175.99278717381614,119.43262942643922L176.1991093158722,125.07615987154962L176.3022703869002,122.11925403903892L176.40543145792827,135.9919780601688L176.50859252895629,128.6772321267032L177.02439788409643,106.29897205665638L177.23072002615245,94.74998469384417L177.7465253812926,113.06388381939415L177.84968645232067,122.04806250380985L178.15916966540473,116.66057067503232L178.88129716260093,132.6673379910209L179.08761930465698,132.58862658273893L180.11923001493727,132.136309995501L180.32555215699333,129.29880735392044L180.42871322802137,125.74031212776072L180.6350353700774,126.09492190353531L180.73819644110543,115.33684621308751L180.94451858316148,124.7047619357543L181.04767965418952,132.36160616164594L181.66664608035768,120.19585467323586L181.76980715138572,142.63584069332938L182.3887735775539,139.72829750658278L182.49193464858192,136.307527062683L183.42038428783417,137.95416226203255L183.8330285719463,126.88717450204277L184.03935071400232,130.8092768644845L184.45199499811446,128.30581311936731L185.07096142428261,120.8542722090061L185.3804446373667,123.34448067732356L185.58676677942276,126.91948195405116L185.89624999250685,128.56602981693214L186.10257213456288,136.90831790962645L186.20573320559095,131.06524944996616L186.61837748970302,131.32014283122808L186.7215385607311,116.50519378170252L186.92786070278711,136.7191274196365L187.03102177381516,139.82246546551062L187.2373439158712,129.61772934386164L187.54682712895527,131.9987777831573L187.64998819998334,147.53032541752998L187.75314927101135,153.91580486008033L188.16579355512349,141.3847447432753L188.3721156971795,147.50395468229024L188.47527676820755,145.76461212464406L188.57843783923556,146.6892421596045L188.78475998129164,147.47305088935633L188.99108212334767,140.98784426313566L189.19740426540375,142.58618742441308L189.5068874784878,134.70932362491243L189.8163706915719,141.77146656899995L189.91953176259995,133.89495007384943L190.02269283362796,132.66514529659705L190.33217604671205,125.84492310403164L190.53849818876813,117.53590681528061L190.64165925979614,132.87953217090103L190.9511424728802,145.76368658819388L191.05430354390828,149.97447035758614L191.36378675699234,153.8683342839873L191.77643104110444,128.09638619390532L191.87959211213249,117.33641838052942L191.9827531831605,137.12413001045917L192.7048806803567,140.97499861614503L192.91120282241275,105.13346911349434L193.01436389344082,129.0910665159876L193.11752496446883,131.96938446165754L193.4270081775529,128.15430542435396L193.53016924858093,140.08843911428016L193.73649139063698,111.09586334687498L194.14913567474912,114.15009908399846L194.25229674577713,123.29898363688116L194.35545781680514,137.05321905021398L194.66494102988923,132.28826693985837L195.07758531400137,139.16138724413472L195.18074638502938,141.7354827018705L195.38706852708543,147.15824364384727L195.49022959811347,147.6335360525459L195.5933906691415,138.88719567564723L195.69655174016953,133.2399555821013L195.9028738822256,151.98601839322205L196.21235709530967,147.87706604448326L196.31551816633768,152.4266773086248L196.41867923736572,144.61256125480753L196.52184030839376,137.48012044445773L196.93448459250587,119.77649927354746L197.0376456635339,119.55808405410949L197.55345101867402,137.13924638844907L197.75977316073008,142.16353545090791L197.86293423175815,151.75635623784487L197.96609530278616,148.92248097415697L198.37873958689826,129.48838921712215L198.68822279998233,118.58469661817247L198.8945449420384,97.2526230544752L199.20402815512247,124.01637038377507L199.30718922615048,149.067062213954L199.41035029717855,155.8877625927269L199.51351136820657,147.51857606284509L199.6166724392346,145.61939426975155L199.82299458129066,138.63650160809775L200.0293167233467,148.6249790954417L200.3387999364308,167.19572735172565L200.44196100745884,146.56183872142736L200.64828314951487,152.27854950745282L200.7514442205429,143.9987649199069L200.85460529157095,154.65176998122323L201.164088504655,150.82358555451887L201.3704106467111,139.54608636480148L201.4735717177391,119.06530113237358L201.57673278876712,128.82745941359798L201.67989385979516,139.96574495728944L202.40202135699136,127.55488951551766L202.5051824280194,134.73602360945424L202.8146656411035,140.2164049485996L203.33047099624363,133.05002956841932L203.74311528035574,139.8352388991565L204.3620817065239,145.05335035501025L204.46524277755194,150.63604360256423L204.67156491960796,150.97562225219593L205.0842092037201,122.15489533161978L205.18737027474813,131.69458711246077L205.29053134577615,126.76270158697778L205.4968534878322,107.54401018883172L205.6000145588602,99.83739356829022L205.70317562988828,110.36237263822673L206.11581991400035,111.35724621811477L206.5284641981125,126.89252211299946L206.73478634016854,118.98863406175903L206.83794741119658,146.6814573256336L207.66323597942082,151.6953958256854L207.76639705044883,154.58856493668665L208.0758802635329,138.02760695164974L208.385363476617,151.98507079137576L208.79800776072912,151.81418592336104L209.00432990278514,148.77247140175322L209.41697418689728,140.78362054939097L209.93277954203742,146.10475284875525L210.03594061306543,146.8996887938409L210.44858489717754,143.10750827877234L210.5517459682056,152.10926268349158L210.86122918128967,143.59034393063837L210.96439025231768,133.72016480493352L211.06755132334575,138.6348091630773L211.37703453642982,140.34269536901863L211.6865177495139,130.7107127880992L211.78967882054192,139.85410097253705L211.99600096259798,153.04297638835013L212.20232310465406,135.41729504930575L212.30548417568207,142.2414846639984L212.40864524671008,104.01997284682461L213.1307727439063,118.99254724977528L213.33709488596233,126.98633295630918L213.44025595699037,141.6674523671893L214.05922238315856,141.8406254369967L214.16238345418657,146.7970129749503L214.2655445252146,146.86003730789625L214.36870559624262,153.64025249411634L214.47186666727066,137.666438620851L214.6781888093267,135.18673819183283L214.9876720224108,154.5620766998239L215.709799519607,151.06573911896493L215.81296059063502,139.65983471701102L215.91612166166308,139.37255590436283L216.8445713009153,141.52061435823916L217.1540545139994,135.15033220369835L217.2572155850274,139.42963964636L217.66985986913954,137.35398892484616L217.77302094016756,138.4947075838253L217.8761820111956,133.8274175086831L217.97934308222364,139.3611858445612L218.2888262953077,142.8992716003359L218.39198736633574,130.59743835038702L218.49514843736378,144.2784304282181L218.5983095083918,131.09599943609072L219.0109537925039,142.83634328080745L219.11411486353194,144.22061366999884L219.21727593455995,138.27469089216174L219.52675914764404,130.47343683752314L219.7330812897001,125.77024704688557L219.93940343175618,127.87043629991858L220.1457255738122,141.50343361236244L220.24888664484024,121.11163623494565L220.35204771586828,138.1501374886329L220.55836985792433,152.30262188939813L220.66153092895235,158.1131918250423L221.1773362840925,149.60766944561146L221.48681949717658,140.52581801397955L221.69314163923264,141.95449959401827L222.00262485231673,151.55447380687906L222.31210806540082,144.11773756726174L222.41526913642883,142.29352746999956L222.62159127848489,141.69236031351554L222.82791342054097,144.2189068629709L223.44687984670912,154.7414023087318L223.55004091773714,155.5352925781363L223.75636305979322,99.47432021847919L223.96268520184927,104.13929492186817L224.89113484110152,115.85304920024574L224.99429591212953,139.2258820463841L225.09745698315754,129.84140735386362L225.2006180541856,143.45065934478205L226.43855090652193,152.51289049193917L226.644873048578,102.12533634034362L226.85119519063406,112.07539722807444L227.05751733269008,115.98443731852281L227.47016161680222,110.44002957494402L227.57332268783023,119.04351896598206L227.6764837588583,117.94223051774482L227.7796448298863,132.8106709298313L227.88280590091432,139.06467134336657L227.98596697194236,140.84322456174274L228.08912804297037,147.72674314421013L228.29545018502645,140.85264512071927L228.39861125605447,118.13249433180516L228.50177232708248,132.73981644896514L228.70809446913856,141.81068960656629L229.2238998242787,142.82855804930338L229.53338303736277,143.30445137742652L229.73970517941885,109.40074735438095L229.84286625044686,118.0319572428899L230.0491883925029,125.41186856937708L230.358671605587,123.91562335946368L230.6681548186711,133.79366122742272L230.87447696072715,115.99634150009965L231.18396017381124,131.96095484653893L231.4934433868953,128.4500567018599L231.59660445792335,126.1324115437614L231.9060876710074,112.24556915181107L232.1124098130635,136.62778465422033L232.2155708840915,140.15197484554838L233.04085945231574,140.2015521957644L233.14402052334378,142.48668994131353L233.3503426653998,140.11661249954295L233.86614802053995,146.23511306497286L234.3819533756801,160.56298284777972L234.48511444670814,106.74779741682973L234.58827551773618,116.96472520257042L234.7945976597922,122.49715744711965L234.89775873082024,136.28719009893854L235.1040808728763,125.54094691724681L235.31040301493235,131.73660126159623L235.61988622801644,137.58763814883272L235.72304729904448,140.46446642305187L236.13569158315659,142.7938398941442L236.65149693829673,146.53336850468727L236.85781908035278,148.3983354357909L237.47678550652097,156.1319504851308L237.57994657754898,160.1567293798124L237.683107648577,151.13606433099767L237.78626871960503,126.66972528481155L237.88942979063307,142.6362648986087L238.19891300371714,148.08829166112042L238.40523514577322,149.49601092315436L238.71471835885728,139.65285943368187L238.8178794298853,37.650199451319246L239.1273626429694,90.4114898704783L239.33368478502547,114.80167341356406L239.54000692708152,120.71882335684379L239.64316799810953,134.3004021826035L239.74632906913757,138.40550561418334L240.15897335324968,125.7866041115116L240.5716176373618,124.44635924967075L240.67477870838982,131.69155296157302L240.77793977941784,137.074685557743L241.19058406352997,143.0650090759145L241.293745134558,155.27156456370903L241.50006727661406,164.39482974644832L241.60322834764207,159.22263156175882L241.80955048969815,149.03503289766894L241.91271156072617,150.57107633059556L242.0158726317542,153.84075704468322L242.22219477381023,124.55166924364572L242.3253558448383,141.79178348780817L242.4285169158663,139.1980558317319L242.53167798689432,144.72517011019593L242.84116119997842,151.4464243720109L243.04748334203447,144.7090882247199L243.15064441306248,139.35152229022205L243.7696108392307,146.77522968880945L243.8727719102587,128.71524938326255L243.97593298128672,141.91164798540754L244.38857726539885,51.276645975994036L244.5948994074549,72.70229842687843L244.80122154951096,91.50990527246697L245.2138658336231,113.40361987882618L245.93599333081926,121.81599166004949L246.24547654390335,140.6650237599531L246.4517986859594,150.6586467952616L246.65812082801548,134.93293454079804L246.7612818990435,126.50376118662597L246.96760404109955,129.37357929448L247.17392618315563,133.56888983925248L247.38024832521165,137.33681253590487L247.4834093962397,142.20938488627954L247.5865704672677,128.94716973097633L247.8960536803518,135.14615078905686L247.9992147513798,133.34263680637247L248.30869796446393,137.11590903445943L248.41185903549194,141.4170444960975L248.72134224857604,156.93483061661246L249.0308254616601,151.0020915459463L249.4434697457722,139.9641021794693L250.06243617194042,116.25872583158763L250.16559724296843,115.06956479088066L250.4750804560525,120.45821938275327L250.57824152708054,131.98112939858177L250.7845636691366,150.15156211671027L250.99088581119264,133.13914431625653L251.09404688222068,139.72836334779677L251.30036902427673,127.19274410150932L251.40353009530475,129.75132800030028L251.60985223736083,132.57671548700046L251.71301330838884,136.62955441593982L251.81617437941688,146.9091202600039L251.9193354504449,150.98797144046193L252.12565759250097,154.72256723546926L252.33197973455702,148.2993743783829L252.43514080558504,145.290358793545L252.84778508969714,146.18012995787433L252.95094616072518,128.21383547339389L253.15726830278123,136.35909214933613L253.4667515158653,151.75738908718884L253.67307365792138,156.45957166493645L253.98255687100547,150.97060556269096L254.60152329717366,152.17608156834785L255.2204897233418,153.45668738863313L255.63313400745392,155.99458646861223L255.942617220538,138.74419219020362L256.4584225756782,125.96270036170539L256.6647447177342,125.31652861437767L256.9742279308183,125.70651965849451L257.59319435698643,136.79960168118944L257.6963554280145,146.78445071696035L257.9026775700706,143.67220594689843L258.2121607831546,147.21743691692117L258.5216439962387,136.77713566935384L258.6248050672667,132.7109422484444L258.72796613829473,139.97681284214795L259.656415777547,133.71863390287353L259.759576848575,141.42744771137876L259.8627379196031,122.01234980516502L259.9658989906311,124.85078340097681L260.1722211326871,130.840006645701L260.3785432747432,138.19836382331232L260.6880264878273,140.63797872339026L260.7911875588553,128.51820515010658L261.2038318429674,132.93213264043374L261.4101539850235,135.1707465035964L261.5133150560515,92.99209968635533L261.6164761270795,118.49115704771327L261.7196371981076,115.27562308038615L262.5449257663318,135.91143049164575L263.4733754055841,133.97033081689165L263.6796975476401,144.8557791710147L263.9891807607242,143.2666926806525L264.50498611586437,128.0050267534718L264.81446932894846,140.15197612847504L264.9176303999765,152.0070090945525L265.22711361306057,144.71253483456292L265.3302746840886,150.26282451093732L265.6397578971726,160.57626330356163L265.94924111025676,153.80932274691875L266.1555632523128,147.54495309539385L266.36188539436887,144.18717533876801L266.67136860745296,155.0541096975339L266.980851820537,132.7895281312264L267.084012891565,146.5139892178059L267.1871739625931,145.24048979942458L267.39349610464916,154.12894149736493L268.21878467287337,126.72935147734692L268.4251068149294,142.48934368554367L268.6314289569855,100.30735894140199L268.83775109904155,109.26473853230368L269.35355645418167,120.61109175678907L269.8693618093218,119.21482163967529L270.28200609343395,129.2218447405496L270.69465037754605,133.79462303342672L270.79781144857407,149.37633540227117L270.9009725196021,152.5894156021045L271.3136168037142,154.9454609738367L271.41677787474225,153.03447829256316L271.51993894577026,149.8543218055493L271.6231000167983,145.65521674214426L271.93258322988237,146.47556078293061L272.4483885850225,161.52274976209927L272.7578717981066,154.31042849032573L272.96419394016266,152.48074204457575L273.37683822427476,152.19668097646726L273.4799992953028,156.53487234145257L273.58316036633084,169.004032075277L273.68632143735886,155.27772454717945L273.8926435794149,149.98788028727526L274.09896572147096,145.16601553965697L274.40844893455505,146.73358340093856L274.71793214763915,139.89092278799956L274.82109321866716,147.95558684259538L275.02741536072324,136.3942205775866L275.23373750277926,124.70283561843408L275.9558649999755,139.55575051051096L276.26534821305955,153.9456885233085L276.36850928408757,166.03237473132873L276.57483142614365,157.02617940110224L276.78115356819967,150.17861610430154L276.98747571025575,153.61506173068605L277.09063678128376,152.76883545525897L277.29695892333984,136.8987963991983L277.60644213642394,135.40789649589482L277.81276427847996,138.05158791915898L278.12224749156405,130.08589294157167L278.32856963362013,132.2422407583385L278.43173070464815,139.25464484791374" fill="none"></path></g></g></g></g><g opacity="0.2"><g><g><g><path style="fill: none;" stroke="rgb(255, 112, 67)" stroke-width="2px" d="M22.179630271026067,-41.760847309687264L22.489113484110153,62.73953513997366L22.59227455513818,68.74137991470161L22.69543562616621,37.182621079823086L23.10807991027832,64.12537070113854L24.036529549530574,56.447955787734365L24.34601276261466,89.55175362934779L24.75865704672677,129.26890968021848L24.964979188782827,-84.54398984423322L25.171301330838887,40.512257121954L25.274462401866913,61.899046135733435L25.48078454392297,79.23457720217198L25.687106685979025,48.577426903987764L26.09975097009114,37.053807741819575L26.20291204111917,14.441107661752536L26.306073112147192,47.76334102879172L26.409234183175222,51.6632210362793L26.512395254203252,37.29875243295236L27.13136168037142,2.1044205763514543L27.337683822427476,32.24334849596243L27.440844893455505,39.957218814046875L27.544005964483535,16.115765885128436L27.64716703551156,19.945301170495892L27.956650248595643,28.353775252101737L28.059811319623673,-23.436206252388715L28.162972390651703,57.75333072914531L28.26613346167973,76.04094378378431L28.781938816819874,63.70671674896084L29.297744171960012,81.2783490488523L29.607227385044098,77.6811400917411L29.710388456072124,-1.3941530769970838L30.329354882240295,98.34634961497568L31.154643450464523,82.82858385206578L31.464126663548605,75.20036995021383L31.567287734576635,40.06732728472752L32.28941523177283,89.92349696189035L32.598898444856914,141.962749453357L32.805220586912974,82.73486864945835L33.52734808410917,123.49109916671364L33.6305091551372,101.44204757157536L33.93999236822128,54.45145508534278L34.04315343924931,104.04694423060914L34.76528093644551,88.51619958016909L34.971603078501566,119.65505323024854L35.177925220557626,64.06976507515151L35.281086291585645,56.06932007210798L35.38424736261368,106.25011038885259L36.106374859809875,73.04040312840652L36.62218021495001,64.75868527354532L36.82850235700607,-6.986865991869292L36.931663428034106,51.75982043611565L37.03482449906213,113.66331374948811L37.34430771214621,84.68301663360035L37.653790925230304,96.80022903427994L37.86011306728635,96.72182552578488L37.96327413831438,112.89937261214345L38.27275735139847,36.36024313759389L38.89172377756664,128.24446827330416L38.994884848594666,80.44859095489028L39.20120699065072,77.20450529232903L39.51069020373481,72.71618542814349L39.71701234579086,101.0468065145501L39.82017341681889,108.10697140996592L40.02649555887495,125.0227139319345L40.23281770093101,132.23679104344524L40.335978771959034,134.70269484484402L41.05810626915523,104.1159740981102L41.883394837379456,149.73513080198995L41.98655590840748,90.2227324243911L42.089716979435515,85.92894742182989L42.50236126354762,62.383591270192476L43.53397197382791,-320.47094143813683L43.637133044855936,82.3969085976928L43.84345518691199,57.94040060970655L44.04977732896805,102.86677738066555L44.25609947102411,41.45721344641242L44.565582684108186,34.73741563500834L44.66874375513621,-35.607136826456994L44.771904826164246,37.334529202990545L45.08138803924833,57.59404245424502L46.112998749528614,11.865710402317514L46.319320891584674,78.95661269423454L46.93828731775284,43.75150751269029L47.24777053083692,101.50687838722843L47.35093160186495,86.50512944030493L47.454092672892976,135.8142877849367L47.55725374392101,96.42449872321504L47.76357588597707,59.324412340270776L48.176220170089174,31.3909621781529L48.38254231214523,65.30193230454597L48.588864454201286,76.13043872721119L48.795186596257345,50.140895082722174L49.31099195139748,58.68142722421407L49.929958377565654,97.00697931946206L50.65208587476185,85.97011085433974L50.75524694578988,87.8394735980005L51.27105230093002,138.6515425832256L51.37421337195805,102.36653882010796L51.683696585042135,64.32603448187433L51.78685765607017,55.244079139982425L51.89001872709819,114.05975302080333L52.302663011210306,53.14523185062921L52.40582408223834,135.72501551850178L52.612146224294385,46.52546902693711L52.92162943737848,100.22521324362583L53.33427372149058,73.10519152939446L53.437434792518616,95.42802978795476L53.54059586354664,100.7834962734155L53.643756934574675,126.72509013897366L53.85007907663073,115.71265252096691L54.15956228971481,84.44683057081716L54.26272336074284,128.77116298123735L54.36588443177087,107.83723534706394L54.67536764485495,108.66579522673601L54.984850857939044,35.23655141427252L55.60381728410721,85.53779937998979L55.81013942616327,80.4261323897033L56.119622639247346,36.536518485879235L56.22278371027538,80.94183109570122L56.42910585233144,115.73242835858434L56.53226692335946,85.12207203970615L57.0480722784996,135.6165294087624L57.15123334952764,119.09759728642894L57.56387763363975,92.41457386704451L57.7701997756958,83.06612718413317L58.079682988779886,119.82529509241897L58.492327272892005,98.39661099315617L58.90497155700411,98.19147246524903L59.11129369906017,157.2409359802732L59.52393798317228,70.17957637997097L59.62709905420031,83.60311805202696L59.73026012522834,71.91064610797139L59.93658226728439,94.33587336815845L60.45238762242454,126.574412041095L60.55554869345256,98.04747467712855L60.96819297756468,110.0445263314914L61.07135404859271,41.29756464685851L61.174515119620736,113.71990551643944L62.20612582990101,97.6213345365552L62.72193118504115,119.54645048018006L63.444058682237355,25.774518258139775L63.54721975326538,54.912841812640174L64.06302510840553,80.77868308627399L64.16618617943355,63.994733532534376L64.3725083214896,127.7990930820938L64.57883046354566,107.91484358058779L64.99147474765778,122.17015804319954L65.91992438691003,-5.859993168663079L66.22940759999412,-31.941831124477616L66.5388908130782,19.187648007256936L67.15785723924637,75.31408366743062L67.98314580747059,64.11092850766136L68.08630687849862,57.511758003890456L68.18946794952664,60.88807138499828L68.39579009158271,40.741762874979024L68.49895116261074,76.1970297514672L68.80843437569482,125.53570870303031L68.91159544672284,-1.6536035836047474L69.42740080186299,6.170523656488282L69.53056187289101,88.14051168376932L70.66533365419933,108.04942531304914L70.97481686728341,115.57013924612602L71.07797793831145,94.96013240955972L71.28430008036749,87.54768190923028L71.49062222242355,85.69927201014434L71.80010543550765,85.10355803837638L72.93487721681595,98.99978994598723L73.34752150092807,64.86940875687037L73.4506825719561,98.32157945053905L73.65700471401215,45.2267319806192L73.96648792709622,62.384948539476675L74.17281006915229,82.95559456680121L74.68861542429242,87.79578649291534L74.79177649532046,129.58891772496725L75.41074292148862,69.68421550590347L75.61706506354469,115.55445642369375L75.7202261345727,-38.59440169164871L75.82338720560074,126.38483969529102L75.92654827662876,28.05044677441583L76.0297093476568,95.53372713346175L76.13287041868482,92.76877873555532L76.33919256074088,53.935098952035325L76.54551470279694,80.86559073512785L77.06132005793708,117.3275060665078L77.16448112896511,46.99463884528608L77.26764219999313,107.33946744075024L77.4739643420492,125.05013501294184L77.8866086261613,122.10993982237949L78.09293076821736,85.69944166880487L78.29925291027341,101.57469943677324L78.71189719438553,90.4888844480895L78.81505826541355,112.05163070016579L78.91821933644158,86.99037441673863L79.3308636205537,31.741752666120643L79.74350790466582,107.94614560345462L79.84666897569383,87.78246828806414L80.15615218877792,67.97318670717755L80.36247433083398,75.76825990165571L80.46563540186202,88.46918292387113L80.56879647289003,63.171952650986434L80.67195754391807,30.115447160994332L80.7751186149461,62.16390451214533L80.87827968597414,80.24025011976573L81.08460182803017,82.42182721345739L81.18776289905821,130.70353270995054L81.70356825419834,8.357063266000292L81.80672932522637,73.47587449530874L82.11621253831046,46.45098887496669L82.21937360933849,120.60893784171708L82.52885682242257,91.95520183634085L82.73517896447862,119.04099491581132L83.14782324859074,114.09540254684612L83.3541453906468,32.555244736004845L83.56046753270286,116.34306168881221L83.76678967475891,54.68969825938483L84.076272887843,116.4819379061181L84.48891717195511,112.37292178853477L84.59207824298313,96.19232084628675L84.7984003850392,148.0495932170079L85.10788359812328,-19.511492458466805L85.5205278822354,131.40287631230035L86.03633323737554,148.49045124638178L86.75846073457174,130.12884580842137L86.86162180559975,111.15110373743232L87.06794394765582,124.28052091413588L87.17110501868383,99.32790979544234L87.27426608971187,126.11523087638443L87.3774271607399,91.03444307833979L87.58374930279595,155.39778549966354L87.89323251588003,104.14331034978727L88.30587679999215,91.32559854713304L88.40903787102017,105.4758306768822L88.8216821551323,96.64533067722073L89.13116536821637,78.78676316771657L89.54380965232849,101.22889267195842L89.85329286541257,137.94757578237648L89.95645393644061,55.1737344178623L90.05961500746864,158.95348110327757L90.16277607849666,123.65278387019384L90.26593714952469,115.0296491683589L90.47225929158074,118.80745976959884L90.57542036260877,78.83161667609284L90.67858143363681,102.31947974914488L90.88490357569286,137.2713905871883L90.98806464672089,71.03291702774595L91.09122571774891,-507.19548179587764L91.19438678877695,78.31322463885908L91.400708930833,-36.7381450795135L94.28921891961778,-50.973058088197135L94.7018632037299,34.62493194308035L95.01134641681398,-16.410344217397764L95.11450748784202,8.094219586182131L95.21766855887005,52.66586130531618L95.32082962989807,91.26187051277338L95.4239907009261,59.92992409968405L95.93979605606624,34.54425925000077L96.55876248223441,42.60361822291156L96.76508462429047,21.279221181540148L96.86824569531849,42.930953401061736L96.97140676634652,66.04461309099361L97.28088997943061,-133.11849437779344L97.59037319251469,46.76803849682255L97.69353426354272,53.17710647147532L98.00301747662681,-7.2122575223765875L98.10617854765484,76.52909416477951L98.20933961868286,-34.29179443874021L98.41566176073891,83.58053224284458L98.62198390279497,83.80193679482954L99.24095032896315,10.825511947306946L99.55043354204723,64.01558034044638L99.65359461307524,99.48520458108146L99.96307782615935,16.834609629772327L100.06623889718736,35.48302303335003L100.1693999682154,88.25095947177101L100.37572211027145,94.83581502606012L100.47888318129948,85.73744520876244L101.09784960746765,87.18993541618102L101.51049389157976,70.22915912350936L101.6136549626078,28.67404838850757L101.81997710466385,55.38610464617431L102.0262992467199,42.11073860675423L102.23262138877597,26.277216869274977L102.33578245980398,30.005932495625526L102.43894353083202,56.163607872694676L102.54210460186005,71.3781511945815L102.64526567288807,70.0324823212959L102.95474888597217,75.7937935300647L103.16107102802822,101.14754134423674L103.36739317008427,97.37870144467206L103.67687638316836,73.37480034830105L103.88319852522442,102.67913490212504L103.98635959625244,104.84737258363293L104.08952066728048,116.10028014560112L104.50216495139257,107.01276848257703L104.70848709344864,10.067222564091022L104.81164816447668,35.32305612380764L105.01797030653272,101.95456517768844L105.32745351961681,41.77076385839495L105.74009780372891,111.86004365776807L106.04958101681301,130.9900543765782L106.35906422989709,50.691458643457956L106.46222530092511,95.59787931447272L106.66854744298116,70.30105198090678L106.87486958503723,118.85508083487491L107.08119172709328,66.04847282552055L107.59699708223343,25.877925211729686L107.90648029531751,52.13917720104927L108.00964136634555,100.22680379356825L108.11280243737357,71.1737337159816L108.42228565045765,106.83933491685548L109.24757421868189,123.02667979085936L109.3507352897099,58.66986922796581L109.45389636073794,132.54470030496532L109.66021850279398,108.85297114396008L110.0728627869061,18.761698732676674L110.27918492896217,84.83297368217177L110.38234599999018,103.02555667958427L110.7949902841023,115.85817723703212L111.00131242615836,107.31015890714457L111.10447349718638,107.59376456554446L111.41395671027048,103.24831850085343L111.62027885232654,145.56114602109187L111.82660099438257,147.17744166524722L112.13608420746668,87.54023813549975L112.34240634952272,136.88951014967938L112.44556742055076,100.33311615171965L112.65188956260681,103.22329384842601L112.75505063363484,138.55254675480933L113.06453384671892,86.12384280810784L113.37401705980301,86.71094660285416L113.47717813083104,128.91593483699648L114.19930562802723,112.99298177808805L114.30246669905527,113.80370629107244L114.40562777008329,143.975388935831L114.50878884111131,96.11945245159131L114.71511098316738,95.22882931316599L114.8182720541954,147.7120997265588L115.02459419625146,146.04548968589154L115.1277552672795,108.97294102428373L115.23091633830751,106.8048517941038L115.5403995513916,88.04378503993757L115.64356062241963,65.95333673163123L115.74672169344765,162.27134707583457L115.8498827644757,110.83702314213565L116.05620490653175,9.291755241496954L116.6751713326999,109.58676605806272L116.77833240372794,76.35517283040895L117.08781561681202,149.93203028119535L117.80994311400822,152.34816047306265L118.1194263270923,109.97187001012162L118.8415538242885,109.83978013923672L118.94471489531654,101.91340174517859L119.04787596634456,87.69068295272018L119.25419810840062,49.5580751691541L119.35735917942864,101.9451491220293L119.46052025045668,71.29904784411178L119.77000346354076,97.39725786066697L119.87316453456879,114.17130359009843L120.07948667662484,116.63970985673996L120.2858088186809,109.08917841407583L120.38896988970892,143.49941156372847L120.80161417382104,67.741411769568L120.90477524484908,92.47997728067685L121.31741952896118,105.20136537881808L121.42058059998921,59.38275371215877L121.52374167101723,153.72356202660524L121.62690274204527,97.951617533932L121.93638595512935,57.0528737418358L122.03954702615738,128.39325891858448L122.14270809718542,53.30099970832361L122.4521913102695,132.51840321258396L122.55535238129751,120.54760623593734L123.38064094952175,64.56650442583577L123.79328523363385,24.887436744252906L123.9996073756899,114.71575943905532L124.20592951774597,127.49665531237565L124.30909058877401,121.05296636730952L124.61857380185809,82.4785568280704L124.7217348728861,120.99798635763318L124.92805701494217,130.88187577316103L125.03121808597021,130.29571570471387L125.13437915699822,121.01620345630704L125.23754022802625,145.89753673024757L125.54702344111034,98.1520904486747L126.37231200933456,136.58577873267473L126.57863415139062,102.7648761476878L126.78495629344668,126.95851924852332L126.99127843550274,62.2628367185639L127.09443950653076,64.4049893810161L127.19760057755879,104.51354796171768L127.40392271961484,106.33228880254433L127.6102448616709,115.96898554968743L127.71340593269892,115.2705750699705L127.81656700372696,92.2314909650056L128.12605021681105,119.16823891120498L128.3323723588671,146.0234446636896L129.0544998560633,103.29117851996853L129.1576609270913,21.258162300302498L129.4671441401754,121.11095781821018L129.6734662822315,136.63143811968848L130.29243270839964,147.1151133148369L130.39559377942766,122.45596926418625L130.6019159214837,116.80978206024986L130.80823806353976,144.0173794543109L131.2208823476519,76.87596129622261L131.633526631764,95.26708734111435L131.83984877382005,142.72082676324726L132.0461709158761,110.97843363568313L132.3556541289602,102.86276919481065L132.45881519998824,75.826537651546L132.56197627101625,105.32449515169401L132.6651373420443,160.2229202196561L133.28410376821245,159.05857403980644L133.3872648392405,171.3239302621231L134.00623126540864,107.89327572336856L134.2125534074647,75.54240180983197L134.41887554952078,106.31368997188429L134.5220366205488,113.20718644066699L134.62519769157683,149.26188917578838L135.55364733082908,128.40905838134586L135.75996947288513,134.12174117654172L136.06945268596922,140.68019360178664L136.48209697008133,131.86271490432046L136.68841911213738,118.67457462374273L136.79158018316542,130.02867297304772L137.20422446727753,164.05447020161728L137.30738553830557,135.46919146576283L137.51370768036162,135.32962601014856L137.61686875138963,160.42069980316296L137.72002982241767,134.5283175528233L138.02951303550176,116.63063311840187L138.13267410652978,145.1506250809531L139.16428481681007,92.34374137627537L139.37060695886612,107.56829455913316L139.47376802989416,147.57786791508477L139.78325124297822,173.6539692874403L139.88641231400626,131.45621275370286L139.9895733850343,157.9613278601944L140.29905659811837,74.24497961813313L140.4022176691464,104.08761989446998L140.50537874017442,141.6856756533873L142.05279480559486,67.72115876696785L142.36227801867895,139.862523687387L142.56860016073497,135.46315797964792L142.671761231763,-48.04150488565527L142.8780833738191,64.58317338923234L142.9812444448471,144.77412070224955L143.2907276579312,16.36821797198945L143.6002108710153,106.7111153841638L143.7033719420433,80.45885530385203L143.80653301307132,47.684068019661474L143.90969408409936,72.56985483344079L144.1160162261554,106.63065476440988L144.3223383682115,113.73677594949538L144.5286605102675,99.9973192478758L144.7349826523236,106.02541870031996L144.8381437233516,124.35750353134904L145.04446586540766,111.04056051643408L145.25078800746374,73.46959712486932L145.4571101495198,120.55836895721438L145.5602712205478,125.39196540290061L145.66343229157584,180.89106695845103L145.76659336260388,74.63875736921136L145.8697544336319,128.22067364616555L146.9013651439122,131.06397253423563L147.3140094280243,138.2771695414449L147.72665371213643,103.6867801016474L147.82981478316444,139.62674056392257L147.93297585419245,128.68575044932936L148.13929799624853,135.64553043604587L148.4487812093326,112.91012472975422L148.7582644224167,138.3775014318128L148.96458656447274,167.27072124018616L149.17090870652882,117.26191178688237L149.27406977755683,113.51474578119974L149.48039191961288,130.57407254830377L149.893036203725,72.41928277222496L149.996197274753,80.0028552390263L150.09935834578107,163.32646488930504L150.30568048783712,146.80879460325923L150.40884155886513,129.47052779091973L150.71832477194923,133.12093534177177L150.82148584297724,134.63466172197354L150.92464691400528,-5.171179006932091L151.02780798503332,110.22506435362243L151.23413012708937,97.88687154760919L151.74993548222952,119.07298617698655L152.0594186953136,71.35518365341295L152.57522405045373,110.67321770539888L152.78154619250978,146.67945108194158L153.1941904766219,153.7200734203982L153.40051261867794,90.27621731712156L153.81315690279007,114.32290420694369L153.91631797381808,128.8886622073171L154.01947904484615,134.08300598361063L154.12264011587416,118.35387734068559L154.32896225793021,93.12224134742632L154.6384454710143,135.96737291506156L154.74160654204232,121.21383458848595L154.9479286840984,121.9082262786817L155.0510897551264,122.98471047971202L155.15425082615442,144.99857911012396L155.7732172523226,109.74170682978706L155.97953939437866,147.00668022342893L156.0827004654067,88.14918548278865L156.28902260746273,133.0044328603226L156.3921836784908,150.77197849845516L156.70166689157486,137.69844264306198L156.80482796260287,105.1033026730347L157.32063331774302,107.29586516499535L157.42379438877106,136.9041750201485L157.5269554597991,123.92824591288854L157.83643867288316,162.96685215099L158.04276081493924,134.83302450712597L158.14592188596725,100.91343360004498L158.24908295699527,112.8963823782517L158.35224402802334,148.6299848909972L158.45540509905135,118.19991210625926L158.55856617007936,102.1679533579636L159.17753259624752,125.96291981389822L159.69333795138766,92.02463464316065L159.79649902241573,123.45824900856951L159.89966009344374,129.12834747997363L160.4154654485839,110.43304466409336L160.828109732696,140.0861338019588L161.03443187475204,35.85067335070743L161.13759294578006,102.40157333350635L161.5502372298922,-2.3454716012251833L161.9628815140043,130.23814840046452L162.6850090112005,78.4600430022108L162.89133115325654,101.23122547854064L163.2008143663406,37.31141321049403L163.4071365083967,-121.01682695188445L163.51029757942473,79.59569566109917L163.81978079250882,67.67704751523138L163.92294186353683,88.15185760669192L164.1292640055929,132.99624682995227L164.23242507662093,75.84638771482742L164.541908289705,85.04023294333547L166.29564649718148,107.33489726058235L166.39880756820952,114.25530583439081L166.50196863923753,124.308684251783L166.60512971026554,116.63459888959164L167.01777399437768,125.85407317950524L167.32725720746177,151.04973093306694L167.43041827848978,126.11707591431764L167.73990149157387,67.47458111122751L167.84306256260192,127.76722906491398L167.94622363362993,130.9929597811397L168.35886791774206,150.1055274689146L168.46202898877007,146.8208403681565L168.56519005979808,139.95350314409347L168.77151220185416,128.28749795107979L168.97783434391022,111.37303847273142L169.18415648596627,141.17605284816943L169.39047862802232,133.8364813462017L170.00944505419048,184.84955342948368L170.21576719624656,168.88081373956607L170.7315725513867,125.73222645024953L170.83473362241472,130.0300408459982L171.76318326166697,139.88894802376376L171.866344332695,93.22244599379883L173.00111611400334,153.12187819072005L173.41376039811541,125.79264614072895L173.51692146914348,151.94177496277416L173.82640468222755,71.97144753043699L173.92956575325556,122.38073625190975L174.23904896633965,135.9635237842009L174.44537110839573,136.85665999153525L174.54853217942374,150.42598086764724L174.65169325045176,173.8744195094598L175.37382074764795,135.06247724181958L175.476981818676,36.64751766452763L175.58014288970404,100.89203540148628L175.68330396073205,111.74538621425211L175.99278717381614,140.2088500318497L176.1991093158722,133.54145553921524L176.3022703869002,117.68389529027286L176.40543145792827,156.80106409186362L176.50859252895629,117.70511322650475L177.02439788409643,72.73158195158612L177.23072002615245,77.42650364962583L177.7465253812926,140.53473250771913L177.84968645232067,135.52433053043342L178.15916966540473,108.57933293186602L178.88129716260093,156.67748896500382L179.08761930465698,132.47055947031595L180.11923001493727,131.45783511464413L180.32555215699333,125.04255339154963L180.42871322802137,120.40256928852114L180.6350353700774,126.62683656719719L180.73819644110543,99.1997326774158L180.94451858316148,138.75663551975447L181.04767965418952,143.8468725004834L181.66664608035768,101.94722744062074L181.76980715138572,176.29581972346966L182.3887735775539,135.36698272646288L182.49193464858192,131.17637139683336L183.42038428783417,140.4241150610569L183.8330285719463,110.28669286205809L184.03935071400232,136.69243040814717L184.45199499811446,124.55061750169148L185.07096142428261,109.67696084346426L185.3804446373667,127.07979337979975L185.58676677942276,132.28198386914255L185.89624999250685,131.03585161125363L186.10257213456288,149.42175004866795L186.20573320559095,122.30064676047573L186.61837748970302,131.702482903121L186.7215385607311,94.28277020741416L186.92786070278711,167.04002787653747L187.03102177381516,144.4774725343218L187.2373439158712,114.3106251613882L187.54682712895527,135.5703504421008L187.64998819998334,170.827646869089L187.75314927101135,163.49402402390592L188.16579355512349,122.5881545680677L188.3721156971795,156.68276959081265L188.47527676820755,143.15559828817482L188.57843783923556,148.07618721204517L188.78475998129164,148.64876398398405L188.99108212334767,131.2600343238047L189.19740426540375,144.98370216632918L189.5068874784878,122.89402792566148L189.8163706915719,152.36468098513126L189.91953176259995,122.08017533112366L190.02269283362796,130.82043813071846L190.33217604671205,115.61458981518354L190.53849818876813,105.07238238215405L190.64165925979614,155.89497020433168L190.9511424728802,165.08991821413315L191.05430354390828,156.29064601167454L191.36378675699234,159.70913017358907L191.77643104110444,89.4384640587823L191.87959211213249,101.1964666604656L191.9827531831605,166.80569745535377L192.7048806803567,146.75130152467386L192.91120282241275,51.3711748595183L193.01436389344082,165.02746261972743L193.11752496446883,136.28686138016246L193.4270081775529,122.43168686839863L193.53016924858093,157.98963964916948L193.73649139063698,67.60699969576717L194.14913567474912,118.73145268968369L194.25229674577713,137.02231046620523L194.35545781680514,157.6845721702132L194.66494102988923,125.14083877432495L195.07758531400137,149.47106770054927L195.18074638502938,145.59662588847414L195.38706852708543,155.29238505681246L195.49022959811347,148.34647466559386L195.5933906691415,125.76768511029923L195.69655174016953,124.76909544178238L195.9028738822256,180.10511260990327L196.21235709530967,141.71363752137506L196.31551816633768,159.25109420483705L196.41867923736572,132.89138717408161L196.52184030839376,126.78145922893304L196.93448459250587,93.22106751718206L197.0376456635339,119.23046122495248L197.55345101867402,163.5109898899584L197.75977316073008,149.69996904459617L197.86293423175815,166.14558741825033L197.96609530278616,144.6716680786251L198.37873958689826,100.33725158156994L198.68822279998233,102.22915771974795L198.8945449420384,65.25451270892927L199.20402815512247,164.16199137772492L199.30718922615048,186.64309995922238L199.41035029717855,166.11881316088625L199.51351136820657,134.96479626802238L199.6166724392346,142.7706215801113L199.82299458129066,128.16216261561704L200.0293167233467,163.6076953264576L200.3387999364308,195.05184973615158L200.44196100745884,115.61100577597995L200.64828314951487,160.85361568649103L200.7514442205429,131.579088038588L200.85460529157095,170.63127757319774L201.164088504655,145.0813089144624L201.3704106467111,122.6298375802254L201.4735717177391,88.34412328373173L201.57673278876712,143.47069683543464L201.67989385979516,156.67317327282672L202.40202135699136,108.93860635286L202.5051824280194,145.5077247503591L202.8146656411035,148.4369769573176L203.33047099624363,122.30046649814892L203.74311528035574,150.01305289526226L204.3620817065239,152.88051753879085L204.46524277755194,159.01008347389518L204.67156491960796,151.4849902266435L205.0842092037201,78.92380495075554L205.18737027474813,146.00412478372232L205.29053134577615,119.36487329875331L205.4968534878322,78.71597309161257L205.6000145588602,88.27746863747802L205.70317562988828,126.1498412431315L206.11581991400035,112.84955658794684L206.5284641981125,150.1954359553265L206.73478634016854,107.13280198489838L206.83794741119658,188.2206922214455L207.66323597942082,159.21630357576316L207.76639705044883,158.92831860318847L208.0758802635329,113.18616997409447L208.385363476617,172.9212665509648L208.79800776072912,151.55785862133894L209.00432990278514,144.2098996193415L209.41697418689728,128.80034427084763L209.93277954203742,154.08645129780166L210.03594061306543,148.09209271146938L210.44858489717754,137.41923750616945L210.5517459682056,165.6118942905705L210.86122918128967,130.8119658013585L210.96439025231768,118.91489611637621L211.06755132334575,146.00677570029302L211.37703453642982,142.90452467793057L211.6865177495139,116.26273891671997L211.78967882054192,153.56918324919388L211.99600096259798,172.8262895120697L212.20232310465406,108.97877304073927L212.30548417568207,152.47776908603737L212.40864524671008,46.68770512106402L213.1307727439063,141.4514088542013L213.33709488596233,138.97701151611L213.44025595699037,163.68913148350953L214.05922238315856,142.1003850417078L214.16238345418657,154.2315942818807L214.2655445252146,146.95457380731523L214.36870559624262,163.8105752734465L214.47186666727066,113.70571781095305L214.6781888093267,131.46718754830556L214.9876720224108,183.62508446181053L215.709799519607,145.8212327476765L215.81296059063502,122.55097811408018L215.91612166166308,138.94163768539056L216.8445713009153,144.7427020390536L217.1540545139994,125.59490897188721L217.2572155850274,145.84860081035242L217.66985986913954,134.2405128425754L217.77302094016756,140.20578557229396L217.8761820111956,126.82648239596983L217.97934308222364,147.6618383483783L218.2888262953077,148.206400233998L218.39198736633574,112.14468847546368L218.49514843736378,164.79991854496473L218.5983095083918,111.32235294789962L219.0109537925039,160.44685904788264L219.11411486353194,146.29701925378595L219.21727593455995,129.35580672540607L219.52675914764404,118.77155575556526L219.7330812897001,118.71546236092922L219.93940343175618,131.02072017946807L220.1457255738122,161.95292958102823L220.24888664484024,90.52394016882045L220.35204771586828,163.7078893691638L220.55836985792433,173.53134849054595L220.66153092895235,166.8290467285085L221.1773362840925,136.84938587646525L221.48681949717658,126.90304086653168L221.69314163923264,144.09752196407635L222.00262485231673,165.9544351261702L222.31210806540082,132.96263320783578L222.41526913642883,139.55721232410622L222.62159127848489,140.79060957878949L222.82791342054097,148.00872668715397L223.44687984670912,170.52514547737314L223.55004091773714,156.72612798224304L223.75636305979322,15.382861678993546L223.96268520184927,111.13675697695169L224.89113484110152,133.42368061781212L224.99429591212953,174.28513131559168L225.09745698315754,115.76469531508292L225.2006180541856,163.86453733115968L226.43855090652193,166.10623721267484L226.644873048578,26.54400511295034L226.85119519063406,127.00048855967066L227.05751733269008,121.84799745419537L227.47016161680222,102.12341795957582L227.57332268783023,131.94875305253913L227.6764837588583,116.29029784538898L227.7796448298863,155.11333154796102L227.88280590091432,148.4456719636695L227.98596697194236,143.511054389307L228.08912804297037,158.05202101791122L228.29545018502645,130.541498085483L228.39861125605447,84.052268148434L228.50177232708248,154.6507996247051L228.70809446913856,155.41699934296798L229.2238998242787,144.35536071340903L229.53338303736277,144.01829136961123L229.73970517941885,58.545191319812595L229.84286625044686,130.9787720756533L230.0491883925029,136.48173555910785L230.358671605587,121.67125554459358L230.6681548186711,148.61071802936135L230.87447696072715,89.30036190911505L231.18396017381124,155.90787486619786L231.4934433868953,123.18370948484142L231.59660445792335,122.65594380661366L231.9060876710074,91.41530556388557L232.1124098130635,173.20110790783428L232.2155708840915,145.43826013254045L233.04085945231574,140.27591822108843L233.14402052334378,145.91439655963723L233.3503426653998,136.5614963368871L233.86614802053995,155.4128639131177L234.3819533756801,182.05478752199L234.48511444670814,26.02501927040475L234.58827551773618,132.29011688118146L234.7945976597922,130.7958058139435L234.89775873082024,156.97223907666694L235.1040808728763,109.42158214470919L235.31040301493235,141.03008277812035L235.61988622801644,146.36419347968751L235.72304729904448,144.77970883438059L236.13569158315659,146.28790010078274L236.65149693829673,152.1426614205019L236.85781908035278,151.1957858324463L237.47678550652097,167.73237305914063L237.57994657754898,166.1938977218348L237.683107648577,137.6050667577756L237.78626871960503,89.97021671553239L237.88942979063307,166.58607431930432L238.19891300371714,156.26633180488807L238.40523514577322,151.6075898162053L238.71471835885728,124.88813219947315L238.8178794298853,-115.35379052222468L239.1273626429694,169.55342549921693L239.33368478502547,151.3869487281927L239.54000692708152,129.59454827176341L239.64316799810953,154.67277042124306L239.74632906913757,144.56316076155315L240.15897335324968,106.858251857504L240.5716176373618,122.43599195690945L240.67477870838982,142.55934352942643L240.77793977941784,145.149384451998L241.19058406352997,152.05049435317176L241.293745134558,173.5813977954008L241.50006727661406,178.07972752055733L241.60322834764207,151.4643342847246L241.80955048969815,133.75363490153416L241.91271156072617,152.87514147998547L242.0158726317542,158.7452781158147L242.22219477381023,80.6180375420895L242.3253558448383,167.65195485405184L242.4285169158663,135.3074643476175L242.53167798689432,153.015841527892L242.84116119997842,161.52830576473332L243.04748334203447,134.60308400378335L243.15064441306248,131.31517338847527L243.7696108392307,157.91079078669054L243.8727719102587,101.62527892494222L243.97593298128672,161.70624588862506L244.38857726539885,-84.67585703812618L244.5948994074549,104.84077710320503L244.80122154951096,119.72131554084979L245.2138658336231,146.24419178836501L245.93599333081926,134.43454933188445L246.24547654390335,168.9385719098085L246.4517986859594,165.64908134822429L246.65812082801548,111.34436615910272L246.7612818990435,113.86000115536785L246.96760404109955,133.6783064562611L247.17392618315563,139.8618556564112L247.38024832521165,142.98869658088347L247.4834093962397,149.51824341184147L247.5865704672677,109.05384699802153L247.8960536803518,144.44462237617768L247.9992147513798,130.63736583234584L248.30869796446393,142.77581737658988L248.41185903549194,147.86874768855466L248.72134224857604,180.21150979738493L249.0308254616601,142.10298293994708L249.4434697457722,123.40711812975383L250.06243617194042,80.70066130976511L250.16559724296843,113.28582322982027L250.4750804560525,128.54120127056217L250.57824152708054,149.26549442232454L250.7845636691366,177.40721119390298L250.99088581119264,107.62051761557598L251.09404688222068,149.61219189510712L251.30036902427673,108.38931523207816L251.40353009530475,133.5892038484867L251.60985223736083,136.81479671705074L251.71301330838884,142.70881280934884L251.81617437941688,162.32846902610004L251.9193354504449,157.10624821114902L252.12565759250097,160.32446092798023L252.33197973455702,138.66458509275344L252.43514080558504,140.77683541628812L252.84778508969714,147.51478670436836L252.95094616072518,101.26439374667325L253.15726830278123,148.57697716324947L253.4667515158653,174.85483449396793L253.67307365792138,163.5128455315579L253.98255687100547,142.73715640932278L254.60152329717366,153.98429557683312L255.2204897233418,155.37759611906108L255.63313400745392,159.8014350885809L255.942617220538,112.86860077259075L256.4584225756782,106.79046261895803L256.6647447177342,124.34727099338613L256.9742279308183,126.29150622466977L257.59319435698643,153.43922471523183L257.6963554280145,161.7617242706167L257.9026775700706,139.0038387918055L258.2121607831546,152.5352833719553L258.5216439962387,121.1166837980029L258.6248050672667,126.61165211708021L258.72796613829473,150.8756187327033L259.656415777547,124.33136549396193L259.759576848575,152.99066842413663L259.8627379196031,92.88970294584442L259.9658989906311,129.10843379469452L260.1722211326871,139.82384151278734L260.3785432747432,149.23589958972923L260.6880264878273,144.29740107350722L260.7911875588553,110.338544790181L261.2038318429674,139.5530238759245L261.4101539850235,138.52866729834045L261.5133150560515,29.72412946049371L261.6164761270795,156.73974308975016L261.7196371981076,110.4523221293955L262.5449257663318,166.86514160853517L263.4733754055841,131.0586813047605L263.6796975476401,161.18395170219924L263.9891807607242,140.88306294510926L264.50498611586437,105.11252786270074L264.81446932894846,158.37240019097987L264.9176303999765,169.7895585436687L265.22711361306057,133.77082344457858L265.3302746840886,158.58825902549893L265.6397578971726,176.0464214924981L265.94924111025676,143.65891191195442L266.1555632523128,138.1483986181065L266.36188539436887,139.15050870382925L266.67136860745296,171.3545112356827L266.980851820537,99.39265578176514L267.084012891565,167.1006808476751L267.1871739625931,143.3302406718526L267.39349610464916,167.4616190442755L268.21878467287337,85.62996644731993L268.4251068149294,166.1293319978388L268.6314289569855,37.03438182518948L268.83775109904155,122.70080791865621L269.35355645418167,137.63062159351716L269.8693618093218,117.12041646400462L270.28200609343395,144.23237939186106L270.69465037754605,140.65379047274246L270.79781144857407,172.7489039555378L270.9009725196021,157.4090359018545L271.3136168037142,158.47952903143505L271.41677787474225,150.1680042706529L271.51993894577026,145.0840870750285L271.6231000167983,139.3565591470367L271.93258322988237,147.70607684411016L272.4483885850225,184.09353323085227L272.7578717981066,143.49194658266538L272.96419394016266,149.7362123759508L273.37683822427476,151.77058937430456L273.4799992953028,163.0421593889305L273.58316036633084,187.70777167601366L273.68632143735886,134.68826325503312L273.8926435794149,142.05311389741905L274.09896572147096,137.93321841822956L274.40844893455505,149.08493519286094L274.71793214763915,129.6269318685911L274.82109321866716,160.05258292448912L275.02741536072324,119.0521711800734L275.23373750277926,107.16575817970534L275.9558649999755,161.83512284862627L276.26534821305955,175.53059554250478L276.36850928408757,184.1624040433591L276.57483142614365,143.51688640576253L276.78115356819967,139.90727115910045L276.98747571025575,158.76973017026285L277.09063678128376,151.49949604211838L277.29695892333984,113.09373781510726L277.60644213642394,133.1715466409396L277.81276427847996,142.0171250540552L278.12224749156405,118.13735047519071L278.32856963362013,135.47676248348876L278.43173070464815,149.77325098227664" fill="none"></path></g></g></g></g></g></g><g transform="translate(41, 177)" clip-path="url(#clip_1)"><clipPath id="clip_1"><rect width="288" height="22"></rect></clipPath><g><g><line x1="0" y1="0" x2="0" y2="5" style="visibility: inherit;" fill="rgb(0, 0, 0)" stroke="rgb(204, 204, 204)" stroke-width="1px"></line><line x1="20.632214205605642" y1="0" x2="20.632214205605642" y2="5" style="visibility: inherit;" fill="rgb(0, 0, 0)" stroke="rgb(204, 204, 204)" stroke-width="1px"></line><line x1="41.264428411211284" y1="0" x2="41.264428411211284" y2="5" style="visibility: inherit;" fill="rgb(0, 0, 0)" stroke="rgb(204, 204, 204)" stroke-width="1px"></line><line x1="61.896642616816926" y1="0" x2="61.896642616816926" y2="5" style="visibility: inherit;" fill="rgb(0, 0, 0)" stroke="rgb(204, 204, 204)" stroke-width="1px"></line><line x1="82.52885682242257" y1="0" x2="82.52885682242257" y2="5" style="visibility: inherit;" fill="rgb(0, 0, 0)" stroke="rgb(204, 204, 204)" stroke-width="1px"></line><line x1="103.16107102802822" y1="0" x2="103.16107102802822" y2="5" style="visibility: inherit;" fill="rgb(0, 0, 0)" stroke="rgb(204, 204, 204)" stroke-width="1px"></line><line x1="123.79328523363385" y1="0" x2="123.79328523363385" y2="5" style="visibility: inherit;" fill="rgb(0, 0, 0)" stroke="rgb(204, 204, 204)" stroke-width="1px"></line><line x1="144.4254994392395" y1="0" x2="144.4254994392395" y2="5" style="visibility: inherit;" fill="rgb(0, 0, 0)" stroke="rgb(204, 204, 204)" stroke-width="1px"></line><line x1="165.05771364484514" y1="0" x2="165.05771364484514" y2="5" style="visibility: inherit;" fill="rgb(0, 0, 0)" stroke="rgb(204, 204, 204)" stroke-width="1px"></line><line x1="185.6899278504508" y1="0" x2="185.6899278504508" y2="5" style="visibility: inherit;" fill="rgb(0, 0, 0)" stroke="rgb(204, 204, 204)" stroke-width="1px"></line><line x1="206.32214205605644" y1="0" x2="206.32214205605644" y2="5" style="visibility: inherit;" fill="rgb(0, 0, 0)" stroke="rgb(204, 204, 204)" stroke-width="1px"></line><line x1="226.95435626166207" y1="0" x2="226.95435626166207" y2="5" style="visibility: inherit;" fill="rgb(0, 0, 0)" stroke="rgb(204, 204, 204)" stroke-width="1px"></line><line x1="247.5865704672677" y1="0" x2="247.5865704672677" y2="5" style="visibility: inherit;" fill="rgb(0, 0, 0)" stroke="rgb(204, 204, 204)" stroke-width="1px"></line><line x1="268.21878467287337" y1="0" x2="268.21878467287337" y2="5" style="visibility: inherit;" fill="rgb(0, 0, 0)" stroke="rgb(204, 204, 204)" stroke-width="1px"></line><line x1="288.850998878479" y1="0" x2="288.850998878479" y2="5" style="visibility: inherit;" fill="rgb(0, 0, 0)" stroke="rgb(204, 204, 204)" stroke-width="1px"></line></g><g transform="translate(0, 8)"><text style="text-anchor: middle; visibility: hidden; font-family: Roboto, sans-serif; font-size: 12px; font-weight: 200;" x="0" y="0" dx="0em" dy="0.95em" fill="rgb(50, 49, 63)" stroke="none" stroke-width="1px">-200</text><text style="text-anchor: middle; visibility: inherit; font-family: Roboto, sans-serif; font-size: 12px; font-weight: 200;" x="20.632214205605642" y="0" dx="0em" dy="0.95em" fill="rgb(50, 49, 63)" stroke="none" stroke-width="1px">0</text><text style="text-anchor: middle; visibility: hidden; font-family: Roboto, sans-serif; font-size: 12px; font-weight: 200;" x="41.264428411211284" y="0" dx="0em" dy="0.95em" fill="rgb(50, 49, 63)" stroke="none" stroke-width="1px">200</text><text style="text-anchor: middle; visibility: inherit; font-family: Roboto, sans-serif; font-size: 12px; font-weight: 200;" x="61.896642616816926" y="0" dx="0em" dy="0.95em" fill="rgb(50, 49, 63)" stroke="none" stroke-width="1px">400</text><text style="text-anchor: middle; visibility: hidden; font-family: Roboto, sans-serif; font-size: 12px; font-weight: 200;" x="82.52885682242257" y="0" dx="0em" dy="0.95em" fill="rgb(50, 49, 63)" stroke="none" stroke-width="1px">600</text><text style="text-anchor: middle; visibility: inherit; font-family: Roboto, sans-serif; font-size: 12px; font-weight: 200;" x="103.16107102802822" y="0" dx="0em" dy="0.95em" fill="rgb(50, 49, 63)" stroke="none" stroke-width="1px">800</text><text style="text-anchor: middle; visibility: hidden; font-family: Roboto, sans-serif; font-size: 12px; font-weight: 200;" x="123.79328523363385" y="0" dx="0em" dy="0.95em" fill="rgb(50, 49, 63)" stroke="none" stroke-width="1px">1k</text><text style="text-anchor: middle; visibility: inherit; font-family: Roboto, sans-serif; font-size: 12px; font-weight: 200;" x="144.4254994392395" y="0" dx="0em" dy="0.95em" fill="rgb(50, 49, 63)" stroke="none" stroke-width="1px">1.2k</text><text style="text-anchor: middle; visibility: hidden; font-family: Roboto, sans-serif; font-size: 12px; font-weight: 200;" x="165.05771364484514" y="0" dx="0em" dy="0.95em" fill="rgb(50, 49, 63)" stroke="none" stroke-width="1px">1.4k</text><text style="text-anchor: middle; visibility: inherit; font-family: Roboto, sans-serif; font-size: 12px; font-weight: 200;" x="185.6899278504508" y="0" dx="0em" dy="0.95em" fill="rgb(50, 49, 63)" stroke="none" stroke-width="1px">1.6k</text><text style="text-anchor: middle; visibility: hidden; font-family: Roboto, sans-serif; font-size: 12px; font-weight: 200;" x="206.32214205605644" y="0" dx="0em" dy="0.95em" fill="rgb(50, 49, 63)" stroke="none" stroke-width="1px">1.8k</text><text style="text-anchor: middle; visibility: inherit; font-family: Roboto, sans-serif; font-size: 12px; font-weight: 200;" x="226.95435626166207" y="0" dx="0em" dy="0.95em" fill="rgb(50, 49, 63)" stroke="none" stroke-width="1px">2k</text><text style="text-anchor: middle; visibility: hidden; font-family: Roboto, sans-serif; font-size: 12px; font-weight: 200;" x="247.5865704672677" y="0" dx="0em" dy="0.95em" fill="rgb(50, 49, 63)" stroke="none" stroke-width="1px">2.2k</text><text style="text-anchor: middle; visibility: inherit; font-family: Roboto, sans-serif; font-size: 12px; font-weight: 200;" x="268.21878467287337" y="0" dx="0em" dy="0.95em" fill="rgb(50, 49, 63)" stroke="none" stroke-width="1px">2.4k</text><text style="text-anchor: middle; visibility: hidden; font-family: Roboto, sans-serif; font-size: 12px; font-weight: 200;" x="288.850998878479" y="0" dx="0em" dy="0.95em" fill="rgb(50, 49, 63)" stroke="none" stroke-width="1px">2.6k</text></g><line x1="0" y1="0" x2="288.850998878479" y2="0" fill="rgb(0, 0, 0)" stroke="rgb(204, 204, 204)" stroke-width="1px"></line></g></g></g></g></svg>