<svg viewBox="0 0 330 200" xmlns="http://www.w3.org/2000/svg"><g><g><g><g><g><line x1="41.149001121520996" y1="177.89999961853027" x2="36.149001121520996" y2="177.89999961853027" style="visibility: inherit;" fill="rgb(0, 0, 0)" stroke="rgb(204, 204, 204)" stroke-width="1px"></line><line x1="41.149001121520996" y1="155.662499666214" x2="36.149001121520996" y2="155.662499666214" style="visibility: inherit;" fill="rgb(0, 0, 0)" stroke="rgb(204, 204, 204)" stroke-width="1px"></line><line x1="41.149001121520996" y1="133.4249997138977" x2="36.149001121520996" y2="133.4249997138977" style="visibility: inherit;" fill="rgb(0, 0, 0)" stroke="rgb(204, 204, 204)" stroke-width="1px"></line><line x1="41.149001121520996" y1="111.18749976158142" x2="36.149001121520996" y2="111.18749976158142" style="visibility: inherit;" fill="rgb(0, 0, 0)" stroke="rgb(204, 204, 204)" stroke-width="1px"></line><line x1="41.149001121520996" y1="88.94999980926514" x2="36.149001121520996" y2="88.94999980926514" style="visibility: inherit;" fill="rgb(0, 0, 0)" stroke="rgb(204, 204, 204)" stroke-width="1px"></line><line x1="41.149001121520996" y1="66.71249985694885" x2="36.149001121520996" y2="66.71249985694885" style="visibility: inherit;" fill="rgb(0, 0, 0)" stroke="rgb(204, 204, 204)" stroke-width="1px"></line><line x1="41.149001121520996" y1="44.47499990463257" x2="36.149001121520996" y2="44.47499990463257" style="visibility: inherit;" fill="rgb(0, 0, 0)" stroke="rgb(204, 204, 204)" stroke-width="1px"></line><line x1="41.149001121520996" y1="22.237499952316284" x2="36.149001121520996" y2="22.237499952316284" style="visibility: inherit;" fill="rgb(0, 0, 0)" stroke="rgb(204, 204, 204)" stroke-width="1px"></line><line x1="41.149001121520996" y1="0" x2="36.149001121520996" y2="0" style="visibility: inherit;" fill="rgb(0, 0, 0)" stroke="rgb(204, 204, 204)" stroke-width="1px"></line></g><g transform="translate(31.149001121520996, 0)"><text style="text-anchor: end; visibility: hidden; font-family: Roboto, sans-serif; font-size: 12px; font-weight: 200;" x="0" y="177.89999961853027" dx="0em" dy="0.3em" fill="rgb(50, 49, 63)" stroke="none" stroke-width="1px">6</text><text style="text-anchor: end; visibility: inherit; font-family: Roboto, sans-serif; font-size: 12px; font-weight: 200;" x="0" y="155.662499666214" dx="0em" dy="0.3em" fill="rgb(50, 49, 63)" stroke="none" stroke-width="1px">6.5</text><text style="text-anchor: end; visibility: hidden; font-family: Roboto, sans-serif; font-size: 12px; font-weight: 200;" x="0" y="133.4249997138977" dx="0em" dy="0.3em" fill="rgb(50, 49, 63)" stroke="none" stroke-width="1px">7</text><text style="text-anchor: end; visibility: inherit; font-family: Roboto, sans-serif; font-size: 12px; font-weight: 200;" x="0" y="111.18749976158142" dx="0em" dy="0.3em" fill="rgb(50, 49, 63)" stroke="none" stroke-width="1px">7.5</text><text style="text-anchor: end; visibility: hidden; font-family: Roboto, sans-serif; font-size: 12px; font-weight: 200;" x="0" y="88.94999980926514" dx="0em" dy="0.3em" fill="rgb(50, 49, 63)" stroke="none" stroke-width="1px">8</text><text style="text-anchor: end; visibility: inherit; font-family: Roboto, sans-serif; font-size: 12px; font-weight: 200;" x="0" y="66.71249985694885" dx="0em" dy="0.3em" fill="rgb(50, 49, 63)" stroke="none" stroke-width="1px">8.5</text><text style="text-anchor: end; visibility: hidden; font-family: Roboto, sans-serif; font-size: 12px; font-weight: 200;" x="0" y="44.47499990463257" dx="0em" dy="0.3em" fill="rgb(50, 49, 63)" stroke="none" stroke-width="1px">9</text><text style="text-anchor: end; visibility: inherit; font-family: Roboto, sans-serif; font-size: 12px; font-weight: 200;" x="0" y="22.237499952316284" dx="0em" dy="0.3em" fill="rgb(50, 49, 63)" stroke="none" stroke-width="1px">9.5</text><text style="text-anchor: end; visibility: hidden; font-family: Roboto, sans-serif; font-size: 12px; font-weight: 200;" x="0" y="0" dx="0em" dy="0.3em" fill="rgb(50, 49, 63)" stroke="none" stroke-width="1px">10</text></g><line x1="41.149001121520996" y1="0" x2="41.149001121520996" y2="177.89999961853027" fill="rgb(0, 0, 0)" stroke="rgb(204, 204, 204)" stroke-width="1px"></line></g></g><g transform="translate(41, 0)" clip-path="url(#clip_0)"><clipPath id="clip_0"><rect width="288" height="177"></rect></clipPath><g><g><g><line x1="0" y1="0" x2="0" y2="177.89999961853027" fill="rgb(0, 0, 0)" stroke="rgb(60, 60, 60)" stroke-width="1px" opacity="0.25"></line><line x1="20.632214205605642" y1="0" x2="20.632214205605642" y2="177.89999961853027" fill="rgb(0, 0, 0)" stroke="rgb(60, 60, 60)" stroke-width="1px" opacity="0.25"></line><line x1="41.264428411211284" y1="0" x2="41.264428411211284" y2="177.89999961853027" fill="rgb(0, 0, 0)" stroke="rgb(60, 60, 60)" stroke-width="1px" opacity="0.25"></line><line x1="61.896642616816926" y1="0" x2="61.896642616816926" y2="177.89999961853027" fill="rgb(0, 0, 0)" stroke="rgb(60, 60, 60)" stroke-width="1px" opacity="0.25"></line><line x1="82.52885682242257" y1="0" x2="82.52885682242257" y2="177.89999961853027" fill="rgb(0, 0, 0)" stroke="rgb(60, 60, 60)" stroke-width="1px" opacity="0.25"></line><line x1="103.16107102802822" y1="0" x2="103.16107102802822" y2="177.89999961853027" fill="rgb(0, 0, 0)" stroke="rgb(60, 60, 60)" stroke-width="1px" opacity="0.25"></line><line x1="123.79328523363385" y1="0" x2="123.79328523363385" y2="177.89999961853027" fill="rgb(0, 0, 0)" stroke="rgb(60, 60, 60)" stroke-width="1px" opacity="0.25"></line><line x1="144.4254994392395" y1="0" x2="144.4254994392395" y2="177.89999961853027" fill="rgb(0, 0, 0)" stroke="rgb(60, 60, 60)" stroke-width="1px" opacity="0.25"></line><line x1="165.05771364484514" y1="0" x2="165.05771364484514" y2="177.89999961853027" fill="rgb(0, 0, 0)" stroke="rgb(60, 60, 60)" stroke-width="1px" opacity="0.25"></line><line x1="185.6899278504508" y1="0" x2="185.6899278504508" y2="177.89999961853027" fill="rgb(0, 0, 0)" stroke="rgb(60, 60, 60)" stroke-width="1px" opacity="0.25"></line><line x1="206.32214205605644" y1="0" x2="206.32214205605644" y2="177.89999961853027" fill="rgb(0, 0, 0)" stroke="rgb(60, 60, 60)" stroke-width="1px" opacity="0.25"></line><line x1="226.95435626166207" y1="0" x2="226.95435626166207" y2="177.89999961853027" fill="rgb(0, 0, 0)" stroke="rgb(60, 60, 60)" stroke-width="1px" opacity="0.25"></line><line x1="247.5865704672677" y1="0" x2="247.5865704672677" y2="177.89999961853027" fill="rgb(0, 0, 0)" stroke="rgb(60, 60, 60)" stroke-width="1px" opacity="0.25"></line><line x1="268.21878467287337" y1="0" x2="268.21878467287337" y2="177.89999961853027" fill="rgb(0, 0, 0)" stroke="rgb(60, 60, 60)" stroke-width="1px" opacity="0.25"></line><line x1="288.850998878479" y1="0" x2="288.850998878479" y2="177.89999961853027" fill="rgb(0, 0, 0)" stroke="rgb(60, 60, 60)" stroke-width="1px" opacity="0.25"></line></g><g><line x1="0" y1="177.89999961853027" x2="288.850998878479" y2="177.89999961853027" fill="rgb(0, 0, 0)" stroke="rgb(60, 60, 60)" stroke-width="1px" opacity="0.25"></line><line x1="0" y1="155.662499666214" x2="288.850998878479" y2="155.662499666214" fill="rgb(0, 0, 0)" stroke="rgb(60, 60, 60)" stroke-width="1px" opacity="0.25"></line><line x1="0" y1="133.4249997138977" x2="288.850998878479" y2="133.4249997138977" fill="rgb(0, 0, 0)" stroke="rgb(60, 60, 60)" stroke-width="1px" opacity="0.25"></line><line x1="0" y1="111.18749976158142" x2="288.850998878479" y2="111.18749976158142" fill="rgb(0, 0, 0)" stroke="rgb(60, 60, 60)" stroke-width="1px" opacity="0.25"></line><line x1="0" y1="88.94999980926514" x2="288.850998878479" y2="88.94999980926514" fill="rgb(0, 0, 0)" stroke="rgb(60, 60, 60)" stroke-width="1px" opacity="0.25"></line><line x1="0" y1="66.71249985694885" x2="288.850998878479" y2="66.71249985694885" fill="rgb(0, 0, 0)" stroke="rgb(60, 60, 60)" stroke-width="1px" opacity="0.25"></line><line x1="0" y1="44.47499990463257" x2="288.850998878479" y2="44.47499990463257" fill="rgb(0, 0, 0)" stroke="rgb(60, 60, 60)" stroke-width="1px" opacity="0.25"></line><line x1="0" y1="22.237499952316284" x2="288.850998878479" y2="22.237499952316284" fill="rgb(0, 0, 0)" stroke="rgb(60, 60, 60)" stroke-width="1px" opacity="0.25"></line><line x1="0" y1="0" x2="288.850998878479" y2="0" fill="rgb(0, 0, 0)" stroke="rgb(60, 60, 60)" stroke-width="1px" opacity="0.25"></line></g></g></g><g><g><line x1="0" y1="444.7499990463257" x2="288.850998878479" y2="444.7499990463257" fill="rgb(0, 0, 0)" stroke="rgb(153, 153, 153)" stroke-width="1.5px"></line></g></g><g><g><line x1="20.632214205605642" y1="0" x2="20.632214205605642" y2="177.89999961853027" fill="rgb(0, 0, 0)" stroke="rgb(153, 153, 153)" stroke-width="1.5px"></line></g></g><g><g><g><g><g><path style="fill: none;" stroke="rgb(255, 112, 67)" stroke-width="2px" d="M21.148019560745784,130.02016247048914L21.25118063177381,2.422190187147919L21.663824915885925,-786.016475644914L24.75865704672677,-3.8011178833118593L24.964979188782827,24.26069883649068L25.171301330838887,56.22425251808765L25.274462401866913,71.0522898142282L25.48078454392297,78.03543218338235L25.687106685979025,29.745249641572016L26.09975097009114,52.173398585053235L26.20291204111917,61.56288578910977L26.306073112147192,71.16698409977501L26.409234183175222,56.52305584131267L26.512395254203252,49.89116492941203L27.13136168037142,-41.89804219609295L27.337683822427476,-5.7356928302616526L27.440844893455505,25.1745391531301L27.544005964483535,53.57980787129951L27.64716703551156,68.65666479334075L27.956650248595643,66.02198201337691L28.059811319623673,61.33032804544416L28.162972390651703,26.80811347693938L28.26613346167973,35.59955082712896L28.781938816819874,56.03765629793242L29.297744171960012,69.49879266062032L29.607227385044098,22.604939046265308L29.710388456072124,54.8425785208469L30.329354882240295,61.94754700646576L31.154643450464523,75.89444085802151L31.464126663548605,84.98439839155532L31.567287734576635,93.12728453003449L32.28941523177283,88.32856053830744L32.598898444856914,82.2676324540501L32.805220586912974,78.23785772775027L33.52734808410917,73.6916928595261L33.6305091551372,76.77610943436271L33.93999236822128,78.32668410617049L34.04315343924931,77.21503423690547L34.76528093644551,70.32810333240076L34.971603078501566,72.45921659461202L35.177925220557626,77.03190924123369L35.281086291585645,71.567150413227L35.38424736261368,64.9595921969322L36.106374859809875,72.5034622889734L36.62218021495001,78.15292467686545L36.82850235700607,83.72358963944467L36.931663428034106,85.68514526191048L37.03482449906213,88.8184550645674L37.34430771214621,87.53019270485397L37.653790925230304,81.0968964320682L37.86011306728635,86.33214980047548L37.96327413831438,76.44707952508003L38.27275735139847,68.70403196783919L38.89172377756664,74.68063396415342L38.994884848594666,66.27568090962352L39.20120699065072,76.38424541374003L39.51069020373481,80.84125753655884L39.71701234579086,86.94182325474634L39.82017341681889,92.95985819337483L40.02649555887495,93.6004565038099L40.23281770093101,95.11005959013612L40.335978771959034,98.60991084429017L41.05810626915523,97.92393307870094L41.883394837379456,99.72236254600946L41.98655590840748,100.67566922721363L42.089716979435515,100.01930756786992L42.50236126354762,103.74017965130835L43.53397197382791,99.35897568452751L43.637133044855936,100.70329436783139L43.84345518691199,108.02812890051425L44.04977732896805,108.6886134627798L44.25609947102411,108.78890921805444L44.565582684108186,105.4987098578391L44.66874375513621,106.54778032826779L44.771904826164246,109.78115221519376L45.08138803924833,99.39227559446637L46.112998749528614,104.66176439095126L46.319320891584674,102.65585845964716L46.93828731775284,104.12760293815025L47.24777053083692,103.21214057969306L47.35093160186495,103.31315632747759L47.454092672892976,101.9169747216854L47.55725374392101,93.7925789814612L47.76357588597707,92.37770577208018L48.176220170089174,88.17712411018455L48.38254231214523,86.96211188125949L48.588864454201286,83.45021050118102L48.795186596257345,91.03237757090577L49.31099195139748,93.95470215590524L49.929958377565654,99.79435967737861L50.65208587476185,107.51330664513705L50.75524694578988,105.39179357558572L51.27105230093002,108.26207746786771L51.37421337195805,107.5366162395767L51.683696585042135,108.77764341498509L51.78685765607017,111.70651317929152L51.89001872709819,113.81200854100454L52.302663011210306,113.42026855874616L52.40582408223834,114.8583558648223L52.612146224294385,114.21877053139089L52.92162943737848,103.57330856174832L53.33427372149058,112.12820892970947L53.437434792518616,102.13884500086019L53.54059586354664,108.32139118729611L53.643756934574675,104.01132367480741L53.85007907663073,110.35292547452568L54.15956228971481,112.58429399505539L54.26272336074284,115.58224956331111L54.36588443177087,116.21931067511953L54.67536764485495,116.04495665755366L54.984850857939044,79.45516447180977L55.60381728410721,77.21766141728004L55.81013942616327,91.95114051379755L56.119622639247346,102.72947637300842L56.22278371027538,98.83963950799497L56.42910585233144,105.19116650950008L56.53226692335946,112.82230373530774L57.0480722784996,105.06159292975592L57.15123334952764,103.67290252626321L57.56387763363975,110.55223526469997L57.7701997756958,111.51385160957338L58.079682988779886,98.45072318868098L58.492327272892005,101.9901474280106L58.90497155700411,103.6438135502223L59.11129369906017,108.00261788780858L59.52393798317228,113.21036965251076L59.62709905420031,109.44266307630811L59.73026012522834,112.2871954697754L59.93658226728439,112.69121632981461L60.45238762242454,112.90868902274093L60.55554869345256,114.7719644019015L60.96819297756468,114.82767130705257L61.07135404859271,117.06787109638928L61.174515119620736,112.2966700001713L62.20612582990101,112.1214697691499L62.72193118504115,114.97735133507952L63.444058682237355,111.0739570689082L63.54721975326538,116.30271767886923L64.06302510840553,115.98024374182448L64.16618617943355,116.32716462803444L64.3725083214896,114.97914854489511L64.57883046354566,119.98000282202992L64.99147474765778,115.73976369389901L65.91992438691003,119.70107127671743L66.12624652896609,120.21873622437691L66.22940759999412,122.7466381591043L66.5388908130782,125.01850456913786L67.15785723924637,121.81718719292796L67.98314580747059,122.64790395772842L68.08630687849862,122.44814621388366L68.18946794952664,124.4171714106242L68.39579009158271,125.02034739893462L68.49895116261074,127.19065313738854L68.80843437569482,129.98912417109395L68.91159544672284,127.1261305805444L69.42740080186299,124.6195319329033L69.53056187289101,-92.27039763905316L70.66533365419933,-18.067651270595377L70.97481686728341,9.085530496566363L71.07797793831145,40.43143912976196L71.28430008036749,63.241062452800605L71.49062222242355,71.25923619899596L71.80010543550765,-282.79326646238263L75.41074292148862,-39.393644983841824L75.61706506354469,8.71571759959415L75.7202261345727,27.88569898384629L75.82338720560074,52.56093630604779L75.92654827662876,68.74883071437849L76.0297093476568,77.94683994921053L76.13287041868482,80.34541913266467L76.33919256074088,-45.1360932756901L76.54551470279694,5.426928397479938L77.06132005793708,19.08071231575847L77.16448112896511,45.48516123942872L77.26764219999313,63.55341290239619L77.4739643420492,70.57760391194672L77.8866086261613,74.43130544433876L78.09293076821736,79.79879042010411L78.29925291027341,34.00672669346084L78.71189719438553,-218.60531653690816L78.91821933644158,-26.471189490233613L79.3308636205537,22.386783179670367L79.74350790466582,30.52066703531333L79.84666897569383,53.605982394195976L80.15615218877792,58.44047547140454L80.36247433083398,22.79603001816432L80.46563540186202,49.86951734258672L80.56879647289003,50.61546923988648L80.67195754391807,65.97152371803278L80.7751186149461,79.29446730442656L80.87827968597414,85.76446964555775L81.08460182803017,84.84119487645835L81.18776289905821,84.22269186053498L81.70356825419834,85.47692001880922L81.80672932522637,89.94745859571228L82.11621253831046,87.51884852527441L82.21937360933849,86.49195381196878L82.52885682242257,83.86563331062243L82.73517896447862,87.66635789358L83.14782324859074,90.07300172091901L83.3541453906468,-212.75648840771024L83.76678967475891,-22.026137196146664L84.076272887843,24.698311798858764L84.48891717195511,53.71410874674428L84.59207824298313,54.215633846758415L84.7984003850392,66.23013911259132L85.10788359812328,77.26593447274696L85.5205278822354,83.68084378671826L86.03633323737554,77.54991557238124L86.75846073457174,82.15782694113489L86.86162180559975,83.01674713111304L87.06794394765582,85.10391887139865L87.17110501868383,90.02619323071384L87.27426608971187,84.02246279562434L87.3774271607399,86.1379080187855L87.58374930279595,90.9190585279489L87.89323251588003,91.57444981170369L88.30587679999215,-131.0386148170194L88.40903787102017,-39.630264453789046L88.8216821551323,17.676560791829264L89.13116536821637,37.00258455844904L89.54380965232849,59.94972047681916L89.85329286541257,71.34783660857661L89.95645393644061,68.79820319496982L90.05961500746864,82.02134646073699L90.16277607849666,85.87025057261057L90.26593714952469,87.17999814365425L90.47225929158074,92.0039772947632L90.57542036260877,90.76392743829886L90.67858143363681,91.18608025927008L90.88490357569286,94.26436679118554L90.98806464672089,-14.67448568952101L91.09122571774891,25.259102992614757L91.19438678877695,54.71638342742871L91.400708930833,74.12445960848866L91.60703107288904,68.0394154186956L91.71019214391708,77.33371795192076L92.43231964111328,80.8120968854127L92.74180285419736,88.50138894296754L92.8449639252254,94.741668380479L92.94812499625343,99.16725308711797L93.15444713830948,96.13925085684377L93.46393035139356,77.602291621297L93.67025249344962,86.91148931286862L93.87657463550568,58.761019502417305L94.28921891961778,77.19204201428425L94.7018632037299,88.23402048973999L95.01134641681398,86.40973971955832L95.11450748784202,91.57090173471961L95.21766855887005,90.92356314042046L95.32082962989807,91.70420995005367L95.4239907009261,94.89595885457888L95.93979605606624,94.26752797337024L96.55876248223441,99.00734919727618L96.76508462429047,93.23419373423113L96.86824569531849,95.59837234808941L96.97140676634652,97.2071941188482L97.28088997943061,100.41207481249506L97.59037319251469,102.95742995655077L97.69353426354272,99.66829664160683L98.00301747662681,99.93398862011384L98.10617854765484,97.80577732629878L98.20933961868286,93.17580161272642L98.41566176073891,95.2008528640422L98.62198390279497,99.28972318252944L99.24095032896315,103.40866927332476L99.55043354204723,103.22549814469858L99.65359461307524,101.03515614283658L99.96307782615935,98.11971250368565L100.06623889718736,100.77531108926846L100.1693999682154,100.46986747788984L100.37572211027145,103.01856382389649L100.47888318129948,99.64856545738974L101.09784960746765,103.08671655795679L101.51049389157976,106.63846375959913L101.6136549626078,106.60638960769143L101.81997710466385,107.61028015177516L102.0262992467199,100.49681005141092L102.23262138877597,23.04581158794497L102.33578245980398,54.68830779276937L102.43894353083202,76.06718023968835L102.54210460186005,82.59134515201967L102.64526567288807,85.49972582784082L102.95474888597217,90.8242211360203L103.16107102802822,95.24341273740023L103.36739317008427,87.29252537244449L103.67687638316836,94.27612309622788L103.88319852522442,95.62207304786074L103.98635959625244,97.95728352993851L104.08952066728048,99.9321614773482L104.50216495139257,101.94173961407424L104.70848709344864,92.52061090854545L104.81164816447668,96.00698764931973L105.01797030653272,95.09804399921481L105.32745351961681,97.20857386153936L105.74009780372891,94.64153069077182L106.04958101681301,98.77756611055898L106.35906422989709,99.98425342618503L106.46222530092511,101.99245463173857L106.66854744298116,103.07446613845342L106.87486958503723,104.58782094693278L107.08119172709328,103.9999534221726L107.59699708223343,103.74013798981989L107.90648029531751,101.60502776259109L108.00964136634555,94.30016302085396L108.11280243737357,29.976025050803184L108.42228565045765,52.2609228888856L109.24757421868189,75.54381254971379L109.3507352897099,88.30623835204963L109.45389636073794,95.37747226373949L109.66021850279398,99.82124964054236L110.0728627869061,102.6520340697351L110.27918492896217,96.03262412889866L110.38234599999018,98.5699496412996L110.7949902841023,100.86323148750009L111.00131242615836,100.6417031306512L111.10447349718638,104.35041806440469L111.41395671027048,107.28848485271811L111.62027885232654,108.68768703567015L111.82660099438257,106.99356832382806L112.13608420746668,105.64647478202501L112.34240634952272,108.99925848204319L112.44556742055076,110.26349747311176L112.65188956260681,106.1814078291214L112.75505063363484,112.62199640037377L113.06453384671892,114.45019112883588L113.37401705980301,112.09628474256934L113.47717813083104,105.88576495197427L114.19930562802723,108.73197868875268L114.30246669905527,113.07483676315904L114.40562777008329,109.5618204989063L114.50878884111131,109.58488110188195L114.71511098316738,94.52763326365384L114.8182720541954,102.02345020711043L115.02459419625146,103.94658227304508L115.1277552672795,81.98693754960247L115.23091633830751,95.17227227537443L115.5403995513916,105.5941243839498L115.64356062241963,91.66110400998409L115.74672169344765,97.52398937073046L115.8498827644757,104.77924149801011L116.05620490653175,108.11713838393096L116.6751713326999,113.32156447877959L116.77833240372794,113.83274920355963L117.08781561681202,111.93026675626906L117.80994311400822,101.47259119928218L118.1194263270923,101.99875327222964L118.8415538242885,107.65130968786576L118.94471489531654,110.57774976821759L119.04787596634456,29.31209837708057L119.25419810840062,63.31122660913385L119.35735917942864,83.59630271357388L119.46052025045668,96.6305292263233L119.77000346354076,98.63871211718528L119.87316453456879,96.00783464469468L120.07948667662484,101.98368237252531L120.2858088186809,110.50214380797983L120.38896988970892,109.2163596352245L120.80161417382104,108.56369260860386L120.90477524484908,113.63067317049268L121.31741952896118,114.78495280309757L121.42058059998921,112.10475730902417L121.52374167101723,114.87109346675439L121.62690274204527,115.42158200955063L121.93638595512935,112.79668423980888L122.03954702615738,114.30339155600558L122.14270809718542,111.00924632276764L122.4521913102695,117.09041732766391L122.55535238129751,113.43868231941727L123.38064094952175,108.80875565475908L123.79328523363385,109.30511000889793L123.9996073756899,96.811066798591L124.20592951774597,105.12432556808237L124.30909058877401,105.61844705912458L124.61857380185809,114.651085496693L124.7217348728861,117.02445579244302L124.92805701494217,118.02148953601704L125.03121808597021,76.86758716909162L125.13437915699822,93.85482231876576L125.23754022802625,102.18337819337427L125.54702344111034,110.63717119940524L126.37231200933456,116.80295645063785L126.57863415139062,118.85354901146825L126.78495629344668,119.13638637773414L126.99127843550274,120.3603137822631L127.09443950653076,121.58746925327407L127.19760057755879,118.7751565435433L127.40392271961484,116.03359483053354L127.6102448616709,107.78536459350606L127.71340593269892,106.37090836013824L127.81656700372696,114.30682074477443L128.12605021681105,115.07055694774712L128.3323723588671,115.42059885878098L129.0544998560633,114.78812454603383L129.1576609270913,118.94048575192876L129.4671441401754,122.04683029053811L129.6734662822315,119.56969962791617L130.29243270839964,120.40816054325202L130.39559377942766,122.88027854063921L130.6019159214837,123.17665128177158L130.80823806353976,121.38897934427034L131.2208823476519,120.6455309490539L131.633526631764,122.27891721637927L131.83984877382005,123.83153847311291L132.0461709158761,123.7373888973518L132.3556541289602,122.1475072122053L132.45881519998824,126.51935017951978L132.56197627101625,122.86474620316702L132.6651373420443,125.74854418931278L133.28410376821245,123.90112052838286L133.3872648392405,125.51852961581294L134.00623126540864,121.41375499973174L134.2125534074647,125.14145481584582L134.41887554952078,124.94829971587426L134.5220366205488,119.36082154170086L134.62519769157683,115.17138301602856L135.55364733082908,108.98215833261703L135.75996947288513,104.23781991588613L136.06945268596922,102.70006556833282L136.48209697008133,102.29521119172267L136.68841911213738,96.09848415782328L136.79158018316542,92.07792957990173L137.20422446727753,94.69478850708762L137.30738553830557,87.38339174598438L137.51370768036162,69.27330575198273L137.61686875138963,87.6787173439291L137.72002982241767,96.68263326785578L138.02951303550176,95.06778186184066L138.13267410652978,103.77993350510195L139.16428481681007,103.93868897374418L139.37060695886612,106.83976566562286L139.47376802989416,108.65456948126553L139.78325124297822,112.13524018619961L139.88641231400626,107.68162162518696L139.9895733850343,108.07404577123835L140.29905659811837,102.41070615454402L140.4022176691464,100.49865776273454L140.50537874017442,104.98991554913067L142.05279480559486,107.00085250678983L142.36227801867895,110.4488091773115L142.56860016073497,99.28158643237924L142.671761231763,103.63299607360376L142.8780833738191,108.08320470935186L142.9812444448471,113.59049773902613L143.2907276579312,117.21866711044242L143.6002108710153,117.16855280884545L143.7033719420433,118.94265987270785L143.80653301307132,115.48108064367203L143.90969408409936,42.444915800636615L144.1160162261554,73.81552805865427L144.3223383682115,92.17072332584355L144.5286605102675,105.87466077381374L144.7349826523236,112.53847940648318L144.8381437233516,120.29010368407754L145.04446586540766,123.51015165896828L145.25078800746374,125.52555070968464L145.4571101495198,114.6377628785708L145.5602712205478,117.84011260375279L145.66343229157584,122.5781361403648L145.76659336260388,124.83063991890177L145.8697544336319,129.0105895790983L146.9013651439122,130.25435634924818L147.3140094280243,126.55387988484718L147.72665371213643,119.68576106939554L147.82981478316444,123.964986965367L147.93297585419245,124.55131652880462L148.13929799624853,127.80543104073408L148.4487812093326,82.5862602635466L148.7582644224167,100.0592751233114L148.96458656447274,109.47179987608503L149.17090870652882,115.30236793952248L149.27406977755683,123.67577404137L149.48039191961288,130.78175850631038L149.893036203725,133.80297274598308L149.996197274753,133.57834678194072L150.09935834578107,136.8583334785646L150.30568048783712,133.53686895442186L150.40884155886513,127.0718303631657L150.71832477194923,131.89512584858042L150.82148584297724,130.0530476995453L150.92464691400528,133.30011380909997L151.02780798503332,134.73403324545163L151.23413012708937,132.41249610964982L151.74993548222952,131.3706484943928L152.0594186953136,132.10421737631998L152.57522405045373,133.50640813998263L152.78154619250978,118.80379971128386L153.1941904766219,127.56907685287212L153.40051261867794,127.51354138702192L153.81315690279007,122.49267963473187L153.91631797381808,128.5274566609045L154.01947904484615,131.24925921982165L154.12264011587416,132.44876108233456L154.32896225793021,135.23917160034745L154.6384454710143,120.69167474372992L154.74160654204232,125.61198682979379L154.9479286840984,128.88843419636027L155.0510897551264,122.26983736466535L155.15425082615442,128.94441241333018L155.7732172523226,126.53296380413424L155.97953939437866,109.30218957640793L156.0827004654067,116.22513647889386L156.28902260746273,118.64434840691118L156.3921836784908,122.73237114827815L156.70166689157486,124.78777634668484L156.80482796260287,123.55512414726314L157.32063331774302,126.42579277718215L157.42379438877106,130.615590752745L157.5269554597991,133.43297191589562L157.83643867288316,136.52808101066867L158.04276081493924,135.10057176563703L158.14592188596725,131.6129912282652L158.24908295699527,133.97988686600638L158.35224402802334,137.34323516577177L158.45540509905135,131.95415910044068L158.55856617007936,133.0448546396376L159.17753259624752,126.74272397392231L159.69333795138766,131.10354283467535L159.79649902241573,128.6105430331619L159.89966009344374,133.6085980425039L160.4154654485839,134.09903623518187L160.828109732696,134.88871092245435L161.03443187475204,134.54656785582256L161.13759294578006,132.80788159322054L161.5502372298922,131.5590689879023L161.9628815140043,133.84693441903036L162.6850090112005,133.41445159799048L162.89133115325654,137.3373702387597L163.2008143663406,137.302013614509L163.4071365083967,133.65878234521213L163.51029757942473,135.4622991224122L163.81978079250882,137.29818565157822L163.92294186353683,131.9274687092456L164.1292640055929,134.7922979712152L164.23242507662093,137.02251279948686L164.541908289705,138.80591933393038L166.29564649718148,137.38968344806867L166.39880756820952,136.80706099461503L166.50196863923753,134.66362712428216L166.60512971026554,139.40754946565843L167.01777399437768,139.3127597121562L167.32725720746177,138.53415791818205L167.43041827848978,136.96611572538373L167.73990149157387,138.5722316703032L167.84306256260192,138.94048416814292L167.94622363362993,140.7614355966586L168.35886791774206,141.61248038464487L168.46202898877007,143.0880663379709L168.56519005979808,143.57748549389962L168.77151220185416,138.99788707133945L168.97783434391022,141.36858559597732L169.18415648596627,141.65491942228735L169.39047862802232,140.05003725919082L170.00944505419048,139.54229366458813L170.21576719624656,133.00523661344528L170.7315725513867,137.0178955208428L170.83473362241472,123.6911176490128L171.76318326166697,133.02597151825353L171.866344332695,124.36603850485315L173.00111611400334,129.7506883676522L173.41376039811541,134.06782813747148L173.51692146914348,136.13927036667894L173.82640468222755,138.93089023560375L173.92956575325556,142.21584649894248L174.23904896633965,134.8066134727841L174.44537110839573,137.889888791206L174.54853217942374,131.10944516535417L174.65169325045176,137.58585495638323L175.37382074764795,137.5070578713242L175.476981818676,142.41593324087168L175.58014288970404,139.40612071711473L175.68330396073205,143.03005683776286L175.99278717381614,141.8867349206548L176.1991093158722,146.1284436336028L176.3022703869002,144.71702041499853L176.40543145792827,145.77377906959018L176.50859252895629,142.12366466436922L177.02439788409643,142.28082358959824L177.23072002615245,142.05995253401167L177.7465253812926,140.01941467266485L177.84968645232067,144.4177750731107L178.15916966540473,141.3222437583072L178.88129716260093,140.76714001828378L179.08761930465698,138.25054536451552L180.11923001493727,142.82513346105534L180.32555215699333,146.08327342572747L180.42871322802137,143.4208036460831L180.6350353700774,134.13054003171524L180.73819644110543,136.99370215845613L180.94451858316148,141.31937180783032L181.04767965418952,144.4862772783659L181.66664608035768,142.97490724898702L181.76980715138572,138.87355686353777L182.3887735775539,140.54619147623387L182.49193464858192,142.99578149043805L183.42038428783417,140.86581983514012L183.8330285719463,128.75098921319832L184.03935071400232,127.99929924490453L184.45199499811446,135.8298673918611L185.07096142428261,136.94238766051149L185.3804446373667,140.4635415258641L185.58676677942276,142.78403177248651L185.89624999250685,145.33808056427011L186.10257213456288,145.25186442273667L186.20573320559095,147.09357628687232L186.61837748970302,149.60233371373747L186.7215385607311,150.77840795377315L186.92786070278711,150.11455082417174L187.03102177381516,140.46467344159228L187.2373439158712,143.0304190770286L187.54682712895527,139.04723953608098L187.64998819998334,141.14616913461256L187.75314927101135,144.03360533186031L188.16579355512349,143.55158890077504L188.3721156971795,146.7031584727646L188.47527676820755,142.9855326992601L188.57843783923556,146.02743094535586L188.78475998129164,146.27373488110186L188.99108212334767,149.90253122453373L189.19740426540375,148.8962406122408L189.5068874784878,143.31316270005354L189.8163706915719,143.43543133798087L189.91953176259995,145.71891892552878L190.02269283362796,149.52909323132445L190.33217604671205,146.40389242269586L190.53849818876813,147.35160362892964L190.64165925979614,148.24439715533484L190.9511424728802,131.2802744481527L191.05430354390828,129.65124004501288L191.36378675699234,137.34041641232392L191.77643104110444,137.47354239383756L191.87959211213249,139.72196104984255L191.9827531831605,143.09120577777944L192.7048806803567,142.62528519739013L192.91120282241275,146.99363364943173L193.01436389344082,144.8838042841839L193.11752496446883,146.9801935163841L193.4270081775529,143.00214871858097L193.53016924858093,142.3530846020572L193.73649139063698,142.88399346789225L194.14913567474912,144.56439733835944L194.25229674577713,146.66831225617545L194.35545781680514,137.95373946483838L194.66494102988923,136.86744102594264L195.07758531400137,142.10559988485096L195.18074638502938,148.50834215231993L195.38706852708543,142.99421157575532L195.49022959811347,148.77681620764466L195.5933906691415,151.28225123368057L195.69655174016953,146.39980627220362L195.9028738822256,146.36192515890613L196.21235709530967,150.16387953860414L196.31551816633768,152.9673972504469L196.41867923736572,151.6356914319887L196.52184030839376,151.98447664282875L196.93448459250587,147.68004696953273L197.0376456635339,149.93751322820506L197.55345101867402,147.65551228785222L197.75977316073008,150.0346907887459L197.86293423175815,148.44189199995316L197.96609530278616,-98.84954369548484L198.37873958689826,-0.8842884630097809L198.68822279998233,61.07000954233219L198.8945449420384,94.85481028044461L199.20402815512247,115.82407363349668L199.30718922615048,117.43599466590507L199.41035029717855,130.66325893432327L199.51351136820657,140.82585298998254L199.6166724392346,144.96383492844973L199.82299458129066,148.09407547182505L200.0293167233467,143.88796332877234L200.3387999364308,142.64170699563067L200.44196100745884,148.42903514050326L200.64828314951487,148.26146484639685L200.7514442205429,145.21368028275907L200.85460529157095,150.42761688936116L201.164088504655,148.4956548151773L201.3704106467111,148.09251897663094L201.4735717177391,148.67295603520114L201.57673278876712,146.00513688166137L201.67989385979516,146.55714233774137L202.40202135699136,142.04547307843893L202.5051824280194,136.30035147417343L202.8146656411035,137.22836818576536L203.33047099624363,142.85135547465373L203.74311528035574,146.18699161523475L204.3620817065239,95.21139618406316L204.46524277755194,115.39596894077745L204.67156491960796,128.11172386117076L205.0842092037201,128.25485269081824L205.18737027474813,136.3074850231365L205.29053134577615,140.10255180191686L205.4968534878322,145.10092526693703L205.6000145588602,149.6023700971602L205.70317562988828,149.58091109437802L206.11581991400035,151.15187563510565L206.5284641981125,146.45312575549661L206.73478634016854,148.95900310322358L206.83794741119658,146.40163919406754L207.66323597942082,147.12989054052997L207.76639705044883,147.5617261397926L208.0758802635329,150.14717008660122L208.385363476617,150.0956880545739L208.79800776072912,137.7743352520165L209.00432990278514,145.02351556922903L209.41697418689728,149.5056629003549L209.93277954203742,149.2250934124086L210.03594061306543,146.07331265724392L210.44858489717754,149.5089408222473L210.5517459682056,152.9726228968847L210.86122918128967,150.58025857337248L210.96439025231768,132.94868133784698L211.06755132334575,116.72205267564942L211.37703453642982,126.3833706923984L211.6865177495139,133.7870750226761L211.78967882054192,139.51763459127045L211.99600096259798,132.8747254800437L212.20232310465406,139.60845529778652L212.30548417568207,142.13727204528033L212.40864524671008,145.03461653608412L213.1307727439063,150.21736549307812L213.33709488596233,148.70112727820242L213.44025595699037,149.93640424309206L214.05922238315856,148.13543898445323L214.16238345418657,151.52913195636404L214.2655445252146,148.1234613738449L214.36870559624262,139.18794739436723L214.47186666727066,144.93146000680966L214.6781888093267,148.83344887803855L214.9876720224108,149.82756091914138L215.709799519607,147.78689633926956L215.81296059063502,152.83587256931145L215.91612166166308,153.21558024485728L216.8445713009153,122.51961900111964L217.1540545139994,133.23543722528925L217.2572155850274,141.7935166123342L217.66985986913954,146.25162129652654L217.77302094016756,147.07869770353346L217.8761820111956,147.28249443165788L217.97934308222364,144.46637778050493L218.2888262953077,146.73878890371577L218.39198736633574,150.31503410633698L218.49514843736378,153.3825452134744L218.5983095083918,154.32169782905333L219.0109537925039,156.12103397926197L219.11411486353194,156.091551556737L219.21727593455995,156.40435717392447L219.52675914764404,155.79137891055493L219.7330812897001,150.48166421063533L219.93940343175618,155.12797476101997L220.1457255738122,155.8804679361301L220.24888664484024,155.59226056424075L220.35204771586828,153.87069188783613L220.55836985792433,156.1581997076568L220.66153092895235,153.92157268006963L221.1773362840925,153.7365497672346L221.48681949717658,155.1450074661274L221.69314163923264,156.58840031767005L222.00262485231673,157.6407891013162L222.31210806540082,146.5020594853275L222.41526913642883,151.93547848430057L222.62159127848489,149.44808827041354L222.82791342054097,150.31088111628674L223.44687984670912,143.83757660942365L223.55004091773714,139.18056966742324L223.75636305979322,136.55185055969898L223.96268520184927,135.47126089201888L224.89113484110152,134.68858832987326L224.99429591212953,135.49703196525277L225.09745698315754,134.55419147897197L225.2006180541856,128.98637303548438L226.43855090652193,128.74501486279328L226.644873048578,132.1032017035669L226.85119519063406,132.89225363934165L227.05751733269008,136.6104151662777L227.47016161680222,136.92318519827722L227.57332268783023,133.98997615712187L227.6764837588583,127.1457454426183L227.7796448298863,132.44364953773376L227.88280590091432,132.5763404037394L227.98596697194236,128.17342890241426L228.08912804297037,132.58175432746697L228.29545018502645,127.69552529540219L228.39861125605447,125.15231469169834L228.50177232708248,129.56465352117226L228.70809446913856,130.0632620198449L229.2238998242787,131.55245537863505L229.53338303736277,134.1088468233116L229.73970517941885,136.35255897455266L229.84286625044686,134.1980579469601L230.0491883925029,134.50322804402688L230.358671605587,134.52180361622297L230.6681548186711,136.41907822032772L230.87447696072715,138.38399452806868L231.18396017381124,139.5433911520878L231.4934433868953,139.76034569876134L231.59660445792335,134.8812022649071L231.9060876710074,137.89883560617602L232.1124098130635,139.10070578577324L232.2155708840915,137.9825922865135L233.04085945231574,138.1354848472701L233.14402052334378,138.31389051045323L233.3503426653998,137.4774790630503L233.86614802053995,136.9518036357379L234.3819533756801,140.0091701359198L234.48511444670814,131.56641487953834L234.58827551773618,135.16774894982362L234.7945976597922,130.14186791269225L234.89775873082024,133.18443439403842L235.1040808728763,127.82280927636114L235.31040301493235,132.35229595252608L235.61988622801644,134.49153675516544L235.72304729904448,137.07461567877147L236.13569158315659,136.4811227598592L236.65149693829673,138.72242475475045L236.85781908035278,136.14423964196666L237.47678550652097,140.09549920059115L237.57994657754898,139.21620577128712L237.683107648577,140.56823559899468L237.78626871960503,137.2347772483268L237.88942979063307,140.93614090539558L238.19891300371714,141.84034003049965L238.40523514577322,125.74444315082073L238.71471835885728,132.25503605371281L238.8178794298853,134.7718364681512L239.1273626429694,128.8353605842528L239.33368478502547,129.33294872189055L239.54000692708152,136.51465525716367L239.64316799810953,157.13657994405284L239.74632906913757,151.8548000539772L240.15897335324968,144.81861744125806L240.5716176373618,145.60354342864866L240.67477870838982,139.2812814243368L240.77793977941784,139.79437000185257L241.19058406352997,131.3636060377743L241.293745134558,132.8831023475996L241.50006727661406,135.4510758410028L241.60322834764207,135.3774475040212L241.80955048969815,136.71469917928994L241.91271156072617,130.76749424399108L242.0158726317542,133.2547045406628L242.22219477381023,136.0660504578495L242.3253558448383,138.75726272726783L242.4285169158663,140.0715754987274L242.53167798689432,141.46243444060048L242.84116119997842,138.6569741417613L243.04748334203447,138.70794879034307L243.15064441306248,134.50084197156693L243.7696108392307,135.6374385253749L243.8727719102587,138.02132731071492L243.97593298128672,140.8315453655659L244.38857726539885,139.99150964085928L244.5948994074549,136.9438043917189L244.80122154951096,139.09494927149692L245.2138658336231,136.93603451837564L245.93599333081926,137.57590566071286L246.24547654390335,135.67853861616658L246.4517986859594,135.97889169415393L246.65812082801548,136.913745262961L246.7612818990435,138.91405844600436L246.96760404109955,133.4607257001603L247.17392618315563,131.4203291670021L247.38024832521165,138.86967819311573L247.4834093962397,140.16771405773096L247.5865704672677,139.33402332047444L247.8960536803518,142.5515645550012L247.9992147513798,131.25461789616335L248.30869796446393,133.4314242182827L248.41185903549194,134.8648453192112L248.72134224857604,139.40990953516769L249.0308254616601,136.2837921400976L249.4434697457722,137.46814468481338L250.06243617194042,139.19002362356744L250.16559724296843,137.11932213891453L250.4750804560525,140.0683184563898L250.57824152708054,135.7938894366001L250.7845636691366,141.76706659351586L250.99088581119264,143.9474801014063L251.09404688222068,141.05075527089767L251.30036902427673,142.17475169751773L251.40353009530475,142.35096386272454L251.60985223736083,138.11474430703092L251.71301330838884,140.8950350956195L251.81617437941688,141.74100976813705L251.9193354504449,141.61124636458678L252.12565759250097,142.0692721675905L252.33197973455702,142.17347890036888L252.43514080558504,137.48908934547836L252.84778508969714,139.05245947126795L252.95094616072518,134.95504643409552L253.15726830278123,135.06484051721947L253.4667515158653,136.00093016865804L253.67307365792138,134.4885746980688L253.98255687100547,137.2403594059157L254.60152329717366,138.36213762445138L255.2204897233418,141.0264458394881L255.63313400745392,144.89608159829612L255.942617220538,136.79652045030934L256.4584225756782,139.46757541902934L256.6647447177342,141.2917741279738L256.9742279308183,141.18078374098098L257.59319435698643,139.79035994657576L257.6963554280145,142.87905501378506L257.9026775700706,143.30042082274494L258.2121607831546,144.3293099189598L258.5216439962387,138.7620507757764L258.6248050672667,132.11882290143322L258.72796613829473,137.15267010256989L259.656415777547,139.44007845858349L259.759576848575,137.25228737867533L259.8627379196031,143.59086203721515L259.9658989906311,145.05257310723434L260.1722211326871,145.35484710498577L260.3785432747432,143.57463503651402L260.6880264878273,149.60467835153764L260.7911875588553,145.48023805523593L261.2038318429674,143.90088807784372L261.4101539850235,140.8831624962151L261.5133150560515,140.49360505366033L261.6164761270795,141.64548983450015L261.7196371981076,139.63109100947992L262.5449257663318,120.52029041214176L263.4733754055841,131.2446029768127L263.6796975476401,134.82317359020553L263.9891807607242,134.991366444281L264.50498611586437,138.77531718873047L264.81446932894846,136.62549420634835L264.9176303999765,138.7379945756161L265.22711361306057,139.63749667956526L265.3302746840886,142.31149540840468L265.6397578971726,143.27985281033355L265.94924111025676,145.09359011299858L266.1555632523128,143.40558058843374L266.36188539436887,143.32469293009189L266.67136860745296,143.9161721831178L266.980851820537,146.27443161307616L267.084012891565,145.93199500187035L267.1871739625931,145.5635165111815L267.39349610464916,144.9638870134051L268.21878467287337,143.42150362155064L268.4251068149294,144.94524056097595L268.6314289569855,145.0208345168576L268.83775109904155,145.4530635339815L269.35355645418167,145.139031018079L269.8693618093218,143.9367228703078L270.28200609343395,141.49692478971983L270.69465037754605,137.2909548064998L270.79781144857407,143.20904485657184L270.9009725196021,142.23697713861552L271.3136168037142,141.113390639936L271.41677787474225,135.79560485576525L271.51993894577026,141.86949234347762L271.6231000167983,141.55875062488224L271.93258322988237,143.1903932487086L272.4483885850225,143.7359688088276L272.7578717981066,144.39082322317617L272.96419394016266,141.14935046068666L273.37683822427476,137.35895382573545L273.4799992953028,140.40253083198849L273.58316036633084,141.1490965641554L273.68632143735886,142.2195136289213L273.8926435794149,143.03609662440317L274.09896572147096,145.35715537887123L274.40844893455505,144.5329457438038L274.71793214763915,143.16420281681073L274.82109321866716,143.44114908725936L275.02741536072324,146.32928646725753L275.23373750277926,150.79086547887522L275.9558649999755,150.94401306654294L276.26534821305955,149.27103588596663L276.36850928408757,149.17787547212205L276.57483142614365,146.53150355092615L276.78115356819967,139.78525972254795L276.98747571025575,142.7700091141385L277.09063678128376,132.80291976940723L277.29695892333984,136.3181220748246L277.60644213642394,138.72161819995176L277.81276427847996,128.14366274776452L278.12224749156405,134.65286778998785L278.32856963362013,138.28352681940544L278.43173070464815,142.55004709906407" fill="none"></path></g></g></g></g><g opacity="0.2"><g><g><g><path style="fill: none;" stroke="rgb(255, 112, 67)" stroke-width="2px" d="M21.148019560745784,130.02016247048914L21.25118063177381,-74.13659318285681L22.076469199998037,-452.6477793524191L22.179630271026067,111.96941411327543L22.489113484110153,-85.14421673637116L22.59227455513818,4.102728143477634L22.69543562616621,-22.698801850283417L24.34601276261466,-43.13215160657819L24.75865704672677,93.28978351616115L24.964979188782827,66.2984478959379L25.171301330838887,104.13201108299631L25.274462401866913,93.28388787770791L25.48078454392297,88.50719070529522L25.687106685979025,-42.67776329902745L26.09975097009114,85.81220529752272L26.20291204111917,75.64625835887227L26.306073112147192,85.57260485419647L26.409234183175222,34.55764531831619L26.512395254203252,39.943459496678315L27.13136168037142,-179.58076555368507L27.337683822427476,48.50757419198317L27.440844893455505,71.53975531019796L27.544005964483535,96.18763826725626L27.64716703551156,91.271927029876L27.956650248595643,62.0699602703462L28.059811319623673,54.29284968655111L28.162972390651703,-24.975196927875913L28.26613346167973,48.786705103211716L28.781938816819874,86.69481206423825L29.297744171960012,89.69049624045851L29.607227385044098,-47.73583935992065L29.710388456072124,103.19903690143747L30.329354882240295,72.60499962496851L31.154643450464523,96.81478150588646L31.464126663548605,98.61933464122671L31.567287734576635,105.34161371054097L32.28941523177283,81.13047456033883L32.598898444856914,73.17624033495576L32.805220586912974,72.19319564120951L33.52734808410917,66.87244555915868L33.6305091551372,81.40273429581612L33.93999236822128,80.65254611364026L34.04315343924931,75.54755943311193L34.76528093644551,59.99770697603026L34.971603078501566,75.65588648785706L35.177925220557626,83.89094821107392L35.281086291585645,63.37001217128318L35.38424736261368,55.04825487253811L36.106374859809875,83.81926742700216L36.62218021495001,86.62711825868882L36.82850235700607,92.07958708330466L36.931663428034106,88.62747869560735L37.03482449906213,93.51841976855098L37.34430771214621,85.59779916528441L37.653790925230304,71.44695202289086L37.86011306728635,94.18502985308578L37.96327413831438,61.61947411198753L38.27275735139847,57.089460631978L38.89172377756664,83.64553695862469L38.994884848594666,53.668251327828784L39.20120699065072,91.54709216991478L39.51069020373481,87.5267757207871L39.71701234579086,96.09267183202746L39.82017341681889,101.9869106013175L40.02649555887495,94.56135396946252L40.23281770093101,97.37446421962545L40.335978771959034,103.85968772552133L41.05810626915523,96.89496643031703L41.883394837379456,102.42000674697238L41.98655590840748,102.10562924901978L42.089716979435515,99.03476507885443L42.50236126354762,109.32148777646603L43.53397197382791,92.78716973435621L43.637133044855936,102.71977239278726L43.84345518691199,119.01538069953858L44.04977732896805,109.67934030617812L44.25609947102411,108.93935285096632L44.565582684108186,100.56341081751611L44.66874375513621,108.12138603391077L44.771904826164246,114.63121004558275L45.08138803924833,83.80896066337527L46.112998749528614,112.56599758567859L46.319320891584674,99.64699956269101L46.93828731775284,106.3352196559049L47.24777053083692,101.83894704200725L47.35093160186495,103.46467994915429L47.454092672892976,99.82270231299708L47.55725374392101,81.60598537112492L47.76357588597707,90.25539595800865L48.176220170089174,81.87625161734104L48.38254231214523,85.13959353787186L48.588864454201286,78.18235843106322L48.795186596257345,102.4056281754929L49.31099195139748,98.33818903340443L49.929958377565654,108.55384595958867L50.65208587476185,119.09172709677478L50.75524694578988,102.2095239712587L51.27105230093002,112.56750330629075L51.37421337195805,106.44842439714012L51.683696585042135,110.6391841780976L51.78685765607017,116.09981782575119L51.89001872709819,116.97025158357405L52.302663011210306,112.83265858535856L52.40582408223834,117.0154868239365L52.612146224294385,113.25939253124375L52.92162943737848,87.60511560728446L53.33427372149058,124.96055948165122L53.437434792518616,87.15479910758631L53.54059586354664,117.59521046695L53.643756934574675,97.54622240607432L53.85007907663073,119.86532817410307L54.15956228971481,115.93134677584999L54.26272336074284,120.07918291569467L54.36588443177087,117.17490234283218L54.67536764485495,115.78342563120486L54.984850857939044,24.570476193193826L55.60381728410721,73.86140683548547L55.81013942616327,114.05135915857386L56.119622639247346,118.89698016182479L56.22278371027538,93.00488421047476L56.42910585233144,114.71845701175766L56.53226692335946,124.26900957401926L57.0480722784996,93.42052672142813L57.15123334952764,101.58986692102417L57.56387763363975,120.87123437235505L57.7701997756958,112.9562761268835L58.079682988779886,78.85603055734236L58.492327272892005,107.29928378700492L58.90497155700411,106.12431273353991L59.11129369906017,114.54082439418812L59.52393798317228,121.02199729956396L59.62709905420031,103.79110321200415L59.73026012522834,116.55399405997628L59.93658226728439,113.29724761987336L60.45238762242454,113.23489806213047L60.55554869345256,117.56687747064234L60.96819297756468,114.91123166477905L61.07135404859271,120.42817078039434L61.174515119620736,105.13986835584433L62.20612582990101,111.85866942261782L62.72193118504115,119.261173683974L63.444058682237355,105.21886566965122L63.54721975326538,124.14585859381077L64.06302510840553,115.4965328362573L64.16618617943355,116.84754595734944L64.3725083214896,112.95712442018612L64.57883046354566,127.4812842377321L64.99147474765778,109.37940500170271L65.91992438691003,125.64303265094509L66.12624652896609,120.99523364586616L66.22940759999412,126.53849106119537L66.5388908130782,128.4263041841882L67.15785723924637,117.01521112861315L67.98314580747059,123.89397910492903L68.08630687849862,122.14850959811656L68.18946794952664,127.37070920573501L68.39579009158271,125.92511138140026L68.49895116261074,130.4461117450694L68.80843437569482,134.1868307216521L68.91159544672284,122.83164019471997L69.42740080186299,120.85963396144166L69.53056187289101,-417.60529199698794L70.66533365419933,93.23646828209121L70.97481686728341,49.815303147308896L71.07797793831145,87.45030207955551L71.28430008036749,97.45549743735864L71.49062222242355,83.28649681828892L71.80010543550765,-813.8720204544506L72.93487721681595,70.90489260251388L73.34752150092807,-7535.688006454802L73.4506825719561,49.09561110936238L73.65700471401215,87.12727198991615L73.96648792709622,59.702076760065665L74.17281006915229,77.20296139851826L74.68861542429242,56.11905550844085L74.79177649532046,47.45980471924668L75.41074292148862,36.24316169596568L75.61706506354469,80.8797614747482L75.7202261345727,56.64067106022458L75.82338720560074,89.57379228934997L75.92654827662876,93.03067232687454L76.0297093476568,91.7438538014585L76.13287041868482,83.94328790784584L76.33919256074088,-233.35836188822213L76.54551470279694,81.271460907235L77.06132005793708,39.5613881931763L77.16448112896511,85.09183462493411L77.26764219999313,90.65579039684735L77.4739643420492,81.11389042627252L77.8866086261613,80.2118577429269L78.09293076821736,87.85001788375212L78.29925291027341,-34.681368896503955L78.71189719438553,-597.5233813824616L78.81505826541355,77.26942517877887L78.91821933644158,84.20515605036599L79.3308636205537,95.67374218452642L79.74350790466582,42.72149281877773L79.84666897569383,88.2339554325199L80.15615218877792,65.69221508721739L80.36247433083398,-30.670638161695933L80.46563540186202,90.47974832922023L80.56879647289003,51.73439708583601L80.67195754391807,89.00560543525216L80.7751186149461,99.27888268401716L80.87827968597414,95.46947315725447L81.08460182803017,83.45628272280919L81.18776289905821,83.29493733665004L81.70356825419834,87.35826225622077L81.80672932522637,96.65326646106678L82.11621253831046,83.87593341961747L82.21937360933849,84.9516117420103L82.52885682242257,79.92615255860301L82.73517896447862,93.36744476801641L83.14782324859074,93.68296746192755L83.3541453906468,-667.000723600654L83.56046753270286,90.09625613443632L83.76678967475891,82.35774289591063L84.076272887843,94.78498529136687L84.48891717195511,97.23780416857267L84.59207824298313,54.96792149677958L84.7984003850392,84.25189701134059L85.10788359812328,93.81962751298033L85.5205278822354,93.30320775767518L86.03633323737554,68.3535232508757L86.75846073457174,89.06969399426544L86.86162180559975,84.30512741608027L87.06794394765582,88.23467648182714L87.17110501868383,97.40960476968667L87.27426608971187,75.01686714299012L87.3774271607399,89.3110758535272L87.58374930279595,98.09078429169404L87.89323251588003,92.5575367373358L88.30587679999215,-464.95821176010395L88.40903787102017,97.48226109105644L88.8216821551323,103.63679866025677L89.13116536821637,65.99162020837866L89.54380965232849,94.37042435437434L89.85329286541257,88.44501080621285L89.95645393644061,64.97375307455968L90.05961500746864,101.8560613593877L90.16277607849666,91.64360674042086L90.26593714952469,89.14461950021973L90.47225929158074,99.2399460214267L90.57542036260877,88.90385265360237L90.67858143363681,91.81930949072694L90.88490357569286,98.8817965890587L90.98806464672089,-178.0827644105807L91.09122571774891,85.1594860158184L91.19438678877695,98.90230407964964L91.400708930833,103.2365738800786L91.60703107288904,58.911849134005934L91.71019214391708,91.27517175175853L92.43231964111328,86.02966528565048L92.74180285419736,100.03532702929988L92.8449639252254,104.10208753674624L92.94812499625343,105.8056301470765L93.15444713830948,91.59724751143244L93.46393035139356,49.796852767976816L93.67025249344962,100.87528585022596L93.87657463550568,16.5353147867404L94.28921891961778,104.83857578208472L94.7018632037299,104.79698820292356L95.01134641681398,83.67331856428564L95.11450748784202,99.31264475746161L95.21766855887005,89.95255524897175L95.32082962989807,92.87518016450349L95.4239907009261,99.68358221136668L95.93979605606624,93.32488165155723L96.55876248223441,106.11708103313504L96.76508462429047,84.5744605396635L96.86824569531849,99.14464026887686L96.97140676634652,99.6204267749863L97.28088997943061,105.21939585296536L97.59037319251469,106.77546267263438L97.69353426354272,94.73459666919098L98.00301747662681,100.33252658787433L98.10617854765484,94.61346038557622L98.20933961868286,86.23083804236785L98.41566176073891,98.2384297410158L98.62198390279497,105.42302866026034L99.24095032896315,109.58708840951772L99.55043354204723,102.95074145175931L99.65359461307524,97.74964314004364L99.96307782615935,93.74654704495924L100.06623889718736,104.75870896764263L100.1693999682154,100.01170206082179L100.37572211027145,106.84160834290651L100.47888318129948,94.59356790762968L101.09784960746765,108.24394320880742L101.51049389157976,111.96608456206263L101.6136549626078,106.55827837982997L101.81997710466385,109.11611596790067L102.0262992467199,89.8266049008646L102.23262138877597,-93.13068610725395L102.33578245980398,102.1520521000059L102.43894353083202,108.1354889100669L102.54210460186005,92.3775925205166L102.64526567288807,89.86229684157252L102.95474888597217,98.81096409828956L103.16107102802822,101.87220013947012L103.36739317008427,75.36619432501084L103.67687638316836,104.75151968190289L103.88319852522442,97.64099797531003L103.98635959625244,101.4600992530552L104.08952066728048,102.89447839846275L104.50216495139257,104.95610681916332L104.70848709344864,78.38891785025226L104.81164816447668,101.23655276048112L105.01797030653272,93.73462852405737L105.32745351961681,100.37436865502627L105.74009780372891,90.79096593462054L106.04958101681301,104.98161924023975L106.35906422989709,101.79428439962408L106.46222530092511,105.00475644006883L106.66854744298116,104.69748339852572L106.87486958503723,106.85785315965177L107.08119172709328,103.11815213503223L107.59699708223343,103.35041484129079L107.90648029531751,98.40236242174797L108.00964136634555,83.34286590824831L108.11280243737357,-66.51018190427294L108.42228565045765,85.6882696460093L109.24757421868189,110.46814704095596L109.3507352897099,107.44987705555332L109.45389636073794,105.98432313127432L109.66021850279398,106.4869157057467L110.0728627869061,106.89821071352412L110.27918492896217,86.10350921764393L110.38234599999018,102.37593790990104L110.7949902841023,104.30315425680078L111.00131242615836,100.30941059537781L111.10447349718638,109.91349046503501L111.41395671027048,111.69558503518829L111.62027885232654,110.78649031009832L111.82660099438257,104.45239025606497L112.13608420746668,103.62583446932035L112.34240634952272,114.02843403207044L112.44556742055076,112.1598559597146L112.65188956260681,100.05827336313587L112.75505063363484,122.28287925725226L113.06453384671892,117.19248322152907L113.37401705980301,108.5654251631695L113.47717813083104,96.56998526608163L114.19930562802723,113.00129929392028L114.30246669905527,119.58912387476857L114.40562777008329,104.29229610252719L114.50878884111131,109.6194720063454L114.71511098316738,71.94176150631165L114.8182720541954,113.26717562229533L115.02459419625146,106.83128037194706L115.1277552672795,49.04747046443845L115.23091633830751,114.95027436403234L115.5403995513916,121.22690254681288L115.64356062241963,70.7615734490355L115.74672169344765,106.3183174118501L115.8498827644757,115.66211968892958L116.05620490653175,113.12398371281233L116.6751713326999,121.12820362105253L116.77833240372794,114.59952629072973L117.08781561681202,109.07654308533324L117.80994311400822,85.78607786380189L118.1194263270923,102.78799638165083L118.8415538242885,116.13014431132001L118.94471489531654,114.96740988874535L119.04787596634456,-92.58637870962502L119.25419810840062,114.30991895721377L119.35735917942864,114.02391687023396L119.46052025045668,116.18186899544753L119.77000346354076,101.65098645347825L119.87316453456879,92.06151843595876L120.07948667662484,110.94745396427129L120.2858088186809,123.27983596116155L120.38896988970892,107.28768337609154L120.80161417382104,107.5846920686729L120.90477524484908,121.231144013326L121.31741952896118,116.51637225200489L121.42058059998921,108.08446406791404L121.52374167101723,119.02059770334972L121.62690274204527,116.247314823745L121.93638595512935,108.85933758519627L122.03954702615738,116.56345253030054L122.14270809718542,106.06802847291078L122.4521913102695,126.21217383500834L122.55535238129751,107.96107980704733L123.38064094952175,101.86386565777184L123.79328523363385,110.04964154010622L123.9996073756899,78.07000198313062L124.20592951774597,117.59421372231941L124.30909058877401,106.35962929568791L124.61857380185809,128.20004315304573L124.7217348728861,120.58451123606801L124.92805701494217,119.51704015137807L125.03121808597021,15.136733618703602L125.13437915699822,119.33567504327698L125.23754022802625,114.67621200528697L125.54702344111034,123.31786070845169L126.37231200933456,126.05163432748668L126.57863415139062,121.92943785271382L126.78495629344668,119.56064242713296L126.99127843550274,122.19620488905662L127.09443950653076,123.42820245979055L127.19760057755879,114.5566874789472L127.40392271961484,111.92125226101894L127.6102448616709,95.41301923796482L127.71340593269892,104.24922401008644L127.81656700372696,126.21068932172875L128.12605021681105,116.21616125220612L128.3323723588671,115.94566172533177L129.0544998560633,113.83941307691316L129.1576609270913,125.16902756077116L129.4671441401754,126.70634709845217L129.6734662822315,115.85400363398321L130.29243270839964,121.66585191625586L130.39559377942766,126.58845553671995L130.6019159214837,123.62121039347016L130.80823806353976,118.7074714380185L131.2208823476519,119.53035835622927L131.633526631764,124.72899661736733L131.83984877382005,126.16047035821339L132.0461709158761,123.59616453371018L132.3556541289602,119.76268468448552L132.45881519998824,133.07711463049145L132.56197627101625,117.38284023863798L132.6651373420443,130.07424116853144L133.28410376821245,121.12998503698805L133.3872648392405,127.9446432469581L134.00623126540864,115.25659307561L134.2125534074647,130.73300454001696L134.41887554952078,124.65856706591694L134.5220366205488,110.97960428044075L134.62519769157683,108.88722522752005L135.55364733082908,99.69832130749978L135.75996947288513,97.12131229078977L136.06945268596922,100.39343404700276L136.48209697008133,101.68792962680754L136.68841911213738,86.80339360697417L136.79158018316542,86.04709771301941L137.20422446727753,98.62007689786651L137.30738553830557,76.41629660432955L137.51370768036162,42.108176760980314L137.61686875138963,115.28683473184856L137.72002982241767,110.18850715374583L138.02951303550176,92.64550475281794L138.13267410652978,116.84816096999384L139.16428481681007,104.17682217670745L139.37060695886612,111.19138070344093L139.47376802989416,111.37677520472948L139.78325124297822,117.35624624360071L139.88641231400626,101.00119378366799L139.9895733850343,108.66268199031538L140.29905659811837,93.91569672950254L140.4022176691464,97.63058517502031L140.50537874017442,111.72680222872486L142.05279480559486,110.01725794327854L142.36227801867895,115.62074418309408L142.56860016073497,82.53075231498087L142.671761231763,110.16011053544048L142.8780833738191,114.7585176629741L142.9812444448471,121.8514372835375L143.2907276579312,122.66092116756681L143.6002108710153,117.09338135644998L143.7033719420433,121.60382046850145L143.80653301307132,110.28871180011834L143.90969408409936,-67.10933146391653L144.1160162261554,120.8714464456807L144.3223383682115,119.70351622662747L144.5286605102675,126.43056694576899L144.7349826523236,122.5342073554873L144.8381437233516,131.91754010046907L145.04446586540766,128.3402236213044L145.25078800746374,128.5486492857592L145.4571101495198,98.3060811319001L145.5602712205478,122.64363719152584L145.66343229157584,129.68517144528278L145.76659336260388,128.20939558670716L145.8697544336319,135.28051406939312L146.9013651439122,132.12000650447294L147.3140094280243,121.0031651882457L147.72665371213643,109.38358284621813L147.82981478316444,130.3838258093242L147.93297585419245,125.43081087396104L148.13929799624853,132.68660280862832L148.4487812093326,14.757504097765377L148.7582644224167,126.26879741295852L148.96458656447274,123.59058700524542L149.17090870652882,124.0482200346787L149.27406977755683,136.23588319414125L149.48039191961288,141.44073520372103L149.893036203725,138.33479410549216L149.996197274753,133.24140783587723L150.09935834578107,141.7783135235004L150.30568048783712,128.55467216820784L150.40884155886513,117.37427247628148L150.71832477194923,139.1300690767025L150.82148584297724,127.2899304759926L150.92464691400528,138.17071297343205L151.02780798503332,136.88491239997916L151.23413012708937,128.9301904059471L151.74993548222952,129.8078770715074L152.0594186953136,133.20457069921076L152.57522405045373,135.6096942854765L152.78154619250978,96.7498870682357L153.1941904766219,140.7169925652545L153.40051261867794,127.43023818824668L153.81315690279007,114.96138700629672L153.91631797381808,137.57962220016339L154.01947904484615,135.3319630581973L154.12264011587416,134.24801387610387L154.32896225793021,139.42478737736678L154.6384454710143,98.87042945880353L154.74160654204232,132.99245495888954L154.9479286840984,133.80310524620995L155.0510897551264,112.34194211712293L155.15425082615442,138.95627498632734L155.7732172523226,122.9157908903403L155.97953939437866,83.4560282348184L156.0827004654067,126.60955683262273L156.28902260746273,122.27316629893721L156.3921836784908,128.86440526032857L156.70166689157486,127.8708841442949L156.80482796260287,121.70614584813052L157.32063331774302,130.73179572206072L157.42379438877106,136.90028771608922L157.5269554597991,137.6590436606216L157.83643867288316,141.17074465282826L158.04276081493924,132.9593078980895L158.14592188596725,126.38162042220756L158.24908295699527,137.53023032261808L158.35224402802334,142.3882576154199L158.45540509905135,123.87054500244403L158.55856617007936,134.68089794843308L159.17753259624752,117.2895279753493L159.69333795138766,137.64477112580494L159.79649902241573,124.87104333089178L159.89966009344374,141.10568055651697L160.4154654485839,134.83469352419888L160.828109732696,136.07322295336303L161.03443187475204,134.03335325587477L161.13759294578006,130.19985219931755L161.5502372298922,129.68585007992488L161.9628815140043,137.27873256572252L162.6850090112005,132.7657273664306L162.89133115325654,143.22174819991346L163.2008143663406,137.24897867813297L163.4071365083967,128.19393544126683L163.51029757942473,138.16757428821234L163.81978079250882,140.05201544532724L163.92294186353683,123.87139329574666L164.1292640055929,139.08954186416963L164.23242507662093,140.3678350418943L164.541908289705,141.4810291355957L166.29564649718148,135.26532961927614L166.39880756820952,135.9331273144346L166.50196863923753,131.44847631878292L166.60512971026554,146.5234329777229L167.01777399437768,139.17057508190283L167.32725720746177,137.3662552272208L167.43041827848978,134.61405243618628L167.73990149157387,140.9814055876825L167.84306256260192,139.4928629149024L167.94622363362993,143.4928627394322L168.35886791774206,142.88904756662419L168.46202898877007,145.30144526795993L168.56519005979808,144.3116142277927L168.77151220185416,132.12848943749918L168.97783434391022,144.9246333829342L169.18415648596627,142.0844201617524L169.39047862802232,137.64271401454607L170.00944505419048,138.7806782726841L170.21576719624656,123.19965103673098L170.7315725513867,143.03688388193905L170.83473362241472,103.70095084126774L171.76318326166697,147.02825232211467L171.866344332695,111.37613898475252L173.00111611400334,137.82766316185075L173.41376039811541,140.54353779220037L173.51692146914348,139.24643371049L173.82640468222755,143.118320038991L173.92956575325556,147.14328089395053L174.23904896633965,123.69276393354653L174.44537110839573,142.51480176883888L174.54853217942374,120.93877972657651L174.65169325045176,147.30046964292683L175.37382074764795,137.38886224373573L175.476981818676,149.77924629519293L175.58014288970404,134.89140193147932L175.68330396073205,148.46596101873502L175.99278717381614,140.17175204499267L176.1991093158722,152.49100670302482L176.3022703869002,142.5998855870921L176.40543145792827,147.35891705147765L176.50859252895629,136.64849305653775L177.02439788409643,142.51656197744182L177.23072002615245,141.72864595063174L177.7465253812926,136.95860788064465L177.84968645232067,151.01531567377947L178.15916966540473,136.67894678610196L178.88129716260093,139.93448440824864L179.08761930465698,134.47565338386312L180.11923001493727,149.6870156058651L180.32555215699333,150.97048337273577L180.42871322802137,139.42709897661643L180.6350353700774,120.19514461016342L180.73819644110543,141.2884453485674L180.94451858316148,147.8078762818916L181.04767965418952,149.23663548416926L181.66664608035768,140.7078522049187L181.76980715138572,132.72153128536388L182.3887735775539,143.05514339527804L182.49193464858192,146.67016651174436L183.42038428783417,137.6708773521932L183.8330285719463,110.57874328028561L184.03935071400232,126.87176429246392L184.45199499811446,147.57571961229587L185.07096142428261,138.61116806348718L185.3804446373667,145.745272323893L185.58676677942276,146.26476714242017L185.89624999250685,149.1691537519455L186.10257213456288,145.12254021043645L186.20573320559095,149.85614408307583L186.61837748970302,153.36546985403515L186.7215385607311,152.5425193138267L186.92786070278711,149.1187651297696L187.03102177381516,125.98985736772306L187.2373439158712,146.87903753018304L187.54682712895527,133.07247022465958L187.64998819998334,144.29456353240994L187.75314927101135,148.36475962773193L188.16579355512349,142.82856425414707L188.3721156971795,151.43051283074897L188.47527676820755,137.40909403900332L188.57843783923556,150.59027831449953L188.78475998129164,146.6431907847209L188.99108212334767,155.34572573968148L189.19740426540375,147.38680469380142L189.5068874784878,134.93854583177267L189.8163706915719,143.61883429487193L189.91953176259995,149.14415030685063L190.02269283362796,155.24435469001787L190.33217604671205,141.7160912097529L190.53849818876813,148.77317043828043L190.64165925979614,149.58358744494262L190.9511424728802,105.83409038737955L191.05430354390828,127.20768844030317L191.36378675699234,148.87418096329043L191.77643104110444,137.67323136610798L191.87959211213249,143.09458903385007L191.9827531831605,148.14507286968478L192.7048806803567,141.92640432680605L192.91120282241275,153.54615632749415L193.01436389344082,141.7190602363121L193.11752496446883,150.1247773646844L193.4270081775529,137.03508152187624L193.53016924858093,141.37948842727155L193.73649139063698,143.68035676664476L194.14913567474912,147.08500314406024L194.25229674577713,149.82418463289946L194.35545781680514,124.8818802778328L194.66494102988923,135.23799336759907L195.07758531400137,149.9628381732134L195.18074638502938,158.11245555352343L195.38706852708543,134.72301571090838L195.49022959811347,157.45072315547873L195.5933906691415,155.0404037727344L195.69655174016953,139.07613882998817L195.9028738822256,146.30510348895996L196.21235709530967,155.86681110815107L196.31551816633768,157.17267381821102L196.41867923736572,149.63813270430137L196.52184030839376,152.50765445908883L196.93448459250587,141.22340245958867L197.0376456635339,153.32371261621347L197.55345101867402,144.23251087732297L197.75977316073008,153.60345854008642L197.86293423175815,146.05269381676408L197.96609530278616,-469.78669723864186L198.37873958689826,146.0635943857028L198.68822279998233,154.0014565503452L198.8945449420384,145.53201138761324L199.20402815512247,147.27796866307472L199.30718922615048,119.85387621451764L199.41035029717855,150.5041553369506L199.51351136820657,156.06974407347138L199.6166724392346,151.17080783615052L199.82299458129066,152.78943628688808L200.0293167233467,137.57879511419333L200.3387999364308,140.77232249591816L200.44196100745884,157.1100273578122L200.64828314951487,148.01010940523724L200.7514442205429,140.6420034373025L200.85460529157095,158.24852179926438L201.164088504655,145.5977117039015L201.3704106467111,147.48781521881142L201.4735717177391,149.54361162305645L201.57673278876712,142.00340815135178L201.67989385979516,147.3851505218613L202.40202135699136,135.27796918948525L202.5051824280194,127.68266906777512L202.8146656411035,138.62039325315322L203.33047099624363,151.28583640798638L203.74311528035574,151.19044582610627L204.3620817065239,18.748003037305807L204.46524277755194,145.67282807584888L204.67156491960796,147.1853562417607L205.0842092037201,128.4695459352895L205.18737027474813,148.38643352161398L205.29053134577615,145.79515197008732L205.4968534878322,152.59848546446733L205.6000145588602,156.35453734249495L205.70317562988828,149.54872259020476L206.11581991400035,153.5083224461971L206.5284641981125,139.40500093608307L206.73478634016854,152.717819124814L206.83794741119658,142.5655933303335L207.66323597942082,148.2222675602236L207.76639705044883,148.20947953868654L208.0758802635329,154.0253360068141L208.385363476617,150.018465006533L208.79800776072912,119.29230604818031L209.00432990278514,155.89728604504785L209.41697418689728,156.22888389704372L209.93277954203742,148.80423918048905L210.03594061306543,141.34564152449684L210.44858489717754,154.66238306975242L210.5517459682056,158.16814600884072L210.86122918128967,146.99171208810412L210.96439025231768,106.50131548455875L211.06755132334575,92.38210968235308L211.37703453642982,140.8753477175219L211.6865177495139,144.89263151809268L211.78967882054192,148.11347394416202L211.99600096259798,122.91036181320351L212.20232310465406,149.70905002440077L212.30548417568207,145.93049716652104L212.40864524671008,149.38063327228974L213.1307727439063,157.9914889285692L213.33709488596233,146.42676995588886L213.44025595699037,151.7893196904265L214.05922238315856,145.433991096495L214.16238345418657,156.6196714142302L214.2655445252146,143.0149555000662L214.36870559624262,125.78467642515079L214.47186666727066,153.54672892547342L214.6781888093267,154.68643218488182L214.9876720224108,151.31872898079564L215.709799519607,144.72589946946187L215.81296059063502,160.4093369143743L215.91612166166308,153.785141758176L216.8445713009153,76.47567713551325L217.1540545139994,149.30916456154364L217.2572155850274,154.6306356929017L217.66985986913954,152.9387783228151L217.77302094016756,148.31931231404383L217.8761820111956,147.58818952384445L217.97934308222364,140.24220280377563L218.2888262953077,150.1474055885319L218.39198736633574,155.67940191026878L218.49514843736378,157.98381187418045L218.5983095083918,155.73042675242164L219.0109537925039,158.82003820457498L219.11411486353194,156.04732792294953L219.21727593455995,156.87356559970567L219.52675914764404,154.87191151550064L219.7330812897001,142.51709216075596L219.93940343175618,162.0974405865968L220.1457255738122,157.0092076987953L220.24888664484024,155.15994950640675L220.35204771586828,151.28833887322912L220.55836985792433,159.58946143738785L220.66153092895235,150.56663213868887L221.1773362840925,153.45901539798206L221.48681949717658,157.25769401446655L221.69314163923264,158.7534895949841L222.00262485231673,159.2193722767854L222.31210806540082,129.79396506134435L222.41526913642883,160.08560698276028L222.62159127848489,145.71700294958305L222.82791342054097,151.6050703850965L223.44687984670912,134.1276198491289L223.55004091773714,132.19505925442263L223.75636305979322,132.60877189811254L223.96268520184927,133.8503763904987L224.89113484110152,133.51457948665484L224.99429591212953,136.7096974183221L225.09745698315754,133.13993074955079L225.2006180541856,120.63464537025311L226.43855090652193,128.38297760375667L226.644873048578,137.14048196472731L226.85119519063406,134.0758315430037L227.05751733269008,142.1876574566818L227.47016161680222,137.3923402462765L227.57332268783023,129.59016259538885L227.6764837588583,116.87939937086298L227.7796448298863,140.39050568040693L227.88280590091432,132.77537670274796L227.98596697194236,121.56906165042642L228.08912804297037,139.19424246504605L228.29545018502645,120.36618174730506L228.39861125605447,121.33749878614253L228.50177232708248,136.18316176538315L228.70809446913856,130.8111747678538L229.2238998242787,133.7862454168203L229.53338303736277,137.9434339903264L229.73970517941885,139.7181272014143L229.84286625044686,130.96630640557123L230.0491883925029,134.9609831896271L230.358671605587,134.5496669745171L230.6681548186711,139.26499012648492L230.87447696072715,141.3313689896802L231.18396017381124,141.28248608811646L231.4934433868953,140.0857775187717L231.59660445792335,127.56248711412582L231.9060876710074,142.42528561807944L232.1124098130635,140.90351105516902L232.2155708840915,136.30542203762388L233.04085945231574,138.36482368840507L233.14402052334378,138.5814990052279L233.3503426653998,136.22286189194597L233.86614802053995,136.16329049476917L234.3819533756801,144.59521988619258L234.48511444670814,118.90228199496619L234.58827551773618,140.56975005525146L234.7945976597922,122.60304635699526L234.89775873082024,137.74828411605768L235.1040808728763,119.78037159984524L235.31040301493235,139.14652596677342L235.61988622801644,137.70039795912453L235.72304729904448,140.94923406418047L236.13569158315659,135.5908833814908L236.65149693829673,142.08437774708727L236.85781908035278,132.276961972791L237.47678550652097,146.02238853852782L237.57994657754898,137.89726562733108L237.683107648577,142.59628034055595L237.78626871960503,132.23458972232493L237.88942979063307,146.48818639099886L238.19891300371714,143.19663871815578L238.40523514577322,101.60059783130237L238.71471835885728,142.02092540805097L238.8178794298853,138.54703708980878L239.1273626429694,119.93064675840515L239.33368478502547,130.0793309283472L239.54000692708152,147.28721506007332L239.64316799810953,188.06946697438661L239.74632906913757,143.93213021886368L240.15897335324968,134.2643435221794L240.5716176373618,146.78093240973453L240.67477870838982,129.797888417869L240.77793977941784,140.56400286812618L241.19058406352997,118.7174600916569L241.293745134558,135.16234681233755L241.50006727661406,139.30303608110762L241.60322834764207,135.26700499854883L241.80955048969815,138.72057669219316L241.91271156072617,121.84668684104281L242.0158726317542,136.9855199856704L242.22219477381023,140.28306933362956L242.3253558448383,142.7940811313954L242.4285169158663,142.0430446559169L242.53167798689432,143.54872285341003L242.84116119997842,134.4487836935025L243.04748334203447,138.78441076321565L243.15064441306248,128.19018174340272L243.7696108392307,137.34233335608678L243.8727719102587,141.59716048872497L243.97593298128672,145.04687244784236L244.38857726539885,138.73145605379932L244.5948994074549,132.3722465180083L244.80122154951096,142.32166659116388L245.2138658336231,133.69766238869374L245.93599333081926,138.53571237421875L246.24547654390335,132.83248804934715L246.4517986859594,136.429421311135L246.65812082801548,138.3160256161716L246.7612818990435,141.9145282205693L246.96760404109955,125.28072658139422L247.17392618315563,128.35973436726476L247.38024832521165,150.04370173228608L247.4834093962397,142.1147678546538L247.5865704672677,138.0834872145897L247.8960536803518,147.3778764067913L247.9992147513798,114.30919790790654L248.30869796446393,136.69663370146168L248.41185903549194,137.01497697060404L248.72134224857604,146.2275058591024L249.0308254616601,131.59461604749254L249.4434697457722,139.24467350188706L250.06243617194042,141.77284203169847L250.16559724296843,134.01326991193514L250.4750804560525,144.49181293260267L250.57824152708054,129.3822459069156L250.7845636691366,150.7268323288895L250.99088581119264,147.218100363242L251.09404688222068,136.70566802513463L251.30036902427673,143.86074633744784L251.40353009530475,142.61528211053474L251.60985223736083,131.76041497349047L251.71301330838884,145.0654712785024L251.81617437941688,143.0099717769133L251.9193354504449,141.41660125926137L252.12565759250097,142.75631087209604L252.33197973455702,142.3297889995365L252.43514080558504,130.46250501314262L252.84778508969714,141.39751465995232L252.95094616072518,128.80892687833693L253.15726830278123,135.2295316419054L253.4667515158653,137.40506464581586L253.67307365792138,132.22004149218492L253.98255687100547,141.36803646768612L254.60152329717366,140.04480495225494L255.2204897233418,145.02290816204322L255.63313400745392,150.70053523650813L255.942617220538,124.64717872832921L256.4584225756782,143.47415787210934L256.6647447177342,144.0280721913905L256.9742279308183,141.01429816049176L257.59319435698643,137.7047242549679L257.6963554280145,147.51209761459904L257.9026775700706,143.93246953618473L258.2121607831546,145.87264356328205L258.5216439962387,130.41116206100128L258.6248050672667,122.15398108991849L258.72796613829473,144.70344090427488L259.656415777547,142.87119099260394L259.759576848575,133.97060075881313L259.8627379196031,153.09872402502492L259.9658989906311,147.24513971226315L260.1722211326871,145.80825810161286L260.3785432747432,140.9043169338065L260.6880264878273,158.64974332407314L260.7911875588553,139.29357761078336L261.2038318429674,141.53186311175546L261.4101539850235,136.35657412377213L261.5133150560515,139.90926888982813L261.6164761270795,143.37331700575987L261.7196371981076,136.6094927719496L262.5449257663318,91.85408951613454L263.4733754055841,147.331071823819L263.6796975476401,140.1910295102948L263.9891807607242,135.2436557253941L264.50498611586437,144.45124330540466L264.81446932894846,133.4007597327752L264.9176303999765,141.90674512951773L265.22711361306057,140.98674983548904L265.3302746840886,146.32249350166376L265.6397578971726,144.73238891322694L265.94924111025676,147.81419606699615L266.1555632523128,140.87356630158638L266.36188539436887,143.20336144257908L266.67136860745296,144.8033910626566L266.980851820537,149.8118207580137L267.084012891565,145.41834008506157L267.1871739625931,145.01079877514826L267.39349610464916,144.0644427667405L268.21878467287337,141.10792853376893L268.4251068149294,147.23084597011393L268.6314289569855,145.1342254506801L268.83775109904155,146.10140705966728L269.35355645418167,144.6679822442252L269.8693618093218,142.133260648651L270.28200609343395,137.83722766883784L270.69465037754605,130.98199983166978L270.79781144857407,152.0861799316799L270.9009725196021,140.77887556168093L271.3136168037142,139.42801089191676L271.41677787474225,127.81892617950916L271.51993894577026,150.9803235750462L271.6231000167983,141.09263804698912L271.93258322988237,145.6378571844482L272.4483885850225,144.5543321490061L272.7578717981066,145.37310484469913L272.96419394016266,136.28714131695233L273.37683822427476,131.67335887330864L273.4799992953028,144.96789634136803L273.58316036633084,142.26894516240577L273.68632143735886,143.82513922607018L273.8926435794149,144.260971117626L274.09896572147096,148.8387435105733L274.40844893455505,143.29663129120263L274.71793214763915,141.1110884263212L274.82109321866716,143.8565684929324L275.02741536072324,150.66149253725484L275.23373750277926,157.4832339963018L275.9558649999755,151.17373444804457L276.26534821305955,146.76157011510213L276.36850928408757,149.03813485135515L276.57483142614365,142.56194566913223L276.78115356819967,129.66589397998064L276.98747571025575,147.24713320152432L277.09063678128376,117.85228575231031L277.29695892333984,141.59092553295068L277.60644213642394,142.32686238764245L277.81276427847996,112.27672956948368L278.12224749156405,144.41667535332272L278.32856963362013,143.72951536353185L278.43173070464815,148.94982751855196" fill="none"></path></g></g></g></g></g></g><g transform="translate(41, 177)" clip-path="url(#clip_1)"><clipPath id="clip_1"><rect width="288" height="22"></rect></clipPath><g><g><line x1="0" y1="0" x2="0" y2="5" style="visibility: inherit;" fill="rgb(0, 0, 0)" stroke="rgb(204, 204, 204)" stroke-width="1px"></line><line x1="20.632214205605642" y1="0" x2="20.632214205605642" y2="5" style="visibility: inherit;" fill="rgb(0, 0, 0)" stroke="rgb(204, 204, 204)" stroke-width="1px"></line><line x1="41.264428411211284" y1="0" x2="41.264428411211284" y2="5" style="visibility: inherit;" fill="rgb(0, 0, 0)" stroke="rgb(204, 204, 204)" stroke-width="1px"></line><line x1="61.896642616816926" y1="0" x2="61.896642616816926" y2="5" style="visibility: inherit;" fill="rgb(0, 0, 0)" stroke="rgb(204, 204, 204)" stroke-width="1px"></line><line x1="82.52885682242257" y1="0" x2="82.52885682242257" y2="5" style="visibility: inherit;" fill="rgb(0, 0, 0)" stroke="rgb(204, 204, 204)" stroke-width="1px"></line><line x1="103.16107102802822" y1="0" x2="103.16107102802822" y2="5" style="visibility: inherit;" fill="rgb(0, 0, 0)" stroke="rgb(204, 204, 204)" stroke-width="1px"></line><line x1="123.79328523363385" y1="0" x2="123.79328523363385" y2="5" style="visibility: inherit;" fill="rgb(0, 0, 0)" stroke="rgb(204, 204, 204)" stroke-width="1px"></line><line x1="144.4254994392395" y1="0" x2="144.4254994392395" y2="5" style="visibility: inherit;" fill="rgb(0, 0, 0)" stroke="rgb(204, 204, 204)" stroke-width="1px"></line><line x1="165.05771364484514" y1="0" x2="165.05771364484514" y2="5" style="visibility: inherit;" fill="rgb(0, 0, 0)" stroke="rgb(204, 204, 204)" stroke-width="1px"></line><line x1="185.6899278504508" y1="0" x2="185.6899278504508" y2="5" style="visibility: inherit;" fill="rgb(0, 0, 0)" stroke="rgb(204, 204, 204)" stroke-width="1px"></line><line x1="206.32214205605644" y1="0" x2="206.32214205605644" y2="5" style="visibility: inherit;" fill="rgb(0, 0, 0)" stroke="rgb(204, 204, 204)" stroke-width="1px"></line><line x1="226.95435626166207" y1="0" x2="226.95435626166207" y2="5" style="visibility: inherit;" fill="rgb(0, 0, 0)" stroke="rgb(204, 204, 204)" stroke-width="1px"></line><line x1="247.5865704672677" y1="0" x2="247.5865704672677" y2="5" style="visibility: inherit;" fill="rgb(0, 0, 0)" stroke="rgb(204, 204, 204)" stroke-width="1px"></line><line x1="268.21878467287337" y1="0" x2="268.21878467287337" y2="5" style="visibility: inherit;" fill="rgb(0, 0, 0)" stroke="rgb(204, 204, 204)" stroke-width="1px"></line><line x1="288.850998878479" y1="0" x2="288.850998878479" y2="5" style="visibility: inherit;" fill="rgb(0, 0, 0)" stroke="rgb(204, 204, 204)" stroke-width="1px"></line></g><g transform="translate(0, 8)"><text style="text-anchor: middle; visibility: hidden; font-family: Roboto, sans-serif; font-size: 12px; font-weight: 200;" x="0" y="0" dx="0em" dy="0.95em" fill="rgb(50, 49, 63)" stroke="none" stroke-width="1px">-200</text><text style="text-anchor: middle; visibility: inherit; font-family: Roboto, sans-serif; font-size: 12px; font-weight: 200;" x="20.632214205605642" y="0" dx="0em" dy="0.95em" fill="rgb(50, 49, 63)" stroke="none" stroke-width="1px">0</text><text style="text-anchor: middle; visibility: hidden; font-family: Roboto, sans-serif; font-size: 12px; font-weight: 200;" x="41.264428411211284" y="0" dx="0em" dy="0.95em" fill="rgb(50, 49, 63)" stroke="none" stroke-width="1px">200</text><text style="text-anchor: middle; visibility: inherit; font-family: Roboto, sans-serif; font-size: 12px; font-weight: 200;" x="61.896642616816926" y="0" dx="0em" dy="0.95em" fill="rgb(50, 49, 63)" stroke="none" stroke-width="1px">400</text><text style="text-anchor: middle; visibility: hidden; font-family: Roboto, sans-serif; font-size: 12px; font-weight: 200;" x="82.52885682242257" y="0" dx="0em" dy="0.95em" fill="rgb(50, 49, 63)" stroke="none" stroke-width="1px">600</text><text style="text-anchor: middle; visibility: inherit; font-family: Roboto, sans-serif; font-size: 12px; font-weight: 200;" x="103.16107102802822" y="0" dx="0em" dy="0.95em" fill="rgb(50, 49, 63)" stroke="none" stroke-width="1px">800</text><text style="text-anchor: middle; visibility: hidden; font-family: Roboto, sans-serif; font-size: 12px; font-weight: 200;" x="123.79328523363385" y="0" dx="0em" dy="0.95em" fill="rgb(50, 49, 63)" stroke="none" stroke-width="1px">1k</text><text style="text-anchor: middle; visibility: inherit; font-family: Roboto, sans-serif; font-size: 12px; font-weight: 200;" x="144.4254994392395" y="0" dx="0em" dy="0.95em" fill="rgb(50, 49, 63)" stroke="none" stroke-width="1px">1.2k</text><text style="text-anchor: middle; visibility: hidden; font-family: Roboto, sans-serif; font-size: 12px; font-weight: 200;" x="165.05771364484514" y="0" dx="0em" dy="0.95em" fill="rgb(50, 49, 63)" stroke="none" stroke-width="1px">1.4k</text><text style="text-anchor: middle; visibility: inherit; font-family: Roboto, sans-serif; font-size: 12px; font-weight: 200;" x="185.6899278504508" y="0" dx="0em" dy="0.95em" fill="rgb(50, 49, 63)" stroke="none" stroke-width="1px">1.6k</text><text style="text-anchor: middle; visibility: hidden; font-family: Roboto, sans-serif; font-size: 12px; font-weight: 200;" x="206.32214205605644" y="0" dx="0em" dy="0.95em" fill="rgb(50, 49, 63)" stroke="none" stroke-width="1px">1.8k</text><text style="text-anchor: middle; visibility: inherit; font-family: Roboto, sans-serif; font-size: 12px; font-weight: 200;" x="226.95435626166207" y="0" dx="0em" dy="0.95em" fill="rgb(50, 49, 63)" stroke="none" stroke-width="1px">2k</text><text style="text-anchor: middle; visibility: hidden; font-family: Roboto, sans-serif; font-size: 12px; font-weight: 200;" x="247.5865704672677" y="0" dx="0em" dy="0.95em" fill="rgb(50, 49, 63)" stroke="none" stroke-width="1px">2.2k</text><text style="text-anchor: middle; visibility: inherit; font-family: Roboto, sans-serif; font-size: 12px; font-weight: 200;" x="268.21878467287337" y="0" dx="0em" dy="0.95em" fill="rgb(50, 49, 63)" stroke="none" stroke-width="1px">2.4k</text><text style="text-anchor: middle; visibility: hidden; font-family: Roboto, sans-serif; font-size: 12px; font-weight: 200;" x="288.850998878479" y="0" dx="0em" dy="0.95em" fill="rgb(50, 49, 63)" stroke="none" stroke-width="1px">2.6k</text></g><line x1="0" y1="0" x2="288.850998878479" y2="0" fill="rgb(0, 0, 0)" stroke="rgb(204, 204, 204)" stroke-width="1px"></line></g></g></g></g></svg>