<svg viewBox="0 0 330 200" xmlns="http://www.w3.org/2000/svg"><g><g><g><g><g><line x1="51.53200149536133" y1="177.89999961853027" x2="46.53200149536133" y2="177.89999961853027" style="visibility: inherit;" fill="rgb(0, 0, 0)" stroke="rgb(204, 204, 204)" stroke-width="1px"></line><line x1="51.53200149536133" y1="160.10999965667725" x2="46.53200149536133" y2="160.10999965667725" style="visibility: inherit;" fill="rgb(0, 0, 0)" stroke="rgb(204, 204, 204)" stroke-width="1px"></line><line x1="51.53200149536133" y1="142.31999969482422" x2="46.53200149536133" y2="142.31999969482422" style="visibility: inherit;" fill="rgb(0, 0, 0)" stroke="rgb(204, 204, 204)" stroke-width="1px"></line><line x1="51.53200149536133" y1="124.52999973297118" x2="46.53200149536133" y2="124.52999973297118" style="visibility: inherit;" fill="rgb(0, 0, 0)" stroke="rgb(204, 204, 204)" stroke-width="1px"></line><line x1="51.53200149536133" y1="106.73999977111816" x2="46.53200149536133" y2="106.73999977111816" style="visibility: inherit;" fill="rgb(0, 0, 0)" stroke="rgb(204, 204, 204)" stroke-width="1px"></line><line x1="51.53200149536133" y1="88.94999980926514" x2="46.53200149536133" y2="88.94999980926514" style="visibility: inherit;" fill="rgb(0, 0, 0)" stroke="rgb(204, 204, 204)" stroke-width="1px"></line><line x1="51.53200149536133" y1="71.15999984741211" x2="46.53200149536133" y2="71.15999984741211" style="visibility: inherit;" fill="rgb(0, 0, 0)" stroke="rgb(204, 204, 204)" stroke-width="1px"></line><line x1="51.53200149536133" y1="53.36999988555909" x2="46.53200149536133" y2="53.36999988555909" style="visibility: inherit;" fill="rgb(0, 0, 0)" stroke="rgb(204, 204, 204)" stroke-width="1px"></line><line x1="51.53200149536133" y1="35.57999992370607" x2="46.53200149536133" y2="35.57999992370607" style="visibility: inherit;" fill="rgb(0, 0, 0)" stroke="rgb(204, 204, 204)" stroke-width="1px"></line><line x1="51.53200149536133" y1="17.789999961853024" x2="46.53200149536133" y2="17.789999961853024" style="visibility: inherit;" fill="rgb(0, 0, 0)" stroke="rgb(204, 204, 204)" stroke-width="1px"></line><line x1="51.53200149536133" y1="0" x2="46.53200149536133" y2="0" style="visibility: inherit;" fill="rgb(0, 0, 0)" stroke="rgb(204, 204, 204)" stroke-width="1px"></line></g><g transform="translate(41.53200149536133, 0)"><text style="text-anchor: end; visibility: hidden; font-family: Roboto, sans-serif; font-size: 12px; font-weight: 200;" x="0" y="177.89999961853027" dx="0em" dy="0.3em" fill="rgb(50, 49, 63)" stroke="none" stroke-width="1px">-0.2</text><text style="text-anchor: end; visibility: inherit; font-family: Roboto, sans-serif; font-size: 12px; font-weight: 200;" x="0" y="160.10999965667725" dx="0em" dy="0.3em" fill="rgb(50, 49, 63)" stroke="none" stroke-width="1px">0</text><text style="text-anchor: end; visibility: hidden; font-family: Roboto, sans-serif; font-size: 12px; font-weight: 200;" x="0" y="142.31999969482422" dx="0em" dy="0.3em" fill="rgb(50, 49, 63)" stroke="none" stroke-width="1px">0.2</text><text style="text-anchor: end; visibility: inherit; font-family: Roboto, sans-serif; font-size: 12px; font-weight: 200;" x="0" y="124.52999973297118" dx="0em" dy="0.3em" fill="rgb(50, 49, 63)" stroke="none" stroke-width="1px">0.4</text><text style="text-anchor: end; visibility: hidden; font-family: Roboto, sans-serif; font-size: 12px; font-weight: 200;" x="0" y="106.73999977111816" dx="0em" dy="0.3em" fill="rgb(50, 49, 63)" stroke="none" stroke-width="1px">0.6</text><text style="text-anchor: end; visibility: inherit; font-family: Roboto, sans-serif; font-size: 12px; font-weight: 200;" x="0" y="88.94999980926514" dx="0em" dy="0.3em" fill="rgb(50, 49, 63)" stroke="none" stroke-width="1px">0.8</text><text style="text-anchor: end; visibility: hidden; font-family: Roboto, sans-serif; font-size: 12px; font-weight: 200;" x="0" y="71.15999984741211" dx="0em" dy="0.3em" fill="rgb(50, 49, 63)" stroke="none" stroke-width="1px">1</text><text style="text-anchor: end; visibility: inherit; font-family: Roboto, sans-serif; font-size: 12px; font-weight: 200;" x="0" y="53.36999988555909" dx="0em" dy="0.3em" fill="rgb(50, 49, 63)" stroke="none" stroke-width="1px">1.2</text><text style="text-anchor: end; visibility: hidden; font-family: Roboto, sans-serif; font-size: 12px; font-weight: 200;" x="0" y="35.57999992370607" dx="0em" dy="0.3em" fill="rgb(50, 49, 63)" stroke="none" stroke-width="1px">1.4</text><text style="text-anchor: end; visibility: inherit; font-family: Roboto, sans-serif; font-size: 12px; font-weight: 200;" x="0" y="17.789999961853024" dx="0em" dy="0.3em" fill="rgb(50, 49, 63)" stroke="none" stroke-width="1px">1.6</text><text style="text-anchor: end; visibility: hidden; font-family: Roboto, sans-serif; font-size: 12px; font-weight: 200;" x="0" y="0" dx="0em" dy="0.3em" fill="rgb(50, 49, 63)" stroke="none" stroke-width="1px">1.8</text></g><line x1="51.53200149536133" y1="0" x2="51.53200149536133" y2="177.89999961853027" fill="rgb(0, 0, 0)" stroke="rgb(204, 204, 204)" stroke-width="1px"></line></g></g><g transform="translate(51, 0)" clip-path="url(#clip_0)"><clipPath id="clip_0"><rect width="278" height="177"></rect></clipPath><g><g><g><line x1="0" y1="0" x2="0" y2="177.89999961853027" fill="rgb(0, 0, 0)" stroke="rgb(60, 60, 60)" stroke-width="1px" opacity="0.25"></line><line x1="19.890571321759904" y1="0" x2="19.890571321759904" y2="177.89999961853027" fill="rgb(0, 0, 0)" stroke="rgb(60, 60, 60)" stroke-width="1px" opacity="0.25"></line><line x1="39.78114264351981" y1="0" x2="39.78114264351981" y2="177.89999961853027" fill="rgb(0, 0, 0)" stroke="rgb(60, 60, 60)" stroke-width="1px" opacity="0.25"></line><line x1="59.671713965279714" y1="0" x2="59.671713965279714" y2="177.89999961853027" fill="rgb(0, 0, 0)" stroke="rgb(60, 60, 60)" stroke-width="1px" opacity="0.25"></line><line x1="79.56228528703961" y1="0" x2="79.56228528703961" y2="177.89999961853027" fill="rgb(0, 0, 0)" stroke="rgb(60, 60, 60)" stroke-width="1px" opacity="0.25"></line><line x1="99.45285660879952" y1="0" x2="99.45285660879952" y2="177.89999961853027" fill="rgb(0, 0, 0)" stroke="rgb(60, 60, 60)" stroke-width="1px" opacity="0.25"></line><line x1="119.34342793055943" y1="0" x2="119.34342793055943" y2="177.89999961853027" fill="rgb(0, 0, 0)" stroke="rgb(60, 60, 60)" stroke-width="1px" opacity="0.25"></line><line x1="139.23399925231934" y1="0" x2="139.23399925231934" y2="177.89999961853027" fill="rgb(0, 0, 0)" stroke="rgb(60, 60, 60)" stroke-width="1px" opacity="0.25"></line><line x1="159.12457057407923" y1="0" x2="159.12457057407923" y2="177.89999961853027" fill="rgb(0, 0, 0)" stroke="rgb(60, 60, 60)" stroke-width="1px" opacity="0.25"></line><line x1="179.01514189583915" y1="0" x2="179.01514189583915" y2="177.89999961853027" fill="rgb(0, 0, 0)" stroke="rgb(60, 60, 60)" stroke-width="1px" opacity="0.25"></line><line x1="198.90571321759904" y1="0" x2="198.90571321759904" y2="177.89999961853027" fill="rgb(0, 0, 0)" stroke="rgb(60, 60, 60)" stroke-width="1px" opacity="0.25"></line><line x1="218.79628453935896" y1="0" x2="218.79628453935896" y2="177.89999961853027" fill="rgb(0, 0, 0)" stroke="rgb(60, 60, 60)" stroke-width="1px" opacity="0.25"></line><line x1="238.68685586111886" y1="0" x2="238.68685586111886" y2="177.89999961853027" fill="rgb(0, 0, 0)" stroke="rgb(60, 60, 60)" stroke-width="1px" opacity="0.25"></line><line x1="258.57742718287875" y1="0" x2="258.57742718287875" y2="177.89999961853027" fill="rgb(0, 0, 0)" stroke="rgb(60, 60, 60)" stroke-width="1px" opacity="0.25"></line><line x1="278.4679985046387" y1="0" x2="278.4679985046387" y2="177.89999961853027" fill="rgb(0, 0, 0)" stroke="rgb(60, 60, 60)" stroke-width="1px" opacity="0.25"></line></g><g><line x1="0" y1="177.89999961853027" x2="278.4679985046387" y2="177.89999961853027" fill="rgb(0, 0, 0)" stroke="rgb(60, 60, 60)" stroke-width="1px" opacity="0.25"></line><line x1="0" y1="160.10999965667725" x2="278.4679985046387" y2="160.10999965667725" fill="rgb(0, 0, 0)" stroke="rgb(60, 60, 60)" stroke-width="1px" opacity="0.25"></line><line x1="0" y1="142.31999969482422" x2="278.4679985046387" y2="142.31999969482422" fill="rgb(0, 0, 0)" stroke="rgb(60, 60, 60)" stroke-width="1px" opacity="0.25"></line><line x1="0" y1="124.52999973297118" x2="278.4679985046387" y2="124.52999973297118" fill="rgb(0, 0, 0)" stroke="rgb(60, 60, 60)" stroke-width="1px" opacity="0.25"></line><line x1="0" y1="106.73999977111816" x2="278.4679985046387" y2="106.73999977111816" fill="rgb(0, 0, 0)" stroke="rgb(60, 60, 60)" stroke-width="1px" opacity="0.25"></line><line x1="0" y1="88.94999980926514" x2="278.4679985046387" y2="88.94999980926514" fill="rgb(0, 0, 0)" stroke="rgb(60, 60, 60)" stroke-width="1px" opacity="0.25"></line><line x1="0" y1="71.15999984741211" x2="278.4679985046387" y2="71.15999984741211" fill="rgb(0, 0, 0)" stroke="rgb(60, 60, 60)" stroke-width="1px" opacity="0.25"></line><line x1="0" y1="53.36999988555909" x2="278.4679985046387" y2="53.36999988555909" fill="rgb(0, 0, 0)" stroke="rgb(60, 60, 60)" stroke-width="1px" opacity="0.25"></line><line x1="0" y1="35.57999992370607" x2="278.4679985046387" y2="35.57999992370607" fill="rgb(0, 0, 0)" stroke="rgb(60, 60, 60)" stroke-width="1px" opacity="0.25"></line><line x1="0" y1="17.789999961853024" x2="278.4679985046387" y2="17.789999961853024" fill="rgb(0, 0, 0)" stroke="rgb(60, 60, 60)" stroke-width="1px" opacity="0.25"></line><line x1="0" y1="0" x2="278.4679985046387" y2="0" fill="rgb(0, 0, 0)" stroke="rgb(60, 60, 60)" stroke-width="1px" opacity="0.25"></line></g></g></g><g><g><line x1="0" y1="160.10999965667725" x2="278.4679985046387" y2="160.10999965667725" fill="rgb(0, 0, 0)" stroke="rgb(153, 153, 153)" stroke-width="1.5px"></line></g></g><g><g><line x1="19.890571321759904" y1="0" x2="19.890571321759904" y2="177.89999961853027" fill="rgb(0, 0, 0)" stroke="rgb(153, 153, 153)" stroke-width="1.5px"></line></g></g><g><g><g><g><g><path style="fill: none;" stroke="rgb(255, 112, 67)" stroke-width="2px" d="M21.6807227407183,-14.645720271661855L21.780175597327094,2.1650905974746237L21.879628453935894,7.537647440731311L22.277439880371094,11.498980837443705L23.17251558985029,33.93491233250674L23.470874159676686,43.24636177876283L23.868685586111887,47.155251680462904L24.067591299329482,54.32459605069351L24.266497012547084,57.937286266869364L24.365949869155884,55.263977703444105L24.564855582373482,58.544739977255524L24.76376129559108,51.161863463545544L25.161572722026282,54.06093967602889L25.26102557863508,46.64640332752234L25.360478435243877,52.400493900546074L25.45993129185268,50.37058106982853L25.55938414846148,54.26598232457859L26.156101288114275,60.2530111005674L26.355007001331874,62.49345947219558L26.454459857940673,59.57112417979764L26.553912714549476,64.72402835726274L26.65336557115827,66.87931897071243L26.95172414098467,61.49173067652132L27.05117699759347,59.16583505274884L27.150629854202272,65.65311546541642L27.250082710811068,65.88068190316278L27.747346993855068,67.64852378479607L28.244611276899064,67.02513332512963L28.542969846725462,70.04126937124634L28.64242270333426,53.05836568007276L29.239139842987058,66.82233554883918L30.034762695857456,72.30374020833443L30.333121265683857,75.94713990202665L30.432574122292657,80.06941342034189L31.12874411855425,74.66860097654099L31.42710268838065,70.81184539424562L31.62600840159825,75.6862040457716L32.322178397859844,79.69996421454717L32.42163125446864,70.44446309839334L32.71998982429504,69.20828822236894L32.81944268090384,73.41396556482249L33.51561267716544,72.83302142183777L33.714518390383034,69.6614832762113L33.91342410360064,69.26748754971716L34.01287696020944,64.93644620549922L34.11232981681824,74.15868253442406L34.808499813079834,26.25704942059489L35.30576409612383,25.214690920998855L35.50466980934143,26.441944152708192L35.60412266595023,43.712270575061765L35.703575522559035,38.617548744153616L36.001934092385426,25.96569130695646L36.30029266221183,35.09643981156114L36.49919837542942,36.88857947017095L36.59865123203822,44.19081963378233L36.89700980186463,53.068830802232476L37.49372694151742,52.241668290614825L37.59317979812622,48.71725635446462L37.792085511343814,45.548354517739455L38.09044408117022,43.87201473129246L38.28934979438782,53.495915505152965L38.38880265099662,55.4062672516157L38.587708364214215,57.18046134849315L38.786614077431814,50.81264755274314L38.88606693404062,44.527743577566596L39.582236930302216,56.6911044157582L40.3778597831726,59.450603298304834L40.4773126397814,58.19962138492391L40.57676549639021,60.11277924379869L40.9745769228254,62.24504623188843L41.9691054889134,72.49902297358659L42.0685583455222,70.08975861534476L42.2674640587398,43.41550334343398L42.466369771957396,55.73095911747831L42.665275485174995,50.63106053389059L42.96363405500139,56.29162319084811L43.06308691161019,51.40274372028811L43.16253976821899,52.88133012437027L43.460898338045396,59.118197023688516L44.45542690413339,48.40053008300313L44.65433261735099,17.19198663237523L45.251049757003784,35.75170522625432L45.54940832683018,34.633027710872426L45.64886118343898,43.63156745585666L45.74831404004778,59.887089609302706L45.84776689665658,61.63534742422704L46.046672609874186,59.99870731226918L46.444484036309376,67.6230108419393L46.64338974952698,72.3415398502637L46.84229546274457,66.04824483357011L47.04120117596217,41.69964103136778L47.53846545900617,43.1764610573197L48.135182598658965,40.134369759361185L48.83135259492057,49.75325330176488L48.930805451529366,44.32606419033669L49.42806973457336,44.546921936803095L49.52752259118216,48.17778544030632L49.82588116100857,61.269020041224984L49.92533401761737,63.55969899320011L50.02478687422616,57.98431503130708L50.42259830066136,52.139741130783015L50.52205115727016,58.299286249473745L50.720956870487754,65.37101283327404L51.01931544031416,70.03716475850369L51.417126866749356,75.50232495594918L51.516579723358156,77.31962721020135L51.616032579966955,71.06685726304785L51.715485436575754,77.99970180856721L51.914391149793346,68.4433307976796L52.21274971961975,31.507999597735726L52.31220257622855,47.119571125295245L52.41165543283735,48.84963058242619L52.71001400266375,54.47792128560014L53.008372572490146,58.908297847770434L53.60508971214295,63.98299753572746L53.80399542536055,66.94870339436568L54.10235399518694,65.4008639679318L54.201806851795745,70.2970532246052L54.40071256501334,71.52452901338802L54.500165421622135,63.759380834557675L54.99742970466614,76.38842672614712L55.09688256127494,67.87310893547233L55.494693987710136,72.47402418988638L55.693599700927734,75.81744627443432L55.99195827075413,-73.56692720557038L56.98648683684213,-8.53968779485096L57.38429826327733,14.255678557321483L57.48375111988613,24.681356207933625L57.58320397649493,28.950963315921932L57.78210968971252,42.90566715961382L58.279373972756524,35.36130055991184L58.378826829365316,48.35508022597012L58.77663825580052,59.341338024257986L58.87609111240932,54.03110927929296L58.97554396901812,54.22564139953075L59.97007253510611,60.15230453548168L60.46733681815011,60.648355781691656L61.163506814411704,74.06631000191706L61.26295967102051,80.45497905155524L61.76022395406451,79.04039846844582L61.85967681067331,72.90268770731191L62.058582523890905,66.76722540755974L62.2574882371085,74.25267747306299L62.6552996635437,69.94822873811108L63.550375373022895,75.5097117478478L63.749281086240494,76.912490702973L63.84873394284929,84.41491891505606L64.14709251267568,82.8198700179381L64.7438096523285,88.77105291651729L65.53943250519889,41.904181231816274L65.63888536180768,24.87207453079973L65.73833821841649,15.411960911107887L65.93724393163409,9.536573503441653L66.03669678824289,-9.363381245912977L68.72192391668047,-14.344826141038181L68.92082962989807,0.16710543620389154L69.21918819972447,0.9049559851784112L70.31316962242127,15.297336458772811L70.71098104885647,34.79563976875049L70.81043390546526,8.533182593774553L71.00933961868286,26.78536037507637L71.30769818850926,19.718904571716298L71.50660390172686,25.92324368041059L72.00386818477085,22.36056005282761L72.10332104137966,19.262953311563876L72.70003818103245,32.66849836636481L72.89894389425005,44.844913960023916L72.99839675085884,49.675803983815086L73.09784960746765,50.10459142803013L73.19730246407644,54.3472603498843L73.29675532068525,59.02674774721492L73.39620817729404,50.24113797010101L73.59511389051166,56.65888904787635L73.79401960372925,56.56849625454414L74.29128388677324,40.04172373766513L74.39073674338204,27.515309042568063L74.49018959999086,24.131051548609243L74.68909531320845,20.33649657822567L75.08690673964364,16.908035779022423L75.28581245286124,20.77776404867825L75.48471816607884,28.49551836206813L75.88252959251405,34.67450981778417L75.98198244912284,41.76989482963222L76.08143530573163,35.606699390236315L76.47924673216683,31.345532339522258L76.87705815860204,39.381237298306104L76.97651101521083,41.69946125712775L77.27486958503724,46.130950282883326L77.47377529825482,40.50287914939874L77.57322815486363,45.45535206137943L77.67268101147242,50.16631212319728L77.77213386808124,41.97329094680709L77.87158672469003,52.40595010947815L77.97103958129884,56.48793004311238L78.16994529451642,45.0844374738388L78.26939815112523,47.99529303507592L78.76666243416922,58.31549405704314L78.86611529077801,56.75066801823178L79.16447386060443,33.68567456059582L79.26392671721322,48.39393247457854L79.56228528703961,55.474528980382146L79.76119100025721,57.506474625700385L80.15900242669242,51.470728061792244L80.35790813991002,56.84944302510022L80.55681385312762,52.93540390573854L80.7557195663452,56.80405842705783L81.05407813617163,63.54335352591021L81.45188956260681,64.49647932269869L81.55134241921562,67.15642876518167L81.75024813243321,65.8544970234447L82.0486067022596,60.84499456267226L82.44641812869482,59.017665795817344L82.9436824117388,54.15413370567799L83.63985240800041,58.69799679786406L83.7393052646092,46.85964883042939L83.9382109778268,33.140427333748L84.03766383443559,43.65823353499658L84.1371166910444,52.55194915490438L84.23656954765319,59.75963231350078L84.4354752608708,57.73922886128703L84.7338338306972,61.54355161808806L85.13164525713239,52.586458361321874L85.23109811374118,56.45628356515164L85.6289095401764,57.60375054169817L85.92726811000279,56.79300804216593L86.32507953643798,67.39745880801306L86.62343810626439,67.17204171574923L86.7228909628732,61.53160120701699L86.82234381948199,54.801350006238636L86.92179667609079,53.66962179922325L87.02124953269958,45.02491565591158L87.22015524591718,52.700776042017445L87.31960810252598,52.73725730175071L87.41906095913478,63.933694646462186L87.6179666723524,68.2660566118463L87.71741952896119,60.88809821213319L87.81687238556998,68.70535330099399L87.91632524217879,54.96695638071408L88.11523095539638,58.183232516908895L88.31413666861397,49.415273154426174L88.41358952522278,63.14160900745309L89.10975952148438,66.81748621740917L89.40811809131077,70.75852732828898L89.50757094791958,73.94430415322377L89.60702380452837,54.51941651271276L89.80592951774598,63.47461800896784L90.10428808757237,68.43842890527159L90.30319380078997,73.04774170040926L90.50209951400757,73.05578233865083L90.89991094044277,69.28726238459414L91.29772236687796,71.56817572533484L91.59608093670435,73.20261702402033L91.69553379331316,65.79324113509182L91.79498664992195,63.36369491355085L91.89443950653077,71.5339689214175L91.99389236313957,76.52930562103123L92.49115664618355,69.84001183532578L93.08787378583636,69.36307637920635L93.28677949905396,65.21928434598432L93.38623235566276,74.18357538973054L93.48568521227155,76.1591726556357L93.78404378209795,74.04325765962112L94.08240235192434,73.60298322879193L94.18185520853315,28.7733015288053L94.48021377835956,47.84166055399761L94.57966663496835,49.084867134016L94.67911949157715,61.73786638651376L94.87802520479474,65.89132322988344L95.07693091801234,72.02701641960303L95.67364805766515,77.98287209496475L95.97200662749154,71.71548334776442L96.07145948410033,62.17803698164385L96.36981805392675,55.90802552539305L96.46927091053554,57.77968716716549L96.56872376714435,66.11827758801815L96.76762948036193,77.01876475964109L96.86708233697074,77.02430595224524L97.46379947662354,67.88268106526299L97.86161090305873,63.71381198476276L97.96106375966754,76.40168261300052L98.15996947288512,72.92587122122451L98.35887518610272,80.97047396690743L98.55778089932033,75.37283915515616L98.65723375592913,73.43414856390412L98.75668661253793,72.25998274261602L98.85613946914673,53.382355859326346L98.95559232575553,67.33863143075774L99.25395089558192,70.98517206661295L99.45285660879952,75.82152115725076L99.65176232201713,82.09908411916153L99.95012089184353,78.55909353921074L100.14902660506112,77.86755907305063L100.24847946166992,76.68169671553L100.34793231827872,42.66405502379528L100.74574374471392,57.40562472234886L100.94464945793152,72.20539041844448L101.04410231454032,76.6391558917877L101.24300802775791,65.16398364344202L101.54136659758431,62.8981257469472L101.93917802401951,61.164802082315845L102.23753659384592,67.635768564367L102.53589516367231,64.54427684546519L102.6353480202811,60.960250436320194L102.83425373349871,80.25815031785197L103.03315944671631,82.14958007972686L103.23206515993391,79.48697662125656L103.7293294429779,83.83444487695905L104.0276880128043,84.84089635884209L104.12714086941311,92.55536318022877L104.2265937260219,85.29096268733406L104.5249522958483,79.86762310527364L105.3205751487187,74.24438069720588L105.4200280053275,77.06410883308216L105.5194808619363,73.86576386417013L105.71838657515389,75.56979212953252L106.1161980015891,79.3769439279401L106.3151037148067,75.50558193209137L106.41455657141549,88.61107160653053L106.81236799785069,79.48215348946036L107.01127371106828,83.78187918354617L107.11072656767708,80.44786541028418L107.4090851375035,73.42121117088152L107.6079908507211,75.05142915046862L107.80689656393868,78.14986056519749L108.10525513376508,77.47900127928672L108.30416084698268,75.7077814298219L108.40361370359149,86.05034449099463L108.60251941680909,71.21729226584706L108.70197227341788,67.06527371621685L109.00033084324427,74.3902603171504L109.29868941307069,57.660643154239956L109.39814226967948,69.7739444456721L110.09431226594107,51.7120823116273L110.19376512254988,61.03965181562103L110.29321797915867,69.09686759120538L110.39267083576746,76.06345437763305L110.59157654898507,73.98457121873165L110.69102940559388,76.46862907364464L110.88993511881147,53.54072475575777L110.98938797542027,53.85825387099129L111.08884083202906,67.04725656630816L111.38719940185547,75.33983044463858L111.48665225846426,79.0676519638055L111.58610511507307,81.74001347040073L111.68555797168187,81.42277557615391L111.88446368489947,87.84653330550292L112.48118082455225,82.56957645060352L112.58063368116107,85.30210737119226L112.87899225098747,91.61599559559588L113.57516224724905,90.86241137445946L113.87352081707546,89.34440999729566L114.56969081333705,64.20751460986996L114.66914366994585,52.76002151797058L114.76859652655466,43.82749657208392L114.96750223977226,44.01432256603619L115.06695509638105,36.84127952093598L115.16640795298986,29.66180726144345L115.46476652281625,33.05013764981215L115.56421937942504,45.63699038290788L115.76312509264264,53.29617360342256L115.96203080586025,58.921761851641634L116.06148366246904,65.83784014812903L116.45929508890424,65.23107688794103L116.55874794551305,68.12977128851374L116.95655937194823,55.52431000828065L117.05601222855705,67.49803811968404L117.15546508516584,67.46095345021092L117.25491794177465,70.71611139274866L117.55327651160104,66.89810352405695L117.65272936820983,74.49708597755625L117.75218222481864,72.00065381594945L118.05054079464504,70.58986334356673L118.14999365125384,68.48966669792297L118.94561650412423,73.35900648824494L119.34342793055943,73.45355417038004L119.54233364377703,75.76404751267283L119.74123935699463,77.52158635754253L119.84069221360343,81.89843553905989L120.13905078342982,84.13917812498761L120.23850364003863,85.79904669599232L120.43740935325623,86.11043967877566L120.53686220986503,86.5889780864191L120.63631506647383,74.0839102323604L120.73576792308262,79.41220491301954L121.03412649290902,74.58433556152153L121.82974934577942,82.81476627194336L122.02865505899702,86.35992138416134L122.22756077221462,85.9533150493476L122.42646648543223,83.02612106512801L122.52591934204102,80.19274787558663L122.62537219864981,77.14904645710412L122.82427791186741,77.82753246380871L123.02318362508501,76.82412862035928L123.1226364816938,88.30072469776565L123.22208933830261,89.41742474792831L123.52044790812901,91.06210409247572L123.71935362134661,88.74518677600193L124.4155236176082,90.06431341530609L124.514976474217,95.56647238649107L124.81333504404341,91.88506689744862L125.01224075726101,83.53484094321328L125.6089578969138,82.91089920415467L125.7084107535226,73.15148786326642L125.9073164667402,80.77984907740056L126.1062221799578,88.68197196177591L126.504033606393,85.98631768882446L126.9018450328282,92.45113075733731L127.10075074604579,87.18212965960663L127.29965645926339,92.41796955851409L127.5980150290898,94.30954300670713L127.69746788569859,96.3535775592464L127.79692074230738,86.34765123772416L127.8963735989162,84.61552155664809L128.49309073856898,89.62068981238819L128.5925435951778,79.11808340448405L129.18926073483058,83.25383340516831L129.38816644804817,84.47071349275741L129.58707216126578,86.8525619177838L129.68652501787457,96.58161228853444L129.7859778744834,88.06787514664306L130.68105358396258,91.85784999478496L130.87995929718016,81.75235990408463L131.17831786700657,82.15103339466884L131.57612929344177,78.05261268857856L131.77503500665938,71.09279593798935L131.87448786326817,77.4909837000449L132.27229928970337,84.38190508805951L132.37175214631216,69.3167238547822L132.57065785952977,74.41781193479491L132.67011071613857,76.20472269864645L132.7695635727474,77.80845427578019L133.06792214257376,79.15371885552791L133.16737499918256,88.4893915495035L134.16190356527056,89.6987990062163L134.36080927848815,89.9628319552214L134.46026213509697,84.95935728788957L134.75862070492335,82.09628231099154L134.85807356153214,80.83230817348885L134.95752641814096,81.76329132023065L135.25588498796736,87.68602785495558L135.35533784457616,89.93715146207617L135.45479070118495,88.38286005664418L136.94658355031694,90.77449005764582L137.24494212014335,90.48502562167315L137.44384783336093,91.0312235018294L137.54330068996975,87.07994722109318L137.74220640318734,82.94799095020811L137.84165925979613,85.29834606697719L138.14001782962254,77.1641800292869L138.43837639944894,83.67281963157588L138.53782925605773,90.07613809838125L138.63728211266653,91.89380869721333L138.73673496927535,85.27826444894852L138.93564068249293,88.89209258233944L139.13454639571054,90.72646728672892L139.33345210892813,90.2465414242466L139.53235782214574,92.78345138136126L139.63181067875453,89.2477397302623L139.83071639197212,88.12827013253116L140.02962210518973,89.08769097764515L140.22852781840731,81.02880347942481L140.3279806750161,83.0239244117575L140.42743353162496,88.5316227165087L140.52688638823375,81.60742774405148L140.62633924484254,87.27292581115063L141.62086781093052,77.50880363767087L142.01867923736572,79.18047092598529L142.41649066380091,66.44851479332478L142.51594352040973,71.09771153334532L142.61539637701853,81.8528839513273L142.81430209023614,88.28469099875409L143.11266066006252,81.71912003859185L143.41101922988892,86.33333090618169L143.6099249431065,78.49138783164392L143.80883065632412,84.7431897058694L143.9082835129329,78.44979525122352L144.1071892261505,87.63292753076936L144.5050006525857,91.32903281495707L144.60445350919449,91.32899856295231L144.70390636580333,90.54538403931623L144.90281207902092,91.31779111335226L145.0022649356297,85.57689873024297L145.30062350545612,83.75413467780119L145.4000763620649,90.62951318984999L145.4995292186737,93.41523215390396L145.59898207528252,92.4423275969303L145.7978877885001,91.90352320045261L146.2951520715441,90.56622255960768L146.5935106413705,88.9626058227062L147.09077492441452,95.11654774002247L147.2896806376321,67.51784997304287L147.6874920640673,80.39474823124182L147.88639777728488,87.50190452910222L148.28420920372008,89.5507149308209L148.38366206032887,87.59192831606317L148.4831149169377,85.74236072535194L148.5825677735465,85.05334395876132L148.78147348676407,82.36631698178053L149.0798320565905,90.1652236291678L149.1792849131993,80.07936101664697L149.3781906264169,81.09831086671065L149.4776434830257,88.76294480614786L149.5770963396345,87.95532927519312L150.17381347928728,89.67621014458105L150.3727191925049,82.95038808880624L150.47217204911368,84.92046575840108L150.67107776233127,85.02878723309443L150.77053061894009,91.63500370617908L151.06888918876646,87.00683728906407L151.16834204537525,53.71723452418172L151.66560632841927,66.03067388349393L151.7650591850281,71.69072162697027L151.86451204163689,64.71974085581759L152.16287061146326,79.72149841870247L152.36177632468087,91.36439278879647L152.46122918128967,91.81968126826084L152.56068203789846,91.00204884322758L152.66013489450728,88.29674947518244L152.75958775111607,90.29006263896845L152.85904060772486,89.61960592254033L153.45575774737767,83.80821933876476L153.95302203042166,88.16164068427535L154.05247488703048,90.67887762841414L154.15192774363928,87.15998782702667L154.64919202668327,85.50821896362422L155.04700345311846,85.31819676978442L155.24590916633605,91.99722502936646L155.34536202294484,89.92720367345763L155.74317344938007,93.81000215492298L156.14098487581526,88.44546800227282L156.83715487207684,93.40800198971412L157.03606058529445,94.58745444913721L157.33441915512083,89.64799711528875L157.53332486833844,95.96496743494552L157.63277772494723,95.07857227136913L157.93113629477367,91.68151214474686L158.03058915138246,84.48309306377669L158.22949486460004,89.50444435686379L158.32894772120886,97.80912719001229L158.62730629103524,86.33886838031694L160.31800485338485,88.2143659067983L160.41745770999364,87.90914925327306L160.51691056660243,89.83360821299466L160.61636342321123,90.74389452980806L161.01417484964642,92.4898054170645L161.31253341947283,91.78248971501257L161.41198627608162,90.02938456214876L161.71034484590803,93.97892093504207L161.80979770251682,92.61331680686682L161.9092505591256,90.26578363554947L162.30706198556084,89.52691494878374L162.40651484216963,90.71249077789015L162.50596769877842,90.49910114249688L162.70487341199603,85.3209164805475L162.90377912521362,92.21651195141166L163.10268483843123,91.69949595575589L163.30159055164881,89.78080137479103L163.8983076913016,98.50943404488619L164.0972134045192,91.65026502004176L164.59447768756323,91.98258594705334L164.69393054417202,91.13163446035033L165.5890062536512,88.39694456551025L165.68845911026,92.15396936453305L166.78244053295683,97.78969554226637L167.180251959392,96.11772716337738L167.27970481600082,102.54560819143298L167.5780633858272,93.31321992563723L167.67751624243598,101.36025609138431L167.9758748122624,101.21300216954917L168.17478052548,80.95774050357457L168.2742333820888,86.08385787933156L168.3736862386976,85.49768576021437L169.0698562349592,85.68782559432881L169.169309091568,91.58255330793313L169.2687619481768,94.65571493761448L169.3682148047856,80.65256626196695L169.666573374612,90.86322461932116L169.86547908782958,94.42428949506758L169.96493194443838,79.03929664861388L170.0643848010472,84.30095938649471L170.163837657656,78.61699333167385L170.66110194069998,82.84234347929454L170.8600076539176,83.81811478232001L171.35727193696158,83.22693113139759L171.4567247935704,86.0348683256202L171.75508336339678,77.57913462331528L172.45125335965838,79.60561880444219L172.65015907287597,90.57664689190709L173.64468763896397,96.61660627723072L173.84359335218159,95.80217562216578L173.94304620879038,86.51680051024235L174.14195192200796,77.74046885778263L174.24140477861675,88.43060881028781L174.44031049183437,95.4881317347645L174.53976334844316,92.41040599769335L175.13648048809594,97.62182744200946L175.2359333447048,99.8749445690958L175.83265048435757,97.92317263074234L175.93210334096636,100.41063942695494L176.82717905044555,102.42463962346969L177.22499047688075,101.34990709422993L177.42389619009836,97.76056729761292L177.82170761653356,98.70724216007656L178.41842475618634,94.27044383606635L178.71678332601275,93.13572965743495L178.91568903923033,83.06785712207537L179.21404760905673,86.97923852231798L179.41295332227432,95.49378316812016L179.51240617888317,98.94846313874608L179.91021760531834,100.21959153547647L180.00967046192716,91.33376570433231L180.20857617514474,93.1900756735743L180.30802903175353,83.98404279430599L180.50693474497115,84.35105234803238L180.80529331479752,90.42476604663275L180.90474617140634,91.19811948318784L181.00419902801514,98.7411264311217L181.40201045445033,95.13568725250686L181.60091616766792,102.1010394603407L181.7003690242767,103.14186246798674L181.79982188088553,98.37595918964482L181.99872759410314,96.18357445635468L182.19763330732073,100.7613241397756L182.39653902053834,95.5892026259613L182.69489759036472,95.95377182540045L182.99325616019112,91.71461964091029L183.09270901679992,92.45559699544886L183.1921618734087,97.65137452170804L183.4905204432351,91.2214398848212L183.68942615645273,90.97331066414336L183.78887901306155,95.27176134280612L184.08723758288792,93.19195403439258L184.18669043949674,86.56525389072898L184.48504900932312,86.96762758109578L184.88286043575832,97.43106667980328L184.9823132923671,96.4132902775436L185.0817661489759,93.21079997694743L185.7779361452375,95.7333638369776L185.9768418584551,95.99526871303928L186.07629471506394,100.50387846508266L186.17574757167273,94.49536066661838L186.4741061414991,91.53052268576138L186.57355899810793,86.34988740732624L186.7724647113255,89.06905219010285L187.1702761377607,85.49715811466955L187.2697289943695,91.86642652571969L187.3691818509783,92.37602572117905L187.6675404208047,100.49927670418793L188.0653518472399,94.37260003949231L188.1648047038487,101.70831060937444L188.3637104170663,99.90574600329366L188.46316327367512,96.95015555475418L188.5626161302839,101.32162377578248L188.6620689868927,103.54265544654677L188.86097470011032,106.68686629802414L189.1593332699367,104.0474087220885L189.2587861265455,101.91408677255815L189.3582389831543,96.77004126298871L189.4576918397631,90.70586270144426L189.8555032661983,91.50283523888265L189.9549561228071,94.82342906218128L190.4522204058511,93.79709334483975L190.6511261190687,92.84494149921102L190.7505789756775,93.59280585794586L190.8500318322863,95.33973133619052L191.2478432587215,92.40605724114972L191.54620182854788,96.26483734257974L191.7451075417655,95.21825542313967L192.04346611159187,95.28641999707571L192.14291896820066,94.78508966239983L192.24237182480948,94.90847840683834L192.34182468141827,97.57177850843439L192.44127753802707,102.46406107473537L192.6401832512447,97.85653805304197L192.8390889644623,107.4356397609762L193.1374475342887,102.14069932754805L193.2369003908975,97.49712289731714L193.43580610411507,101.0684581773655L193.53525896072387,95.98155879198272L193.6347118173327,96.29188203296228L193.93307038715906,92.1653867587398L194.13197610037668,91.40075167359048L194.23142895698547,96.36137721564691L194.33088181359426,92.94847524897824L194.43033467020305,97.93060216908962L195.12650466646468,96.7889719948989L195.22595752307348,90.83090516754159L195.52431609289988,81.82123226427291L196.02158037594387,87.48158219297387L196.41939180237907,90.14540116150768L197.01610894203188,93.45306504868049L197.11556179864067,98.52556764286598L197.31446751185825,94.52259999933234L197.71227893829345,89.5557840564687L197.81173179490227,94.5334767028718L197.91118465151106,93.8101769646825L198.11009036472865,92.60014023532953L198.20954322133744,91.7342749260469L198.30899607794626,91.57045996740048L198.70680750438143,90.0098702727492L199.10461893081663,93.06932571157331L199.30352464403427,98.53335302058484L199.40297750064306,85.87774187801756L200.19860035351346,91.54860314083379L200.29805321012225,94.93634262919183L200.59641177994862,92.3400618431111L200.89477034977503,91.4294181588362L201.29258177621026,88.17567418267998L201.49148748942784,88.19875934001084L201.88929891586304,90.9134130135046L202.38656319890703,66.42306992600321L202.48601605551582,79.42463729735768L202.88382748195102,86.69130563231147L202.98328033855984,90.45545905532063L203.2816389083862,89.66557519441335L203.381091764995,92.23978539119028L203.48054462160385,96.73697236990085L203.77890319143023,98.94116007054826L204.07726176125664,82.15707482341148L204.17671461786543,95.63703883595034L204.375620331083,97.90947570423471L204.57452604430063,97.85868867986906L204.67397890090942,96.03169242601874L204.7734317575182,95.34069893557313L205.4696017537798,98.67728975724285L205.66850746699743,99.11635715242257L205.76796032360622,96.9305415441956L206.36467746325903,96.56067895250504L206.46413031986782,94.44777989901257L206.5635831764766,98.53387822923679L206.6630360330854,101.05195647223354L206.76248888969423,98.01945688803808L206.9613946029118,92.12509967050089L207.25975317273821,99.30606680965936L207.95592316899982,92.64793884635893L208.0553760256086,94.3663323066866L208.15482888221743,94.58305983069523L209.0499045916966,96.08058120139624L209.348263161523,95.69541206288727L209.44771601813179,98.33549074797597L209.84552744456698,102.35367105551144L209.94498030117578,103.03968296654214L210.04443315778462,100.27576987751719L210.14388601439342,100.38823005186408L210.4422445842198,98.02944522183833L210.5416974408286,102.98010870477046L210.6411502974374,89.5254892237298L210.7406031540462,94.88537623943135L211.1384145804814,98.63942118463879L211.2378674370902,86.23262307457343L211.33732029369898,94.88937589006996L211.63567886352538,92.6880659476198L211.83458457674297,94.31598143380413L212.03349028996058,103.46345682429391L212.2323960031782,99.81345751137562L212.331848859787,100.88814438904014L212.4313017163958,106.12963736630162L212.6302074296134,107.59639268527533L212.72966028622218,106.54520225730562L213.22692456926617,95.55824130456236L213.52528313909258,87.02421532654638L213.72418885231016,96.58857541120167L214.02254742213657,100.87755576153961L214.320905991963,94.38998388909043L214.4203588485718,99.96580643125775L214.61926456178938,98.33865127270572L214.818170275007,99.25291340866808L215.41488741465977,88.28902991307265L215.51434027126857,97.04238395976161L215.71324598448618,90.97404526678164L215.91215169770376,95.44229551523156L216.80722740718298,90.8222227307383L216.90668026379177,94.97728915094153L217.00613312040056,100.68203106879704L217.10558597700938,97.51383660704509L218.29902025631495,95.26217185669131L218.49792596953256,88.42082788590105L218.69683168275017,87.70364263425867L218.89573739596776,99.6756584440648L219.29354882240295,94.97300313912721L219.39300167901175,92.44632548502179L219.49245453562057,70.84081422281629L219.59190739222936,71.24648055012439L219.69136024883815,85.94264567897311L219.79081310544694,94.14815904931066L219.89026596205574,96.01756240520056L220.08917167527335,105.20232345170918L220.18862453188214,105.00404102969019L220.28807738849093,94.71485136031639L220.48698310170855,87.74901040670836L220.98424738475256,93.60869018424961L221.28260595457894,59.63250016201763L221.48151166779655,71.98562700417028L221.58096452440535,90.07334324682041L221.77987023762293,92.852047763127L222.07822880744934,93.20658112249815L222.37658737727574,99.62113105894248L222.57549309049332,106.91871408295754L222.87385166031973,100.07683112375614L223.17221023014613,98.41881969444744L223.27166308675496,101.6234676241716L223.57002165658133,97.78136537550023L223.76892736979894,92.93208937759296L223.86838022640774,100.49847314274336L224.66400307927813,105.70416274679557L224.76345593588692,100.53650197923776L224.9623616491045,102.94065041809311L225.45962593214853,106.00578460093183L225.95689021519252,98.69520960099398L226.05634307180134,97.75986808670189L226.15579592841013,99.39206123899037L226.3547016416277,98.86998069331533L226.4541544982365,102.02226287438839L226.65306021145412,102.95074293815634L226.8519659246717,98.53364688168693L227.1503244944981,92.81317402201644L227.2497773511069,98.50611708947292L227.64758877754213,93.14688039887628L228.14485306058612,99.71084318842496L228.3437587738037,98.2097542531343L228.9404759134565,99.71859743020069L229.0399287700653,103.13769117403918L229.1393816266741,103.04519213462201L229.2388344832829,96.46507870556847L229.3382873398917,102.2832905594551L229.6366459097181,104.40419005631661L229.83555162293572,102.60864586556752L230.1339101927621,104.04451974560467L230.2333630493709,106.06042704863728L230.5317216191973,96.93933258856839L230.7306273324149,85.85295501401535L230.9295330456325,87.45390891885896L231.0289859022413,92.05920736822283L231.12843875885008,94.32848674898743L231.52625018528528,86.25519417652976L231.9240616117205,84.62537438716656L232.0235144683293,85.98038240802894L232.1229673249381,87.22758190602813L232.52077875137329,89.67742527709768L232.6202316079821,97.72979466691508L232.8191373211997,103.24802212814258L232.91859017780848,103.32598770531546L233.1174958910261,99.43602870013257L233.2169487476349,99.40307857065704L233.31640160424368,101.65008816597897L233.51530731746126,105.63070497547652L233.61476017407008,95.2070425821819L233.71421303067888,98.19480769157128L233.81366588728767,102.65237804666612L234.1120244571141,100.93271005453065L234.3109301703317,98.35949458564991L234.41038302694048,103.01420564232525L235.0071001665933,94.70542842855158L235.10655302320208,102.43354443038511L235.20600587981087,101.51432193848731L235.60381730624607,97.75746342251756L235.80272301946366,98.74638209180169L236.0016287326813,101.24870285133245L236.3994401591165,98.81477360537971L237.09561015537807,93.36938012713651L237.39396872520447,92.21639421518621L237.59287443842206,91.30279305597908L237.79178015163967,90.9075584355854L237.89123300824846,93.35750121900773L238.09013872146605,87.56612711619469L238.2890444346837,83.5910089548846L238.48795014790127,84.90417450608581L238.58740300451007,74.56728825380021L238.68685586111886,84.322113398373L238.98521443094526,94.84271693400818L239.08466728755405,97.25782875713985L239.38302585738046,89.54972658344977L239.48247871398925,92.29036274526487L239.78083728381566,96.32495079089306L240.07919585364203,92.38946310903812L240.47700728007726,96.27834677679662L241.07372441973007,100.3888493257165L241.17317727633886,105.032817316635L241.47153584616524,104.96460419779159L241.57098870277406,106.012899772188L241.76989441599164,107.07466151469202L241.96880012920923,99.96387409533988L242.06825298581805,100.18321268047164L242.26715869903563,97.11738205916726L242.36661155564443,97.04539185319928L242.56551726886207,98.65899513750765L242.66497012547086,93.80825950847519L242.76442298207965,99.88843773305406L242.86387583868844,101.95174191250597L243.06278155190606,98.44153838566561L243.26168726512364,101.27266143242879L243.36114012173243,102.97884265621492L243.75895154816763,107.46136129527466L243.85840440477642,103.46469041015617L244.05731011799404,101.82362847594982L244.3556686878204,98.1760523078934L244.55457440103802,105.65660815836291L244.85293297086446,106.24634046331074L245.44965011051724,102.89432784516787L246.04636725017002,104.40176242643756L246.44417867660522,107.6992925136348L246.74253724643162,105.02199094769793L247.23980152947564,93.16819934290106L247.43870724269323,100.54924237381879L247.73706581251963,97.22688928376165L248.3337829521724,96.27652615023474L248.4332358087812,97.95890023763948L248.63214152199882,89.40256434963793L248.9305000918252,99.64770326003915L249.22885866165163,99.22986806533571L249.32831151826042,98.45114254082858L249.4277643748692,92.5486120994201L250.3228400843484,93.02375838103491L250.4222929409572,98.20349002321338L250.521745797566,99.7639487122703L250.6211986541748,98.91226764883005L250.8201043673924,104.34026221763543L251.01901008061,104.21526560307589L251.31736865043638,97.21625169326231L251.4168215070452,104.825897300376L251.8146329334804,102.44889493241266L252.013538646698,101.78840121978202L252.1129915033068,93.20517118951116L252.2124443599156,88.19965722685373L252.3118972165244,84.176131942992L253.10752006939478,84.58624178583554L254.002595778874,94.2803694569802L254.20150149209158,100.41453826369958L254.49986006191799,105.47229038067353L254.99712434496197,101.23707865103331L255.29548291478838,101.63984536261097L255.39493577139717,98.89411328037046L255.6932943412236,103.49439661951976L255.7927471978324,103.10694887482255L256.09110576765875,96.51584116945921L256.38946433748515,90.37026822622069L256.58837005070274,102.30278126179168L256.7872757639204,98.95657840908359L257.0856343337468,92.33096215203055L257.3839929035732,97.89778290882973L257.48344576018195,100.3062181567027L257.58289861679077,97.15043545538109L257.78180433000836,99.24564306426115L258.57742718287875,100.71803690026293L258.77633289609633,101.39847237307946L258.975238609314,98.28854110006438L259.17414432253156,101.99163635091736L259.67140860557555,94.96570106034068L260.16867288861954,92.28750607980733L260.56648431505477,95.82888750731442L260.96429574148993,92.88103905445402L261.06374859809875,91.31947048283912L261.1632014547076,95.33356775183826L261.56101288114274,99.57665548762252L261.66046573775157,94.88470001244144L261.75991859436033,95.59666877838049L261.85937145096915,96.85661321093049L262.15773002079555,99.92144549494417L262.65499430383954,103.72298806130298L262.95335287366595,101.13523598590201L263.15225858688353,102.96581595365214L263.55007001331876,101.2166002516532L263.6495228699275,105.9665276683084L263.74897572653634,106.01649060333042L263.84842858314516,99.00392464155658L264.04733429636275,99.4752188800477L264.24624000958033,101.57757183287211L264.54459857940674,102.23751608347375L264.84295714923314,102.97843686388042L264.9424100058419,96.93925246024138L265.14131571905955,104.20678442299265L265.34022143227713,88.10574385056985L266.03639142853876,95.47817038917144L266.3347499983651,89.89947208601917L266.43420285497393,94.5263946525902L266.6331085681915,98.03036263885195L266.8320142814091,102.59112711188003L267.03091999462674,99.80741680333186L267.1303728512355,97.80275946657632L267.3292785644531,89.40136506431864L267.62763713427955,96.92812942827248L267.82654284749714,102.62345358495435L268.12490141732354,94.80213817507406L268.3238071305411,89.14973409641813L268.42325998714995,90.21632956323968" fill="none"></path></g><g><path style="fill: none;" stroke="rgb(0, 119, 187)" stroke-width="2px" d="M268.5227128437587,81.62153988919516Z" fill="none"></path></g></g></g></g><g opacity="0.2"><g><g><g><path style="fill: none;" stroke="rgb(255, 112, 67)" stroke-width="2px" d="M21.6807227407183,-0.809299380236L21.780175597327094,26.67541422845989L21.879628453935894,15.461125219093677L22.277439880371094,17.381099261922262L23.17251558985029,67.3853173277256L23.470874159676686,57.16286345145409L23.868685586111887,53.005823329275934L24.067591299329482,65.06456711407213L24.266497012547084,63.352075009399194L24.365949869155884,51.25590028262469L24.564855582373482,63.46449507932949L24.76376129559108,40.08942320452764L25.161572722026282,58.40911234967212L25.26102557863508,35.525276522753764L25.360478435243877,61.03131419207944L25.45993129185268,47.325778618898546L25.55938414846148,60.109007298801096L26.156101288114275,69.23348334248703L26.355007001331874,65.85411610548977L26.454459857940673,55.18763370362581L26.553912714549476,72.45337143859092L26.65336557115827,70.11225158200818L26.95172414098467,53.41035319796493L27.05117699759347,55.67699290257725L27.150629854202272,75.38403393316503L27.250082710811068,66.22203151450424L27.747346993855068,70.30028639620116L28.244611276899064,66.09004768028217L28.542969846725462,74.56547331079764L28.64242270333426,27.58401058123457L29.239139842987058,87.46829013903766L30.034762695857456,80.52584714669354L30.333121265683857,81.41223942227202L30.432574122292657,86.25282368403862L31.12874411855425,66.5673823216689L31.42710268838065,65.02671202544252L31.62600840159825,82.9977420195421L32.322178397859844,85.72060446597209L32.42163125446864,56.56121142656776L32.71998982429504,67.35402590852505L32.81944268090384,79.72248157810941L33.51561267716544,71.96160520739329L33.714518390383034,64.90417605787843L33.91342410360064,68.67649395998387L34.01287696020944,58.43988418922482L34.11232981681824,87.99203702774423L34.808499813079834,-45.59540024993977L35.30576409612383,23.651153171607465L35.50466980934143,28.282824000270242L35.60412266595023,69.61776020857587L35.703575522559035,30.975465997794235L36.001934092385426,6.987905151165027L36.30029266221183,48.792562568466344L36.49919837542942,39.57678895808545L36.59865123203822,55.14417987919888L36.89700980186463,66.38584755490729L37.49372694151742,51.00092452318837L37.59317979812622,43.43063845023938L37.792085511343814,40.795001762651744L38.09044408117022,41.35750505162196L38.28934979438782,67.93176666594366L38.38880265099662,58.2717948713098L38.587708364214215,59.84175249380929L38.786614077431814,41.26092685911818L38.88606693404062,35.10038761480178L39.582236930302216,74.93614567304564L40.3778597831726,63.589851622124804L40.4773126397814,56.32314851485251L40.57676549639021,62.98251603211089L40.9745769228254,65.44344671402303L41.9691054889134,87.87998808613384L42.0685583455222,66.47586207798201L42.2674640587398,3.4041204355678514L42.466369771957396,74.20414277854479L42.665275485174995,42.98121265850899L42.96363405500139,64.7824671762844L43.06308691161019,44.069424514448094L43.16253976821899,55.099209730493506L43.460898338045396,68.47349737266586L44.45542690413339,32.32402967197505L44.65433261735099,-29.620828543566645L45.251049757003784,63.59128311707298L45.54940832683018,32.95501143779962L45.64886118343898,57.129377073332996L45.74831404004778,84.27037283947175L45.84776689665658,64.25773414661353L46.046672609874186,57.543747144332436L46.444484036309376,79.05946613644448L46.64338974952698,79.41933336275031L46.84229546274457,56.608302308529694L47.04120117596217,5.1767353280643L47.53846545900617,45.39169109624755L48.135182598658965,35.57123281242344L48.83135259492057,64.18157861537043L48.930805451529366,36.18528052319437L49.42806973457336,44.878208556502734L49.52752259118216,53.62408069556114L49.82588116100857,80.90587194260297L49.92533401761737,66.9957174211628L50.02478687422616,49.621239088467526L50.42259830066136,43.37288027999694L50.52205115727016,67.53860392750983L50.720956870487754,75.97860270897445L51.01931544031416,77.03639264634819L51.417126866749356,83.70006525211738L51.516579723358156,80.04558059157961L51.616032579966955,61.687702342317614L51.715485436575754,88.39896862684628L51.914391149793346,54.10877428134814L52.21274971961975,-23.894997202180107L52.31220257622855,70.53692841663451L52.41165543283735,51.44471976812259L52.71001400266375,62.920357340361086L53.008372572490146,65.55386269102587L53.60508971214295,71.59504706766302L53.80399542536055,71.397262182323L54.10235399518694,63.079104828280954L54.201806851795745,77.64133710961534L54.40071256501334,73.36574269656228L54.500165421622135,52.11165856631215L54.99742970466614,95.33199556353128L55.09688256127494,55.10013224946011L55.494693987710136,79.3753970715075L55.693599700927734,80.83257940125623L55.99195827075413,-297.6434874255774L56.38976969718934,15.344251609324605L56.78758112362453,38.57984285784244L56.98648683684213,-10.294915090181705L57.38429826327733,48.44872808558012L57.48375111988613,40.319872683851834L57.58320397649493,35.355373977904385L57.78210968971252,63.837722925151645L58.279373972756524,24.04475066035889L58.378826829365316,67.84574972505754L58.77663825580052,75.82072472168977L58.87609111240932,46.06576616184544L58.97554396901812,54.51743957988743L59.97007253510611,69.04229923940807L60.46733681815011,61.39243265100664L61.163506814411704,94.19324133225518L61.26295967102051,90.03798262601254L61.76022395406451,76.91852759378168L61.85967681067331,63.69612156561107L62.058582523890905,57.56403195793144L62.2574882371085,85.48085557131787L62.6552996635437,63.491555635683206L63.550375373022895,83.85193626245285L63.749281086240494,79.0166591356608L63.84873394284929,95.66856123318064L64.14709251267568,80.42729667226115L64.7438096523285,97.69782726438609L65.53943250519889,-28.396126295235277L65.63888536180768,-0.6760855207251255L65.73833821841649,1.2217904815701144L65.93724393163409,0.7234923919422767L66.03669678824289,-37.71331336994491L68.12520677702767,-8.823539753113453L68.42356534685408,17.59073374433331L68.52301820346288,-0.8166053063048524L68.72192391668047,-27.36670116516804L68.92082962989807,21.93500280206695L69.21918819972447,2.0117318086402105L70.31316962242127,36.885907169164405L70.71098104885647,64.043094733717L70.81043390546526,-30.860503168689334L71.00933961868286,54.16362704702909L71.30769818850926,9.11922086667619L71.50660390172686,35.229752343452L72.00386818477085,17.016534611453157L72.10332104137966,14.616543199668289L72.70003818103245,52.7768159485662L72.89894389425005,63.1095373505126L72.99839675085884,56.92213901950186L73.09784960746765,50.74777259435269L73.19730246407644,60.71126373266555L73.29675532068525,66.04597884321083L73.39620817729404,37.06272330443017L73.59511389051166,66.28551566453939L73.79401960372925,56.43290706454582L74.29128388677324,15.25156496234661L74.39073674338204,8.725686999922463L74.49018959999086,19.054665307671034L74.68909531320845,14.644664122650287L75.08690673964364,11.76534458021752L75.28581245286124,26.582356453161996L75.48471816607884,40.07214983215295L75.88252959251405,43.942997001358215L75.98198244912284,52.41297234740433L76.08143530573163,26.361906231142488L76.47924673216683,24.953781763451165L76.87705815860204,51.434794736481884L76.97651101521083,45.17679719536023L77.27486958503724,52.778183821516684L77.47377529825482,32.06077244917186L77.57322815486363,52.88406142935049L77.67268101147242,57.23275221592406L77.77213386808124,29.683759182221824L77.87158672469003,68.05493885348471L77.97103958129884,62.610899943563716L78.16994529451642,27.979198619928415L78.26939815112523,52.36157637693157L78.76666243416922,73.79579558999399L78.86611529077801,54.403428960014715L79.16447386060443,-0.9118156258581551L79.26392671721322,70.45631934555263L79.56228528703961,66.09542373908755L79.76119100025721,60.55439309367774L80.15900242669242,42.417108215930064L80.35790813991002,64.9175154700622L80.55681385312762,47.064345226696L80.7557195663452,62.607040209036775L81.05407813617163,73.65229617418879L81.45188956260681,65.92616801788142L81.55134241921562,71.14635292890614L81.75024813243321,63.90159941083926L82.0486067022596,53.33074087151363L82.44641812869482,56.27667264553498L82.9436824117388,46.85883557046896L83.63985240800041,65.51379143614315L83.7393052646092,29.102126879277424L83.9382109778268,12.561595088725884L84.03766383443559,59.43494283686949L84.1371166910444,65.89252258476608L84.23656954765319,70.5711570513954L84.4354752608708,54.7086236829664L84.7338338306972,67.25003575328958L85.13164525713239,39.150818476172624L85.23109811374118,62.261021370896295L85.6289095401764,59.324951006517956L85.92726811000279,55.57689429286757L86.32507953643798,83.30413495678374L86.62343810626439,66.83391607735348L86.7228909628732,53.07094044391864L86.82234381948199,44.70597320507114L86.92179667609079,51.97202948870018L87.02124953269958,32.057856440944086L87.22015524591718,64.21456662117623L87.31960810252598,52.79197919135061L87.41906095913478,80.7283506635294L87.6179666723524,74.76459955992243L87.71741952896119,49.821160612563524L87.81687238556998,80.43123593428521L87.91632524217879,34.359361000294264L88.11523095539638,63.007646721201134L88.31413666861397,36.2633341107021L88.41358952522278,83.73111278699344L89.10975952148438,72.33130203234327L89.40811809131077,76.6700889946087L89.50757094791958,78.72296939062596L89.60702380452837,25.38208505194621L89.80592951774598,76.90742025335044L90.10428808757237,75.88414524972723L90.30319380078997,79.96171089311576L90.50209951400757,73.06784329601317L90.89991094044277,63.63448245350913L91.29772236687796,74.98954573644585L91.59608093670435,75.65427897204859L91.69553379331316,54.67917730169905L91.79498664992195,59.71937558123944L91.89443950653077,83.78937993321745L91.99389236313957,84.02231067045182L92.49115664618355,59.80607115676765L93.08787378583636,68.64767319502721L93.28677949905396,59.00359629615128L93.38623235566276,87.63001195534986L93.48568521227155,79.12256855449345L93.78404378209795,70.86938516559928L94.08240235192434,72.94257158254811L94.18185520853315,-38.47122102117466L94.48021377835956,76.44419909178612L94.57966663496835,50.94967700404357L94.67911949157715,80.71736526526041L94.87802520479474,72.12150849493798L95.07693091801234,81.23055620418245L95.67364805766515,86.91665560800732L95.97200662749154,62.31440022696393L96.07145948410033,47.871867432462984L96.36981805392675,46.50300834101689L96.46927091053554,60.58717962982417L96.56872376714435,78.6261632192971L96.76762948036193,93.3694955170755L96.86708233697074,77.03261774115151L97.46379947662354,54.17024373478956L97.86161090305873,57.46050836401242L97.96106375966754,95.43348855535714L98.15996947288512,67.71215413356049L98.35887518610272,93.03737808543178L98.55778089932033,66.97638693752924L98.65723375592913,70.52611267702605L98.75668661253793,70.49873401068385L98.85613946914673,25.065915534391824L98.95559232575553,88.27304478790484L99.25395089558192,76.45498302039573L99.45285660879952,83.07604479320747L99.65176232201713,91.5154285620277L99.95012089184353,73.24910766928457L100.14902660506112,76.83025737381047L100.24847946166992,74.90290317924905L100.34793231827872,-8.362407513806845L100.74574374471392,79.51797927017924L100.94464945793152,94.40503896258792L101.04410231454032,83.28980410180253L101.24300802775791,47.951225270923494L101.54136659758431,59.49933890220496L101.93917802401951,58.564816585368824L102.23753659384592,77.3422182874437L102.53589516367231,59.907039267112516L102.6353480202811,55.58421082260271L102.83425373349871,109.20500014014965L103.03315944671631,84.98672472253918L103.23206515993391,75.49307143355111L103.7293294429779,90.3556472605128L104.0276880128043,86.35057358166665L104.12714086941311,104.12706341230876L104.2265937260219,74.39436194799202L104.5249522958483,71.73261373218298L105.3205751487187,65.80951708510429L105.4200280053275,81.29370103689655L105.5194808619363,69.06824641080209L105.71838657515389,78.1258345275761L106.1161980015891,85.08767162555148L106.3151037148067,69.69853893831828L106.41455657141549,108.26930611818926L106.81236799785069,65.78877631385512L107.01127371106828,90.23146772467487L107.11072656767708,75.44684475039122L107.4090851375035,62.88122981177754L107.6079908507211,77.4967561198493L107.80689656393868,82.79750768729076L108.10525513376508,76.47271235042058L108.30416084698268,73.05095165562466L108.40361370359149,101.56418908275373L108.60251941680909,48.96771392812571L108.70197227341788,60.83724589177155L109.00033084324427,85.37774021855074L109.29868941307069,32.566217409874305L109.39814226967948,87.9438963828203L110.09431226594107,24.619289110560093L110.19376512254988,75.03100607161161L110.29321797915867,81.18269125458187L110.39267083576746,86.51333455727456L110.59157654898507,70.86624648037957L110.69102940559388,80.19471585601411L110.88993511881147,19.14886827892747L110.98938797542027,54.334547543841616L111.08884083202906,86.83076060928346L111.38719940185547,87.7786912621342L111.48665225846426,84.65938424255586L111.58610511507307,85.74855573029356L111.68555797168187,80.94691873478371L111.88446368489947,97.48216989952641L112.48118082455225,74.65414116825445L112.58063368116107,89.40090375207535L112.87899225098747,101.08682793220129L113.57516224724905,89.73203504275477L113.87352081707546,87.06740793154995L114.56969081333705,26.502171528731427L114.66914366994585,35.58878188012148L114.76859652655466,30.42870915325398L114.96750223977226,44.2945615569646L115.06695509638105,26.08171495328566L115.16640795298986,18.892598872204648L115.46476652281625,38.13263323236516L115.56421937942504,64.51726948255146L115.76312509264264,64.78494843419458L115.96203080586025,67.36014422397022L116.06148366246904,76.21195759286013L116.45929508890424,64.32093199765905L116.55874794551305,72.47781288937279L116.95655937194823,36.61611808793101L117.05601222855705,85.45863028678912L117.15546508516584,67.40532644600125L117.25491794177465,75.59884830655523L117.55327651160104,61.17109172101937L117.65272936820983,85.89555965780522L117.75218222481864,68.25600557353926L118.05054079464504,68.47367763499267L118.14999365125384,65.3393717294573L118.94561650412423,80.6630161737279L119.34342793055943,73.5953756935827L119.54233364377703,79.22978752611203L119.74123935699463,80.15789462484707L119.84069221360343,88.46370931133595L120.13905078342982,87.50029200387917L120.23850364003863,88.28884955249936L120.43740935325623,86.57752915295066L120.53686220986503,87.30678569788427L120.63631506647383,55.32630845127233L120.73576792308262,87.40464693400827L121.03412649290902,67.34253153427449L121.82974934577942,95.16041233757608L122.02865505899702,91.67765405248832L122.22756077221462,85.34340554712702L122.42646648543223,78.63533008879858L122.52591934204102,75.94268809127459L122.62537219864981,72.58349432938036L122.82427791186741,78.84526147386555L123.02318362508501,75.31902285518515L123.1226364816938,105.51561881387516L123.22208933830261,91.09247482317232L123.52044790812901,93.52912310929685L123.71935362134661,85.26981080129121L124.4155236176082,92.04300337426236L124.514976474217,103.81971084326852L124.81333504404341,86.36295866388497L125.01224075726101,71.00950201186026L125.6089578969138,81.97498659556675L125.7084107535226,58.51237085193407L125.9073164667402,92.2223908986017L126.1062221799578,100.53515628833895L126.504033606393,81.94283627939728L126.9018450328282,102.14835036010658L127.10075074604579,79.27862801301063L127.29965645926339,100.27172940687524L127.5980150290898,97.1469031789967L127.69746788569859,99.41962938805534L127.79692074230738,71.33876175544077L127.8963735989162,82.01732703503399L128.49309073856898,97.12844219599833L128.5925435951778,63.364173792627874L129.18926073483058,89.45745840619469L129.38816644804817,86.29603362414105L129.58707216126578,90.42533455532339L129.68652501787457,111.17518784466046L129.7859778744834,75.29726943380598L130.68105358396258,97.54281226699777L130.87995929718016,66.59412476803413L131.17831786700657,82.7490436305452L131.57612929344177,71.90498162944311L131.77503500665938,60.65307081210552L131.87448786326817,87.08826534312823L132.27229928970337,94.7182871700814L132.37175214631216,46.7189520048662L132.57065785952977,82.06944405481397L132.67011071613857,78.88508884442376L132.7695635727474,80.21405164148081L133.06792214257376,81.17161572514948L133.16737499918256,102.49290059046689L134.16190356527056,91.51291019128553L134.36080927848815,90.35888137872905L134.46026213509697,77.45414528689184L134.75862070492335,77.80166984564448L134.85807356153214,78.93634696723484L134.95752641814096,83.15976604034336L135.25588498796736,96.57013265704296L135.35533784457616,93.31383687275707L135.45479070118495,86.05142294849617L136.94658355031694,94.36193505914832L137.24494212014335,90.05082896771415L137.44384783336093,91.85052032206374L137.54330068996975,81.15303279998886L137.74220640318734,76.75005654388048L137.84165925979613,88.82387874213083L138.14001782962254,64.96293097275145L138.43837639944894,93.43577903500932L138.53782925605773,99.6811157985893L138.63728211266653,94.62031459546142L138.73673496927535,75.3549480765513L138.93564068249293,94.3128347824258L139.13454639571054,93.47802934331315L139.33345210892813,89.52665263052313L139.53235782214574,96.58881631703326L139.63181067875453,83.94417225361383L139.83071639197212,86.44906573593448L140.02962210518973,90.52682224531611L140.22852781840731,68.9404722320943L140.3279806750161,86.01660581025658L140.42743353162496,96.79317017363547L140.52688638823375,71.22113528536562L140.62633924484254,95.77117291179934L141.62086781093052,62.862620377451215L142.01867923736572,81.68797185845693L142.41649066380091,47.350580594334026L142.51594352040973,78.07150664337615L142.61539637701853,97.98564257830026L142.81430209023614,97.9324015698943L143.11266066006252,71.8707635983485L143.41101922988892,93.25464720756645L143.6099249431065,66.72847321983727L143.80883065632412,94.12089251720761L143.9082835129329,69.00970356925473L144.1071892261505,101.40762595008812L144.5050006525857,96.87319074123866L144.60445350919449,91.32894718494515L144.70390636580333,89.36996225386213L144.90281207902092,92.47640172440629L145.0022649356297,76.96556015557906L145.30062350545612,81.01998859913851L145.4000763620649,100.94258095792316L145.4995292186737,97.59381059998492L145.59898207528252,90.9829707614698L145.7978877885001,91.09531660573612L146.2951520715441,88.56027159834031L146.5935106413705,86.55718071735396L147.09077492441452,104.34746061599685L147.2896806376321,26.119803322573492L147.6874920640673,99.71009561854021L147.88639777728488,98.16263897589283L148.28420920372008,92.62393053339895L148.38366206032887,84.65374839392655L148.4831149169377,82.96800933928512L148.5825677735465,84.01981880887536L148.78147348676407,78.33577651630935L149.0798320565905,101.86358360024872L149.1792849131993,64.9505670978657L149.3781906264169,82.62673564180619L149.4776434830257,100.25989571530363L149.5770963396345,86.743905978761L150.17381347928728,92.25753144866292L150.3727191925049,72.86165500514403L150.47217204911368,87.87558226279333L150.67107776233127,85.19126944513448L150.77053061894009,101.54432841580604L151.06888918876646,80.06458766339153L151.16834204537525,3.7828303768582185L151.66560632841927,84.50083292246222L151.7650591850281,80.18079324218479L151.86451204163689,54.2632696990886L152.16287061146326,102.22413476302978L152.36177632468087,108.82873434393747L152.46122918128967,92.50261398745738L152.56068203789846,89.77560020567768L152.66013489450728,84.2388004231147L152.75958775111607,93.28003238464748L152.85904060772486,88.61392084789816L153.45575774737767,75.0911394631014L153.95302203042166,94.69177270254124L154.05247488703048,94.45473304462229L154.15192774363928,81.8816531249455L154.64919202668327,83.03056566852052L155.04700345311846,85.03316347902472L155.24590916633605,102.01576741873953L155.34536202294484,86.82217163959439L155.74317344938007,99.63419987712103L156.14098487581526,80.39866677329758L156.83715487207684,100.85180297087607L157.03606058529445,96.35663313827183L157.33441915512083,82.23881111451607L157.53332486833844,105.44042291443066L157.63277772494723,93.74897952600452L157.93113629477367,86.5859219548135L158.03058915138246,73.6854644423214L158.22949486460004,97.03647129649443L158.32894772120886,110.26615143973504L158.62730629103524,69.1334801657739L160.31800485338485,91.02761219652041L160.41745770999364,87.45132427298518L160.51691056660243,92.72029665257708L160.61636342321123,92.10932400502816L161.01417484964642,95.10867174794913L161.31253341947283,90.72151616193469L161.41198627608162,87.39972683285305L161.71034484590803,99.90322549438207L161.80979770251682,90.56491061460395L161.9092505591256,86.74448387857342L162.30706198556084,88.41861191863518L162.40651484216963,92.49085452154975L162.50596769877842,90.17901668940698L162.70487341199603,77.5536394876234L162.90377912521362,102.55990515770793L163.10268483843123,90.92397196227228L163.30159055164881,86.9027595033437L163.8983076913016,111.60238305002895L164.0972134045192,81.36151148277509L164.59447768756323,92.48106733757072L164.69393054417202,89.85520723029583L165.5890062536512,84.29490972325016L165.68845911026,97.78950656306722L166.78244053295683,106.24328480886635L167.180251959392,93.60977459504386L167.27970481600082,112.18742973351641L167.5780633858272,79.46463752694359L167.67751624243598,113.43081034000494L167.9758748122624,100.99212128679642L168.17478052548,50.57484800461271L168.2742333820888,93.77303394296706L168.3736862386976,84.61842758153853L169.0698562349592,85.97303534550053L169.169309091568,100.42464487833956L169.2687619481768,99.2654573821365L169.3682148047856,59.64784324849564L169.666573374612,106.1792121553525L169.86547908782958,99.76588680868718L169.96493194443838,55.96180737893338L170.0643848010472,92.19345349331593L170.163837657656,70.09104424944258L170.66110194069998,89.18036870072558L170.8600076539176,85.28177173685822L171.35727193696158,82.34015565501397L171.4567247935704,90.2467741169541L171.75508336339678,64.89553406985794L172.45125335965838,82.64534507613251L172.65015907287597,107.03318902310446L173.64468763896397,105.67654535521615L173.84359335218159,94.58052963956834L173.94304620879038,72.5887378423572L174.14195192200796,64.57597137909306L174.24140477861675,104.46581873904552L174.44031049183437,106.07441612147954L174.53976334844316,87.79381739208662L175.13648048809594,105.43895960848363L175.2359333447048,103.2546202597253L175.83265048435757,94.99551472321218L175.93210334096636,104.14183962127385L176.82717905044555,105.4456399182418L177.22499047688075,99.73780830037032L177.42389619009836,92.3765576026874L177.82170761653356,100.12725445377203L178.41842475618634,87.61524635005105L178.71678332601275,91.43365838948785L178.91568903923033,67.96604831903596L179.21404760905673,92.84631062268193L179.41295332227432,108.26560013682342L179.51240617888317,104.13048309468496L179.91021760531834,102.12628413057206L180.00967046192716,78.00502695761611L180.20857617514474,95.97454062743725L180.30802903175353,70.17499347540354L180.50693474497115,84.90156667862198L180.80529331479752,99.5353365945333L180.90474617140634,92.35814963802045L181.00419902801514,110.05563685302252L181.40201045445033,89.72752848458458L181.60091616766792,112.54906777209146L181.7003690242767,104.70309697945584L181.79982188088553,91.22710427213195L181.99872759410314,92.89499735641942L182.19763330732073,107.62794866490697L182.39653902053834,87.83102035523984L182.69489759036472,96.50062562455918L182.99325616019112,85.35589136417502L183.09270901679992,93.56706302725672L183.1921618734087,105.44504081109682L183.4905204432351,81.57653792949094L183.68942615645273,90.60111683312658L183.78887901306155,101.71943736080027L184.08723758288792,90.07224307177228L184.18669043949674,76.62520367523359L184.48504900932312,87.571188116646L184.88286043575832,113.12622532786452L184.9823132923671,94.88662567415406L185.0817661489759,88.4070645260532L185.7779361452375,99.51720962702285L185.9768418584551,96.38812602713176L186.07629471506394,107.26679309314778L186.17574757167273,85.48258396892197L186.4741061414991,87.08326571447589L186.57355899810793,78.57893448967349L186.7724647113255,93.14779936426777L187.1702761377607,80.1393170015196L187.2697289943695,101.42032914229492L187.3691818509783,93.14042451436808L187.6675404208047,112.68415317870125L188.0653518472399,85.18258504244886L188.1648047038487,112.71187646419764L188.3637104170663,97.20189909417246L188.46316327367512,92.51676988194492L188.5626161302839,107.87882610732498L188.6620689868927,106.87420295269322L188.86097470011032,111.40318257524018L189.1593332699367,100.08822235818502L189.2587861265455,98.71410384826265L189.3582389831543,89.05397299863455L189.4576918397631,81.60959485912758L189.8555032661983,92.69829404504026L189.9549561228071,99.80431979712921L190.4522204058511,92.25758976882747L190.6511261190687,91.41671373076792L190.7505789756775,94.71460239604812L190.8500318322863,97.96011955355755L191.2478432587215,88.00554609858852L191.54620182854788,102.05300749472474L191.7451075417655,93.64838254397955L192.04346611159187,95.38866685797973L192.14291896820066,94.03309416038599L192.24237182480948,95.09356152349613L192.34182468141827,101.56672866082846L192.44127753802707,109.80248492418684L192.6401832512447,90.94525352050186L192.8390889644623,121.80429232287753L193.1374475342887,94.1982886774058L193.2369003908975,90.53175825197076L193.43580610411507,106.42546109743807L193.53525896072387,88.35120971390853L193.6347118173327,96.75736689443158L193.93307038715906,85.9756438474061L194.13197610037668,90.25379904586646L194.23142895698547,103.80231552873158L194.33088181359426,87.82912229897522L194.43033467020305,105.4037925492567L195.12650466646468,95.07652673361281L195.22595752307348,81.8938049265056L195.52431609289988,68.30672290936991L196.02158037594387,95.97210708602535L196.41939180237907,94.14112961430834L197.01610894203188,98.4145608794397L197.11556179864067,106.13432153414425L197.31446751185825,88.51814853403187L197.71227893829345,82.1055601421732L197.81173179490227,102.00001567247642L197.91118465151106,92.72522735739858L198.11009036472865,90.7850851413001L198.20954322133744,90.43547696212289L198.30899607794626,91.32473752943088L198.70680750438143,87.6689857307723L199.10461893081663,97.65850886980945L199.30352464403427,106.7293939841021L199.40297750064306,66.89432516416662L200.19860035351346,100.05489503505817L200.29805321012225,100.01795186172887L200.59641177994862,88.44564066399005L200.89477034977503,90.06345263242383L201.29258177621026,83.29505821844566L201.49148748942784,88.23338707600715L201.88929891586304,94.98539352374524L202.38656319890703,29.687555294751068L202.48601605551582,98.92698835438938L202.88382748195102,97.59130813474218L202.98328033855984,96.10168918983436L203.2816389083862,88.48074940305241L203.381091764995,96.10110068635566L203.48054462160385,103.4827528379667L203.77890319143023,102.24744162151939L204.07726176125664,56.9809469527063L204.17671461786543,115.85698485475862L204.375620331083,101.31813100666125L204.57452604430063,97.78250814332057L204.67397890090942,93.29119804524328L204.7734317575182,94.30420869990473L205.4696017537798,103.6821759897474L205.66850746699743,99.77495824519212L205.76796032360622,93.65181813185518L206.36467746325903,96.00588506496922L206.46413031986782,91.27843131877387L206.5635831764766,104.66302572457312L206.6630360330854,104.8290738367287L206.76248888969423,93.47070751174488L206.9613946029118,83.2835638441951L207.25975317273821,110.07751751839709L207.95592316899982,82.66074690140829L208.0553760256086,96.94392249717811L208.15482888221743,94.90815111670815L209.0499045916966,98.32686325744777L209.348263161523,95.11765835512381L209.44771601813179,102.29560877560903L209.84552744456698,108.38094151681463L209.94498030117578,104.0687008330882L210.04443315778462,96.12990024397976L210.14388601439342,100.55692031338441L210.4422445842198,94.49126797679969L210.5416974408286,110.40610392916864L210.6411502974374,69.34356000216883L210.7406031540462,102.92520676298369L211.1384145804814,104.27048860244997L211.2378674370902,67.6224259094754L211.33732029369898,107.87450511331474L211.63567886352538,89.38610103394456L211.83458457674297,96.7578546630806L212.03349028996058,117.18466991002859L212.2323960031782,94.3384585419982L212.331848859787,102.50017470553689L212.4313017163958,113.99187683219384L212.6302074296134,109.7965256637359L212.72966028622218,104.96841661535103L213.22692456926617,79.07779987544745L213.52528313909258,74.22317635952243L213.72418885231016,110.93511553818462L214.02254742213657,107.3110262870465L214.320905991963,84.65862608041664L214.4203588485718,108.32954024450873L214.61926456178938,95.8979185348777L214.818170275007,100.62430661261163L215.41488741465977,71.8432046696795L215.51434027126857,110.17241502979505L215.71324598448618,81.8715372273117L215.91215169770376,102.14467088790644L216.80722740718298,83.8921135539984L216.90668026379177,101.20988878124638L217.00613312040056,109.23914394558028L217.10558597700938,92.76154491441719L218.29902025631495,91.88467473116066L218.49792596953256,78.15881192971563L218.69683168275017,86.62786475679513L218.89573739596776,117.63368215877395L219.29354882240295,87.91902018172084L219.39300167901175,88.65630900386367L219.49245453562057,38.432547329508004L219.59190739222936,71.85498004108655L219.69136024883815,107.98689337224619L219.79081310544694,106.456429104817L219.89026596205574,98.82166743903542L220.08917167527335,118.9794650214721L220.18862453188214,104.70661739666173L220.28807738849093,79.28106685625568L220.48698310170855,77.30024897629636L220.98424738475256,102.39820985056144L221.28260595457894,8.668215128669662L221.48151166779655,90.51531726739927L221.58096452440535,117.2049176107956L221.77987023762293,97.02010453758692L222.07822880744934,93.73838116155486L222.37658737727574,109.24295596360895L222.57549309049332,117.86508861898017L222.87385166031973,89.814006684954L223.17221023014613,95.9318025504844L223.27166308675496,106.43043951875785L223.57002165658133,92.01821200249316L223.76892736979894,85.65817538073208L223.86838022640774,111.84804879046897L224.66400307927813,113.5126971528739L224.76345593588692,92.78501082790103L224.9623616491045,106.54687307637619L225.45962593214853,110.6034858751899L225.95689021519252,87.72934710108717L226.05634307180134,96.35685581526377L226.15579592841013,101.84035096742309L226.3547016416277,98.08685987480277L226.4541544982365,106.75068614599797L226.65306021145412,104.34346303380823L226.8519659246717,91.90800279698283L227.1503244944981,84.23246473251072L227.2497773511069,107.04553169065764L227.64758877754213,85.10802536298132L228.14485306058612,109.55678737274798L228.3437587738037,95.95812085019833L228.9404759134565,101.98186219580026L229.0399287700653,108.26633178979694L229.1393816266741,102.90644357549627L229.2388344832829,86.59490856198818L229.3382873398917,111.01060834028505L229.6366459097181,107.58553930160889L229.83555162293572,99.91532957944389L230.1339101927621,106.1983305656604L230.2333630493709,109.0842880031862L230.5317216191973,83.25769089846506L230.7306273324149,69.2233886521858L230.9295330456325,89.85533977612437L231.0289859022413,98.96715504226864L231.12843875885008,97.73240582013432L231.52625018528528,74.14525531784324L231.9240616117205,82.18064470312174L232.0235144683293,88.01289443932251L232.1229673249381,89.09838115302693L232.52077875137329,93.35219033370197L232.6202316079821,109.80834875164123L232.8191373211997,111.5253633199838L232.91859017780848,103.44293607107477L233.1174958910261,93.60109019235824L233.2169487476349,99.35365337644373L233.31640160424368,105.02060255896185L233.51530731746126,111.60163018972287L233.61476017407008,79.57154899223997L233.71421303067888,102.67645535565538L233.81366588728767,109.33873357930838L234.1120244571141,98.3532080663274L234.3109301703317,94.49967138232881L234.41038302694048,109.99627222733824L235.0071001665933,82.24226260789112L235.10655302320208,114.02571843313541L235.20600587981087,100.13548820064062L235.60381730624607,92.12217564856292L235.80272301946366,100.2297600957279L236.0016287326813,105.00218399062862L236.3994401591165,95.16387973645055L237.09561015537807,85.20128990977173L237.39396872520447,90.48691534726078L237.59287443842206,89.93239131716837L237.79178015163967,90.31470650499489L237.89123300824846,97.03241539414125L238.09013872146605,78.87906596197513L238.2890444346837,77.62833171291948L238.48795014790127,86.87392283288762L238.58740300451007,59.061958875371836L238.68685586111886,98.95435111523216L238.98521443094526,110.62362223746095L239.08466728755405,100.88049649183733L239.38302585738046,77.98757332291461L239.48247871398925,96.40131698798757L239.78083728381566,102.37683285933531L240.07919585364203,86.48623158625571L240.47700728007726,102.11167227843436L241.07372441973007,106.55460314909635L241.17317727633886,111.99876930301275L241.47153584616524,104.86228451952644L241.57098870277406,107.58534313378266L241.76989441599164,108.66730412844805L241.96880012920923,89.29769296631167L242.06825298581805,100.51222055816925L242.26715869903563,92.5186361272107L242.36661155564443,96.93740654424732L242.56551726886207,101.07940006397018L242.66497012547086,86.53215606492654L242.76442298207965,109.00870506992237L242.86387583868844,105.04669818168384L243.06278155190606,93.17623309540511L243.26168726512364,105.51934600257357L243.36114012173243,105.53811449189413L243.75895154816763,114.18513925386424L243.85840440477642,97.46968408247841L244.05731011799404,99.36203557464029L244.3556686878204,92.70468805580879L244.55457440103802,116.87744193406718L244.85293297086446,107.13093892073249L245.44965011051724,97.86630891795357L246.04636725017002,106.66291429834206L246.44417867660522,112.64558764443069L246.74253724643162,101.0060385987926L247.23980152947564,75.38751193570579L247.43870724269323,111.62080692019532L247.73706581251963,92.24335964867595L248.3337829521724,94.85098144994441L248.4332358087812,100.48246136874656L248.63214152199882,76.56806051763556L248.9305000918252,115.01541162564098L249.22885866165163,98.60311527328054L249.32831151826042,97.2830542540679L249.4277643748692,83.6948164373074L250.3228400843484,93.73647780345709L250.4222929409572,105.97308748648106L250.521745797566,102.10463674585571L250.6211986541748,97.63474605366969L250.8201043673924,112.48225407084351L251.01901008061,104.02777068123658L251.31736865043638,86.7177308285419L251.4168215070452,116.24036571104656L251.8146329334804,98.88339138046763L252.013538646698,100.79766065083606L252.1129915033068,80.3303261441049L252.2124443599156,80.69138628286754L252.3118972165244,78.14084401719941L253.10752006939478,85.20140655010084L254.002595778874,108.82156096369715L254.20150149209158,109.61579147377864L254.49986006191799,113.05891855613442L254.99712434496197,94.884261056573L255.29548291478838,102.24399542997747L255.39493577139717,94.77551515700969L255.6932943412236,110.39482162824373L255.7927471978324,102.52577725777672L256.09110576765875,86.6291796114142L256.38946433748515,81.15190881136289L256.58837005070274,120.20155081514818L256.7872757639204,93.93727413002142L257.0856343337468,82.39253776645103L257.3839929035732,106.24801404402848L257.48344576018195,103.91887102851217L257.58289861679077,92.41676140339865L257.78180433000836,102.38845447758126L258.57742718287875,102.92662765426559L258.77633289609633,102.41912558230428L258.975238609314,93.62364419054177L259.17414432253156,107.5462792271968L259.67140860557555,84.42679812447568L260.16867288861954,88.27021360900733L260.56648431505477,101.140959648575L260.96429574148993,88.45926637516345L261.06374859809875,88.97711762541678L261.1632014547076,101.35471365533692L261.56101288114274,105.94128709129893L261.66046573775157,87.84676679966981L261.75991859436033,96.66462192728903L261.85937145096915,98.74652985975547L262.15773002079555,104.51869392096472L262.65499430383954,109.4253019108412L262.95335287366595,97.25360787280056L263.15225858688353,105.71168590527736L263.55007001331876,98.5927766986548L263.6495228699275,113.09141879329121L263.74897572653634,106.09143500586345L263.84842858314516,88.4850756988958L264.04733429636275,100.18216023778439L264.24624000958033,104.73110126210872L264.54459857940674,103.22743245937619L264.84295714923314,104.0898180344904L264.9424100058419,87.88047585478284L265.14131571905955,115.10808236711955L265.34022143227713,63.95418299193569L266.03639142853876,106.5368101970738L266.3347499983651,81.53142463129075L266.43420285497393,101.46677850244674L266.6331085681915,103.2863146182446L266.8320142814091,109.43227382142214L267.03091999462674,95.63185134050957L267.1303728512355,94.79577346144299L267.3292785644531,76.79927346093211L267.62763713427955,108.21827597420327L267.82654284749714,111.16643981997714L268.12490141732354,83.07016506025366L268.3238071305411,80.67112797843424L268.42325998714995,91.81622276347201" fill="none"></path></g><g><path style="fill: none;" stroke="rgb(0, 119, 187)" stroke-width="2px" d="M268.5227128437587,81.62153988919516Z" fill="none"></path></g></g></g></g></g></g><g transform="translate(51, 177)" clip-path="url(#clip_1)"><clipPath id="clip_1"><rect width="278" height="22"></rect></clipPath><g><g><line x1="0" y1="0" x2="0" y2="5" style="visibility: inherit;" fill="rgb(0, 0, 0)" stroke="rgb(204, 204, 204)" stroke-width="1px"></line><line x1="19.890571321759904" y1="0" x2="19.890571321759904" y2="5" style="visibility: inherit;" fill="rgb(0, 0, 0)" stroke="rgb(204, 204, 204)" stroke-width="1px"></line><line x1="39.78114264351981" y1="0" x2="39.78114264351981" y2="5" style="visibility: inherit;" fill="rgb(0, 0, 0)" stroke="rgb(204, 204, 204)" stroke-width="1px"></line><line x1="59.671713965279714" y1="0" x2="59.671713965279714" y2="5" style="visibility: inherit;" fill="rgb(0, 0, 0)" stroke="rgb(204, 204, 204)" stroke-width="1px"></line><line x1="79.56228528703961" y1="0" x2="79.56228528703961" y2="5" style="visibility: inherit;" fill="rgb(0, 0, 0)" stroke="rgb(204, 204, 204)" stroke-width="1px"></line><line x1="99.45285660879952" y1="0" x2="99.45285660879952" y2="5" style="visibility: inherit;" fill="rgb(0, 0, 0)" stroke="rgb(204, 204, 204)" stroke-width="1px"></line><line x1="119.34342793055943" y1="0" x2="119.34342793055943" y2="5" style="visibility: inherit;" fill="rgb(0, 0, 0)" stroke="rgb(204, 204, 204)" stroke-width="1px"></line><line x1="139.23399925231934" y1="0" x2="139.23399925231934" y2="5" style="visibility: inherit;" fill="rgb(0, 0, 0)" stroke="rgb(204, 204, 204)" stroke-width="1px"></line><line x1="159.12457057407923" y1="0" x2="159.12457057407923" y2="5" style="visibility: inherit;" fill="rgb(0, 0, 0)" stroke="rgb(204, 204, 204)" stroke-width="1px"></line><line x1="179.01514189583915" y1="0" x2="179.01514189583915" y2="5" style="visibility: inherit;" fill="rgb(0, 0, 0)" stroke="rgb(204, 204, 204)" stroke-width="1px"></line><line x1="198.90571321759904" y1="0" x2="198.90571321759904" y2="5" style="visibility: inherit;" fill="rgb(0, 0, 0)" stroke="rgb(204, 204, 204)" stroke-width="1px"></line><line x1="218.79628453935896" y1="0" x2="218.79628453935896" y2="5" style="visibility: inherit;" fill="rgb(0, 0, 0)" stroke="rgb(204, 204, 204)" stroke-width="1px"></line><line x1="238.68685586111886" y1="0" x2="238.68685586111886" y2="5" style="visibility: inherit;" fill="rgb(0, 0, 0)" stroke="rgb(204, 204, 204)" stroke-width="1px"></line><line x1="258.57742718287875" y1="0" x2="258.57742718287875" y2="5" style="visibility: inherit;" fill="rgb(0, 0, 0)" stroke="rgb(204, 204, 204)" stroke-width="1px"></line><line x1="278.4679985046387" y1="0" x2="278.4679985046387" y2="5" style="visibility: inherit;" fill="rgb(0, 0, 0)" stroke="rgb(204, 204, 204)" stroke-width="1px"></line></g><g transform="translate(0, 8)"><text style="text-anchor: middle; visibility: hidden; font-family: Roboto, sans-serif; font-size: 12px; font-weight: 200;" x="0" y="0" dx="0em" dy="0.95em" fill="rgb(50, 49, 63)" stroke="none" stroke-width="1px">-200</text><text style="text-anchor: middle; visibility: inherit; font-family: Roboto, sans-serif; font-size: 12px; font-weight: 200;" x="19.890571321759904" y="0" dx="0em" dy="0.95em" fill="rgb(50, 49, 63)" stroke="none" stroke-width="1px">0</text><text style="text-anchor: middle; visibility: hidden; font-family: Roboto, sans-serif; font-size: 12px; font-weight: 200;" x="39.78114264351981" y="0" dx="0em" dy="0.95em" fill="rgb(50, 49, 63)" stroke="none" stroke-width="1px">200</text><text style="text-anchor: middle; visibility: inherit; font-family: Roboto, sans-serif; font-size: 12px; font-weight: 200;" x="59.671713965279714" y="0" dx="0em" dy="0.95em" fill="rgb(50, 49, 63)" stroke="none" stroke-width="1px">400</text><text style="text-anchor: middle; visibility: hidden; font-family: Roboto, sans-serif; font-size: 12px; font-weight: 200;" x="79.56228528703961" y="0" dx="0em" dy="0.95em" fill="rgb(50, 49, 63)" stroke="none" stroke-width="1px">600</text><text style="text-anchor: middle; visibility: inherit; font-family: Roboto, sans-serif; font-size: 12px; font-weight: 200;" x="99.45285660879952" y="0" dx="0em" dy="0.95em" fill="rgb(50, 49, 63)" stroke="none" stroke-width="1px">800</text><text style="text-anchor: middle; visibility: hidden; font-family: Roboto, sans-serif; font-size: 12px; font-weight: 200;" x="119.34342793055943" y="0" dx="0em" dy="0.95em" fill="rgb(50, 49, 63)" stroke="none" stroke-width="1px">1k</text><text style="text-anchor: middle; visibility: inherit; font-family: Roboto, sans-serif; font-size: 12px; font-weight: 200;" x="139.23399925231934" y="0" dx="0em" dy="0.95em" fill="rgb(50, 49, 63)" stroke="none" stroke-width="1px">1.2k</text><text style="text-anchor: middle; visibility: hidden; font-family: Roboto, sans-serif; font-size: 12px; font-weight: 200;" x="159.12457057407923" y="0" dx="0em" dy="0.95em" fill="rgb(50, 49, 63)" stroke="none" stroke-width="1px">1.4k</text><text style="text-anchor: middle; visibility: inherit; font-family: Roboto, sans-serif; font-size: 12px; font-weight: 200;" x="179.01514189583915" y="0" dx="0em" dy="0.95em" fill="rgb(50, 49, 63)" stroke="none" stroke-width="1px">1.6k</text><text style="text-anchor: middle; visibility: hidden; font-family: Roboto, sans-serif; font-size: 12px; font-weight: 200;" x="198.90571321759904" y="0" dx="0em" dy="0.95em" fill="rgb(50, 49, 63)" stroke="none" stroke-width="1px">1.8k</text><text style="text-anchor: middle; visibility: inherit; font-family: Roboto, sans-serif; font-size: 12px; font-weight: 200;" x="218.79628453935896" y="0" dx="0em" dy="0.95em" fill="rgb(50, 49, 63)" stroke="none" stroke-width="1px">2k</text><text style="text-anchor: middle; visibility: hidden; font-family: Roboto, sans-serif; font-size: 12px; font-weight: 200;" x="238.68685586111886" y="0" dx="0em" dy="0.95em" fill="rgb(50, 49, 63)" stroke="none" stroke-width="1px">2.2k</text><text style="text-anchor: middle; visibility: inherit; font-family: Roboto, sans-serif; font-size: 12px; font-weight: 200;" x="258.57742718287875" y="0" dx="0em" dy="0.95em" fill="rgb(50, 49, 63)" stroke="none" stroke-width="1px">2.4k</text><text style="text-anchor: middle; visibility: hidden; font-family: Roboto, sans-serif; font-size: 12px; font-weight: 200;" x="278.4679985046387" y="0" dx="0em" dy="0.95em" fill="rgb(50, 49, 63)" stroke="none" stroke-width="1px">2.6k</text></g><line x1="0" y1="0" x2="278.4679985046387" y2="0" fill="rgb(0, 0, 0)" stroke="rgb(204, 204, 204)" stroke-width="1px"></line></g></g></g></g></svg>