<svg viewBox="0 0 330 200" xmlns="http://www.w3.org/2000/svg"><g><g><g><g><g><line x1="61.91500186920166" y1="177.89999961853027" x2="56.91500186920166" y2="177.89999961853027" style="visibility: inherit;" fill="rgb(0, 0, 0)" stroke="rgb(204, 204, 204)" stroke-width="1px"></line><line x1="61.91500186920166" y1="160.10999965667725" x2="56.91500186920166" y2="160.10999965667725" style="visibility: inherit;" fill="rgb(0, 0, 0)" stroke="rgb(204, 204, 204)" stroke-width="1px"></line><line x1="61.91500186920166" y1="142.31999969482422" x2="56.91500186920166" y2="142.31999969482422" style="visibility: inherit;" fill="rgb(0, 0, 0)" stroke="rgb(204, 204, 204)" stroke-width="1px"></line><line x1="61.91500186920166" y1="124.52999973297118" x2="56.91500186920166" y2="124.52999973297118" style="visibility: inherit;" fill="rgb(0, 0, 0)" stroke="rgb(204, 204, 204)" stroke-width="1px"></line><line x1="61.91500186920166" y1="106.73999977111816" x2="56.91500186920166" y2="106.73999977111816" style="visibility: inherit;" fill="rgb(0, 0, 0)" stroke="rgb(204, 204, 204)" stroke-width="1px"></line><line x1="61.91500186920166" y1="88.94999980926514" x2="56.91500186920166" y2="88.94999980926514" style="visibility: inherit;" fill="rgb(0, 0, 0)" stroke="rgb(204, 204, 204)" stroke-width="1px"></line><line x1="61.91500186920166" y1="71.15999984741211" x2="56.91500186920166" y2="71.15999984741211" style="visibility: inherit;" fill="rgb(0, 0, 0)" stroke="rgb(204, 204, 204)" stroke-width="1px"></line><line x1="61.91500186920166" y1="53.36999988555909" x2="56.91500186920166" y2="53.36999988555909" style="visibility: inherit;" fill="rgb(0, 0, 0)" stroke="rgb(204, 204, 204)" stroke-width="1px"></line><line x1="61.91500186920166" y1="35.57999992370605" x2="56.91500186920166" y2="35.57999992370605" style="visibility: inherit;" fill="rgb(0, 0, 0)" stroke="rgb(204, 204, 204)" stroke-width="1px"></line><line x1="61.91500186920166" y1="17.789999961853024" x2="56.91500186920166" y2="17.789999961853024" style="visibility: inherit;" fill="rgb(0, 0, 0)" stroke="rgb(204, 204, 204)" stroke-width="1px"></line><line x1="61.91500186920166" y1="0" x2="56.91500186920166" y2="0" style="visibility: inherit;" fill="rgb(0, 0, 0)" stroke="rgb(204, 204, 204)" stroke-width="1px"></line></g><g transform="translate(51.91500186920166, 0)"><text style="text-anchor: end; visibility: hidden; font-family: Roboto, sans-serif; font-size: 12px; font-weight: 200;" x="0" y="177.89999961853027" dx="0em" dy="0.3em" fill="rgb(50, 49, 63)" stroke="none" stroke-width="1px">0.242</text><text style="text-anchor: end; visibility: inherit; font-family: Roboto, sans-serif; font-size: 12px; font-weight: 200;" x="0" y="160.10999965667725" dx="0em" dy="0.3em" fill="rgb(50, 49, 63)" stroke="none" stroke-width="1px">0.244</text><text style="text-anchor: end; visibility: hidden; font-family: Roboto, sans-serif; font-size: 12px; font-weight: 200;" x="0" y="142.31999969482422" dx="0em" dy="0.3em" fill="rgb(50, 49, 63)" stroke="none" stroke-width="1px">0.246</text><text style="text-anchor: end; visibility: inherit; font-family: Roboto, sans-serif; font-size: 12px; font-weight: 200;" x="0" y="124.52999973297118" dx="0em" dy="0.3em" fill="rgb(50, 49, 63)" stroke="none" stroke-width="1px">0.248</text><text style="text-anchor: end; visibility: hidden; font-family: Roboto, sans-serif; font-size: 12px; font-weight: 200;" x="0" y="106.73999977111816" dx="0em" dy="0.3em" fill="rgb(50, 49, 63)" stroke="none" stroke-width="1px">0.25</text><text style="text-anchor: end; visibility: inherit; font-family: Roboto, sans-serif; font-size: 12px; font-weight: 200;" x="0" y="88.94999980926514" dx="0em" dy="0.3em" fill="rgb(50, 49, 63)" stroke="none" stroke-width="1px">0.252</text><text style="text-anchor: end; visibility: hidden; font-family: Roboto, sans-serif; font-size: 12px; font-weight: 200;" x="0" y="71.15999984741211" dx="0em" dy="0.3em" fill="rgb(50, 49, 63)" stroke="none" stroke-width="1px">0.254</text><text style="text-anchor: end; visibility: inherit; font-family: Roboto, sans-serif; font-size: 12px; font-weight: 200;" x="0" y="53.36999988555909" dx="0em" dy="0.3em" fill="rgb(50, 49, 63)" stroke="none" stroke-width="1px">0.256</text><text style="text-anchor: end; visibility: hidden; font-family: Roboto, sans-serif; font-size: 12px; font-weight: 200;" x="0" y="35.57999992370605" dx="0em" dy="0.3em" fill="rgb(50, 49, 63)" stroke="none" stroke-width="1px">0.258</text><text style="text-anchor: end; visibility: inherit; font-family: Roboto, sans-serif; font-size: 12px; font-weight: 200;" x="0" y="17.789999961853024" dx="0em" dy="0.3em" fill="rgb(50, 49, 63)" stroke="none" stroke-width="1px">0.26</text><text style="text-anchor: end; visibility: hidden; font-family: Roboto, sans-serif; font-size: 12px; font-weight: 200;" x="0" y="0" dx="0em" dy="0.3em" fill="rgb(50, 49, 63)" stroke="none" stroke-width="1px">0.262</text></g><line x1="61.91500186920166" y1="0" x2="61.91500186920166" y2="177.89999961853027" fill="rgb(0, 0, 0)" stroke="rgb(204, 204, 204)" stroke-width="1px"></line></g></g><g transform="translate(61, 0)" clip-path="url(#clip_0)"><clipPath id="clip_0"><rect width="268" height="177"></rect></clipPath><g><g><g><line x1="0" y1="0" x2="0" y2="177.89999961853027" fill="rgb(0, 0, 0)" stroke="rgb(60, 60, 60)" stroke-width="1px" opacity="0.25"></line><line x1="19.148928437914165" y1="0" x2="19.148928437914165" y2="177.89999961853027" fill="rgb(0, 0, 0)" stroke="rgb(60, 60, 60)" stroke-width="1px" opacity="0.25"></line><line x1="38.29785687582833" y1="0" x2="38.29785687582833" y2="177.89999961853027" fill="rgb(0, 0, 0)" stroke="rgb(60, 60, 60)" stroke-width="1px" opacity="0.25"></line><line x1="57.446785313742495" y1="0" x2="57.446785313742495" y2="177.89999961853027" fill="rgb(0, 0, 0)" stroke="rgb(60, 60, 60)" stroke-width="1px" opacity="0.25"></line><line x1="76.59571375165666" y1="0" x2="76.59571375165666" y2="177.89999961853027" fill="rgb(0, 0, 0)" stroke="rgb(60, 60, 60)" stroke-width="1px" opacity="0.25"></line><line x1="95.74464218957084" y1="0" x2="95.74464218957084" y2="177.89999961853027" fill="rgb(0, 0, 0)" stroke="rgb(60, 60, 60)" stroke-width="1px" opacity="0.25"></line><line x1="114.89357062748499" y1="0" x2="114.89357062748499" y2="177.89999961853027" fill="rgb(0, 0, 0)" stroke="rgb(60, 60, 60)" stroke-width="1px" opacity="0.25"></line><line x1="134.04249906539917" y1="0" x2="134.04249906539917" y2="177.89999961853027" fill="rgb(0, 0, 0)" stroke="rgb(60, 60, 60)" stroke-width="1px" opacity="0.25"></line><line x1="153.19142750331332" y1="0" x2="153.19142750331332" y2="177.89999961853027" fill="rgb(0, 0, 0)" stroke="rgb(60, 60, 60)" stroke-width="1px" opacity="0.25"></line><line x1="172.34035594122753" y1="0" x2="172.34035594122753" y2="177.89999961853027" fill="rgb(0, 0, 0)" stroke="rgb(60, 60, 60)" stroke-width="1px" opacity="0.25"></line><line x1="191.48928437914168" y1="0" x2="191.48928437914168" y2="177.89999961853027" fill="rgb(0, 0, 0)" stroke="rgb(60, 60, 60)" stroke-width="1px" opacity="0.25"></line><line x1="210.63821281705583" y1="0" x2="210.63821281705583" y2="177.89999961853027" fill="rgb(0, 0, 0)" stroke="rgb(60, 60, 60)" stroke-width="1px" opacity="0.25"></line><line x1="229.78714125496998" y1="0" x2="229.78714125496998" y2="177.89999961853027" fill="rgb(0, 0, 0)" stroke="rgb(60, 60, 60)" stroke-width="1px" opacity="0.25"></line><line x1="248.9360696928842" y1="0" x2="248.9360696928842" y2="177.89999961853027" fill="rgb(0, 0, 0)" stroke="rgb(60, 60, 60)" stroke-width="1px" opacity="0.25"></line><line x1="268.08499813079834" y1="0" x2="268.08499813079834" y2="177.89999961853027" fill="rgb(0, 0, 0)" stroke="rgb(60, 60, 60)" stroke-width="1px" opacity="0.25"></line></g><g><line x1="0" y1="177.89999961853027" x2="268.08499813079834" y2="177.89999961853027" fill="rgb(0, 0, 0)" stroke="rgb(60, 60, 60)" stroke-width="1px" opacity="0.25"></line><line x1="0" y1="160.10999965667725" x2="268.08499813079834" y2="160.10999965667725" fill="rgb(0, 0, 0)" stroke="rgb(60, 60, 60)" stroke-width="1px" opacity="0.25"></line><line x1="0" y1="142.31999969482422" x2="268.08499813079834" y2="142.31999969482422" fill="rgb(0, 0, 0)" stroke="rgb(60, 60, 60)" stroke-width="1px" opacity="0.25"></line><line x1="0" y1="124.52999973297118" x2="268.08499813079834" y2="124.52999973297118" fill="rgb(0, 0, 0)" stroke="rgb(60, 60, 60)" stroke-width="1px" opacity="0.25"></line><line x1="0" y1="106.73999977111816" x2="268.08499813079834" y2="106.73999977111816" fill="rgb(0, 0, 0)" stroke="rgb(60, 60, 60)" stroke-width="1px" opacity="0.25"></line><line x1="0" y1="88.94999980926514" x2="268.08499813079834" y2="88.94999980926514" fill="rgb(0, 0, 0)" stroke="rgb(60, 60, 60)" stroke-width="1px" opacity="0.25"></line><line x1="0" y1="71.15999984741211" x2="268.08499813079834" y2="71.15999984741211" fill="rgb(0, 0, 0)" stroke="rgb(60, 60, 60)" stroke-width="1px" opacity="0.25"></line><line x1="0" y1="53.36999988555909" x2="268.08499813079834" y2="53.36999988555909" fill="rgb(0, 0, 0)" stroke="rgb(60, 60, 60)" stroke-width="1px" opacity="0.25"></line><line x1="0" y1="35.57999992370605" x2="268.08499813079834" y2="35.57999992370605" fill="rgb(0, 0, 0)" stroke="rgb(60, 60, 60)" stroke-width="1px" opacity="0.25"></line><line x1="0" y1="17.789999961853024" x2="268.08499813079834" y2="17.789999961853024" fill="rgb(0, 0, 0)" stroke="rgb(60, 60, 60)" stroke-width="1px" opacity="0.25"></line><line x1="0" y1="0" x2="268.08499813079834" y2="0" fill="rgb(0, 0, 0)" stroke="rgb(60, 60, 60)" stroke-width="1px" opacity="0.25"></line></g></g></g><g><g><line x1="0" y1="2330.4899950027448" x2="268.08499813079834" y2="2330.4899950027448" fill="rgb(0, 0, 0)" stroke="rgb(153, 153, 153)" stroke-width="1.5px"></line></g></g><g><g><line x1="19.148928437914165" y1="0" x2="19.148928437914165" y2="177.89999961853027" fill="rgb(0, 0, 0)" stroke="rgb(153, 153, 153)" stroke-width="1.5px"></line></g></g><g><g><g><g><g><path style="fill: none;" stroke="rgb(255, 112, 67)" stroke-width="2px" d="M19.627651648862024,157.05413119136898L19.72339629105159,157.05520812622584L20.106374859809875,157.03714368518118L20.202119501999448,157.01242311245616L20.489353428568158,156.93444948278497L20.58509807075773,156.86787769701203L20.872331997326445,156.7571072442704L20.96807663951601,156.67066241598727L21.063821281705582,156.59809675966875L21.44679985046387,156.4833381214801L22.308501630170003,156.2830176397833L22.595735556738717,156.1262039630062L22.978714125497,155.98423707931747L23.17020340987614,155.87816398517404L23.361692694255286,155.79293169782287L23.457437336444855,155.72532462658626L23.648926620823996,155.64797164126412L23.840415905203137,155.56476977136813L24.22339447396142,155.4555759510556L24.319139116150993,155.36917393112824L24.41488375834056,155.2919384031075L24.510628400530134,155.2164377045756L24.606373042719706,155.13943270889294L25.18084089585713,154.76509809275314L25.372330180236272,154.35933430476942L25.46807482242584,154.02436697416397L25.563819464615413,153.7306577849417L25.659564106804982,153.4619154186666L25.946798033373696,153.03388176254774L26.04254267556327,152.69149006399164L26.138287317752837,152.40371761369497L26.234031959942406,152.15385947126398L26.712755170890265,151.67438263472494L27.191478381838117,151.08602958139215L27.478712308406827,150.52958641904792L27.5744569505964,150.12525916458742L28.148924803733824,149.46657494706758L28.914881941250393,148.60475008265746L29.202115867819106,147.9611004086923L29.29786051000868,147.53631325990975L29.96807300533567,147.08140280641823L30.255306931904382,146.73757102542203L30.446796216283527,146.48488091692946L31.117008711610524,146.18423232224987L31.212753353800093,145.9885208676954L31.499987280368803,145.82168091009498L31.595731922558375,145.703444666197L32.26594441788537,145.50409252117325L32.45743370226451,145.34190751403574L32.648922986643655,145.21723905074487L32.74466762883323,145.13098601318566L32.8404122710228,145.06645677277982L33.51062476634979,144.92599705055216L33.98934797729765,144.76373125170602L34.180837261676785,144.59903849150248L34.27658190386636,144.46687430492085L34.37232654605593,144.35067503430773L34.65956047262464,144.1433729019208L34.94679439919336,143.87844002590967L35.138283683572496,143.64180844478167L35.23402832576207,143.46102007750997L35.52126225233078,143.23511145306514L36.095730105468206,142.8787449280586L36.19147474765778,142.6234646778887L36.38296403203692,142.37417429293316L36.670197958605634,142.0695214425737L36.86168724298477,141.80709619857436L36.95743188517434,141.6096652302885L37.14892116955348,141.41104293221912L37.34041045393263,141.21584126612947L37.4361550961222,141.06372816774268L38.10636759144919,140.77231610762277L38.87232472896576,140.28911425604667L38.96806937115533,139.94845460193795L39.0638140133449,139.69782682447948L39.44679258210318,139.37052798607576L40.404239003998896,138.61994806476278L40.49998364618847,138.11329464401322L40.6914729305676,137.62347333995737L40.882962214946744,137.08458284805982L41.07445149932589,136.48709076117913L41.3616854258946,135.7561947491988L41.45743006808417,135.20006248293427L41.553174710273744,134.74290342931246L41.84040863684246,134.08565658933585L42.797855058738165,132.63449408527407L42.98934434311731,131.59700091220842L43.56381219625473,130.58577460244143L43.85104612282344,129.83201898357004L43.94679076501301,129.33151893066065L44.042535407202585,128.98466880393352L44.13828004939216,128.7367949793366L44.3297693337713,128.5315001249597L44.71274790252958,128.17048297761013L44.90423718690872,127.70346710993222L45.09572647128786,127.13727670967813L45.287215755667006,126.50124301525263L45.765938966614854,125.49978548603606L46.34040681975228,124.31046050814177L47.01061931507928,123.11636038379997L47.10636395726885,122.34587462948399L47.5850871682167,121.64335711725737L47.680831810406275,121.18362039297207L47.96806573697499,120.79193330426114L48.063810379164565,120.51980821904483L48.15955502135413,120.32238936248447L48.54253359011241,120.09053183765361L48.638278232301985,119.92559739535642L48.82976751668112,119.7665139421547L49.11700144324984,119.56518626239975L49.49998001200812,119.31809998911855L49.595724654197696,119.1395217395813L49.69146929638726,119.00220735928401L49.78721393857683,118.8924612720963L49.97870322295597,118.77470867332906L50.26593714952469,118.63253538499124L50.36168179171426,118.52533484111483L50.457426433903834,118.43842870560651L50.744660360472544,118.31900476173725L51.031894287041254,118.18807590089457L51.60636214017868,117.8983465703671L51.79785142455783,117.62213057408991L52.08508535112654,117.28679533413023L52.18082999331611,117.0273270439306L52.37231927769525,116.75696741896198L52.46806391988481,116.53727977272804L52.946787130832675,116.14207211452279L53.04253177302225,115.86497169771337L53.42551034178053,115.5649461974704L53.61699962615967,115.32369472454134L53.90423355272838,115.08260953260479L54.28721212148667,114.80307978232538L54.67019069024495,114.50599720350743L54.86167997462409,114.25437028553971L55.24465854338237,113.92546461453364L55.340403185571944,113.67430760554473L55.436147827761516,113.47027695874903L55.627637112140654,113.23986022958134L56.10636032308851,112.84733427461903L56.202104965278075,112.56797254156199L56.585083534036364,112.26685534322733L56.68082817622594,112.05474515369805L56.77657281841551,111.8948727661607L57.73401924031121,111.37029612415611L58.21274245125907,110.84750620648494L58.88295494658606,110.06265834460574L58.97869958877563,109.48046414984L59.45742279972349,108.56968350330621L59.55316744191306,107.9267217522124L59.744656726292206,107.3726114993163L59.93614601067134,106.87144101701942L60.31912457942963,106.24976574926099L61.180826359135764,104.31653713175388L61.3723156435149,101.7770629778566L61.468060285704475,99.4932016497038L61.755294212273185,95.81828402290766L62.32976206541062,89.61744784481748L63.09571920292718,82.48765535471662L63.19146384511675,77.92485934763714L63.28720848730632,74.91647014318909L63.47869777168547,72.61401863519397L63.57444241387504,71.00668963857345L63.86167634044374,69.46311998823407L63.957420982633316,68.3731515539608L64.43614419358117,67.0747856933912L64.53188883577074,66.18941140423252L65.58507989985603,64.78338436240632L65.87231382642473,63.82758134803833L65.9680584686143,63.225575677116986L66.15954775299345,62.80796076993986L66.35103703737259,62.5063881908133L66.63827096394131,62.24676543951875L67.69146202802658,61.849652344145184L68.07444059678487,61.52591893668184L68.17018523897444,61.31959071264154L68.36167452335357,61.16896650252176L68.64890844992229,61.05134055410289L68.84039773430143,60.951392829448494L69.31912094524928,60.80298961785756L69.41486558743887,60.70567683120202L69.98933344057627,60.58239472155833L70.18082272495542,60.476932566911785L70.27656736714499,60.398279958013596L70.37231200933456,60.33613722321623L70.46805665152414,60.27891668972593L70.56380129371371,60.223164963740786L70.65954593590328,60.16119006584876L70.85103522028243,60.052748489692995L71.04252450466156,59.87125528821424L71.52124771560942,59.384020554356425L71.61699235779898,59.02487661646016L71.71273699998856,58.74004227623326L71.90422628436771,58.42747669055875L72.28720485312597,57.9739973887812L72.47869413750512,57.58526947860373L72.67018342188426,57.26423437567532L73.05316199064255,56.978937270606764L73.14890663283212,56.785703381697594L73.24465127502168,56.646647055855375L73.62762984377997,56.45728263418483L74.01060841253826,56.255017331058056L74.10635305472782,56.10396788359034L74.39358698129655,55.90677136896792L74.58507626567568,55.71306139292363L74.68082090786525,55.5568595854108L74.77656555005481,55.42475322895933L74.8723101922444,55.308694693087126L74.96805483443396,55.20099240960853L75.06379947662354,55.09448655770449L75.25528876100267,54.94670804626479L75.35103340319225,54.822200547365384L75.82975661414011,54.55514554165557L75.92550125632967,54.35599708297149L76.21273518289838,54.12506347512906L76.30847982508796,53.950874991713285L76.59571375165666,53.757079031562206L76.7872030360358,53.598916973654674L77.1701816047941,53.44538146436625L77.36167088917324,53.33046227628546L77.55316017355239,53.246453557315306L77.74464945793152,53.188307649546964L78.03188338450023,53.14218021862629L78.41486195325851,53.09467490412464L78.5106065954481,53.05906725901427L78.70209587982723,53.02784126230524L78.98932980639594,52.997759741357214L79.37230837515423,52.96931923583086L79.85103158610208,52.90379617760293L80.52124408142907,52.81411492782274L80.61698872361865,52.75055080497426L80.80847800799779,52.68876615545451L80.90422265018735,52.64140980944854L80.99996729237694,52.60355873885326L81.0957119345665,52.57416778673812L81.28720121894564,52.54476314589513L81.57443514551434,52.51407785186119L81.95741371427263,52.476474039469146L82.0531583564622,52.44935217553221L82.4361369252205,52.41929429100241L82.7233708517892,52.41493828978944L83.10634942054749,52.44296928461887L83.39358334711619,52.46222672476147L83.48932798930578,52.46922161234552L83.58507263149534,52.468540858406065L83.68081727368492,52.46208831626119L83.77656191587448,52.45249081118116L83.96805120025363,52.43284150530305L84.06379584244318,52.41479575866934L84.15954048463277,52.40025702749013L84.35102976901192,52.386019882315544L84.44677441120147,52.37705344855889L84.54251905339105,52.37124944165398L84.63826369558062,52.385899306854824L84.82975297995976,51.96524074152175L85.0212422643389,50.95341102314713L85.11698690652847,49.9131534244698L85.78719940185547,46.37468722409748L86.07443332842418,43.25475683662752L86.17017797061376,41.09034948806599L86.26592261280332,39.519508965449575L86.45741189718247,38.0929472860695L86.74464582375117,36.6538086328872L86.93613510813032,35.48218289879942L87.12762439250946,34.52164440433782L87.51060296126774,33.540367292320354L87.89358153002603,32.650244829352395L88.18081545659473,31.94142293123128L88.27656009878432,31.465974450840942L88.37230474097387,31.134155267625232L88.46804938316346,30.892330982576002L88.56379402535302,30.707366626322724L89.04251723630087,30.43648472502626L89.6169850894383,30.128049136196992L89.80847437381745,29.903224034338812L89.90421901600702,29.747863897298092L89.99996365819658,29.633440482508252L90.2871975847653,29.498089372715505L90.57443151133401,29.37987191151287L90.67017615352357,29.28868843219113L90.9574100800923,29.159540607292993L91.05315472228186,29.055542746646804L91.14889936447145,28.968119377831773L91.34038864885058,28.879718927843847L91.53187793322971,28.79126241246702L92.10634578636714,28.61857914757059L92.39357971293586,28.469161350291213L92.48932435512542,28.366150052407054L92.77655828169415,28.274971118072994L92.87230292388371,28.21644643761085L92.96804756607328,28.181543702659017L93.15953685045241,28.16314694159629L93.255281492642,28.152745104935814L93.82974934577942,28.152866202709212L94.2127279145377,28.188143033431867L94.30847255672728,28.2045374820381L94.49996184110641,28.188607242134523L94.69145112548556,28.14151211955155L94.8829404098647,28.072430930812963L94.97868505205426,28.01019903165522L95.07442969424385,27.95197066958355L95.1701743364334,27.896356503089372L95.26591897862299,27.841462560638277L95.5531529051917,27.74649474741361L95.74464218957084,27.671911973449255L95.93613147394998,27.624935539150858L96.22336540051869,27.600673035096555L96.41485468489783,27.5869638259666L96.5105993270874,27.57778397052347L96.60634396927698,27.57036739732629L96.98932253803525,27.572491726503817L97.1808118224144,27.58012852377982L97.27655646460397,27.592027131880457L97.4680457489831,27.60870959639556L97.75527967555183,27.614159498602817L98.1382582443101,27.605023150376194L98.42549217087883,27.591164445077L98.71272609744753,27.573305922243257L98.8084707396371,27.55824330536686L98.99996002401625,27.558218851581213L99.19144930839539,27.56159735252022L99.38293859277452,27.54983968691618L99.86166180372238,27.4730129634127L100.14889573029109,27.381109090969094L100.24464037248067,27.323633960920716L100.34038501467023,27.28522552636705L100.62761894123894,27.23715581320743L101.39357607875552,27.138966007821722L101.48932072094509,27.084929811080784L101.58506536313466,27.066929079180635L101.77655464751379,27.073094506093234L102.15953321627208,27.084428401964214L102.35102250065123,27.086032943008423L102.44676714284078,27.080845541190826L102.82974571159907,27.050269604428L103.02123499597822,27.01633665293458L103.11697963816778,26.994810478747322L103.40421356473651,26.987514717364558L103.59570284911565,26.990877936922036L103.78719213349478,27.004559901567017L104.0744260600635,27.03461263289698L104.26591534444263,27.060384948081108L104.36165998663222,27.076908703819964L104.55314927101135,27.08989802048539L104.64889391320092,27.100236490392515L104.93612783976963,27.12192092510959L105.22336176633836,27.16759087809097L105.31910640852792,27.20421803954574L105.98931890385491,27.270305588154674L106.0850635460445,27.314729767147693L106.18080818823405,27.34785251097611L106.27655283042363,27.374936650345173L106.46804211480277,27.4100616599504L106.56378675699234,27.443861065252605L106.75527604137147,27.491286094117907L106.85102068356106,27.532465510976554L106.94676532575062,27.56915530399121L107.23399925231934,27.625206948567808L107.32974389450891,27.669335564933842L107.42548853669847,27.706204327710807L107.52123317888805,27.738399068345654L107.7127224632672,27.77733269534945L108.2871903164046,27.871843472309646L108.38293495859419,27.937881164814335L108.6701688851629,28.006239715943448L109.3403813804899,28.068992362501064L109.6276153070586,28.104205107190683L110.2978278023856,28.09055272859676L110.39357244457518,28.06825842528398L110.48931708676474,28.04130915045432L110.68080637114389,28.002235666385566L110.77655101333346,27.97073278956948L110.87229565552303,27.945150753721567L111.15952958209174,27.916334876033954L111.25527422428131,27.895864249536345L111.44676350866045,27.87870418714769L111.6382527930396,27.864802903178045L111.73399743522916,27.85752249942454L112.11697600398745,27.864500180095238L112.21272064617702,27.874836914941483L112.5956992149353,27.881569139163567L112.69144385712488,27.883275667114802L112.78718849931444,27.88164866731464L112.88293314150403,27.877597404212928L113.17016706807273,27.880468479493004L113.2659117102623,27.884099784591957L113.36165635245187,27.886808750965663L113.64889027902058,27.889282424092713L113.74463492121015,27.891720957934293L114.51059205872673,27.9281761769721L114.89357062748499,27.97740676740472L115.08505991186414,28.03006111416041L115.27654919624328,28.075332451719134L115.37229383843287,28.10588842746467L115.65952776500157,28.123797866260876L115.75527240719114,28.132740906270328L115.94676169157029,28.13906106024155L116.04250633375986,28.1459282158459L116.13825097594942,28.154820159036166L116.23399561813899,28.165987341405476L116.52122954470771,28.194107056718227L117.28718668222427,28.26643606056524L117.47867596660342,28.32276993573867L117.67016525098256,28.375762896814702L117.86165453536171,28.428129786048665L117.95739917755127,28.470789805848817L118.05314381974084,28.507307594000196L118.24463310411998,28.544063399687246L118.43612238849913,28.575766219416632L118.53186703068869,28.597756937813546L118.62761167287826,28.615935092004417L118.91484559944698,28.646776877130414L119.10633488382612,28.681187447630318L119.77654737915312,28.767682557546674L119.87229202134267,28.82954706980213L120.1595259479114,28.891584392920187L120.35101523229055,28.943651919587147L120.92548308542797,29.014019964170476L121.02122772761753,29.063663357318834L121.21271701199667,29.113702395807707L121.40420629637582,29.17373419448147L121.78718486513411,29.262453495111263L122.1701634338924,29.351949614176334L122.36165271827153,29.418477721817865L122.55314200265066,29.47186124258155L122.84037592921939,29.543443030274624L122.93612057140895,29.599646685743874L123.03186521359852,29.644926875274074L123.1276098557881,29.681532251983597L123.70207770892551,29.734246110229442L123.79782235111509,29.770858148330362L124.37229020425251,29.852736085688363L124.56377948863165,29.931341040369265L124.7552687730108,30.005225252210572L124.85101341520037,30.060795665575128L124.94675805738994,30.10389328657424L125.80845983709608,30.208643136317676L125.99994912147521,30.295775441951356L126.28718304804394,30.38665217060078L126.6701616168022,30.48412305623589L126.86165090118135,30.55861712370399L126.95739554337094,30.611796497210896L127.34037411212921,30.684740309829497L127.43611875431878,30.741443070266268L127.62760803869793,30.799216939001617L127.72335268088749,30.844484926525336L127.81909732307707,30.882143348659444L128.1063312496458,30.93283811758934L128.20207589183534,30.972374131950787L129.15952231373106,31.080819034166968L129.3510115981102,31.160625071629774L129.44675624029978,31.21593126050552L129.7339901668685,31.26947401309435L129.82973480905804,31.309340341033597L129.92547945124764,31.34142496083471L130.21271337781633,31.39259276822741L130.3084580200059,31.4360178522021L130.40420266219547,31.473206752184055L131.84037229503903,31.58353052232031L132.12760622160775,31.654178324241038L132.3190955059869,31.70621634171053L132.41484014817647,31.743059095322014L132.6063294325556,31.781706466890274L132.70207407474518,31.79842665339872L132.98930800131387,31.758833607100165L133.27654192788262,31.670183341670366L133.37228657007216,31.594513409892446L133.46803121226174,31.52737393494654L133.5637758544513,31.466943284041665L133.75526513883045,31.399934261278016L133.9467544232096,31.339581881682694L134.13824370758874,31.293827154270975L134.3297329919679,31.26414754790485L134.42547763415746,31.24421905082872L134.61696691853658,31.226429936127396L134.80845620291575,31.207061460954503L134.99994548729487,31.186427259510285L135.09569012948444,31.17065356543336L135.19143477167404,31.15928068905659L135.2871794138636,31.15330525653296L135.38292405605316,31.152689023578162L136.34037047794888,31.204171211928198L136.72334904670714,31.25870670074848L137.10632761546543,31.323451066214915L137.202072257655,31.3665391520077L137.29781689984458,31.396951579985373L137.48930618422372,31.42431818977519L137.77654011079244,31.45112974860603L138.06377403736116,31.480577303421065L138.25526332174027,31.511818529152077L138.44675260611945,31.547317057317414L138.542497248309,31.576993070580034L138.73398653268814,31.61208265457838L139.11696510144643,31.664417220511762L139.21270974363597,31.701543939864404L139.30845438582557,31.731242537874248L139.49994367020471,31.765391342755283L139.59568831239426,31.79287904543065L139.882922238963,31.828670339670477L139.97866688115255,31.856189205995474L140.07441152334212,31.877896322269144L140.17015616553172,31.89558620519788L140.36164544991084,31.913516664690352L140.8403686608587,31.935302753319757L141.12760258742742,31.96056862272302L141.60632579837528,31.994814743673828L141.7978150827544,32.02745059580661L142.1807936515127,32.07057224623411L142.37228293589183,32.104185912877156L142.75526150465012,32.119794536361674L142.85100614683967,32.126932940532896L142.94675078902927,32.12877713979019L143.04249543121884,32.12808103607688L143.23398471559796,32.128829777140005L143.52121864216667,32.13829213811797L143.61696328435625,32.14958949783473L143.80845256873542,32.1688802398786L143.90419721092496,32.187241031525915L143.99994185311454,32.20546799958651L144.57440970625194,32.260621468822066L144.76589899063111,32.30474136329781L144.8616436328207,32.33577287648467L145.0531329171998,32.36287471742263L145.1488775593894,32.38454369179013L145.4361114859581,32.41588941907998L145.53185612814767,32.44137716521196L146.0105793390955,32.48964721503077L146.1063239812851,32.524017114725886L146.20206862347467,32.55015296101041L146.48930255004336,32.58333051814766L146.68079183442254,32.61214413210736L146.77653647661208,32.63197718039136L146.87228111880165,32.64525548597832L146.96802576099125,32.65407076263332L147.0637704031808,32.65999614860348L147.15951504537037,32.66408156349913L147.7339828985078,32.68625563172283L148.21270610945564,32.73985400453181L148.30845075164524,32.7773148613586L148.4041953938348,32.80329058532789L148.88291860478265,32.82248126624543L149.26589717354094,32.82296786186223L149.45738645792008,32.81806402275354L149.55313110010962,32.81406135265995L149.9361096688679,32.811765787266616L150.3190882376262,32.82502150750099L150.98930073295318,32.71548631722784L151.18079001733236,32.60809279457253L151.46802394390104,32.48607877306372L151.65951322828022,32.38572497447444L151.75525787046976,32.310667562524756L152.0424917970385,32.210069904033446L152.13823643922805,32.12977641632689L152.3297257236072,32.0398218785487L152.42547036579677,31.964747859978715L152.7127042923655,31.86021688099058L154.3403632095882,31.69941438048186L154.43610785177776,31.606113980061465L154.53185249396734,31.552890693042464L154.62759713615688,31.52328952741328L155.01057570491517,31.516874750958564L155.2978096314839,31.52278125806592L155.39355427367346,31.530990775494665L155.68078820024218,31.555533268574905L155.77653284243175,31.576302854204346L155.87227748462132,31.59417247538634L156.2552560533796,31.623980847404685L156.35100069556916,31.646955630431435L156.44674533775873,31.66614837005152L156.6382346221379,31.689964266711723L156.82972390651702,31.717826497550327L157.0212131908962,31.74790445556923L157.2127024752753,31.781220509828405L157.7871703284127,31.848820603993307L157.9786596127919,31.904437866613733L158.45738282373975,31.978102156060842L158.5531274659293,32.03004140611546L159.41482924563545,32.13405214351109L159.51057388782502,32.2060018856032L160.56376495191031,32.344286617414824L160.94674352066858,32.41792623017293L161.04248816285815,32.44620449840388L161.32972208942684,32.39976153497128L161.4254667316164,32.352597084277015L161.71270065818513,32.26852312921291L161.9041899425643,32.18732812395411L161.99993458475387,32.12482635463119L162.09567922694342,32.07470693016119L162.7658917222704,31.983770231015892L162.86163636446,31.921785645130754L162.95738100664957,31.876748180550095L163.05312564883914,31.842303135404133L163.34035957540786,31.800004629099437L163.53184885978698,31.76349167571948L163.62759350197655,31.737766583829693L163.72333814416615,31.71851420883411L163.8190827863557,31.70441790392859L164.29780599730356,31.694687681031443L164.4892952816827,31.694999673737573L164.96801849263053,31.70907767219153L165.06376313482014,31.720281424497433L165.35099706138882,31.732623619011058L166.02120955671583,31.761660414936056L166.21269884109498,31.78820164549417L167.17014526299067,31.8629767316987L167.36163454736985,31.920354109634932L167.4573791895594,31.96167291948079L167.64886847393853,32.00236970481212L167.74461311612808,32.03357412243181L167.93610240050725,32.06491513588036L168.03184704269682,32.090294017044926L168.60631489583423,32.148042047537814L168.70205953802383,32.19000739556848L169.27652739116124,32.24381650335046L169.3722720333508,32.27991928788175L170.23397381305693,32.346116356987906L170.61695238181522,32.40725400434287L170.80844166619437,32.45422214905056L171.19142023495266,32.50265603847513L171.76588808809007,32.564905847595156L172.05312201465878,32.620175929085306L172.24461129903793,32.66616841418139L172.53184522560665,32.71380483451335L172.72333450998576,32.757443892834395L172.81907915217536,32.79094385756206L173.20205772093362,32.83871940539649L173.29780236312322,32.873746933867025L173.48929164750234,32.905897300546194L173.5850362896919,32.93070142702065L173.7765255740711,32.9568237891652L174.06375950063978,32.99253813572653L174.15950414282935,33.022131566701184L174.25524878501892,33.04805244832344L174.6382273537772,33.10061177262378L174.82971663815636,33.14911323325677L174.9254612803459,33.1855306393717L175.02120592253547,33.21395535613599L175.21269520691465,33.24214403579152L175.40418449129376,33.269554873204804L175.5956737756729,33.295438638644676L175.88290770224162,33.325071774064526L176.17014162881034,33.357908861438L176.2658862709999,33.38301898366613L176.36163091318946,33.403598963470365L176.64886483975818,33.43164037745126L176.84035412413735,33.45790248883139L176.93609876632692,33.4783253688238L177.2233326928956,33.50934758613992L177.3190773350852,33.534111042973414L177.6063112616539,33.56710138641721L177.9892898304122,33.61032969496868L178.08503447260173,33.64167454990369L178.1807791147913,33.66557122268045L178.8509916101183,33.717234131662266L179.04248089449746,33.758835543333866L179.13822553668706,33.7904767000948L179.2339701788766,33.816883960549816L179.5212041054453,33.85319339274834L179.6169487476349,33.881871435151275L179.80843803201404,33.91286302676078L180.19141660077233,33.95913355072461L180.28716124296187,33.99357617486107L180.38290588515144,34.020603949112434L180.67013981172016,34.05548306632099L181.05311838047845,34.10090500575979L181.14886302266802,34.133990185878325L181.34035230704714,34.16571740018618L181.43609694923674,34.19122196520351L181.5318415914263,34.21288690398339L181.6275862336159,34.23203599369534L181.81907551799503,34.25688606703915L182.10630944456372,34.29268533362235L182.2020540867533,34.321057276656106L182.2977987289429,34.34486678889774L182.39354337113244,34.36572676933797L182.77652193989073,34.40358552001761L182.8722665820803,34.43234486020689L183.35098979302816,34.47907865658646L183.54247907740728,34.51888900398801L183.63822371959688,34.54892533887307L183.73396836178645,34.57341537623691L184.11694693054474,34.61536082100183L184.40418085711343,34.65738791725014L184.59567014149258,34.692359547979606L184.88290406806126,34.7228858260718L184.97864871025084,34.74438269281177L185.07439335244044,34.76035587607816L185.17013799463,34.77280277593415L185.26588263681955,34.78313390574391L185.45737192119873,34.79569478339984L185.64886120557784,34.81213838967076L185.93609513214656,34.8367436495663L186.03183977433613,34.85638449199372L186.22332905871528,34.878666627070054L186.31907370090482,34.89733774125755L186.41481834309442,34.91394827957398L186.7020522696631,34.93918388201158L186.8935415540423,34.96429268977947L186.98928619623183,34.98402358760494L187.0850308384214,35.00063377612709L187.18077548061098,35.01515946574228L187.85098797593798,35.058230758267584L187.94673261812756,35.08979951357558L188.23396654469627,35.12666096277861L188.71268975564413,35.17995261117158L189.09566832440242,35.23483151937832L189.67013617753983,35.30391736632643L189.7658808197294,35.351731074264976L189.95737010410852,35.391871258613435L190.3403486728668,35.435572151845605L190.4360933150564,35.46667037427549L190.53183795724598,35.49010095756088L190.7233272416251,35.51423279050048L190.81907188381467,35.5334835400915L190.91481652600424,35.54969960301055L191.2977950947625,35.577667546768204L191.6807736635208,35.61427716897164L191.87226294789997,35.645998315274284L191.96800759008954,35.670650946185354L192.7339647276061,35.727751153200785L192.82970936979567,35.76657085391145L193.11694329636435,35.80311725719136L193.40417722293307,35.836497058744825L193.78715579169136,35.87338476906677L193.9786450760705,35.906121061542535L194.3616236448288,35.94559169297665L194.84034685577663,35.992390064333826L194.9360914979662,36.025028663649344L195.3190700667245,36.06316823923386L195.4148147089141,36.09061156108617L195.70204863548278,36.121922686993585L195.79779327767235,36.14558704902812L195.89353791986196,36.16445127941338L196.18077184643064,36.18976665713774L196.46800577299936,36.21958894324233L196.56375041518893,36.242572074720826L196.75523969956805,36.265799216599525L196.94672898394722,36.28885465473025L197.04247362613677,36.307247494110094L197.13821826832634,36.32305484756566L197.80843076365335,36.36222952523055L197.9999200480325,36.393475008216136L198.09566469022204,36.41582754454344L198.6701325433595,36.45309731547623L198.76587718554904,36.47970064454893L198.86162182773862,36.49958599851728L198.9573664699282,36.51565264074849L199.0531111121178,36.529003909286295L199.2446003964969,36.54454327346958L199.53183432306562,36.564364521599714L200.2020468183926,36.604463022789965L200.29779146058218,36.63255151669167L200.39353610277178,36.65332796955754L201.25523788247787,36.701316123324155L201.54247180904662,36.74240926847227L201.63821645123616,36.77098851208559L202.02119501999445,36.80499588764373L202.11693966218402,36.82942970616578L202.21268430437362,36.848225427129506L202.3084289465632,36.86374432622077L202.5956628731319,36.88524988190065L202.69140751532146,36.90186449850756L202.78715215751103,36.91586266165927L202.8828967997006,36.92807887941181L203.2658753684589,36.94972355954511L203.36162001064847,36.96525524753297L203.457364652838,36.97722517689679L203.74459857940673,36.99013311430749L203.93608786378587,37.00116501330198L204.12757714816502,37.01096525258322L204.31906643254416,37.01970838604812L204.41481107473373,37.026332742743826L204.5105557169233,37.03168583337821L204.70204500130245,37.03733653100399L204.79778964349202,37.042211462858944L205.27651285443986,37.05467972162654L205.56374678100858,37.07074964657588L205.75523606538772,37.08792020460667L206.04246999195644,37.11020468232451L206.32970391852515,37.13470921855236L206.42544856071473,37.152911150162396L206.61693784509384,37.16977036224649L206.80842712947302,37.18497564931279L207.38289498261042,37.20714133108012L207.4786396248,37.22266751006021L207.67012890917914,37.23601261063563L207.8616181935583,37.24985168743623L208.72331997326444,37.28307374928137L208.81906461545398,37.305551866296234L208.91480925764355,37.321901726402004L209.01055389983316,37.334468595698894L210.15948960610797,37.378803439278165L210.35097889048714,37.41155447186985L210.54246817486626,37.436082777914756L210.7339574592454,37.45546537470613L211.1169360280037,37.474411462516095L211.21268067019327,37.48747570180752L211.30842531238284,37.49722290531308L211.4041699545724,37.50487385068459L211.49991459676198,37.5113730778386L211.59565923895153,37.517075237399084L211.6914038811411,37.522511229729005L211.88289316552027,37.52980221831413L211.97863780770982,37.536615654710445L212.0743824498994,37.54303652313065L212.26587173427856,37.55176673067237L212.7445949452264,37.56983529139989L213.03182887179508,37.5889472875368L213.22331815617426,37.606246501674576L213.31906279836383,37.61980713004209L213.51055208274295,37.63419967016965L213.79778600931166,37.652378493900606L214.08501993588038,37.67187475782806L214.27650922025953,37.688980385989254L214.56374314682824,37.70698443927232L214.85097707339693,37.724785290988414L214.94672171558653,37.73758653527463L215.23395564215522,37.7518415549419L215.4254449265344,37.76484810658123L215.52118956872394,37.77498484414646L216.28714670624052,37.79951726601787L216.3828913484301,37.81656952572324L216.5743806328092,37.83178460469937L217.05310384375707,37.85331994163603L217.53182705470493,37.87769310338326L217.62757169689453,37.894543770350786L217.72331633908408,37.906668867125234L217.91480562346322,37.91786728171474L218.01055026565277,37.92649499039905L218.20203955003194,37.93527686214609L218.39352883441106,37.94404519506744L218.6807627609798,37.95460802796175L218.77650740316935,37.96274835096641L219.15948597192764,37.97632755112111L219.6382091828755,37.99560892081097L219.82969846725462,38.011313172474885L220.40416632039208,38.03303597636148L220.49991096258162,38.04797831862435L220.5956556047712,38.05885238391317L220.69140024696077,38.067285483016875L220.78714488915037,38.0742540024106L221.07437881571906,38.08469127715309L221.2658681000982,38.09477096186059L221.55310202666692,38.106862862466095L221.64884666885646,38.116026662760305L221.93608059542518,38.12990183930044L222.12756987980435,38.14215030174906L222.31905916418347,38.15299858909136L222.41480380637304,38.16099207477673L222.51054844856262,38.16716664280462L222.8935270173209,38.17543096012295L223.2765055860792,38.182828393758705L223.37225022826874,38.187584963928934L223.4679948704583,38.19096908934522L223.8509734392166,38.19490822452609L223.9467180814062,38.197801888948455L224.13820736578532,38.20091656421854L224.2339520079749,38.20342158935775L224.42544129235404,38.206833264371895L224.5211859345436,38.20983459934573L224.61693057673318,38.212907840284466L224.8084198611123,38.21729666475518L224.9041645033019,38.221096362729114L224.99990914549147,38.22475465813024L225.09565378768104,38.22832811198758L225.38288771424976,38.2347136508153L225.57437699862888,38.241407964008L225.67012164081845,38.246803028540775L226.24458949395589,38.25841696362366L226.34033413614546,38.26697587461561L226.43607877833503,38.27359573449058L226.81905734709332,38.28329363020807L227.01054663147244,38.292293467523706L227.2020359158516,38.30066239647198L227.5850144846099,38.31109162364546L228.25522697993688,38.32636227628994L228.5424609065056,38.33923595107521L228.7339501908847,38.34950503585474L228.9254394752639,38.35842343995579L229.02118411745346,38.36494088570753L229.21267340183257,38.37150226972908L229.40416268621175,38.37777190672413L229.59565197059086,38.38386649550347L229.69139661278044,38.388689652061885L229.78714125496998,38.392643912625516L230.07437518153873,38.39862171550014L230.17011982372827,38.40337480051573L230.45735375029702,38.40951378807265L230.55309839248656,38.414363583898115L230.84033231905528,38.4203485246158L231.127566245624,38.4269085156052L231.51054481438229,38.4348739033864L232.08501266751972,38.445803262498956L232.1807573097093,38.453421244594864L232.46799123627798,38.46127917040018L232.56373587846758,38.46705429251155L232.7552251628467,38.47274613569766L232.94671444722584,38.478281974865894L233.04245908941542,38.48245177166955L233.23394837379456,38.48686230968265L233.3296930159841,38.490356925792845L233.52118230036328,38.4941502820644L233.61692694255285,38.49716855246704L233.7126715847424,38.500039881336896L233.80841622693197,38.50271700862476L233.99990551131114,38.50623194492818L234.19139479569026,38.51014352997792L234.28713943787983,38.51333877431078L234.67011800663812,38.51907324077221L234.76586264882766,38.52346825061422L234.95735193320684,38.52780184312488L235.24458585977553,38.532840841876116L235.4360751441547,38.53745479106918L235.72330907072342,38.54234389384178L236.29777692386082,38.549518822018456L236.87224477699826,38.55785317211213L237.25522334575652,38.56529262541348L237.54245727232527,38.57177099398782L238.0211804832731,38.57883911501727L238.21266976765224,38.5844584642517L238.49990369422096,38.59016288037448L239.07437154735837,38.5971907765846L239.17011618954794,38.602043734287435L239.3616054739271,38.60622794886298L239.6488394004958,38.610329027551025L239.93607332706452,38.614486261368995L240.0318179692541,38.61761682163675L240.12756261144364,38.61991930444901L240.9892643911498,38.625860370637874L241.08500903333936,38.62995519366523L241.18075367552893,38.63273019747003L241.2764983177185,38.63481934640423L241.46798760209765,38.637027165730196L241.6594768864768,38.639200150628305L241.94671081304548,38.641776381521204L242.04245545523506,38.643852303370984L242.42543402399335,38.64690047974923L242.6169233083725,38.6495776788784L242.71266795056206,38.65160814500712L242.80841259275164,38.65325057133596L242.9041572349412,38.65487224711003L243.67011437245776,38.659344462448L244.5318161521639,38.665420964861674L244.72330543654306,38.669809122949474L245.01053936311177,38.67339634776741L245.4892625740596,38.67692715927454L245.77649650062835,38.679893939481936L245.8722411428179,38.68199211759486L246.15947506938664,38.68388724443948L246.2552197115762,38.68523639387172L246.54245363814488,38.686788140171444L246.82968756471362,38.6881433346021L247.02117684909274,38.689486634574436L247.2126661334719,38.69071676120954L247.49990006004063,38.69187898384153L247.78713398660932,38.693106500735254L247.8828786287989,38.694055084197046L247.97862327098846,38.69483630759968L248.1701125553676,38.69551711496721L248.9360696928842,38.697198039341465L249.1275589772633,38.69841866729158L249.31904826164248,38.69936311738711L249.5105375460216,38.70014186077057L249.98926075696946,38.701245326777226L250.4679839679173,38.70243758969565L250.85096253667558,38.70368313076104L251.23394110543387,38.70474856538887L251.32968574762344,38.705387826165556L251.42543038981302,38.705771382631575L251.8084089585713,38.70653169982532L251.90415360076085,38.70698789014137L251.99989824295042,38.707261604331L252.09564288514002,38.70753186950761L252.3828768117087,38.70790610193913L252.86160002265657,38.708448751386626L253.1488339492253,38.70898641438048L253.3403232336044,38.70952108550256L253.7233018023627,38.709947924838424L253.81904644455227,38.71031006510297L253.91479108674187,38.7105273492617L254.01053572893142,38.71076375641977L254.20202501331056,38.71101163737724L254.3935142976897,38.71116036595172L254.68074822425842,38.71135563975944L254.96798215082714,38.71147280404387L255.0637267930167,38.71154310261453L255.25521607739586,38.71179735508287L255.44670536177497,38.71194990656369L256.116917857102,38.7121474741152L256.40415178367067,38.71237205130893L256.49989642586024,38.712612834288L256.6913857102394,38.71275730407525L256.88287499461853,38.71284398594809L257.0743642789977,38.7128959950712L257.17010892118725,38.712927200545266L257.3615982055664,38.7129459238295L257.6488321321351,38.71295715780005L257.84032141651426,38.71296389818257L258.127555343083,38.712967942412185L258.3190446274621,38.712970368949954L258.4147892696517,38.71297182487232" fill="none"></path></g><g><path style="fill: none;" stroke="rgb(0, 119, 187)" stroke-width="2px" d="M258.51053391184126,38.71297400875636Z" fill="none"></path></g></g></g></g><g opacity="0.2"><g><g><g><path style="fill: none;" stroke="rgb(255, 112, 67)" stroke-width="2px" d="M19.627651648862024,157.05413119136898L19.72339629105159,157.05585428713994L20.106374859809875,157.0198018217784L20.202119501999448,156.98335171893126L20.489353428568158,156.8326471118869L20.58509807075773,156.77578495144536L20.872331997326445,156.59870372452252L20.96807663951601,156.54462502648022L21.063821281705582,156.49107651175206L21.44679985046387,156.31293491820094L22.308501630170003,155.98435380926253L22.595735556738717,155.89183682094506L22.978714125497,155.7717503002923L23.17020340987614,155.7192621521924L23.361692694255286,155.6651834541501L23.457437336444855,155.6239617014757L23.648926620823996,155.53197489647238L23.840415905203137,155.43998809146905L24.22339447396142,155.29180185516685L24.319139116150993,155.23957879872404L24.41488375834056,155.17608934685575L24.510628400530134,155.10318914116147L24.606373042719706,155.0239267356975L25.18084089585713,154.20360060289403L25.372330180236272,153.75069150678974L25.46807482242584,153.52191740673823L25.563819464615413,153.2900947526304L25.659564106804982,153.05880228183673L25.946798033373696,152.39183167264832L26.04254267556327,152.17790270539274L26.138287317752837,151.9720590336778L26.234031959942406,151.77907230733075L26.712755170890265,150.95516743715683L27.191478381838117,150.20350004353452L27.478712308406827,149.6949216994455L27.5744569505964,149.5187682933224L28.148924803733824,148.47854863097928L28.914881941250393,147.31201279404226L29.202115867819106,146.99562590132908L29.29786051000868,146.89913253815556L29.96807300533567,146.39903712709278L30.255306931904382,146.2218233543414L30.446796216283527,146.10584575437323L31.117008711610524,145.7332594303612L31.212753353800093,145.69495368591456L31.499987280368803,145.57142097371988L31.595731922558375,145.5260903003609L32.26594441788537,145.20506430364898L32.45743370226451,145.09863000333533L32.648922986643655,145.03023635581124L32.74466762883323,145.00160645684767L32.8404122710228,144.96966291217072L33.51062476634979,144.71530746721194L33.98934797729765,144.52033255343687L34.180837261676785,144.35199935119735L34.27658190386636,144.2686280250488L34.37232654605593,144.1763761283884L34.65956047262464,143.83241970333992L34.94679439919336,143.48104071189348L35.138283683572496,143.28686107308963L35.23402832576207,143.18983752660196L35.52126225233078,142.8962485163968L36.095730105468206,142.3441951405483L36.19147474765778,142.24054430263388L36.38296403203692,142.00023871549982L36.670197958605634,141.61254216703477L36.86168724298477,141.41345833257512L36.95743188517434,141.31351877785968L37.14892116955348,141.11310948511468L37.34041045393263,140.9230387669954L37.4361550961222,140.83555852016227L38.10636759144919,140.33519801744242L38.87232472896576,139.56431147868253L38.96806937115533,139.43746512077448L39.0638140133449,139.3218851582919L39.44679258210318,138.87957972847042L40.404239003998896,137.49407818279346L40.49998364618847,137.35331451288923L40.6914729305676,136.88874138387385L40.882962214946744,136.27624711021335L41.07445149932589,135.59085263085856L41.3616854258946,134.65985073122832L41.45743006808417,134.36586408353756L41.553174710273744,134.0571648488794L41.84040863684246,133.0997863293707L42.797855058738165,130.45775032918138L42.98934434311731,130.0407611526101L43.56381219625473,129.06893513779104L43.85104612282344,128.70138555526333L43.94679076501301,128.58076885129643L44.042535407202585,128.46439361384265L44.13828004939216,128.36498424244135L44.3297693337713,128.22355784339445L44.71274790252958,127.62895725658618L44.90423718690872,127.0029433084151L45.09572647128786,126.287991109297L45.287215755667006,125.54719247361456L45.765938966614854,123.9975991922112L46.34040681975228,122.52647304130059L47.01061931507928,121.32521019728736L47.10636395726885,121.19014599801014L47.5850871682167,120.58958084891779L47.680831810406275,120.49401530654401L47.96806573697499,120.20440267119491L48.063810379164565,120.11162059122037L48.15955502135413,120.0262610776438L48.54253359011241,119.7427455504073L48.638278232301985,119.67819573191073L48.82976751668112,119.52788876235198L49.11700144324984,119.26319474276747L49.49998001200812,118.94747057919696L49.595724654197696,118.8716543652749L49.69146929638726,118.79623578883846L49.78721393857683,118.72784214131437L49.97870322295597,118.59807977517855L50.26593714952469,118.41927545248475L50.36168179171426,118.36453402529978L50.457426433903834,118.30806950234384L50.744660360472544,118.13986884593285L51.031894287041254,117.99168260963066L51.60636214017868,117.46375257457552L51.79785142455783,117.20780657967433L52.08508535112654,116.78379247419068L52.18082999331611,116.63812460863068L52.37231927769525,116.35142798150935L52.46806391988481,116.20774830337734L52.946787130832675,115.54926062721518L53.04253177302225,115.44932107249974L53.42551034178053,115.11490794710579L53.61699962615967,114.9618175151478L53.90423355272838,114.7209817446996L54.28721212148667,114.38378515690641L54.67019069024495,114.06037333528087L54.86167997462409,113.87692990858835L55.24465854338237,113.4321061080247L55.340403185571944,113.29757209206161L55.436147827761516,113.16423098855535L55.627637112140654,112.89423513582943L56.10636032308851,112.2585453421753L56.202104965278075,112.1489299419768L56.585083534036364,111.81517954572553L56.68082817622594,111.73657986940424L56.77657281841551,111.65506418485518L57.73401924031121,110.58343116114924L58.21274245125907,110.06332132997767L58.88295494658606,108.88538655178661L58.97869958877563,108.60717285769152L59.45742279972349,107.20351253350526L59.55316744191306,106.96227912557146L59.744656726292206,106.54144611997265L59.93614601067134,106.1196852935741L60.31912457942963,105.31725284762287L61.180826359135764,101.41669420549319L61.3723156435149,97.96785174701098L61.468060285704475,96.06740965747532L61.755294212273185,90.30590758271343L62.32976206541062,80.3161935776832L63.09571920292718,71.79296661956487L63.19146384511675,71.08066533701746L63.28720848730632,70.40388633651746L63.47869777168547,69.16034137320155L63.57444241387504,68.5956961436422L63.86167634044374,67.14776551272523L63.957420982633316,66.7381989025519L64.43614419358117,65.12723690253681L64.53188883577074,64.86134997049548L65.58507989985603,62.67434379966702L65.87231382642473,62.39387682648684L65.9680584686143,62.32256717073498L66.15954775299345,62.181538409173676L66.35103703737259,62.05402932212295L66.63827096394131,61.857331312576925L67.69146202802658,61.25398270108534L68.07444059678487,61.04031882548683L68.17018523897444,61.010098376580835L68.36167452335357,60.943030187342096L68.64890844992229,60.874901631475076L68.84039773430143,60.801471242466654L69.31912094524928,60.58038480047018L69.41486558743887,60.55970765121871L69.98933344057627,60.3974715570918L70.18082272495542,60.318739334941974L70.27656736714499,60.28030104466681L70.37231200933456,60.24292312101992L70.46805665152414,60.19308588949074L70.56380129371371,60.139537374762575L70.65954593590328,60.068227719010714L70.85103522028243,59.8900861254596L71.04252450466156,59.59901548599661L71.52124771560942,58.65316845357044L71.61699235779898,58.486160709616264L71.71273699998856,58.31279076589241L71.90422628436771,57.958628312046734L72.28720485312597,57.293778436114884L72.47869413750512,57.00217761333776L72.67018342188426,56.7826817212837L73.05316199064255,56.55099161300442L73.14890663283212,56.495852548333836L73.24465127502168,56.43806256709255L73.62762984377997,56.173236001679506L74.01060841253826,55.95161937636889L74.10635305472782,55.87739371238926L74.39358698129655,55.61097659703379L74.58507626567568,55.42249642885696L74.68082090786525,55.322556874141526L74.77656555005481,55.226593694282144L74.8723101922444,55.134606889278814L74.96805483443396,55.03943898439064L75.06379947662354,54.93472777984795L75.25528876100267,54.725040279105485L75.35103340319225,54.635439299015786L75.82975661414011,54.1545630330906L75.92550125632967,54.057274394945864L76.21273518289838,53.77866306336517L76.30847982508796,53.689592266589614L76.59571375165666,53.466385091336576L76.7872030360358,53.36167388679388L77.1701816047941,53.21507820043411L77.36167088917324,53.15808349416403L77.55316017355239,53.120440478860075L77.74464945793152,53.10108878789396L78.03188338450023,53.072989072244525L78.41486195325851,53.02341693237241L78.5106065954481,53.005655791348715L78.70209587982723,52.981002267241195L78.98932980639594,52.95263745993469L79.37230837515423,52.92665847754182L79.85103158610208,52.80551159026078L80.52124408142907,52.67959305315247L80.61698872361865,52.65520462070202L80.80847800799779,52.59608918117539L80.90422265018735,52.570375290439586L80.99996729237694,52.546782132960345L81.0957119345665,52.53008135856493L81.28720121894564,52.500656184630145L81.57443514551434,52.46804991081052L81.95741371427263,52.42006832088083L82.0531583564622,52.408669379626815L82.4361369252205,52.3742074642077L82.7233708517892,52.408404287969745L83.10634942054749,52.48501577686301L83.39358334711619,52.49111288497562L83.48932798930578,52.479713943721606L83.58507263149534,52.46751972749638L83.68081727368492,52.452409503043384L83.77656191587448,52.4380945535616L83.96805120025363,52.40336754648541L84.06379584244318,52.387727138718276L84.15954048463277,52.37844893072082L84.35102976901192,52.364664164553176L84.44677441120147,52.363603797924895L84.54251905339105,52.362543431296615L84.63826369558062,52.407874104655605L84.82975297995976,51.33425289352164L85.0212422643389,49.43566644558547L85.11698690652847,48.352767026454046L85.78719940185547,41.06698792353899L86.07443332842418,38.57486125542283L86.17017797061376,37.84373846522345L86.26592261280332,37.163248181524466L86.45741189718247,35.95310476699939L86.74464582375117,34.49510065311375L86.93613510813032,33.724744297667996L87.12762439250946,33.08083666264471L87.51060296126774,32.068451624293935L87.89358153002603,31.315061134900663L88.18081545659473,30.878190084049113L88.27656009878432,30.752801730254948L88.37230474097387,30.636426492801167L88.46804938316346,30.52959455500191L88.56379402535302,30.429920091943547L89.04251723630087,30.030161873081813L89.6169850894383,29.665395752953334L89.80847437381745,29.56598638155204L89.90421901600702,29.514823691737508L89.99996365819658,29.461805360323485L90.2871975847653,29.295062708026382L90.57443151133401,29.20254571970891L90.67017615352357,29.15191321320852L90.9574100800923,28.9658188699453L91.05315472228186,28.89954595567777L91.14889936447145,28.836984324609222L91.34038864885058,28.747118252862453L91.53187793322971,28.658577639401035L92.10634578636714,28.359554250225944L92.39357971293586,28.245034654371654L92.48932435512542,28.21163310558082L92.77655828169415,28.138202716572398L92.87230292388371,28.128659416917873L92.96804756607328,28.129189600232014L93.15953685045241,28.135551800001696L93.255281492642,28.137142349944117L93.82974934577942,28.153047849368324L94.2127279145377,28.241058279515602L94.30847255672728,28.229129154947447L94.49996184110641,28.16471188227941L94.69145112548556,28.070869435676588L94.8829404098647,27.968809147704594L94.97868505205426,27.91685118291885L95.07442969424385,27.86462812647604L95.1701743364334,27.812935253347366L95.26591897862299,27.759121646962132L95.5531529051917,27.604043027576115L95.74464218957084,27.560037812502475L95.93613147394998,27.554470887704003L96.22336540051869,27.564279279015597L96.41485468489783,27.566400012272158L96.5105993270874,27.564014187358527L96.60634396927698,27.559242537531265L96.98932253803525,27.575678220269612L97.1808118224144,27.59158371969382L97.27655646460397,27.609875044031657L97.4680457489831,27.633733293167968L97.75527967555183,27.622334351913953L98.1382582443101,27.59131862803675L98.42549217087883,27.57037638712821L98.71272609744753,27.5465181379919L98.8084707396371,27.535649380052025L98.99996002401625,27.558182170902985L99.19144930839539,27.56666510392923L99.38293859277452,27.532203188510113L99.86166180372238,27.357772878157977L100.14889573029109,27.243253282303687L100.24464037248067,27.237421265848145L100.34038501467023,27.22761287453655L100.62761894123894,27.165051243468003L101.39357607875552,26.991681299744148L101.48932072094509,27.003875515969373L101.58506536313466,27.03992798133091L101.77655464751379,27.082342646462127L102.15953321627208,27.101429245771175L102.35102250065123,27.08843975457474L102.44676714284078,27.073064438464673L102.82974571159907,27.004405699283513L103.02123499597822,26.965437225694206L103.11697963816778,26.962521217466435L103.40421356473651,26.97657107529115L103.59570284911565,26.99592276625727L103.78719213349478,27.025082848534982L104.0744260600635,27.079691729891426L104.26591534444263,27.099043420857544L104.36165998663222,27.101694337428246L104.55314927101135,27.10938199548328L104.64889391320092,27.11574419525296L104.93612783976963,27.1544475771852L105.22336176633836,27.236095807562794L105.31910640852792,27.259158781727894L105.98931890385491,27.369436911069062L106.0850635460445,27.381366035637217L106.18080818823405,27.397536626718495L106.27655283042363,27.415562859399262L106.46804211480277,27.462749174357743L106.56378675699234,27.494560173206157L106.75527604137147,27.562423637416106L106.85102068356106,27.59423463626452L106.94676532575062,27.624189993513443L107.23399925231934,27.70928441543295L107.32974389450891,27.735528489482892L107.42548853669847,27.761507471875763L107.52123317888805,27.786691179297424L107.7127224632672,27.835733135855396L108.2871903164046,28.013609637749443L108.38293495859419,28.036937703571613L108.6701688851629,28.108777542637615L109.3403813804899,28.16312133233699L109.6276153070586,28.157024224224376L110.2978278023856,28.070074160705378L110.39357244457518,28.034816970315052L110.48931708676474,28.000885238210078L110.68080637114389,27.943625440282933L110.77655101333346,27.923478474345604L110.87229565552303,27.906777699950187L111.15952958209174,27.873111059502282L111.25527422428131,27.86515830979018L111.44676350866045,27.852964093564953L111.6382527930396,27.84395097722457L111.73399743522916,27.84660189379527L112.11697600398745,27.874966701101773L112.21272064617702,27.89034201721184L112.5956992149353,27.89166747549719L112.69144385712488,27.885835459041648L112.78718849931444,27.879208167614895L112.88293314150403,27.87152050955986L113.17016706807273,27.884775092413367L113.2659117102623,27.88954674224063L113.36165635245187,27.89087220052598L113.64889027902058,27.89299293378254L113.74463492121015,27.89537875869617L114.51059205872673,27.98285900552931L114.89357062748499,28.0512526530534L115.08505991186414,28.109042634294685L115.27654919624328,28.14323945805673L115.37229383843287,28.151722391082973L115.65952776500157,28.150662024454693L115.75527240719114,28.1461554662845L115.94676169157029,28.148541291198132L116.04250633375986,28.156228949253165L116.13825097594942,28.16815807382132L116.23399561813899,28.182738114960177L116.52122954470771,28.23628662968834L117.28718668222427,28.37492956633601L117.47867596660342,28.407270748498565L117.67016525098256,28.455252338428256L117.86165453536171,28.50668011989986L117.95739917755127,28.53477983554929L118.05314381974084,28.562084276227512L118.24463310411998,28.59919710821733L118.43612238849913,28.62332044901071L118.53186703068869,28.630743015408672L118.62761167287826,28.643202323290968L118.91484559944698,28.69303955482015L119.10633488382612,28.732803303380667L119.77654737915312,28.89742522242121L119.87229202134267,28.9223438381858L120.1595259479114,28.984640377597277L120.35101523229055,29.021753209587093L120.92548308542797,29.119572031045966L121.02122772761753,29.138128447040874L121.21271701199667,29.188760953541266L121.40420629637582,29.26378189249211L121.78718486513411,29.395532446055956L122.1701634338924,29.486193792773935L122.36165271827153,29.51826988327942L122.55314200265066,29.551936523727324L122.84037592921939,29.650815711814477L122.93612057140895,29.68395216894824L123.03186521359852,29.712847159568884L123.1276098557881,29.736440317048125L123.70207770892551,29.813316897598458L123.79782235111509,29.825776205480754L124.37229020425251,29.97555299172537L124.56377948863165,30.04924847239086L124.7552687730108,30.11605156997253L124.85101341520037,30.144151285621962L124.94675805738994,30.168539718072413L125.80845983709608,30.36576791093258L125.99994912147521,30.426473900401636L126.28718304804394,30.522967263575158L126.6701616168022,30.630329384688554L126.86165090118135,30.670358224906142L126.95739554337094,30.69156555747175L127.34037411212921,30.794156028757886L127.43611875431878,30.82649721092044L127.62760803869793,30.885877742104146L127.72335268088749,30.912386907811157L127.81909732307707,30.9386309818611L128.1063312496458,31.00888027098468L128.20207589183534,31.03167815349271L129.15952231373106,31.243486387491732L129.3510115981102,31.280334127824478L129.44675624029978,31.298890543819386L129.7339901668685,31.34978814197685L129.82973480905804,31.369139832942967L129.92547945124764,31.389551890537366L130.21271337781633,31.46934447931547L130.3084580200059,31.501155478163884L130.40420266219547,31.528990102156246L131.84037229503903,31.749016177524442L132.12760622160775,31.760150027121387L132.3190955059869,31.784273367914768L132.41484014817647,31.798323225739484L132.6063294325556,31.839677524242422L132.70207407474518,31.823506933161145L132.98930800131387,31.69944403765233L133.27654192788262,31.53720794352542L133.37228657007216,31.481008512226555L133.46803121226174,31.426664722527182L133.5637758544513,31.37629730768386L133.75526513883045,31.299420727133526L133.9467544232096,31.249053312290204L134.13824370758874,31.225195063153894L134.3297329919679,31.21962813835542L134.42547763415746,31.21432630521402L134.61696691853658,31.199746264075163L134.80845620291575,31.178008748195413L134.99994548729487,31.155475957344454L135.09569012948444,31.14699302431821L135.19143477167404,31.142221374490948L135.2871794138636,31.14434210774751L135.38292405605316,31.151764674145472L136.34037047794888,31.28139449445276L136.72334904670714,31.340509933979394L137.10632761546543,31.42056761441457L137.202072257655,31.431171280697374L137.29781689984458,31.44257022195139L137.48930618422372,31.46536810445942L137.77654011079244,31.49134708685229L138.06377403736116,31.524748635643125L138.25526332174027,31.5586803677481L138.44675260611945,31.600564849565178L138.542497248309,31.621507090473717L138.73398653268814,31.664717030576146L139.11696510144643,31.74291906941183L139.21270974363597,31.757234018893616L139.30845438582557,31.775790434888524L139.49994367020471,31.816614550077322L139.59568831239426,31.83411059944395L139.882922238963,31.88235728103071L139.97866688115255,31.897467505483707L140.07441152334212,31.910456996680143L140.17015616553172,31.922121029591228L140.36164544991084,31.940412353929066L140.8403686608587,31.967981886264358L141.12760258742742,31.99846742682742L141.60632579837528,32.046183925100046L141.7978150827544,32.07640437400604L142.1807936515127,32.135254721875604L142.37228293589183,32.15460641284172L142.75526150465012,32.14320747158771L142.85100614683967,32.137640546789235L142.94675078902927,32.13154343867662L143.04249543121884,32.12703688050643L143.23398471559796,32.1299528887342L143.52121864216667,32.15248567958516L143.61696328435625,32.16653553740988L143.80845256873542,32.19781635294415L143.90419721092496,32.21478221899664L143.99994185311454,32.23280845167741L144.57440970625194,32.343351672675645L144.76589899063111,32.37092120501094L144.8616436328207,32.38232014626495L145.0531329171998,32.40352747883056L145.1488775593894,32.41704715334114L145.4361114859581,32.46290801001427L145.53185612814767,32.479608784409685L146.0105793390955,32.56205228975849L146.1063239812851,32.575571964269066L146.20206862347467,32.58935673043671L146.48930255004336,32.63309685385328L146.68079183442254,32.65536455304717L146.77653647661208,32.661726752816854L146.87228111880165,32.665172944358766L146.96802576099125,32.667293677615326L147.0637704031808,32.66888422755775L147.15951504537037,32.6702096858431L147.7339828985078,32.71951673405814L148.21270610945564,32.82025156374478L148.30845075164524,32.83350614659829L148.4041953938348,32.8422541712816L148.88291860478265,32.85126728762199L149.26589717354094,32.823697755286695L149.45738645792008,32.81070826409026L149.55313110010962,32.80805734751956L149.9361096688679,32.80832243917663L150.3190882376262,32.844905087852304L150.98930073295318,32.551183531818616L151.18079001733236,32.44700251059006L151.46802394390104,32.30305774080099L151.65951322828022,32.23519427659104L151.75525787046976,32.19808144460122L152.0424917970385,32.05917341629648L152.13823643922805,32.0093361847673L152.3297257236072,31.90489007188167L152.42547036579677,31.852136832124717L152.7127042923655,31.703420412508382L154.3403632095882,31.458210629718526L154.43610785177776,31.46616337943063L154.53185249396734,31.473055762514452L154.62759713615688,31.478887778969995L155.01057570491517,31.507252586276497L155.2978096314839,31.531641018726948L155.39355427367346,31.543305051638033L155.68078820024218,31.592347008196004L155.77653284243175,31.607457232649L155.87227748462132,31.620976907159577L156.2552560533796,31.668693405432197L156.35100069556916,31.681417804971563L156.44674533775873,31.69493747948214L156.6382346221379,31.725688111702272L156.82972390651702,31.759619843807247L157.0212131908962,31.79302139259808L157.2127024752753,31.83119459121618L157.7871703284127,31.95022074524066L157.9786596127919,31.987863760544617L158.45738282373975,32.088598590231264L158.5531274659293,32.10795028119738L159.41482924563545,32.29006824960455L159.51057388782502,32.31392649874086L160.56376495191031,32.551713715132756L160.94674352066858,32.528385649310586L161.04248816285815,32.48862190075007L161.32972208942684,32.33009708982214L161.4254667316164,32.28185040823538L161.71270065818513,32.1424121966165L161.9041899425643,32.065535616066164L161.99993458475387,32.03107370064705L162.09567922694342,31.9995277934557L162.7658917222704,31.847365182297455L162.86163636446,31.828808766302547L162.95738100664957,31.80919198367936L163.05312564883914,31.79063556768445L163.34035957540786,31.736556869642147L163.53184885978698,31.708722245649785L163.62759350197655,31.69917894599526L163.72333814416615,31.689635646340736L163.8190827863557,31.683273446571054L164.29780599730356,31.680092346686212L164.4892952816827,31.69546766279628L164.96801849263053,31.730194669872464L165.06376313482014,31.737087052956287L165.35099706138882,31.751136910781003L166.02120955671583,31.805215608823307L166.21269884109498,31.828013491331337L167.17014526299067,31.97513936100525L167.36163454736985,32.00642017653953L167.4573791895594,32.023651134249086L167.64886847393853,32.0634148828096L167.74461311612808,32.08038074886209L167.93610240050725,32.111926656053434L168.03184704269682,32.12836233879178L168.60631489583423,32.2346640932769L168.70205953802383,32.252955417614736L169.27652739116124,32.32453016502367L169.3722720333508,32.33407346467819L170.23397381305693,32.44541196064764L170.61695238181522,32.4989604753758L170.80844166619437,32.524674366111604L171.19142023495266,32.575306872611996L171.76588808809007,32.65828056127494L172.05312201465878,32.70308105131979L172.24461129903793,32.735157141825276L172.53184522560665,32.78525946501153L172.72333450998576,32.822902480315484L172.81907915217536,32.84119380465332L173.20205772093362,32.91038272714862L173.29780236312322,32.92628822657283L173.48929164750234,32.95412285056519L173.5850362896919,32.96790761673284L173.7765255740711,32.99600733238227L174.06375950063978,33.04610965556852L174.15950414282935,33.06652171316292L174.25524878501892,33.08693377075732L174.6382273537772,33.17945075907479L174.82971663815636,33.22186542420601L174.9254612803459,33.240156748543846L175.02120592253547,33.25659243128219L175.21269520691465,33.284427055274556L175.40418449129376,33.3106711293245L175.5956737756729,33.33426428680374L175.88290770224162,33.36952147719404L176.17014162881034,33.407164492498L176.2658862709999,33.420684167008574L176.36163091318946,33.43446893317622L176.64886483975818,33.4737024984226L176.84035412413735,33.49729565590184L176.93609876632692,33.50895968881292L177.2233326928956,33.55588091211433L177.3190773350852,33.5712562282244L177.6063112616539,33.61658690158339L177.9892898304122,33.675172157795885L178.08503447260173,33.68869183230646L178.1807791147913,33.701416231845826L178.8509916101183,33.79472849513451L179.04248089449746,33.82123766084152L179.13822553668706,33.837938435236936L179.2339701788766,33.856494851231844L179.5212041054453,33.907657541046376L179.6169487476349,33.924888498755934L179.80843803201404,33.95935041417505L180.19141660077233,34.02853933667035L180.28716124296187,34.045240111065766L180.38290588515144,34.06114561048997L180.67013981172016,34.10780174213431L181.05311838047845,34.16903791491751L181.14886302266802,34.183617956056366L181.34035230704714,34.21330822164822L181.43609694923674,34.229478812729496L181.5318415914263,34.2453843121537L181.6275862336159,34.26075962826377L181.81907551799503,34.294161177054605L182.10630944456372,34.34638423349742L182.2020540867533,34.363615191206975L182.2977987289429,34.38058105725946L182.39354337113244,34.39701673999781L182.77652193989073,34.46037364603757L182.8722665820803,34.475483870490564L183.35098979302816,34.549179351156056L183.54247907740728,34.57860452509084L183.63822371959688,34.593979841200905L183.73396836178645,34.61015043228218L184.11694693054474,34.6782789881492L184.40418085711343,34.72042856162335L184.59567014149258,34.7448169940738L184.88290406806126,34.76867524321011L184.97864871025084,34.776627992922215L185.07439335244044,34.78431565097725L185.17013799463,34.79147312571814L185.26588263681955,34.798630600459035L185.45737192119873,34.81453609988324L185.64886120557784,34.83680379907713L185.93609513214656,34.87365153940988L186.03183977433613,34.8858457556351L186.22332905871528,34.912089829685044L186.31907370090482,34.92534441253855L186.41481834309442,34.938864087049126L186.7020522696631,34.97703728566722L186.8935415540423,35.00195590143181L186.98928619623183,35.0136199343429L187.0850308384214,35.025549058911054L187.18077548061098,35.03694800016507L187.85098797593798,35.122837697055786L187.94673261812756,35.13715264653757L188.23396654469627,35.18195313658242L188.71268975564413,35.259890083761036L189.09566832440242,35.31714988168818L189.67013617753983,35.40754613674909L189.7658808197294,35.4234516361733L189.95737010410852,35.45208153513687L190.3403486728668,35.50112349169484L190.4360933150564,35.513317707920066L190.53183795724598,35.52524683248822L190.7233272416251,35.55043053990988L190.81907188381467,35.56235966447804L190.91481652600424,35.57402369738912L191.2977950947625,35.61961946240518L191.6807736635208,35.669191602277294L191.87226294789997,35.693580034727745L191.96800759008954,35.70762989255246L192.7339647276061,35.81340146372344L192.82970936979567,35.82480040497745L193.11694329636435,35.85793686211122L193.40417722293307,35.88656676107479L193.78715579169136,35.92871633454894L193.9786450760705,35.95522550025595L194.3616236448288,36.00479764012806L194.84034685577663,36.062587621369346L194.9360914979662,36.07398656262336L195.3190700667245,36.12037760261063L195.4148147089141,36.131776543864646L195.70204863548278,36.16888937585446L195.79779327767235,36.18108359207969L195.89353791986196,36.19274762499077L196.18077184643064,36.22773972372403L196.46800577299936,36.264322372399704L196.56375041518893,36.27704677193907L196.75523969956805,36.30063992941831L196.94672898394722,36.32343781192634L197.04247362613677,36.334836753180355L197.13821826832634,36.34676587774851L197.80843076365335,36.42099154172814L197.9999200480325,36.44034323269426L198.09566469022204,36.449356349034645L198.6701325433595,36.50900197187542L198.76587718554904,36.519605638158225L198.86162182773862,36.52941402946982L198.9573664699282,36.539752604095554L199.0531111121178,36.54903081209301L199.2446003964969,36.567852319744986L199.53183432306562,36.59409639379493L200.2020468183926,36.66461077457558L200.29779146058218,36.67468425754424L200.39353610277178,36.68449264885584L201.25523788247787,36.773298353974326L201.54247180904662,36.80404898619446L201.63821645123616,36.813857377506054L202.02119501999445,36.8560069509802L202.11693966218402,36.866080433948866L202.21268430437362,36.8764190085746L202.3084289465632,36.887022674857405L202.5956628731319,36.91750821542047L202.69140751532146,36.92678642341792L202.78715215751103,36.93685990638659L202.8828967997006,36.94640320604111L203.2658753684589,36.98219057974558L203.36162001064847,36.98855277951526L203.457364652838,36.99518007094201L203.74459857940673,37.0094950204238L203.93608786378587,37.01771286179297L204.12757714816502,37.025665611505076L204.31906643254416,37.03282308624597L204.41481107473373,37.03626927778788L204.5105557169233,37.03971546932979L204.70204500130245,37.045812577442405L204.79778964349202,37.049523860641386L205.27651285443986,37.0733821097777L205.56374678100858,37.094854534000376L205.75523606538772,37.113676041652354L206.04246999195644,37.14363139890128L206.32970391852515,37.17146602289364L206.42544856071473,37.18021404757695L206.61693784509384,37.19505918037288L206.80842712947302,37.207783579912245L207.38289498261042,37.24038985373187L207.4786396248,37.24595677853034L207.67012890917914,37.256030261499006L207.8616181935583,37.27061030263786L208.72331997326444,37.33290684204934L208.81906461545398,37.33926904181902L208.91480925764355,37.346426516559916L209.01055389983316,37.35331889964374L210.15948960610797,37.44530570464707L210.35097889048714,37.460681020757136L210.54246817486626,37.47287523698236L210.7339574592454,37.484539269893446L211.1169360280037,37.502830594231284L211.21268067019327,37.507072060744406L211.30842531238284,37.51184371057167L211.4041699545724,37.51635026874186L211.49991459676198,37.52112191856912L211.59565923895153,37.525628476739314L211.6914038811411,37.530665218223646L211.88289316552027,37.54073870119231L211.97863780770982,37.54683580930492L212.0743824498994,37.552667825760466L212.26587173427856,37.56486204198569L212.7445949452264,37.596938132491175L213.03182887179508,37.617615281742644L213.22331815617426,37.6321953228815L213.31906279836383,37.640148072593604L213.51055208274295,37.65578848036074L213.79778600931166,37.67964672949705L214.08501993588038,37.70111915371973L214.27650922025953,37.714638828230306L214.56374314682824,37.733990519196425L214.85097707339693,37.75148656856305L214.94672171558653,37.756788401704455L215.23395564215522,37.7732240844428L215.4254449265344,37.78435793403975L215.52118956872394,37.79018995049529L216.28714670624052,37.83631589882549L216.3828913484301,37.84214791528103L216.5743806328092,37.85460722316333L217.05310384375707,37.88562294704053L217.53182705470493,37.9142528460041L217.62757169689453,37.919819770802576L217.72331633908408,37.92485651228691L217.91480562346322,37.9346649035985L218.01055026565277,37.939436553425764L218.20203955003194,37.94844966976615L218.39352883441106,37.95719769444946L218.6807627609798,37.97045227730297L218.77650740316935,37.97495883547316L219.15948597192764,37.99669635135291L219.6382091828755,38.02453097534527L219.82969846725462,38.034869549971006L220.40416632039208,38.06562018219114L220.49991096258162,38.0703918320184L220.5956556047712,38.075163481845664L220.69140024696077,38.079935131672926L220.78714488915037,38.08470678150019L221.07437881571906,38.100347189267325L221.2658681000982,38.10989048892185L221.55310202666692,38.125000713374845L221.64884666885646,38.12977236320211L221.93608059542518,38.15071460411065L222.12756987980435,38.16052299542224L222.31905916418347,38.169271020105555L222.41480380637304,38.172982303304536L222.51054844856262,38.17642849484645L222.8935270173209,38.18782743610046L223.2765055860792,38.193924544213075L223.37225022826874,38.194719819184286L223.4679948704583,38.196045277469636L223.8509734392166,38.2008169272969L223.9467180814062,38.20214238558225L224.13820736578532,38.20558857712416L224.2339520079749,38.20717912706658L224.42544129235404,38.21195077689384L224.5211859345436,38.214336601807474L224.61693057673318,38.217517701692316L224.8084198611123,38.223879901462L224.9041645033019,38.22679590968977L224.99990914549147,38.23024210123168L225.09565378768104,38.23368829277359L225.38288771424976,38.2442919590564L225.57437699862888,38.25144943379729L225.67012164081845,38.2548956253392L226.24458949395589,38.27583786624774L226.34033413614546,38.27981424110379L226.43607877833503,38.283525524302775L226.81905734709332,38.29784047378456L227.01054663147244,38.305793223496664L227.2020359158516,38.31321578989463L227.5850144846099,38.3267354644052L228.25522697993688,38.34926825525616L228.5424609065056,38.35854646325362L228.7339501908847,38.3649086630233L228.9254394752639,38.37180104610712L229.02118411745346,38.374717054334894L229.21267340183257,38.38134434576165L229.40416268621175,38.38717636221719L229.59565197059086,38.39300837867273L229.69139661278044,38.395924386900504L229.78714125496998,38.398575303471205L230.07437518153873,38.40758841981159L230.17011982372827,38.41050442803936L230.45735375029702,38.41872226940853L230.55309839248656,38.421638277636305L230.84033231905528,38.42932593569134L231.127566245624,38.4367485020893L231.51054481438229,38.446821985057966L232.08501266751972,38.46219730116803L232.1807573097093,38.464848217738734L232.46799123627798,38.47306605910791L232.56373587846758,38.47571697567861L232.7552251628467,38.48128390047708L232.94671444722584,38.48658573361848L233.04245908941542,38.488706466875044L233.23394837379456,38.493478116702306L233.3296930159841,38.49559884995887L233.52118230036328,38.49984031647199L233.61692694255285,38.50169595807148L233.7126715847424,38.50434687464218L233.80841622693197,38.50673269955581L233.99990551131114,38.511504349383074L234.19139479569026,38.516010907553266L234.28713943787983,38.51813164080983L234.67011800663812,38.52767494046435L234.76586264882766,38.53006076537798L234.95735193320684,38.534302231891104L235.24458585977553,38.54039934000372L235.4360751441547,38.54437571485977L235.72330907072342,38.54967754800117L236.29777692386082,38.560281214283975L236.87224477699826,38.57035469725264L237.25522334575652,38.57645180536525L237.54245727232527,38.581488546849585L238.0211804832731,38.58944129656169L238.21266976765224,38.5928874881036L238.49990369422096,38.59871950455914L239.07437154735837,38.607732620899526L239.17011618954794,38.60932317084195L239.3616054739271,38.61250427072679L239.6488394004958,38.61648064558284L239.93607332706452,38.62072211209596L240.0318179692541,38.62231266203838L240.12756261144364,38.62337302866666L240.9892643911498,38.63477196992068L241.08500903333936,38.63609742820603L241.18075367552893,38.63689270317724L241.2764983177185,38.63795306980552L241.46798760209765,38.64033889471915L241.6594768864768,38.64245962797571L241.94671081304548,38.64564072786055L242.04245545523506,38.6469661861459L242.42543402399335,38.651472744316095L242.6169233083725,38.653593477572656L242.71266795056206,38.654653844200936L242.80841259275164,38.65571421082922L242.9041572349412,38.65730476077164L243.67011437245776,38.66605278545495L244.5318161521639,38.674535718481195L244.72330543654306,38.676391360080686L245.01053936311177,38.67877718499432L245.4892625740596,38.68222337653623L245.77649650062835,38.68434410979279L245.8722411428179,38.685139384764L246.15947506938664,38.68672993470642L246.2552197115762,38.68726011802056L246.54245363814488,38.68911575962005L246.82968756471362,38.69017612624833L247.02117684909274,38.69150158453368L247.2126661334719,38.69256195116196L247.49990006004063,38.69362231779024L247.78713398660932,38.694947776075594L247.8828786287989,38.695477959389734L247.97862327098846,38.696008142703874L248.1701125553676,38.696538326018015L248.9360696928842,38.699719425902856L249.1275589772633,38.700249609216996L249.31904826164248,38.70077979253114L249.5105375460216,38.70130997584528L249.98926075696946,38.7029005257877L250.4679839679173,38.70422598407305L250.85096253667558,38.7055514423584L251.23394110543387,38.70634671732961L251.32968574762344,38.70634671732961L251.42543038981302,38.70634671732961L251.8084089585713,38.70767217561496L251.90415360076085,38.70767217561496L251.99989824295042,38.70767217561496L252.09564288514002,38.70793726727203L252.3828768117087,38.70846745058617L252.86160002265657,38.70926272555738L253.1488339492253,38.70979290887152L253.3403232336044,38.71032309218566L253.7233018023627,38.71058818384273L253.81904644455227,38.7108532754998L253.91479108674187,38.7108532754998L254.01053572893142,38.71111836715687L254.20202501331056,38.71138345881394L254.3935142976897,38.71138345881394L254.68074822425842,38.71164855047101L254.96798215082714,38.71164855047101L255.0637267930167,38.71164855047101L255.25521607739586,38.71217873378515L255.44670536177497,38.71217873378515L256.116917857102,38.71244382544222L256.40415178367067,38.71270891709929L256.49989642586024,38.71297400875636L256.6913857102394,38.71297400875636L256.88287499461853,38.71297400875636L257.0743642789977,38.71297400875636L257.17010892118725,38.71297400875636L257.3615982055664,38.71297400875636L257.6488321321351,38.71297400875636L257.84032141651426,38.71297400875636L258.127555343083,38.71297400875636L258.3190446274621,38.71297400875636L258.4147892696517,38.71297400875636" fill="none"></path></g><g><path style="fill: none;" stroke="rgb(0, 119, 187)" stroke-width="2px" d="M258.51053391184126,38.71297400875636Z" fill="none"></path></g></g></g></g></g></g><g transform="translate(61, 177)" clip-path="url(#clip_1)"><clipPath id="clip_1"><rect width="268" height="22"></rect></clipPath><g><g><line x1="0" y1="0" x2="0" y2="5" style="visibility: inherit;" fill="rgb(0, 0, 0)" stroke="rgb(204, 204, 204)" stroke-width="1px"></line><line x1="19.148928437914165" y1="0" x2="19.148928437914165" y2="5" style="visibility: inherit;" fill="rgb(0, 0, 0)" stroke="rgb(204, 204, 204)" stroke-width="1px"></line><line x1="38.29785687582833" y1="0" x2="38.29785687582833" y2="5" style="visibility: inherit;" fill="rgb(0, 0, 0)" stroke="rgb(204, 204, 204)" stroke-width="1px"></line><line x1="57.446785313742495" y1="0" x2="57.446785313742495" y2="5" style="visibility: inherit;" fill="rgb(0, 0, 0)" stroke="rgb(204, 204, 204)" stroke-width="1px"></line><line x1="76.59571375165666" y1="0" x2="76.59571375165666" y2="5" style="visibility: inherit;" fill="rgb(0, 0, 0)" stroke="rgb(204, 204, 204)" stroke-width="1px"></line><line x1="95.74464218957084" y1="0" x2="95.74464218957084" y2="5" style="visibility: inherit;" fill="rgb(0, 0, 0)" stroke="rgb(204, 204, 204)" stroke-width="1px"></line><line x1="114.89357062748499" y1="0" x2="114.89357062748499" y2="5" style="visibility: inherit;" fill="rgb(0, 0, 0)" stroke="rgb(204, 204, 204)" stroke-width="1px"></line><line x1="134.04249906539917" y1="0" x2="134.04249906539917" y2="5" style="visibility: inherit;" fill="rgb(0, 0, 0)" stroke="rgb(204, 204, 204)" stroke-width="1px"></line><line x1="153.19142750331332" y1="0" x2="153.19142750331332" y2="5" style="visibility: inherit;" fill="rgb(0, 0, 0)" stroke="rgb(204, 204, 204)" stroke-width="1px"></line><line x1="172.34035594122753" y1="0" x2="172.34035594122753" y2="5" style="visibility: inherit;" fill="rgb(0, 0, 0)" stroke="rgb(204, 204, 204)" stroke-width="1px"></line><line x1="191.48928437914168" y1="0" x2="191.48928437914168" y2="5" style="visibility: inherit;" fill="rgb(0, 0, 0)" stroke="rgb(204, 204, 204)" stroke-width="1px"></line><line x1="210.63821281705583" y1="0" x2="210.63821281705583" y2="5" style="visibility: inherit;" fill="rgb(0, 0, 0)" stroke="rgb(204, 204, 204)" stroke-width="1px"></line><line x1="229.78714125496998" y1="0" x2="229.78714125496998" y2="5" style="visibility: inherit;" fill="rgb(0, 0, 0)" stroke="rgb(204, 204, 204)" stroke-width="1px"></line><line x1="248.9360696928842" y1="0" x2="248.9360696928842" y2="5" style="visibility: inherit;" fill="rgb(0, 0, 0)" stroke="rgb(204, 204, 204)" stroke-width="1px"></line><line x1="268.08499813079834" y1="0" x2="268.08499813079834" y2="5" style="visibility: inherit;" fill="rgb(0, 0, 0)" stroke="rgb(204, 204, 204)" stroke-width="1px"></line></g><g transform="translate(0, 8)"><text style="text-anchor: middle; visibility: hidden; font-family: Roboto, sans-serif; font-size: 12px; font-weight: 200;" x="0" y="0" dx="0em" dy="0.95em" fill="rgb(50, 49, 63)" stroke="none" stroke-width="1px">-200</text><text style="text-anchor: middle; visibility: inherit; font-family: Roboto, sans-serif; font-size: 12px; font-weight: 200;" x="19.148928437914165" y="0" dx="0em" dy="0.95em" fill="rgb(50, 49, 63)" stroke="none" stroke-width="1px">0</text><text style="text-anchor: middle; visibility: hidden; font-family: Roboto, sans-serif; font-size: 12px; font-weight: 200;" x="38.29785687582833" y="0" dx="0em" dy="0.95em" fill="rgb(50, 49, 63)" stroke="none" stroke-width="1px">200</text><text style="text-anchor: middle; visibility: inherit; font-family: Roboto, sans-serif; font-size: 12px; font-weight: 200;" x="57.446785313742495" y="0" dx="0em" dy="0.95em" fill="rgb(50, 49, 63)" stroke="none" stroke-width="1px">400</text><text style="text-anchor: middle; visibility: hidden; font-family: Roboto, sans-serif; font-size: 12px; font-weight: 200;" x="76.59571375165666" y="0" dx="0em" dy="0.95em" fill="rgb(50, 49, 63)" stroke="none" stroke-width="1px">600</text><text style="text-anchor: middle; visibility: inherit; font-family: Roboto, sans-serif; font-size: 12px; font-weight: 200;" x="95.74464218957084" y="0" dx="0em" dy="0.95em" fill="rgb(50, 49, 63)" stroke="none" stroke-width="1px">800</text><text style="text-anchor: middle; visibility: hidden; font-family: Roboto, sans-serif; font-size: 12px; font-weight: 200;" x="114.89357062748499" y="0" dx="0em" dy="0.95em" fill="rgb(50, 49, 63)" stroke="none" stroke-width="1px">1k</text><text style="text-anchor: middle; visibility: inherit; font-family: Roboto, sans-serif; font-size: 12px; font-weight: 200;" x="134.04249906539917" y="0" dx="0em" dy="0.95em" fill="rgb(50, 49, 63)" stroke="none" stroke-width="1px">1.2k</text><text style="text-anchor: middle; visibility: hidden; font-family: Roboto, sans-serif; font-size: 12px; font-weight: 200;" x="153.19142750331332" y="0" dx="0em" dy="0.95em" fill="rgb(50, 49, 63)" stroke="none" stroke-width="1px">1.4k</text><text style="text-anchor: middle; visibility: inherit; font-family: Roboto, sans-serif; font-size: 12px; font-weight: 200;" x="172.34035594122753" y="0" dx="0em" dy="0.95em" fill="rgb(50, 49, 63)" stroke="none" stroke-width="1px">1.6k</text><text style="text-anchor: middle; visibility: hidden; font-family: Roboto, sans-serif; font-size: 12px; font-weight: 200;" x="191.48928437914168" y="0" dx="0em" dy="0.95em" fill="rgb(50, 49, 63)" stroke="none" stroke-width="1px">1.8k</text><text style="text-anchor: middle; visibility: inherit; font-family: Roboto, sans-serif; font-size: 12px; font-weight: 200;" x="210.63821281705583" y="0" dx="0em" dy="0.95em" fill="rgb(50, 49, 63)" stroke="none" stroke-width="1px">2k</text><text style="text-anchor: middle; visibility: hidden; font-family: Roboto, sans-serif; font-size: 12px; font-weight: 200;" x="229.78714125496998" y="0" dx="0em" dy="0.95em" fill="rgb(50, 49, 63)" stroke="none" stroke-width="1px">2.2k</text><text style="text-anchor: middle; visibility: inherit; font-family: Roboto, sans-serif; font-size: 12px; font-weight: 200;" x="248.9360696928842" y="0" dx="0em" dy="0.95em" fill="rgb(50, 49, 63)" stroke="none" stroke-width="1px">2.4k</text><text style="text-anchor: middle; visibility: hidden; font-family: Roboto, sans-serif; font-size: 12px; font-weight: 200;" x="268.08499813079834" y="0" dx="0em" dy="0.95em" fill="rgb(50, 49, 63)" stroke="none" stroke-width="1px">2.6k</text></g><line x1="0" y1="0" x2="268.08499813079834" y2="0" fill="rgb(0, 0, 0)" stroke="rgb(204, 204, 204)" stroke-width="1px"></line></g></g></g></g></svg>