<svg viewBox="0 0 330 200" xmlns="http://www.w3.org/2000/svg"><g><g><g><g><g><line x1="41.149001121520996" y1="177.89999961853027" x2="36.149001121520996" y2="177.89999961853027" style="visibility: inherit;" fill="rgb(0, 0, 0)" stroke="rgb(204, 204, 204)" stroke-width="1px"></line><line x1="41.149001121520996" y1="158.13333299424914" x2="36.149001121520996" y2="158.13333299424914" style="visibility: inherit;" fill="rgb(0, 0, 0)" stroke="rgb(204, 204, 204)" stroke-width="1px"></line><line x1="41.149001121520996" y1="138.366666369968" x2="36.149001121520996" y2="138.366666369968" style="visibility: inherit;" fill="rgb(0, 0, 0)" stroke="rgb(204, 204, 204)" stroke-width="1px"></line><line x1="41.149001121520996" y1="118.59999974568682" x2="36.149001121520996" y2="118.59999974568682" style="visibility: inherit;" fill="rgb(0, 0, 0)" stroke="rgb(204, 204, 204)" stroke-width="1px"></line><line x1="41.149001121520996" y1="98.83333312140569" x2="36.149001121520996" y2="98.83333312140569" style="visibility: inherit;" fill="rgb(0, 0, 0)" stroke="rgb(204, 204, 204)" stroke-width="1px"></line><line x1="41.149001121520996" y1="79.06666649712456" x2="36.149001121520996" y2="79.06666649712456" style="visibility: inherit;" fill="rgb(0, 0, 0)" stroke="rgb(204, 204, 204)" stroke-width="1px"></line><line x1="41.149001121520996" y1="59.299999872843394" x2="36.149001121520996" y2="59.299999872843394" style="visibility: inherit;" fill="rgb(0, 0, 0)" stroke="rgb(204, 204, 204)" stroke-width="1px"></line><line x1="41.149001121520996" y1="39.53333324856228" x2="36.149001121520996" y2="39.53333324856228" style="visibility: inherit;" fill="rgb(0, 0, 0)" stroke="rgb(204, 204, 204)" stroke-width="1px"></line><line x1="41.149001121520996" y1="19.76666662428111" x2="36.149001121520996" y2="19.76666662428111" style="visibility: inherit;" fill="rgb(0, 0, 0)" stroke="rgb(204, 204, 204)" stroke-width="1px"></line><line x1="41.149001121520996" y1="0" x2="36.149001121520996" y2="0" style="visibility: inherit;" fill="rgb(0, 0, 0)" stroke="rgb(204, 204, 204)" stroke-width="1px"></line></g><g transform="translate(31.149001121520996, 0)"><text style="text-anchor: end; visibility: hidden; font-family: Roboto, sans-serif; font-size: 12px; font-weight: 200;" x="0" y="177.89999961853027" dx="0em" dy="0.3em" fill="rgb(50, 49, 63)" stroke="none" stroke-width="1px">1</text><text style="text-anchor: end; visibility: inherit; font-family: Roboto, sans-serif; font-size: 12px; font-weight: 200;" x="0" y="158.13333299424914" dx="0em" dy="0.3em" fill="rgb(50, 49, 63)" stroke="none" stroke-width="1px">1.2</text><text style="text-anchor: end; visibility: hidden; font-family: Roboto, sans-serif; font-size: 12px; font-weight: 200;" x="0" y="138.366666369968" dx="0em" dy="0.3em" fill="rgb(50, 49, 63)" stroke="none" stroke-width="1px">1.4</text><text style="text-anchor: end; visibility: inherit; font-family: Roboto, sans-serif; font-size: 12px; font-weight: 200;" x="0" y="118.59999974568682" dx="0em" dy="0.3em" fill="rgb(50, 49, 63)" stroke="none" stroke-width="1px">1.6</text><text style="text-anchor: end; visibility: hidden; font-family: Roboto, sans-serif; font-size: 12px; font-weight: 200;" x="0" y="98.83333312140569" dx="0em" dy="0.3em" fill="rgb(50, 49, 63)" stroke="none" stroke-width="1px">1.8</text><text style="text-anchor: end; visibility: inherit; font-family: Roboto, sans-serif; font-size: 12px; font-weight: 200;" x="0" y="79.06666649712456" dx="0em" dy="0.3em" fill="rgb(50, 49, 63)" stroke="none" stroke-width="1px">2</text><text style="text-anchor: end; visibility: hidden; font-family: Roboto, sans-serif; font-size: 12px; font-weight: 200;" x="0" y="59.299999872843394" dx="0em" dy="0.3em" fill="rgb(50, 49, 63)" stroke="none" stroke-width="1px">2.2</text><text style="text-anchor: end; visibility: inherit; font-family: Roboto, sans-serif; font-size: 12px; font-weight: 200;" x="0" y="39.53333324856228" dx="0em" dy="0.3em" fill="rgb(50, 49, 63)" stroke="none" stroke-width="1px">2.4</text><text style="text-anchor: end; visibility: hidden; font-family: Roboto, sans-serif; font-size: 12px; font-weight: 200;" x="0" y="19.76666662428111" dx="0em" dy="0.3em" fill="rgb(50, 49, 63)" stroke="none" stroke-width="1px">2.6</text><text style="text-anchor: end; visibility: hidden; font-family: Roboto, sans-serif; font-size: 12px; font-weight: 200;" x="0" y="0" dx="0em" dy="0.3em" fill="rgb(50, 49, 63)" stroke="none" stroke-width="1px">2.8</text></g><line x1="41.149001121520996" y1="0" x2="41.149001121520996" y2="177.89999961853027" fill="rgb(0, 0, 0)" stroke="rgb(204, 204, 204)" stroke-width="1px"></line></g></g><g transform="translate(41, 0)" clip-path="url(#clip_0)"><clipPath id="clip_0"><rect width="288" height="177"></rect></clipPath><g><g><g><line x1="0" y1="0" x2="0" y2="177.89999961853027" fill="rgb(0, 0, 0)" stroke="rgb(60, 60, 60)" stroke-width="1px" opacity="0.25"></line><line x1="22.219307606036846" y1="0" x2="22.219307606036846" y2="177.89999961853027" fill="rgb(0, 0, 0)" stroke="rgb(60, 60, 60)" stroke-width="1px" opacity="0.25"></line><line x1="44.43861521207369" y1="0" x2="44.43861521207369" y2="177.89999961853027" fill="rgb(0, 0, 0)" stroke="rgb(60, 60, 60)" stroke-width="1px" opacity="0.25"></line><line x1="66.65792281811055" y1="0" x2="66.65792281811055" y2="177.89999961853027" fill="rgb(0, 0, 0)" stroke="rgb(60, 60, 60)" stroke-width="1px" opacity="0.25"></line><line x1="88.87723042414738" y1="0" x2="88.87723042414738" y2="177.89999961853027" fill="rgb(0, 0, 0)" stroke="rgb(60, 60, 60)" stroke-width="1px" opacity="0.25"></line><line x1="111.09653803018423" y1="0" x2="111.09653803018423" y2="177.89999961853027" fill="rgb(0, 0, 0)" stroke="rgb(60, 60, 60)" stroke-width="1px" opacity="0.25"></line><line x1="133.3158456362211" y1="0" x2="133.3158456362211" y2="177.89999961853027" fill="rgb(0, 0, 0)" stroke="rgb(60, 60, 60)" stroke-width="1px" opacity="0.25"></line><line x1="155.5351532422579" y1="0" x2="155.5351532422579" y2="177.89999961853027" fill="rgb(0, 0, 0)" stroke="rgb(60, 60, 60)" stroke-width="1px" opacity="0.25"></line><line x1="177.75446084829477" y1="0" x2="177.75446084829477" y2="177.89999961853027" fill="rgb(0, 0, 0)" stroke="rgb(60, 60, 60)" stroke-width="1px" opacity="0.25"></line><line x1="199.9737684543316" y1="0" x2="199.9737684543316" y2="177.89999961853027" fill="rgb(0, 0, 0)" stroke="rgb(60, 60, 60)" stroke-width="1px" opacity="0.25"></line><line x1="222.19307606036847" y1="0" x2="222.19307606036847" y2="177.89999961853027" fill="rgb(0, 0, 0)" stroke="rgb(60, 60, 60)" stroke-width="1px" opacity="0.25"></line><line x1="244.4123836664053" y1="0" x2="244.4123836664053" y2="177.89999961853027" fill="rgb(0, 0, 0)" stroke="rgb(60, 60, 60)" stroke-width="1px" opacity="0.25"></line><line x1="266.6316912724422" y1="0" x2="266.6316912724422" y2="177.89999961853027" fill="rgb(0, 0, 0)" stroke="rgb(60, 60, 60)" stroke-width="1px" opacity="0.25"></line><line x1="288.850998878479" y1="0" x2="288.850998878479" y2="177.89999961853027" fill="rgb(0, 0, 0)" stroke="rgb(60, 60, 60)" stroke-width="1px" opacity="0.25"></line></g><g><line x1="0" y1="177.89999961853027" x2="288.850998878479" y2="177.89999961853027" fill="rgb(0, 0, 0)" stroke="rgb(60, 60, 60)" stroke-width="1px" opacity="0.25"></line><line x1="0" y1="158.13333299424914" x2="288.850998878479" y2="158.13333299424914" fill="rgb(0, 0, 0)" stroke="rgb(60, 60, 60)" stroke-width="1px" opacity="0.25"></line><line x1="0" y1="138.366666369968" x2="288.850998878479" y2="138.366666369968" fill="rgb(0, 0, 0)" stroke="rgb(60, 60, 60)" stroke-width="1px" opacity="0.25"></line><line x1="0" y1="118.59999974568682" x2="288.850998878479" y2="118.59999974568682" fill="rgb(0, 0, 0)" stroke="rgb(60, 60, 60)" stroke-width="1px" opacity="0.25"></line><line x1="0" y1="98.83333312140569" x2="288.850998878479" y2="98.83333312140569" fill="rgb(0, 0, 0)" stroke="rgb(60, 60, 60)" stroke-width="1px" opacity="0.25"></line><line x1="0" y1="79.06666649712456" x2="288.850998878479" y2="79.06666649712456" fill="rgb(0, 0, 0)" stroke="rgb(60, 60, 60)" stroke-width="1px" opacity="0.25"></line><line x1="0" y1="59.299999872843394" x2="288.850998878479" y2="59.299999872843394" fill="rgb(0, 0, 0)" stroke="rgb(60, 60, 60)" stroke-width="1px" opacity="0.25"></line><line x1="0" y1="39.53333324856228" x2="288.850998878479" y2="39.53333324856228" fill="rgb(0, 0, 0)" stroke="rgb(60, 60, 60)" stroke-width="1px" opacity="0.25"></line><line x1="0" y1="19.76666662428111" x2="288.850998878479" y2="19.76666662428111" fill="rgb(0, 0, 0)" stroke="rgb(60, 60, 60)" stroke-width="1px" opacity="0.25"></line><line x1="0" y1="0" x2="288.850998878479" y2="0" fill="rgb(0, 0, 0)" stroke="rgb(60, 60, 60)" stroke-width="1px" opacity="0.25"></line></g></g></g><g><g><line x1="0" y1="276.733332739936" x2="288.850998878479" y2="276.733332739936" fill="rgb(0, 0, 0)" stroke="rgb(153, 153, 153)" stroke-width="1.5px"></line></g></g><g><g><line x1="22.219307606036846" y1="0" x2="22.219307606036846" y2="177.89999961853027" fill="rgb(0, 0, 0)" stroke="rgb(153, 153, 153)" stroke-width="1.5px"></line></g></g><g><g><g><g><g><path style="fill: none;" stroke="rgb(255, 112, 67)" stroke-width="2px" d="M22.774790296187767,70.84213303634138L22.885886834217953,87.68443692200552L23.33027298633869,96.0426476297295L23.441369524368874,106.69808404660331L23.66356260042924,123.2152136965429L23.774659138459423,97.17438616869777L23.88575567648961,96.75381895322082L24.219045290580162,110.11812442863912L24.330141828610348,115.0158984854946L24.441238366640533,114.64804598683995L24.88562451876127,87.96033927384543L25.885493361032925,110.99103893911837L26.218782975123478,99.16464151002046L26.663169127244217,78.80974722454972L26.88536220330458,86.87895070645452L27.107555279364952,90.71690265260732L27.218651817395138,97.27393901915538L27.440844893455505,103.08588040290849L27.663037969515877,108.08383852627802L27.77413450754606,97.08798922503257L28.10742412163661,116.53871031993475L28.218520659666794,130.13269246729277L28.32961719769698,139.57791196708342L28.440713735727165,130.956379513984L28.551810273757347,136.43573340835187L28.996196425878082,151.45631253129847L29.218389501938454,165.66018979407397L29.44058257799882,153.49729081993834L29.551679116029007,162.93946666402542L29.66277565405919,145.51420229077715L29.773872192089375,141.94014311517847L30.107161806179924,142.0677061846909L30.21825834421011,151.9463160144588L30.329354882240295,142.60079912690614L30.440451420270477,130.8722941308467L30.995934110421402,151.27400423899212L31.551416800572323,160.83351611375525L31.662513338602505,168.8253676404905L31.884706414662876,170.65691403807241L31.99580295269306,167.9855504453098L32.106899490723244,159.55277887696926L32.66238218087416,161.94682884427172L33.55115448511564,164.98965300059723L33.88444409920619,171.3677606305583L33.995540637236374,176.15066589820654L34.77321640344766,166.43803266814857L35.106506017538216,150.2902295161609L35.32869909359859,148.3754017055907L35.99527832177969,161.6248252383123L36.106374859809875,171.63494844436795L36.21747139784006,162.58099331469248L36.55076101193061,157.9864842446604L36.66185754996079,166.8338632973326L37.43953331617208,169.3326372739684L37.66172639223245,171.96873250397982L37.883919468292824,167.0907728119751L37.99501600632301,166.99474232215053L38.10611254435319,154.6263334522859L38.21720908238338,155.57230187680895L38.883788310564476,145.34574181309446L39.21707792465504,149.82930686598667L39.4392710007154,152.70335588573084L39.661464076775765,152.803529834599L39.772560614805954,165.41436925327605L39.883657152836136,173.3998143338347L40.2169467669267,161.8528651879239L40.55023638101724,153.87334925754826L40.772429457077614,163.51746043450788L40.883525995107796,163.9827434865004L41.216815609198356,167.6637862472858L41.77229829934927,155.04794918797123L41.883394837379456,148.47328763577576L41.994491375409645,119.39558662614357L42.21668445147001,135.51588959054544L42.54997406556056,154.1427827156848L42.77216714162093,145.96363180359498L42.88326367965111,148.9779376883799L43.10545675571148,145.20411506800554L43.32764983177185,142.99523389940452L43.43874636980204,147.9498629322373L44.21642213601333,160.14570457197988L45.10519444025479,163.66716771768986L45.21629097828498,156.1933416099408L45.32738751631516,156.78407373401532L45.771773668435905,161.89038817628983L46.10506328252645,166.03431812936728L46.43835289661701,159.86286269789346L46.88273904873775,164.69947063935393L46.99383558676793,150.47225404002535L47.2160286628283,157.49871772311545L47.43822173888867,146.27270293686848L47.660414814949036,148.36001833431533L47.99370442903959,156.43262446025594L48.10480096706978,164.578999258626L48.21589750509996,161.5180425531046L48.549187119190506,157.70988408679452L49.660152499492355,101.88211071656696L49.88234557555272,67.84149275234424L50.548924803733826,61.314494364639465L50.88221441782438,52.75745233201921L50.99331095585456,55.93334394198389L51.10440749388475,52.24814534412994L51.21550403191493,49.77746728577677L51.437697107975296,55.08884357637952L51.88208326009604,3.5145570484008086L52.10427633615641,1.8628347366681932L52.326469412216774,29.70118119605379L52.54866248827714,38.97605221436804L53.10414517842806,43.71102350903118L53.326338254488434,22.42760983856082L53.77072440660916,22.001520480379394L54.548400172820465,31.985294855090512L54.65949671085064,2.86092949183845L55.214979401001564,-58.706703156573575L55.88155862918267,-23.905549169148316L56.325944781303406,0.14266607164598696L56.43704131933359,5.048126773917518L56.65923439539396,-28.541177324578385L56.992524009484505,2.2374204640899187L57.43691016160525,12.472241378123604L57.54800669963544,25.67694766134603L57.65910323766562,22.192959900512374L57.7701997756958,33.97050385723993L57.992392851756165,35.51985312226244L58.325682465846725,34.0224672660242L58.43677900387691,24.61838731648949L58.54787554190709,-15.860063993322564L58.88116515599764,12.65907618175148L58.99226169402783,21.527496330091033L59.214454770088196,21.76820465900763L59.8810339982693,40.20136198688197L60.103227074329666,38.72745892385962L60.43651668842022,44.22893711146648L60.54761322645041,49.04695889384971L60.76980630251078,56.24925095031147L60.880902840540955,39.01036590276293L61.43638553069188,32.561417469846376L61.54748206872207,35.027564642671095L61.76967514478243,49.78141252420001L61.991868220842804,59.36316866404412L62.102964758872986,60.70341584266433L62.214061296903175,57.905013301289L62.54735091099372,57.25683664877521L62.99173706311446,63.46983926330911L63.4361232152352,64.21607838292758L63.65831629129556,21.77457432258638L64.1027024434163,39.04093892910184L64.21379898144649,52.76915131359084L64.32489551947667,59.03476764024002L64.54708859553703,72.23476532469273L64.65818513356722,56.333443834161535L65.10257128568796,52.610453769825824L65.21366782371814,52.0149591611017L65.32476436174832,61.123729657928024L65.5469574378087,73.54618464816733L65.65805397583888,66.79689023705615L65.76915051386906,71.76610407041983L65.88024705189925,82.38454363501218L66.9912124322011,71.89241308734114L67.546695122352,78.97482382141742L68.3243708885633,69.39694804686881L68.43546742659349,53.95425840958655L68.99095011674441,65.63894432213122L69.10204665477458,53.20138774348383L69.32423973083496,75.46175040385596L69.54643280689533,87.22483547582614L69.99081895901607,53.31226901195115L70.99068780128772,75.32941093835781L71.10178433931792,82.0637543308588L71.2128808773481,96.41217493439262L71.32397741537828,91.02511356525862L71.65726702946883,79.48909383756764L72.32384625764993,75.81222273445357L73.10152202386122,68.26379391516647L73.2126185618914,59.28379821761096L73.32371509992159,31.73792731143439L73.43481163795177,-238.815039958105L74.10139086613289,-29.74491558337408L74.21248740416307,1.5695436840296033L74.32358394219325,19.592823048476085L74.76797009431398,7.499770512990883L74.87906663234416,15.829311374458493L75.3234527844649,19.3281016256018L76.10112855067621,34.14318870233455L76.43441816476675,23.408530596547568L76.54551470279694,33.81560418716772L76.7677077788573,42.202505267232986L76.98990085491768,48.90781962536849L77.32319046900822,51.95812892791331L78.54525238734026,65.02276226659517L78.8785420014308,60.77925363311968L78.989638539461,69.10672281377181L79.10073507749118,68.16149411711005L79.32292815355153,70.54228923150637L79.54512122961191,74.6326070034869L79.65621776764209,74.6526954386437L79.87841084370245,61.18583919509361L80.4338935338534,70.49262303124624L80.54499007188357,76.9472166328315L81.21156930006467,77.19477251405513L81.43376237612505,78.944808394295L81.54485891415523,74.65192995970845L81.65595545218541,64.92224386252872L81.76705199021559,80.52144489425626L81.87814852824579,88.50458606608188L81.98924506627597,85.7795299432988L82.10034160430615,92.57713021576758L82.21143814233633,98.72470130805257L82.32253468036652,94.90563144913165L82.43363121839671,98.06595380367968L82.65582429445706,75.85237911586998L82.98911390854762,76.50656798101137L83.1002104465778,72.95659104874379L83.21130698460799,84.57001204578573L83.43350006066836,91.3995100712489L83.87788621278911,91.40801102122602L84.10007928884946,84.67856761456426L84.32227236490982,97.4118675240361L84.76665851703056,95.79184950182817L84.87775505506076,80.8856786447841L84.98885159309094,78.52205532227892L85.43323774521168,77.19104817836106L85.87762389733241,64.86685244791354L85.9887204353626,35.7600699938703L86.32201004945316,38.54082180397149L86.54420312551352,38.796779711832336L86.6552996635437,33.43843676601102L86.76639620157388,27.760958072254567L86.87749273960408,34.71994580490948L86.98858927763426,36.657220245820554L87.09968581566444,40.640970732971326L87.32187889172481,42.987156900931005L87.43297542975499,36.453900741028654L87.98845811990591,35.141251914552406L88.0995546579361,37.14843088253064L88.43284427202666,35.02225392788404L88.54394081005684,-10.714313927826078L88.87723042414738,7.5533701869821765L89.09942350020775,-13.351978173075672L89.54380965232849,12.21191052974959L89.76600272838886,17.346604313714327L89.98819580444923,33.86433937025753L90.21038888050958,41.30029205436187L90.54367849460014,51.87552292231946L90.98806464672089,50.81617311795785L91.09916118475107,44.477110342551626L91.32135426081145,48.04317361645139L91.65464387490199,36.49808746996809L92.09903002702272,38.79552796251375L92.65451271717365,42.900802802883774L93.43218848338493,51.69370611974144L93.54328502141512,56.38493632242334L93.7654780974755,55.84877451644906L93.87657463550568,53.03955157772993L93.98767117353586,56.800230476007464L94.09876771156604,59.34186229975971L94.20986424959622,64.12295868324783L94.32096078762642,65.19534601955245L94.65425040171696,67.37577277991694L95.0986365538377,61.287278831015584L95.20973309186788,65.71832338087363L95.65411924398862,68.83779016017972L95.98740885807918,55.61567438839424L96.20960193413956,56.207809169584756L96.32069847216974,53.50982795416316L96.43179501019992,60.73583532309117L96.76508462429047,60.40252766161485L96.87618116232065,68.55847244534816L96.98727770035083,76.91019650580725L97.09837423838101,76.33438067647971L97.20947077641121,71.68356703103606L97.43166385247157,41.82344575171432L97.54276039050175,51.693540577941285L97.65385692853194,61.85635707571383L97.87605000459232,75.00285534320427L97.9871465426225,83.27369275146548L98.09824308065267,71.76342318978806L98.20933961868286,83.06599501212797L98.32043615671304,72.45677607598164L98.43153269474323,88.86931486096698L98.65372577080359,91.83289085375573L98.76482230883379,78.38513306639784L99.54249807504507,74.92640581584038L99.87578768913562,74.46924181285623L99.9868842271658,62.968799502795335L100.09798076519598,73.59311441479802L100.32017384125636,61.78388606204758L100.65346345534692,52.711363371216855L100.87565653140729,69.29706542679699L101.09784960746765,77.45952562698112L101.54223575958838,82.83911039467587L101.98662191170912,78.400815828514L102.0977184497393,78.03372606140744L102.31991152579968,87.77490505001239L102.43100806382986,83.60743280384727L102.54210460186005,84.68717605261494L102.65320113989024,88.33349847688362L102.76429767792042,93.49706713512651L103.31978036807133,94.20254994261458L103.98635959625244,102.67472453410103L104.20855267231282,106.35780337449714L104.319649210343,101.60320507885385L104.43074574837317,111.44763898952205L104.54184228640335,106.83820519839259L104.76403536246373,95.47152004426478L105.09732497655428,97.4617512361088L105.20842151458447,91.42797858976088L105.54171112867502,93.03098204530968L105.65280766670521,97.05369026797965L105.7639042047354,75.44430394219873L105.98609728079575,86.92936932559344L106.20829035685612,94.59537161498334L106.87486958503723,95.74760326156323L107.20815919912779,104.26881667672944L107.31925573715797,109.50577256725798L107.65254535124852,104.11580263829804L107.7636418892787,105.84549112271432L107.87473842730888,105.29864519665607L108.09693150336926,97.48971234412986L108.20802804139944,98.5585381776409L108.31912457942963,84.25428651849315L108.87460726958055,95.46582558466328L109.31899342170128,98.79076770174228L109.43008995973146,99.71497003801154L109.65228303579184,115.38060660073742L109.8744761118522,111.20096648579732L110.09666918791258,98.1706035482784L110.20776572594276,104.3315477891906L110.31886226397295,105.9892272426585L110.42995880200313,114.63637362704394L110.54105534003331,102.67147339300608L110.6521518780635,94.90741352161707L110.87434495412386,103.80928535855526L111.09653803018423,103.1179025958409L111.3187311062446,106.30655690939267L111.65202072033516,107.95693409414899L111.87421379639552,109.27584578332628L111.9853103344257,114.08740556566781L112.0964068724559,111.28613425802787L112.54079302457663,115.42249095604424L112.762986100637,118.44807040731742L112.87408263866718,122.20028847403897L113.09627571472755,118.80837639480671L113.4295653288181,116.8317048322616L113.87395148093883,112.00649063729202L114.20724109502939,108.00795403240276L114.54053070911995,103.54336983431483L114.65162724715013,97.61621206979797L114.8738203232105,100.65104326670557L115.09601339927087,113.95878527597924L115.31820647533124,125.59198239079599L115.87368916548215,112.35725976777012L116.09588224154253,85.65819650961159L116.20697877957271,68.5541872908678L116.31807531760289,56.2099945911322L116.42917185563307,47.411750128043L116.76246146972363,47.40624704239729L117.42904069790472,44.94721148376146L117.6512337739651,50.58043147168531L117.76233031199529,53.07393466512175L117.87342685002547,49.576765415870355L118.09561992608585,52.61309839777453L118.54000607820659,53.51944833116827L118.76219915426694,59.49667114932499L118.87329569229712,61.17343063764357L119.31768184441786,47.610095985466884L119.42877838244804,57.78430639820572L119.53987492047824,56.93977414392954L119.65097145850842,52.0312514185648L119.98426107259898,53.99434398136831L120.09535761062916,56.78034683475998L120.20645414865933,72.19114251312779L120.4286472247197,69.41756773543304L120.76193683881026,73.32436292225441L120.98412991487064,66.51633554906887L121.09522645290082,73.46565655711947L121.31741952896118,64.0699458971739L121.42851606699138,62.21364551543761L121.76180568108191,58.06831008532596L122.09509529517247,65.74836590778791L122.20619183320265,68.5419377288761L122.98386759941395,71.29510227498436L123.09496413744414,57.21278142172336L123.20606067547432,55.36841735006634L123.31715721350449,51.22092190515453L123.42825375153468,56.96699623640502L123.53935028956487,63.22069139994418L123.65044682759505,69.9974794176126L123.87263990365541,75.41986482607695L123.98373644168561,75.6110562162335L124.09483297971579,76.26829231928028L124.42812259380635,78.323733649864L124.53921913183653,77.39369971882381L124.65031566986671,84.26128076309013L124.76141220789688,79.19507683569994L124.98360528395726,77.90102899029309L125.65018451213837,76.55052250323848L125.76128105016855,84.88788369466701L126.09457066425911,87.58403126945755L126.8722464304704,93.89889891510468L127.20553604456094,21.21652992845046L127.98321181077225,58.53654229681536L128.09430834880243,79.89217093905586L128.2054048868326,84.62288229299976L128.42759796289297,85.180941187473L128.53869450092316,91.22073749392861L128.64979103895334,98.40242336737658L128.98308065304388,103.6037263400325L129.09417719107407,102.25002486575443L129.31637026713443,108.54790154112914L129.53856334319482,89.6544762439947L129.649659881225,97.52544974729157L130.09404603334573,91.4551698835364L130.20514257137592,92.69578292792977L130.64952872349664,97.69302681260791L130.76062526152683,90.79371309994104L130.87172179955704,92.44363240794083L130.98281833758722,99.99042937345124L131.31610795167776,97.95298130391674L131.42720448970795,105.23641538597857L131.53830102773813,110.17619904273937L131.8715906418287,105.53820662384182L131.98268717985886,93.99586383849547L132.87145948410034,101.63395287400226L133.2047490981909,97.11034470244974L133.3158456362211,93.38077271627688L133.53803871228143,105.38717950477424L133.7602317883418,103.49162167039012L133.871328326372,101.25448412838828L134.20461794046255,87.59378581297655L134.31571447849274,91.87486588462566L134.5379075545531,84.47763225164803L134.64900409258328,94.08931955523812L134.76010063061347,98.4452808578068L134.87119716864368,81.31495355202061L135.2044867827342,73.77670683410105L136.09325908697568,87.96377715165987L136.31545216303607,102.96338478868012L136.53764523909643,106.36010612869033L136.7598383151568,75.46627129256272L136.87093485318698,85.7297353755686L136.98203139121716,95.02405784546697L137.20422446727753,102.06029076226949L137.4264175433379,109.64974549828862L137.53751408136807,94.49049580908074L137.64861061939826,108.9027368921089L137.98190023348883,104.79220269355L138.20409330954917,108.12146914535005L138.98176907576047,111.08751605455515L139.09286561379065,94.67417475793899L139.42615522788122,103.25453610084624L139.64834830394156,104.59127684308788L140.31492753212268,92.85629560139535L140.42602407015286,96.67993172277457L140.64821714621323,107.45499637969776L140.87041022227362,85.16958430649515L141.31479637439435,91.18745661430002L141.5369894504547,98.93422250555085L141.75918252651508,106.02314233831045L141.98137560257544,105.89728374346045L142.20356867863583,102.90621749461445L142.53685829272638,103.47656763287735L142.64795483075656,108.27753927116474L142.75905136878674,104.581341980815L142.87014790681692,108.62721399259843L143.53672713499802,103.18401744992877L143.6478236730282,96.90008402691514L144.31440290120932,96.83167123301914L144.5365959772697,102.35448507378337L144.75878905333005,104.48834820198967L144.86988559136023,108.1329160662144L144.9809821293904,116.94957792074028L145.9808509716621,103.90691053533658L146.20304404772244,100.59436714353255L146.53633366181302,112.0071560386062L146.86962327590354,117.44031443174597L146.98071981393375,104.4403779309167L147.2029128899941,103.66081128634872L147.3140094280243,110.9855595558834L147.4251059660545,115.79244342565113L147.75839558014502,118.30557738434956L147.8694921181752,111.64882323143186L148.09168519423557,118.60169419465228L148.20278173226578,105.17596807984984L148.31387827029593,109.10530501977576L148.6471678843865,118.52915269266774L148.7582644224167,119.26317634429937L149.86922980271854,120.08689186406913L149.98032634074872,112.20308904203793L150.0914228787789,110.8052427588488L150.20251941680908,76.14127783166157L150.53580903089966,95.94775852186207L150.6469055689298,89.22306561570345L150.75800210696,104.94339384559545L151.09129172105057,106.10980199179649L151.20238825908072,107.98641819987995L151.31348479711093,118.65408996020088L152.9799328675637,114.18750441912857L153.31322248165424,117.5989870674514L153.5354155577146,121.49432661382588L153.6465120957448,107.78323016542795L153.86870517180515,120.3076126072574L153.97980170983536,110.38092647470896L154.31309132392587,123.03832667454323L154.64638093801645,121.39714312078148L154.75747747604663,125.65587527426274L154.86857401407684,128.89357595379397L154.979670552107,123.75813129922636L155.20186362816736,82.728020615971L155.42405670422775,97.84841891337635L155.64624978028812,105.58817762301949L155.86844285634848,109.20428309801079L155.97953939437866,103.17231684139325L156.20173247043903,100.21801995253858L156.4239255464994,101.08865777183536L156.64611862255975,101.12167890809168L156.75721516058996,104.22555614634777L156.86831169862015,116.96079235361847L156.9794082366503,127.12142645240267L157.0905047746805,125.87818474774434L158.20147015498236,124.45041927022444L158.31256669301254,121.29595963845047L158.64585630710306,122.99185671940249L159.09024245922382,120.88940990284584L159.201338997254,119.66923955852795L159.31243553528418,117.72460104338765L159.53462861134454,114.59811902302405L159.86791822543512,117.71507682946788L160.20120783952567,81.89333681322204L160.42340091558603,93.170004466071L160.6455939916464,98.3943309478126L160.75669052967658,111.51762288992464L160.97888360573694,120.22569658321898L161.4232697578577,111.7643368878334L161.53436629588788,115.57574036039622L161.64546283391806,122.36408855623472L161.86765590997842,111.23564378878454L161.9787524480086,114.8942579313389L162.31204206209918,115.57262143889227L162.42313860012933,123.16308148485886L162.53423513815954,125.28305734930338L162.6453316761897,130.95304777186956L162.7564282142199,126.1429690506935L162.8675247522501,110.33777298730207L163.423007442401,121.29490927049721L163.53410398043118,111.83435045126001L163.75629705649158,104.65935894567404L164.2006832086123,113.22436370160236L164.3117797466425,124.6231867486965L164.53397282270285,126.99293627119889L164.97835897482358,118.40717770372527L165.20055205088397,114.28456095710733L165.6449382030047,115.85406518247744L165.75603474103488,118.97295489355011L165.86713127906506,118.59305025176455L165.97822781709525,119.37173942699302L166.2004208931556,115.04441803665945L166.53371050724616,119.0319217140424L166.64480704527634,121.37488830433946L166.86700012133673,92.7605343904581L166.97809665936688,94.3001259853203L167.0891931973971,98.21541083764534L167.75577242557821,106.4338995461955L167.97796550163858,113.77541347799219L168.08906203966873,123.22922690481393L168.31125511572913,114.80091977121276L168.42235165375928,115.36035349099207L168.75564126784985,121.50484349479711L168.86673780588004,117.44532364046285L169.42222049603097,123.96390835319036L169.53331703406113,123.05465133962616L169.6444135720913,111.96335043029L169.97770318618188,109.86101129707109L170.19989626224225,118.41904107988985L170.31099280027243,123.82159445411105L170.4220893383026,117.06074933970162L170.5331858763328,98.7098214871932L170.644282414363,110.9255825289491L170.75537895239316,56.85689890289148L171.08866856648373,-166.6550823664799L171.42195818057428,-66.43256156822933L171.64415125663464,5.164107967744688L171.9774408707252,42.69371589991575L172.08853740875537,72.13423735601592L172.19963394678555,77.31057945923301L172.31073048481576,84.0309012180183L172.75511663693646,82.55743510222882L173.19950278905722,18.53589344490527L173.42169586511758,51.26971418634378L173.53279240314777,52.3514981794857L173.97717855526852,66.59690523680109L174.42156470738922,76.43384276835421L175.19924047360055,87.53760786224274L175.3103370116307,94.9857823870139L175.42143354966092,98.55411065536715L175.75472316375146,97.94176434212665L175.97691623981183,93.60005530398145L176.088012777842,99.16165318575169L176.31020585390237,101.63337159709923L176.42130239193256,98.90684138444573L176.53239892996274,90.48757413886128L176.7545920060231,97.38648236170793L176.8656885440533,96.74623650029318L177.19897815814386,86.67214769333984L179.08761930465698,97.35615144269411L179.19871584268716,85.54014264308172L179.30981238071735,86.31677058403123L179.42090891874753,71.40216239457679L179.86529507086826,69.84336113960318L180.19858468495883,89.1748818911652L180.309681222989,88.76526952082158L180.6429708370796,90.23984091633763L180.75406737510974,93.56858273687604L180.86516391313992,94.6921799823074L181.30955006526065,102.76612333961339L181.42064660329086,98.64082448166972L181.53174314132104,106.64376404091973L181.7539362173814,96.17548957799929L181.8650327554116,105.16658957716264L181.97612929344177,103.30418520203945L182.19832236950214,95.67579928940812L182.4205154455625,101.70305139364862L183.08709467374362,97.69169537395229L183.30928774980399,99.31070269224807L183.8647704399549,109.28411549408565L183.97586697798508,111.13788435033756L184.97573582025674,109.42449009852808L185.08683235828693,116.58673952250241L185.53121851040768,121.62635524216445L186.30889427661896,123.599989405459L186.75328042873969,119.62796987113173L186.86437696676987,118.11232656209157L187.19766658086044,106.87048308819303L187.3087631188906,118.01669806032046L187.64205273298117,112.12966173007376L187.86424580904153,119.54032928096873L187.97534234707172,122.06006721162294L188.08643888510193,98.27283465919758L188.8641146513132,112.72371578008463L188.97521118934338,115.00639794875144L189.08630772737357,113.6751073527635L189.19740426540375,118.73262949013065L189.4195973414641,116.31551045938627L189.53069387949432,114.37157004073684L189.64179041752448,112.99107299626193L189.7528869555547,116.83539106649825L189.86398349358484,95.46926865583531L189.97508003161502,109.04351084580644L190.08617656964523,111.38464132676671L190.64165925979614,102.70397939140402L190.8638523358565,91.9296188307903L191.41933502600745,64.84456636297404L191.53043156403763,85.47272333285488L191.64152810206778,96.67133340469755L191.86372117812815,103.01066198333139L192.64139694433948,105.7176986546526L192.86359002039984,107.3969654673045L193.41907271055075,113.54019688927612L193.53016924858093,109.75935441246685L193.97455540070166,113.41159214863777L194.19674847676202,119.1468544334547L194.30784501479224,112.12294250896736L194.5300380908526,123.6362783640301L194.64113462888278,117.93955095899967L194.86332770494315,110.23743068988382L194.97442424297333,111.41348921336068L195.64100347115442,110.16922791655327L195.75210000918463,115.66176941171908L195.86319654721478,117.0198725222142L196.41867923736572,116.96432890713183L196.5297757753959,123.78566033364146L197.52964461766757,120.63402024691341L197.64074115569775,118.00912110588942L197.9740307697883,123.13777703059897L198.19622384584866,121.24568255687284L198.64060999796942,119.45456319297257L199.30718922615048,113.46054917064284L199.52938230221088,108.62739038764609L199.64047884024106,119.8177599802125L199.86267191630145,111.03679235654369L200.19596153039197,114.52783923293988L200.41815460645236,110.83061287837376L200.52925114448254,85.07595523766962L200.9736372966033,101.11524834727996L201.08473383463345,115.85920741701712L201.30692691069385,113.481116686232L201.418023448724,118.02029961963699L201.5291199867542,121.64052137892189L201.64021652478436,126.10969131578254L201.97350613887494,125.41888808264603L202.08460267690512,126.59890536178257L202.1956992149353,124.73565861242032L202.64008536705603,132.24945779802985L202.8622784431164,126.37064973223205L202.9733749811466,131.66981429189485L203.08447151917676,105.35888177423502L203.30666459523715,118.08731989937114L203.52885767129752,118.76324551845211L203.75105074735788,117.97819296322396L204.08434036144845,127.17206392954245L204.1954368994786,130.50495966496808L204.417629975539,130.6532498458401L204.52872651356915,124.85288172252561L204.63982305159936,125.57793351408013L204.75091958962952,122.13169755040701L204.9731126656899,120.28004926556558L205.19530574175027,-234.4959637838361L205.639691893871,-20.532343415000692L205.75078843190119,27.68384587238742L205.97298150796155,57.29983815212456L206.08407804599176,68.62169279619555L206.4173676600823,79.12593326118093L206.5284641981125,75.07476559172638L206.63956073614267,84.048407044762L206.75065727417288,86.0970649487398L207.0839468882634,91.29415161415197L207.52833304038415,82.04883034304554L207.75052611644452,71.12898137369137L207.8616226544747,69.59351099003491L207.97271919250488,82.73250174121722L208.30600880659543,80.6176191372804L208.41710534462564,71.70807409625608L208.639298420686,76.28325035160712L209.0836845728067,80.75362444917637L209.1947811108369,77.65811379806219L209.3058776488671,66.23568776402979L209.41697418689728,77.14305270094934L209.63916726295764,74.43877484709719L210.0835534150784,82.27021078098713L210.19464995310855,88.6111466763951L210.41684302916894,95.56009113669936L210.5279395671991,91.75863945343251L210.6390361052293,94.22702332754523L210.7501326432595,99.3188423710769L210.97232571931985,102.07719608719731L211.30561533341043,100.26740144970601L211.41671187144058,96.83935386948136L211.5278084094708,93.64240969713828L211.63890494750095,92.26901715267782L212.0832910996217,73.56879317950562L212.1943876376519,84.58544241135195L212.74987032780282,90.1026322415756L212.9720634038632,90.86622826301434L213.08315994189334,93.88888021000359L213.19425647992355,91.71471996640912L213.63864263204425,90.42364570539617L213.97193224613483,91.50051438753978L214.19412532219522,91.29789929658799L214.52741493628574,96.65664900703193L214.63851147431595,88.41502385945468L214.74960801234613,96.65339383795592L214.8607045503763,77.95330329577291L214.9718010884065,88.1035151158037L215.19399416446686,88.1719143806288L215.41618724052722,93.49919733512017L215.74947685461777,94.69908054364514L215.86057339264798,89.95919683796572L216.08276646870834,90.28746884520305L216.19386300673852,94.60485653386394L216.3049595447687,104.65973767047048L216.63824915885925,97.4016681525432L216.86044223491962,94.04514041498028L216.9715387729498,99.61113443982092L217.08263531097998,95.42709502249492L217.19373184901016,97.10764087001216L217.97140761522147,96.13903497497813L218.08250415325165,99.5168845577491L218.4157937673422,97.80978420850478L218.97127645749313,101.32894993863034L219.41566260961386,96.4082157164639L219.63785568567425,92.67879507084696L220.08224183779495,86.52529826730789L220.19333837582516,95.22034658386995L220.41553145188553,94.9771236581398L220.85991760400626,101.58122465760377L220.97101414203644,102.19575435625796L221.08211068006662,105.68537151224895L221.304303756127,105.57773585620303L221.41540029415717,102.35713107030782L221.52649683218735,104.43431603569556L221.97088298430808,108.89383951401452L222.19307606036847,105.14711558135565L222.41526913642883,111.82179305978732L222.6374622124892,112.01243722121868L222.7485587505194,107.62572290146574L222.97075182657974,109.353266814164L223.41513797870047,103.94035113866583L223.63733105476086,105.37922429526263L223.74842759279105,102.08934188149634L224.0817172068816,105.49315839974265L224.41500682097217,101.56270942172364L224.85939297309287,86.58835812481068L225.08158604915326,86.10609686405556L225.525972201274,85.69920435778329L225.97035835339472,92.8687470232679L226.0814548914249,81.52541809321968L226.1925514294551,82.75830049395402L226.63693758157584,93.35233276462316L226.74803411960602,98.62243243642448L226.8591306576362,108.83733000151966L227.0813237336966,108.11009815529465L227.19242027172675,109.04437010031272L227.30351680975696,97.21129742487292L227.52570988581732,99.87076665090595L227.6368064238475,101.44208803051876L227.97009603793802,95.02377331009835L228.08119257596823,79.03974905070227L228.3033856520286,86.76025327387562L228.525578728089,32.365004180036294L228.63667526611914,46.714245801747L228.74777180414935,72.86643029467743L229.52544757036063,84.69500916049219L229.747640646421,93.77596105927668L229.85873718445117,97.14838618052052L230.5253164126323,93.6004299257716L230.63641295066247,93.93232883228819L230.74750948869266,81.1548993144058L230.8586060267228,65.51751956393443L230.96970256475302,85.39439603132797L231.19189564081339,91.24260407875303L231.52518525490393,92.38939022768251L232.3028610211152,70.31667810277837L232.41395755914542,84.77816870933071L232.5250540971756,87.66922204982576L233.08053678732654,89.77350728622248L233.52492293944726,90.53104701034313L233.8582125535378,99.63792689455556L233.96930909156802,103.3153134927276L234.30259870565854,105.06561343006912L234.41369524368872,96.24153210593096L234.52479178171893,92.98401932793143L234.63588831974909,100.36898999873809L234.7469848577793,103.42205188784475L235.08027447186984,103.98964923596422L235.19137100990002,100.23773913757945L235.3024675479302,100.2488970618364L235.41356408596036,94.75759084875637L235.85795023808112,91.77833924030064L235.96904677611133,90.25252446101136L236.08014331414148,95.11718833900602L236.41343292823206,99.21090587912155L236.63562600429242,97.48365545004395L236.85781908035278,103.71736730571105L237.08001215641318,98.42174381821704L237.19110869444333,95.77154631137714L237.3022052324735,87.66999439469649L237.52439830853388,93.97511499794871L237.6354948465641,90.82804108588851L238.190977536715,90.44069621720742L238.41317061277536,93.45097056187015L238.52426715080557,92.14201365180824L238.7464602268659,-91.63601355121548L239.07974984095648,-14.792702507321517L239.41303945504703,34.44502275912464L239.5241359930772,58.53018180752073L239.74632906913757,75.65608268920954L239.96852214519797,88.18211707364188L240.19071522125833,83.05160264758399L240.63510137337903,90.39927581703805L240.74619791140924,70.66385470696764L240.9683909874696,66.36153542904643L241.19058406352997,87.23473263055028L241.74606675368088,78.97267980747854L242.19045290580164,93.32448877759424L242.3015494438318,77.57053575340316L242.412645981862,88.49874985176008L242.52374251989218,87.18793701307486L243.8569009762544,71.98145284076918L244.07909405231476,80.55077391850558L244.30128712837512,93.68533480527643L244.52348020443551,99.72762181544797L244.63457674246567,97.26845007529823L244.96786635655621,80.64256060307311L245.07896289458643,91.24237626215154L245.19005943261658,94.31735823621884L245.3011559706468,96.62603396535484L245.41225250867697,96.6194163047772L245.52334904670715,89.61473556986249L245.63444558473734,96.44548018104493L245.8566386607977,100.12843288812893L245.9677351988279,104.26498964351694L246.07883173685806,107.40181083911628L246.30102481291843,105.48638191780142L246.85650750306937,109.4236985681333L247.1897971171599,106.58101740631612L247.4119901932203,107.64299388548123L247.52308673125046,105.98581972833445L247.74527980731082,110.27950234365365L248.07856942140137,110.26864826412877L248.41185903549194,109.0857179515938L248.6340521115523,102.85330645051624L248.96734172564285,105.36906125764811L249.07843826367306,99.49335747860975L249.30063133973343,104.1731699993352L249.4117278777636,108.9719359146619L249.74501749185413,93.16537232563444L249.96721056791452,101.39788427708913L250.0783071059447,106.48699739736091L250.9670794101862,106.75553249522986L251.07817594821637,102.06675338226262L251.30036902427673,104.88999432747275L251.85585171442764,107.68460416749453L252.41133440457858,111.21571095460106L252.52243094260876,107.83710924675971L252.63352748063892,82.19686527568408L252.85572055669934,95.14391022105431L252.9668170947295,97.86520204609103L253.18901017078986,77.93755662650813L253.41120324685025,93.18688549862102L253.7444928609408,102.398719273858L253.85558939897098,105.66171057607404L254.29997555109173,104.66727971835088L254.85545824124264,99.94869335515662L255.077651317303,105.30659277427071L255.74423054548413,96.40861833593377L255.85532708351428,101.20727795661384L255.9664236215445,99.03639047613568L256.07752015957465,93.52122402153498L256.18861669760486,101.60031564154906L256.5219063116954,108.74788962718009L256.74409938775574,114.67129314781981L257.0773890018463,109.14953947023689L257.18848553987647,111.96252689065989L257.52177515396704,92.61799439837638L257.7439682300274,103.88628612320707L257.96616130608777,100.37874613368662L258.077257844118,105.82674707189965L258.18835438214813,106.51036436959852L258.63274053426886,101.54235049683881L259.07712668638965,108.50569340238114L259.18822322441986,102.00819184565076L259.29931976245,101.57394167538882L259.74370591457074,99.8361594778198L259.8548024526009,108.17430394442546L260.07699552866126,107.73154820448889L260.18809206669147,109.12617441242331L260.41028514275183,104.6151017968549L260.52138168078204,114.41099136631857L260.6324782188122,106.09384476556038L260.85467129487256,110.7319874052885L260.96576783290277,105.76469571768865L261.0768643709329,111.00916049404897L261.18796090896313,104.59948070122117L261.52125052305365,103.72953285853647L261.7434435991141,109.30071827619996L261.8545401371442,111.319653689831L262.5211193653253,102.00343113896929L262.63221590335553,107.58109249277534L262.7433124413857,101.90934653538275L263.18769859350647,110.35909127008792L263.40989166956683,108.76303048792644L263.6320847456272,108.07603728409127L264.0764708977479,104.73117830884405L264.8541466639592,110.96740699699036L265.1874362780498,106.4450425792681L265.4096293541101,107.66455202937041L265.6318224301705,115.15963893562851L265.7429189682007,113.83443470956156L265.96511204426105,106.51012115487644L266.1873051203214,107.4804179195555L266.4094981963818,109.50829512661998L266.520594734412,111.42936409276825L266.6316912724422,103.28111976737964L266.74278781047235,101.77954971174269L266.9649808865327,101.73185878406471L267.07607742456287,109.54942002430832L267.40936703865344,112.32949657065186L267.5204635766836,102.68637603756179L267.85375319077417,98.16266047172026L268.18704280486475,85.36558394803811L268.6314289569855,84.23832076527006L269.29800818516657,86.79520450211862L269.4091047231968,86.7349109290584L269.74239433728735,96.31185840403356L269.8534908753175,100.835372326465L270.07568395137787,104.31786475344103L270.29787702743823,95.09176377259453L270.4089735654684,94.94244990213315L270.6311666415288,98.2974036625683L270.74226317955896,102.3968475514454L270.9644562556193,101.7165562251076L271.07555279364954,96.72904911922888L271.18664933167975,106.58142560774273L271.2977458697099,94.64132482575864L271.51993894577026,91.97934542321855L271.7421320218306,103.94632998873361L271.8532285598608,103.77214768612926L272.29761471198157,105.18121034251476L272.4087112500117,107.71203235725957L272.63090432607214,103.83869321803628L272.96419394016266,105.41556648662048L273.186387016223,91.77350569320944L273.4085800922834,103.00377069060092" fill="none"></path></g></g></g></g><g opacity="0.2"><g><g><g><path style="fill: none;" stroke="rgb(255, 112, 67)" stroke-width="2px" d="M22.774790296187767,70.84213303634138L22.885886834217953,97.78981925340403L23.33027298633869,104.06652990914456L23.441369524368874,119.22887727284686L23.66356260042924,144.77997816750417L23.774659138459423,61.15054699977791L23.88575567648961,96.15240110601334L24.219045290580162,129.6034101091315L24.330141828610348,122.23916387572368L24.441238366640533,114.10182789733945L24.88562451876127,48.17083474002527L25.885493361032925,145.4117563864851L26.218782975123478,81.46366060590681L26.663169127244217,48.317283153242215L26.88536220330458,98.97327088352502L27.107555279364952,96.47112375077161L27.218651817395138,107.10671885093889L27.440844893455505,111.80231682725044L27.663037969515877,115.58001432271666L27.77413450754606,80.59522033734511L28.10742412163661,145.7137252385165L28.218520659666794,150.52321837255678L28.32961719769698,153.74555473738684L28.440713735727165,118.02418296460601L28.551810273757347,144.6547253050014L28.996196425878082,173.98711715980969L29.218389501938454,186.96596934440828L29.44058257799882,135.25296103164982L29.551679116029007,177.10272173257763L29.66277565405919,119.37631536158354L29.773872192089375,136.57905553697736L30.107161806179924,142.25905076357876L30.21825834421011,166.76422957980307L30.329354882240295,128.58252446497733L30.440451420270477,113.27953714081077L30.995934110421402,181.87656887513052L31.551416800572323,175.17278377799863L31.662513338602505,180.8131448564052L31.884706414662876,173.40423362424391L31.99580295269306,163.9785050650932L32.106899490723244,146.90362154136716L32.66238218087416,165.5379037923453L33.55115448511564,169.55388923288905L33.88444409920619,180.9349220727375L33.995540637236374,183.3250237984359L34.77321640344766,151.86908282457605L35.106506017538216,126.06852478969003L35.32869909359859,145.50315998984289L35.99527832177969,181.49896053694846L36.106374859809875,186.6501332532492L36.21747139784006,149.00006062028902L36.55076101193061,151.0947206396457L36.66185754996079,180.10493187630237L37.43953331617208,173.08079823891552L37.66172639223245,175.92287534899282L37.883919468292824,159.77383327397268L37.99501600632301,166.85069658741367L38.10611254435319,136.07372014749316L38.21720908238338,156.99125451359336L38.883788310564476,130.00590171752393L39.21707792465504,156.55465444532462L39.4392710007154,157.01442941534702L39.661464076775765,152.95379075790126L39.772560614805954,184.3306283812914L39.883657152836136,185.3779819546726L40.2169467669267,144.5324414690578L40.55023638101724,141.90407536198475L40.772429457077614,177.98362719994734L40.883525995107796,164.6806680644891L41.216815609198356,173.18535038846397L41.77229829934927,136.1241935989993L41.883394837379456,138.61129530748258L41.994491375409645,75.77903511169525L42.21668445147001,159.69634403714824L42.54997406556056,182.08312240339382L42.77216714162093,133.6949054354602L42.88326367965111,153.49939651555727L43.10545675571148,139.54338113744396L43.32764983177185,139.68191214650307L43.43874636980204,155.38180648148642L44.21642213601333,178.43946703159367L45.10519444025479,168.94936243625492L45.21629097828498,144.98260244831712L45.32738751631516,157.67017192012707L45.771773668435905,169.54985983970158L46.10506328252645,172.25021305898343L46.43835289661701,150.60567955068274L46.88273904873775,171.9543825515446L46.99383558676793,129.13142914103244L47.2160286628283,168.0384132477506L47.43822173888867,129.43368075749805L47.660414814949036,151.4909914304855L47.99370442903959,168.54153364916684L48.10480096706978,176.79856145618106L48.21589750509996,156.92660749482255L48.549187119190506,151.99764638732933L49.660152499492355,18.140450661225646L49.88234557555272,16.780565806010237L50.548924803733826,51.523996783082296L50.88221441782438,39.92188928308879L50.99331095585456,60.69718135693088L51.10440749388475,46.72034744734899L51.21550403191493,46.071450198247064L51.437697107975296,63.05590801228364L51.88208326009604,-73.8468727435672L52.10427633615641,-0.6147487309307494L52.326469412216774,71.45870088513219L52.54866248827714,52.888358741839355L53.10414517842806,50.81348045102584L53.326338254488434,-9.497510667144748L53.77072440660916,21.362386443107265L54.548400172820465,46.96095641715726L54.65949671085064,-40.8256185530397L55.214979401001564,-151.05815212919174L55.32607593903175,17.58580822352642L55.43717247706193,-26.22269705871535L55.77046209115249,-91.18042681533656L55.88155862918267,19.90259148780497L56.325944781303406,36.2149889328374L56.43704131933359,12.406317827324825L56.65923439539396,-78.92513347232229L56.992524009484505,48.40531714709236L57.43691016160525,27.82447274917406L57.54800669963544,45.48400708617969L57.65910323766562,16.966978259261943L57.7701997756958,51.63681979233134L57.992392851756165,37.84387701979615L58.325682465846725,31.77638848166678L58.43677900387691,10.512267392187395L58.54787554190709,-76.5777409580407L58.88116515599764,55.43778644436264L58.99226169402783,34.83012655260027L59.214454770088196,22.129267152382546L59.8810339982693,67.85109797869355L60.103227074329666,36.516604329326064L60.43651668842022,52.4811543928768L60.54761322645041,56.27399156742461L60.76980630251078,67.05268903500408L60.880902840540955,13.152038331440192L61.43638553069188,22.88799482047148L61.54748206872207,38.72678540190816L61.76967514478243,71.91218434649348L61.991868220842804,73.73580287381021L62.102964758872986,62.71378661059466L62.214061296903175,53.70740948922603L62.54735091099372,56.28457167000456L62.99173706311446,72.78934318510991L63.4361232152352,65.33543706235528L63.65831629129556,-41.887681767925415L64.1027024434163,64.94048583887509L64.21379898144649,73.36146989032436L64.32489551947667,68.43319213021383L64.54708859553703,92.03476185137181L64.65818513356722,32.48146159836474L65.10257128568796,47.02596867332227L65.21366782371814,51.121717248015536L65.32476436174832,74.7868854031675L65.5469574378087,92.17986713352627L65.65805397583888,56.67294862038941L65.76915051386906,79.21992482046535L65.88024705189925,98.3122029819007L66.9912124322011,56.15421726583461L67.546695122352,89.59843992253177L68.3243708885633,55.030134385045926L68.43546742659349,30.7902239536631L68.99095011674441,83.16597319094826L69.10204665477458,34.54505287551278L69.32423973083496,108.85229439441419L69.54643280689533,104.86946308378137L69.99081895901607,2.44341931613865L70.99068780128772,108.35512382796776L71.10178433931792,92.16526941961028L71.2128808773481,117.93480583969338L71.32397741537828,82.94452151155761L71.65726702946883,62.185064246031175L72.32384625764993,70.2969160797824L73.10152202386122,56.94115068623582L73.2126185618914,45.813804671277765L73.32371509992159,-9.580879047830422L73.43481163795177,-644.6444908624138L73.65700471401215,42.9577425035586L73.76810125204233,-39.88997460394789L74.10139086613289,63.06703008002917L74.21248740416307,48.54123258513505L74.32358394219325,46.62774209514585L74.76797009431398,-10.639808290237028L74.87906663234416,28.323622666659936L75.3234527844649,24.576287002316782L76.10112855067621,56.3658193174337L76.43441816476675,7.306543437867052L76.54551470279694,49.42621457309792L76.7677077788573,54.78285688733092L76.98990085491768,58.96579116257169L77.32319046900822,56.53359288173051L78.54525238734026,84.61971227461792L78.8785420014308,54.41399068290643L78.989638539461,81.59792658474998L79.10073507749118,66.74365107211743L79.32292815355153,74.11348190310086L79.54512122961191,80.7680836614577L79.65621776764209,74.68282809137891L79.87841084370245,40.985554829768354L80.4338935338534,84.45279878547517L80.54499007188357,86.6291070352094L81.21156930006467,77.5661063358906L81.43376237612505,81.56986221465482L81.54485891415523,68.21261230782864L81.65595545218541,50.327714716759125L81.76705199021559,103.92024644184755L81.87814852824579,100.47929782382035L81.98924506627597,81.69194575912418L82.10034160430615,102.77353062447078L82.21143814233633,107.94605794648001L82.32253468036652,89.17702666075024L82.43363121839671,102.80643733550176L82.65582429445706,42.53201708415543L82.98911390854762,77.4878512787235L83.1002104465778,67.63162565034234L83.21130698460799,101.9901435413486L83.43350006066836,101.64375710944364L83.87788621278911,91.4207624461917L84.10007928884946,74.58440250457163L84.32227236490982,116.51181738824384L84.76665851703056,93.36182246851622L84.87775505506076,58.52642235921797L84.98885159309094,74.97662033852116L85.43323774521168,75.1945374624842L85.87762389733241,46.38055885224224L85.9887204353626,-7.900103687194495L86.32201004945316,42.71194951912319L86.54420312551352,39.18071657362359L86.6552996635437,25.400922347279085L86.76639620157388,19.24474003161977L86.87749273960408,45.15842740389187L86.98858927763426,39.56313190718724L87.09968581566444,46.61659646369747L87.32187889172481,46.50643615287056L87.43297542975499,26.654016501175217L87.98845811990591,33.172278674838026L88.0995546579361,40.159199334497956L88.43284427202666,31.83298849591411L88.54394081005684,-79.3191657113913L88.87723042414738,34.9548963591946L89.09942350020775,-44.71000071316239L89.54380965232849,50.55774358398744L89.76600272838886,25.048644989661465L89.98819580444923,58.64094195507226L90.21038888050958,52.45422108051848L90.54367849460014,67.73836922425592L90.98806464672089,49.22714841141542L91.09916118475107,34.96851617944228L91.32135426081145,53.39226852730108L91.65464387490199,19.180458250243124L92.09903002702272,42.24168870133224L92.65451271717365,49.05871506343878L93.43218848338493,64.88306109502798L93.54328502141512,63.42178162644611L93.7654780974755,55.044531807487694L93.87657463550568,48.825717169651284L93.98767117353586,62.441248823423734L94.09876771156604,63.154310035388065L94.20986424959622,71.29460325848008L94.32096078762642,66.80392702400948L94.65425040171696,70.64641292046365L95.0986365538377,52.15453790766355L95.20973309186788,72.36489020566067L95.65411924398862,73.51699032913882L95.98740885807918,35.78250073071608L96.20960193413956,57.09601134137047L96.32069847216974,49.46285613103073L96.43179501019992,71.57484637648318L96.76508462429047,59.90256616940035L96.87618116232065,80.79238962094817L96.98727770035083,89.43778259649585L97.09837423838101,75.47065693248844L97.20947077641121,64.70734656287048L97.43166385247157,-2.966736167268209L97.54276039050175,66.49868281728179L97.65385692853194,77.10058182237262L97.87605000459232,94.72260274443997L97.9871465426225,95.67994886385728L98.09824308065267,54.49801884727194L98.20933961868286,100.01985274563783L98.32043615671304,56.54294767176223L98.43153269474323,113.48812303844497L98.65372577080359,96.27825484293881L98.76482230883379,58.21349638536098L99.54249807504507,69.73831494000426L99.87578768913562,73.78349580837998L99.9868842271658,45.718136037704014L100.09798076519598,89.52958678280208L100.32017384125636,44.07004353292196L100.65346345534692,39.102579334970756L100.87565653140729,94.17561851016721L101.09784960746765,89.70321592725732L101.54223575958838,90.908487546218L101.98662191170912,71.74337397927123L102.0977184497393,77.48309141074768L102.31991152579968,102.3866735329198L102.43100806382986,77.35622443459961L102.54210460186005,86.30679092576642L102.65320113989024,93.80298211328659L102.76429767792042,101.24242012249093L103.31978036807133,95.26077415384657L103.98635959625244,115.38298642133073L104.20855267231282,111.8824216350913L104.319649210343,94.47130763538894L104.43074574837317,126.21428985552434L104.54184228640335,99.92405451169839L104.76403536246373,78.42149231307303L105.09732497655428,100.44709802387487L105.20842151458447,82.37731962023898L105.54171112867502,95.43548722863292L105.65280766670521,103.08775260198456L105.7639042047354,43.03022445352729L105.98609728079575,104.15696740068547L106.20829035685612,106.09437504906812L106.87486958503723,97.47595073143302L107.20815919912779,117.05063679947884L107.31925573715797,117.36120640305076L107.65254535124852,96.03084774485815L107.7636418892787,108.44002384933874L107.87473842730888,104.4783763075687L108.09693150336926,85.77631306534056L108.20802804139944,100.16177692790745L108.31912457942963,62.79790902977159L108.87460726958055,112.28313418391849L109.31899342170128,103.77818087736082L109.43008995973146,101.10127354241536L109.65228303579184,138.87906144482625L109.8744761118522,104.93150631338722L110.09666918791258,78.62505914200001L110.20776572594276,113.57296415055885L110.31886226397295,108.47574642286038L110.42995880200313,127.60709320362214L110.54105534003331,84.7241230419493L110.6521518780635,83.26132371453355L110.87434495412386,117.16209311396256L111.09653803018423,102.08082845176943L111.3187311062446,111.08953837972031L111.65202072033516,110.43249987128345L111.87421379639552,111.25421331709227L111.9853103344257,121.30474523918011L112.0964068724559,107.08422729656793L112.54079302457663,121.62702600306879L112.762986100637,122.9864395842272L112.87408263866718,127.82861557412134L113.09627571472755,113.72050827595835L113.4295653288181,113.86669748844395L113.87395148093883,104.7686693448376L114.20724109502939,102.01014912506885L114.54053070911995,96.8464935371829L114.65162724715013,88.72547542302273L114.8738203232105,105.20329006206691L115.09601339927087,133.92039828988976L115.31820647533124,143.04177806302113L115.87368916548215,92.5051758332313L116.09588224154253,45.609601622373795L116.20697877957271,42.898173462752084L116.31807531760289,37.693705541528786L116.42917185563307,34.21438343340922L116.76246146972363,47.397992413928776L117.42904069790472,41.2586581458077L117.6512337739651,59.03026145357114L117.76233031199529,56.81418945527637L117.87342685002547,44.33101154199321L118.09561992608585,57.167597870630836L118.54000607820659,54.87897323125883L118.76219915426694,68.46250537656006L118.87329569229712,63.688569870121476L119.31768184441786,27.265094007201835L119.42877838244804,73.04562201731387L119.53987492047824,55.67297576251524L119.65097145850842,44.66846733051775L119.98426107259898,56.93898282557357L120.09535761062916,60.95935111484751L120.20645414865933,95.30733603067952L120.4286472247197,65.25720556889102L120.76193683881026,79.1845557024865L120.98412991487064,56.30429448929058L121.09522645290082,83.88963806919541L121.31741952896118,49.97637990725555L121.42851606699138,59.4291949428331L121.76180568108191,51.850306940158475L122.09509529517247,77.26844964148084L122.20619183320265,72.73229546050842L122.98386759941395,75.42484909414672L123.09496413744414,36.089300141831885L123.20606067547432,52.60187124258082L123.31715721350449,44.99967873778687L123.42825375153468,65.58610773328078L123.53935028956487,72.60123414525296L123.65044682759505,80.16266144411524L123.87263990365541,83.55344293877337L123.98373644168561,75.89784330146838L124.09483297971579,77.25414647385048L124.42812259380635,81.40689564573954L124.53921913183653,75.99864882226356L124.65031566986671,94.56265232948958L124.76141220789688,71.59577094461459L124.98360528395726,75.95995722218275L125.65018451213837,74.52476277265657L125.76128105016855,97.39392548180982L126.09457066425911,91.62825263164336L126.8722464304704,103.37120038357534L127.20553604456094,-87.8070235515308L127.98321181077225,114.51656084936276L128.09430834880243,111.92561390241659L128.2054048868326,91.71894932391561L128.42759796289297,86.01802952918281L128.53869450092316,100.28043195361204L128.64979103895334,109.17495217754852L128.98308065304388,111.40568079901641L129.09417719107407,100.21947265433732L129.31637026713443,117.99471655419123L129.53856334319482,61.31433829829296L129.649659881225,109.33191000223687L130.09404603334573,82.34975008790369L130.20514257137592,94.55670249451978L130.64952872349664,105.18889263962515L130.76062526152683,80.4447425309407L130.87172179955704,94.9185113699405L130.98281833758722,111.31062482171679L131.31610795167776,94.89680919961502L131.42720448970795,116.16156650907138L131.53830102773813,117.58587452788056L131.8715906418287,98.58121799549545L131.98268717985886,76.68234966047596L132.87145948410034,113.09108642726251L133.2047490981909,90.32493244512098L133.3158456362211,87.78641473701755L133.53803871228143,123.39678968752033L133.7602317883418,100.64828491881394L133.871328326372,97.89877781538557L134.20461794046255,67.10273833985892L134.31571447849274,98.29648599209929L134.5379075545531,73.38178180218164L134.64900409258328,108.50685051062328L134.76010063061347,104.97922281165984L134.87119716864368,55.61946259334136L135.2044867827342,62.46933675722173L136.09325908697568,109.24438262799804L136.31545216303607,125.46279624421054L136.53764523909643,111.45518813870567L136.7598383151568,29.12551903837132L136.87093485318698,101.12493150007745L136.98203139121716,108.96554155031454L137.20422446727753,112.61464013747323L137.4264175433379,121.03392760231728L137.53751408136807,71.75162127526896L137.64861061939826,130.52109851665108L137.98190023348883,98.62640139571162L138.20409330954917,113.11536882305013L138.98176907576047,115.53658641836287L139.09286561379065,70.05416281301476L139.42615522788122,116.12507811520712L139.64834830394156,106.59638795645037L140.31492753212268,75.25382373885652L140.42602407015286,102.41538590484333L140.64821714621323,123.61759336508257L140.87041022227362,51.741466196691206L141.31479637439435,100.21426507600734L141.5369894504547,110.55437134242716L141.75918252651508,116.65652208744984L141.98137560257544,105.70849585118545L142.20356867863583,98.41961812134551L142.53685829272638,104.33209284027168L142.64795483075656,115.47899672859583L142.75905136878674,99.03704604529037L142.87014790681692,114.69602201027354L143.53672713499802,95.01922263592428L143.6478236730282,87.47418389239468L144.31440290120932,96.72905204217511L144.5365959772697,110.63870583492971L144.75878905333005,107.68914289429908L144.86988559136023,113.59976786255147L144.9809821293904,130.17457070252902L145.9808509716621,84.34290945723103L146.20304404772244,95.62555205582649L146.53633366181302,129.1263393812167L146.86962327590354,125.59005202145563L146.98071981393375,84.94047317967276L147.2029128899941,102.49146131949676L147.3140094280243,121.97268196018538L147.4251059660545,123.00276923030272L147.75839558014502,122.07527832239721L147.8694921181752,101.66369200205531L148.09168519423557,129.03100063948287L148.20278173226578,85.03737890764619L148.31387827029593,114.99931042966459L148.6471678843865,132.6649242020057L148.7582644224167,120.36421182174675L149.86922980271854,121.3224651437238L149.98032634074872,100.37738480899115L150.0914228787789,108.70847333406509L150.20251941680908,24.145330440880755L150.53580903089966,125.65747955716283L150.6469055689298,79.13602625646551L150.75800210696,128.52388619043342L151.09129172105057,107.85941421109808L151.20238825908072,110.80134251200509L151.31348479711093,134.6555976006823L152.9799328675637,107.4876261075201L153.31322248165424,122.71621103993564L153.5354155577146,127.33733593338759L153.6465120957448,87.21658549283106L153.86870517180515,139.0941862700015L153.97980170983536,95.4908972758863L154.31309132392587,142.02442697429458L154.64638093801645,118.93536779013883L154.75747747604663,132.04397350448465L154.86857401407684,133.75012697309077L154.979670552107,116.05496431737492L155.20186362816736,21.18285459108795L155.42405670422775,120.52901635948437L155.64624978028812,117.19781568748417L155.86844285634848,114.62844131049778L155.97953939437866,94.12436745646698L156.20173247043903,95.78657461925658L156.4239255464994,102.39461450078048L156.64611862255975,101.17121061247617L156.75721516058996,108.88137200373194L156.86831169862015,136.0636466645245L156.9794082366503,142.36237760057898L157.0905047746805,124.01332219075684L158.20147015498236,122.30877105394457L158.31256669301254,116.56427019078944L158.64585630710306,125.53570234083054L159.09024245922382,117.73573967801084L159.201338997254,117.83898404205111L159.31243553528418,114.80764327067718L159.53462861134454,109.9083959924787L159.86791822543512,122.39051353913358L160.20120783952567,28.16072678885321L160.42340091558603,110.0850059453445L160.6455939916464,106.23082067042496L160.75669052967658,131.2025608030927L160.97888360573694,133.28780712316046L161.4232697578577,99.072297344755L161.53436629588788,121.29284556924048L161.64546283391806,132.54661084999242L161.86765590997842,94.54297663760926L161.9787524480086,120.38217914517038L162.31204206209918,116.59016670022234L162.42313860012933,134.54877155380876L162.53423513815954,128.46302114597012L162.6453316761897,139.4580334057188L162.7564282142199,118.92785096892945L162.8675247522501,86.62997889221488L163.423007442401,137.73061369528995L163.53410398043118,97.64351222240418L163.75629705649158,93.89687168729513L164.2006832086123,126.07187083549483L164.3117797466425,141.7214213193377L164.53397282270285,130.5475605549524L164.97835897482358,105.52853985251481L165.20055205088397,108.10063583718045L165.6449382030047,118.2083215205326L165.75603474103488,123.65128946015905L165.86713127906506,118.02319328908625L165.97822781709525,120.5397731898357L166.2004208931556,108.55343595115906L166.53371050724616,125.01317723011678L166.64480704527634,124.88933818978504L166.86700012133673,49.839003519636094L166.97809665936688,96.60951337761362L167.0891931973971,104.08833811613286L167.75577242557821,118.76163260902077L167.97796550163858,124.78768437568722L168.08906203966873,137.40994704504652L168.31125511572913,102.15845907081098L168.42235165375928,116.19950407066096L168.75564126784985,130.72157850050468L168.86673780588004,111.35604385896144L169.42222049603097,133.74178542228162L169.53331703406113,121.69076581927989L169.6444135720913,95.32639906628572L169.97770318618188,106.70750259724272L170.19989626224225,131.256085754118L170.31099280027243,131.9254245154429L170.4220893383026,106.91948166808743L170.5331858763328,71.18342970843058L170.644282414363,129.249224091583L170.75537895239316,-24.246126536194833L171.08866856648373,-501.9230542705368L171.42195818057428,83.90121962914652L171.64415125663464,112.55911227170562L171.9774408707252,98.98812779817236L172.08853740875537,116.29501954016618L172.19963394678555,85.07509261405869L172.31073048481576,94.11138385619627L172.75511663693646,80.34723592854459L173.19950278905722,-77.49641904108003L173.42169586511758,100.37044529850164L173.53279240314777,53.97417416919855L173.97717855526852,87.96501582277426L174.42156470738922,91.18924906568381L175.19924047360055,104.19325550307549L175.3103370116307,106.15804417417064L175.42143354966092,103.90660305789702L175.75472316375146,97.02324487226583L175.97691623981183,87.08749174676363L176.088012777842,107.504050008407L176.31020585390237,105.34094921412057L176.42130239193256,94.8170460654655L176.53239892996274,77.85867327048462L176.7545920060231,107.73484469597797L176.8656885440533,95.78586770817105L177.19897815814386,71.56101448290983L179.08761930465698,113.3821570667255L179.19871584268716,67.81612944366314L179.30981238071735,87.48171249545547L179.42090891874753,49.03025011039515L179.86529507086826,67.50515925714276L180.19858468495883,118.17216301850824L180.309681222989,88.15085096530613L180.6429708370796,92.45169800961169L180.75406737510974,98.56169546768365L180.86516391313992,96.37757585045442L181.30955006526065,114.87703837557243L181.42064660329086,92.45287619475421L181.53174314132104,118.64817337979476L181.7539362173814,80.47307788361863L181.8650327554116,118.65323957590768L181.97612929344177,100.51057863935462L182.19832236950214,84.23322042046114L182.4205154455625,110.74392955000943L183.08709467374362,91.67466134440777L183.30928774980399,101.73921366969175L183.8647704399549,124.24423469684207L183.97586697798508,113.91853763471545L184.97573582025674,106.85439872081386L185.08683235828693,127.33011365846387L185.53121851040768,129.1857788216575L186.30889427661896,126.56044065040078L186.75328042873969,113.66994056964081L186.86437696676987,115.83886159853137L187.19766658086044,90.00771787734516L187.3087631188906,134.73602051851168L187.64205273298117,103.29910723470371L187.86424580904153,130.65633060731116L187.97534234707172,125.83967410760427L188.08643888510193,62.59198583055952L188.8641146513132,134.40003746141528L188.97521118934338,118.43042120175167L189.08630772737357,111.67817145878162L189.19740426540375,126.31891269618134L189.4195973414641,112.68983191326974L189.53069387949432,111.45565941276269L189.64179041752448,110.92032742954957L189.7528869555547,122.60186817185271L189.86398349358484,63.42008503984086L189.97508003161502,129.40487413076312L190.08617656964523,114.89633704820713L190.64165925979614,89.68298648835999L190.8638523358565,75.7680779898697L191.41933502600745,24.216987661249664L191.53043156403763,116.41495878767614L191.64152810206778,113.46924851246158L191.86372117812815,112.51965485128217L192.64139694433948,109.77825366163441L192.86359002039984,109.91586568628236L193.41907271055075,122.75504402223355L193.53016924858093,104.08809069725294L193.97455540070166,118.88994875289413L194.19674847676202,127.74974786068015L194.30784501479224,101.58707462223636L194.5300380908526,140.90628214662425L194.64113462888278,109.39445985145399L194.86332770494315,98.68425028621004L194.97442424297333,113.17757699857592L195.64100347115442,108.30283597134212L195.75210000918463,123.90058165446779L195.86319654721478,119.05702718795688L196.41867923736572,116.88101348450826L196.5297757753959,134.01765747340593L197.52964461766757,115.90656011682135L197.64074115569775,114.07177239435339L197.9740307697883,130.8307609176633L198.19622384584866,118.40754084628365L198.64060999796942,116.76788414712215L199.30718922615048,104.46952813714825L199.52938230221088,101.37765221315097L199.64047884024106,136.60331436906213L199.86267191630145,97.86534092104046L200.19596153039197,119.76440954753419L200.41815460645236,105.28477334652457L200.52925114448254,46.44396877661341L200.9736372966033,125.17418801169545L201.08473383463345,137.97514602162283L201.30692691069385,109.91398059005431L201.418023448724,124.82907401974444L201.5291199867542,127.0708540178493L201.64021652478436,132.81344622107352L201.97350613887494,124.38268323294122L202.08460267690512,128.36893128048737L202.1956992149353,121.94078848837698L202.64008536705603,143.52015657644415L202.8622784431164,117.55243763353545L202.9733749811466,139.61856113138904L203.08447151917676,65.89248299774529L203.30666459523715,137.17997708707532L203.52885767129752,119.77713394707355L203.75105074735788,116.80061413038175L204.08434036144845,140.96287037902016L204.1954368994786,135.50430326810655L204.417629975539,130.87568511714807L204.52872651356915,116.15232953755392L204.63982305159936,126.66551120141193L204.75091958962952,116.96234360489737L204.9731126656899,117.50257683830341L205.19530574175027,-766.6599833579382L205.30640227978049,123.90194834923314L205.639691893871,85.37433985841088L205.75078843190119,100.00812980346961L205.97298150796155,101.72382657173026L206.08407804599176,85.60447476230199L206.4173676600823,94.882293958659L206.5284641981125,68.99801408754455L206.63956073614267,97.50886922431542L206.75065727417288,89.17005180470646L207.0839468882634,99.08978161227019L207.52833304038415,68.18084843638592L207.75052611644452,54.74920791966015L207.8616226544747,67.29030541455029L207.97271919250488,102.44098786799061L208.30600880659543,77.44529523137517L208.41710534462564,58.343756534719525L208.639298420686,83.14601473463374L209.0836845728067,87.4591855955302L209.1947811108369,73.01484782139089L209.3058776488671,49.10204871298117L209.41697418689728,93.50410010632864L209.63916726295764,70.38235806631897L210.0835534150784,94.01736468182207L210.19464995310855,98.12255051950702L210.41684302916894,105.98350782715568L210.5279395671991,86.05646192853226L210.6390361052293,97.92959913871425L210.7501326432595,106.95657093637438L210.97232571931985,106.21472666137795L211.30561533341043,97.5527094934691L211.41671187144058,91.69728249914442L211.5278084094708,88.84699343862367L211.63890494750095,90.2089283359871L212.0832910996217,45.51845721974737L212.1943876376519,101.11041625912144L212.74987032780282,98.37841698691109L212.9720634038632,92.01162229517244L213.08315994189334,98.42285813048747L213.19425647992355,88.45347960101738L213.63864263204425,88.48703431387673L213.97193224613483,93.11581741075516L214.19412532219522,90.99397666016026L214.52741493628574,104.69477357269788L214.63851147431595,76.05258613808876L214.74960801234613,109.01094880570781L214.8607045503763,49.903167482498475L214.9718010884065,103.32883284584985L215.19399416446686,88.27451327786648L215.41618724052722,101.49012176685724L215.74947685461777,96.49890535643256L215.86057339264798,82.84937127944659L216.08276646870834,90.77987685605899L216.19386300673852,101.08093806685524L216.3049595447687,119.74205937538031L216.63824915885925,86.51456387565227L216.86044223491962,89.010348808636L216.9715387729498,107.96012547708187L217.08263531097998,89.15103589650596L217.19373184901016,99.6284596412881L217.97140761522147,94.68612613242712L218.08250415325165,104.58365893190553L218.4157937673422,95.24913368463835L218.97127645749313,106.60769853381869L219.41566260961386,89.02711438321425L219.63785568567425,87.08466410242154L220.08224183779495,77.29505306199925L220.19333837582516,108.26291905871308L220.41553145188553,94.61228926954455L220.85991760400626,111.4873761567997L220.97101414203644,103.11754890423924L221.08211068006662,110.91979724623543L221.304303756127,105.41628237213418L221.41540029415717,97.52622389146495L221.52649683218735,107.55009348377723L221.97088298430808,115.58312473149297L222.19307606036847,99.52702968236736L222.41526913642883,121.83380927743492L222.6374622124892,112.29840346336573L222.7485587505194,101.04565142183635L222.97075182657974,111.9445826832114L223.41513797870047,95.82097762541858L223.63733105476086,107.53753403015783L223.74842759279105,97.15451826084696L224.0817172068816,110.59888317711207L224.41500682097217,95.66703595469512L224.85939297309287,64.12683117944121L225.08158604915326,85.38270497292285L225.525972201274,85.08886559837492L225.97035835339472,103.62306102149482L226.0814548914249,64.51042469814738L226.1925514294551,84.60762409505553L226.63693758157584,109.24338117062689L226.74803411960602,106.52758194412638L226.8591306576362,124.15967634916242L227.0813237336966,107.01925038595718L227.19242027172675,110.4457780178398L227.30351680975696,79.4616884117133L227.52570988581732,103.85997048995553L227.6368064238475,103.79907009993795L227.97009603793802,85.3963012294677L228.08119257596823,55.063712661608136L228.3033856520286,98.34100960863566L228.525578728089,-49.227869460722694L228.63667526611914,68.23810823431306L228.74777180414935,112.09470703407305L229.52544757036063,102.43787745921432L229.747640646421,107.39738890745343L229.85873718445117,102.20702386238622L230.5253164126323,88.27849554364825L230.63641295066247,94.43017719206307L230.74750948869266,61.98875503758218L230.8586060267228,42.061449938227405L230.96970256475302,115.20971073241829L231.19189564081339,100.01491614989061L231.52518525490393,94.10956945107678L232.3028610211152,37.207609915422154L232.41395755914542,106.47040461915921L232.5250540971756,92.00580206056834L233.08053678732654,92.92993514081759L233.52492293944726,91.66735659652404L233.8582125535378,113.29824672087423L233.96930909156802,108.83139338998565L234.30259870565854,107.69106333608143L234.41369524368872,83.00541011972375L234.52479178171893,88.09775016093212L234.63588831974909,111.44644600494807L234.7469848577793,108.00164472150477L235.08027447186984,104.84104525814345L235.19137100990002,94.60987399000233L235.3024675479302,100.26563394822183L235.41356408596036,86.52063152913631L235.85795023808112,87.309461827617L235.96904677611133,87.96380229207746L236.08014331414148,102.41418415599796L236.41343292823206,105.35148218929483L236.63562600429242,94.89277980642755L236.85781908035278,113.06793508921172L237.08001215641318,90.47830858697603L237.19110869444333,91.79625005111725L237.3022052324735,75.51766651967554L237.52439830853388,103.43279590282702L237.6354948465641,86.10743021779827L238.190977536715,89.85967891418579L238.41317061277536,97.96638207886417L238.52426715080557,90.17857828671545L238.7464602268659,-367.303054355751L239.07974984095648,100.47226405851939L239.41303945504703,108.30161065879388L239.5241359930772,94.65792038011486L239.74632906913757,101.3449340117428L239.96852214519797,106.97116865029038L240.19071522125833,75.3558310084971L240.63510137337903,101.42078557121913L240.74619791140924,41.060723041862005L240.9683909874696,59.908056512164556L241.19058406352997,118.54452843280606L241.74606675368088,66.57960057287103L242.19045290580164,114.85220223276781L242.3015494438318,53.939606217116605L242.412645981862,104.89107099929545L242.52374251989218,85.22171775504702L243.8569009762544,49.17172658231061L244.07909405231476,93.40475553511017L244.30128712837512,113.38717613543267L244.52348020443551,108.7910523307053L244.63457674246567,93.57969246507359L244.96786635655621,55.70372639473538L245.07896289458643,107.14209975076919L245.19005943261658,98.9298311973198L245.3011559706468,100.08904755905883L245.41225250867697,96.6094898139108L245.52334904670715,79.10771446749042L245.63444558473734,106.69159709781852L245.8566386607977,105.65286194875497L245.9677351988279,110.46982477659893L246.07883173685806,112.10704263251537L246.30102481291843,102.61323853582905L246.85650750306937,115.32967354363109L247.1897971171599,102.31699566359035L247.4119901932203,109.23595860422893L247.52308673125046,103.50005849261429L247.74527980731082,116.72002626663243L248.07856942140137,110.25236714484144L248.41185903549194,107.31132248279133L248.6340521115523,93.50468919889988L248.96734172564285,109.14269346834594L249.07843826367306,90.67980181005218L249.30063133973343,111.19288878042337L249.4117278777636,116.1700847876519L249.74501749185413,69.4555269420933L249.96721056791452,113.74665220427119L250.0783071059447,114.12066707776856L250.9670794101862,107.15833514203332L251.07817594821637,95.03358471281179L251.30036902427673,109.12485574528799L251.85585171442764,111.8765189275272L252.41133440457858,116.51237113526084L252.52243094260876,102.7692066849977L252.63352748063892,43.73649931907062L252.85572055669934,114.56447763910963L252.9668170947295,101.94713978364612L253.18901017078986,48.046088497133795L253.41120324685025,116.06087880679043L253.7444928609408,116.21646993671345L253.85558939897098,110.55619752939806L254.29997555109173,103.17563343176616L254.85545824124264,92.87081381036523L255.077651317303,113.34344190294182L255.74423054548413,83.06165667842833L255.85532708351428,108.40526738763401L255.9664236215445,95.78005925541838L256.07752015957465,85.24847433963399L256.18861669760486,113.7189530715702L256.5219063116954,119.46925060562663L256.74409938775574,123.55639842877936L257.0773890018463,100.86690895386255L257.18848553987647,116.18200802129434L257.52177515396704,63.601195659951166L257.7439682300274,120.78872371045311L257.96616130608777,95.11743614940592L258.077257844118,113.99874847921915L258.18835438214813,107.53579031614689L258.63274053426886,94.09032968769918L259.07712668638965,118.9507077606946L259.18822322441986,92.26193951055518L259.29931976245,100.92256641999583L259.74370591457074,97.22948618146638L259.8548024526009,120.68152064433396L260.07699552866126,107.06741459458397L260.18809206669147,111.21811372432501L260.41028514275183,97.84849287350221L260.52138168078204,129.10482572051401L260.6324782188122,93.61812486442304L260.85467129487256,117.68920136488077L260.96576783290277,98.31375818628885L261.0768643709329,118.87585765858944L261.18796090896313,94.98496101197941L261.52125052305365,102.42461109450937L261.7434435991141,117.65749640269519L261.8545401371442,114.34805681027758L262.5211193653253,88.02909731267668L262.63221590335553,115.94758452348438L262.7433124413857,93.40172759929385L263.18769859350647,123.03370837214565L263.40989166956683,106.36893931468421L263.6320847456272,107.04554747833853L264.0764708977479,99.7138898459732L264.8541466639592,120.32175002920981L265.1874362780498,99.66149595268473L265.4096293541101,109.49381620452387L265.6318224301705,126.4022692950156L265.7429189682007,111.84662837046112L265.96511204426105,95.52365082284874L266.1873051203214,108.93586306657411L266.4094981963818,112.55011093721664L266.520594734412,114.3109675419906L266.6316912724422,91.05875327929675L266.74278781047235,99.52719462828732L266.9649808865327,101.66032239254768L267.07607742456287,121.27576188467374L267.40936703865344,116.49961139016719L267.5204635766836,88.22169523792668L267.85375319077417,91.37708712295799L268.18704280486475,66.16996916251485L268.6314289569855,82.547425991118L269.29800818516657,90.63053010739141L269.4091047231968,86.64447056946806L269.74239433728735,110.67727961649628L269.8534908753175,107.62064321011216L270.07568395137787,109.54160339390505L270.29787702743823,81.25261230132473L270.4089735654684,94.71847909644111L270.6311666415288,103.32983430322099L270.74226317955896,108.5460133847611L270.9644562556193,100.69611923560083L271.07555279364954,89.24778846041086L271.18664933167975,121.35999034051352L271.2977458697099,76.73117365278256L271.51993894577026,87.9863763194084L271.7421320218306,121.8968068370062L271.8532285598608,103.51087423222275L272.29761471198157,107.29480432709302L272.4087112500117,111.50826537937682L272.63090432607214,98.02868450920137L272.96419394016266,107.78087638949678L273.186387016223,71.31041450309287L273.4085800922834,119.84916818668808" fill="none"></path></g></g></g></g></g></g><g transform="translate(41, 177)" clip-path="url(#clip_1)"><clipPath id="clip_1"><rect width="288" height="22"></rect></clipPath><g><g><line x1="0" y1="0" x2="0" y2="5" style="visibility: inherit;" fill="rgb(0, 0, 0)" stroke="rgb(204, 204, 204)" stroke-width="1px"></line><line x1="22.219307606036846" y1="0" x2="22.219307606036846" y2="5" style="visibility: inherit;" fill="rgb(0, 0, 0)" stroke="rgb(204, 204, 204)" stroke-width="1px"></line><line x1="44.43861521207369" y1="0" x2="44.43861521207369" y2="5" style="visibility: inherit;" fill="rgb(0, 0, 0)" stroke="rgb(204, 204, 204)" stroke-width="1px"></line><line x1="66.65792281811055" y1="0" x2="66.65792281811055" y2="5" style="visibility: inherit;" fill="rgb(0, 0, 0)" stroke="rgb(204, 204, 204)" stroke-width="1px"></line><line x1="88.87723042414738" y1="0" x2="88.87723042414738" y2="5" style="visibility: inherit;" fill="rgb(0, 0, 0)" stroke="rgb(204, 204, 204)" stroke-width="1px"></line><line x1="111.09653803018423" y1="0" x2="111.09653803018423" y2="5" style="visibility: inherit;" fill="rgb(0, 0, 0)" stroke="rgb(204, 204, 204)" stroke-width="1px"></line><line x1="133.3158456362211" y1="0" x2="133.3158456362211" y2="5" style="visibility: inherit;" fill="rgb(0, 0, 0)" stroke="rgb(204, 204, 204)" stroke-width="1px"></line><line x1="155.5351532422579" y1="0" x2="155.5351532422579" y2="5" style="visibility: inherit;" fill="rgb(0, 0, 0)" stroke="rgb(204, 204, 204)" stroke-width="1px"></line><line x1="177.75446084829477" y1="0" x2="177.75446084829477" y2="5" style="visibility: inherit;" fill="rgb(0, 0, 0)" stroke="rgb(204, 204, 204)" stroke-width="1px"></line><line x1="199.9737684543316" y1="0" x2="199.9737684543316" y2="5" style="visibility: inherit;" fill="rgb(0, 0, 0)" stroke="rgb(204, 204, 204)" stroke-width="1px"></line><line x1="222.19307606036847" y1="0" x2="222.19307606036847" y2="5" style="visibility: inherit;" fill="rgb(0, 0, 0)" stroke="rgb(204, 204, 204)" stroke-width="1px"></line><line x1="244.4123836664053" y1="0" x2="244.4123836664053" y2="5" style="visibility: inherit;" fill="rgb(0, 0, 0)" stroke="rgb(204, 204, 204)" stroke-width="1px"></line><line x1="266.6316912724422" y1="0" x2="266.6316912724422" y2="5" style="visibility: inherit;" fill="rgb(0, 0, 0)" stroke="rgb(204, 204, 204)" stroke-width="1px"></line><line x1="288.850998878479" y1="0" x2="288.850998878479" y2="5" style="visibility: inherit;" fill="rgb(0, 0, 0)" stroke="rgb(204, 204, 204)" stroke-width="1px"></line></g><g transform="translate(0, 8)"><text style="text-anchor: middle; visibility: hidden; font-family: Roboto, sans-serif; font-size: 12px; font-weight: 200;" x="0" y="0" dx="0em" dy="0.95em" fill="rgb(50, 49, 63)" stroke="none" stroke-width="1px">-200</text><text style="text-anchor: middle; visibility: inherit; font-family: Roboto, sans-serif; font-size: 12px; font-weight: 200;" x="22.219307606036846" y="0" dx="0em" dy="0.95em" fill="rgb(50, 49, 63)" stroke="none" stroke-width="1px">0</text><text style="text-anchor: middle; visibility: hidden; font-family: Roboto, sans-serif; font-size: 12px; font-weight: 200;" x="44.43861521207369" y="0" dx="0em" dy="0.95em" fill="rgb(50, 49, 63)" stroke="none" stroke-width="1px">200</text><text style="text-anchor: middle; visibility: inherit; font-family: Roboto, sans-serif; font-size: 12px; font-weight: 200;" x="66.65792281811055" y="0" dx="0em" dy="0.95em" fill="rgb(50, 49, 63)" stroke="none" stroke-width="1px">400</text><text style="text-anchor: middle; visibility: hidden; font-family: Roboto, sans-serif; font-size: 12px; font-weight: 200;" x="88.87723042414738" y="0" dx="0em" dy="0.95em" fill="rgb(50, 49, 63)" stroke="none" stroke-width="1px">600</text><text style="text-anchor: middle; visibility: inherit; font-family: Roboto, sans-serif; font-size: 12px; font-weight: 200;" x="111.09653803018423" y="0" dx="0em" dy="0.95em" fill="rgb(50, 49, 63)" stroke="none" stroke-width="1px">800</text><text style="text-anchor: middle; visibility: hidden; font-family: Roboto, sans-serif; font-size: 12px; font-weight: 200;" x="133.3158456362211" y="0" dx="0em" dy="0.95em" fill="rgb(50, 49, 63)" stroke="none" stroke-width="1px">1k</text><text style="text-anchor: middle; visibility: inherit; font-family: Roboto, sans-serif; font-size: 12px; font-weight: 200;" x="155.5351532422579" y="0" dx="0em" dy="0.95em" fill="rgb(50, 49, 63)" stroke="none" stroke-width="1px">1.2k</text><text style="text-anchor: middle; visibility: hidden; font-family: Roboto, sans-serif; font-size: 12px; font-weight: 200;" x="177.75446084829477" y="0" dx="0em" dy="0.95em" fill="rgb(50, 49, 63)" stroke="none" stroke-width="1px">1.4k</text><text style="text-anchor: middle; visibility: inherit; font-family: Roboto, sans-serif; font-size: 12px; font-weight: 200;" x="199.9737684543316" y="0" dx="0em" dy="0.95em" fill="rgb(50, 49, 63)" stroke="none" stroke-width="1px">1.6k</text><text style="text-anchor: middle; visibility: hidden; font-family: Roboto, sans-serif; font-size: 12px; font-weight: 200;" x="222.19307606036847" y="0" dx="0em" dy="0.95em" fill="rgb(50, 49, 63)" stroke="none" stroke-width="1px">1.8k</text><text style="text-anchor: middle; visibility: inherit; font-family: Roboto, sans-serif; font-size: 12px; font-weight: 200;" x="244.4123836664053" y="0" dx="0em" dy="0.95em" fill="rgb(50, 49, 63)" stroke="none" stroke-width="1px">2k</text><text style="text-anchor: middle; visibility: hidden; font-family: Roboto, sans-serif; font-size: 12px; font-weight: 200;" x="266.6316912724422" y="0" dx="0em" dy="0.95em" fill="rgb(50, 49, 63)" stroke="none" stroke-width="1px">2.2k</text><text style="text-anchor: middle; visibility: hidden; font-family: Roboto, sans-serif; font-size: 12px; font-weight: 200;" x="288.850998878479" y="0" dx="0em" dy="0.95em" fill="rgb(50, 49, 63)" stroke="none" stroke-width="1px">2.4k</text></g><line x1="0" y1="0" x2="288.850998878479" y2="0" fill="rgb(0, 0, 0)" stroke="rgb(204, 204, 204)" stroke-width="1px"></line></g></g></g></g></svg>