<svg viewBox="0 0 330 200" xmlns="http://www.w3.org/2000/svg"><g><g><g><g><g><line x1="51.53200149536133" y1="177.89999961853027" x2="46.53200149536133" y2="177.89999961853027" style="visibility: inherit;" fill="rgb(0, 0, 0)" stroke="rgb(204, 204, 204)" stroke-width="1px"></line><line x1="51.53200149536133" y1="161.72727238048205" x2="46.53200149536133" y2="161.72727238048205" style="visibility: inherit;" fill="rgb(0, 0, 0)" stroke="rgb(204, 204, 204)" stroke-width="1px"></line><line x1="51.53200149536133" y1="145.55454514243385" x2="46.53200149536133" y2="145.55454514243385" style="visibility: inherit;" fill="rgb(0, 0, 0)" stroke="rgb(204, 204, 204)" stroke-width="1px"></line><line x1="51.53200149536133" y1="129.38181790438566" x2="46.53200149536133" y2="129.38181790438566" style="visibility: inherit;" fill="rgb(0, 0, 0)" stroke="rgb(204, 204, 204)" stroke-width="1px"></line><line x1="51.53200149536133" y1="113.20909066633745" x2="46.53200149536133" y2="113.20909066633745" style="visibility: inherit;" fill="rgb(0, 0, 0)" stroke="rgb(204, 204, 204)" stroke-width="1px"></line><line x1="51.53200149536133" y1="97.03636342828923" x2="46.53200149536133" y2="97.03636342828923" style="visibility: inherit;" fill="rgb(0, 0, 0)" stroke="rgb(204, 204, 204)" stroke-width="1px"></line><line x1="51.53200149536133" y1="80.86363619024104" x2="46.53200149536133" y2="80.86363619024104" style="visibility: inherit;" fill="rgb(0, 0, 0)" stroke="rgb(204, 204, 204)" stroke-width="1px"></line><line x1="51.53200149536133" y1="64.69090895219284" x2="46.53200149536133" y2="64.69090895219284" style="visibility: inherit;" fill="rgb(0, 0, 0)" stroke="rgb(204, 204, 204)" stroke-width="1px"></line><line x1="51.53200149536133" y1="48.51818171414464" x2="46.53200149536133" y2="48.51818171414464" style="visibility: inherit;" fill="rgb(0, 0, 0)" stroke="rgb(204, 204, 204)" stroke-width="1px"></line><line x1="51.53200149536133" y1="32.34545447609642" x2="46.53200149536133" y2="32.34545447609642" style="visibility: inherit;" fill="rgb(0, 0, 0)" stroke="rgb(204, 204, 204)" stroke-width="1px"></line><line x1="51.53200149536133" y1="16.17272723804821" x2="46.53200149536133" y2="16.17272723804821" style="visibility: inherit;" fill="rgb(0, 0, 0)" stroke="rgb(204, 204, 204)" stroke-width="1px"></line><line x1="51.53200149536133" y1="0" x2="46.53200149536133" y2="0" style="visibility: inherit;" fill="rgb(0, 0, 0)" stroke="rgb(204, 204, 204)" stroke-width="1px"></line></g><g transform="translate(41.53200149536133, 0)"><text style="text-anchor: end; visibility: hidden; font-family: Roboto, sans-serif; font-size: 12px; font-weight: 200;" x="0" y="177.89999961853027" dx="0em" dy="0.3em" fill="rgb(50, 49, 63)" stroke="none" stroke-width="1px">-0.2</text><text style="text-anchor: end; visibility: inherit; font-family: Roboto, sans-serif; font-size: 12px; font-weight: 200;" x="0" y="161.72727238048205" dx="0em" dy="0.3em" fill="rgb(50, 49, 63)" stroke="none" stroke-width="1px">0</text><text style="text-anchor: end; visibility: hidden; font-family: Roboto, sans-serif; font-size: 12px; font-weight: 200;" x="0" y="145.55454514243385" dx="0em" dy="0.3em" fill="rgb(50, 49, 63)" stroke="none" stroke-width="1px">0.2</text><text style="text-anchor: end; visibility: inherit; font-family: Roboto, sans-serif; font-size: 12px; font-weight: 200;" x="0" y="129.38181790438566" dx="0em" dy="0.3em" fill="rgb(50, 49, 63)" stroke="none" stroke-width="1px">0.4</text><text style="text-anchor: end; visibility: hidden; font-family: Roboto, sans-serif; font-size: 12px; font-weight: 200;" x="0" y="113.20909066633745" dx="0em" dy="0.3em" fill="rgb(50, 49, 63)" stroke="none" stroke-width="1px">0.6</text><text style="text-anchor: end; visibility: inherit; font-family: Roboto, sans-serif; font-size: 12px; font-weight: 200;" x="0" y="97.03636342828923" dx="0em" dy="0.3em" fill="rgb(50, 49, 63)" stroke="none" stroke-width="1px">0.8</text><text style="text-anchor: end; visibility: hidden; font-family: Roboto, sans-serif; font-size: 12px; font-weight: 200;" x="0" y="80.86363619024104" dx="0em" dy="0.3em" fill="rgb(50, 49, 63)" stroke="none" stroke-width="1px">1</text><text style="text-anchor: end; visibility: inherit; font-family: Roboto, sans-serif; font-size: 12px; font-weight: 200;" x="0" y="64.69090895219284" dx="0em" dy="0.3em" fill="rgb(50, 49, 63)" stroke="none" stroke-width="1px">1.2</text><text style="text-anchor: end; visibility: hidden; font-family: Roboto, sans-serif; font-size: 12px; font-weight: 200;" x="0" y="48.51818171414464" dx="0em" dy="0.3em" fill="rgb(50, 49, 63)" stroke="none" stroke-width="1px">1.4</text><text style="text-anchor: end; visibility: inherit; font-family: Roboto, sans-serif; font-size: 12px; font-weight: 200;" x="0" y="32.34545447609642" dx="0em" dy="0.3em" fill="rgb(50, 49, 63)" stroke="none" stroke-width="1px">1.6</text><text style="text-anchor: end; visibility: hidden; font-family: Roboto, sans-serif; font-size: 12px; font-weight: 200;" x="0" y="16.17272723804821" dx="0em" dy="0.3em" fill="rgb(50, 49, 63)" stroke="none" stroke-width="1px">1.8</text><text style="text-anchor: end; visibility: hidden; font-family: Roboto, sans-serif; font-size: 12px; font-weight: 200;" x="0" y="0" dx="0em" dy="0.3em" fill="rgb(50, 49, 63)" stroke="none" stroke-width="1px">2</text></g><line x1="51.53200149536133" y1="0" x2="51.53200149536133" y2="177.89999961853027" fill="rgb(0, 0, 0)" stroke="rgb(204, 204, 204)" stroke-width="1px"></line></g></g><g transform="translate(51, 0)" clip-path="url(#clip_0)"><clipPath id="clip_0"><rect width="278" height="177"></rect></clipPath><g><g><g><line x1="0" y1="0" x2="0" y2="177.89999961853027" fill="rgb(0, 0, 0)" stroke="rgb(60, 60, 60)" stroke-width="1px" opacity="0.25"></line><line x1="19.890571321759904" y1="0" x2="19.890571321759904" y2="177.89999961853027" fill="rgb(0, 0, 0)" stroke="rgb(60, 60, 60)" stroke-width="1px" opacity="0.25"></line><line x1="39.78114264351981" y1="0" x2="39.78114264351981" y2="177.89999961853027" fill="rgb(0, 0, 0)" stroke="rgb(60, 60, 60)" stroke-width="1px" opacity="0.25"></line><line x1="59.671713965279714" y1="0" x2="59.671713965279714" y2="177.89999961853027" fill="rgb(0, 0, 0)" stroke="rgb(60, 60, 60)" stroke-width="1px" opacity="0.25"></line><line x1="79.56228528703961" y1="0" x2="79.56228528703961" y2="177.89999961853027" fill="rgb(0, 0, 0)" stroke="rgb(60, 60, 60)" stroke-width="1px" opacity="0.25"></line><line x1="99.45285660879952" y1="0" x2="99.45285660879952" y2="177.89999961853027" fill="rgb(0, 0, 0)" stroke="rgb(60, 60, 60)" stroke-width="1px" opacity="0.25"></line><line x1="119.34342793055943" y1="0" x2="119.34342793055943" y2="177.89999961853027" fill="rgb(0, 0, 0)" stroke="rgb(60, 60, 60)" stroke-width="1px" opacity="0.25"></line><line x1="139.23399925231934" y1="0" x2="139.23399925231934" y2="177.89999961853027" fill="rgb(0, 0, 0)" stroke="rgb(60, 60, 60)" stroke-width="1px" opacity="0.25"></line><line x1="159.12457057407923" y1="0" x2="159.12457057407923" y2="177.89999961853027" fill="rgb(0, 0, 0)" stroke="rgb(60, 60, 60)" stroke-width="1px" opacity="0.25"></line><line x1="179.01514189583915" y1="0" x2="179.01514189583915" y2="177.89999961853027" fill="rgb(0, 0, 0)" stroke="rgb(60, 60, 60)" stroke-width="1px" opacity="0.25"></line><line x1="198.90571321759904" y1="0" x2="198.90571321759904" y2="177.89999961853027" fill="rgb(0, 0, 0)" stroke="rgb(60, 60, 60)" stroke-width="1px" opacity="0.25"></line><line x1="218.79628453935896" y1="0" x2="218.79628453935896" y2="177.89999961853027" fill="rgb(0, 0, 0)" stroke="rgb(60, 60, 60)" stroke-width="1px" opacity="0.25"></line><line x1="238.68685586111886" y1="0" x2="238.68685586111886" y2="177.89999961853027" fill="rgb(0, 0, 0)" stroke="rgb(60, 60, 60)" stroke-width="1px" opacity="0.25"></line><line x1="258.57742718287875" y1="0" x2="258.57742718287875" y2="177.89999961853027" fill="rgb(0, 0, 0)" stroke="rgb(60, 60, 60)" stroke-width="1px" opacity="0.25"></line><line x1="278.4679985046387" y1="0" x2="278.4679985046387" y2="177.89999961853027" fill="rgb(0, 0, 0)" stroke="rgb(60, 60, 60)" stroke-width="1px" opacity="0.25"></line></g><g><line x1="0" y1="177.89999961853027" x2="278.4679985046387" y2="177.89999961853027" fill="rgb(0, 0, 0)" stroke="rgb(60, 60, 60)" stroke-width="1px" opacity="0.25"></line><line x1="0" y1="161.72727238048205" x2="278.4679985046387" y2="161.72727238048205" fill="rgb(0, 0, 0)" stroke="rgb(60, 60, 60)" stroke-width="1px" opacity="0.25"></line><line x1="0" y1="145.55454514243385" x2="278.4679985046387" y2="145.55454514243385" fill="rgb(0, 0, 0)" stroke="rgb(60, 60, 60)" stroke-width="1px" opacity="0.25"></line><line x1="0" y1="129.38181790438566" x2="278.4679985046387" y2="129.38181790438566" fill="rgb(0, 0, 0)" stroke="rgb(60, 60, 60)" stroke-width="1px" opacity="0.25"></line><line x1="0" y1="113.20909066633745" x2="278.4679985046387" y2="113.20909066633745" fill="rgb(0, 0, 0)" stroke="rgb(60, 60, 60)" stroke-width="1px" opacity="0.25"></line><line x1="0" y1="97.03636342828923" x2="278.4679985046387" y2="97.03636342828923" fill="rgb(0, 0, 0)" stroke="rgb(60, 60, 60)" stroke-width="1px" opacity="0.25"></line><line x1="0" y1="80.86363619024104" x2="278.4679985046387" y2="80.86363619024104" fill="rgb(0, 0, 0)" stroke="rgb(60, 60, 60)" stroke-width="1px" opacity="0.25"></line><line x1="0" y1="64.69090895219284" x2="278.4679985046387" y2="64.69090895219284" fill="rgb(0, 0, 0)" stroke="rgb(60, 60, 60)" stroke-width="1px" opacity="0.25"></line><line x1="0" y1="48.51818171414464" x2="278.4679985046387" y2="48.51818171414464" fill="rgb(0, 0, 0)" stroke="rgb(60, 60, 60)" stroke-width="1px" opacity="0.25"></line><line x1="0" y1="32.34545447609642" x2="278.4679985046387" y2="32.34545447609642" fill="rgb(0, 0, 0)" stroke="rgb(60, 60, 60)" stroke-width="1px" opacity="0.25"></line><line x1="0" y1="16.17272723804821" x2="278.4679985046387" y2="16.17272723804821" fill="rgb(0, 0, 0)" stroke="rgb(60, 60, 60)" stroke-width="1px" opacity="0.25"></line><line x1="0" y1="0" x2="278.4679985046387" y2="0" fill="rgb(0, 0, 0)" stroke="rgb(60, 60, 60)" stroke-width="1px" opacity="0.25"></line></g></g></g><g><g><line x1="0" y1="161.72727238048205" x2="278.4679985046387" y2="161.72727238048205" fill="rgb(0, 0, 0)" stroke="rgb(153, 153, 153)" stroke-width="1.5px"></line></g></g><g><g><line x1="19.890571321759904" y1="0" x2="19.890571321759904" y2="177.89999961853027" fill="rgb(0, 0, 0)" stroke="rgb(153, 153, 153)" stroke-width="1.5px"></line></g></g><g><g><g><g><g><path style="fill: none;" stroke="rgb(255, 112, 67)" stroke-width="2px" d="M23.17251558985029,-0.12396043539399654L23.470874159676686,15.242434151129787L23.868685586111887,18.456824353468672L24.067591299329482,13.098430894039357L24.266497012547084,12.836026199319363L24.365949869155884,15.938913926702268L24.564855582373482,12.385211444668245L24.76376129559108,26.162641718278934L25.161572722026282,31.468706520701726L25.26102557863508,32.416587946355726L25.360478435243877,44.50638064873196L25.45993129185268,47.380344545425885L25.55938414846148,27.430417693980985L26.156101288114275,30.669831629435357L26.355007001331874,38.93139156475347L26.454459857940673,45.805875063529356L26.553912714549476,39.39578900003977L26.65336557115827,48.347356671095405L26.95172414098467,47.491629682007975L27.05117699759347,51.11688652893369L27.150629854202272,59.380928311152346L27.250082710811068,67.04039588702508L27.747346993855068,70.03004081464688L28.244611276899064,69.53701395263255L28.542969846725462,65.35874441378571L28.64242270333426,69.73606854611617L29.239139842987058,71.98169497774339L30.034762695857456,70.14750051397513L30.333121265683857,67.14236100986963L30.432574122292657,47.299984745827594L31.12874411855425,52.17657292049609L31.42710268838065,53.34990173230618L31.62600840159825,59.839317182779276L32.322178397859844,55.80497533518767L32.42163125446864,64.6523388522197L32.71998982429504,70.3269304777083L32.81944268090384,76.35123830664892L33.51561267716544,66.83704204684763L33.714518390383034,66.65383644727808L33.91342410360064,69.99704135516562L34.01287696020944,67.13401908666282L34.11232981681824,62.623099773826254L34.808499813079834,65.87121242973058L35.30576409612383,69.22872503457985L35.50466980934143,70.17617987562988L35.60412266595023,68.75082420177046L35.703575522559035,70.83776188246252L36.001934092385426,76.00717137579748L36.30029266221183,80.15884416148315L36.49919837542942,73.19816385505312L36.59865123203822,73.95551434858909L36.89700980186463,79.51790348707016L37.49372694151742,85.18528827423668L37.59317979812622,77.75969783766013L37.792085511343814,77.81828960939632L38.09044408117022,77.09308082650935L38.28934979438782,81.93499539847095L38.38880265099662,84.55990273736865L38.587708364214215,82.03228094413286L38.786614077431814,71.09933217113307L38.88606693404062,72.47140990128428L39.582236930302216,77.97788335747441L40.3778597831726,83.4961638359951L40.4773126397814,82.57437989573083L40.57676549639021,88.03607921152928L40.9745769228254,81.06005913132891L41.9691054889134,75.5709518826388L42.0685583455222,80.51269578003021L42.2674640587398,85.62376993895877L42.466369771957396,87.40314477109804L42.665275485174995,91.00266297896724L42.96363405500139,85.11304214320289L43.06308691161019,77.10246343120252L43.16253976821899,83.31226703314735L43.460898338045396,79.21217113247002L44.45542690413339,73.97678709677531L44.65433261735099,76.6452167464982L45.251049757003784,50.776879369536104L45.54940832683018,61.34165175127329L45.64886118343898,68.24479217346403L45.74831404004778,75.2375203053936L45.84776689665658,77.86691277319014L46.046672609874186,74.94526805462478L46.444484036309376,77.69344887532719L46.64338974952698,87.83906359252404L46.84229546274457,71.65084795711668L47.04120117596217,76.26322109182918L47.53846545900617,82.1747245665958L48.135182598658965,85.35541650477353L48.83135259492057,89.69745019715678L48.930805451529366,81.66625036860418L49.42806973457336,84.14855186268439L49.52752259118216,87.59254319588904L49.82588116100857,91.9623897738794L49.92533401761737,92.60753526108265L50.02478687422616,98.10434425291301L50.42259830066136,96.69804562376862L50.52205115727016,90.57548374743918L50.720956870487754,87.68502159280865L51.01931544031416,81.1667942198802L51.417126866749356,80.0575045190647L51.516579723358156,80.17713797063503L51.616032579966955,89.06719490592364L51.715485436575754,88.98057702514734L51.914391149793346,88.27850322864012L52.21274971961975,84.22093017679832L52.31220257622855,90.42665078842322L52.41165543283735,96.1225559499929L52.71001400266375,94.016745677188L53.008372572490146,63.818015447713606L53.60508971214295,68.64663807396289L53.80399542536055,73.48817316102183L54.10235399518694,82.29900472721563L54.201806851795745,78.79675704921348L54.40071256501334,86.04603369675982L54.500165421622135,90.36575518454983L54.99742970466614,89.87946714344241L55.09688256127494,83.71239176952967L55.494693987710136,78.1924802934798L55.693599700927734,76.50013354000679L55.99195827075413,82.80625629766502L56.38976969718934,87.41196857716811L56.78758112362453,93.94114342975871L56.98648683684213,91.23177720533285L57.38429826327733,93.73916968505864L57.48375111988613,88.8982960796302L57.58320397649493,88.5697706928773L57.78210968971252,87.3371052675255L57.88156254632132,85.61048976356042L58.279373972756524,93.02369526985929L58.378826829365316,90.95781336726223L58.77663825580052,94.1269705561057L58.87609111240932,85.63103603992906L58.97554396901812,80.54343120889298L59.97007253510611,82.43913665901843L60.46733681815011,85.1992293406547L61.163506814411704,85.46319322536472L61.26295967102051,86.102918239311L61.76022395406451,88.58928290114112L61.85967681067331,90.7411490773146L62.058582523890905,91.84655038792366L62.2574882371085,93.09185147976346L62.6552996635437,92.45608655474938L63.550375373022895,95.58449897752897L63.749281086240494,90.40961480066468L63.84873394284929,83.49965697386718L64.14709251267568,80.2113993478295L64.7438096523285,85.16541701544438L65.43997964859008,87.97342644602539L65.53943250519889,89.71779386185419L65.63888536180768,87.28578904618985L65.73833821841649,85.52636937317449L65.93724393163409,94.17465698425596L66.03669678824289,93.71610532104715L66.33505535806928,94.04287312424171L66.43450821467809,92.77504754939483L66.93177249772208,93.64641839231355L67.03122535433089,92.23023905807656L68.12520677702767,96.48140584348427L68.42356534685408,99.98099523540859L68.52301820346288,91.74775370123272L68.72192391668047,90.18892465869148L68.92082962989807,90.85588940698163L69.21918819972447,80.66866799722891L70.31316962242127,84.95972131337162L70.71098104885647,86.43726135859112L70.81043390546526,87.91194183534013L71.00933961868286,88.0739598849491L71.20824533190046,83.32848210717559L71.30769818850926,93.12242753331202L71.50660390172686,90.78984893186188L72.00386818477085,95.09694626022446L72.10332104137966,94.04377888582913L72.70003818103245,96.97483179239167L72.89894389425005,95.08246892795296L72.99839675085884,85.97124719874813L73.09784960746765,86.64430685047448L73.19730246407644,86.38505104624208L73.29675532068525,89.07649713130539L73.39620817729404,75.92954210049193L73.59511389051166,78.96831994243863L73.79401960372925,83.01483807772902L74.29128388677324,86.2300519010083L74.39073674338204,89.04771730305244L74.49018959999086,87.62852727915907L74.68909531320845,90.57740581936672L75.08690673964364,91.64204412936529L75.28581245286124,90.93327464535915L75.48471816607884,88.3812413924313L75.88252959251405,85.40484583505182L75.98198244912284,91.54664487509127L76.08143530573163,95.50562471095711L76.47924673216683,88.99044959111067L76.87705815860204,88.4893705742535L76.97651101521083,87.68931940130895L77.27486958503724,88.16802786022899L77.47377529825482,87.46337056797286L77.57322815486363,91.98357741113276L77.67268101147242,92.17475311998619L77.77213386808124,88.70669178166423L77.87158672469003,90.97572759205032L77.97103958129884,57.30780255728423L78.16994529451642,73.70104020708379L78.26939815112523,79.67290462272535L78.76666243416922,82.66010301083463L78.86611529077801,86.21183247976556L79.16447386060443,94.94328611369842L79.26392671721322,94.5395792285669L79.56228528703961,90.75021086874618L79.76119100025721,92.81085386946475L80.15900242669242,96.37221881845687L80.35790813991002,84.00561102979803L80.55681385312762,80.83661375471398L80.7557195663452,85.33127748563562L81.05407813617163,86.01730248698036L81.45188956260681,88.4811009337388L81.55134241921562,91.02211221162504L81.75024813243321,83.35125428081645L82.0486067022596,84.67932380376016L82.44641812869482,84.55328024245077L82.9436824117388,87.78204185440703L83.63985240800041,91.52540009219835L83.7393052646092,92.09463993411931L83.9382109778268,97.08677835637081L84.03766383443559,99.42859023168101L84.1371166910444,96.19557203071L84.23656954765319,98.64955410925003L84.33602240426201,98.12426082717677L84.4354752608708,98.90502775056177L84.7338338306972,96.02193119234629L85.13164525713239,101.53023804284362L85.23109811374118,97.11039921175708L85.6289095401764,87.55610682418985L85.92726811000279,91.10800519190705L86.32507953643798,70.29425247516261L86.62343810626439,84.44595409999894L86.7228909628732,82.92104109506211L86.82234381948199,78.5764743166189L86.92179667609079,70.33737519041898L87.02124953269958,81.9767985483841L87.22015524591718,89.95675376770227L87.31960810252598,94.47927086169075L87.41906095913478,92.80829235413957L87.6179666723524,100.85791248772915L87.71741952896119,99.06304020182208L87.81687238556998,98.67007065697264L87.91632524217879,96.25080124850112L88.11523095539638,103.44688805375962L88.31413666861397,89.4543104260642L88.41358952522278,98.26843903680522L89.10975952148438,98.75062323427214L89.40811809131077,88.458793513011L89.50757094791958,91.15050456120744L89.60702380452837,97.02209925197317L89.80592951774598,98.0140361143608L90.10428808757237,104.99286946172919L90.30319380078997,100.15335897674686L90.50209951400757,92.55743781452887L90.89991094044277,90.19077222988601L91.29772236687796,93.66980936926603L91.59608093670435,97.87506914459009L91.69553379331316,99.70626830695521L91.79498664992195,92.48850341968074L91.89443950653077,94.81659795589968L91.99389236313957,94.03831690128206L92.49115664618355,90.9058121339153L93.08787378583636,92.3708540704198L93.28677949905396,91.64853090174724L93.38623235566276,97.71510153051202L93.48568521227155,90.94655641832487L93.78404378209795,93.98001471115202L94.08240235192434,94.79362438619236L94.18185520853315,93.54414619012078L94.48021377835956,94.0677128168092L94.57966663496835,96.697784122135L94.67911949157715,93.85427736375811L94.87802520479474,98.19571988513879L95.07693091801234,86.99343007094988L95.67364805766515,90.00337619160875L95.97200662749154,89.96281370575917L96.07145948410033,89.09882393567588L96.36981805392675,88.89932280547565L96.46927091053554,89.07313739388151L96.56872376714435,88.52292159340654L96.76762948036193,92.74234525818132L96.86708233697074,91.06125152809683L96.96653519357953,96.61266911226265L97.46379947662354,90.15238919193696L97.86161090305873,93.6459659561018L97.96106375966754,96.57924062059895L98.15996947288512,93.5525793593652L98.35887518610272,89.87511669843589L98.55778089932033,93.62680833915702L98.65723375592913,99.69444912724269L98.75668661253793,95.54045588602223L98.85613946914673,94.15118440790135L98.95559232575553,94.79283442132174L99.25395089558192,79.06783233693353L99.45285660879952,87.25687248877963L99.65176232201713,92.41302028491869L99.95012089184353,95.22081869610311L100.14902660506112,97.69759739795722L100.24847946166992,95.62559668611732L100.34793231827872,93.84042937972397L100.74574374471392,98.80421672269243L100.94464945793152,100.2206018599849L101.04410231454032,102.368115405868L101.24300802775791,100.83534074843983L101.54136659758431,100.31472469117341L101.93917802401951,101.60423935452089L102.23753659384592,97.52533065747113L102.53589516367231,97.16124341121944L102.6353480202811,98.20663048007998L102.83425373349871,97.76673480990605L103.03315944671631,75.64164663507337L103.23206515993391,84.36019200653162L103.7293294429779,45.47194122868805L104.0276880128043,64.85881398530493L104.12714086941311,75.5528197155994L104.2265937260219,78.37182333067179L104.5249522958483,84.55264236137617L105.1216694355011,87.73845400550817L105.3205751487187,87.79882619402964L105.4200280053275,77.86880623544447L105.5194808619363,87.90380863424124L105.71838657515389,92.31745813988871L106.1161980015891,95.51875050010283L106.3151037148067,95.02469322752918L106.41455657141549,100.57641217167064L106.81236799785069,101.79418683029364L106.91182085445949,97.46729032437378L107.01127371106828,99.57189071180251L107.11072656767708,91.91997904164539L107.4090851375035,96.45538061801051L107.50853799411229,96.43622740115548L107.6079908507211,99.05924335015581L107.80689656393868,105.91669402549566L108.10525513376508,97.2272682412422L108.30416084698268,96.62943497413872L108.40361370359149,104.71403346349454L108.60251941680909,105.05084652342595L108.70197227341788,103.21644241159242L109.00033084324427,102.64162611575999L109.29868941307069,82.8598131025609L109.39814226967948,88.44945746771093L110.09431226594107,94.72006976084562L110.19376512254988,93.70008339033669L110.29321797915867,100.23593625200037L110.39267083576746,104.17992966945742L110.59157654898507,100.25560430069162L110.69102940559388,95.21779181329424L110.88993511881147,91.02401035337165L110.98938797542027,92.35570786272437L111.08884083202906,96.05162871740502L111.38719940185547,100.45107643389355L111.48665225846426,98.09949909162566L111.58610511507307,101.9282232800388L111.68555797168187,104.05233655353564L111.88446368489947,101.88542704021461L112.48118082455225,94.37459638608458L112.58063368116107,95.52024927784218L112.87899225098747,91.05166997694137L113.57516224724905,94.30673433271691L113.87352081707546,100.53348424450046L114.56969081333705,99.1480250710343L114.66914366994585,97.37276106803692L114.76859652655466,98.01911730567409L114.96750223977226,89.27173951780685L115.06695509638105,93.87841427062621L115.16640795298986,88.88142418333322L115.46476652281625,90.00137986108898L115.56421937942504,96.36565196046405L115.76312509264264,103.76505597233832L115.96203080586025,105.3376347473137L116.06148366246904,98.61727809767838L116.45929508890424,103.55904906381893L116.55874794551305,108.34855532885072L116.95655937194823,109.57983600999363L117.05601222855705,101.80727670206964L117.15546508516584,96.23789689792581L117.25491794177465,97.82855667512877L117.55327651160104,100.11557504932964L117.65272936820983,93.56685507235242L117.75218222481864,96.7618177384458L118.05054079464504,99.48963263553667L118.14999365125384,96.28925676526082L118.94561650412423,99.15317411717788L119.34342793055943,95.01402457079901L119.54233364377703,98.40856349842429L119.74123935699463,84.94654021352225L119.84069221360343,95.9224102544184L120.13905078342982,99.05952939063981L120.23850364003863,104.33088106768494L120.43740935325623,103.83594582202265L120.53686220986503,109.14144332278102L120.63631506647383,103.58846600216359L120.73576792308262,98.0599836159215L121.03412649290902,93.7328930427998L121.82974934577942,90.66918474657629L122.02865505899702,96.64284073834824L122.22756077221462,98.81840281767786L122.42646648543223,99.75975476057343L122.52591934204102,102.52094188225456L122.62537219864981,105.18411367210126L122.82427791186741,103.51721151953141L123.02318362508501,97.01162355868549L123.1226364816938,101.70107128668673L123.22208933830261,95.27916830418694L123.52044790812901,95.21863405023981L123.71935362134661,94.82950638537075L124.4155236176082,94.12790491121399L124.514976474217,98.41060892959469L124.81333504404341,103.992495795031L125.01224075726101,104.29929146230685L125.6089578969138,101.24526559583393L125.7084107535226,104.97161390726349L125.9073164667402,103.9995150129776L126.1062221799578,100.24914491930066L126.504033606393,100.2942483769108L126.9018450328282,96.77012140603306L127.10075074604579,101.96162720259922L127.29965645926339,98.90446235906408L127.5980150290898,104.2107320939027L127.69746788569859,105.45742581795975L127.79692074230738,107.45904603913363L127.8963735989162,106.48215236134526L128.49309073856898,100.94447609289205L128.5925435951778,78.38885752667817L129.18926073483058,85.76799075935331L129.38816644804817,89.88687316309961L129.58707216126578,91.72150449942673L129.68652501787457,91.60682166607226L129.7859778744834,91.4000100692372L130.68105358396258,90.16279263943245L130.87995929718016,92.49302679419887L131.17831786700657,104.22433982680693L131.57612929344177,105.85502070560456L131.77503500665938,108.325170357002L131.87448786326817,102.33506859167373L132.27229928970337,100.51529587630655L132.37175214631216,96.06245369536269L132.57065785952977,95.47671896940362L132.67011071613857,83.67353254966416L132.7695635727474,88.61910680235431L133.06792214257376,49.54434700156591L133.16737499918256,75.63608172000656L134.16190356527056,89.90602731860655L134.36080927848815,95.93962949814407L134.46026213509697,98.32990432869256L134.75862070492335,95.13339417901982L134.85807356153214,99.76162483805847L134.95752641814096,98.14588843916698L135.25588498796736,100.30696121268653L135.35533784457616,97.23927464642723L135.45479070118495,98.55092833098108L136.94658355031694,95.39090048981113L137.24494212014335,96.29229675329488L137.44384783336093,96.7979746819307L137.54330068996975,97.81661029752328L137.74220640318734,96.28265841023153L137.84165925979613,100.38854848402262L138.14001782962254,102.51713777363467L138.43837639944894,101.60751460135302L138.53782925605773,91.01218345633232L138.63728211266653,89.83712372572187L138.73673496927535,88.82625887236631L138.93564068249293,95.17459213415694L139.13454639571054,97.93740352874066L139.33345210892813,83.69877950010283L139.53235782214574,88.64550835445253L139.63181067875453,96.34594457762415L139.83071639197212,101.10006121086329L140.02962210518973,102.00326885773542L140.22852781840731,108.69946495943229L140.3279806750161,108.52965599373952L140.42743353162496,104.25099803316306L140.52688638823375,96.68737883963156L140.62633924484254,100.00440716169295L141.62086781093052,101.80115158787305L142.01867923736572,103.63437207684925L142.41649066380091,102.32906317967041L142.51594352040973,101.4745595098843L142.61539637701853,106.199812035788L142.81430209023614,104.08815658059082L143.11266066006252,84.00025717256342L143.41101922988892,92.33041118398953L143.6099249431065,97.11737688339727L143.80883065632412,100.41152631085713L143.9082835129329,97.46589240376065L144.1071892261505,99.02274601564744L144.5050006525857,97.61326285210457L144.60445350919449,89.75382608970085L144.70390636580333,94.56993075374572L144.90281207902092,98.65118537055112L145.0022649356297,97.847834178424L145.30062350545612,87.26624776367032L145.4000763620649,98.72742973262109L145.4995292186737,96.84547200560843L145.59898207528252,97.9945336290479L145.7978877885001,103.20017039786359L146.2951520715441,104.30021676930862L146.5935106413705,102.47819237099783L147.09077492441452,106.58902000707498L147.2896806376321,108.40906503775975L147.6874920640673,74.30360416289606L147.88639777728488,79.19724498439881L148.28420920372008,89.1556901216339L148.38366206032887,78.09344172013469L148.4831149169377,80.647813318608L148.5825677735465,81.76580979076243L148.78147348676407,87.31467782407073L149.0798320565905,95.88079660823661L149.1792849131993,97.26629188567088L149.3781906264169,99.35509904394182L149.4776434830257,105.08193133198833L149.5770963396345,98.9760189137606L150.17381347928728,88.15582573584021L150.3727191925049,94.00594552386396L150.47217204911368,96.72641827883814L150.67107776233127,102.51775096677657L150.77053061894009,103.96287582519749L151.06888918876646,99.28848630849224L151.16834204537525,87.56852905236317L151.66560632841927,94.64310936304636L151.7650591850281,97.66383586370632L151.86451204163689,99.25938822983248L152.16287061146326,100.7270625400636L152.36177632468087,104.01366406898187L152.46122918128967,104.12126717315753L152.56068203789846,109.24447383865676L152.66013489450728,109.4041825937565L152.75958775111607,97.45776143881685L152.85904060772486,91.17153611939192L153.45575774737767,98.3656190449465L153.95302203042166,96.8866099302012L154.05247488703048,98.94353990161494L154.15192774363928,101.32229810975494L154.64919202668327,98.22828854328237L155.04700345311846,104.6419886797107L155.24590916633605,103.69761765736676L155.34536202294484,37.12249187092017L155.74317344938007,68.92294838507361L156.14098487581526,84.82085575258833L156.83715487207684,90.97363167185401L157.03606058529445,89.84342650469667L157.33441915512083,100.15193941043394L157.53332486833844,98.31375606984165L157.63277772494723,100.27171579819525L157.83168343816487,94.13020482042707L157.93113629477367,97.52956140676415L158.03058915138246,101.29576841145612L158.22949486460004,96.77750573818585L158.32894772120886,96.56180673977195L158.62730629103524,97.09585681209933L160.31800485338485,93.99557688763154L160.41745770999364,95.76316416071383L160.51691056660243,101.7622989061458L160.61636342321123,99.29259205808462L161.01417484964642,99.24047762561237L161.31253341947283,100.34938071479321L161.41198627608162,101.70032285517935L161.71034484590803,92.12449483461972L161.80979770251682,98.90497790228699L161.9092505591256,103.61693342152547L162.30706198556084,104.99985075450346L162.40651484216963,104.81869773731005L162.50596769877842,107.68880135473476L162.70487341199603,110.34508508349116L162.90377912521362,105.79989164540511L163.10268483843123,106.29261162429563L163.30159055164881,103.62519944816748L163.8983076913016,100.56184527890362L164.0972134045192,100.28751495734473L164.59447768756323,107.45047238453935L164.69393054417202,102.28941020812285L165.5890062536512,104.52749861648446L165.68845911026,95.59133879324715L166.78244053295683,100.93490965655253L167.180251959392,103.0311162982922L167.27970481600082,98.33111832798046L167.5780633858272,95.24727719340535L167.67751624243598,97.96032391946295L167.9758748122624,99.0283554929384L168.17478052548,100.51974270805053L168.2742333820888,84.59444191814264L168.3736862386976,90.56724721346511L169.0698562349592,98.6274088515152L169.169309091568,101.46444290059189L169.2687619481768,98.64879972364913L169.3682148047856,97.31961072141374L169.666573374612,104.59956349911569L169.86547908782958,105.71179896583976L169.96493194443838,100.42233406169768L170.0643848010472,105.80941712803255L170.163837657656,105.01246850223949L170.66110194069998,103.71245735166654L170.8600076539176,99.41051809512287L171.35727193696158,102.35093035088653L171.4567247935704,93.56081654181583L171.75508336339678,100.4898021554606L172.45125335965838,97.56617314459271L172.65015907287597,92.89200053177834L173.64468763896397,97.49164382975006L173.84359335218159,95.34530621341182L173.94304620879038,102.8172193509843L174.14195192200796,103.07849243981794L174.24140477861675,105.85748898255461L174.44031049183437,103.81073300756132L174.53976334844316,106.70681347635902L175.13648048809594,108.85309235326908L175.2359333447048,104.289027863499L175.83265048435757,96.43495255228204L175.93210334096636,98.69280426128158L176.82717905044555,101.34237910289703L177.22499047688075,106.98622759364962L177.42389619009836,103.35969788324486L177.82170761653356,110.58875970471526L178.41842475618634,106.90871652268584L178.61733046940395,108.35922732048046L178.71678332601275,104.33168299167586L178.91568903923033,102.37876796367058L179.21404760905673,96.18855432732812L179.41295332227432,99.54077490632066L179.51240617888317,106.25765575331059L179.91021760531834,105.13011856688324L180.00967046192716,107.90201263891841L180.20857617514474,106.32326127040777L180.30802903175353,111.11958268834873L180.40748188836235,109.65154774243608L180.50693474497115,109.58690060837259L180.80529331479752,109.44731966006815L180.90474617140634,111.23155343019013L181.00419902801514,103.94212270817435L181.40201045445033,105.94704381714563L181.60091616766792,101.1781234525336L181.7003690242767,101.9516116385456L181.79982188088553,103.68424235489731L181.99872759410314,101.62570133631752L182.19763330732073,105.15399617945693L182.39653902053834,107.03430503772636L182.69489759036472,107.82216664731108L182.99325616019112,109.77477369415524L183.09270901679992,105.94543875790475L183.1921618734087,106.75259128375966L183.4905204432351,104.80113968066074L183.68942615645273,89.09156259905477L183.78887901306155,92.67792227479907L184.08723758288792,97.61485465142196L184.18669043949674,103.98583251550863L184.48504900932312,100.7059081152596L184.78340757914953,98.77060891138257L184.88286043575832,99.6079235807091L184.9823132923671,95.11623233933753L185.0817661489759,96.19779238664776L185.7779361452375,98.87521748669172L185.9768418584551,95.31066936785234L186.07629471506394,97.45762044219123L186.17574757167273,100.46885408278179L186.4741061414991,101.92417334300937L186.57355899810793,101.39785446435491L186.7724647113255,100.65003121401428L187.1702761377607,106.5549866225901L187.2697289943695,109.76991135203545L187.3691818509783,112.06553711388342L187.6675404208047,105.23287164432409L188.0653518472399,103.4039568839029L188.1648047038487,101.18765903506618L188.3637104170663,102.15358757156665L188.46316327367512,95.13160576010385L188.5626161302839,98.34320791316948L188.6620689868927,103.94783685393465L188.86097470011032,99.99490578541064L189.1593332699367,99.6363727203248L189.2587861265455,93.8606613634807L189.3582389831543,101.75350785128568L189.4576918397631,103.33880479728901L189.8555032661983,97.73558306810547L189.9549561228071,101.66320982252502L190.4522204058511,99.19656945481177L190.6511261190687,82.71504643264663L190.7505789756775,91.63715613728105L190.8500318322863,96.78749477855936L191.2478432587215,104.95795496614383L191.54620182854788,108.89301283886019L191.7451075417655,106.08010234821562L192.04346611159187,101.23501223733962L192.14291896820066,93.893385399107L192.24237182480948,91.79290601734874L192.34182468141827,95.82291474078038L192.44127753802707,102.43191110851572L192.6401832512447,105.65698601250273L192.8390889644623,98.77625269991265L193.1374475342887,106.14165677960467L193.2369003908975,105.40929111815505L193.43580610411507,102.34668662982266L193.53525896072387,102.78378386902396L193.6347118173327,89.79907471936934L193.93307038715906,90.41263222393661L194.13197610037668,95.00936231687078L194.23142895698547,104.36836578791298L194.33088181359426,102.93133497578195L194.43033467020305,98.428149092552L195.12650466646468,102.35124245332848L195.22595752307348,87.58170820688827L195.52431609289988,94.79328335436882L196.02158037594387,80.67741434468505L196.41939180237907,92.86585919406853L196.61829751559665,98.64282116779187L197.01610894203188,97.09619416234224L197.11556179864067,96.32134261195347L197.31446751185825,99.03157808992862L197.71227893829345,96.72151120854124L197.81173179490227,98.45031154585796L197.91118465151106,99.76238865187582L198.11009036472865,102.36831599019418L198.20954322133744,103.2068900897332L198.30899607794626,107.77326885587911L198.70680750438143,105.00362005307515L199.10461893081663,99.19366495392367L199.30352464403427,102.21582124743883L199.40297750064306,103.88260513048806L199.60188321386065,100.91746915677064L200.19860035351346,107.43877173593778L200.29805321012225,108.38428886079505L200.59641177994862,106.24430961917021L200.89477034977503,100.61262610431301L201.29258177621026,90.95067381133154L201.49148748942784,92.63886952905067L201.88929891586304,96.74804209074648L202.28711034229823,106.16453035528373L202.38656319890703,106.80616327730951L202.48601605551582,99.23508690248059L202.88382748195102,92.24203598041126L202.98328033855984,104.0415371841852L203.2816389083862,101.55578237321232L203.381091764995,101.68391033939227L203.48054462160385,108.52026963355256L203.77890319143023,108.48396010057975L204.07726176125664,108.98767473031795L204.17671461786543,103.51741603513001L204.375620331083,105.8895135561162L204.57452604430063,107.78571100843558L204.67397890090942,97.75606072979274L204.7734317575182,105.67190449310634L205.4696017537798,102.08388290867792L205.66850746699743,102.45919607316713L205.76796032360622,108.7051765342663L206.36467746325903,105.83527888357555L206.46413031986782,105.6542149509558L206.5635831764766,108.0053418339747L206.6630360330854,103.27518033142306L206.76248888969423,99.74405864867717L206.9613946029118,106.00579856377252L207.25975317273821,109.17288536788367L207.95592316899982,108.70161784650448L208.0553760256086,102.29394062425283L208.15482888221743,96.59855109850788L209.0499045916966,98.83862012117066L209.348263161523,107.36242903806658L209.44771601813179,105.13987574022835L209.84552744456698,108.77728853260317L209.94498030117578,108.50288793763477L210.04443315778462,107.11210516164725L210.14388601439342,105.76313789625576L210.4422445842198,109.49530202212807L210.5416974408286,98.387621152036L210.6411502974374,101.44975956707609L210.7406031540462,101.04247396087065L211.1384145804814,103.71284031290404L211.2378674370902,110.7232287589497L211.33732029369898,106.21379567687974L211.63567886352538,104.94671209695395L211.83458457674297,102.94596216584507L212.03349028996058,107.12442821864009L212.2323960031782,103.72237574974801L212.331848859787,103.15917003217965L212.4313017163958,105.2089069135063L212.6302074296134,107.172663488643L212.72966028622218,105.62264422558182L213.22692456926617,103.08123206153377L213.52528313909258,96.22139299326666L213.72418885231016,99.51581739143994L214.02254742213657,99.77819658179612L214.320905991963,99.03330222176558L214.4203588485718,99.66192054002335L214.61926456178938,100.1527339144398L214.818170275007,99.80010717700065L215.41488741465977,104.17281610652144L215.51434027126857,100.81445639248395L215.71324598448618,98.38647403289002L215.91215169770376,105.0481407141475L216.40941598074775,103.49649278922246L216.80722740718298,105.87464415344336L216.90668026379177,96.43477244930165L217.00613312040056,102.70304327437587L217.10558597700938,109.96564484629435L218.29902025631495,107.25044277451599L218.49792596953256,106.09761315766133L218.69683168275017,102.38979119861368L218.89573739596776,96.51498062720134L219.29354882240295,100.75840768101294L219.39300167901175,99.57043681411133L219.49245453562057,102.5582412855816L219.59190739222936,107.42766642562846L219.69136024883815,105.61137206178056L219.79081310544694,107.35895917033255L219.89026596205574,99.53386222578851L220.08917167527335,100.57749668368001L220.18862453188214,99.43214789575798L220.28807738849093,104.93521440345677L220.48698310170855,103.32578118701998L220.98424738475256,109.85994596765764L221.28260595457894,110.32082712467539L221.48151166779655,104.99114540080548L221.58096452440535,103.632613616991L221.77987023762293,110.82430560539414L222.07822880744934,105.40907850734604L222.37658737727574,107.3097843653611L222.57549309049332,102.01542505081188L222.87385166031973,105.96357285646269L222.97330451692852,105.64740309166072L223.17221023014613,107.99905493962878L223.27166308675496,104.52996698561822L223.57002165658133,110.00230194539448L223.76892736979894,110.95590585232823L223.86838022640774,114.93856008593475L224.66400307927813,113.31299148672376L224.76345593588692,104.3518538071385L224.9623616491045,104.17053967543166L225.45962593214853,106.63035439766426L225.95689021519252,104.91682236003945L226.05634307180134,102.8891225081351L226.15579592841013,102.85845519284783L226.3547016416277,102.54729143348588L226.4541544982365,105.21490927520665L226.65306021145412,95.75894653401049L226.8519659246717,98.88315947038079L227.1503244944981,100.33682964537778L227.2497773511069,96.64243754963007L227.64758877754213,98.53356428523445L228.14485306058612,99.26753163364855L228.3437587738037,108.75607639205455L228.9404759134565,112.01386692368376L229.0399287700653,112.42865368980047L229.1393816266741,107.53805594619052L229.2388344832829,107.39977227831932L229.3382873398917,106.3196525797549L229.6366459097181,110.3390813776486L229.83555162293572,98.11173920505676L230.1339101927621,98.7271003645498L230.2333630493709,103.57331606471978L230.5317216191973,107.51172763132836L230.7306273324149,107.7044913461627L230.9295330456325,109.00576670947623L231.0289859022413,98.54101994074362L231.12843875885008,100.65945427333321L231.52625018528528,104.97382879011026L231.9240616117205,102.12014298785958L232.0235144683293,101.3928964278223L232.1229673249381,106.63875056628103L232.52077875137329,107.9878581125207L232.6202316079821,103.29891873331157L232.8191373211997,100.17741641948642L232.91859017780848,104.65407523066501L233.1174958910261,111.05792798944914L233.2169487476349,106.3937298484809L233.31640160424368,105.0258036364749L233.51530731746126,101.45427757715464L233.61476017407008,106.50384034882481L233.71421303067888,109.94366227370875L233.81366588728767,105.13635654210984L234.1120244571141,103.05296634239626L234.3109301703317,107.15133473834517L234.41038302694048,104.70830013276719L235.0071001665933,105.41622902945603L235.10655302320208,103.09103540956542L235.20600587981087,106.39544485477683L235.60381730624607,102.98288727903295L235.80272301946366,100.68715368087469L236.0016287326813,104.43563569562895L236.3994401591165,110.11796647795272L237.09561015537807,103.30412350786156L237.39396872520447,97.14202593591025L237.59287443842206,99.52444693386185L237.79178015163967,94.85621303822289L237.89123300824846,93.82241802947338L238.09013872146605,96.62942719312258L238.2890444346837,95.6846946289062L238.48795014790127,89.10530639652082L238.58740300451007,96.08245924166333L238.68685586111886,102.57349251822423L238.98521443094526,105.505465388464L239.08466728755405,107.52848567917795L239.38302585738046,106.9044839090459L239.48247871398925,105.81546514532131L239.78083728381566,98.72632636745948L240.07919585364203,100.25160601627337L240.47700728007726,94.26756774447054L241.07372441973007,97.30658586048814L241.17317727633886,104.14823770867642L241.47153584616524,106.24716939202867L241.57098870277406,110.43187749583677L241.76989441599164,112.5564551380435L241.96880012920923,111.09946979207685L242.06825298581805,104.4385899104043L242.26715869903563,106.69145416534909L242.36661155564443,100.72137006912925L242.56551726886207,102.48395107785637L242.66497012547086,108.2643610778179L242.76442298207965,106.7576560488015L242.86387583868844,68.4123572983139L243.06278155190606,78.06062974392589L243.26168726512364,88.5272367171098L243.36114012173243,93.20145879672518L243.75895154816763,105.38818730527493L243.85840440477642,101.61107794256888L244.05731011799404,102.74831350640221L244.3556686878204,104.82208528578575L244.55457440103802,106.33459604715961L244.85293297086446,97.38606217199334L245.44965011051724,97.70922511610068L246.04636725017002,97.74171773028688L246.44417867660522,100.24880834553335L246.74253724643162,98.4141956990663L247.23980152947564,98.66014578346402L247.43870724269323,97.26772031663971L247.73706581251963,103.63990090277389L248.3337829521724,108.56911766544987L248.4332358087812,106.05131739393386L248.63214152199882,109.1003544722009L248.9305000918252,104.15447160667557L249.22885866165163,105.65840577803489L249.32831151826042,104.67499484560193L249.4277643748692,100.10432617975931L250.3228400843484,106.92307735291949L250.4222929409572,110.36279638573498L250.521745797566,104.80581911851633L250.6211986541748,99.78439665865852L250.8201043673924,102.66038372192628L251.01901008061,100.74315774218441L251.31736865043638,98.46175413516372L251.4168215070452,104.04126120541495L251.8146329334804,103.61869308908315L252.013538646698,100.55099317012882L252.1129915033068,103.12443657193295L252.2124443599156,104.44627290299972L252.3118972165244,100.94090673446023L253.10752006939478,103.5426340158618L254.002595778874,95.37150593810657L254.20150149209158,97.6887305076624L254.49986006191799,100.67690280246187L254.99712434496197,106.60079791331118L255.29548291478838,104.59217402459875L255.39493577139717,96.37464479928533L255.6932943412236,100.23941730788187L255.7927471978324,105.2180736163893L256.09110576765875,106.83411309828229L256.38946433748515,97.44770274316409L256.58837005070274,90.5065659439149L256.7872757639204,95.69934559155642L257.0856343337468,94.59223631082777L257.3839929035732,101.6839433994357L257.48344576018195,101.18328887469964L257.58289861679077,102.93398839215212L257.78180433000836,102.9424995654325L258.57742718287875,100.81849418853707L258.77633289609633,102.78822289550484L258.975238609314,103.18891694372117L259.17414432253156,102.75675631590791L259.67140860557555,104.36687473724248L260.16867288861954,100.75641113414203L260.56648431505477,106.77581631352858L260.96429574148993,103.81955238146999L261.06374859809875,104.86063748985016L261.1632014547076,103.41756591797409L261.56101288114274,102.2880830560894L261.66046573775157,94.79545557778651L261.75991859436033,100.03622330985574L261.85937145096915,101.25355628740643L262.15773002079555,100.0506705740447L262.35663573401314,97.98936448894568L262.65499430383954,94.92669312598501L262.95335287366595,99.1228675419624L263.15225858688353,100.20701049241474L263.55007001331876,103.85397282196858L263.6495228699275,107.76661097169816L263.74897572653634,107.43043677238725L263.84842858314516,105.14152586108668L264.04733429636275,103.02222874276494L264.14678715297157,108.91977189412219" fill="none"></path></g></g></g></g><g opacity="0.2"><g><g><g><path style="fill: none;" stroke="rgb(255, 112, 67)" stroke-width="2px" d="M21.879628453935894,-15.729092976047555L22.277439880371094,4.879595150021032L23.17251558985029,27.437275697655597L23.470874159676686,38.20840279015558L23.868685586111887,23.26791411525682L24.067591299329482,5.071338355503995L24.266497012547084,12.442727604107771L24.365949869155884,20.591057120949277L24.564855582373482,7.0561615294092395L24.76376129559108,46.82528904064095L25.161572722026282,39.42699539876873L25.26102557863508,33.83832344471992L25.360478435243877,62.64040666933191L25.45993129185268,51.69119582146056L25.55938414846148,-2.494078706681844L26.156101288114275,35.52891415867056L26.355007001331874,51.32367274809855L26.454459857940673,56.11757099516128L26.553912714549476,29.780676306458805L26.65336557115827,61.77469443491389L26.95172414098467,46.20803998662229L27.05117699759347,56.55476979569792L27.150629854202272,71.77698824403417L27.250082710811068,78.52959572685657L27.747346993855068,74.51450784917598L28.244611276899064,68.79747369492551L28.542969846725462,59.09134028508396L28.64242270333426,76.30205463173795L29.239139842987058,75.3501345904407L30.034762695857456,67.39620883534951L30.333121265683857,62.634651770449345L30.432574122292657,17.536420416075263L31.12874411855425,59.49145517272066L31.42710268838065,55.10989494860972L31.62600840159825,69.57344035380454L32.322178397859844,49.7534625655476L32.42163125446864,77.92338412546863L32.71998982429504,78.8388179150564L32.81944268090384,85.38770004949626L33.51561267716544,52.5657476576798L33.714518390383034,66.37902804792992L33.91342410360064,75.01184871692938L34.01287696020944,62.83948568394325L34.11232981681824,55.85672080460429L34.808499813079834,70.74338141357286L35.30576409612383,74.26499394184496L35.50466980934143,71.59736213720346L35.60412266595023,66.61279069098266L35.703575522559035,73.9681684034994L36.001934092385426,83.76128561579813L36.30029266221183,86.3863533400108L36.49919837542942,62.75714339540898L36.59865123203822,75.09154008889297L36.89700980186463,87.86148719479147L37.49372694151742,93.68636545498637L37.59317979812622,66.62131218279539L37.792085511343814,77.90617726700063L38.09044408117022,76.00526765217886L38.28934979438782,89.19786725641333L38.38880265099662,88.49726374571519L38.587708364214215,78.24084825427919L38.786614077431814,54.6999090116334L38.88606693404062,74.52952649651108L39.582236930302216,86.23759354175967L40.3778597831726,91.77358455377617L40.4773126397814,81.1917039853344L40.57676549639021,96.22862818522694L40.9745769228254,70.59602901102836L41.9691054889134,67.3372910096036L42.0685583455222,87.92531162611733L42.2674640587398,93.29038117735163L42.466369771957396,90.07220701930692L42.665275485174995,96.40194029077108L42.96363405500139,76.27861088955632L43.06308691161019,65.08659536320198L43.16253976821899,92.62697243606459L43.460898338045396,73.06202728145402L44.45542690413339,66.12371104323323L44.65433261735099,80.6478612210826L45.251049757003784,11.974373304092923L45.54940832683018,77.18881032387903L45.64886118343898,78.59950280675011L45.74831404004778,85.72661250328794L45.84776689665658,81.81100147488497L46.046672609874186,70.5628009767767L46.444484036309376,81.81572010638082L46.64338974952698,103.05748566831933L46.84229546274457,47.36852450400567L47.04120117596217,83.18178079389793L47.53846545900617,91.04197977874574L48.135182598658965,90.12645441204009L48.83135259492057,96.21050073573166L48.930805451529366,69.6194506257753L49.42806973457336,87.87200410380468L49.52752259118216,92.75853019569603L49.82588116100857,98.51715964086495L49.92533401761737,93.57525349188751L50.02478687422616,106.34955774065858L50.42259830066136,94.58859768005203L50.52205115727016,81.39164093294498L50.720956870487754,83.34932836086286L51.01931544031416,71.38945316048752L51.417126866749356,78.39356996784143L51.516579723358156,80.35658814799056L51.616032579966955,102.40228030885652L51.715485436575754,88.8506502039829L51.914391149793346,87.22539253387926L52.21274971961975,78.13457059903561L52.31220257622855,99.73523170586057L52.41165543283735,104.66641369234745L52.71001400266375,90.85803026798064L53.008372572490146,18.51992010350202L53.60508971214295,75.88957201333685L53.80399542536055,80.75047579161027L54.10235399518694,95.51525207650633L54.201806851795745,73.54338553221025L54.40071256501334,96.91994866807931L54.500165421622135,96.84533741623486L54.99742970466614,89.15003508178127L55.09688256127494,74.46177870866057L55.494693987710136,69.91261307940498L55.693599700927734,73.96161340979731L55.99195827075413,92.26544043415237L56.38976969718934,94.32053699642273L56.78758112362453,103.73490570864462L56.98648683684213,87.16772786869404L57.38429826327733,97.50025840464735L57.48375111988613,81.63698567148754L57.58320397649493,88.07698261274793L57.78210968971252,85.48810712949779L57.88156254632132,83.02056650761281L58.279373972756524,104.14350352930757L58.378826829365316,87.8589905133667L58.77663825580052,98.8807063393709L58.87609111240932,72.88713426566409L58.97554396901812,72.91202396233882L59.97007253510611,85.28269483420662L60.46733681815011,89.33936836310906L61.163506814411704,85.85913905242975L61.26295967102051,87.06250576023045L61.76022395406451,92.31882989388629L61.85967681067331,93.96894834157479L62.058582523890905,93.50465235383726L62.2574882371085,94.95980311752317L62.6552996635437,91.50243916722823L63.550375373022895,100.27711761169837L63.749281086240494,82.64728853536823L63.84873394284929,73.13472023367096L64.14709251267568,75.27901290877296L64.7438096523285,92.59644351686674L65.43997964859008,92.18544059189692L65.53943250519889,92.33434498559737L65.63888536180768,83.63778182269331L65.73833821841649,82.88723986365147L65.93724393163409,107.14708840087818L66.03669678824289,93.02827782623396L66.33505535806928,94.53302482903351L66.43450821467809,90.8733091871245L66.93177249772208,94.95347465669165L67.03122535433089,90.10597005672103L68.12520677702767,102.85815602159585L68.42356534685408,105.23037932329504L68.52301820346288,79.39789139996896L68.72192391668047,87.85068109487963L68.92082962989807,91.85633652941684L69.21918819972447,65.38783588259983L70.31316962242127,91.39630128758566L70.71098104885647,88.65357142642036L70.81043390546526,90.12396255046363L71.00933961868286,88.31698695936258L71.20824533190046,76.21026544051534L71.30769818850926,107.81334567251665L71.50660390172686,87.29098102968672L72.00386818477085,101.5575922527683L72.10332104137966,92.46402782423607L72.70003818103245,101.3714111522355L72.89894389425005,92.2439246312949L72.99839675085884,72.30441460494087L73.09784960746765,87.65389632806402L73.19730246407644,85.99616733989345L73.29675532068525,93.1136662589004L73.39620817729404,56.209109554271734L73.59511389051166,83.52648670535866L73.79401960372925,89.08461528066468L74.29128388677324,91.05287263592717L74.39073674338204,93.27421540611869L74.49018959999086,85.49974224331902L74.68909531320845,95.00072362967816L75.08690673964364,93.23900159436315L75.28581245286124,89.87012041934992L75.48471816607884,84.55319151303954L75.88252959251405,80.94025249898262L75.98198244912284,100.75934343515047L76.08143530573163,101.4440944647558L76.47924673216683,79.217686911341L76.87705815860204,87.73775204896776L76.97651101521083,86.48924264189218L77.27486958503724,88.88609054860902L77.47377529825482,86.40638462958867L77.57322815486363,98.76388767587255L77.67268101147242,92.46151668326635L77.77213386808124,83.50459977418129L77.87158672469003,94.37928130762947L77.97103958129884,6.80591500513505L78.16994529451642,98.29089668178312L78.26939815112523,88.63070124618767L78.76666243416922,87.14090059299855L78.86611529077801,91.53942668316198L79.16447386060443,108.04046656459771L79.26392671721322,93.93401890086957L79.56228528703961,85.06615832901514L79.76119100025721,95.9018183705426L80.15900242669242,101.71426624194505L80.35790813991002,65.45569934680978L80.55681385312762,76.08311784208789L80.7557195663452,92.07327308201809L81.05407813617163,87.04633998899749L81.45188956260681,92.17679860387643L81.55134241921562,94.8336291284544L81.75024813243321,71.84496738460356L82.0486067022596,86.67142808817569L82.44641812869482,84.36421490048672L82.9436824117388,92.62518427234144L83.63985240800041,97.14043744888531L83.7393052646092,92.94849969700078L83.9382109778268,104.57498598974811L84.03766383443559,102.94130804464626L84.1371166910444,91.34604472925349L84.23656954765319,102.3305272270601L84.33602240426201,97.3363209040669L84.4354752608708,100.07617813563922L84.7338338306972,91.69728635502307L85.13164525713239,109.79269831858961L85.23109811374118,90.48064096512732L85.6289095401764,73.224668242839L85.92726811000279,96.4358527434828L86.32507953643798,39.07362340004595L86.62343810626439,105.67350653725345L86.7228909628732,80.63367158765688L86.82234381948199,72.05962414895401L86.92179667609079,57.97872650111915L87.02124953269958,99.43593358533178L87.22015524591718,101.92668659667949L87.31960810252598,101.26304650267355L87.41906095913478,90.30182459281275L87.6179666723524,112.93234268811355L87.71741952896119,96.37073177296145L87.81687238556998,98.0806163396985L87.91632524217879,92.62189713579377L88.11523095539638,114.24101826164744L88.31413666861397,68.46544398452104L88.41358952522278,111.48963195291671L89.10975952148438,99.47389953047254L89.40811809131077,73.0210489311193L89.50757094791958,95.18807113350209L89.60702380452837,105.8294912881218L89.80592951774598,99.50194140794224L90.10428808757237,115.46111948278173L90.30319380078997,92.89409324927337L90.50209951400757,81.16355607120185L90.89991094044277,86.64077385292175L91.29772236687796,98.88836507833607L91.59608093670435,104.18295880757621L91.69553379331316,102.45306705050285L91.79498664992195,81.66185608876903L91.89443950653077,98.30873976022811L91.99389236313957,92.87089531935558L92.49115664618355,86.20705498286519L93.08787378583636,94.56841697517653L93.28677949905396,90.56504614873845L93.38623235566276,106.81495747365918L93.48568521227155,80.79373875004411L93.78404378209795,98.5302021503928L94.08240235192434,96.01403889875283L94.18185520853315,91.66992889601343L94.48021377835956,94.85306275684181L94.57966663496835,100.64289108012372L94.67911949157715,89.58901722619277L94.87802520479474,104.70788366720984L95.07693091801234,70.18999534966653L95.67364805766515,94.51829537259704L95.97200662749154,89.90196997698482L96.07145948410033,87.80283928055094L96.36981805392675,88.60007111017529L96.46927091053554,89.3338592764903L96.56872376714435,87.6975978926941L96.76762948036193,99.07148075534349L96.86708233697074,88.53961093297006L96.96653519357953,104.9397954885114L97.46379947662354,80.4619693114484L97.86161090305873,98.88633110234909L97.96106375966754,100.97915261734468L98.15996947288512,89.01258746751458L98.35887518610272,84.35892270704193L98.55778089932033,99.25434580023875L98.65723375592913,108.79591030937118L98.75668661253793,89.30946602419155L98.85613946914673,92.06727719071999L98.95559232575553,95.7553094414524L99.25395089558192,55.48032921035121L99.45285660879952,99.54043271654882L99.65176232201713,100.14724197912724L99.95012089184353,99.43251631287974L100.14902660506112,101.41276545073843L100.24847946166992,92.51759561835746L100.34793231827872,91.16267842013393L100.74574374471392,106.24989773714515L100.94464945793152,102.34517956592362L101.04410231454032,105.58938572469262L101.24300802775791,98.53617876229765L101.54136659758431,99.53380060527377L101.93917802401951,103.53851134954215L102.23753659384592,91.4069676118965L102.53589516367231,96.61511254184194L102.6353480202811,99.77471108337078L102.83425373349871,97.10689130464516L103.03315944671631,42.45401437282433L103.23206515993391,97.43801006371899L103.7293294429779,-12.8604349380773L104.0276880128043,93.93912312023025L104.12714086941311,91.59382831104108L104.2265937260219,82.60032875328034L104.5249522958483,93.82387090743279L105.1216694355011,92.51717147170615L105.3205751487187,87.88938447681187L105.4200280053275,62.97377629756668L105.5194808619363,102.95631223243643L105.71838657515389,98.93793239835986L106.1161980015891,100.32068904042407L106.3151037148067,94.28360731866871L106.41455657141549,108.90399058788283L106.81236799785069,103.62084881822813L106.91182085445949,90.97694556549399L107.01127371106828,102.72879129294563L107.11072656767708,80.4421115364097L107.4090851375035,103.2584829825582L107.50853799411229,96.40749757587292L107.6079908507211,102.99376727365629L107.80689656393868,116.20287003850547L108.10525513376508,84.19312956486196L108.30416084698268,95.73268507348355L108.40361370359149,116.8409311975283L108.60251941680909,105.55606611332306L108.70197227341788,100.46483624384219L109.00033084324427,101.77940167201133L109.29868941307069,53.18709358276227L109.39814226967948,96.83392401543591L110.09431226594107,104.12598820054768L110.19376512254988,92.17010383457333L110.29321797915867,110.03971554449586L110.39267083576746,110.09591979564303L110.59157654898507,94.3691162475429L110.69102940559388,87.66107308219816L110.88993511881147,84.73333816348776L110.98938797542027,94.3532541267535L111.08884083202906,101.59550999942596L111.38719940185547,107.05024800862631L111.48665225846426,94.57213307822383L111.58610511507307,107.67130956265848L111.68555797168187,107.23850646378088L111.88446368489947,98.6350627702331L112.48118082455225,83.1083504048895L112.58063368116107,97.2387286154786L112.87899225098747,84.34880102559016L113.57516224724905,99.18933086638023L113.87352081707546,109.87360911217573L114.56969081333705,97.06983631083507L114.66914366994585,94.70986506354083L114.76859652655466,98.98865166212985L114.96750223977226,76.15067283600598L115.06695509638105,100.78842639985521L115.16640795298986,81.38593905239382L115.46476652281625,91.68131337772252L115.56421937942504,105.91206010952668L115.76312509264264,114.86416199014968L115.96203080586025,107.69650290977677L116.06148366246904,88.5367431232254L116.45929508890424,110.97170551302973L116.55874794551305,115.53281472639841L116.95655937194823,111.42675703170798L117.05601222855705,90.14843774018367L117.15546508516584,87.88382719171001L117.25491794177465,100.2145463409332L117.55327651160104,103.54610261063097L117.65272936820983,83.74377510688657L117.75218222481864,101.55426173758585L118.05054079464504,103.58135498117298L118.14999365125384,91.48869295984707L118.94561650412423,103.44905014505343L119.34342793055943,88.80530025123066L119.54233364377703,103.50037188986221L119.74123935699463,64.75350528616922L119.84069221360343,112.38621531576263L120.13905078342982,103.76520809497188L120.23850364003863,112.23790858325268L120.43740935325623,103.09354295352918L120.53686220986503,117.0996895739186L120.63631506647383,95.25900002123743L120.73576792308262,89.76726003655838L121.03412649290902,87.24225718311723L121.82974934577942,86.07362230224102L122.02865505899702,105.6033247260062L122.22756077221462,102.08174593667226L122.42646648543223,101.17178267491677L122.52591934204102,106.66272256477629L122.62537219864981,109.1788713568713L122.82427791186741,101.01685829067668L123.02318362508501,87.25324161741655L123.1226364816938,108.73524287868861L123.22208933830261,85.64631383043724L123.52044790812901,95.12783266931913L123.71935362134661,94.24581488806714L124.4155236176082,93.07550269997893L124.514976474217,104.8346649571657L124.81333504404341,112.3653260931855L125.01224075726101,104.75948496322061L125.6089578969138,96.66422679612455L125.7084107535226,110.56113637440785L125.9073164667402,102.54136667154874L126.1062221799578,94.62358977878529L126.504033606393,100.36190356332601L126.9018450328282,91.48393094971644L127.10075074604579,109.74888589744839L127.29965645926339,94.31871509376143L127.5980150290898,112.17013669616063L127.69746788569859,107.32746640404531L127.79692074230738,110.46147637089442L127.8963735989162,105.01681184466273L128.49309073856898,92.63796169021222L128.5925435951778,44.55542967735731L129.18926073483058,96.83669060836607L129.38816644804817,96.06519676871906L129.58707216126578,94.4734515039174L129.68652501787457,91.43479741604057L129.7859778744834,91.08979267398459L130.68105358396258,88.30696649472533L130.87995929718016,95.98837802634844L131.17831786700657,121.82130937571908L131.57612929344177,108.30104202380102L131.77503500665938,112.03039483409819L131.87448786326817,93.34991594368128L132.27229928970337,97.7856368032558L132.37175214631216,89.3831904239469L132.57065785952977,94.598116880465L132.67011071613857,65.96875292005497L132.7695635727474,96.03746818138953L133.06792214257376,-9.067792699616716L133.16737499918256,114.7736837976675L134.16190356527056,111.31094571650652L134.36080927848815,104.99003276745033L134.46026213509697,101.91531657451534L134.75862070492335,90.33862895451071L134.85807356153214,106.7039708266164L134.95752641814096,95.72228384082979L135.25588498796736,103.54857037296587L135.35533784457616,92.63774479703827L135.45479070118495,100.51840885781189L136.94658355031694,90.65085872805619L137.24494212014335,97.64439114852053L137.44384783336093,97.55649157488439L137.54330068996975,99.34456372091219L137.74220640318734,93.9817305792939L137.84165925979613,106.54738359470923L138.14001782962254,105.71002170805276L138.43837639944894,100.24307984293057L138.53782925605773,75.11918673880122L138.63728211266653,88.07453412980625L138.73673496927535,87.30996159233294L138.93564068249293,104.69709202684292L139.13454639571054,102.0816206206162L139.33345210892813,62.34084345714607L139.53235782214574,96.06560163597713L139.63181067875453,107.89659891238159L139.83071639197212,108.23123616072198L140.02962210518973,103.3580803280436L140.22852781840731,118.7437591119776L140.3279806750161,108.27494254520037L140.42743353162496,97.83301109229839L140.52688638823375,85.34195004933426L140.62633924484254,104.97994964478505L141.62086781093052,104.49626822714322L142.01867923736572,106.38420281031348L142.41649066380091,100.37109983390219L142.51594352040973,100.19280400520515L142.61539637701853,113.28769082464358L142.81430209023614,100.92067339779501L143.11266066006252,53.86840806052235L143.41101922988892,104.82564220112869L143.6099249431065,104.29782543250884L143.80883065632412,105.3527504520469L143.9082835129329,93.04744154311598L144.1071892261505,101.35802643347762L144.5050006525857,95.49903810679027L144.60445350919449,77.96467094609523L144.70390636580333,101.79408774981302L144.90281207902092,104.77306729575922L145.0022649356297,96.64280739023329L145.30062350545612,71.39386814153983L145.4000763620649,115.9192026860472L145.4995292186737,94.02253541508944L145.59898207528252,99.71812606420708L145.7978877885001,111.00862555108714L146.2951520715441,105.95028632647619L146.5935106413705,99.74515577353162L147.09077492441452,112.75526146119071L147.2896806376321,111.1391325837869L147.6874920640673,23.145412850600568L147.88639777728488,86.5377062166529L148.28420920372008,104.09335782748651L148.38366206032887,61.50006911788586L148.4831149169377,84.47937071631797L148.5825677735465,83.4428044989941L148.78147348676407,95.63797987403316L149.0798320565905,108.72997478448539L149.1792849131993,99.34453480182232L149.3781906264169,102.48830978134824L149.4776434830257,113.67217976405807L149.5770963396345,89.81715028641898L150.17381347928728,71.92553596895965L150.3727191925049,102.78112520589957L150.47217204911368,100.80712741129943L150.67107776233127,111.20474999868424L150.77053061894009,106.1305631128288L151.06888918876646,92.27690203343442L151.16834204537525,69.98859316816959L151.66560632841927,105.25497982907115L151.7650591850281,102.19492561469627L151.86451204163689,101.65271677902169L152.16287061146326,102.92857400541028L152.36177632468087,108.94356636235923L152.46122918128967,104.28267182942105L152.56068203789846,116.92928383690561L152.66013489450728,109.64374572640608L152.75958775111607,79.53812970640736L152.85904060772486,81.7421981402545L153.45575774737767,109.15674343327841L153.95302203042166,94.66809625808321L154.05247488703048,102.0289348587356L154.15192774363928,104.89043542196494L154.64919202668327,93.58727419357356L155.04700345311846,114.26253888435322L155.24590916633605,102.28106112385082L155.34536202294484,-62.740196808749715L155.74317344938007,116.62363315630377L156.14098487581526,108.6677168038604L156.83715487207684,100.20279555075253L157.03606058529445,88.14811875396062L157.33441915512083,115.61470876903985L157.53332486833844,95.5564810589532L157.63277772494723,103.20865539072564L157.83168343816487,84.91793835377477L157.93113629477367,102.62859628626974L158.03058915138246,106.94507891849412L158.22949486460004,90.00011172828047L158.32894772120886,96.23825824215106L158.62730629103524,97.89693192059045L160.31800485338485,89.3451570009298L160.41745770999364,98.41454507033725L160.51691056660243,110.76100102429379L160.61636342321123,95.58803178599285L161.01417484964642,99.16230597690401L161.31253341947283,102.01273534856445L161.41198627608162,103.72673606575854L161.71034484590803,77.76075280378026L161.80979770251682,109.07570250378792L161.9092505591256,110.68486670038325L162.30706198556084,107.07422675397038L162.40651484216963,104.54696821151995L162.50596769877842,111.99395678087183L162.70487341199603,114.32951067662574L162.90377912521362,98.98210148827606L163.10268483843123,107.0316915926314L163.30159055164881,99.62408118397522L163.8983076913016,95.96681402500788L164.0972134045192,99.87601947500636L164.59447768756323,118.19490852533131L164.69393054417202,94.54781694349802L165.5890062536512,107.88463122902695L165.68845911026,82.18709905839113L166.78244053295683,108.95026595151066L167.180251959392,106.17542626090167L167.27970481600082,91.28112137251286L167.5780633858272,90.62151549154268L167.67751624243598,102.02989400854935L167.9758748122624,100.63040285315157L168.17478052548,102.75682353071872L168.2742333820888,60.70649073328076L168.3736862386976,99.52645515644878L169.0698562349592,110.71765130859035L169.169309091568,105.71999397420691L169.2687619481768,94.42533495823503L169.3682148047856,95.32582721806065L169.666573374612,115.51949266566857L169.86547908782958,107.3801521659259L169.96493194443838,92.48813670548451L170.0643848010472,113.8900417275349L170.163837657656,103.81704556354987L170.66110194069998,101.76244062580716L170.8600076539176,92.95760921030737L171.35727193696158,106.76154873453203L171.4567247935704,80.37564582820976L171.75508336339678,110.88328057592776L172.45125335965838,93.18072962829083L172.65015907287597,85.8807416125568L173.64468763896397,104.39110877670767L173.84359335218159,92.12579978890446L173.94304620879038,114.02508905734305L174.14195192200796,103.47040207306836L174.24140477861675,110.02598379665963L174.44031049183437,100.74059904507145L174.53976334844316,111.05093417955553L175.13648048809594,112.07251066863417L175.2359333447048,97.44293112884387L175.83265048435757,84.6538395854566L175.93210334096636,102.07958182478092L176.82717905044555,105.31674136532015L177.22499047688075,115.45200032977851L177.42389619009836,97.91990331763766L177.82170761653356,121.43235243692087L178.41842475618634,101.38865174964167L178.61733046940395,110.53499351717242L178.71678332601275,98.29036649846898L178.91568903923033,99.44939542166264L179.21404760905673,86.90323387281441L179.41295332227432,104.56910577480947L179.51240617888317,116.33297702379548L179.91021760531834,103.43881278724223L180.00967046192716,112.05985374697114L180.20857617514474,103.95513421764184L180.30802903175353,118.31406481526017L180.40748188836235,107.44949532356713L180.50693474497115,109.48992990727737L180.80529331479752,109.23794823761145L180.90474617140634,113.90790408537313L181.00419902801514,93.00797662515069L181.40201045445033,108.9544254806025L181.60091616766792,94.0247429056156L181.7003690242767,103.11184391756363L181.79982188088553,106.28318842942484L181.99872759410314,98.53788980844783L182.19763330732073,110.44643844416608L182.39653902053834,109.85476832513051L182.69489759036472,109.00395906168814L182.99325616019112,112.7036842644215L183.09270901679992,100.201436353529L183.1921618734087,107.96332007254199L183.4905204432351,101.8739622760124L183.68942615645273,65.52719697664574L183.78887901306155,98.0574617884155L184.08723758288792,105.02025321635632L184.18669043949674,113.54229931163864L184.48504900932312,95.78602151488606L184.78340757914953,95.86766010556704L184.88286043575832,100.86389558469892L184.9823132923671,88.3786954772802L185.0817661489759,97.82013245761308L185.7779361452375,102.89135513675764L185.9768418584551,89.96384718959328L186.07629471506394,100.67804705369952L186.17574757167273,104.98570454366762L186.4741061414991,104.10715223335077L186.57355899810793,100.60837614637319L186.7724647113255,99.52829633850332L187.1702761377607,115.4124197354538L187.2697289943695,114.5922984462035L187.3691818509783,115.50897575665535L187.6675404208047,94.98387343998513L188.0653518472399,100.66058474327107L188.1648047038487,97.86321226181113L188.3637104170663,103.60248037631732L188.46316327367512,84.59863304290965L188.5626161302839,103.16061114276792L188.6620689868927,112.35478026508243L188.86097470011032,94.06550918262465L189.1593332699367,99.09857312269605L189.2587861265455,85.19709432821453L189.3582389831543,113.59277758299311L189.4576918397631,105.71675021629403L189.8555032661983,89.33075047433013L189.9549561228071,107.5546499541544L190.4522204058511,95.49660890324184L190.6511261190687,57.992761899398914L190.7505789756775,105.02032069423268L190.8500318322863,104.51300274047682L191.2478432587215,117.21364524752057L191.54620182854788,114.79559964793474L191.7451075417655,101.86073661224876L192.04346611159187,93.96737707102562L192.14291896820066,82.88094514175813L192.24237182480948,88.64218694471127L192.34182468141827,101.86792782592782L192.44127753802707,112.34540566011876L192.6401832512447,110.49459836848325L192.8390889644623,88.45515273102752L193.1374475342887,117.1897628991427L193.2369003908975,104.31074262598062L193.43580610411507,97.75277989732405L193.53525896072387,103.43942972782595L193.6347118173327,70.32201099488745L193.93307038715906,91.33296848078746L194.13197610037668,101.90445745627208L194.23142895698547,118.40687099447626L194.33088181359426,100.77578875758543L194.43033467020305,91.67337026770704L195.12650466646468,108.23588249449318L195.22595752307348,65.42740683722793L195.52431609289988,105.61064607558964L196.02158037594387,59.5036108301594L196.41939180237907,111.14852646814381L196.61829751559665,107.3082641283768L197.01610894203188,94.77625365416782L197.11556179864067,95.15906528637029L197.31446751185825,103.09693130689136L197.71227893829345,93.25641088646019L197.81173179490227,101.043512051833L197.91118465151106,101.73050431090267L198.11009036472865,106.27720699767167L198.20954322133744,104.46475123904175L198.30899607794626,114.62283700509798L198.70680750438143,100.8491468488692L199.10461893081663,90.47873230519642L199.30352464403427,106.74905568771155L199.40297750064306,106.38278095506192L199.60188321386065,96.46976519619454L200.19860035351346,117.2207256046885L200.29805321012225,109.80256454808094L200.59641177994862,103.03434075673295L200.89477034977503,92.16510083202718L201.29258177621026,76.45774537185937L201.49148748942784,95.17116310562932L201.88929891586304,102.91180093329021L202.28711034229823,120.2892627520896L202.38656319890703,107.76861266034814L202.48601605551582,87.8784723402372L202.88382748195102,81.75245959730728L202.98328033855984,121.74078898984611L203.2816389083862,97.82715015675298L203.381091764995,101.8761022886622L203.48054462160385,118.77480857479296L203.77890319143023,108.42949580112057L204.07726176125664,109.74324667492527L204.17671461786543,95.31202799234808L204.375620331083,109.44765983759547L204.57452604430063,110.63000718691467L204.67397890090942,82.7115853118285L204.7734317575182,117.54567013807673L205.4696017537798,96.70185053203528L205.66850746699743,103.02216581990098L205.76796032360622,118.0741472259151L206.36467746325903,101.5304324075394L206.46413031986782,105.38261905202624L206.5635831764766,111.532032158503L206.6630360330854,96.17993807759564L206.76248888969423,94.44737612455832L206.9613946029118,115.39840843641556L207.25975317273821,113.9235155740504L207.95592316899982,107.99471656443572L208.0553760256086,92.68242479087536L208.15482888221743,88.05546680989045L209.0499045916966,102.19872365516484L209.348263161523,120.1481424134104L209.44771601813179,101.80604579347104L209.84552744456698,114.23340772116536L209.94498030117578,108.0912870451822L210.04443315778462,105.02593099766594L210.14388601439342,103.7396869981685L210.4422445842198,115.09354821093662L210.5416974408286,81.72609984689788L210.6411502974374,106.04296718963622L210.7406031540462,100.4315455515625L211.1384145804814,107.71838984095413L211.2378674370902,121.23881142801814L211.33732029369898,99.44964605377479L211.63567886352538,103.04608672706532L211.83458457674297,99.94483726918176L212.03349028996058,113.39212729783259L212.2323960031782,98.6192970464099L212.331848859787,102.31436145582714L212.4313017163958,108.2835122354962L212.6302074296134,110.11829835134807L212.72966028622218,103.29761533099006L213.22692456926617,99.26911381546172L213.52528313909258,85.93163439086597L213.72418885231016,104.45745398869985L214.02254742213657,100.1717653673304L214.320905991963,97.91596068171978L214.4203588485718,100.60484801741L214.61926456178938,100.8889539760645L214.818170275007,99.27116707084193L215.41488741465977,110.73187950080256L215.51434027126857,95.77691682142778L215.71324598448618,94.74450049349912L215.91215169770376,115.04064073603374L216.40941598074775,101.16902090183493L216.80722740718298,109.44187119977471L216.90668026379177,82.27496489308909L217.00613312040056,112.1054495119872L217.10558597700938,120.85954720417209L218.29902025631495,103.17763966684844L218.49792596953256,104.36836873237937L218.69683168275017,96.8280582600422L218.89573739596776,87.70276477008282L219.29354882240295,107.12354826173035L219.39300167901175,97.78848051375891L219.49245453562057,107.03994799278706L219.59190739222936,114.73180413569874L219.69136024883815,102.88693051600873L219.79081310544694,109.98033983316046L219.89026596205574,87.7962168089725L220.08917167527335,102.14294837051729L220.18862453188214,97.7141247138749L220.28807738849093,113.18981416500498L220.48698310170855,100.91163136236477L220.98424738475256,119.66119313861415L221.28260595457894,111.01214886020202L221.48151166779655,96.99662281500062L221.58096452440535,101.59481594126926L221.77987023762293,121.61184358799889L222.07822880744934,97.28623786027387L222.37658737727574,110.16084315238366L222.57549309049332,94.07388607898807L222.87385166031973,111.8857945649389L222.97330451692852,105.17314844445775L223.17221023014613,111.52653271158087L223.27166308675496,99.32633505460238L223.57002165658133,118.2108043850589L223.76892736979894,112.38631171272883L223.86838022640774,120.91254143634455L224.66400307927813,110.87463858790727L224.76345593588692,90.91014728776062L224.9623616491045,103.8985684778714L225.45962593214853,110.32007648101322L225.95689021519252,102.34652430360221L226.05634307180134,99.84757273027857L226.15579592841013,102.81245421991696L226.3547016416277,102.08054579444298L226.4541544982365,109.21633603778777L226.65306021145412,81.57500242221623L226.8519659246717,103.56947887493624L227.1503244944981,102.51733490787326L227.2497773511069,91.10084940600856L227.64758877754213,101.370254388641L228.14485306058612,100.36848265626966L228.3437587738037,122.98889352966363L228.9404759134565,116.90055272112753L229.0399287700653,113.05083383897558L229.1393816266741,100.20215933077556L229.2388344832829,107.19234677651251L229.3382873398917,104.69947303190824L229.6366459097181,116.36822457448918L229.83555162293572,79.770725946169L230.1339101927621,99.65014210378936L230.2333630493709,110.84263961497476L230.5317216191973,113.41934498124121L230.7306273324149,107.99363691841418L230.9295330456325,110.95767975444656L231.0289859022413,82.84389978764467L231.12843875885008,103.8371057722176L231.52625018528528,111.44539056527586L231.9240616117205,97.83961428448359L232.0235144683293,100.30202658776633L232.1229673249381,114.5075317739691L232.52077875137329,110.01151943188023L232.6202316079821,96.26550966449787L232.8191373211997,95.49516294874873L232.91859017780848,111.36906344743291L233.1174958910261,120.6637071276253L233.2169487476349,99.39743263702859L233.31640160424368,102.97391431846589L233.51530731746126,96.09698848817423L233.61476017407008,114.07818450633005L233.71421303067888,115.10339516103468L233.81366588728767,97.92539794471148L234.1120244571141,99.92788104282589L234.3109301703317,113.29888733226855L234.41038302694048,101.04374822440022L235.0071001665933,106.47812237448927L235.10655302320208,99.60324497972951L235.20600587981087,111.35205902259393L235.60381730624607,97.86405091541714L235.80272301946366,97.24355328363728L236.0016287326813,110.05835871776036L236.3994401591165,118.64146265143839L237.09561015537807,93.08335905272482L237.39396872520447,87.8988795779833L237.59287443842206,103.09807843078923L237.79178015163967,87.85386219476447L237.89123300824846,92.27172551634908L238.09013872146605,100.8399409385964L238.2890444346837,94.26759578258168L238.48795014790127,79.23622404794267L238.58740300451007,106.54818850937706L238.68685586111886,112.3100424330656L238.98521443094526,109.90342469382365L239.08466728755405,110.5630161152489L239.38302585738046,105.96848125384781L239.48247871398925,104.1819369997344L239.78083728381566,88.09261820066675L240.07919585364203,102.53952548949418L240.47700728007726,85.29151033676628L241.07372441973007,101.86511303451456L241.17317727633886,114.4107154809588L241.47153584616524,109.39556691705704L241.57098870277406,116.70893965154893L241.76989441599164,115.74332160135364L241.96880012920923,108.91399177312684L242.06825298581805,94.44727008789549L242.26715869903563,110.07075054776631L242.36661155564443,91.76624392479948L242.56551726886207,105.12782259094706L242.66497012547086,116.93497607776015L242.76442298207965,104.49759850527688L242.86387583868844,10.894409172582515L243.06278155190606,92.53303841234387L243.26168726512364,104.22714717688564L243.36114012173243,100.21279191614823L243.75895154816763,123.66828006809953L243.85840440477642,95.94541389850986L244.05731011799404,104.45416685215218L244.3556686878204,107.93274295486103L244.55457440103802,108.60336218922039L244.85293297086446,83.963261359244L245.44965011051724,98.19396953226168L246.04636725017002,97.79045665156616L246.44417867660522,104.00944426840304L246.74253724643162,95.66227672936573L247.23980152947564,99.02907091006057L247.43870724269323,95.17908211640325L247.73706581251963,113.19817178197515L248.3337829521724,115.96294280946377L248.4332358087812,102.27461698665986L248.63214152199882,113.67391008960149L248.9305000918252,96.73564730838756L249.22885866165163,107.91430703507388L249.32831151826042,103.19987844695245L249.4277643748692,93.24832318099538L250.3228400843484,117.15120411265978L250.4222929409572,115.52237493495817L250.521745797566,96.4703532176884L250.6211986541748,92.25226296887183L250.8201043673924,106.97436431682792L251.01901008061,97.86731877257156L251.31736865043638,95.03964872463268L251.4168215070452,112.4105218107918L251.8146329334804,102.9848409145855L252.013538646698,95.94944329169732L252.1129915033068,106.98460167463912L252.2124443599156,106.42902739959989L252.3118972165244,95.68285748165098L253.10752006939478,107.44522493796416L254.002595778874,83.1148138214737L254.20150149209158,101.16456736199615L254.49986006191799,105.15916124466106L254.99712434496197,115.48664057958511L255.29548291478838,101.57923819153015L255.39493577139717,84.04835096131521L255.6932943412236,106.03657607077668L255.7927471978324,112.68605807915048L256.09110576765875,109.25817232112175L256.38946433748515,83.3680872104868L256.58837005070274,80.09486074504109L256.7872757639204,103.48851506301872L257.0856343337468,92.93157238973478L257.3839929035732,112.32150403234766L257.48344576018195,100.43230708759552L257.58289861679077,105.5600376683308L257.78180433000836,102.9552663253531L258.57742718287875,97.63248612319393L258.77633289609633,105.7428159559565L258.975238609314,103.7899580160456L259.17414432253156,102.10851537418804L259.67140860557555,106.78205236924431L260.16867288861954,95.34071572949136L260.56648431505477,115.80492408260842L260.96429574148993,99.38515648338208L261.06374859809875,106.42226515242044L261.1632014547076,101.25295856015995L261.56101288114274,100.59385876326236L261.66046573775157,83.55651436033224L261.75991859436033,107.89737490795957L261.85937145096915,103.07955575373249L262.15773002079555,98.24634200400212L262.35663573401314,94.89740536129716L262.65499430383954,90.33268608154401L262.95335287366595,105.41712916592846L263.15225858688353,101.83322491809318L263.55007001331876,109.32441631629942L263.6495228699275,113.63556819629252L263.74897572653634,106.92617547342087L263.84842858314516,101.70815949413583L264.04733429636275,99.84328306528235L264.14678715297157,117.76608662115808" fill="none"></path></g></g></g></g></g></g><g transform="translate(51, 177)" clip-path="url(#clip_1)"><clipPath id="clip_1"><rect width="278" height="22"></rect></clipPath><g><g><line x1="0" y1="0" x2="0" y2="5" style="visibility: inherit;" fill="rgb(0, 0, 0)" stroke="rgb(204, 204, 204)" stroke-width="1px"></line><line x1="19.890571321759904" y1="0" x2="19.890571321759904" y2="5" style="visibility: inherit;" fill="rgb(0, 0, 0)" stroke="rgb(204, 204, 204)" stroke-width="1px"></line><line x1="39.78114264351981" y1="0" x2="39.78114264351981" y2="5" style="visibility: inherit;" fill="rgb(0, 0, 0)" stroke="rgb(204, 204, 204)" stroke-width="1px"></line><line x1="59.671713965279714" y1="0" x2="59.671713965279714" y2="5" style="visibility: inherit;" fill="rgb(0, 0, 0)" stroke="rgb(204, 204, 204)" stroke-width="1px"></line><line x1="79.56228528703961" y1="0" x2="79.56228528703961" y2="5" style="visibility: inherit;" fill="rgb(0, 0, 0)" stroke="rgb(204, 204, 204)" stroke-width="1px"></line><line x1="99.45285660879952" y1="0" x2="99.45285660879952" y2="5" style="visibility: inherit;" fill="rgb(0, 0, 0)" stroke="rgb(204, 204, 204)" stroke-width="1px"></line><line x1="119.34342793055943" y1="0" x2="119.34342793055943" y2="5" style="visibility: inherit;" fill="rgb(0, 0, 0)" stroke="rgb(204, 204, 204)" stroke-width="1px"></line><line x1="139.23399925231934" y1="0" x2="139.23399925231934" y2="5" style="visibility: inherit;" fill="rgb(0, 0, 0)" stroke="rgb(204, 204, 204)" stroke-width="1px"></line><line x1="159.12457057407923" y1="0" x2="159.12457057407923" y2="5" style="visibility: inherit;" fill="rgb(0, 0, 0)" stroke="rgb(204, 204, 204)" stroke-width="1px"></line><line x1="179.01514189583915" y1="0" x2="179.01514189583915" y2="5" style="visibility: inherit;" fill="rgb(0, 0, 0)" stroke="rgb(204, 204, 204)" stroke-width="1px"></line><line x1="198.90571321759904" y1="0" x2="198.90571321759904" y2="5" style="visibility: inherit;" fill="rgb(0, 0, 0)" stroke="rgb(204, 204, 204)" stroke-width="1px"></line><line x1="218.79628453935896" y1="0" x2="218.79628453935896" y2="5" style="visibility: inherit;" fill="rgb(0, 0, 0)" stroke="rgb(204, 204, 204)" stroke-width="1px"></line><line x1="238.68685586111886" y1="0" x2="238.68685586111886" y2="5" style="visibility: inherit;" fill="rgb(0, 0, 0)" stroke="rgb(204, 204, 204)" stroke-width="1px"></line><line x1="258.57742718287875" y1="0" x2="258.57742718287875" y2="5" style="visibility: inherit;" fill="rgb(0, 0, 0)" stroke="rgb(204, 204, 204)" stroke-width="1px"></line><line x1="278.4679985046387" y1="0" x2="278.4679985046387" y2="5" style="visibility: inherit;" fill="rgb(0, 0, 0)" stroke="rgb(204, 204, 204)" stroke-width="1px"></line></g><g transform="translate(0, 8)"><text style="text-anchor: middle; visibility: hidden; font-family: Roboto, sans-serif; font-size: 12px; font-weight: 200;" x="0" y="0" dx="0em" dy="0.95em" fill="rgb(50, 49, 63)" stroke="none" stroke-width="1px">-200</text><text style="text-anchor: middle; visibility: hidden; font-family: Roboto, sans-serif; font-size: 12px; font-weight: 200;" x="19.890571321759904" y="0" dx="0em" dy="0.95em" fill="rgb(50, 49, 63)" stroke="none" stroke-width="1px">0</text><text style="text-anchor: middle; visibility: hidden; font-family: Roboto, sans-serif; font-size: 12px; font-weight: 200;" x="39.78114264351981" y="0" dx="0em" dy="0.95em" fill="rgb(50, 49, 63)" stroke="none" stroke-width="1px">200</text><text style="text-anchor: middle; visibility: hidden; font-family: Roboto, sans-serif; font-size: 12px; font-weight: 200;" x="59.671713965279714" y="0" dx="0em" dy="0.95em" fill="rgb(50, 49, 63)" stroke="none" stroke-width="1px">400</text><text style="text-anchor: middle; visibility: hidden; font-family: Roboto, sans-serif; font-size: 12px; font-weight: 200;" x="79.56228528703961" y="0" dx="0em" dy="0.95em" fill="rgb(50, 49, 63)" stroke="none" stroke-width="1px">600</text><text style="text-anchor: middle; visibility: hidden; font-family: Roboto, sans-serif; font-size: 12px; font-weight: 200;" x="99.45285660879952" y="0" dx="0em" dy="0.95em" fill="rgb(50, 49, 63)" stroke="none" stroke-width="1px">800</text><text style="text-anchor: middle; visibility: hidden; font-family: Roboto, sans-serif; font-size: 12px; font-weight: 200;" x="119.34342793055943" y="0" dx="0em" dy="0.95em" fill="rgb(50, 49, 63)" stroke="none" stroke-width="1px">1k</text><text style="text-anchor: middle; visibility: hidden; font-family: Roboto, sans-serif; font-size: 12px; font-weight: 200;" x="139.23399925231934" y="0" dx="0em" dy="0.95em" fill="rgb(50, 49, 63)" stroke="none" stroke-width="1px">1.2k</text><text style="text-anchor: middle; visibility: hidden; font-family: Roboto, sans-serif; font-size: 12px; font-weight: 200;" x="159.12457057407923" y="0" dx="0em" dy="0.95em" fill="rgb(50, 49, 63)" stroke="none" stroke-width="1px">1.4k</text><text style="text-anchor: middle; visibility: hidden; font-family: Roboto, sans-serif; font-size: 12px; font-weight: 200;" x="179.01514189583915" y="0" dx="0em" dy="0.95em" fill="rgb(50, 49, 63)" stroke="none" stroke-width="1px">1.6k</text><text style="text-anchor: middle; visibility: hidden; font-family: Roboto, sans-serif; font-size: 12px; font-weight: 200;" x="198.90571321759904" y="0" dx="0em" dy="0.95em" fill="rgb(50, 49, 63)" stroke="none" stroke-width="1px">1.8k</text><text style="text-anchor: middle; visibility: hidden; font-family: Roboto, sans-serif; font-size: 12px; font-weight: 200;" x="218.79628453935896" y="0" dx="0em" dy="0.95em" fill="rgb(50, 49, 63)" stroke="none" stroke-width="1px">2k</text><text style="text-anchor: middle; visibility: hidden; font-family: Roboto, sans-serif; font-size: 12px; font-weight: 200;" x="238.68685586111886" y="0" dx="0em" dy="0.95em" fill="rgb(50, 49, 63)" stroke="none" stroke-width="1px">2.2k</text><text style="text-anchor: middle; visibility: hidden; font-family: Roboto, sans-serif; font-size: 12px; font-weight: 200;" x="258.57742718287875" y="0" dx="0em" dy="0.95em" fill="rgb(50, 49, 63)" stroke="none" stroke-width="1px">2.4k</text><text style="text-anchor: middle; visibility: hidden; font-family: Roboto, sans-serif; font-size: 12px; font-weight: 200;" x="278.4679985046387" y="0" dx="0em" dy="0.95em" fill="rgb(50, 49, 63)" stroke="none" stroke-width="1px">2.6k</text></g><line x1="0" y1="0" x2="278.4679985046387" y2="0" fill="rgb(0, 0, 0)" stroke="rgb(204, 204, 204)" stroke-width="1px"></line></g></g></g></g></svg>