<svg viewBox="0 0 330 200" xmlns="http://www.w3.org/2000/svg"><g><g><g><g><g><line x1="41.149001121520996" y1="177.89999961853027" x2="36.149001121520996" y2="177.89999961853027" style="visibility: inherit;" fill="rgb(0, 0, 0)" stroke="rgb(204, 204, 204)" stroke-width="1px"></line><line x1="41.149001121520996" y1="158.13333299424914" x2="36.149001121520996" y2="158.13333299424914" style="visibility: inherit;" fill="rgb(0, 0, 0)" stroke="rgb(204, 204, 204)" stroke-width="1px"></line><line x1="41.149001121520996" y1="138.366666369968" x2="36.149001121520996" y2="138.366666369968" style="visibility: inherit;" fill="rgb(0, 0, 0)" stroke="rgb(204, 204, 204)" stroke-width="1px"></line><line x1="41.149001121520996" y1="118.59999974568682" x2="36.149001121520996" y2="118.59999974568682" style="visibility: inherit;" fill="rgb(0, 0, 0)" stroke="rgb(204, 204, 204)" stroke-width="1px"></line><line x1="41.149001121520996" y1="98.83333312140569" x2="36.149001121520996" y2="98.83333312140569" style="visibility: inherit;" fill="rgb(0, 0, 0)" stroke="rgb(204, 204, 204)" stroke-width="1px"></line><line x1="41.149001121520996" y1="79.06666649712456" x2="36.149001121520996" y2="79.06666649712456" style="visibility: inherit;" fill="rgb(0, 0, 0)" stroke="rgb(204, 204, 204)" stroke-width="1px"></line><line x1="41.149001121520996" y1="59.299999872843394" x2="36.149001121520996" y2="59.299999872843394" style="visibility: inherit;" fill="rgb(0, 0, 0)" stroke="rgb(204, 204, 204)" stroke-width="1px"></line><line x1="41.149001121520996" y1="39.53333324856228" x2="36.149001121520996" y2="39.53333324856228" style="visibility: inherit;" fill="rgb(0, 0, 0)" stroke="rgb(204, 204, 204)" stroke-width="1px"></line><line x1="41.149001121520996" y1="19.76666662428111" x2="36.149001121520996" y2="19.76666662428111" style="visibility: inherit;" fill="rgb(0, 0, 0)" stroke="rgb(204, 204, 204)" stroke-width="1px"></line><line x1="41.149001121520996" y1="0" x2="36.149001121520996" y2="0" style="visibility: inherit;" fill="rgb(0, 0, 0)" stroke="rgb(204, 204, 204)" stroke-width="1px"></line></g><g transform="translate(31.149001121520996, 0)"><text style="text-anchor: end; visibility: hidden; font-family: Roboto, sans-serif; font-size: 12px; font-weight: 200;" x="0" y="177.89999961853027" dx="0em" dy="0.3em" fill="rgb(50, 49, 63)" stroke="none" stroke-width="1px">0.5</text><text style="text-anchor: end; visibility: inherit; font-family: Roboto, sans-serif; font-size: 12px; font-weight: 200;" x="0" y="158.13333299424914" dx="0em" dy="0.3em" fill="rgb(50, 49, 63)" stroke="none" stroke-width="1px">0.6</text><text style="text-anchor: end; visibility: hidden; font-family: Roboto, sans-serif; font-size: 12px; font-weight: 200;" x="0" y="138.366666369968" dx="0em" dy="0.3em" fill="rgb(50, 49, 63)" stroke="none" stroke-width="1px">0.7</text><text style="text-anchor: end; visibility: inherit; font-family: Roboto, sans-serif; font-size: 12px; font-weight: 200;" x="0" y="118.59999974568682" dx="0em" dy="0.3em" fill="rgb(50, 49, 63)" stroke="none" stroke-width="1px">0.8</text><text style="text-anchor: end; visibility: hidden; font-family: Roboto, sans-serif; font-size: 12px; font-weight: 200;" x="0" y="98.83333312140569" dx="0em" dy="0.3em" fill="rgb(50, 49, 63)" stroke="none" stroke-width="1px">0.9</text><text style="text-anchor: end; visibility: inherit; font-family: Roboto, sans-serif; font-size: 12px; font-weight: 200;" x="0" y="79.06666649712456" dx="0em" dy="0.3em" fill="rgb(50, 49, 63)" stroke="none" stroke-width="1px">1</text><text style="text-anchor: end; visibility: hidden; font-family: Roboto, sans-serif; font-size: 12px; font-weight: 200;" x="0" y="59.299999872843394" dx="0em" dy="0.3em" fill="rgb(50, 49, 63)" stroke="none" stroke-width="1px">1.1</text><text style="text-anchor: end; visibility: inherit; font-family: Roboto, sans-serif; font-size: 12px; font-weight: 200;" x="0" y="39.53333324856228" dx="0em" dy="0.3em" fill="rgb(50, 49, 63)" stroke="none" stroke-width="1px">1.2</text><text style="text-anchor: end; visibility: hidden; font-family: Roboto, sans-serif; font-size: 12px; font-weight: 200;" x="0" y="19.76666662428111" dx="0em" dy="0.3em" fill="rgb(50, 49, 63)" stroke="none" stroke-width="1px">1.3</text><text style="text-anchor: end; visibility: hidden; font-family: Roboto, sans-serif; font-size: 12px; font-weight: 200;" x="0" y="0" dx="0em" dy="0.3em" fill="rgb(50, 49, 63)" stroke="none" stroke-width="1px">1.4</text></g><line x1="41.149001121520996" y1="0" x2="41.149001121520996" y2="177.89999961853027" fill="rgb(0, 0, 0)" stroke="rgb(204, 204, 204)" stroke-width="1px"></line></g></g><g transform="translate(41, 0)" clip-path="url(#clip_0)"><clipPath id="clip_0"><rect width="288" height="177"></rect></clipPath><g><g><g><line x1="0" y1="0" x2="0" y2="177.89999961853027" fill="rgb(0, 0, 0)" stroke="rgb(60, 60, 60)" stroke-width="1px" opacity="0.25"></line><line x1="20.632214205605642" y1="0" x2="20.632214205605642" y2="177.89999961853027" fill="rgb(0, 0, 0)" stroke="rgb(60, 60, 60)" stroke-width="1px" opacity="0.25"></line><line x1="41.264428411211284" y1="0" x2="41.264428411211284" y2="177.89999961853027" fill="rgb(0, 0, 0)" stroke="rgb(60, 60, 60)" stroke-width="1px" opacity="0.25"></line><line x1="61.896642616816926" y1="0" x2="61.896642616816926" y2="177.89999961853027" fill="rgb(0, 0, 0)" stroke="rgb(60, 60, 60)" stroke-width="1px" opacity="0.25"></line><line x1="82.52885682242257" y1="0" x2="82.52885682242257" y2="177.89999961853027" fill="rgb(0, 0, 0)" stroke="rgb(60, 60, 60)" stroke-width="1px" opacity="0.25"></line><line x1="103.16107102802822" y1="0" x2="103.16107102802822" y2="177.89999961853027" fill="rgb(0, 0, 0)" stroke="rgb(60, 60, 60)" stroke-width="1px" opacity="0.25"></line><line x1="123.79328523363385" y1="0" x2="123.79328523363385" y2="177.89999961853027" fill="rgb(0, 0, 0)" stroke="rgb(60, 60, 60)" stroke-width="1px" opacity="0.25"></line><line x1="144.4254994392395" y1="0" x2="144.4254994392395" y2="177.89999961853027" fill="rgb(0, 0, 0)" stroke="rgb(60, 60, 60)" stroke-width="1px" opacity="0.25"></line><line x1="165.05771364484514" y1="0" x2="165.05771364484514" y2="177.89999961853027" fill="rgb(0, 0, 0)" stroke="rgb(60, 60, 60)" stroke-width="1px" opacity="0.25"></line><line x1="185.6899278504508" y1="0" x2="185.6899278504508" y2="177.89999961853027" fill="rgb(0, 0, 0)" stroke="rgb(60, 60, 60)" stroke-width="1px" opacity="0.25"></line><line x1="206.32214205605644" y1="0" x2="206.32214205605644" y2="177.89999961853027" fill="rgb(0, 0, 0)" stroke="rgb(60, 60, 60)" stroke-width="1px" opacity="0.25"></line><line x1="226.95435626166207" y1="0" x2="226.95435626166207" y2="177.89999961853027" fill="rgb(0, 0, 0)" stroke="rgb(60, 60, 60)" stroke-width="1px" opacity="0.25"></line><line x1="247.5865704672677" y1="0" x2="247.5865704672677" y2="177.89999961853027" fill="rgb(0, 0, 0)" stroke="rgb(60, 60, 60)" stroke-width="1px" opacity="0.25"></line><line x1="268.21878467287337" y1="0" x2="268.21878467287337" y2="177.89999961853027" fill="rgb(0, 0, 0)" stroke="rgb(60, 60, 60)" stroke-width="1px" opacity="0.25"></line><line x1="288.850998878479" y1="0" x2="288.850998878479" y2="177.89999961853027" fill="rgb(0, 0, 0)" stroke="rgb(60, 60, 60)" stroke-width="1px" opacity="0.25"></line></g><g><line x1="0" y1="177.89999961853027" x2="288.850998878479" y2="177.89999961853027" fill="rgb(0, 0, 0)" stroke="rgb(60, 60, 60)" stroke-width="1px" opacity="0.25"></line><line x1="0" y1="158.13333299424914" x2="288.850998878479" y2="158.13333299424914" fill="rgb(0, 0, 0)" stroke="rgb(60, 60, 60)" stroke-width="1px" opacity="0.25"></line><line x1="0" y1="138.366666369968" x2="288.850998878479" y2="138.366666369968" fill="rgb(0, 0, 0)" stroke="rgb(60, 60, 60)" stroke-width="1px" opacity="0.25"></line><line x1="0" y1="118.59999974568682" x2="288.850998878479" y2="118.59999974568682" fill="rgb(0, 0, 0)" stroke="rgb(60, 60, 60)" stroke-width="1px" opacity="0.25"></line><line x1="0" y1="98.83333312140569" x2="288.850998878479" y2="98.83333312140569" fill="rgb(0, 0, 0)" stroke="rgb(60, 60, 60)" stroke-width="1px" opacity="0.25"></line><line x1="0" y1="79.06666649712456" x2="288.850998878479" y2="79.06666649712456" fill="rgb(0, 0, 0)" stroke="rgb(60, 60, 60)" stroke-width="1px" opacity="0.25"></line><line x1="0" y1="59.299999872843394" x2="288.850998878479" y2="59.299999872843394" fill="rgb(0, 0, 0)" stroke="rgb(60, 60, 60)" stroke-width="1px" opacity="0.25"></line><line x1="0" y1="39.53333324856228" x2="288.850998878479" y2="39.53333324856228" fill="rgb(0, 0, 0)" stroke="rgb(60, 60, 60)" stroke-width="1px" opacity="0.25"></line><line x1="0" y1="19.76666662428111" x2="288.850998878479" y2="19.76666662428111" fill="rgb(0, 0, 0)" stroke="rgb(60, 60, 60)" stroke-width="1px" opacity="0.25"></line><line x1="0" y1="0" x2="288.850998878479" y2="0" fill="rgb(0, 0, 0)" stroke="rgb(60, 60, 60)" stroke-width="1px" opacity="0.25"></line></g></g></g><g><g><line x1="0" y1="276.733332739936" x2="288.850998878479" y2="276.733332739936" fill="rgb(0, 0, 0)" stroke="rgb(153, 153, 153)" stroke-width="1.5px"></line></g></g><g><g><line x1="20.632214205605642" y1="0" x2="20.632214205605642" y2="177.89999961853027" fill="rgb(0, 0, 0)" stroke="rgb(153, 153, 153)" stroke-width="1.5px"></line></g></g><g><g><g><g><g><path style="fill: none;" stroke="rgb(255, 112, 67)" stroke-width="2px" d="M28.059811319623673,-5.0280632886986L28.162972390651703,3.3030538017967963L28.26613346167973,-15.90204700140093L28.781938816819874,-2.9309566885356895L29.297744171960012,7.7299280845963665L29.607227385044098,16.325074798008377L29.710388456072124,8.960410907486832L30.329354882240295,16.284923327420934L31.154643450464523,3.6510946105516577L31.464126663548605,-3.380149460940002L32.28941523177283,-1.380258469613083L32.598898444856914,16.55255656587228L32.805220586912974,35.9216591417913L33.52734808410917,48.24402773791883L33.6305091551372,30.457115792198962L33.93999236822128,56.62224667692818L34.04315343924931,51.47804242389388L34.76528093644551,46.591384931100315L34.971603078501566,41.90595875346507L35.177925220557626,51.57521826188623L35.281086291585645,44.30581833689452L35.38424736261368,19.36948411038789L36.106374859809875,35.47399400906795L36.62218021495001,4.784141580865697L36.82850235700607,-1.103823842070114L36.931663428034106,12.21426266127213L37.03482449906213,32.33524694222959L37.34430771214621,11.579669014168251L37.653790925230304,21.13778032094528L37.86011306728635,40.724343614234854L37.96327413831438,37.19494695259042L38.27275735139847,47.338182183453355L38.89172377756664,48.751516450530865L38.994884848594666,50.01233423375889L39.20120699065072,67.09460653194746L39.51069020373481,78.49074935023496L39.71701234579086,80.67025858139313L39.82017341681889,72.40082698827021L40.02649555887495,80.05701722021189L40.23281770093101,67.18084241565403L40.335978771959034,46.696589475382616L41.05810626915523,54.130308521331926L41.883394837379456,44.8680008077436L41.98655590840748,58.69960377458111L42.089716979435515,65.92897138036685L42.50236126354762,72.77703114362482L43.53397197382791,68.86468829639776L43.637133044855936,82.82124894021399L43.84345518691199,91.59968456237901L44.04977732896805,71.40430818573691L44.25609947102411,66.68785704531862L44.565582684108186,74.8098911828213L44.66874375513621,87.82581781158682L44.771904826164246,90.2856026503644L45.08138803924833,87.51228285871463L46.112998749528614,88.68804235633068L46.319320891584674,80.64248549406504L46.93828731775284,85.63679491478315L47.24777053083692,94.51466401267675L47.35093160186495,85.16393198497184L47.454092672892976,86.94488910018129L47.55725374392101,58.43008273358468L47.76357588597707,59.00117711922557L48.176220170089174,41.6710377616401L48.38254231214523,54.933484965519796L48.588864454201286,60.51859738676599L48.795186596257345,69.35968713736271L49.31099195139748,74.86597088027338L49.929958377565654,82.13726074254026L50.65208587476185,69.12407063574035L50.75524694578988,68.9937387873548L51.27105230093002,68.55649482524717L51.37421337195805,71.09913393340258L51.683696585042135,88.79176449866416L51.78685765607017,76.25821977509896L51.89001872709819,89.87578533916422L52.302663011210306,96.34149077635689L52.40582408223834,97.471232563843L52.612146224294385,95.03717963402516L52.92162943737848,81.88096994456893L53.33427372149058,80.63602565464791L53.437434792518616,83.43679604367149L53.54059586354664,104.82535967430171L53.643756934574675,108.69104796842055L53.85007907663073,86.30468196992942L54.15956228971481,97.29507103295154L54.26272336074284,93.7793213263847L54.36588443177087,82.98303704269345L54.67536764485495,92.32244442566068L54.984850857939044,64.60187142462186L55.60381728410721,77.10557492480356L55.81013942616327,86.35881578374638L56.119622639247346,100.06273169333689L56.22278371027538,116.81655078046674L56.42910585233144,97.78310815026637L56.53226692335946,95.23534222429443L57.0480722784996,100.01906405782715L57.15123334952764,110.05918054476106L57.56387763363975,106.6429288765953L57.7701997756958,98.9038584918764L58.079682988779886,110.73859849385371L58.492327272892005,80.69417742462025L58.90497155700411,91.12202496811335L59.11129369906017,104.01699618100938L59.52393798317228,116.84036440224503L59.62709905420031,91.24804420012933L59.73026012522834,86.5633806599776L59.93658226728439,83.03238152195844L60.45238762242454,97.51688959898875L60.55554869345256,101.31587341369895L60.96819297756468,98.0965134091402L61.07135404859271,97.43390648520646L61.174515119620736,98.39544958386756L62.20612582990101,104.62741906471706L62.72193118504115,110.30508761919995L63.444058682237355,100.29041626441824L63.54721975326538,105.84924725427216L64.06302510840553,79.93742867762256L64.16618617943355,67.98579099288162L64.3725083214896,87.86739077870979L64.57883046354566,101.91004307235583L64.99147474765778,96.9619370771275L65.91992438691003,88.23224297075983L66.12624652896609,88.32559645839066L66.22940759999412,73.38421181996219L66.5388908130782,65.55892170676383L67.15785723924637,79.26208417680887L67.98314580747059,85.1564439205763L68.08630687849862,85.41704057417223L68.18946794952664,81.07337225456804L68.39579009158271,82.90884442082789L68.49895116261074,85.58683163120944L68.80843437569482,88.51490675464382L68.91159544672284,69.98135834486412L69.42740080186299,91.02313881026247L69.53056187289101,93.16747735720939L70.66533365419933,60.4773322824768L70.97481686728341,92.79427199828106L71.07797793831145,101.51115294125691L71.28430008036749,110.81075184031661L71.49062222242355,107.24109295659906L71.80010543550765,115.51389347023988L72.93487721681595,98.45805221569857L73.34752150092807,97.43925599398584L73.4506825719561,95.61607817238561L73.65700471401215,108.2326412919833L73.96648792709622,78.82339578375415L74.17281006915229,94.53841527765339L74.68861542429242,109.4082859622142L74.79177649532046,73.00883796384636L75.41074292148862,80.03815488300228L75.61706506354469,82.6723019048549L75.7202261345727,73.01532620684662L75.82338720560074,27.150140393313748L75.92654827662876,43.74133809354726L76.0297093476568,69.5969140884327L76.13287041868482,63.630978425155035L76.33919256074088,73.89214227636427L76.54551470279694,28.78220656654257L77.06132005793708,52.123345972312634L77.16448112896511,75.18236829792558L77.26764219999313,81.3056456637387L77.4739643420492,93.439579924672L77.8866086261613,89.70015805704669L78.09293076821736,29.217941484017985L78.29925291027341,51.6804301426666L78.71189719438553,42.083652733609085L78.81505826541355,0.2508202382609847L78.91821933644158,37.40557066649737L79.3308636205537,52.57155543254912L79.74350790466582,82.68212723467533L79.84666897569383,96.0095740356514L80.15615218877792,98.93536889979988L80.36247433083398,86.34050365482099L80.46563540186202,86.1086631543631L80.56879647289003,89.81761520989643L80.67195754391807,104.85166863493828L80.7751186149461,92.3822299016934L80.87827968597414,69.63809241189107L81.08460182803017,91.56558130397842L81.18776289905821,105.6661402557215L81.70356825419834,76.05179213754877L81.80672932522637,96.4561650986756L82.11621253831046,98.89469087041678L82.21937360933849,86.94984733810067L82.52885682242257,101.58082259242336L82.73517896447862,94.2526790112058L83.14782324859074,86.85322101591177L83.3541453906468,103.45860027555254L83.56046753270286,91.74317408130852L83.76678967475891,89.24899804088453L84.076272887843,104.63736530967917L84.48891717195511,108.115479076622L84.59207824298313,121.28775938615269L84.7984003850392,122.91860654249746L85.10788359812328,102.52958208049441L85.5205278822354,116.87509580896388L86.03633323737554,123.67625093528174L86.75846073457174,120.52512107494488L86.86162180559975,111.92671467593883L87.06794394765582,102.21128014755459L87.17110501868383,84.31200277028408L87.27426608971187,91.27406959244044L87.3774271607399,95.53775077327168L87.58374930279595,95.2315746142044L87.89323251588003,99.11499230723432L88.30587679999215,92.26980359431508L88.40903787102017,106.91667387165286L88.8216821551323,123.35980422641899L89.13116536821637,134.55447734495291L89.54380965232849,115.41679057810259L89.85329286541257,126.98139327862596L89.95645393644061,127.20927359269457L90.05961500746864,133.1297927624241L90.16277607849666,128.05405653038247L90.26593714952469,122.87521368794408L90.47225929158074,118.29120371401312L90.57542036260877,125.66837353458294L90.67858143363681,55.0035967581768L90.88490357569286,92.72021760334131L90.98806464672089,89.71644424077452L91.09122571774891,94.92773257985623L91.19438678877695,98.21796698998038L91.400708930833,107.4918694402415L91.60703107288904,116.25160925012938L91.71019214391708,103.66590333275668L92.43231964111328,82.22361097349103L92.74180285419736,81.49124742137259L92.8449639252254,87.30863804241437L92.94812499625343,88.33432794782092L93.15444713830948,101.85006332317299L93.46393035139356,106.43449242043721L93.67025249344962,110.83511805432471L93.87657463550568,120.86312428677402L94.28921891961778,118.3338112871761L94.7018632037299,92.86339907334545L95.01134641681398,89.09135609118242L95.11450748784202,107.65606368789506L95.21766855887005,116.51246086040038L95.32082962989807,120.13007072693814L95.4239907009261,111.39367723192457L95.93979605606624,117.71537956608394L96.55876248223441,122.96254534593827L96.76508462429047,100.73514976684368L96.86824569531849,107.95710060848856L96.97140676634652,110.20713138844252L97.28088997943061,59.06870485387609L97.59037319251469,82.46488894060539L97.69353426354272,94.16807266011784L98.00301747662681,105.88463125091194L98.10617854765484,116.11774547980087L98.20933961868286,120.26374773672136L98.41566176073891,105.09827120844909L98.62198390279497,112.6078800967477L99.24095032896315,117.81754036128227L99.55043354204723,114.13091921817406L99.65359461307524,112.15693993110098L99.96307782615935,125.8307017442383L100.06623889718736,118.80894705605644L100.1693999682154,116.58381775770127L100.37572211027145,110.05245828783517L100.47888318129948,109.39196545773913L101.09784960746765,111.23442417834036L101.51049389157976,120.2992375341216L101.6136549626078,116.7303157530884L101.81997710466385,124.2030100004315L102.0262992467199,133.97588609839855L102.23262138877597,105.30692040018147L102.33578245980398,91.22378233236813L102.43894353083202,113.09815122147113L102.54210460186005,121.96420350628203L102.64526567288807,113.17793785433297L102.95474888597217,114.82325159483347L103.16107102802822,131.13837405550834L103.36739317008427,122.23265133564429L103.67687638316836,106.80334022736203L103.88319852522442,96.14236068623373L103.98635959625244,109.40986207458836L104.08952066728048,107.27545110756432L104.50216495139257,114.39768694226926L104.70848709344864,115.14456950379022L104.81164816447668,116.58700247167107L105.01797030653272,105.88385291237861L105.32745351961681,120.37678536070521L105.74009780372891,113.50693296815297L106.04958101681301,109.45607080945697L106.35906422989709,112.25597449778243L106.46222530092511,116.63378160303856L106.66854744298116,134.3296046468984L106.87486958503723,123.80570657366236L107.08119172709328,122.93381019877363L107.59699708223343,127.11218719593775L107.90648029531751,118.30662839842836L108.00964136634555,89.10633266158959L108.11280243737357,85.91160468726284L108.42228565045765,106.14541204627548L109.24757421868189,55.01460942770756L109.3507352897099,66.25252435278607L109.45389636073794,90.86636256903216L109.66021850279398,104.95234549355447L110.0728627869061,110.91324243147015L110.27918492896217,121.39584005117713L110.38234599999018,128.6410151666294L110.7949902841023,142.12429565805203L111.00131242615836,135.6685504163621L111.10447349718638,121.9865045991688L111.41395671027048,103.35100309384865L111.62027885232654,112.79413472610807L111.82660099438257,82.16266491842259L112.13608420746668,74.34198079559532L112.34240634952272,98.82565706658782L112.44556742055076,120.11889778022173L112.65188956260681,134.76436282887192L112.75505063363484,130.04728375433905L113.06453384671892,119.71817535456621L113.37401705980301,112.99619642746812L113.47717813083104,106.30411854346346L114.19930562802723,92.0923486135912L114.30246669905527,97.61965928585013L114.40562777008329,108.52913789195851L114.50878884111131,108.8854791845722L114.71511098316738,121.94645039135798L114.8182720541954,114.47556161861041L115.02459419625146,97.68732753880943L115.1277552672795,103.27425847662032L115.23091633830751,110.3578943316315L115.5403995513916,114.75457138526089L115.64356062241963,109.45796253104893L115.74672169344765,89.33932547712226L115.8498827644757,120.97943882726786L116.05620490653175,111.4351061674417L116.6751713326999,110.65819902480726L116.77833240372794,124.76730773366369L117.08781561681202,126.91894004576606L117.80994311400822,118.74524714217544L118.1194263270923,104.25038755372938L118.8415538242885,94.52755530594895L118.94471489531654,87.86005904465004L119.04787596634456,102.93140500619394L119.25419810840062,99.95571560279303L119.35735917942864,101.77519504136329L119.46052025045668,107.5494570222514L119.77000346354076,119.44840129641503L119.87316453456879,113.04173027958794L120.07948667662484,97.42816707156011L120.2858088186809,113.83363973104942L120.38896988970892,107.81584148240957L120.80161417382104,95.40802638043047L120.90477524484908,121.10506800970546L121.31741952896118,124.07704410909484L121.42058059998921,112.78937781909002L121.52374167101723,97.79266873095526L121.62690274204527,80.2070685602114L121.93638595512935,103.24047446374482L122.03954702615738,112.43393575883269L122.14270809718542,99.17064149734477L122.4521913102695,101.97907158062456L122.55535238129751,110.83506867129445L123.38064094952175,113.22087684649976L123.79328523363385,127.43667436185663L123.9996073756899,122.0729559683871L124.20592951774597,116.16377363046088L124.30909058877401,88.67929998365004L124.61857380185809,103.07866030724271L124.7217348728861,104.86572550087406L124.92805701494217,114.62443148303959L125.03121808597021,121.20307017533585L125.13437915699822,123.29034204826624L125.23754022802625,133.42945408676079L125.54702344111034,122.98754569297952L126.37231200933456,112.53434834521084L126.57863415139062,103.9200187890507L126.78495629344668,107.13262486365134L126.99127843550274,105.30902138598508L127.09443950653076,101.2687319466303L127.19760057755879,99.69868124572707L127.40392271961484,105.33211153114766L127.6102448616709,114.6999799357101L127.71340593269892,111.98218988697565L127.81656700372696,110.23948458890172L128.12605021681105,124.4952770352438L128.3323723588671,125.87566445264704L129.0544998560633,95.67000069824704L129.1576609270913,112.46040370703005L129.4671441401754,109.53633206551692L129.6734662822315,105.52600384997776L130.29243270839964,108.2137799264702L130.39559377942766,113.68011008945219L130.6019159214837,114.4352836383387L130.80823806353976,99.5371537619173L131.2208823476519,101.46397520730922L131.633526631764,119.88970795870154L131.83984877382005,120.59036586898172L132.0461709158761,124.4865293168795L132.3556541289602,124.62370271846429L132.45881519998824,115.84910363070951L132.56197627101625,103.25998186809389L132.6651373420443,108.4176466979257L133.28410376821245,122.8176860769283L133.3872648392405,122.98611553189788L134.00623126540864,132.21642561113342L134.2125534074647,112.07009543484715L134.41887554952078,121.22275574815214L134.5220366205488,107.87945538819716L134.62519769157683,101.28490327105517L135.55364733082908,103.58065916997998L135.75996947288513,105.05940835514937L136.06945268596922,110.42845529748747L136.48209697008133,108.33201757806842L136.68841911213738,129.10533111657276L136.79158018316542,123.3683192876046L137.20422446727753,123.38114483344475L137.30738553830557,113.82300418101832L137.51370768036162,117.06668231608617L137.61686875138963,113.29442151288116L137.72002982241767,107.85857061039783L138.02951303550176,132.98224055289495L138.13267410652978,119.0816934763416L139.16428481681007,130.7005897216459L139.37060695886612,118.62953366632803L139.47376802989416,123.23360819420196L139.78325124297822,101.81768615864891L139.88641231400626,103.601899318673L139.9895733850343,106.00036440157793L140.29905659811837,109.48613012804381L140.4022176691464,111.83348195140057L140.50537874017442,113.86662336087291L142.05279480559486,74.219488227608L142.36227801867895,86.526054185132L142.56860016073497,85.6376966731849L142.671761231763,109.4069798570669L142.8780833738191,99.25702017541124L142.9812444448471,104.82530417030453L143.2907276579312,109.48440454100452L143.6002108710153,104.16142451835618L143.7033719420433,100.44437149378395L143.80653301307132,111.64266036150892L143.90969408409936,103.15648520858365L144.1160162261554,122.50380383729953L144.3223383682115,123.24520435236815L144.5286605102675,127.53711605443824L144.7349826523236,119.82396867908854L144.8381437233516,125.97078131745471L145.04446586540766,119.8346522060456L145.25078800746374,103.60433214665721L145.4571101495198,101.07898012813529L145.5602712205478,109.25342272995182L145.66343229157584,101.27694771305407L145.76659336260388,88.92180754196616L145.8697544336319,112.60168913446144L146.9013651439122,124.09021597329226L147.3140094280243,123.12906921692198L147.72665371213643,113.78729164618152L147.82981478316444,114.7670547379532L147.93297585419245,107.64353531469338L148.13929799624853,116.31530315593713L148.4487812093326,124.14092858411458L148.7582644224167,113.24497455418162L148.96458656447274,108.55231753817503L149.17090870652882,113.81180636039412L149.27406977755683,113.95422988606784L149.48039191961288,122.68011681756971L149.893036203725,108.81136746480337L149.996197274753,88.85698166923628L150.09935834578107,98.22391283242212L150.30568048783712,112.03329713876536L150.40884155886513,121.68784218871909L150.71832477194923,132.13764760995286L150.82148584297724,143.18181982467448L150.92464691400528,129.5496935411099L151.02780798503332,108.65663132336951L151.23413012708937,94.91509587074299L151.74993548222952,118.84962493083528L152.0594186953136,98.21472792917007L152.57522405045373,104.52497125242263L152.78154619250978,99.9715929156797L153.1941904766219,102.26398829411578L153.40051261867794,105.76833066988698L153.81315690279007,125.76710656186296L153.91631797381808,132.47224899921898L154.01947904484615,128.56566775284165L154.12264011587416,134.1933950832484L154.32896225793021,118.9414540029744L154.6384454710143,106.07334144166309L154.74160654204232,106.43628964497583L154.9479286840984,122.86418011614282L155.0510897551264,125.2195179893631L155.15425082615442,131.20266524415555L155.7732172523226,126.39373827722369L155.97953939437866,120.44781997778553L156.0827004654067,122.59171469891884L156.28902260746273,134.3488279558068L156.3921836784908,129.18331306712122L156.70166689157486,121.4107327660494L156.80482796260287,121.66941589936538L157.32063331774302,129.35651833306417L157.42379438877106,91.52517843496432L157.5269554597991,95.88838237391741L157.83643867288316,97.04483675908456L158.04276081493924,101.18356251377443L158.14592188596725,115.14479073092679L158.24908295699527,126.1896740114438L158.35224402802334,123.70820073778249L158.45540509905135,133.2811509818783L158.55856617007936,143.25275368298827L159.17753259624752,138.19226078358514L159.69333795138766,109.42360979058826L159.79649902241573,135.50528214499965L159.89966009344374,143.8785163157024L160.4154654485839,121.0329585455429L160.828109732696,115.18882209923697L161.03443187475204,126.15572262572645L161.13759294578006,122.57099993330083L161.5502372298922,118.02422786295091L161.9628815140043,106.12855521898682L162.6850090112005,88.50626526313347L162.89133115325654,78.8623756867881L163.2008143663406,92.96425957004695L163.4071365083967,94.95409489886143L163.51029757942473,105.04581523848569L163.81978079250882,98.9100573794294L163.92294186353683,106.70302788372248L164.1292640055929,116.12566157268034L164.23242507662093,119.7548746486723L164.541908289705,112.31511281279214L166.29564649718148,105.65550033756713L166.39880756820952,129.45755976642266L166.50196863923753,137.2343510054248L166.60512971026554,103.03720650741252L167.01777399437768,106.07318303992011L167.32725720746177,117.422323347704L167.43041827848978,124.95287569056731L167.73990149157387,120.81534948030163L167.84306256260192,114.3673783179915L167.94622363362993,119.364127777295L168.35886791774206,106.10671933941303L168.46202898877007,115.6483047923492L168.56519005979808,129.65692028082756L168.77151220185416,138.83238230736262L168.97783434391022,125.92435060852831L169.18415648596627,137.6904613464705L169.39047862802232,130.36259738992888L170.00944505419048,132.4915637560647L170.21576719624656,123.10117930844713L170.7315725513867,116.76771460874504L170.83473362241472,109.82098603765009L171.76318326166697,123.58347052752211L171.866344332695,106.43084431731387L173.00111611400334,109.01350971698196L173.41376039811541,131.62466231833608L173.51692146914348,128.2922532223182L173.82640468222755,123.83935502389502L173.92956575325556,119.94217159986995L174.23904896633965,100.90688561893715L174.44537110839573,104.10903697862996L174.54853217942374,92.53544229926864L174.65169325045176,118.2104816459194L175.37382074764795,126.93758014247143L175.476981818676,131.4797185327897L175.58014288970404,119.78831344176633L175.68330396073205,121.08302168782075L175.99278717381614,109.01918378622258L176.1991093158722,121.56115806431137L176.3022703869002,114.77656773852442L176.40543145792827,121.64309473081677L176.50859252895629,119.72581588444764L177.02439788409643,119.29748284663603L177.23072002615245,128.13328709463343L177.7465253812926,127.12848182787314L177.84968645232067,138.40974012723026L178.15916966540473,136.03196108092004L178.88129716260093,137.56337722871538L179.08761930465698,131.93604175585173L180.11923001493727,133.08254242662272L180.32555215699333,121.39118084537363L180.42871322802137,128.76371521178942L180.6350353700774,134.1726981612976L180.73819644110543,133.3731144232119L180.94451858316148,127.95491161335902L181.04767965418952,129.23446996877328L181.66664608035768,122.11104136368888L181.76980715138572,133.08777556662025L182.3887735775539,92.80341026853638L182.49193464858192,92.97142872327268L183.42038428783417,106.89004227515709L183.8330285719463,115.60956292199008L184.03935071400232,94.81457641894595L184.45199499811446,111.4437718936721L185.07096142428261,106.94667204620535L185.3804446373667,109.63284077035985L185.58676677942276,113.70102975059217L185.89624999250685,117.18047092721002L186.10257213456288,111.80235340418935L186.20573320559095,125.32140534045614L186.61837748970302,131.77797650197547L186.7215385607311,134.95638466910302L186.92786070278711,143.33085541051233L187.03102177381516,139.48777185963806L187.2373439158712,128.05159953075034L187.54682712895527,129.11880880371743L187.64998819998334,121.0080087008887L187.75314927101135,111.24648041284097L188.16579355512349,109.02394885111104L188.3721156971795,120.78952060520784L188.47527676820755,132.75964301203953L188.57843783923556,135.69702171572615L188.78475998129164,135.14577608243587L188.99108212334767,133.5790747860191L189.19740426540375,134.6914242500196L189.5068874784878,142.1807898171628L189.8163706915719,131.6668281940697L189.91953176259995,132.54676613539792L190.02269283362796,126.53249772799234L190.33217604671205,132.61683286199096L190.53849818876813,120.00865805956467L190.64165925979614,132.3877366663414L190.9511424728802,125.65654181511087L191.05430354390828,145.40093410503272L191.36378675699234,135.03220998186805L191.77643104110444,142.2464993229248L191.87959211213249,117.01896963425651L191.9827531831605,125.64354309777205L192.7048806803567,124.30457279686874L192.91120282241275,122.10077147946761L193.01436389344082,118.48046884495805L193.11752496446883,128.00670904327774L193.4270081775529,120.3151398123668L193.53016924858093,121.33214004119822L193.73649139063698,70.840275058659L194.14913567474912,95.84877078946636L194.25229674577713,112.74282890327244L194.35545781680514,129.56933832818433L194.66494102988923,128.03981313005636L195.07758531400137,121.36845914405895L195.18074638502938,119.92851519108982L195.38706852708543,123.25168214639712L195.49022959811347,95.6645203522197L195.5933906691415,101.72393368026057L195.69655174016953,102.99005342034556L195.9028738822256,112.8359079345799L196.21235709530967,114.66345503659662L196.31551816633768,121.15365361469917L196.41867923736572,118.31590562155651L196.52184030839376,45.41241825357426L196.93448459250587,76.92329185285764L197.0376456635339,103.33653310601129L197.55345101867402,115.89694072728555L197.75977316073008,124.00494912424067L197.86293423175815,109.06485778662766L197.96609530278616,113.77873132298089L198.37873958689826,117.82962517801622L198.68822279998233,128.28236757366352L198.8945449420384,110.94107144689816L199.20402815512247,98.59805668011595L199.30718922615048,87.43586369380883L199.41035029717855,86.07002418161301L199.51351136820657,105.11129581502172L199.6166724392346,113.04130717432072L199.82299458129066,121.4389022665883L200.0293167233467,115.21644584620003L200.3387999364308,129.2047946230882L200.44196100745884,128.5370040397485L200.64828314951487,131.3437832198543L200.7514442205429,133.54828338181835L200.85460529157095,129.26854346758782L201.164088504655,142.16296569263525L201.3704106467111,133.13846028732124L201.4735717177391,137.16680728124908L201.57673278876712,114.26760464207487L201.67989385979516,112.06703983492406L202.40202135699136,112.24172364169763L202.5051824280194,122.5320670142217L202.8146656411035,122.24837635803618L203.33047099624363,128.49938880964862L203.74311528035574,129.25932410399213L204.3620817065239,125.21449550486412L204.46524277755194,121.90280486704724L204.67156491960796,127.76687695688162L205.0842092037201,145.01050319940003L205.18737027474813,130.3556750496731L205.29053134577615,106.77601736861219L205.4968534878322,100.04054837267998L205.6000145588602,117.11794346512451L205.70317562988828,95.68206305344489L206.11581991400035,109.95324321828333L206.5284641981125,107.8908562030093L206.73478634016854,109.28871782955608L206.83794741119658,120.35204593875164L207.66323597942082,123.5728346168638L207.76639705044883,79.88040864546664L208.0758802635329,93.37736102737462L208.385363476617,94.57764017896993L208.79800776072912,112.63426478988767L209.00432990278514,110.75985862227064L209.41697418689728,116.22015766169008L209.93277954203742,134.8242760144569L210.03594061306543,123.36281648527131L210.44858489717754,110.25983552026155L210.5517459682056,112.09463790830462L210.86122918128967,124.55292721250085L210.96439025231768,108.49380809334379L211.06755132334575,112.79484832311338L211.37703453642982,117.90461181534398L211.6865177495139,122.9957136178112L211.78967882054192,123.13152468895645L211.99600096259798,82.95947235641265L212.20232310465406,98.80586000548988L212.30548417568207,104.39121264004454L212.40864524671008,105.21743207811019L213.1307727439063,98.09827982580028L213.33709488596233,95.62897345761806L213.44025595699037,115.02907182892167L214.05922238315856,127.08524228034393L214.16238345418657,124.8117633404026L214.2655445252146,128.46782861396315L214.36870559624262,124.89121650046911L214.47186666727066,133.53239193105387L214.6781888093267,140.35209298814235L214.9876720224108,138.22727627070242L215.709799519607,141.20112451206L215.81296059063502,89.84837396966805L215.91612166166308,121.38702128739358L216.8445713009153,127.63021829305569L217.1540545139994,129.95833205963064L217.2572155850274,134.57617470238088L217.66985986913954,141.22207731678253L217.77302094016756,127.8172121094143L217.8761820111956,129.3287853983716L217.97934308222364,140.01184783591594L218.2888262953077,129.0438974436819L218.39198736633574,119.8057636085404L218.49514843736378,106.13247270133908L218.5983095083918,81.99852075829004L219.0109537925039,103.96016537678315L219.11411486353194,106.75049343010744L219.21727593455995,115.8824419811619L219.52675914764404,123.50630394141405L219.7330812897001,131.87155905766338L219.93940343175618,121.45596364601631L220.1457255738122,120.18566865152238L220.24888664484024,129.55903199131794L220.35204771586828,122.09843684309202L220.55836985792433,129.60424150468796L220.66153092895235,118.31994442413998L221.1773362840925,124.35477772557738L221.48681949717658,124.20506581642077L221.69314163923264,132.6789669215049L222.00262485231673,127.94568872692479L222.31210806540082,127.71625961967294L222.41526913642883,123.02071281483997L222.62159127848489,121.69581070295007L222.82791342054097,131.1161446300142L223.44687984670912,127.61298870998091L223.55004091773714,124.39018866431651L223.75636305979322,73.09562207360315L223.96268520184927,109.89595779741819L224.89113484110152,118.41885820041932L224.99429591212953,134.14980914142322L225.09745698315754,149.00633948781658L225.2006180541856,138.09454043202766L226.43855090652193,121.90477907088709L226.644873048578,103.26962895108736L226.85119519063406,111.3830831531725L227.05751733269008,107.3804347903663L227.47016161680222,104.0834486280597L227.57332268783023,111.44446192932905L227.6764837588583,107.45513835202242L227.7796448298863,119.80801106498855L227.88280590091432,122.43312662693654L227.98596697194236,116.36182151646636L228.08912804297037,108.72921343254535L228.29545018502645,119.13495242089677L228.39861125605447,112.8791097533557L228.50177232708248,134.28622857117955L228.70809446913856,133.93550490013686L229.2238998242787,121.5734953489645L229.53338303736277,126.95619668704134L229.73970517941885,132.07677636721087L229.84286625044686,137.78380064200906L230.0491883925029,138.33453003728104L230.358671605587,134.07083264623742L230.6681548186711,145.66184017124868L230.87447696072715,141.35923439214673L231.18396017381124,130.07486498714218L231.4934433868953,125.74019296647442L231.59660445792335,127.65954889355122L231.9060876710074,130.60744236906663L232.1124098130635,134.4972416027767L232.2155708840915,109.65245408511662L233.04085945231574,111.12904243461006L233.14402052334378,107.87852407834635L233.3503426653998,112.99235669123027L233.86614802053995,104.11611160365993L234.3819533756801,111.03612873269921L234.48511444670814,108.06393150491424L234.58827551773618,127.99644572862952L234.7945976597922,132.49807529980345L234.89775873082024,136.4822050557603L235.1040808728763,117.05089380270971L235.31040301493235,105.50945429107576L235.61988622801644,112.8576155257697L235.72304729904448,133.58736436820132L236.13569158315659,144.07360182519926L236.65149693829673,141.23518704695474L236.85781908035278,130.2394290798197L237.47678550652097,142.04505656725684L237.57994657754898,140.12962459970612L237.683107648577,124.94197840500725L237.78626871960503,137.3901740838168L237.88942979063307,138.8403892433552L238.19891300371714,107.45679521602467L238.40523514577322,113.3045183504136L238.71471835885728,123.2659685764123L238.8178794298853,119.62552075409282L239.1273626429694,129.17684322460315L239.33368478502547,153.0436998066642L239.54000692708152,143.81692125083757L239.64316799810953,124.05706788914402L239.74632906913757,101.4645243268775L240.15897335324968,106.07469971471802L240.5716176373618,122.81293082917466L240.67477870838982,131.6206884708596L240.77793977941784,129.99323244002093L241.19058406352997,135.05934995121507L241.293745134558,124.55949588407425L241.50006727661406,127.49739854181719L241.60322834764207,128.06358001844615L241.80955048969815,129.99595015461963L241.91271156072617,131.9334739808965L242.0158726317542,133.1231525133089L242.22219477381023,143.8563497651567L242.3253558448383,132.71233556348582L242.4285169158663,142.13185932313814L242.53167798689432,136.16881708324576L242.84116119997842,135.2934939682922L243.04748334203447,132.32032356305007L243.15064441306248,119.92875863309668L243.7696108392307,135.07290377670495L243.8727719102587,153.20088732696715L243.97593298128672,145.70462005957867L244.38857726539885,143.8891348456004L244.5948994074549,152.3143438141135L244.80122154951096,150.78732111038983L245.2138658336231,103.12707380670108L245.93599333081926,117.88032023312756L246.24547654390335,113.9881268793696L246.4517986859594,99.77445194038113L246.65812082801548,113.86190665813311L246.7612818990435,119.93072243581554L246.96760404109955,122.93123941806599L247.17392618315563,120.51633305927002L247.38024832521165,99.17570303786678L247.4834093962397,104.06721815552903L247.5865704672677,113.34073972925563L247.8960536803518,123.26114039786425L247.9992147513798,113.54898518239058L248.30869796446393,125.99545671958005L248.41185903549194,113.11672787579228L248.72134224857604,114.97709941088421L249.0308254616601,125.70300565013447L249.4434697457722,124.10903856317478L250.06243617194042,130.74859229631573L250.16559724296843,131.31861320229822L250.4750804560525,99.47945997665197L250.57824152708054,121.48594393482475L250.7845636691366,123.92544000977931L250.99088581119264,128.66685814676234L251.09404688222068,125.04749256414765L251.30036902427673,113.61964543914392L251.40353009530475,117.0452746566528L251.60985223736083,106.5390024306416L251.71301330838884,112.08559963004141L251.81617437941688,117.5364449286828L251.9193354504449,122.78713258966482L252.12565759250097,119.958472373961L252.33197973455702,127.74100102877173L252.43514080558504,131.95437206187475L252.84778508969714,141.6896453885315L252.95094616072518,128.2166035569019L253.15726830278123,128.00926660212173L253.4667515158653,128.11035964005342L253.67307365792138,83.35861160980161L253.98255687100547,101.1103345186206L254.60152329717366,102.4104803813853L255.2204897233418,121.55362486110015L255.63313400745392,119.65305207604918L255.942617220538,125.46025882995562L256.4584225756782,127.60143296884861L256.6647447177342,121.98020052648167L256.9742279308183,133.0591412850091L257.59319435698643,146.6724405660267L257.6963554280145,151.7785290225174L257.9026775700706,150.3249684197908L258.2121607831546,140.10568137890027L258.5216439962387,132.63198190561883L258.6248050672667,128.44618238003204L258.72796613829473,135.74652013866879L259.656415777547,128.27174377308555L259.759576848575,122.02462402138259L259.8627379196031,110.26877443446439L259.9658989906311,103.89432818380487L260.1722211326871,122.37357232583979L260.3785432747432,139.78691265983917L260.6880264878273,135.02767592986547L260.7911875588553,124.57142118762627L261.2038318429674,124.13416190136695L261.4101539850235,127.32300751474891L261.5133150560515,-2.3180567166157786L261.6164761270795,49.77379931877396L261.7196371981076,79.78379274315631L262.5449257663318,102.27182657879128L263.4733754055841,115.49575675420263L263.6796975476401,121.82631269054555L263.9891807607242,120.39070485160234L264.50498611586437,97.57393542096727L264.81446932894846,107.84078883547299L264.9176303999765,117.20741186617198L265.22711361306057,127.75778889069906L265.3302746840886,128.49295524573918L265.6397578971726,122.53278195701346L265.94924111025676,133.40371144552347L266.1555632523128,120.00754593985293L266.36188539436887,117.84513076316755L266.67136860745296,124.45787532191146L266.980851820537,126.71940629047626L267.084012891565,129.79511319768977L267.1871739625931,141.61783327564584L267.39349610464916,144.0771306171494L268.21878467287337,154.03884671188297L268.4251068149294,130.6979644093165L268.6314289569855,137.11880611428617L268.83775109904155,132.7460094997719L269.35355645418167,108.66492209984038L269.8693618093218,109.98854462091126L270.28200609343395,135.27776691392262L270.69465037754605,126.0770531883949L270.79781144857407,121.36366763749226L270.9009725196021,127.94047564352424L271.3136168037142,135.14257405608768L271.41677787474225,130.24247018292866L271.51993894577026,142.2675600190594L271.6231000167983,134.77673318317773L271.93258322988237,130.33389814377853L272.4483885850225,137.799373458863L272.7578717981066,141.473651867426L272.96419394016266,152.37592566481032L273.37683822427476,135.25828605275464L273.4799992953028,145.51045744317207L273.58316036633084,136.52184555883406L273.68632143735886,143.2845659343997L273.8926435794149,143.97375741175364L274.09896572147096,140.14948172268888L274.40844893455505,142.2059870298115L274.71793214763915,127.44499481400322L274.82109321866716,137.60156487000273L275.02741536072324,112.10272679454815L275.23373750277926,120.53649327056185L275.9558649999755,111.75386004633202L276.26534821305955,104.01460611793921L276.36850928408757,106.14429405037293L276.57483142614365,120.27188409932663L276.78115356819967,128.59410058776746L276.98747571025575,129.37399534862126L277.09063678128376,114.32447983947156L277.29695892333984,115.87113119792299L277.60644213642394,117.82706498615181L277.81276427847996,106.32399405814245L278.12224749156405,116.95335319987709L278.32856963362013,94.47671028102293L278.43173070464815,116.79660516639498" fill="none"></path></g></g></g></g><g opacity="0.2"><g><g><g><path style="fill: none;" stroke="rgb(255, 112, 67)" stroke-width="2px" d="M25.274462401866913,-26.635580260064895L25.48078454392297,13.368518069529365L25.687106685979025,-2.707582563316464L26.409234183175222,-15.9604217028113L26.512395254203252,1.4999993451060882L27.13136168037142,-591.5572591812554L27.337683822427476,72.57802389794504L27.440844893455505,20.91359215861326L27.544005964483535,-81.25042323332995L27.64716703551156,-10.475969864316262L27.956650248595643,1.7133686744189658L28.059811319623673,28.311487359691842L28.162972390651703,15.79972667485081L28.26613346167973,-44.70969438502534L28.781938816819874,16.52567723227446L29.297744171960012,23.721254480677114L29.607227385044098,29.217794498734587L29.710388456072124,-2.0865847383897282L30.329354882240295,27.27169184400002L31.154643450464523,-15.299648347472612L31.464126663548605,-13.927015529014987L31.567287734576635,0.4616647789910109L32.28941523177283,-0.6855105305913586L32.598898444856914,43.4517790975259L32.805220586912974,64.97531299168838L33.52734808410917,66.72758062677329L33.6305091551372,3.776747878241352L33.93999236822128,95.86994299994228L34.04315343924931,43.76173604482369L34.76528093644551,39.26139869218432L34.971603078501566,34.87781948717004L35.177925220557626,66.07910752432265L35.281086291585645,33.40171844949507L35.38424736261368,-18.03501722919063L36.106374859809875,59.6307588570178L36.62218021495001,-41.25063706135738L36.82850235700607,-9.935771976464498L36.931663428034106,32.191392416272905L37.03482449906213,62.51672336365446L37.34430771214621,-19.553697877916736L37.653790925230304,35.47494728110903L37.86011306728635,70.10418855416673L37.96327413831438,31.900851960124058L38.27275735139847,62.55303502974734L38.89172377756664,50.87151785114706L38.994884848594666,51.903560908601L39.20120699065072,92.71801497923002L39.51069020373481,95.58496357766622L39.71701234579086,83.93952242813029L39.82017341681889,59.996679598585956L40.02649555887495,91.54130256812437L40.23281770093101,47.866580208817325L40.335978771959034,15.97021006497546L41.05810626915523,65.28088709025596L41.883394837379456,30.974539237361093L41.98655590840748,79.44700822483733L42.089716979435515,76.77302278904536L42.50236126354762,83.04912078851176L43.53397197382791,62.99617402555718L43.637133044855936,103.75608990593832L43.84345518691199,104.76733799562653L44.04977732896805,41.11124362077385L44.25609947102411,59.613180334691194L44.565582684108186,86.99294238907528L44.66874375513621,107.34970775473508L44.771904826164246,93.97527990853075L45.08138803924833,83.35230317124001L46.112998749528614,90.45168160275477L46.319320891584674,68.57415020066658L46.93828731775284,93.12825904586032L47.24777053083692,107.83146765951717L47.35093160186495,71.13783394341452L47.454092672892976,89.61632477299543L47.55725374392101,15.657873183689732L47.76357588597707,59.857818697686916L48.176220170089174,15.675828725261935L48.38254231214523,74.8271557713393L48.588864454201286,68.89626601863533L48.795186596257345,82.62132176325773L49.31099195139748,83.1253964946394L49.929958377565654,93.04419553594053L50.65208587476185,49.6042854755405L50.75524694578988,68.79824101477651L51.27105230093002,67.90062888208567L51.37421337195805,74.91309259563573L51.683696585042135,115.3307103465565L51.78685765607017,57.45790268975118L51.89001872709819,110.30213368526206L52.302663011210306,106.04004893214588L52.40582408223834,99.16584524507216L52.612146224294385,91.38610023929837L52.92162943737848,62.146655410384575L53.33427372149058,78.76860921976633L53.437434792518616,87.63795162720687L53.54059586354664,136.90820512024703L53.643756934574675,114.48958040959874L53.85007907663073,52.725132972192704L54.15956228971481,113.78065462748471L54.26272336074284,88.50569676653447L54.36588443177087,66.78861061715652L54.67536764485495,106.3315555001116L54.984850857939044,23.021011923063565L55.60381728410721,95.86113017507614L55.81013942616327,100.23867707216064L56.119622639247346,120.61860555772265L56.22278371027538,141.94727941116145L56.42910585233144,69.23294420496579L56.53226692335946,91.41369333533653L57.0480722784996,107.19464680812621L57.15123334952764,125.11935527516194L57.56387763363975,101.51855137434659L57.7701997756958,87.29525291479804L58.079682988779886,128.49070849681965L58.492327272892005,35.627545820770024L58.90497155700411,106.76379628335299L59.11129369906017,123.35945300035341L59.52393798317228,136.0754167340984L59.62709905420031,52.85956389695582L59.73026012522834,79.53638534974996L59.93658226728439,77.73588281492974L60.45238762242454,119.24365171453424L60.55554869345256,107.01434913576425L60.96819297756468,93.26747340230213L61.07135404859271,96.43999609930586L61.174515119620736,99.83776423185923L62.20612582990101,113.97537328599128L62.72193118504115,118.82159045092433L63.444058682237355,85.26840923224566L63.54721975326538,114.18749373905307L64.06302510840553,41.06970081264812L64.16618617943355,50.058334465770194L64.3725083214896,117.68979045745205L64.57883046354566,122.9740215128249L64.99147474765778,89.53977808428499L65.91992438691003,75.13770181120837L66.12624652896609,88.46562668983691L66.22940759999412,50.97213486231944L66.5388908130782,53.82098653696628L67.15785723924637,99.8168278818764L67.98314580747059,93.99798353622737L68.08630687849862,85.80793555456617L68.18946794952664,74.55786977516178L68.39579009158271,85.66205267021762L68.49895116261074,89.60381244678172L68.80843437569482,92.90701943979532L68.91159544672284,42.181035730194594L69.42740080186299,122.58580950835999L69.53056187289101,96.3839851776298L70.66533365419933,11.442114670377967L70.97481686728341,141.2696815719874L71.07797793831145,114.58647435572072L71.28430008036749,124.76015018890621L71.49062222242355,101.88660463102273L71.80010543550765,127.92309424070113L72.93487721681595,72.8742903338866L73.34752150092807,95.91106166141671L73.4506825719561,92.88131143998521L73.65700471401215,127.15748597137981L73.96648792709622,34.7095275214105L74.17281006915229,118.11094451850218L74.68861542429242,131.71309198905547L74.79177649532046,18.40966596629462L75.41074292148862,90.58213026173613L75.61706506354469,86.6235224376338L75.7202261345727,58.52986265983416L75.82338720560074,-41.647638326985586L75.92654827662876,68.62813464389747L76.0297093476568,108.38027808076086L76.13287041868482,54.682074930238585L76.33919256074088,89.28388805317809L76.54551470279694,-38.88269699818998L77.06132005793708,87.13505508096773L77.16448112896511,109.77090178634498L77.26764219999313,90.49056171245839L77.4739643420492,111.64048131607197L77.8866086261613,84.09102525560873L78.09293076821736,-61.505383375525156L78.29925291027341,85.37416313063947L78.71189719438553,27.68848662002279L78.81505826541355,-62.49842850476121L78.91821933644158,93.13769630885201L79.3308636205537,75.32053258162678L79.74350790466582,127.84798493786461L79.84666897569383,116.00074423711551L80.15615218877792,103.32406119602258L80.36247433083398,67.44820578735269L80.46563540186202,85.76090240367621L80.56879647289003,95.38104329319644L80.67195754391807,127.40274877250108L80.7751186149461,73.67807180182606L80.87827968597414,35.521886177187596L81.08460182803017,124.45681464210944L81.18776289905821,126.81697868333609L81.70356825419834,31.63026996028973L81.80672932522637,127.06272454036579L82.11621253831046,102.55247952802858L82.21937360933849,69.03258203962649L82.52885682242257,123.52728547390737L82.73517896447862,83.26046363937948L83.14782324859074,75.75403402297069L83.3541453906468,128.36666916501372L83.56046753270286,74.17003478994248L83.76678967475891,85.50773398024856L84.076272887843,127.71991621287118L84.48891717195511,113.33264972703621L84.59207824298313,141.0461798504487L84.7984003850392,125.36487727701456L85.10788359812328,71.94604538748989L85.5205278822354,138.3933664016681L86.03633323737554,133.87798362475854L86.75846073457174,115.7984262844396L86.86162180559975,99.02910507742968L87.06794394765582,87.63812835497825L87.17110501868383,57.46308670437832L87.27426608971187,101.71716982567496L87.3774271607399,101.93327254451852L87.58374930279595,94.77231037560348L87.89323251588003,104.94011884677911L88.30587679999215,82.00202052493623L88.40903787102017,128.8869792876595L88.8216821551323,148.02449975856817L89.13116536821637,151.34648702275373L89.54380965232849,86.71026042782714L89.85329286541257,144.32829732941096L89.95645393644061,127.55109406379752L90.05961500746864,142.01057151701838L90.16277607849666,120.44045218232012L90.26593714952469,115.1069494242865L90.47225929158074,111.41518875311665L90.57542036260877,136.73412826543768L90.67858143363681,-50.99356840643245L90.88490357569286,149.29514887108806L90.98806464672089,85.21078419692431L91.09122571774891,102.74466508847873L91.19438678877695,103.15331860516658L91.400708930833,121.40272311563322L91.60703107288904,129.39121896496115L91.71019214391708,84.78734445669765L92.43231964111328,50.06017243459255L92.74180285419736,80.39270209319497L92.8449639252254,96.03472397397707L92.94812499625343,89.87286280593075L93.15444713830948,122.12366638620111L93.46393035139356,113.31113606633353L93.67025249344962,117.43605650515595L93.87657463550568,135.905133635448L94.28921891961778,114.53984178777924L94.7018632037299,54.65778075259953L95.01134641681398,83.43329161793777L95.11450748784202,135.50312508296403L95.21766855887005,129.79705661915835L95.32082962989807,125.55648552674484L95.4239907009261,98.28908698940418L95.93979605606624,127.19793306732299L96.55876248223441,130.83329401571973L96.76508462429047,67.39405639820181L96.86824569531849,118.79002687095586L96.97140676634652,113.58217755837344L97.28088997943061,-17.638934947973574L97.59037319251469,117.55916507069931L97.69353426354272,111.72284823938651L98.00301747662681,123.45946913710311L98.10617854765484,131.4674168231343L98.20933961868286,126.48275112210209L98.41566176073891,82.35005641604073L98.62198390279497,123.87229342919554L99.24095032896315,125.6320307580841L99.55043354204723,108.60098750351172L99.65359461307524,109.19597100049131L99.96307782615935,146.3413444639443L100.06623889718736,108.27631502378367L100.1693999682154,113.24612381016853L100.37572211027145,100.25541908303603L100.47888318129948,108.4012262125951L101.09784960746765,113.99811225924218L101.51049389157976,133.89645756779348L101.6136549626078,111.37693308153857L101.81997710466385,135.41205137144615L102.0262992467199,148.63520024534915L102.23262138877597,62.30347185285582L102.33578245980398,70.09907523064813L102.43894353083202,145.90970455512561L102.54210460186005,135.2632819334984L102.64526567288807,99.9985393764094L102.95474888597217,117.29122220558425L103.16107102802822,155.61105774652066L103.36739317008427,108.87406725584822L103.67687638316836,83.65937356493859L103.88319852522442,80.15089137454133L103.98635959625244,129.31111415712024L104.08952066728048,104.07383465702829L104.50216495139257,125.08104069432673L104.70848709344864,116.26489334607159L104.81164816447668,118.75065192349237L105.01797030653272,89.8291285734399L105.32745351961681,142.1161840331951L105.74009780372891,103.20215437932461L106.04958101681301,103.379777571413L106.35906422989709,116.45583003027063L106.46222530092511,123.20049226092274L106.66854744298116,160.8733392126881L106.87486958503723,108.01985946380833L107.08119172709328,121.62596563644051L107.59699708223343,133.37975269168382L107.90648029531751,105.09829020216429L108.00964136634555,45.305889056331424L108.11280243737357,81.1195127257727L108.42228565045765,136.49612308479442L109.24757421868189,-21.68159450014427L109.3507352897099,83.10939674040381L109.45389636073794,127.78711989340131L109.66021850279398,126.08131988033797L110.0728627869061,119.85458783834375L110.27918492896217,137.11973648073757L110.38234599999018,139.50877783980772L110.7949902841023,162.349216395186L111.00131242615836,125.98493255382728L111.10447349718638,101.46343587337886L111.41395671027048,75.39775083586845L111.62027885232654,126.95883217449719L111.82660099438257,36.21546020689441L112.13608420746668,62.61095461135431L112.34240634952272,135.55117147307655L112.44556742055076,152.05875885067258L112.65188956260681,156.73256040184722L112.75505063363484,122.97166514253982L113.06453384671892,104.22451275490694L113.37401705980301,102.91322803682101L113.47717813083104,96.26600171745645L114.19930562802723,70.77469371878274L114.30246669905527,105.91062529423853L114.40562777008329,124.89335580112109L114.50878884111131,109.41999112349272L114.71511098316738,141.53790720153665L114.8182720541954,103.26922845948907L115.02459419625146,72.50497641910795L115.1277552672795,111.65465488333666L115.23091633830751,120.9833481141483L115.5403995513916,121.34958696570493L115.64356062241963,101.51304924973097L115.74672169344765,59.16136989623231L115.8498827644757,168.4396088524862L116.05620490653175,97.1186071777025L116.6751713326999,109.49283831085559L116.77833240372794,145.93097079694832L117.08781561681202,130.14638851391965L117.80994311400822,106.48470778678957L118.1194263270923,82.50809817106021L118.8415538242885,79.94330693427828L118.94471489531654,77.8588146527017L119.04787596634456,125.53842394850979L119.25419810840062,95.49218149769167L119.35735917942864,104.50441419921867L119.46052025045668,116.21084999358357L119.77000346354076,137.2968177076604L119.87316453456879,103.43172375434733L120.07948667662484,74.00782225951842L120.2858088186809,138.44184872028336L120.38896988970892,98.78914410944981L120.80161417382104,76.79630372746183L120.90477524484908,159.6506304536179L121.31741952896118,128.53500825817895L121.42058059998921,95.85787838408274L121.52374167101723,75.29760509875307L121.62690274204527,53.828668304095615L121.93638595512935,137.7905833190449L122.03954702615738,126.22412770146448L122.14270809718542,79.2757001051129L122.4521913102695,106.19171670554427L122.55535238129751,124.11906430729928L123.38064094952175,116.79958910930773L123.79328523363385,148.76037063489193L123.9996073756899,114.02737837818272L124.20592951774597,107.30000012357159L124.30909058877401,47.452589513433786L124.61857380185809,124.67770079263168L124.7217348728861,107.54632329132114L124.92805701494217,129.2624904562879L125.03121808597021,131.0710282137802L125.13437915699822,126.42124985766182L125.23754022802625,148.63812214450263L125.54702344111034,107.32468310230766L126.37231200933456,96.85455232355783L126.57863415139062,90.99852445481042L126.78495629344668,111.95153397555232L126.99127843550274,102.57361616948565L127.09443950653076,95.20829778759813L127.19760057755879,97.34360519437219L127.40392271961484,113.78225695927854L127.6102448616709,128.75178254255374L127.71340593269892,107.90550481387399L127.81656700372696,107.62542664179087L128.12605021681105,145.8789657047569L128.3323723588671,127.94624557875196L129.0544998560633,50.36150506664701L129.1576609270913,137.64600822020458L129.4671441401754,105.1502246032472L129.6734662822315,99.510511526669L130.29243270839964,112.24544404120884L130.39559377942766,121.8796053339252L130.6019159214837,115.56804396166854L130.80823806353976,77.18995894728523L131.2208823476519,104.35420737539705L131.633526631764,147.52830708579L131.83984877382005,121.64135273440202L132.0461709158761,130.33077448872618L132.3556541289602,124.82946282084147L132.45881519998824,102.68720499907734L132.56197627101625,84.37629922417045L132.6651373420443,116.15414394267341L133.28410376821245,144.41774514543212L133.3872648392405,123.23875971435226L134.00623126540864,146.0618907299867L134.2125534074647,81.85060017041778L134.41887554952078,134.9517462181096L134.5220366205488,87.86450484826472L134.62519769157683,91.39307509534217L135.55364733082908,107.02429301836723L135.75996947288513,107.27753213290346L136.06945268596922,118.48202571099463L136.48209697008133,105.18736099893985L136.68841911213738,160.26530142432927L136.79158018316542,114.76280154415235L137.20422446727753,123.40038315220504L137.30738553830557,99.48579320237866L137.51370768036162,121.93219951868791L137.61686875138963,107.63603030807367L137.72002982241767,99.70479425667286L138.02951303550176,170.66774546664053L138.13267410652978,98.23087286151159L139.16428481681007,148.12893408960235L139.37060695886612,100.52294958335119L139.47376802989416,130.13971998601292L139.78325124297822,69.69380310531933L139.88641231400626,106.2782190587091L139.9895733850343,109.59806202593526L140.29905659811837,114.71477871774266L140.4022176691464,115.3545096864357L140.50537874017442,116.91633547508141L142.05279480559486,14.74878552771061L142.36227801867895,104.985903121418L142.56860016073497,84.30516040526425L142.671761231763,145.06090463288993L142.8780833738191,84.03208065292775L142.9812444448471,113.17773016264444L143.2907276579312,116.47305509705447L143.6002108710153,96.17695448438376L143.7033719420433,94.86879195692559L143.80653301307132,128.44009366309643L143.90969408409936,90.42722247919578L144.1160162261554,151.5247817803734L144.3223383682115,124.35730512497102L144.5286605102675,133.97498360754335L144.7349826523236,108.254247616064L144.8381437233516,135.19100027500397L145.04446586540766,110.63045853893198L145.25078800746374,79.25885205757467L145.4571101495198,97.29095210035234L145.5602712205478,121.51508663267664L145.66343229157584,89.31223518770744L145.76659336260388,70.38909728533426L145.8697544336319,148.1215115232044L146.9013651439122,141.32300623153847L147.3140094280243,121.68734908236652L147.72665371213643,99.77462529007084L147.82981478316444,116.23669937561075L147.93297585419245,96.95825617980366L148.13929799624853,129.32295491780275L148.4487812093326,135.8793667263808L148.7582644224167,96.9010435092822L148.96458656447274,101.51333201416514L149.17090870652882,121.70103959372277L149.27406977755683,114.16786517457845L149.48039191961288,135.7689472148225L149.893036203725,88.00824343565382L149.996197274753,58.92540297588564L150.09935834578107,112.2743095772009L150.30568048783712,132.74737359828023L150.40884155886513,136.1696597636497L150.71832477194923,147.81235574180351L150.82148584297724,159.74807814675688L150.92464691400528,109.10150411576296L151.02780798503332,77.31703799675896L151.23413012708937,74.30279269180319L151.74993548222952,154.7514185209737L152.0594186953136,67.26238242667223L152.57522405045373,113.99033623730145L152.78154619250978,93.14152541056524L153.1941904766219,105.7025813617699L153.40051261867794,111.02484423354376L153.81315690279007,155.76527039982693L153.91631797381808,142.529962655253L154.01947904484615,122.70579588327564L154.12264011587416,142.63498607885847L154.32896225793021,96.06354238256344L154.6384454710143,86.77117259969614L154.74160654204232,106.9807119499449L154.9479286840984,147.5060158228933L155.0510897551264,128.75252479919354L155.15425082615442,140.17738612634426L155.7732172523226,119.1803478268259L155.97953939437866,111.52894252862829L156.0827004654067,125.80755678061878L156.28902260746273,151.98449784113865L156.3921836784908,121.4350407340929L156.70166689157486,109.75186231444164L156.80482796260287,122.05744059933927L157.32063331774302,140.88717198361235L157.42379438877106,34.77816858781453L157.5269554597991,102.43318828234703L157.83643867288316,98.77951833683532L158.04276081493924,107.39165114580928L158.14592188596725,136.08663305665533L158.24908295699527,142.75699893221926L158.35224402802334,119.98599082729052L158.45540509905135,147.64057634802208L158.55856617007936,158.2101577346532L159.17753259624752,130.60152143448047L159.69333795138766,66.27063330109294L159.79649902241573,174.62779067661674L159.89966009344374,156.43836757175652L160.4154654485839,86.76462189030364L160.828109732696,106.42261742977806L161.03443187475204,142.60607341546068L161.13759294578006,117.19391589466241L161.5502372298922,111.20406975742601L161.9628815140043,88.28504625304075L162.6850090112005,62.07283032935341L162.89133115325654,64.39654132227005L163.2008143663406,114.11708539493524L163.4071365083967,97.93884789208315L163.51029757942473,120.18339574792208L163.81978079250882,89.70642059084498L163.92294186353683,118.39248364016207L164.1292640055929,130.25961210611712L164.23242507662093,125.19869426266014L164.541908289705,101.15547005897193L166.29564649718148,95.66608162472967L166.39880756820952,165.16064890970597L166.50196863923753,148.89953786392803L166.60512971026554,51.74148976039405L167.01777399437768,110.62714783868145L167.32725720746177,134.4460338093798L167.43041827848978,136.2487042048623L167.73990149157387,114.6090601649031L167.84306256260192,104.69542157452629L167.94622363362993,126.85925196625021L168.35886791774206,86.22060668259007L168.46202898877007,129.96068297175344L168.56519005979808,150.66984351354512L168.77151220185416,152.59557534716527L168.97783434391022,106.56230306027688L169.18415648596627,155.3396274533837L169.39047862802232,119.37080145511648L170.00944505419048,135.6850133052684L170.21576719624656,109.0156026370208L170.7315725513867,107.26751755919193L170.83473362241472,99.40089318100767L171.76318326166697,144.22719726233012L171.866344332695,80.70190500200155L173.00111611400334,112.88750781648407L173.41376039811541,165.5413912203672L173.51692146914348,123.29363957829146L173.82640468222755,117.16000772626026L173.92956575325556,114.09639646383235L174.23904896633965,72.35395664753796L174.44537110839573,108.91226401816917L174.54853217942374,75.1750502802267L174.65169325045176,156.72304066589555L175.37382074764795,140.02822788729947L175.476981818676,138.29292611826708L175.58014288970404,102.25120580523125L175.68330396073205,123.02508405690233L175.99278717381614,90.92342693382534L176.1991093158722,140.37411948144455L176.3022703869002,104.59968224984398L176.40543145792827,131.94288521925526L176.50859252895629,116.84989761489392L177.02439788409643,118.65498328991862L177.23072002615245,141.3869934666295L177.7465253812926,125.62127392773277L177.84968645232067,155.33162757626593L178.15916966540473,132.46529251145475L178.88129716260093,139.86050145040835L179.08761930465698,123.49503854655623L180.11923001493727,134.8022934327792L180.32555215699333,103.85413847349999L180.42871322802137,139.82251676141306L180.6350353700774,142.28617258555988L180.73819644110543,132.17373881608333L180.94451858316148,119.8276073985797L181.04767965418952,131.15380750189462L181.66664608035768,111.42589845606228L181.76980715138572,149.55287687101733L182.3887735775539,32.37686232141059L182.49193464858192,93.22345640537705L183.42038428783417,127.7679626029837L183.8330285719463,128.6888438922396L184.03935071400232,63.622096664379704L184.45199499811446,136.38756510576133L185.07096142428261,100.20102227500524L185.3804446373667,113.66209385659154L185.58676677942276,119.80331322094067L185.89624999250685,122.39963269213679L186.10257213456288,103.73517711965833L186.20573320559095,145.5999832448563L186.61837748970302,141.4628332442544L186.7215385607311,139.7239969197944L186.92786070278711,155.8925615226263L187.03102177381516,133.72314653332674L187.2373439158712,110.89734103741876L187.54682712895527,130.71962271316806L187.64998819998334,108.84180854664564L187.75314927101135,96.6041879807694L188.16579355512349,105.6901515085162L188.3721156971795,138.43787823635301L188.47527676820755,150.71482662228706L188.57843783923556,140.10308977125607L188.78475998129164,134.3189076325004L188.99108212334767,131.229022841394L189.19740426540375,136.35994844602035L189.5068874784878,153.4148381678776L189.8163706915719,115.89588575942999L189.91953176259995,133.8666730473902L190.02269283362796,117.51109511688392L190.33217604671205,141.74333556298885L190.53849818876813,101.09639585592527L190.64165925979614,150.9563545765065L190.9511424728802,115.55974953826508L191.05430354390828,175.01752253991552L191.36378675699234,119.47912379712105L191.77643104110444,153.06793333450995L191.87959211213249,79.1776751012541L191.9827531831605,138.58040329304532L192.7048806803567,122.29611734551376L192.91120282241275,118.79506950336591L193.01436389344082,113.05001489319378L193.11752496446883,142.29606934075719L193.4270081775529,108.77778596600035L193.53016924858093,122.8576403844454L193.73649139063698,-4.89752241514984L194.14913567474912,133.3615143856774L194.25229674577713,138.08391607398158L194.35545781680514,154.80910246555214L194.66494102988923,125.74552533286437L195.07758531400137,111.36142816506283L195.18074638502938,117.76859926163611L195.38706852708543,128.236432579358L195.49022959811347,54.28377766095359L195.5933906691415,110.81305367232187L195.69655174016953,104.8892330304731L195.9028738822256,127.60468970593138L196.21235709530967,117.40477568962167L196.31551816633768,130.888951481853L196.41867923736572,114.05928363184253L196.52184030839376,-63.94281279839915L196.93448459250587,124.18960225178276L197.0376456635339,142.9563949857417L197.55345101867402,134.73755215919695L197.75977316073008,136.1669617196733L197.86293423175815,86.6547207802081L197.96609530278616,120.84954162751072L198.37873958689826,123.90596596056916L198.68822279998233,143.96148116713448L198.8945449420384,84.92912725675016L199.20402815512247,80.08353452994268L199.30718922615048,70.69257421434813L199.41035029717855,84.02126491331929L199.51351136820657,133.67320326513473L199.6166724392346,124.93632421326929L199.82299458129066,134.03529490498966L200.0293167233467,105.88276121561762L200.3387999364308,150.1873177884204L200.44196100745884,127.53531816473897L200.64828314951487,135.55395199001293L200.7514442205429,136.8550336247645L200.85460529157095,122.84893359624206L201.164088504655,161.50459903020632L201.3704106467111,119.60170217935027L201.4735717177391,143.20932777214085L201.57673278876712,79.91880068331359L201.67989385979516,108.76619262419781L202.40202135699136,112.50374935185796L202.5051824280194,137.96758207300778L202.8146656411035,121.82284037375794L203.33047099624363,137.87590748706722L203.74311528035574,130.39922704550742L204.3620817065239,119.1472526061721L204.46524277755194,116.93526891032192L204.67156491960796,136.5629850916332L205.0842092037201,170.8759425631777L205.18737027474813,108.37343282508273L205.29053134577615,71.40653084702079L205.4968534878322,89.93734487878164L205.6000145588602,142.73403610379128L205.70317562988828,63.52824243592547L206.11581991400035,131.3600134655409L206.5284641981125,104.79727568009832L206.73478634016854,111.38551026937621L206.83794741119658,136.94703810254495L207.66323597942082,128.40401763403204L207.76639705044883,14.34176968837087L208.0758802635329,113.62278960023659L208.385363476617,96.37805890636287L208.79800776072912,139.71920170626427L209.00432990278514,107.94824937084513L209.41697418689728,124.41060622081928L209.93277954203742,162.7304535436071L210.03594061306543,106.1706271914929L210.44858489717754,90.6053640727469L210.5517459682056,114.8468414903693L210.86122918128967,143.2403611687952L210.96439025231768,84.40512941460824L211.06755132334575,119.24640866776777L211.37703453642982,125.5692570536899L211.6865177495139,130.63236632151202L211.78967882054192,123.33524129567436L211.99600096259798,22.701393857596965L212.20232310465406,122.57544147910569L212.30548417568207,112.76924159187652L212.40864524671008,106.45676123520869L213.1307727439063,87.41955144733538L213.33709488596233,91.92501390534478L213.44025595699037,144.129219385877L214.05922238315856,145.1694979574773L214.16238345418657,121.40154493049067L214.2655445252146,133.95192652430396L214.36870559624262,119.52629833022812L214.47186666727066,146.49415507693092L214.6781888093267,150.58164457377504L214.9876720224108,135.0400511945425L215.709799519607,145.66189687409647L215.81296059063502,12.819248156080086L215.91612166166308,168.69499226398187L216.8445713009153,136.99501380154894L217.1540545139994,133.45050270949298L217.2572155850274,141.50293866650625L217.66985986913954,151.190931238385L217.77302094016756,107.70991429836195L217.8761820111956,131.59614533180755L217.97934308222364,156.0364414922325L218.2888262953077,112.5919718553309L218.39198736633574,105.94856285582814L218.49514843736378,85.62253634053704L218.5983095083918,45.79759284371649L219.0109537925039,136.90263230452285L219.11411486353194,110.93598551009386L219.21727593455995,129.58036480774354L219.52675914764404,134.94209688179225L219.7330812897001,144.41944173203737L219.93940343175618,105.83257052854567L220.1457255738122,118.28022615978144L220.24888664484024,143.61907700101128L220.35204771586828,110.9075441207531L220.55836985792433,140.86294849708185L220.66153092895235,101.39349880331804L221.1773362840925,133.4070276777335L221.48681949717658,123.98049795268585L221.69314163923264,145.38981857913112L222.00262485231673,120.8457714350546L222.31210806540082,127.37211595879519L222.41526913642883,115.97739260759049L222.62159127848489,119.70845753511526L222.82791342054097,145.2466455206104L223.44687984670912,122.358254829931L223.55004091773714,119.55598859581997L223.75636305979322,-3.8462278124668927L223.96268520184927,165.0964613831407L224.89113484110152,131.20320880492108L224.99429591212953,157.74623555292905L225.09745698315754,171.2911350074066L225.2006180541856,121.72684184834425L226.43855090652193,97.62013702917632L226.644873048578,75.31690377138777L226.85119519063406,123.55326445630024L227.05751733269008,101.376462246157L227.47016161680222,99.13796938459981L227.57332268783023,122.4859818812331L227.6764837588583,101.47115298606245L227.7796448298863,138.33732013443776L227.88280590091432,126.37079996985854L227.98596697194236,107.2548638507611L228.08912804297037,97.28030130666384L228.29545018502645,134.74356090342388L228.39861125605447,103.49534575204416L228.50177232708248,166.3969067979153L228.70809446913856,133.40941939357282L229.2238998242787,103.030481022206L229.53338303736277,135.03024869415665L229.73970517941885,139.75764588746515L229.84286625044686,146.34433705420633L230.0491883925029,139.16062413018898L230.358671605587,127.67528655967199L230.6681548186711,163.04835145876558L230.87447696072715,134.90532572349377L231.18396017381124,113.14831087963537L231.4934433868953,119.23818493547287L231.59660445792335,130.5385827841663L231.9060876710074,135.02928258233976L232.1124098130635,140.33194045334184L232.2155708840915,72.38527280862652L233.04085945231574,113.34392495885027L233.14402052334378,103.00274654395075L233.3503426653998,120.66310561055616L233.86614802053995,90.80174397230444L234.3819533756801,121.41615442625807L234.48511444670814,103.60563566323674L234.58827551773618,157.89521706420246L234.7945976597922,139.2505196565643L234.89775873082024,142.45839968969548L235.1040808728763,87.9039269231339L235.31040301493235,88.19729502362482L235.61988622801644,123.87985737781062L235.72304729904448,164.68198763184873L236.13569158315659,159.80295801069613L236.65149693829673,136.97756487958802L236.85781908035278,113.74579212911712L237.47678550652097,159.75349779841255L237.57994657754898,137.25647664838004L237.683107648577,102.16050911295902L237.78626871960503,156.0624676020311L237.88942979063307,141.0157119826628L238.19891300371714,60.381404175028955L238.40523514577322,122.07610305199701L238.71471835885728,138.20814391541035L238.8178794298853,114.16484902061356L239.1273626429694,143.50382693036863L239.33368478502547,188.8439846797558L239.54000692708152,129.97675341709763L239.64316799810953,94.41728784660377L239.74632906913757,67.5757089834777L240.15897335324968,112.9899627964788L240.5716176373618,147.9202775008596L240.67477870838982,144.83232493338693L240.77793977941784,127.55204839376297L241.19058406352997,142.6585262180063L241.293745134558,108.80971478336303L241.50006727661406,131.90425252843156L241.60322834764207,128.91285223338954L241.80955048969815,132.89450535887983L241.91271156072617,134.83975972031178L242.0158726317542,134.90767031192743L242.22219477381023,159.95614564292836L242.3253558448383,115.99631426097957L242.4285169158663,156.26114496261658L242.53167798689432,127.2242537234072L242.84116119997842,133.98050929586185L243.04748334203447,127.8605679551869L243.15064441306248,101.34141123816661L243.7696108392307,157.78912149211732L243.8727719102587,180.39286265236052L243.97593298128672,134.46021915849593L244.38857726539885,141.16590702463301L244.5948994074549,164.95215726688318L244.80122154951096,148.4967870548043L245.2138658336231,31.63670285116798L245.93599333081926,140.01018987276728L246.24547654390335,108.14983684873266L246.4517986859594,78.45393953189841L246.65812082801548,134.99308873476113L246.7612818990435,129.03394610233917L246.96760404109955,127.43201489144163L247.17392618315563,116.89397352107612L247.38024832521165,67.16475800576188L247.4834093962397,111.40449083202243L247.5865704672677,127.25102208984556L247.8960536803518,138.14174140077714L247.9992147513798,98.98075235918009L248.30869796446393,144.66516402536425L248.41185903549194,93.79863461011064L248.72134224857604,117.76765671352209L249.0308254616601,141.79186500900983L249.4434697457722,121.71808793273524L250.06243617194042,140.70792289602724L250.16559724296843,132.17364456127194L250.4750804560525,51.7207301381826L250.57824152708054,154.49566987208388L250.7845636691366,127.58468412221114L250.99088581119264,135.7789853522369L251.09404688222068,119.61844419022569L251.30036902427673,96.47787475163832L251.40353009530475,122.18371848291603L251.60985223736083,90.77959409162482L251.71301330838884,120.40549542914114L251.81617437941688,125.71271287664482L251.9193354504449,130.66316408113784L252.12565759250097,115.71548205040521L252.33197973455702,139.4147940109878L252.43514080558504,138.2744286115293L252.84778508969714,156.2925553785165L252.95094616072518,108.00704080945756L253.15726830278123,127.69826116995141L253.4667515158653,128.261999196951L253.67307365792138,16.230989564423886L253.98255687100547,127.7379188818491L254.60152329717366,104.3606991755324L255.2204897233418,150.26834158067246L255.63313400745392,116.80219289847273L255.942617220538,134.17106896081526L256.4584225756782,130.8131941771881L256.6647447177342,113.5483518629313L256.9742279308183,149.67755242280026L257.59319435698643,167.09238948755302L257.6963554280145,159.4376617072535L257.9026775700706,148.1446275157009L258.2121607831546,124.77675081756452L258.5216439962387,121.42143269569665L258.6248050672667,122.16748309165192L258.72796613829473,146.69702677662386L259.656415777547,117.05957922471069L259.759576848575,112.65394439382817L259.8627379196031,92.6350000540871L259.9658989906311,94.33265880781555L260.1722211326871,150.09243853889214L260.3785432747432,165.90692316083832L260.6880264878273,127.88882083490485L260.7911875588553,108.88703907426752L261.2038318429674,123.47827297197796L261.4101539850235,132.10627593482187L261.5133150560515,-196.77965306366286L261.6164761270795,127.9115833718586L261.7196371981076,124.79878287972988L262.5449257663318,136.00387733224377L263.4733754055841,135.33165201731964L263.6796975476401,131.32214659505988L263.9891807607242,118.2372930931875L264.50498611586437,63.3487812750147L264.81446932894846,123.24106895723162L264.9176303999765,131.25734641222053L265.22711361306057,143.58335442748967L265.3302746840886,129.5957047782993L265.6397578971726,113.5925220239249L265.94924111025676,149.71010567828847L266.1555632523128,99.91329768134706L266.36188539436887,114.60150799813945L266.67136860745296,134.37699216002733L266.980851820537,130.11170274332343L267.084012891565,134.40867355851006L267.1871739625931,159.3519133925799L267.39349610464916,147.76607662940478L268.21878467287337,168.98142085398325L268.4251068149294,95.68664095546687L268.6314289569855,146.7500686717407L268.83775109904155,126.18681457800044L269.35355645418167,72.54329099994315L269.8693618093218,111.9739784025176L270.28200609343395,173.21160035343965L270.69465037754605,112.27598260010332L270.79781144857407,114.29358931113825L270.9009725196021,137.8056876525722L271.3136168037142,145.94572167493286L271.41677787474225,122.89231437319017L271.51993894577026,160.30519477325544L271.6231000167983,123.54049292935515L271.93258322988237,123.66964558467971L272.4483885850225,148.9975864314897L272.7578717981066,146.9850694802705L272.96419394016266,168.72933636088672L273.37683822427476,109.58182663467115L273.4799992953028,160.88871452879818L273.58316036633084,123.03892773232708L273.68632143735886,153.4286464977481L273.8926435794149,145.0075446277846L274.09896572147096,134.41306818909172L274.40844893455505,145.29074499049543L274.71793214763915,105.30350649029083L274.82109321866716,152.83641995400203L275.02741536072324,73.85446968136621L275.23373750277926,133.1871429845824L275.9558649999755,98.57991020998725L276.26534821305955,92.40572522535001L276.36850928408757,109.33882594902354L276.57483142614365,141.46326917275712L276.78115356819967,141.07742532042872L276.98747571025575,130.54383748990202L277.09063678128376,91.75020657574703L277.29695892333984,118.19110823560018L277.60644213642394,120.760965668495L277.81276427847996,89.06938766612836L278.12224749156405,132.89739191247904L278.32856963362013,60.761745902741744L278.43173070464815,150.27644749445307" fill="none"></path></g></g></g></g></g></g><g transform="translate(41, 177)" clip-path="url(#clip_1)"><clipPath id="clip_1"><rect width="288" height="22"></rect></clipPath><g><g><line x1="0" y1="0" x2="0" y2="5" style="visibility: inherit;" fill="rgb(0, 0, 0)" stroke="rgb(204, 204, 204)" stroke-width="1px"></line><line x1="20.632214205605642" y1="0" x2="20.632214205605642" y2="5" style="visibility: inherit;" fill="rgb(0, 0, 0)" stroke="rgb(204, 204, 204)" stroke-width="1px"></line><line x1="41.264428411211284" y1="0" x2="41.264428411211284" y2="5" style="visibility: inherit;" fill="rgb(0, 0, 0)" stroke="rgb(204, 204, 204)" stroke-width="1px"></line><line x1="61.896642616816926" y1="0" x2="61.896642616816926" y2="5" style="visibility: inherit;" fill="rgb(0, 0, 0)" stroke="rgb(204, 204, 204)" stroke-width="1px"></line><line x1="82.52885682242257" y1="0" x2="82.52885682242257" y2="5" style="visibility: inherit;" fill="rgb(0, 0, 0)" stroke="rgb(204, 204, 204)" stroke-width="1px"></line><line x1="103.16107102802822" y1="0" x2="103.16107102802822" y2="5" style="visibility: inherit;" fill="rgb(0, 0, 0)" stroke="rgb(204, 204, 204)" stroke-width="1px"></line><line x1="123.79328523363385" y1="0" x2="123.79328523363385" y2="5" style="visibility: inherit;" fill="rgb(0, 0, 0)" stroke="rgb(204, 204, 204)" stroke-width="1px"></line><line x1="144.4254994392395" y1="0" x2="144.4254994392395" y2="5" style="visibility: inherit;" fill="rgb(0, 0, 0)" stroke="rgb(204, 204, 204)" stroke-width="1px"></line><line x1="165.05771364484514" y1="0" x2="165.05771364484514" y2="5" style="visibility: inherit;" fill="rgb(0, 0, 0)" stroke="rgb(204, 204, 204)" stroke-width="1px"></line><line x1="185.6899278504508" y1="0" x2="185.6899278504508" y2="5" style="visibility: inherit;" fill="rgb(0, 0, 0)" stroke="rgb(204, 204, 204)" stroke-width="1px"></line><line x1="206.32214205605644" y1="0" x2="206.32214205605644" y2="5" style="visibility: inherit;" fill="rgb(0, 0, 0)" stroke="rgb(204, 204, 204)" stroke-width="1px"></line><line x1="226.95435626166207" y1="0" x2="226.95435626166207" y2="5" style="visibility: inherit;" fill="rgb(0, 0, 0)" stroke="rgb(204, 204, 204)" stroke-width="1px"></line><line x1="247.5865704672677" y1="0" x2="247.5865704672677" y2="5" style="visibility: inherit;" fill="rgb(0, 0, 0)" stroke="rgb(204, 204, 204)" stroke-width="1px"></line><line x1="268.21878467287337" y1="0" x2="268.21878467287337" y2="5" style="visibility: inherit;" fill="rgb(0, 0, 0)" stroke="rgb(204, 204, 204)" stroke-width="1px"></line><line x1="288.850998878479" y1="0" x2="288.850998878479" y2="5" style="visibility: inherit;" fill="rgb(0, 0, 0)" stroke="rgb(204, 204, 204)" stroke-width="1px"></line></g><g transform="translate(0, 8)"><text style="text-anchor: middle; visibility: hidden; font-family: Roboto, sans-serif; font-size: 12px; font-weight: 200;" x="0" y="0" dx="0em" dy="0.95em" fill="rgb(50, 49, 63)" stroke="none" stroke-width="1px">-200</text><text style="text-anchor: middle; visibility: hidden; font-family: Roboto, sans-serif; font-size: 12px; font-weight: 200;" x="20.632214205605642" y="0" dx="0em" dy="0.95em" fill="rgb(50, 49, 63)" stroke="none" stroke-width="1px">0</text><text style="text-anchor: middle; visibility: hidden; font-family: Roboto, sans-serif; font-size: 12px; font-weight: 200;" x="41.264428411211284" y="0" dx="0em" dy="0.95em" fill="rgb(50, 49, 63)" stroke="none" stroke-width="1px">200</text><text style="text-anchor: middle; visibility: hidden; font-family: Roboto, sans-serif; font-size: 12px; font-weight: 200;" x="61.896642616816926" y="0" dx="0em" dy="0.95em" fill="rgb(50, 49, 63)" stroke="none" stroke-width="1px">400</text><text style="text-anchor: middle; visibility: hidden; font-family: Roboto, sans-serif; font-size: 12px; font-weight: 200;" x="82.52885682242257" y="0" dx="0em" dy="0.95em" fill="rgb(50, 49, 63)" stroke="none" stroke-width="1px">600</text><text style="text-anchor: middle; visibility: hidden; font-family: Roboto, sans-serif; font-size: 12px; font-weight: 200;" x="103.16107102802822" y="0" dx="0em" dy="0.95em" fill="rgb(50, 49, 63)" stroke="none" stroke-width="1px">800</text><text style="text-anchor: middle; visibility: hidden; font-family: Roboto, sans-serif; font-size: 12px; font-weight: 200;" x="123.79328523363385" y="0" dx="0em" dy="0.95em" fill="rgb(50, 49, 63)" stroke="none" stroke-width="1px">1k</text><text style="text-anchor: middle; visibility: hidden; font-family: Roboto, sans-serif; font-size: 12px; font-weight: 200;" x="144.4254994392395" y="0" dx="0em" dy="0.95em" fill="rgb(50, 49, 63)" stroke="none" stroke-width="1px">1.2k</text><text style="text-anchor: middle; visibility: hidden; font-family: Roboto, sans-serif; font-size: 12px; font-weight: 200;" x="165.05771364484514" y="0" dx="0em" dy="0.95em" fill="rgb(50, 49, 63)" stroke="none" stroke-width="1px">1.4k</text><text style="text-anchor: middle; visibility: hidden; font-family: Roboto, sans-serif; font-size: 12px; font-weight: 200;" x="185.6899278504508" y="0" dx="0em" dy="0.95em" fill="rgb(50, 49, 63)" stroke="none" stroke-width="1px">1.6k</text><text style="text-anchor: middle; visibility: hidden; font-family: Roboto, sans-serif; font-size: 12px; font-weight: 200;" x="206.32214205605644" y="0" dx="0em" dy="0.95em" fill="rgb(50, 49, 63)" stroke="none" stroke-width="1px">1.8k</text><text style="text-anchor: middle; visibility: hidden; font-family: Roboto, sans-serif; font-size: 12px; font-weight: 200;" x="226.95435626166207" y="0" dx="0em" dy="0.95em" fill="rgb(50, 49, 63)" stroke="none" stroke-width="1px">2k</text><text style="text-anchor: middle; visibility: hidden; font-family: Roboto, sans-serif; font-size: 12px; font-weight: 200;" x="247.5865704672677" y="0" dx="0em" dy="0.95em" fill="rgb(50, 49, 63)" stroke="none" stroke-width="1px">2.2k</text><text style="text-anchor: middle; visibility: hidden; font-family: Roboto, sans-serif; font-size: 12px; font-weight: 200;" x="268.21878467287337" y="0" dx="0em" dy="0.95em" fill="rgb(50, 49, 63)" stroke="none" stroke-width="1px">2.4k</text><text style="text-anchor: middle; visibility: hidden; font-family: Roboto, sans-serif; font-size: 12px; font-weight: 200;" x="288.850998878479" y="0" dx="0em" dy="0.95em" fill="rgb(50, 49, 63)" stroke="none" stroke-width="1px">2.6k</text></g><line x1="0" y1="0" x2="288.850998878479" y2="0" fill="rgb(0, 0, 0)" stroke="rgb(204, 204, 204)" stroke-width="1px"></line></g></g></g></g></svg>